<?xml version="1.0" encoding="UTF-8" standalone="no"?>
<!--?xml version="1.0" encoding="UTF-8" standalone="no"?-->

<svg
   xmlns:dc="http://purl.org/dc/elements/1.1/"
   xmlns:cc="http://creativecommons.org/ns#"
   xmlns:rdf="http://www.w3.org/1999/02/22-rdf-syntax-ns#"
   xmlns:svg="http://www.w3.org/2000/svg"
   xmlns="http://www.w3.org/2000/svg"
   xmlns:sodipodi="http://sodipodi.sourceforge.net/DTD/sodipodi-0.dtd"
   xmlns:inkscape="http://www.inkscape.org/namespaces/inkscape"
   width="249.27211"
   height="163.34926"
   viewBox="0 0 145.07901 94.335438"
   preserveAspectRatio="xMinYMin meet"
   xml:space="preserve"
   id="svg2"
   version="1.1"
   inkscape:version="0.48.2 r9819"
   sodipodi:docname="AK.svg"><metadata
   id="metadata35"><rdf:RDF><cc:Work
       rdf:about=""><dc:format>image/svg+xml</dc:format><dc:type
         rdf:resource="http://purl.org/dc/dcmitype/StillImage" /></cc:Work></rdf:RDF></metadata><defs
   id="defs33" /><sodipodi:namedview
   pagecolor="#ffffff"
   bordercolor="#666666"
   borderopacity="1"
   objecttolerance="10"
   gridtolerance="10"
   guidetolerance="10"
   inkscape:pageopacity="0"
   inkscape:pageshadow="2"
   inkscape:window-width="640"
   inkscape:window-height="480"
   id="namedview31"
   showgrid="false"
   inkscape:zoom="0.35866261"
   inkscape:cx="469.38537"
   inkscape:cy="272.59963"
   inkscape:window-x="0"
   inkscape:window-y="0"
   inkscape:window-maximized="0"
   inkscape:current-layer="svg2" />
  <path
   style="fill:#72b3dc;stroke:#c2dffb;stroke-width:1"
   d="m 60.866,4.246 0.882,-0.881 0.66,-0.44 0.219,0.44 -0.439,0.22 0.439,0 2.204,-0.66 1.983,-2.425 1.762,0.882 0,0.442 -0.661,0.659 0,0.663 0.661,-0.221 0.441,-1.101 0.44,-0.442 0.661,0.66 0.22,0.883 0.661,0.221 0.219,-0.441 1.101,-0.222 1.763,0 0.219,0.222 -0.44,0.66 0,0.22 1.323,0.221 -0.222,0.66 0.882,0 1.101,-0.66 2.423,-0.221 1.542,0.441 0.664,0 0.658,0.22 0.223,0.22 0.881,0 1.101,-0.22 1.323,0 1.542,0.442 0.44,-0.222 0.882,-0.66 0.219,-0.221 0.441,-0.439 1.543,0.219 3.524,1.101 1.101,3.526 0.661,2.203 -9.032,2.203 0.441,2.422 -1.762,0.441 -4.627,0.884 -0.223,0 -10.351,1.1 -2.424,0 0,-0.441 -1.761,0 0,-0.441 -1.763,0 -1.762,0.22 -1.323,0 0,-0.438 -0.66,0 0,0.218 -1.982,0 -0.441,-0.218 -0.221,0 0,0.218 -0.88,0 -0.222,-0.44 -1.101,0 0,0.44 -0.442,0 -3.085,-0.218 0,0.878 -1.542,0 -1.321,-0.66 -0.661,-0.882 0.44,-1.32 0.221,-1.544 1.542,0.222 1.984,-0.222 0.659,-0.219 1.322,-1.543 0.663,-1.982 1.321,-1.982 0.882,-0.883 0.66,0.223 0.882,-0.442 1.322,-1.543"
   id="02185"
   inkscape:label="North Slope, AK"
   inkscape:connector-curvature="0" />
  <path
   style="fill:#72b3dc;stroke:#c2dffb;stroke-width:1"
   d="m 72.538,23.633 -0.439,0 -0.881,0.44 0.221,0.441 -1.321,0 0,1.321 -0.882,0.221 0,-0.44 -0.44,-0.439 -0.881,0 0,0.879 -0.882,0 0,-0.879 -1.761,0 0,1.982 -2.203,0 0,0.88 -1.321,0 0,2.203 -0.441,0 0,0.442 -0.441,0 -7.711,-0.221 0,-0.882 -0.222,0 -0.219,-0.22 0,-0.66 -0.441,-0.221 0,-1.762 -0.222,-2.204 0.882,0 0.441,0.22 -0.441,1.542 0.222,0.883 3.965,0.438 1.102,-1.1 0.662,0 -0.222,-0.441 -0.66,-0.44 -0.66,-0.439 -0.885,-1.104 -0.438,-0.219 -0.22,-0.661 0.22,-0.221 0.438,0 0.663,1.542 0.882,0.881 0.441,-0.218 -0.441,-0.221 -0.66,-0.883 0.44,-1.321 0.22,0.22 0,-0.22 -0.66,-0.44 -1.102,0.219 -0.883,0 -1.543,-0.66 -0.659,-2.423 -2.205,-2.425 1.542,0 0,-0.878 3.085,0.218 0.442,0 0,-0.44 1.101,0 0.222,0.44 0.88,0 0,-0.218 0.221,0 0.441,0.218 1.982,0 0,-0.218 0.66,0 0,0.438 1.323,0 1.762,-0.22 1.763,0 0,0.441 1.761,0 0,0.441 1.763,0 0,1.101 0.44,0 0,0.441 0.88,0.882 0,1.32 0.881,0 0.439,0.441 0.222,1.322 -0.222,0.881"
   id="02188"
   inkscape:label="Northwest Arctic, AK"
   inkscape:connector-curvature="0" />
  <path
   style="fill:#72b3dc;stroke:#c2dffb;stroke-width:1"
   d="m 138.85399,62.847 0.88,-1.1 1.76401,1.541 0.43999,1.321 -0.221,0.662 -0.881,0.22 -1.542,-0.441 0,-0.441 0.221,-0.44 -0.661,-1.322 m 0.661,2.203 0.66,0.441 0.221,0.882 -0.662,-0.662 -0.219,-0.661"
   id="02130"
   inkscape:label="Ketchikan Gateway, AK"
   inkscape:connector-curvature="0" />
  <path
   style="fill:#72b3dc;stroke:#c2dffb;stroke-width:1"
   d="m 137.75199,64.169 0.661,0.221 0,-0.882 -0.22,-0.22 0,-0.882 0.22,-0.44 0.661,-0.44 0.66,-0.883 0.221,-0.439 -0.661,-0.44 0.881,-0.221 1.32301,0.661 0.65999,0 0.21801,-0.44 0.664,0.44 0,1.322 1.539,1.982 0,1.763 -0.44001,1.542 -0.66099,0.22 -0.438,-0.22 -1.10201,-1.542 0.22,-0.881 -0.881,-1.543 -1.543,-1.1 -0.88,1.1 -0.441,0.22 0.441,0.221 0,1.543 -0.661,0 -0.66199,-0.662 0.22099,0 m -4.84599,-1.322 1.099,-0.441 3.086,1.763 1.32199,1.542 0.881,0.44 1.102,1.983 0,0.662 -0.662,0.219 -1.321,-1.101 -1.98299,-0.66 1.101,1.542 0.44199,-0.441 0.44,0.221 0.441,1.101 -0.661,0 -2.64399,-1.763 -0.22,-0.44 0.881,-0.882 -0.661,-0.66 -0.66001,0 -1.10199,-0.441 0.218,-0.22 0.441,0 0.222,-0.221 -0.663,-0.881 -0.218,0.662 -0.441,0.219 -0.22,-0.219 0.22,-0.662 -0.44,-1.102 0,-0.22 m 0.22,2.203 0,0.441 -0.22,-0.22 0.22,-0.221 m 7.48999,1.323 -0.22,-0.882 0.881,0.22 0.22101,0.662 -0.66201,0.44 -0.22,-0.44 m -6.39099,0.219 0.883,-0.441 0.441,0.222 -0.441,1.101 -0.883,-0.22 0,-0.662 m 7.71299,-0.219 0.22,0.219 0,0.441 -0.65999,0 0.43999,-0.66"
   id="02201"
   inkscape:label="Prince of Wales-Outer Ketchikan, AK"
   inkscape:connector-curvature="0" />
  <path
   style="fill:#72b3dc;stroke:#c2dffb;stroke-width:1"
   d="m 138.19299,63.288 0.22,0.22 0,0.882 -0.661,-0.221 0.221,-0.661 -0.44199,-1.761 -0.21901,0.879 0.21901,0.441 -0.21901,0.441 -1.10199,-0.22 -0.661,-0.441 0,-0.441 0.44099,-0.88 -0.44099,-1.543 -1.324,-0.44 -0.661,-0.442 -0.218,-0.44 -1.103,0.221 -0.659,0 0.218,-0.441 0.661,0 0.221,-0.882 0.442,-0.66 0.879,-0.22 0.663,0.661 0,0.661 0.881,-0.221 0.22,0.881 0.661,0.221 0.661,0.661 0.44,-0.22 1.76299,0.441 0.661,0.44 -0.221,0.439 -0.66,0.883 -0.661,0.44 -0.22,0.44 0,0.882 m -7.04999,-2.864 -0.662,-0.441 0.22,-0.44 1.542,0 0.663,-0.442 2.423,1.323 -0.661,0.882 -0.663,0 0,-0.442 -1.099,-0.66 0,0.439 0.881,0.441 0.218,0.442 -0.218,0.44 -0.661,0 0,0.221 -0.442,0.219 -0.66,-1.322 -0.222,-0.22 -0.439,-0.221 -0.22,-0.219 m 0.22,2.202 -1.101,-0.66 -0.441,-0.66 0.219,-0.663 0.441,-0.219 0.662,0.44 0.659,0 0.441,0.883 -0.441,0.219 0,0.44 0.222,0.661 0.439,0 0,1.323 -0.439,-0.442 0.219,1.102 -0.441,-0.219 -0.439,-1.101 0,-0.663 0.439,0 -0.439,-0.441 m 3.083,-0.879 0.662,-0.441 0.441,0.881 -0.441,0.219 -0.662,0 0,-0.659 m -3.965,2.862 -0.219,-0.44 0.219,0 0,0.662 0,-0.222 m 1.543,0.882 0.439,0 -0.22,0.441 -0.441,-0.221 0.222,-0.22"
   id="02280"
   inkscape:label="Wrangell-Petersburg, AK"
   inkscape:connector-curvature="0" />
  <path
   style="fill:#72b3dc;stroke:#c2dffb;stroke-width:1"
   d="m 124.97299,57.559 1.101,0.442 0.88202,-0.442 0.65998,1.102 0,0.221 -0.65998,0.219 -1.54301,-0.66 -0.22099,0.22 0.66199,0.882 -0.221,0.661 -0.44099,0 -1.982,-1.763 0.881,-0.219 0,-0.882 0.88199,0.219 m 5.508,7.05 0,0.222 -0.441,-0.222 -1.10201,-1.101 0,-0.661 -0.43999,0.441 -0.22101,-0.441 -0.661,-0.221 -0.43999,-1.32 -0.44201,-0.442 0,-0.44 -0.44,0.219 -0.661,-0.439 0.441,-1.322 0.88202,0.441 0.881,-0.222 0.21998,0.442 -0.441,0.221 0.441,0 1.54401,2.423 0.88,1.982 -0.219,0 0.219,0.44 m -5.06801,-4.185 0.22,-0.22 0.881,0.88 0,0.663 -0.44,0.219 -0.661,-1.542"
   id="02220"
   inkscape:label="Sitka, AK"
   inkscape:connector-curvature="0" />
  <path
   style="fill:#72b3dc;stroke:#c2dffb;stroke-width:1"
   d="m 124.311,51.832 -0.22,0.22 -0.661,-1.101 -0.66001,-0.441 0,0.221 1.102,1.762 0.88,1.322 1.102,1.762 -0.881,0 -0.66199,-0.66 -0.22,-0.22 0.44099,-0.441 -0.44099,-0.441 -1.10101,-0.221 0.22001,-1.101 -0.881,-0.661 -1.983,0 0,-1.763 0.881,-1.101 1.76299,1.323 0.66001,-0.222 0.22199,0.222 0.88,0 0.44001,0.44 0.22099,-0.221 0.441,0.661 0.22,0 -1.76299,0.661"
   id="02100"
   inkscape:label="Haines, AK"
   inkscape:connector-curvature="0" />
  <path
   style="fill:#72b3dc;stroke:#c2dffb;stroke-width:1"
   d="m 130.04,55.577 0,0.441 -0.439,0 -1.54401,-1.321 -1.10099,0.438 -1.764,-1.099 -1.101,-1.984 0.22,-0.22 1.76299,-0.661 0.44,0.44 0.66201,0.221 2.203,0.882 0,0.44 1.102,0.661 -0.441,1.541 0,0.221 m -2.864,0.221 -0.44201,0 -0.22,-0.663 0.22,0.221 0.22202,-0.221 1.10098,-0.218 -0.66099,0.439 -0.22,0.221 0,0.221"
   id="02110"
   inkscape:label="Juneau, AK"
   inkscape:connector-curvature="0" />
  <path
   style="fill:#72b3dc;stroke:#c2dffb;stroke-width:1"
   d="m 122.98999,50.291 -1.76299,-1.323 0.44199,-0.66 0.88001,0.219 0.661,0.441 0.44,1.101 -0.66001,0.222 m 1.10101,4.406 0.22,0.22 -1.101,0.66 -0.44001,-1.321 -0.66199,-0.662 0,0.442 -0.22,0 -1.982,-0.442 0,0.221 0.881,0 1.321,0.441 0.88199,1.321 -1.321,1.322 -0.88199,-0.44 -0.441,0 -0.661,-0.22 -2.202,-0.883 0.881,-0.88 1.321,-1.983 0.661,-0.22 0,-0.441 1.983,0 0.881,0.661 -0.22001,1.101 1.10101,0.221 0.44099,0.441 -0.44099,0.441 m 8.372,3.744 -0.661,0 -0.21799,0.441 -0.221,-1.102 -1.101,-1.101 0,-0.44 -0.22201,-0.662 0,-0.221 0.441,-1.541 3.524,2.864 -0.87899,0.22 -0.442,0.66 -0.22101,0.882 m -5.067,-3.085 0.66099,-0.439 0,0.218 1.76402,1.764 -0.44201,0 -0.661,-0.881 -0.22,0.221 1.542,1.541 0.22201,0.442 -0.441,0.66 0,0.661 -0.66302,1.1 -0.65999,-0.879 0,-1.323 -1.102,-0.882 -0.88201,-1.761 -0.881,-1.101 0,-0.221 0.221,0 0.66,0.659 0.22,0.663 0.44201,0 0,-0.221 0.22,-0.221 m -2.42301,2.203 -0.88199,-0.219 0,0.882 -0.881,0.219 -0.661,-0.219 -0.22,-0.663 0.22,-1.1 0.881,-0.22 0.44199,-0.441 2.422,0.441 0.22,0.44 0.22,0.661 -0.22,0.219 -0.44,0.221 -1.101,-0.221"
   id="02232"
   inkscape:label="Skagway-Hoonah-Angoon, AK"
   inkscape:connector-curvature="0" />
  <path
   style="fill:#72b3dc;stroke:#c2dffb;stroke-width:1"
   d="m 107.789,50.291 1.09999,0 0.22201,-0.442 1.322,0.22 0.441,-0.879 1.321,-0.442 0.221,1.321 0.44,0.222 1.10201,0.219 0.43999,0.661 3.30501,1.762 0.661,1.543 -0.881,0.88 0,-0.439 -0.662,-0.441 -4.845,-1.102 -0.22101,-0.22 0,-0.44 0.44,0 0,-0.441 -0.66,-1.102 -0.221,0.661 -0.881,0.882 -1.985,0.219 -1.32,-0.66 -2.863,0.22 -3.08401,1.101 1.10301,-2.863 2.862,-0.882 0.43999,0 0,0.442 1.54201,-0.442 0.44101,0 0.21999,0.442"
   id="02282"
   inkscape:label="Yakutat, AK"
   inkscape:connector-curvature="0" />
  <path
   style="fill:#72b3dc;stroke:#c2dffb;stroke-width:1"
   d="m 33.108,70.338 -0.44,0.441 -0.221,-0.222 0,-0.219 0.661,0 m 1.102,3.525 0.22,0 -0.22,0.22 -0.441,-0.441 0.441,0.221 m 7.487,14.099 0.882,0.881 -0.221,0.441 -1.762,1.321 -0.661,0.221 -0.66,0 -1.763,0.661 -0.661,-0.441 2.424,-0.882 0.219,-1.762 0.221,-0.22 1.321,-0.22 0,0.44 0.221,0.221 0.221,-0.221 0.219,-0.44 m -7.708,3.525 1.323,-0.882 0.217,-0.441 0.441,-0.22 0.661,-0.219 0.661,0.219 -0.441,0.882 -0.881,0.22 -1.1,1.101 -1.322,0.662 -0.66,0.22 1.101,-1.102 0,-0.44 m -31.727,0 0.223,0.22 -0.223,0.22 -0.22,-0.22 0.22,-0.22 m 2.205,0.22 0.44,0 0.441,0.882 -0.66,0.44 -0.441,-0.22 -0.221,-1.102 0.441,0 m 26.659,0 0,0.44 -0.221,-0.22 0.221,-0.22 m -1.102,0.44 0.218,0 -0.218,0.221 -0.223,-0.221 0.223,0 m -13.661,0.662 -0.22,-0.22 0.882,-0.442 0.439,0.662 -0.66,0.881 -1.322,0 -2.423,-0.442 2.203,0.222 1.101,-0.441 0.221,-0.22 -0.221,0 m -5.728,-0.441 0.44,0 0,0.441 -0.219,0.22 -0.441,-0.22 0,-0.441 0.22,0 m -3.305,0 0.441,0.221 -0.661,0.881 -0.44,0 -0.661,-0.441 1.101,-0.22 0.22,-0.441 m 23.575,0 0.221,0.221 -0.221,0.22 -0.881,-0.22 0.218,-0.221 0.663,0 m -21.591,0.88 0.66,0.222 -0.22,0.44 -2.203,0.219 1.102,-1.54 0.661,0 0,0.22 -0.221,0 -0.221,0.439 0.442,0 m 20.267,-0.439 0.22,0 0,0.22 -0.22,0 0,-0.22 z m -1.542,0 0.222,0.22 -0.222,0.441 -0.659,0 0,-0.441 0.659,-0.22 m -16.303,0.439 0.221,0.222 -0.221,0 0,-0.222 m -1.541,0.222 0.661,0 0.219,0.22 -0.66,0.22 -0.441,-0.22 0.221,-0.22 m -9.032,0 0,0.22 -0.223,0.22 0.223,-0.44 m 24.893,0 0.221,0.22 -0.221,0.22 -0.22,-0.22 0.22,-0.22 m -3.745,0 0.221,0.22 0,0.22 -0.882,0 0.221,-0.22 0.44,-0.22 m -3.966,0.44 0.442,0.219 1.542,0.442 -1.763,0 -0.88,-0.221 -0.661,-0.66 0.661,0.22 0.659,0 m -17.624,-0.22 0,0.439 -0.221,0 0.221,-0.439"
   id="02016"
   inkscape:label="Aleutians West, AK"
   inkscape:connector-curvature="0" />
  <path
   style="fill:#72b3dc;stroke:#c2dffb;stroke-width:1"
   d="m 61.967,80.253 0,0.439 -0.219,-0.439 0,-0.442 -0.441,-0.221 -0.221,0.441 -0.44,0 -0.222,0.441 -1.101,0.882 -1.981,0.66 -0.885,-0.22 0.443,-1.102 -0.66,0 -1.104,2.643 -0.88,0.441 -0.663,-0.22 0,-1.101 -0.438,-0.221 -0.222,0.44 0.222,0.441 0.219,0.882 -0.882,0.22 -0.441,-1.102 -0.661,0.22 0.442,0.882 0,1.321 -0.661,-0.22 -0.882,0.22 -1.542,0 -0.441,0.222 -0.66,0.66 -1.102,0 -0.22,-0.66 0,-0.442 0.661,-0.221 0.44,-0.66 2.423,-1.102 0.661,0 0.221,1.102 0.441,0 0,-1.322 1.321,-0.441 1.986,-2.202 1.321,-1.102 1.321,-0.441 0.662,0.22 0.661,0.221 -0.221,0 0,0.441 0.221,0.442 0.441,-0.222 0.22,-0.441 0,-0.661 0.66,-1.542 1.322,-1.1 2.643,-1.764 0.221,0.222 0,0.218 -0.44,0.442 -0.661,0 0,0.441 -0.882,0 0,0.441 -0.881,0 0,0.879 0.221,0 0,1.763 -0.221,0.441 0.881,0 0,0.883 m -1.982,1.319 0.439,0 0,0.442 -0.439,0 -0.221,-0.22 0.221,-0.222 m -0.662,0.662 0.441,0 0,0.44 -0.441,0.661 -0.88,-0.22 -0.221,-0.881 0.221,-0.22 0.441,0 0.439,0.22 m 1.763,0.221 0.221,0.88 -1.102,1.322 0,-1.322 0.219,-0.22 0.442,0.22 0.22,-0.88 m 1.102,0.219 0,1.102 -0.44,0 0.44,-1.102 m -6.169,0.661 0.221,0.221 -0.441,0 -0.442,-0.441 0.22,-0.22 0.442,0.44 m 6.608,0.221 0.222,0.441 -0.441,0.22 0,-0.661 0.219,0 m -8.371,0.441 0,0.44 -0.219,0.22 -0.444,-0.44 0.663,-0.22 m 8.593,0.22 0.22,0.22 -0.22,0.22 0,-0.44 m -10.357,2.203 0.663,0.219 0,0.222 -0.663,0 -0.219,-0.222 0.219,-0.219 m -8.151,0.441 0.22,0 0,0.44 -0.44,0.441 -0.221,-0.661 0.221,-0.22 0.22,0 m -0.66,0.661 -0.221,0.44 -0.661,0 -0.22,-0.44 0.441,-0.441 0.661,0.441 m 2.202,0.22 0.221,0 0,0.22 -0.881,0 0.66,-0.22 m -0.881,0.22 0.221,0.22 -0.662,-0.22 0.441,0"
   id="02013"
   inkscape:label="Aleutians East, AK"
   inkscape:connector-curvature="0" />
  <path
   style="fill:#72b3dc;stroke:#c2dffb;stroke-width:1"
   d="m 70.338,71.658 0.439,-0.659 0.662,-0.442 0.219,-0.219 0.221,0.219 0.22,-0.219 0.439,-0.661 0.882,-0.662 -0.22,-1.761 0.882,-0.441 1.102,-0.44 0.66,-0.441 0,-1.101 0.662,0 0.659,-0.222 -0.22,-0.44 1.101,0 -0.22,-0.661 0.443,0 -0.223,0.661 -0.44,0.44 -0.441,0.222 -0.44,0.66 -0.219,1.542 -0.442,0.661 -0.661,0.44 -0.441,-0.22 -0.661,0.22 -0.44,0.442 -0.441,1.101 -0.439,0 -0.662,0.88 -0.44,0.222 -0.221,-0.222 0,0.442 -1.32,0.881 0,0.219 0.439,-0.219 0,0.882 -1.098,0 0,-0.442 0.439,-0.221 0.22,-0.441 m 9.471,-3.964 -0.22,0.22 -1.101,-0.44 0.88,-1.323 0.884,-1.542 0.658,-0.219 -0.217,0.881 0,0.44 0.881,-0.22 0.44,0.22 0.218,0.662 -0.218,0.44 -1.762,0.661 -0.663,-0.441 -0.221,0.221 0.441,0.44 m -2.644,2.644 0.221,0.661 0.44,0.22 -0.44,-0.44 -0.221,-1.764 0.441,-0.439 1.322,-0.221 0.44,-0.221 0.664,0 -0.223,0.662 0.223,0.219 0.878,-0.881 0.442,-0.22 -0.219,0.882 0.441,0.661 0.44,0 -0.44,0.881 -1.105,1.102 -1.101,1.322 -0.22,0.22 -0.22,-0.441 0.22,-0.442 -0.22,0 -0.659,1.543 -0.663,0.662 -0.661,0.219 -0.439,-0.66 -0.662,-1.101 -0.221,-0.663 -0.439,-0.441 0.219,-1.101 0.661,-0.66 1.101,-0.22 0,0.661 m -0.22,4.847 0.881,0.22 -0.22,0.219 -0.881,0 -0.219,-0.219 0.439,-0.22 m -0.881,0 0.442,0.22 -1.103,0.882 0,-0.441 0.661,-0.661 m -2.864,3.744 0.441,0.22 0,0.882 -0.881,-0.22 0,-0.441 0.44,-0.441"
   id="02150"
   inkscape:label="Kodiak Island, AK"
   inkscape:connector-curvature="0" />
  <path
   style="fill:#72b3dc;stroke:#c2dffb;stroke-width:1"
   d="m 68.796,63.948 1.763,0 0,1.323 -2.424,0.22 0.441,-0.66 0.22,-0.883"
   id="02060"
   inkscape:label="Bristol Bay, AK"
   inkscape:connector-curvature="0" />
  <path
   style="fill:#72b3dc;stroke:#c2dffb;stroke-width:1"
   d="m 68.356,63.948 0,0.221 -2.643,1.322 -0.441,-0.22 -0.881,-1.323 -0.221,0.221 -0.22,0.881 0.441,1.101 -0.662,0.441 -0.439,0 -1.323,-2.423 -0.441,-0.221 -0.219,0.661 -0.221,0 -1.101,-0.879 0.22,-0.222 -0.22,-0.22 -1.763,1.102 0,-0.882 0.44,0 0.442,-1.321 0.44,-0.44 0.22,-1.323 0.441,-0.881 0.661,0 0,-0.882 0.66,-1.321 0.441,-0.881 0.441,0 1.102,-2.644 2.643,0 0,0.441 0.441,0 0.439,-0.441 0,-0.661 0.882,0 0,0.44 2.862,0 0,0.442 0.222,1.541 0.219,4.187 -0.441,0 0,0.66 -0.879,0 -0.441,0.44 -0.221,0.883 -0.66,0 -0.661,0.44 0.441,1.761 m -11.014,0.883 0,-0.441 0.66,0 -0.66,0.441"
   id="02070"
   inkscape:label="Dillingham, AK"
   inkscape:connector-curvature="0" />
  <path
   style="fill:#72b3dc;stroke:#c2dffb;stroke-width:1"
   d="m 70.338,71.658 -0.22,0.441 -0.439,0.221 0,0.442 1.098,0 -2.421,1.761 -0.441,-0.219 -0.22,0.881 -1.321,0.439 0,0.222 0.22,0 0.22,0.441 -1.322,0 -0.44,0.661 0.88,0.88 -0.88,1.101 -2.864,0.661 0,0.663 -0.221,0.439 0,-1.322 -0.881,0 0.221,-0.441 0,-1.763 -0.221,0 0,-0.879 0.881,0 0,-0.441 0.882,0 0,-0.441 0.661,0 0.44,-0.442 0,-0.218 0.661,0 -0.22,-0.882 0.44,-0.881 2.202,-2.203 0.442,-4.187 0.66,-1.101 2.424,-0.22 0,-1.323 -1.763,0 -0.22,-0.218 -0.22,0.439 0,-0.221 -0.441,-1.761 0.661,-0.44 0.66,0 0.221,-0.883 0.441,-0.44 0.879,0 0,-0.66 0.441,0 -0.219,-4.187 -0.222,-1.541 0,-0.442 3.524,-0.22 1.322,-0.22 1.322,0 0.441,2.202 -0.441,0 0.22,1.763 -0.44,0 0.22,0.44 0,1.323 -0.22,0 0,0.441 -0.44,0 0,0.441 -0.221,0.44 -0.22,0.22 -0.441,0.44 -0.219,0.883 -0.662,0 0,0.879 0.22,0.221 0,0.441 0.22,1.543 0.882,0 0,1.101 -0.66,0.441 -1.102,0.44 -0.882,0.441 0.22,1.761 -0.882,0.662 -0.439,0.661 -0.22,0.219 -0.221,-0.219 -0.219,0.219 -0.662,0.442 -0.439,0.659 m -1.542,4.188 0.44,0.219 -0.88,0 0.22,-0.219 0.22,0"
   id="02164"
   inkscape:label="Lake and Peninsula, AK"
   inkscape:connector-curvature="0" />
  <path
   style="fill:#72b3dc;stroke:#c2dffb;stroke-width:1"
   d="m 75.184,61.747 0.219,-0.883 0.441,-0.44 0.22,-0.22 0.221,-0.44 0,-0.441 0.44,0 0,-0.441 0.22,0 0,-1.323 -0.22,-0.44 0.44,0 -0.22,-1.763 0.441,0 -0.441,-2.202 0,-0.221 -0.22,-1.982 0,-0.441 0.22,0 0.881,-0.219 0.881,0 0.441,-0.222 2.647,-0.22 0,0.882 0.66,0 0.442,0.22 -0.442,0.441 -1.103,0.881 -0.883,1.542 -0.88,2.424 0,1.101 -1.101,1.761 -1.102,0.663 -0.661,0.879 -0.661,0.441 -0.22,1.322 0.22,0.441 0.221,-0.221 0.88,-0.22 1.104,0.882 0,0.22 -0.443,0 0.22,0.661 -1.101,0 0.22,0.44 -0.659,0.222 -1.544,0 -0.22,-1.543 0,-0.441 -0.22,-0.221 0,-0.879 0.662,0 m 6.39,-1.323 1.539,-1.101 0.444,-0.882 -0.444,0 -0.658,0.66 -0.441,-0.219 -0.44,-0.441 0.221,-1.322 0.437,-1.101 0.223,-0.883 0,-0.879 -0.441,-0.882 0.883,-0.441 1.32,-1.322 0.442,0.441 0.66,0 0.66,-0.441 0.661,0.221 0.882,0 0.22,0.22 0.662,0.441 0.439,0 0,0.221 0.221,0.88 0,0.221 0.22,0.221 0.221,1.982 0,0.221 -1.763,0.22 -0.88,0.44 0,1.323 -1.543,1.321 -0.22,-0.22 -0.44,0.441 -0.442,1.1 -1.985,0.662 -0.658,-0.442 0,-0.66"
   id="02122"
   inkscape:label="Kenai Peninsula, AK"
   inkscape:connector-curvature="0" />
  <path
   style="fill:#72b3dc;stroke:#c2dffb;stroke-width:1"
   d="m 85.979,51.611 -1.101,-0.88 0.221,-0.221 0,-0.219 0.22,0 0.441,-0.882 0.219,-0.219 0.222,0 0.219,-0.222 0.22,0 0.222,0.222 1.762,-0.442 0,0.661 0.219,0.66 0,0.662 0.221,0.22 0,0.881 -0.66,0 0,0.441 0.22,0.22 -0.22,0 -0.662,-0.441 -0.22,-0.22 -0.882,0 -0.661,-0.221"
   id="02020"
   inkscape:label="Anchorage, AK"
   inkscape:connector-curvature="0" />
  <path
   style="fill:#72b3dc;stroke:#c2dffb;stroke-width:1"
   d="m 89.064,51.392 0,-0.441 -0.221,-0.22 0,-0.662 -0.219,-0.66 0,-0.661 1.761,-0.221 1.323,-0.219 -0.221,-0.222 0.221,0 0.439,-0.219 -0.439,-2.423 0,-0.221 -0.441,-1.102 1.102,-0.22 0.219,-0.219 -0.219,-0.662 0,-0.22 -0.661,-2.864 -0.221,-0.661 0.882,-0.441 0.66,-0.221 0.22,0 0.44,-0.219 0.662,0 0.661,0.219 0.22,0 3.746005,-0.88 0.44,0.661 0.22,1.101 0,0.661 0.660995,0 0.22099,-0.661 0.88001,0 1.10199,0.661 0.44001,1.543 0.44199,0.22 0,0.22 0.22,0.881 1.762,-0.662 2.20301,7.491 -0.44101,0 -1.542,0.442 0,-0.442 -0.44,0 -2.86199,0.882 -1.10301,2.863 -2.864985,-0.88 0,-0.662 -0.881005,0.441 0.441,0.44 -1.763,-0.66 -1.982,1.763 -0.442,-0.662 0.222,-0.66 0.44,0 0.881,-0.441 0.441,-0.441 0,-0.44 -1.102,0.44 -0.882,0 -0.219,-0.221 0.881,-0.66 0.22,-0.22 -0.882,0.44 -0.219,-0.44 -0.221,0.22 0,-1.102 -1.321,0.661 -0.22,0.661 -1.542,0.661 -0.222,0 0.222,-1.322 -0.441,0.221 -0.22,1.101 0.661,0.22 0.661,1.542 -0.221,0.882 0.881,0.88 -0.441,0.662 -1.541,0.221 0,-0.221 -0.221,-1.982 -0.22,-0.221 0,-0.221 -0.221,-0.88 0,-0.221 -0.219,0 -0.22,-0.22 0,-0.441 0.66,0 0,-0.44 m 3.305,-0.441 0,0.22 -0.441,0 0.441,-0.22 m -0.661,1.101 0.439,0.221 -0.439,0.22 0,-0.441 m -1.323,0 0.442,0.221 -0.221,0.22 -0.221,-0.22 0,-0.221 m 1.102,0.662 0,2.203 -0.66,-0.441 0.219,-1.102 0.441,-0.66 m 1.542,1.762 -0.441,0.659 -0.219,1.324 -0.882,0.44 0,-0.881 1.101,-1.762 0,-0.441 0.221,-0.221 0.661,0.221 -0.441,0.661"
   id="02261"
   inkscape:label="Valdez-Cordova, AK"
   inkscape:connector-curvature="0" />
  <path
   style="fill:#72b3dc;stroke:#c2dffb;stroke-width:1"
   d="m 86.64,48.968 -0.22,0 -0.219,0.222 -0.222,0 -0.219,0.219 -0.441,0.882 -0.22,0 0,0.219 -1.763,0 -0.439,0.441 -0.442,-0.22 -0.66,0 0,-0.882 -2.647,0.22 -0.441,0.222 -0.881,0 0,-0.442 -0.22,-0.221 0,-1.982 -0.22,-0.22 0,-1.542 -0.221,-2.202 2.424,-0.222 0,-0.44 5.289,-3.525 3.085,-0.442 0,-0.219 -0.221,-0.44 2.424,-0.441 1.101,-0.22 0.22,1.542 0.221,0.661 0.661,2.864 0,0.22 0.219,0.662 -0.219,0.219 -1.102,0.22 0.441,1.102 0,0.221 0.439,2.423 -0.439,0.219 -0.221,0 0.221,0.222 -1.323,0.219 -1.761,0.221 -1.762,0.442 -0.222,-0.222"
   id="02170"
   inkscape:label="Matanuska-Susitna, AK"
   inkscape:connector-curvature="0" />
  <path
   style="fill:#72b3dc;stroke:#c2dffb;stroke-width:1"
   d="m 93.029,38.613 -0.66,0.221 -0.882,0.441 -0.22,-1.542 -1.101,0.22 -0.882,-3.966 1.322,-0.442 0.44,-0.658 0.662,-0.442 0.661,0 2.643,-1.982 0.881,0 0,-0.221 0.441,-0.661 -0.441,-0.661 0.22,-0.44 0.221,-0.441 0.66,-0.442 0.221,-1.321 0.22,0 0.661,-0.66 0.661005,-0.221 0.661,-0.881 0,-0.66 0.44099,-0.661 5.507005,19.165 -1.762,0.662 -0.22,-0.881 0,-0.22 -0.44199,-0.22 -0.44001,-1.543 -1.10199,-0.661 -0.88001,0 -0.22099,0.661 -0.661005,0 0,-0.661 -0.22,-1.101 -0.44,-0.661 -3.746005,0.88 -0.22,0 -0.661,-0.219 -0.662,0 -0.44,0.219 -0.22,0"
   id="02240"
   inkscape:label="SE Fairbanks, AK"
   inkscape:connector-curvature="0" />
  <path
   style="fill:#72b3dc;stroke:#c2dffb;stroke-width:1"
   d="m 85.539,32.887 0,-0.22 -0.661,-2.865 0.221,0 2.203,-0.441 0.22,-0.441 0.882,0 0.439,-0.44 0.441,-0.661 0.441,-0.222 0.441,0.222 0,0.442 0.44,0.44 0.221,0 0.44,0.66 0.22,0.22 2.424,-0.88 1.101,-0.221 -0.22,0.44 0.22,1.543 -2.643,1.982 -0.661,0 -0.662,0.442 -0.44,0.658 -1.322,0.442 -1.542,0.222 -0.661,-0.222 -0.219,0 -0.883,-1.1 -0.44,0"
   id="02090"
   inkscape:label="Fairbanks North Stark, AK"
   inkscape:connector-curvature="0" />
  <path
   style="fill:#72b3dc;stroke:#c2dffb;stroke-width:1"
   d="m 84.878,39.495 -5.289,3.525 0,0.44 -2.424,0.222 0.881,-2.425 0,-0.661 -0.881,-0.219 -0.22,-1.324 1.324,-0.219 0.438,-0.881 -0.219,-0.882 0.66,-0.66 0.441,0 0.663,0.22 0.881,-1.762 3.304,-0.441 2.644,-0.441 0.661,0.222 1.542,-0.222 0.882,3.966 -2.424,0.441 0.221,0.44 0,0.219 -3.085,0.442"
   id="02068"
   inkscape:label="Denali, AK"
   inkscape:connector-curvature="0" />
  <path
   style="fill:#72b3dc;stroke:#c2dffb;stroke-width:1"
   d="m 76.725,50.951 0.22,1.982 0,0.221 -1.322,0 -1.322,0.22 -3.524,0.22 -2.862,0 0,-0.44 -0.882,0 0,0.661 -0.439,0.441 -0.441,0 0,-0.441 -2.643,0 -1.102,2.644 -0.441,0 -0.441,0.881 -0.66,1.321 0,0.882 -0.661,0 -0.441,0.881 -0.22,1.323 -0.44,0.44 -0.442,1.321 -0.44,0 0,0.882 -0.88,0 0,0.881 -0.661,0.22 -1.545,-0.22 0.441,-0.221 0.442,0.221 0.221,-0.881 -0.221,-1.323 -0.442,-0.88 0.88,-1.103 -0.438,-1.32 0,-0.221 -1.102,-2.203 -0.439,0.882 -1.545,0.879 -1.543,0.222 -0.881,-0.441 -0.22,-0.66 -0.881,-1.323 -1.983,-1.764 1.322,-0.879 -0.22,-0.662 -0.441,0 0,-0.22 0.22,-0.22 1.323,0 1.101,-0.221 1.102,-1.762 2.205,-0.44 0.219,-0.221 0.661,-0.219 1.323,0.44 1.982,-0.44 0.662,-0.663 1.101,-0.66 -0.221,-0.441 2.863,0 0,-0.441 1.764,0 0,-0.44 3.524,-0.22 0,0.441 3.303,0 1.101,-0.221 1.982,0 0.883,-0.22 0.439,0 0,-0.441 0.883,-0.219 0,-0.222 0.219,-0.219 0.44,0 0.221,-0.441 0,1.542 0.22,0.22 0,1.982 0.22,0.221 0,0.442 -0.881,0.219 -0.22,0 0,0.441 m -47.805,1.101 0.222,0.662 0.218,0.44 0.882,0.44 0.222,0.221 -0.883,0 -0.221,-0.441 -0.657,-0.881 0.217,-0.441 m 16.082,3.746 0.66,-0.221 1.102,0.882 -0.22,1.321 -0.22,0.442 -1.101,0.439 -2.203,-1.102 -0.662,-0.66 0,-0.44 0.221,-0.22 1.321,0 0.882,-0.662 0.22,0.221"
   id="02050"
   inkscape:label="Bethel, AK"
   inkscape:connector-curvature="0" />
  <path
   style="fill:#72b3dc;stroke:#c2dffb;stroke-width:1"
   d="m 59.764,48.527 0.221,0.441 -1.101,0.66 -0.662,0.663 -1.982,0.44 -1.323,-0.44 -0.661,0.219 -0.219,0.221 -2.205,0.44 -1.102,1.762 -1.101,0.221 -1.323,0 0,-0.221 0.441,-0.219 0.221,-0.441 -0.882,-0.441 -0.22,0.441 -0.661,-0.221 -1.101,-2.203 0.22,-1.322 2.423,-3.083 1.101,-0.883 -0.219,-0.66 0.44,-1.101 0.881,-1.101 0.882,-0.221 1.542,1.322 0.663,-0.221 1.099,-1.101 0.441,0.221 0.88,1.321 2.647,0 -0.22,0 -0.222,0.662 -0.219,1.762 0,1.763 0.441,0 -0.222,0.66 0,0.441 0.222,0.219 0.88,0"
   id="02270"
   inkscape:label="Wade Hampton, AK"
   inkscape:connector-curvature="0" />
  <path
   style="fill:#72b3dc;stroke:#c2dffb;stroke-width:1"
   d="m 61.526,38.174 0,0.879 -0.44,0 0,0.442 -0.44,0.441 -0.882,0 -0.441,0.441 0,1.322 -0.219,0 0,1.321 -2.647,0 -0.88,-1.321 -0.441,-0.221 0.663,-0.882 0.658,0.221 0.885,0 1.101,-0.221 0.661,-1.321 0.219,-0.662 -0.661,-1.982 -0.44,-0.661 0,-0.661 0.44,0 0.661,-0.44 0,-0.66 -0.88,-0.883 -0.441,0.661 -1.762,0.441 -0.883,0.66 -3.525,-0.219 -1.763,0.44 -2.423,-0.881 -0.441,-0.441 -0.22,-0.442 0.22,-0.658 -0.22,-1.323 0.22,-0.221 0.22,-0.659 -1.983,-0.882 -1.321,-0.882 0,-0.659 3.965,-2.205 0.441,0.441 1.102,0.221 0,-0.221 -0.661,-0.441 0,-0.44 3.083,-1.102 0.222,2.204 0,1.762 0.441,0.221 0,0.66 0.219,0.22 0.222,0 0,0.882 7.711,0.221 0.441,0 0,-0.442 0.881,0 0,1.322 -0.221,0 0,1.762 -0.441,0 0,0.883 -0.44,0 0,3.524 0.44,0 0,0.441 m -12.779,-12.339 -0.22,0.221 0,-0.221 0.22,0 m -5.287,5.949 0.44,-0.22 0.221,0.44 -0.44,0.222 -0.221,-0.442 m -8.59,5.287 0.218,-0.44 0,0.661 1.322,0.882 1.102,-0.662 0.44,0.221 0.441,0.441 0,0.66 1.101,0.882 1.763,0.44 -0.441,0.881 -0.881,-0.441 -0.66,0.441 -0.662,-0.22 -1.321,-1.542 -0.882,-0.441 -0.44,0 -0.882,0.441 -0.658,-0.441 0,-0.44 0.44,-1.323 m 20.707,2.645 0,0.44 -0.66,0 0.219,-0.44 0.441,0"
   id="02180"
   inkscape:label="Nome, AK"
   inkscape:connector-curvature="0" />
  <path
   style="fill:#72b3dc;stroke:#c2dffb;stroke-width:1"
   d="m 76.945,46.325 -0.22,0 -0.219,0.219 0,0.222 -0.883,0.219 0,0.441 -0.439,0 -0.883,0.22 -1.982,0 -1.101,0.221 -3.303,0 0,-0.441 -3.524,0.22 0,0.44 -1.764,0 0,0.441 -3.743,0 -0.222,-0.219 0,-0.441 0.222,-0.66 -0.441,0 0,-1.763 0.219,-1.762 0.222,-0.662 0.22,0 0,-1.321 0.219,0 0,-1.322 0.441,-0.441 0.882,0 0.44,-0.441 0,-0.442 0.44,0 0,-1.32 -0.44,0 0,-3.524 0.44,0 0,-0.883 0.441,0 0,-1.762 0.221,0 0,-1.322 -0.44,0 0,-2.203 1.321,0 0,-0.88 2.203,0 0,-1.982 1.761,0 0,0.879 0.882,0 0,-0.879 0.881,0 0.44,0.439 0,0.44 0.882,-0.221 0,-1.321 1.321,0 -0.221,-0.441 0.881,-0.44 0.439,0 0.222,-0.881 -0.222,-1.322 -0.439,-0.441 -0.881,0 0,-1.32 -0.88,-0.882 0,-0.441 -0.44,0 0,-1.101 0.661,0 10.351,-1.1 0.223,0 4.627,-0.884 1.762,-0.441 -0.441,-2.422 9.032,-2.203 3.745995,12.998 -0.44099,0.661 0,0.66 -0.661,0.881 -0.661005,0.221 -0.661,0.66 -0.22,0 -0.221,1.321 -0.66,0.442 -0.221,0.441 -0.22,0.44 0.441,0.661 -0.441,0.661 0,0.221 -0.881,0 -0.22,-1.543 0.22,-0.44 -1.101,0.221 -2.424,0.88 -0.22,-0.22 -0.44,-0.66 -0.221,0 -0.44,-0.44 0,-0.442 -0.441,-0.222 -0.441,0.222 -0.441,0.661 -0.439,0.44 -0.882,0 -0.22,0.441 -2.203,0.441 -0.221,0 0.661,2.865 0,0.22 0.44,0 0.883,1.1 0.219,0 -2.644,0.441 -3.304,0.441 -0.881,1.762 -0.663,-0.22 -0.441,0 -0.66,0.66 0.219,0.882 -0.438,0.881 -1.324,0.219 0.22,1.324 0.881,0.219 0,0.661 -0.881,2.425 0.221,2.202 -0.221,0.441 -0.22,0"
   id="02290"
   inkscape:label="Yukon-Koyukuk, AK"
   inkscape:connector-curvature="0" />
  
  
  
  
  
  
  
  
  
  
  
  
  
  
  
  
  
  
  
  
  
  
  
  
  
  
  
  
  
  
  
  
  
  
  
  
  
  
  
  
  
  
  
  
  
  
  
  
  
  
  
  
  
  
  
  
  
  
  
  
  
  
  
  
  
  
  
  
  
  
  
  
  
  
  
  
  
  
  
  
  
  
  
  
  
  
  
  
  
  
  
  
  
  
  
  
  
  
  
  
  
  
  
  
  
  
  
  
  
  
  
  
  
  
  
  
  
  
  
  
  
  
  
  
  
  
  
  
  
  
  
  
  
  
  
  
  
  
  
  
  
  
  
  
  
  
  
  
  
  
  
  
  
  
  
  
  
  
  
  
  
  
  
  
  
  
  
  
  
  
  
  
  
  
  
  
  
  
  
  
  
  
  
  
  
  
  
  
  
  
  
  
  
  
  
  
  
  
  
  
  
  
  
  
  
  
  
  
  
  
  
  
  
  
  
  
  
  
  
  
  
  
  
  
  
  
  
  
  
  
  
  
  
  
  
  
  
  
  
  
  
  
  
  
  
  
  
  
  
  
  
  
  
  
  
  
  
  
  
  
  
  
  
  
  
  
  
  
  
  
  
  
  
  
  
  
  
  
  
  
  
  
  
  
  
  
  
  
  
  
  
  
  
  
  
  
  
  
  
  
  
  
  
  
  
  
  
  
  
  
  
  
  
  
  
  
  
  
  
  
  
  
  
  
  
  
  
  
  
  
  
  
  
  
  
  
  
  
  
  
  
  
  
  
  
  
  
  
  
  
  
  
  
  
  
  
  
  
  
  
  
  
  
  
  
  
  
  
  
  
  
  
  
  
  
  
  
  
  
  
  
  
  
  
  
  
  
  
  
  
  
  
  
  
  
  
  
  
  
  
  
  
  
  
  
  
  
  
  
  
  
  
  
  
  
  
  
  
  
  
  
  
  
  
  
  
  
  
  
  
  
  
  
  
  
  
  
  
  
  
  
  
  
  
  
  
  
  
  
  
  
  
  
  
  
  
  
  
  
  
  
  
  
  
  
  
  
  
  
  
  
  
  
  
  
  
  
  
  
  
  
  
  
  
  
  
  
  
  
  
  
  
  
  
  
  
  
  
  
  
  
  
  
  
  
  
  
  
  
  
  
  
  
  
  
  
  
  
  
  
  
  
  
  
  
  
  
  
  
  
  
  
  
  
  
  
  
  
  
  
  
  
  
  
  
  
  
  
  
  
  
  
  
  
  
  
  
  
  
  
  
  
  
  
  
  
  
  
  
  
  
  
  
  
  
  
  
  
  
  
  
  
  
  
  
  
  
  
  
  
  
  
  
  
  
  
  
  
  
  
  
  
  
  
  
  
  
  
  
  
  
  
  
  
  
  
  
  
  
  
  
  
  
  
  
  
  
  
  
  
  
  
  
  
  
  
  
  
  
  
  
  
  
  
  
  
  
  
  
  
  
  
  
  
  
  
  
  
  
  
  
  
  
  
  
  
  
  
  
  
  
  
  
  
  
  
  
  
  
  
  
  
  
  
  
  
  
  
  
  
  
  
  
  
  
  
  
  
  
  
  
  
  
  
  
  
  
  
  
  
  
  
  
  
  
  
  
  
  
  
  
  
  
  
  
  
  
  
  
  
  
  
  
  
  
  
  
  
  
  
  
  
  
  
  
  
  
  
  
  
  
  
  
  
  
  
  
  
  
  
  
  
  
  
  
  
  
  
  
  
  
  
  
  
  
  
  
  
  
  
  
  
  
  
  
  
  
  
  
  
  
  
  
  
  
  
  
  
  
  
  
  
  
  
  
  
  
  
  
  
  
  
  
  
  
  
  
  
  
  
  
  
  
  
  
  
  
  
  
  
  
  
  
  
  
  
  
  
  
  
  
  
  
  
  
  
  
  
  
  
  
  
  
  
  
  
  
  
  
  
  
  
  
  
  
  
  
  
  
  
  
  
  
  
  
  
  
  
  
  
  
  
  
  
  
  
  
  
  
  
  
  
  
  
  
  
  
  
  
  
  
  
  
  
  
  
  
  
  
  
  
  
  
  
  
  
  
  
  
  
  
  
  
  
  
  
  
  
  
  
  
  
  
  
  
  
  
  
  
  
  
  
  
  
  
  
  
  
  
  
  
  
  
  
  
  
  
  
  
  
  
  
  
  
  
  
  
  
  
  
  
  
  
  
  
  
  
  
  
  
  
  
  
  
  
  
  
  
  
  
  
  
  
  
  
  
  
  
  
  
  
  
  
  
  
  
  
  
  
  
  
  
  
  
  
  
  
  
  
  
  
  
  
  
  
  
  
  
  
  
  
  
  
  
  
  
  
  
  
  
  
  
  
  
  
  
  
  
  
  
  
  
  
  
  
  
  
  
  
  
  
  
  
  
  
  
  
  
  
  
  
  
  
  
  
  
  
  
  
  
  
  
  
  
  
  
  
  
  
  
  
  
  
  
  
  
  
  
  
  
  
  
  
  
  
  
  
  
  
  
  
  
  
  
  
  
  
  
  
  
  
  
  
  
  
  
  
  
  
  
  
  
  
  
  
  
  
  
  
  
  
  
  
  
  
  
  
  
  
  
  
  
  
  
  
  
  
  
  
  
  
  
  
  
  
  
  
  
  
  
  
  
  
  
  
  
  
  
  
  
  
  
  
  
  
  
  
  
  
  
  
  
  
  
  
  
  
  
  
  
  
  
  
  
  
  
  
  
  
  
  
  
  
  
  
  
  
  
  
  
  
  
  
  
  
  
  
  
  
  
  
  
  
  
  
  
  
  
  
  
  
  
  
  
  
  
  
  
  
  
  
  
  
  
  
  
  
  
  
  
  
  
  
  
  
  
  
  
  
  
  
  
  
  
  
  
  
  
  
  
  
  
  
  
  
  
  
  
  
  
  
  
  
  
  
  
  
  
  
  
  
  
  
  
  
  
  
  
  
  
  
  
  
  
  
  
  
  
  
  
  
  
  
  
  
  
  
  
  
  
  
  
  
  
  
  
  
  
  
  
  
  
  
  
  
  
  
  
  
  
  
  
  
  
  
  
  
  
  
  
  
  
  
  
  
  
  
  
  
  
  
  
  
  
  
  
  
  
  
  
  
  
  
  
  
  
  
  
  
  
  
  
  
  
  
  
  
  
  
  
  
  
  
  
  
  
  
  
  
  
  
  
  
  
  
  
  
  
  
  
  
  
  
  
  
  
  
  
  
  
  
  
  
  
  
  
  
  
  
  
  
  
  
  
  
  
  
  
  
  
  
  
  
  
  
  
  
  
  
  
  
  
  
  
  
  
  
  
  
  
  
  
  
  
  
  
  
  
  
  
  
  
  
  
  
  
  
  
  
  
  
  
  
  
  
  
  
  
  
  
  
  
  
  
  
  
  
  
  
  
  
  
  
  
  
  
  
  
  
  
  
  
  
  
  
  
  
  
  
  
  
  
  
  
  
  
  
  
  
  
  
  
  
  
  
  
  
  
  
  
  
  
  
  
  
  
  
  
  
  
  
  
  
  
  
  
  
  
  
  
  
  
  
  
  
  
  
  
  
  
  
  
  
  
  
  
  
  
  
  
  
  
  
  
  
  
  
  
  
  
  
  
  
  
  
  
  
  
  
  
  
  
  
  
  
  
  
  
  
  
  
  
  
  
  
  
  
  
  
  
  
  
  
  
  
  
  
  
  
  
  
  
  
  
  
  
  
  
  
  
  
  
  
  
  
  
  
  
  
  
  
  
  
  
  
  
  
  
  
  
  
  
  
  
  
  
  
  
  
  
  
  
  
  
  
  
  
  
  
  
  
  
  
  
  
  
  
  
  
  
  
  
  
  
  
  
  
  
  
  
  
  
  
  
  
  
  
  
  
  
  
  
  
  
  
  
  
  
  
  
  
  
  
  
  
  
  
  
  
  
  
  
  
  
  
  
  
  
  
  
  
  
  
  
  
  
  
  
  
  
  
  
  
  
  
  
  
  
  
  
  
  
  
  
  
  
  
  
  
  
  
  
  
  
  
  
  
  
  
  
  
  
  
  
  
  
  
  
  
  
  
  
  
  
  
  
  
  
  
  
  
  
  
  
  
  
  
  
  
  
  
  
  
  
  
  
  
  
  
  
  
  
  
  
  
  
  
  
  
  
  
  
  
  
  
  
  
  
  
  
  
  
  
  
  
  
  
  
  
  
  
  
  
  
  
  
  
  
  
  
  
  
  
  
  
  
  
  
  
  
  
  
  
  
  
  
  
  
  
  
  
  
  
  
  
  
  
  
  
  
  
  
  
  
  
  
  
  
  
  
  
  
  
  
  
  
  
  
  
  
  
  
  
  
  
  
  
  
  
  
  
  
  
  
  
  
  
  
  
  
  
  
  
  
  
  
  
  
  
  
  
  
  
  
  
  
  
  
  
  
  
  
  
  
  
  
  
  
  
  
  
  
  
  
  
  
  
  
  
  
  
  
  
  
  
  
  
  
  
  
  
  
  
  
  
  
  
  
  
  
  
  
  
  
  
  
  
  
  
  
  
  
  
  
  
  
  
  
  
  
  
  
  
  
  
  
  
  
  
  
  
  
  
  
  
  
  
  
  
  
  
  
  
  
  
  
  
  
  
  
  
  
  
  
  
  
  
  
  
  
  
  
  
  
  
  
  
  
  
  
  
  
  
  
  
  
  
  
  
  
  
  
  
  
  
  
  
  
  
  
  
  
  
  
  
  
  
  
  
  
  
  
  
  
  
  
  
  
  
  
  
  
  
  
  
  
  
  
  
  
  
  
  
  
  
  
  
  
  
  
  
  
  
  
  
  
  
  
  
  
  
  
  
  
  
  
  
  
  
  
  
  
  
  
  
  
  
  
  
  
  
  
  
  
  
  
  
  
  
  
  
  
  
  
  
  
  
  
  
  
  
  
  
  
  
  
  
  
  
  
  
  
  
  
  
  
  
  
  
  
  
  
  
  
  
  
  
  
  
  
  
  
  
  
  
  
  
  
  
  
  
  
  
  
  
  
  
  
  
  
  
  
  
  
  
  
  
  
  
  
  
  
  
  
  
  
  
  
  
  
  
  
  
  
  
  
  
  
  
  
  
  
  
  
  
  
  
  
  
  
  
  
  
  
  
  
  
  
  
  
  
  
  
  
  
  
  
  
  
  
  
  
  
  
  
  
  
  
  
  
  
  
  
  
  
  
  
  
  
  
  
  
  
  
  
  
  
  
  
  
  
  
  
  
  
  
  
  
  
  
  
  
  
  
  
  
  
  
  
  
  
  
  
  
  
  
  
  
  
  
  
  
  
  
  
  
  
  
  
  
  
  
  
  
  
  
  
  
  
  
  
  
  
  
  
  
  
  
  
  
  
  
  
  
  
  
  
  
  
  
  
  
  
  
  
  
  
  
  
  
  
  
  
  
  
  
  
  
  
  
  
  
  
  
  
  
  
  
  
  
  
  
  
  
  
  
  
  
  
  
  
  
  
  
  
  
  
  
  
  
  
  
  
  
  
  
  
  
  
  
  
  
  
  
  
  
  
  
  
  
  
  
  
  
  
  
  
  
  
  
  
  
  
  
  
  
  
  
  
  
  
  
  
  
  
  
  
  
  
  
  
  
  
  
  
  
  
  
  
  
  
  
  
  
  
  
  
  
  
  
  
  
  
  
  
  
  
  
  
  
  
  
  
  
  
  
  
  
  
  
  
  
  
  
  
  
  
  
  
  
  
  
  
  
  
  
  
  
  
  
  
  
  
  
  
  
  
  
  
  
  
  
  
  
  
  
  
  
  
  
  
  
  
  
  
  
  
  
  
  
  
  
  
  
  
  
  
  
  
  
  
  
  
  
  
  
  
  
  
  
  
  
  
  
  
  
  
  
  
  
  
  
  
  
  
  
  
  
  
  
  
  
  
  
  
  
  
  
  
  
  
  
  
  
  
  
  
  
  
  
  
  
  
  
  
  
  
  
  
  
  
  
  
  
  
  
  
  
  
  
  
  
  
  
  
  
  
  
  
  
  
  
  
  
  
  
  
  
  
  
  
  
  
  
  
  
  
  
  
  
  
  
  
  
  
  
  
  
  
  
  
  
  
  
  
  
  
  
  
  
  
  
  
  
  
  
  
  
  
  
  
  
  
  
  
  
  
  
  
  
  
  
  
  
  
  
  
  
  
  
  
  
  
  
  
  
  
  
  
  
  
  
  
  
  
  
  
  
  
  
  
  
  
  
  
  
  
  
  
  
  
  
  
  
  
  
  
  
  
  
  
  
  
  
  
  
  
  
  
  
  
  
  
  
  
  
  
  
  
  
  
  
  
  
  
  
  
  
  
  
  
  
  
  
  
  
  
  
  
  
  
  
  
  
  
  
  
  
  
  
  
  
  
  
  
  
  
  
  
  
  
  
  
  
  
  
  
  
  
  
  
  
  
  
  
  
  
  
  
  
  
  
  
  
  
  
  
  
  
  
  
  
  
  
  
  
  
  
  
  
  
  
  
  
  
  
  
  
  
  
  
  
  
  
  
  
  
  
  
  
  
  
  
  
  
  
  
  
  
  
  
  
  
  
  
  
  
  
  
  
  
  
  
  
  
  
  
  
  
  
  
  
  
  
  
  
  
  
  
  
  
  
  
  
  
  
  
  
  
  
  
  
  
  
  
  
  
  
  
  
  
  
  
  
  
  
  
  
  
  
  
  
  
  
  
  
  
  
  
  
  
  
  
  
  
  
  
  
  
  
  
  
  
  
  
  
  
  
  
  
  
  
  
  
  
  
  
  
  
  
  
  
  
  
  
  
  
  
  
  
  
  
  
  
  
  
  
  
  
  
  
  
  
  
  
  
  
  
  
  
  
  
  
  
  
  
  
  
  
  
  
  
  
  
  
  
  
  
  
  
  
  
  
  
  
  
  
  
  
  
  
  
  
  
  
  
  
  
  
  
  
  
  
  
  
  
  
  
  
  
  
  
  
  
  
  
  
  
  
  
  
  
  
  
  
  
  
  
  
  
  
  
  
  
  
  
</svg>