<?xml version="1.0" encoding="UTF-8" standalone="no"?>
<!--?xml version="1.0" encoding="UTF-8" standalone="no"?-->

<svg
   xmlns:dc="http://purl.org/dc/elements/1.1/"
   xmlns:cc="http://creativecommons.org/ns#"
   xmlns:rdf="http://www.w3.org/1999/02/22-rdf-syntax-ns#"
   xmlns:svg="http://www.w3.org/2000/svg"
   xmlns="http://www.w3.org/2000/svg"
   xmlns:sodipodi="http://sodipodi.sourceforge.net/DTD/sodipodi-0.dtd"
   xmlns:inkscape="http://www.inkscape.org/namespaces/inkscape"
   width="69.38018"
   height="111.12685"
   viewBox="0 0 40.379999 64.176598"
   preserveAspectRatio="xMinYMin meet"
   xml:space="preserve"
   id="svg37"
   version="1.1"
   inkscape:version="0.48.2 r9819"
   sodipodi:docname="AL.svg"><metadata
   id="metadata110"><rdf:RDF><cc:Work
       rdf:about=""><dc:format>image/svg+xml</dc:format><dc:type
         rdf:resource="http://purl.org/dc/dcmitype/StillImage" /></cc:Work></rdf:RDF></metadata><defs
   id="defs108" /><sodipodi:namedview
   pagecolor="#ffffff"
   bordercolor="#666666"
   borderopacity="1"
   objecttolerance="10"
   gridtolerance="10"
   guidetolerance="10"
   inkscape:pageopacity="0"
   inkscape:pageshadow="2"
   inkscape:window-width="640"
   inkscape:window-height="480"
   id="namedview106"
   showgrid="false"
   inkscape:zoom="0.35866261"
   inkscape:cx="-171.47107"
   inkscape:cy="139.21142"
   inkscape:window-x="0"
   inkscape:window-y="0"
   inkscape:window-maximized="0"
   inkscape:current-layer="svg37" />
  
  
  
  
  
  
  
  
  
  
  
  
  
  
  
  
  
  
  
  
  
  
  
  
  
  
  
  <path
   style="fill:#72b3dc;stroke:#c2dffb;stroke-width:1"
   d="m 34.877,47.496 3.614,-0.329 -0.117,0.342 -0.076,0.334 0.153,0.915 0.112,0.261 0.095,0.054 0.095,0 0.082,0.023 0.521,0.573 0.082,0.147 0.119,0.257 0.323,0.934 -5.327,0.648 -0.086,-1.022 -0.177,-1.578 -1.086,0.185 -1.37,0.144 0.389,-0.978 0.062,-0.054 0.257,-0.085 0.185,-0.009 0.175,0.009 0.374,0.089 0.285,0.077 0.496,0.046 0.167,-0.015 0.698,-0.599 -0.045,-0.369"
   id="01069"
   inkscape:label="Houston, AL"
   inkscape:connector-curvature="0" />
  <path
   style="fill:#72b3dc;stroke:#c2dffb;stroke-width:1"
   d="m 34.449,43.588 -0.122,-1.123 2.181,-0.189 0.058,-0.099 0.167,-0.5 0.289,-0.365 0.055,-0.032 0.062,0 0.185,0.058 0.104,0.091 1.199,2.989 -0.136,2.749 -3.614,0.329 -0.428,-3.908"
   id="01067"
   inkscape:label="Henry, AL"
   inkscape:connector-curvature="0" />
  <path
   style="fill:#72b3dc;stroke:#c2dffb;stroke-width:1"
   d="m 30.951,49.465 0.883,-0.081 1.37,-0.144 1.086,-0.185 0.177,1.578 0.086,1.022 -0.11,0.019 -5.889,0.681 -1.673,0.166 -0.328,-2.538 4.398,-0.518"
   id="01061"
   inkscape:label="Geneva, AL"
   inkscape:connector-curvature="0" />
  <path
   style="fill:#72b3dc;stroke:#c2dffb;stroke-width:1"
   d="m 30.838,44.003 3.611,-0.415 0.428,3.908 0.045,0.369 -0.698,0.599 -0.167,0.015 -0.496,-0.046 -0.285,-0.077 -0.374,-0.089 -0.175,-0.009 -0.185,0.009 -0.257,0.085 -0.062,0.054 -0.389,0.978 -0.883,0.081 -0.558,-5.413 0.445,-0.049"
   id="01045"
   inkscape:label="Dale, AL"
   inkscape:connector-curvature="0" />
  <path
   style="fill:#72b3dc;stroke:#c2dffb;stroke-width:1"
   d="m 30.393,44.052 0.558,5.413 -4.398,0.518 -0.338,-3.181 -0.127,-1.155 0.415,-0.044 0.13,-0.108 -0.13,-1.028 3.89,-0.415"
   id="01031"
   inkscape:label="Coffee, AL"
   inkscape:connector-curvature="0" />
  <path
   style="fill:#72b3dc;stroke:#c2dffb;stroke-width:1"
   d="m 22.771,46.049 1.082,-0.136 1.098,-0.13 0.203,-0.017 0.046,0.188 0.086,0.743 0.185,0.168 0.744,-0.063 0.338,3.181 0.328,2.538 -2.213,0.225 -3.309,0.317 -0.365,-2.52 -0.431,-4.255 2.208,-0.239"
   id="01039"
   inkscape:label="Covington, AL"
   inkscape:connector-curvature="0" />
  <path
   style="fill:#72b3dc;stroke:#c2dffb;stroke-width:1"
   d="m 7.063,52.201 0.09,0.18 0.24,1.019 0.329,1.751 -0.47,0.868 -0.311,1.216 -0.021,0.275 0.188,0.455 0.24,0.461 -0.159,-0.055 -0.041,0.027 -0.508,0.54 -0.307,1.889 -0.969,1.87 -0.644,-0.206 -0.902,-0.018 -0.247,0.041 -0.117,0.04 -0.208,0.22 0,0.005 L 2.674,58.088 2.26,54.725 2.069,53.236 3.191,53.147 4.296,52.801 6.536,52.485 7.063,52.201"
   id="01097"
   inkscape:label="Mobile, AL"
   inkscape:connector-curvature="0" />
  <path
   style="fill:#72b3dc;stroke:#c2dffb;stroke-width:1"
   d="m 9.195,50.272 1.696,0.537 0.468,3.159 -0.249,1.726 0.145,0.246 1.122,1.223 0.353,0.243 0.062,0.023 0.185,0.032 0.374,0.193 0.496,0.307 0.135,0.221 0.04,0.153 0.018,0.212 -0.112,2.817 -0.149,1.41 -0.712,0.321 -1.501,0.531 L 9.993,64.023 9.574,64.09 8.195,64.177 8.141,64.105 8.713,63.897 10.209,62.941 8.226,58.916 8.082,58.714 8.015,58.66 7.501,58.475 7.348,58.426 7.108,57.965 6.92,57.51 6.941,57.235 7.252,56.019 7.722,55.151 7.393,53.4 7.153,52.381 7.063,52.201 7.321,51.786 9.195,50.272"
   id="01003"
   inkscape:label="Baldwin, AL"
   inkscape:connector-curvature="0" />
  <path
   style="fill:#72b3dc;stroke:#c2dffb;stroke-width:1"
   d="m 20.994,50.543 0.365,2.52 -1.058,0.08 -4.147,0.37 -4.795,0.455 -0.468,-3.159 0.643,0.166 0.109,-0.045 0.612,-0.432 0.685,-0.079 7.27,-0.692 -0.018,0.085 -0.012,0.563 0.012,0.117 0.037,0.051 0.089,0.076 0.5,0.014 0.176,-0.09"
   id="01053"
   inkscape:label="Escambia, AL"
   inkscape:connector-curvature="0" />
  <path
   style="fill:#72b3dc;stroke:#c2dffb;stroke-width:1"
   d="m 20.563,46.288 0.431,4.255 -0.176,0.09 -0.5,-0.014 -0.089,-0.076 -0.037,-0.051 -0.012,-0.117 0.012,-0.563 0.018,-0.085 -7.27,0.692 0.005,-0.074 0.073,-0.176 1.189,-1.687 0.667,-0.748 0.78,-2.285 0.032,-0.234 1.122,-1.014 0.923,-0.509 0.249,-0.122 0.067,-0.009 0.141,1.542 0.581,1.094 0.288,0.217 1.506,-0.126"
   id="01035"
   inkscape:label="Conecuh, AL"
   inkscape:connector-curvature="0" />
  <path
   style="fill:#72b3dc;stroke:#c2dffb;stroke-width:1"
   d="m 1.118,45.756 4.102,-0.352 0.013,0.546 0.195,0.707 0.563,0.483 0.149,0.09 0.455,0.158 0.406,0.102 0.428,0.393 0.31,1.253 0.014,0.081 -0.031,0.42 -0.105,0.396 -0.22,0.23 -0.194,0.261 -0.153,0.519 0.271,0.743 -0.258,0.415 -0.527,0.284 -2.24,0.316 -1.105,0.346 -1.122,0.089 -0.951,-7.48"
   id="01129"
   inkscape:label="Washington, AL"
   inkscape:connector-curvature="0" />
  <path
   style="fill:#72b3dc;stroke:#c2dffb;stroke-width:1"
   d="m 0.956,37.851 5.315,-0.465 -0.505,0.072 -0.281,0.176 -0.148,0.162 -0.824,3.074 0.05,0.474 0.054,0.13 0.08,0.089 0.09,0.051 0.28,0.032 0.153,3.758 -4.102,0.352 -0.261,-2.528 0.073,-4.323 0.026,-1.054"
   id="01023"
   inkscape:label="Choctaw, AL"
   inkscape:connector-curvature="0" />
  <path
   style="fill:#72b3dc;stroke:#c2dffb;stroke-width:1"
   d="m 9.475,41.253 2.001,1.925 -0.171,0.207 -0.393,1.554 0.162,1.728 0.141,1.261 -0.081,0.392 -0.231,0.307 -0.131,0.077 -0.144,-0.023 -0.23,-0.177 -0.134,0.011 -0.122,0.045 -1.008,0.856 -0.187,0.468 0,0.059 0.028,0.135 0.04,0.076 0.18,0.118 -1.874,1.514 -0.271,-0.743 0.153,-0.519 0.194,-0.261 0.22,-0.23 0.105,-0.396 0.031,-0.42 L 7.739,49.136 7.429,47.883 7.001,47.49 6.595,47.388 6.14,47.23 5.991,47.14 5.428,46.657 5.233,45.95 5.22,45.404 5.067,41.646 9.475,41.253"
   id="01025"
   inkscape:label="Clarke, AL"
   inkscape:connector-curvature="0" />
  <path
   style="fill:#72b3dc;stroke:#c2dffb;stroke-width:1"
   d="m 17.939,42.561 0.108,1 -0.067,0.009 -0.249,0.122 -0.923,0.509 -1.122,1.014 -0.032,0.234 -0.78,2.285 -0.667,0.748 -1.189,1.687 -0.073,0.176 -0.005,0.074 -0.685,0.079 -0.612,0.432 -0.109,0.045 -0.643,-0.166 -1.696,-0.537 -0.18,-0.118 -0.04,-0.076 -0.028,-0.135 0,-0.059 0.187,-0.468 1.008,-0.856 0.122,-0.045 0.134,-0.011 0.23,0.177 0.144,0.023 0.131,-0.077 0.231,-0.307 0.081,-0.392 -0.141,-1.261 -0.162,-1.728 0.393,-1.554 0.171,-0.207 2.917,-0.297 1.586,-0.117 1.96,-0.203"
   id="01099"
   inkscape:label="Monroe, AL"
   inkscape:connector-curvature="0" />
  <path
   style="fill:#72b3dc;stroke:#c2dffb;stroke-width:1"
   d="m 11.287,37.54 0.292,-0.078 0.068,0.041 1.347,0.942 1.736,1.6 2.943,-0.284 0.64,1.055 -0.374,1.745 -1.96,0.203 -1.586,0.117 -2.917,0.297 -2.001,-1.925 0.451,-0.226 -0.136,-1.63 0.951,-1.676 0.091,-0.155 0.098,-0.036 0.189,-0.013 0.168,0.023"
   id="01131"
   inkscape:label="Wilcox, AL"
   inkscape:connector-curvature="0" />
  <path
   style="fill:#72b3dc;stroke:#c2dffb;stroke-width:1"
   d="m 18.313,40.816 4.445,-0.469 0.347,3.174 0.049,0.797 -0.554,0.058 0.171,1.673 -2.208,0.239 -1.506,0.126 -0.288,-0.217 -0.581,-1.094 -0.141,-1.542 -0.108,-1 0.374,-1.745"
   id="01013"
   inkscape:label="Butler, AL"
   inkscape:connector-curvature="0" />
  <path
   style="fill:#72b3dc;stroke:#c2dffb;stroke-width:1"
   d="m 25.543,40.036 0.96,4.431 0.13,1.028 -0.13,0.108 -0.415,0.044 0.127,1.155 -0.744,0.063 -0.185,-0.168 -0.086,-0.743 -0.046,-0.188 -0.203,0.017 -1.098,0.13 -1.082,0.136 -0.171,-1.673 0.554,-0.058 -0.049,-0.797 -0.347,-3.174 0.342,-1.154 1.113,-0.126 0.132,1.114 1.198,-0.145"
   id="01041"
   inkscape:label="Crenshaw, AL"
   inkscape:connector-curvature="0" />
  <path
   style="fill:#72b3dc;stroke:#c2dffb;stroke-width:1"
   d="m 27.539,38.73 0.446,-0.186 0.474,0.041 0.202,0.072 0.523,0.987 0.82,1.042 1.452,-0.159 -0.618,3.476 -0.445,0.049 -3.89,0.415 -0.96,-4.431 1.996,-1.306"
   id="01109"
   inkscape:label="Pike, AL"
   inkscape:connector-curvature="0" />
  <path
   style="fill:#72b3dc;stroke:#c2dffb;stroke-width:1"
   d="m 33.38,35.704 0.379,1.106 -0.175,0.112 0.094,1.127 0.072,0.473 -0.888,0.297 -0.855,0.321 -0.496,0.973 -0.064,0.312 0.009,0.102 -1.452,0.159 -0.82,-1.042 -0.523,-0.987 -0.202,-0.072 -0.474,-0.041 -0.446,0.186 0.536,-2.962 0.664,0.437 0.089,0.032 4.552,-0.533"
   id="01011"
   inkscape:label="Bullock, AL"
   inkscape:connector-curvature="0" />
  <path
   style="fill:#72b3dc;stroke:#c2dffb;stroke-width:1"
   d="m 30.04,31.373 0.023,0.181 2.339,0.847 0.546,-0.063 0.176,1.118 0.256,2.248 -4.552,0.533 -0.089,-0.032 -0.664,-0.437 -1.321,-1.753 1.38,-1.095 0.956,-0.118 0.325,-1.171 0.625,-0.258"
   id="01087"
   inkscape:label="Macon, AL"
   inkscape:connector-curvature="0" />
  <path
   style="fill:#72b3dc;stroke:#c2dffb;stroke-width:1"
   d="m 18.304,35.899 0.295,-0.671 0.034,-0.06 0.477,-0.085 1.294,-0.153 1.334,0.582 1.362,3.681 -0.342,1.154 -4.445,0.469 -0.64,-1.055 0.631,-3.862"
   id="01085"
   inkscape:label="Lowndes, AL"
   inkscape:connector-curvature="0" />
  <path
   style="fill:#72b3dc;stroke:#c2dffb;stroke-width:1"
   d="m 22.582,34.578 1.486,-1.348 0.122,0.014 0.159,0.055 0.085,0.057 0.514,0.555 -0.05,0.086 0.856,0.162 0.749,0.063 0.251,-0.207 1.321,1.753 -0.536,2.962 -1.996,1.306 -1.198,0.145 -0.132,-1.114 -1.113,0.126 -1.362,-3.681 0.844,-0.934"
   id="01101"
   inkscape:label="Montgomery, AL"
   inkscape:connector-curvature="0" />
  <path
   style="fill:#72b3dc;stroke:#c2dffb;stroke-width:1"
   d="m 26.471,29.688 1.33,-0.135 0.031,0.013 0.023,0.172 -0.1,0.378 0.308,2.664 0.035,0.103 0.036,0.037 -1.38,1.095 -0.251,0.207 -0.749,-0.063 -0.856,-0.162 0.05,-0.086 -0.514,-0.555 -0.085,-0.057 -0.159,-0.055 -0.122,-0.014 -1.486,1.348 -0.411,-3.826 0.325,-0.645 3.975,-0.419"
   id="01051"
   inkscape:label="Elmore, AL"
   inkscape:connector-curvature="0" />
  <path
   style="fill:#72b3dc;stroke:#c2dffb;stroke-width:1"
   d="m 22.171,30.752 0.411,3.826 -0.844,0.934 -1.334,-0.582 -1.294,0.153 -0.477,0.085 -0.034,0.06 -0.295,0.671 -1.5,-4.056 1.085,-0.055 1.109,-0.126 -0.061,-0.567 3.234,-0.343"
   id="01001"
   inkscape:label="Autauga, AL"
   inkscape:connector-curvature="0" />
  <path
   style="fill:#72b3dc;stroke:#c2dffb;stroke-width:1"
   d="m 15.636,31.107 1.168,0.736 1.5,4.056 -0.631,3.862 -2.943,0.284 -1.736,-1.6 -1.347,-0.942 -0.068,-0.041 -0.292,0.078 -0.058,-0.551 0.553,-0.053 -0.22,-2.25 1.87,-0.188 1.473,-0.195 0.087,-0.184 0.293,-1.018 0.166,-0.782 0.185,-1.212"
   id="01047"
   inkscape:label="Dallas, AL"
   inkscape:connector-curvature="0" />
  <path
   style="fill:#72b3dc;stroke:#c2dffb;stroke-width:1"
   d="m 7.312,34.52 0.892,-0.077 0.058,0.564 2.209,-0.212 0.758,2.194 0.058,0.551 -0.168,-0.023 -0.189,0.013 -0.098,0.036 -0.091,0.155 -0.951,1.676 0.136,1.63 L 9.475,41.253 5.067,41.646 4.787,41.614 4.697,41.563 4.617,41.474 4.563,41.344 4.513,40.87 5.337,37.796 5.485,37.634 5.766,37.458 6.271,37.386 5.796,36.989 4.968,36.673 4.945,36.597 4.964,36.079 5.022,35.917 6.225,34.695 6.315,34.632 6.86,34.461 7.312,34.52"
   id="01091"
   inkscape:label="Marengo, AL"
   inkscape:connector-curvature="0" />
  <path
   style="fill:#72b3dc;stroke:#c2dffb;stroke-width:1"
   d="m 1.124,28.98 1.806,-0.211 -0.117,1.099 0.216,0.942 1.299,2.727 0.257,0.316 0.035,0.009 0.461,-0.135 0.359,-0.167 0.082,-0.081 0.208,-0.145 0.184,-0.09 0.095,0.004 0.112,0.068 0.739,1.145 -0.545,0.171 -0.09,0.063 -1.203,1.222 -0.058,0.162 -0.019,0.518 0.023,0.076 0.828,0.316 0.475,0.397 -5.315,0.465 0.077,-3.503 0.076,-4.561 0.015,-0.807"
   id="01119"
   inkscape:label="Sumter, AL"
   inkscape:connector-curvature="0" />
  <path
   style="fill:#72b3dc;stroke:#c2dffb;stroke-width:1"
   d="m 11.125,29.639 1.094,-0.109 0.054,0.564 0.745,-0.072 2.474,-0.301 0.144,1.386 -0.185,1.212 -0.166,0.782 -0.293,1.018 -0.087,0.184 -1.473,0.195 -1.87,0.188 0.22,2.25 -0.553,0.053 -0.758,-2.194 -0.211,-2.235 0.428,-1.678 0.437,-1.243"
   id="01105"
   inkscape:label="Perry, AL"
   inkscape:connector-curvature="0" />
  <path
   style="fill:#72b3dc;stroke:#c2dffb;stroke-width:1"
   d="m 20.647,26.83 1.849,3.277 -0.325,0.645 -3.234,0.343 0.061,0.567 -1.109,0.126 -1.085,0.055 -1.168,-0.736 -0.144,-1.386 1.537,-0.136 -0.185,-1.902 -0.136,-0.847 -0.031,-0.285 1.73,-0.132 1.182,-0.062 0.184,0.248 0.347,0.216 0.527,0.009"
   id="01021"
   inkscape:label="Chilton, AL"
   inkscape:connector-curvature="0" />
  <path
   style="fill:#72b3dc;stroke:#c2dffb;stroke-width:1"
   d="m 24.208,25.375 1.785,0 0.478,4.313 -3.975,0.419 -1.849,-3.277 0.171,-1.091 3.39,-0.364"
   id="01037"
   inkscape:label="Coosa, AL"
   inkscape:connector-curvature="0" />
  <path
   style="fill:#72b3dc;stroke:#c2dffb;stroke-width:1"
   d="m 29.774,24.753 0.646,-0.077 0.536,4.873 -0.916,1.824 -0.625,0.258 -0.325,1.171 -0.956,0.118 -0.036,-0.037 -0.035,-0.103 -0.308,-2.664 0.1,-0.378 -0.023,-0.172 -0.031,-0.013 -1.33,0.135 -0.478,-4.313 3.781,-0.622"
   id="01123"
   inkscape:label="Tallapoosa, AL"
   inkscape:connector-curvature="0" />
  <path
   style="fill:#72b3dc;stroke:#c2dffb;stroke-width:1"
   d="m 27.116,19.935 -0.352,0.325 0.008,0.094 1.119,-0.117 0.163,-0.204 -0.019,-0.193 1.302,-0.109 0.437,5.022 -3.781,0.622 -1.785,0 -0.103,-1.176 0.879,-1.389 1.113,-1.24 0.451,-1.573 0.568,-0.062"
   id="01027"
   inkscape:label="Clay, AL"
   inkscape:connector-curvature="0" />
  <path
   style="fill:#72b3dc;stroke:#c2dffb;stroke-width:1"
   d="m 23.744,17.942 1.015,-0.049 0.305,0.337 0.1,0.483 0.307,0.253 2.132,-0.212 0.026,0.378 -0.513,0.803 -0.568,0.062 -0.451,1.573 -1.113,1.24 -0.879,1.389 0.103,1.176 -3.39,0.364 -0.045,-0.824 1.222,-1.798 0.1,-0.78 -0.15,-0.216 -0.297,-0.213 1.141,-1.401 0.445,-0.96 -0.049,-0.063 -0.108,-0.239 -0.005,-0.067 0.496,-1.137 0.176,-0.099"
   id="01121"
   inkscape:label="Talladega, AL"
   inkscape:connector-curvature="0" />
  <path
   style="fill:#72b3dc;stroke:#c2dffb;stroke-width:1"
   d="m 19.976,20.061 1.672,1.847 0.297,0.213 0.15,0.216 -0.1,0.78 -1.222,1.798 0.045,0.824 -0.171,1.091 -0.527,-0.009 -0.347,-0.216 -0.184,-0.248 -1.182,0.062 -1.73,0.132 0.031,0.285 -1.798,-2.385 0.505,-0.177 0.311,-0.17 0.221,-0.163 0.402,-0.703 2.049,-1.987 0.745,-0.082 0.856,-0.828 -0.023,-0.28"
   id="01117"
   inkscape:label="Shelby, AL"
   inkscape:connector-curvature="0" />
  <path
   style="fill:#72b3dc;stroke:#c2dffb;stroke-width:1"
   d="m 14.491,24.487 0.419,-0.036 1.798,2.385 0.136,0.847 0.185,1.902 -1.537,0.136 -2.474,0.301 -0.745,0.072 -0.054,-0.564 -1.094,0.109 -0.159,-1.663 1.109,-0.136 -0.031,-1.14 0.27,-0.532 0.812,-0.901 0.459,-0.51 0.09,-0.054 0.703,-0.207 0.113,-0.009"
   id="01007"
   inkscape:label="Bibb, AL"
   inkscape:connector-curvature="0" />
  <path
   style="fill:#72b3dc;stroke:#c2dffb;stroke-width:1"
   d="m 7.812,28.214 3.154,-0.238 0.159,1.663 -0.437,1.243 -0.428,1.678 0.211,2.235 L 8.262,35.007 8.204,34.443 7.312,34.52 7.885,33.312 7.352,32.676 6.929,31.418 6.733,30.436 6.716,30.161 7.812,28.214"
   id="01065"
   inkscape:label="Hale, AL"
   inkscape:connector-curvature="0" />
  <path
   style="fill:#72b3dc;stroke:#c2dffb;stroke-width:1"
   d="m 6.342,26.434 1.47,1.78 -1.096,1.947 0.017,0.275 0.196,0.982 0.423,1.258 0.533,0.636 L 7.312,34.52 6.86,34.461 6.121,33.316 6.009,33.248 5.914,33.244 5.73,33.334 5.522,33.479 5.44,33.56 5.081,33.727 4.62,33.862 4.585,33.853 4.328,33.537 3.029,30.81 2.813,29.868 2.93,28.769 2.917,28.711 3.846,28.084 4.661,27.629 5.022,27.502 6.342,26.434"
   id="01063"
   inkscape:label="Greene, AL"
   inkscape:connector-curvature="0" />
  <path
   style="fill:#72b3dc;stroke:#c2dffb;stroke-width:1"
   d="M 5.896,21.647 6.342,26.434 5.022,27.502 4.661,27.629 3.846,28.084 2.917,28.711 2.93,28.769 1.124,28.98 1.2,25.112 1.259,21.913 4.769,21.751 5.896,21.647"
   id="01107"
   inkscape:label="Pickens, AL"
   inkscape:connector-curvature="0" />
  <path
   style="fill:#72b3dc;stroke:#c2dffb;stroke-width:1"
   d="m 10.251,20.255 0.192,-0.009 0.943,0.099 0.09,0.942 0.55,-0.032 -0.374,0.33 0.189,0.626 0.722,0.788 0.431,0.374 0.988,0.591 0.509,0.523 -0.113,0.009 -0.703,0.207 -0.09,0.054 -0.459,0.51 -0.812,0.901 -0.27,0.532 0.031,1.14 -1.109,0.136 -3.154,0.238 -1.47,-1.78 -0.446,-4.787 1.069,-0.032 0.788,-0.09 -0.055,-0.662 0.33,-0.509 2.223,-0.099"
   id="01125"
   inkscape:label="Tuscaloosa, AL"
   inkscape:connector-curvature="0" />
  <path
   style="fill:#72b3dc;stroke:#c2dffb;stroke-width:1"
   d="m 14.992,17.041 0.702,-0.433 1.33,-0.094 1.212,0.707 0.807,0.078 0.374,-0.036 0.244,0.545 0.081,0.842 -0.068,0.288 -0.09,0.01 -0.072,0.193 0.067,0.749 0.104,0.094 0.293,0.077 0.023,0.28 -0.856,0.828 -0.745,0.082 -2.049,1.987 -0.402,0.703 -0.221,0.163 -0.311,0.17 -0.505,0.177 -0.419,0.036 -0.509,-0.523 -0.988,-0.591 -0.431,-0.374 -0.722,-0.788 -0.189,-0.626 0.374,-0.33 0.239,-0.135 0.306,-0.225 1.172,-1.293 0.226,-0.398 0.193,-0.391 0.681,-1.384 0.149,-0.388"
   id="01073"
   inkscape:label="Jefferson, AL"
   inkscape:connector-curvature="0" />
  <path
   style="fill:#72b3dc;stroke:#c2dffb;stroke-width:1"
   d="m 12.684,14.941 2.15,1.555 0.158,0.545 -0.149,0.388 -0.681,1.384 -0.193,0.391 -0.226,0.398 -1.172,1.293 -0.306,0.225 -0.239,0.135 -0.55,0.032 -0.09,-0.942 -0.943,-0.099 -0.192,0.009 -0.104,-1.123 -1.114,0.063 -0.237,-2.261 -1.115,0.04 -0.046,-0.559 -0.103,-1.123 5.152,-0.351"
   id="01127"
   inkscape:label="Walker, AL"
   inkscape:connector-curvature="0" />
  <path
   style="fill:#72b3dc;stroke:#c2dffb;stroke-width:1"
   d="m 1.42,15.085 2.34,-0.117 0.406,0.356 0.18,2.105 0.32,3.132 0.103,1.19 -3.51,0.162 0.057,-2.745 0.104,-4.083"
   id="01075"
   inkscape:label="Lamar, AL"
   inkscape:connector-curvature="0" />
  <path
   style="fill:#72b3dc;stroke:#c2dffb;stroke-width:1"
   d="m 4.278,16.645 3.357,-0.23 0.046,0.559 1.115,-0.04 0.237,2.261 1.114,-0.063 0.104,1.123 -2.223,0.099 -0.33,0.509 0.055,0.662 -0.788,0.09 -1.069,0.032 -1.127,0.104 -0.103,-1.19 -0.32,-3.132 -0.068,-0.784"
   id="01057"
   inkscape:label="Fayette, AL"
   inkscape:connector-curvature="0" />
  <path
   style="fill:#72b3dc;stroke:#c2dffb;stroke-width:1"
   d="M 1.574,8.262 8.01,7.897 8.312,11.29 7.198,11.357 6.307,11.394 3.972,11.557 1.497,11.658 1.538,9.808 1.574,8.262"
   id="01059"
   inkscape:label="Franklin, AL"
   inkscape:connector-curvature="0" />
  <path
   style="fill:#72b3dc;stroke:#c2dffb;stroke-width:1"
   d="m 1.497,11.658 2.475,-0.101 2.335,-0.163 0.891,-0.037 0.334,3.935 0.103,1.123 -3.357,0.23 L 4.166,15.324 3.76,14.968 1.42,15.085 1.43,14.716 1.497,11.658"
   id="01093"
   inkscape:label="Marion, AL"
   inkscape:connector-curvature="0" />
  <path
   style="fill:#72b3dc;stroke:#c2dffb;stroke-width:1"
   d="M 8.312,11.29 12.747,10.952 12.684,14.941 7.532,15.292 7.198,11.357 8.312,11.29"
   id="01133"
   inkscape:label="Winston, AL"
   inkscape:connector-curvature="0" />
  <path
   style="fill:#72b3dc;stroke:#c2dffb;stroke-width:1"
   d="m 12.73,10.763 5.579,-0.419 1.42,0.45 -0.333,0.022 -0.313,0.105 -0.044,0.031 -0.595,1.491 -0.058,0.1 -1.416,1.812 -0.955,0.842 -0.785,0.777 -0.396,0.522 -2.15,-1.555 0.063,-3.989 -0.017,-0.189"
   id="01043"
   inkscape:label="Cullman, AL"
   inkscape:connector-curvature="0" />
  <path
   style="fill:#72b3dc;stroke:#c2dffb;stroke-width:1"
   d="m 19.729,10.794 1.784,1.907 -0.167,0.365 -0.328,1.758 0.473,-0.051 -0.38,0.993 -0.274,0.355 -0.298,0.321 -0.085,0 -0.095,-0.054 -1.361,0.437 0.045,0.474 -0.807,-0.078 -1.212,-0.707 -1.33,0.094 -0.702,0.433 -0.158,-0.545 0.396,-0.522 0.785,-0.777 0.955,-0.842 1.416,-1.812 0.058,-0.1 0.595,-1.491 0.044,-0.031 0.313,-0.105 0.333,-0.022"
   id="01009"
   inkscape:label="Blount, AL"
   inkscape:connector-curvature="0" />
  <path
   style="fill:#72b3dc;stroke:#c2dffb;stroke-width:1"
   d="m 21.491,14.773 -0.009,-0.044 0.067,-0.14 0.239,-0.392 0.145,-0.108 0.834,-0.081 0.103,0.058 0.08,0.14 0.235,0.546 0.28,0.266 0.135,0.085 0.221,-0.089 0.558,0.738 0.132,0.121 0.036,0.082 0.014,0.825 -0.813,0.734 -0.04,0.132 0.036,0.296 -0.176,0.099 -0.496,1.137 0.005,0.067 0.108,0.239 0.049,0.063 -0.445,0.96 -1.141,1.401 -1.672,-1.847 -0.293,-0.077 -0.104,-0.094 -0.067,-0.749 0.072,-0.193 0.09,-0.01 0.068,-0.288 -0.081,-0.842 -0.244,-0.545 -0.374,0.036 -0.045,-0.474 1.361,-0.437 0.095,0.054 0.085,0 0.298,-0.321 0.274,-0.355 0.38,-0.993"
   id="01115"
   inkscape:label="St. Clair, AL"
   inkscape:connector-curvature="0" />
  <path
   style="fill:#72b3dc;stroke:#c2dffb;stroke-width:1"
   d="m 27.661,13.755 2.244,0.104 -1.036,0.969 0.135,1.325 0.171,1.61 -0.153,0.293 -0.842,1.018 -0.551,0.058 -0.026,-0.378 -2.132,0.212 -0.307,-0.253 -0.1,-0.483 -0.305,-0.337 -1.015,0.049 -0.036,-0.296 0.04,-0.132 0.813,-0.734 -0.014,-0.825 -0.036,-0.082 -0.132,-0.121 0.172,-0.014 0.279,-0.157 0.262,-0.204 0.586,-0.604 0.315,-0.508 0.18,-0.113 0.636,-0.063 0.874,0.094 -0.022,-0.428"
   id="01015"
   inkscape:label="Calhoun, AL"
   inkscape:connector-curvature="0" />
  <path
   style="fill:#72b3dc;stroke:#c2dffb;stroke-width:1"
   d="m 23.465,11.174 2.767,-0.285 0.149,1.149 0.469,0.037 0.802,1.41 0.009,0.27 0.022,0.428 -0.874,-0.094 -0.636,0.063 -0.18,0.113 -0.315,0.508 -0.586,0.604 -0.262,0.204 -0.279,0.157 -0.172,0.014 -0.558,-0.738 -0.221,0.089 -0.135,-0.085 -0.28,-0.266 -0.235,-0.546 -0.08,-0.14 -0.103,-0.058 -0.834,0.081 -0.145,0.108 -0.239,0.392 -0.067,0.14 0.009,0.044 -0.473,0.051 0.328,-1.758 0.167,-0.365 1.952,-1.527"
   id="01055"
   inkscape:label="Etowah, AL"
   inkscape:connector-curvature="0" />
  <path
   style="fill:#72b3dc;stroke:#c2dffb;stroke-width:1"
   d="m 20.607,6.265 1.875,-0.185 0.13,0.744 0.988,0.743 -0.135,3.607 -1.952,1.527 -1.784,-1.907 -1.42,-0.45 0.022,-3.147 0.231,0.537 0.365,0.225 0.351,0.06 L 19.643,7.897 20.688,7.364 20.837,6.981 20.919,6.49 20.859,6.323 20.72,6.256 20.607,6.265"
   id="01095"
   inkscape:label="Marshall, AL"
   inkscape:connector-curvature="0" />
  <path
   style="fill:#72b3dc;stroke:#c2dffb;stroke-width:1"
   d="m 15.803,7.383 2.528,-0.186 -0.022,3.147 -5.579,0.419 -0.402,-4.81 3.475,1.43"
   id="01103"
   inkscape:label="Morgan, AL"
   inkscape:connector-curvature="0" />
  <path
   style="fill:#72b3dc;stroke:#c2dffb;stroke-width:1"
   d="m 8.821,4.791 1.789,0.373 1.718,0.789 0.402,4.81 0.017,0.189 L 8.312,11.29 8.01,7.897 8.821,4.791"
   id="01079"
   inkscape:label="Lawrence, AL"
   inkscape:connector-curvature="0" />
  <path
   style="fill:#72b3dc;stroke:#c2dffb;stroke-width:1"
   d="M 1.682,4.209 2.083,4.021 2.264,3.976 2.998,4.222 3.232,4.395 3.391,4.61 3.463,4.745 3.548,5.034 3.674,5.224 4.508,5.878 4.593,5.927 4.909,6.022 5.387,5.936 5.662,5.782 5.716,5.724 5.896,5.413 7.117,4.688 7.532,4.512 7.758,4.462 7.839,4.471 8.821,4.791 8.01,7.897 1.574,8.262 1.682,4.209"
   id="01033"
   inkscape:label="Colbert, AL"
   inkscape:connector-curvature="0" />
  <path
   style="fill:#72b3dc;stroke:#c2dffb;stroke-width:1"
   d="M 10.715,2.02 10.845,2.01 10.61,5.164 8.821,4.791 7.839,4.471 7.758,4.462 7.532,4.512 7.117,4.688 5.896,5.413 5.716,5.724 5.662,5.782 5.387,5.936 4.909,6.022 4.593,5.927 4.508,5.878 3.674,5.224 3.548,5.034 3.463,4.745 3.391,4.61 3.232,4.395 2.998,4.222 2.264,3.976 2.083,4.021 1.682,4.209 0.5,2.961 2.741,2.637 6.707,2.33 10.715,2.02"
   id="01077"
   inkscape:label="Lauderdale, AL"
   inkscape:connector-curvature="0" />
  <path
   style="fill:#72b3dc;stroke:#c2dffb;stroke-width:1"
   d="M 14.767,1.735 15.315,1.682 15.803,7.383 12.328,5.953 10.61,5.164 10.845,2.01 14.767,1.735"
   id="01083"
   inkscape:label="Limestone, AL"
   inkscape:connector-curvature="0" />
  <path
   style="fill:#72b3dc;stroke:#c2dffb;stroke-width:1"
   d="m 20.255,1.199 0.222,0.58 -0.276,1.452 -0.098,1.321 0.122,1.326 0.382,0.387 0.113,-0.009 0.139,0.067 0.06,0.167 L 20.837,6.981 20.688,7.364 19.643,7.897 19.278,8.019 18.927,7.959 18.562,7.734 18.331,7.197 15.803,7.383 15.315,1.682 20.176,1.203 20.255,1.199"
   id="01089"
   inkscape:label="Madison, AL"
   inkscape:connector-curvature="0" />
  <path
   style="fill:#72b3dc;stroke:#c2dffb;stroke-width:1"
   d="M 27.638,0.5 28.044,2.077 27.387,3.524 26.254,5.35 24.451,7.261 24.154,7.459 23.915,7.554 23.6,7.567 22.612,6.824 22.482,6.08 20.607,6.265 20.225,5.878 20.103,4.552 20.201,3.231 20.477,1.779 20.255,1.199 24.93,0.744 27.638,0.5"
   id="01071"
   inkscape:label="Jackson, AL"
   inkscape:connector-curvature="0" />
  <path
   style="fill:#72b3dc;stroke:#c2dffb;stroke-width:1"
   d="m 28.044,2.077 0.848,2.997 0.126,0.443 0.229,0.816 -0.063,-0.023 -0.039,0.027 -0.501,0.581 -0.063,0.748 -0.329,0.708 -1.371,1.673 -0.365,0.045 -0.255,0.242 -0.073,0.141 0.044,0.414 -2.767,0.285 L 23.6,7.567 23.915,7.554 24.154,7.459 24.451,7.261 26.254,5.35 27.387,3.524 28.044,2.077"
   id="01049"
   inkscape:label="DeKalb, AL"
   inkscape:connector-curvature="0" />
  <path
   style="fill:#72b3dc;stroke:#c2dffb;stroke-width:1"
   d="m 29.247,6.333 0.884,3.001 0.721,2.605 0.41,1.474 -1.357,0.446 -2.244,-0.104 -0.009,-0.27 -0.802,-1.41 -0.469,-0.037 -0.149,-1.149 -0.044,-0.414 0.073,-0.141 0.255,-0.242 0.365,-0.045 1.371,-1.673 0.329,-0.708 0.063,-0.748 0.501,-0.581 0.039,-0.027 0.063,0.023"
   id="01019"
   inkscape:label="Cherokee, AL"
   inkscape:connector-curvature="0" />
  <path
   style="fill:#72b3dc;stroke:#c2dffb;stroke-width:1"
   d="m 31.262,13.413 0.221,0.788 0.874,3.147 0.604,2.149 -3.624,0.234 -1.302,0.109 0.019,0.193 -0.163,0.204 -1.119,0.117 -0.008,-0.094 0.352,-0.325 0.513,-0.803 0.551,-0.058 0.842,-1.018 0.153,-0.293 -0.171,-1.61 -0.135,-1.325 1.036,-0.969 1.357,-0.446"
   id="01029"
   inkscape:label="Cleburne, AL"
   inkscape:connector-curvature="0" />
  <path
   style="fill:#72b3dc;stroke:#c2dffb;stroke-width:1"
   d="m 29.337,19.731 3.624,-0.234 0.194,0.695 1.045,3.772 0.077,0.27 -3.857,0.442 -0.646,0.077 -0.437,-5.022"
   id="01111"
   inkscape:label="Randolph, AL"
   inkscape:connector-curvature="0" />
  <path
   style="fill:#72b3dc;stroke:#c2dffb;stroke-width:1"
   d="m 34.277,24.234 0.866,2.997 0.689,1.534 -1.194,0.157 -0.374,0.229 -3.308,0.398 -0.536,-4.873 3.857,-0.442"
   id="01017"
   inkscape:label="Chambers, AL"
   inkscape:connector-curvature="0" />
  <path
   style="fill:#72b3dc;stroke:#c2dffb;stroke-width:1"
   d="m 30.956,29.549 3.308,-0.398 0.374,-0.229 1.194,-0.157 0.779,1.716 1.034,1.15 -0.574,0.554 -1.924,0.514 -0.906,0.617 -1.117,0.14 -0.176,-1.118 -0.546,0.063 -2.339,-0.847 -0.023,-0.181 0.916,-1.824"
   id="01081"
   inkscape:label="Lee, AL"
   inkscape:connector-curvature="0" />
  <path
   style="fill:#72b3dc;stroke:#c2dffb;stroke-width:1"
   d="m 37.945,33.411 -0.121,0.46 0.023,0.109 0.068,0.076 0.716,0.193 0.266,0.222 0.108,0.215 -0.09,0.406 -0.026,0.037 -1.172,2.315 -1.399,0.181 -0.075,-0.031 -0.447,-0.47 -0.041,-0.117 -0.347,-0.405 -1.649,0.208 -0.379,-1.106 -0.256,-2.248 1.117,-0.14 0.906,-0.617 1.924,-0.514 0.574,-0.554 0.3,1.78"
   id="01113"
   inkscape:label="Russell, AL"
   inkscape:connector-curvature="0" />
  <path
   style="fill:#72b3dc;stroke:#c2dffb;stroke-width:1"
   d="m 37.717,37.444 0.03,0.964 -0.509,2.769 0.19,0.252 -0.104,-0.091 -0.185,-0.058 -0.062,0 -0.055,0.032 -0.289,0.365 -0.167,0.5 -0.058,0.099 -2.181,0.189 0.122,1.123 -3.611,0.415 0.618,-3.476 -0.009,-0.102 0.064,-0.312 0.496,-0.973 0.855,-0.321 0.888,-0.297 -0.072,-0.473 -0.094,-1.127 0.175,-0.112 1.649,-0.208 0.347,0.405 0.041,0.117 0.447,0.47 0.075,0.031 1.399,-0.181"
   id="01005"
   inkscape:label="Barbour, AL"
   inkscape:connector-curvature="0" />
  
  
  
  
  
  
  
  
  
  
  
  
  
  
  
  
  
  
  
  
  
  
  
  
  
  
  
  
  
  
  
  
  
  
  
  
  
  
  
  
  
  
  
  
  
  
  
  
  
  
  
  
  
  
  
  
  
  
  
  
  
  
  
  
  
  
  
  
  
  
  
  
  
  
  
  
  
  
  
  
  
  
  
  
  
  
  
  
  
  
  
  
  
  
  
  
  
  
  
  
  
  
  
  
  
  
  
  
  
  
  
  
  
  
  
  
  
  
  
  
  
  
  
  
  
  
  
  
  
  
  
  
  
  
  
  
  
  
  
  
  
  
  
  
  
  
  
  
  
  
  
  
  
  
  
  
  
  
  
  
  
  
  
  
  
  
  
  
  
  
  
  
  
  
  
  
  
  
  
  
  
  
  
  
  
  
  
  
  
  
  
  
  
  
  
  
  
  
  
  
  
  
  
  
  
  
  
  
  
  
  
  
  
  
  
  
  
  
  
  
  
  
  
  
  
  
  
  
  
  
  
  
  
  
  
  
  
  
  
  
  
  
  
  
  
  
  
  
  
  
  
  
  
  
  
  
  
  
  
  
  
  
  
  
  
  
  
  
  
  
  
  
  
  
  
  
  
  
  
  
  
  
  
  
  
  
  
  
  
  
  
  
  
  
  
  
  
  
  
  
  
  
  
  
  
  
  
  
  
  
  
  
  
  
  
  
  
  
  
  
  
  
  
  
  
  
  
  
  
  
  
  
  
  
  
  
  
  
  
  
  
  
  
  
  
  
  
  
  
  
  
  
  
  
  
  
  
  
  
  
  
  
  
  
  
  
  
  
  
  
  
  
  
  
  
  
  
  
  
  
  
  
  
  
  
  
  
  
  
  
  
  
  
  
  
  
  
  
  
  
  
  
  
  
  
  
  
  
  
  
  
  
  
  
  
  
  
  
  
  
  
  
  
  
  
  
  
  
  
  
  
  
  
  
  
  
  
  
  
  
  
  
  
  
  
  
  
  
  
  
  
  
  
  
  
  
  
  
  
  
  
  
  
  
  
  
  
  
  
  
  
  
  
  
  
  
  
  
  
  
  
  
  
  
  
  
  
  
  
  
  
  
  
  
  
  
  
  
  
  
  
  
  
  
  
  
  
  
  
  
  
  
  
  
  
  
  
  
  
  
  
  
  
  
  
  
  
  
  
  
  
  
  
  
  
  
  
  
  
  
  
  
  
  
  
  
  
  
  
  
  
  
  
  
  
  
  
  
  
  
  
  
  
  
  
  
  
  
  
  
  
  
  
  
  
  
  
  
  
  
  
  
  
  
  
  
  
  
  
  
  
  
  
  
  
  
  
  
  
  
  
  
  
  
  
  
  
  
  
  
  
  
  
  
  
  
  
  
  
  
  
  
  
  
  
  
  
  
  
  
  
  
  
  
  
  
  
  
  
  
  
  
  
  
  
  
  
  
  
  
  
  
  
  
  
  
  
  
  
  
  
  
  
  
  
  
  
  
  
  
  
  
  
  
  
  
  
  
  
  
  
  
  
  
  
  
  
  
  
  
  
  
  
  
  
  
  
  
  
  
  
  
  
  
  
  
  
  
  
  
  
  
  
  
  
  
  
  
  
  
  
  
  
  
  
  
  
  
  
  
  
  
  
  
  
  
  
  
  
  
  
  
  
  
  
  
  
  
  
  
  
  
  
  
  
  
  
  
  
  
  
  
  
  
  
  
  
  
  
  
  
  
  
  
  
  
  
  
  
  
  
  
  
  
  
  
  
  
  
  
  
  
  
  
  
  
  
  
  
  
  
  
  
  
  
  
  
  
  
  
  
  
  
  
  
  
  
  
  
  
  
  
  
  
  
  
  
  
  
  
  
  
  
  
  
  
  
  
  
  
  
  
  
  
  
  
  
  
  
  
  
  
  
  
  
  
  
  
  
  
  
  
  
  
  
  
  
  
  
  
  
  
  
  
  
  
  
  
  
  
  
  
  
  
  
  
  
  
  
  
  
  
  
  
  
  
  
  
  
  
  
  
  
  
  
  
  
  
  
  
  
  
  
  
  
  
  
  
  
  
  
  
  
  
  
  
  
  
  
  
  
  
  
  
  
  
  
  
  
  
  
  
  
  
  
  
  
  
  
  
  
  
  
  
  
  
  
  
  
  
  
  
  
  
  
  
  
  
  
  
  
  
  
  
  
  
  
  
  
  
  
  
  
  
  
  
  
  
  
  
  
  
  
  
  
  
  
  
  
  
  
  
  
  
  
  
  
  
  
  
  
  
  
  
  
  
  
  
  
  
  
  
  
  
  
  
  
  
  
  
  
  
  
  
  
  
  
  
  
  
  
  
  
  
  
  
  
  
  
  
  
  
  
  
  
  
  
  
  
  
  
  
  
  
  
  
  
  
  
  
  
  
  
  
  
  
  
  
  
  
  
  
  
  
  
  
  
  
  
  
  
  
  
  
  
  
  
  
  
  
  
  
  
  
  
  
  
  
  
  
  
  
  
  
  
  
  
  
  
  
  
  
  
  
  
  
  
  
  
  
  
  
  
  
  
  
  
  
  
  
  
  
  
  
  
  
  
  
  
  
  
  
  
  
  
  
  
  
  
  
  
  
  
  
  
  
  
  
  
  
  
  
  
  
  
  
  
  
  
  
  
  
  
  
  
  
  
  
  
  
  
  
  
  
  
  
  
  
  
  
  
  
  
  
  
  
  
  
  
  
  
  
  
  
  
  
  
  
  
  
  
  
  
  
  
  
  
  
  
  
  
  
  
  
  
  
  
  
  
  
  
  
  
  
  
  
  
  
  
  
  
  
  
  
  
  
  
  
  
  
  
  
  
  
  
  
  
  
  
  
  
  
  
  
  
  
  
  
  
  
  
  
  
  
  
  
  
  
  
  
  
  
  
  
  
  
  
  
  
  
  
  
  
  
  
  
  
  
  
  
  
  
  
  
  
  
  
  
  
  
  
  
  
  
  
  
  
  
  
  
  
  
  
  
  
  
  
  
  
  
  
  
  
  
  
  
  
  
  
  
  
  
  
  
  
  
  
  
  
  
  
  
  
  
  
  
  
  
  
  
  
  
  
  
  
  
  
  
  
  
  
  
  
  
  
  
  
  
  
  
  
  
  
  
  
  
  
  
  
  
  
  
  
  
  
  
  
  
  
  
  
  
  
  
  
  
  
  
  
  
  
  
  
  
  
  
  
  
  
  
  
  
  
  
  
  
  
  
  
  
  
  
  
  
  
  
  
  
  
  
  
  
  
  
  
  
  
  
  
  
  
  
  
  
  
  
  
  
  
  
  
  
  
  
  
  
  
  
  
  
  
  
  
  
  
  
  
  
  
  
  
  
  
  
  
  
  
  
  
  
  
  
  
  
  
  
  
  
  
  
  
  
  
  
  
  
  
  
  
  
  
  
  
  
  
  
  
  
  
  
  
  
  
  
  
  
  
  
  
  
  
  
  
  
  
  
  
  
  
  
  
  
  
  
  
  
  
  
  
  
  
  
  
  
  
  
  
  
  
  
  
  
  
  
  
  
  
  
  
  
  
  
  
  
  
  
  
  
  
  
  
  
  
  
  
  
  
  
  
  
  
  
  
  
  
  
  
  
  
  
  
  
  
  
  
  
  
  
  
  
  
  
  
  
  
  
  
  
  
  
  
  
  
  
  
  
  
  
  
  
  
  
  
  
  
  
  
  
  
  
  
  
  
  
  
  
  
  
  
  
  
  
  
  
  
  
  
  
  
  
  
  
  
  
  
  
  
  
  
  
  
  
  
  
  
  
  
  
  
  
  
  
  
  
  
  
  
  
  
  
  
  
  
  
  
  
  
  
  
  
  
  
  
  
  
  
  
  
  
  
  
  
  
  
  
  
  
  
  
  
  
  
  
  
  
  
  
  
  
  
  
  
  
  
  
  
  
  
  
  
  
  
  
  
  
  
  
  
  
  
  
  
  
  
  
  
  
  
  
  
  
  
  
  
  
  
  
  
  
  
  
  
  
  
  
  
  
  
  
  
  
  
  
  
  
  
  
  
  
  
  
  
  
  
  
  
  
  
  
  
  
  
  
  
  
  
  
  
  
  
  
  
  
  
  
  
  
  
  
  
  
  
  
  
  
  
  
  
  
  
  
  
  
  
  
  
  
  
  
  
  
  
  
  
  
  
  
  
  
  
  
  
  
  
  
  
  
  
  
  
  
  
  
  
  
  
  
  
  
  
  
  
  
  
  
  
  
  
  
  
  
  
  
  
  
  
  
  
  
  
  
  
  
  
  
  
  
  
  
  
  
  
  
  
  
  
  
  
  
  
  
  
  
  
  
  
  
  
  
  
  
  
  
  
  
  
  
  
  
  
  
  
  
  
  
  
  
  
  
  
  
  
  
  
  
  
  
  
  
  
  
  
  
  
  
  
  
  
  
  
  
  
  
  
  
  
  
  
  
  
  
  
  
  
  
  
  
  
  
  
  
  
  
  
  
  
  
  
  
  
  
  
  
  
  
  
  
  
  
  
  
  
  
  
  
  
  
  
  
  
  
  
  
  
  
  
  
  
  
  
  
  
  
  
  
  
  
  
  
  
  
  
  
  
  
  
  
  
  
  
  
  
  
  
  
  
  
  
  
  
  
  
  
  
  
  
  
  
  
  
  
  
  
  
  
  
  
  
  
  
  
  
  
  
  
  
  
  
  
  
  
  
  
  
  
  
  
  
  
  
  
  
  
  
  
  
  
  
  
  
  
  
  
  
  
  
  
  
  
  
  
  
  
  
  
  
  
  
  
  
  
  
  
  
  
  
  
  
  
  
  
  
  
  
  
  
  
  
  
  
  
  
  
  
  
  
  
  
  
  
  
  
  
  
  
  
  
  
  
  
  
  
  
  
  
  
  
  
  
  
  
  
  
  
  
  
  
  
  
  
  
  
  
  
  
  
  
  
  
  
  
  
  
  
  
  
  
  
  
  
  
  
  
  
  
  
  
  
  
  
  
  
  
  
  
  
  
  
  
  
  
  
  
  
  
  
  
  
  
  
  
  
  
  
  
  
  
  
  
  
  
  
  
  
  
  
  
  
  
  
  
  
  
  
  
  
  
  
  
  
  
  
  
  
  
  
  
  
  
  
  
  
  
  
  
  
  
  
  
  
  
  
  
  
  
  
  
  
  
  
  
  
  
  
  
  
  
  
  
  
  
  
  
  
  
  
  
  
  
  
  
  
  
  
  
  
  
  
  
  
  
  
  
  
  
  
  
  
  
  
  
  
  
  
  
  
  
  
  
  
  
  
  
  
  
  
  
  
  
  
  
  
  
  
  
  
  
  
  
  
  
  
  
  
  
  
  
  
  
  
  
  
  
  
  
  
  
  
  
  
  
  
  
  
  
  
  
  
  
  
  
  
  
  
  
  
  
  
  
  
  
  
  
  
  
  
  
  
  
  
  
  
  
  
  
  
  
  
  
  
  
  
  
  
  
  
  
  
  
  
  
  
  
  
  
  
  
  
  
  
  
  
  
  
  
  
  
  
  
  
  
  
  
  
  
  
  
  
  
  
  
  
  
  
  
  
  
  
  
  
  
  
  
  
  
  
  
  
  
  
  
  
  
  
  
  
  
  
  
  
  
  
  
  
  
  
  
  
  
  
  
  
  
  
  
  
  
  
  
  
  
  
  
  
  
  
  
  
  
  
  
  
  
  
  
  
  
  
  
  
  
  
  
  
  
  
  
  
  
  
  
  
  
  
  
  
  
  
  
  
  
  
  
  
  
  
  
  
  
  
  
  
  
  
  
  
  
  
  
  
  
  
  
  
  
  
  
  
  
  
  
  
  
  
  
  
  
  
  
  
  
  
  
  
  
  
  
  
  
  
  
  
  
  
  
  
  
  
  
  
  
  
  
  
  
  
  
  
  
  
  
  
  
  
  
  
  
  
  
  
  
  
  
  
  
  
  
  
  
  
  
  
  
  
  
  
  
  
  
  
  
  
  
  
  
  
  
  
  
  
  
  
  
  
  
  
  
  
  
  
  
  
  
  
  
  
  
  
  
  
  
  
  
  
  
  
  
  
  
  
  
  
  
  
  
  
  
  
  
  
  
  
  
  
  
  
  
  
  
  
  
  
  
  
  
  
  
  
  
  
  
  
  
  
  
  
  
  
  
  
  
  
  
  
  
  
  
  
  
  
  
  
  
  
  
  
  
  
  
  
  
  
  
  
  
  
  
  
  
  
  
  
  
  
  
  
  
  
  
  
  
  
  
  
  
  
  
  
  
  
  
  
  
  
  
  
  
  
  
  
  
  
  
  
  
  
  
  
  
  
  
  
  
  
  
  
  
  
  
  
  
  
  
  
  
  
  
  
  
  
  
  
  
  
  
  
  
  
  
  
  
  
  
  
  
  
  
  
  
  
  
  
  
  
  
  
  
  
  
  
  
  
  
  
  
  
  
  
  
  
  
  
  
  
  
  
  
  
  
  
  
  
  
  
  
  
  
  
  
  
  
  
  
  
  
  
  
  
  
  
  
  
  
  
  
  
  
  
  
  
  
  
  
  
  
  
  
  
  
  
  
  
  
  
  
  
  
  
  
  
  
  
  
  
  
  
  
  
  
  
  
  
  
  
  
  
  
  
  
  
  
  
  
  
  
  
  
  
  
  
  
  
  
  
  
  
  
  
  
  
  
  
  
  
  
  
  
  
  
  
  
  
  
  
  
  
  
  
  
  
  
  
  
  
  
  
  
  
  
  
  
  
  
  
  
  
  
  
  
  
  
  
  
  
  
  
  
  
  
  
  
  
  
  
  
  
  
  
  
  
  
  
  
  
  
  
  
  
  
  
  
  
  
  
  
  
  
  
  
</svg>