<?xml version="1.0" encoding="UTF-8" standalone="no"?>
<!--?xml version="1.0" encoding="UTF-8" standalone="no"?-->

<svg
   xmlns:dc="http://purl.org/dc/elements/1.1/"
   xmlns:cc="http://creativecommons.org/ns#"
   xmlns:rdf="http://www.w3.org/1999/02/22-rdf-syntax-ns#"
   xmlns:svg="http://www.w3.org/2000/svg"
   xmlns="http://www.w3.org/2000/svg"
   xmlns:sodipodi="http://sodipodi.sourceforge.net/DTD/sodipodi-0.dtd"
   xmlns:inkscape="http://www.inkscape.org/namespaces/inkscape"
   width="56.492546"
   height="51.653572"
   viewBox="0 0 52.220001 47.183551"
   preserveAspectRatio="xMinYMin meet"
   xml:space="preserve"
   id="svg112"
   version="1.1"
   inkscape:version="0.48.2 r9819"
   sodipodi:docname="AR.svg"><metadata
   id="metadata193"><rdf:RDF><cc:Work
       rdf:about=""><dc:format>image/svg+xml</dc:format><dc:type
         rdf:resource="http://purl.org/dc/dcmitype/StillImage" /></cc:Work></rdf:RDF></metadata><defs
   id="defs191" /><sodipodi:namedview
   pagecolor="#ffffff"
   bordercolor="#666666"
   borderopacity="1"
   objecttolerance="10"
   gridtolerance="10"
   guidetolerance="10"
   inkscape:pageopacity="0"
   inkscape:pageshadow="2"
   inkscape:window-width="640"
   inkscape:window-height="480"
   id="namedview189"
   showgrid="false"
   inkscape:zoom="0.56730769"
   inkscape:cx="-34.855078"
   inkscape:cy="51.688291"
   inkscape:window-x="0"
   inkscape:window-y="0"
   inkscape:window-maximized="0"
   inkscape:current-layer="svg112" />
  
  
  
  
  
  
  
  
  
  
  
  
  
  
  
  
  
  
  
  
  
  
  
  
  
  
  
  
  
  
  
  
  
  
  
  
  
  
  
  
  
  
  
  
  
  
  
  
  
  
  
  
  
  
  
  
  
  
  
  
  
  
  
  
  
  
  
  
  
  
  
  
  
  
  
  
  
  
  
  
  
  
  
  
  
  
  
  
  
  
  
  
  
  
  <path
   style="fill:#72b3dc;stroke:#c2dffb;stroke-width:1"
   d="m 37.297,39.162 0.148,0.409 0.014,0.008 0.546,0.372 0.446,0.301 0.085,0.301 -0.13,0.257 -0.555,0.162 0.541,1.547 0.365,0.662 0.28,0.297 0.031,0.98 0,0.011 -0.338,1.403 -0.009,0.009 -0.315,0.356 -0.087,0.099 -1.063,0.041 -1.839,0.075 -0.266,0.015 -0.202,-4.953 -0.068,-2.262 1.109,-0.055 0.059,0.388 0.292,0.179 0.789,-0.021 0.167,-0.581"
   id="05017"
   inkscape:label="Chicot, AR"
   inkscape:connector-curvature="0" />
  <path
   style="fill:#72b3dc;stroke:#c2dffb;stroke-width:1"
   d="m 29.238,41.648 5.711,-0.134 0.202,4.953 -6.549,0.266 -0.82,-1.975 0.252,-0.648 0.398,-0.519 0.472,-0.382 0.213,-0.059 0.31,-0.262 0.144,-0.996 -0.333,-0.244"
   id="05003"
   inkscape:label="Ashley, AR"
   inkscape:connector-curvature="0" />
  <path
   style="fill:#72b3dc;stroke:#c2dffb;stroke-width:1"
   d="m 19.449,11.852 0.027,1.739 -0.366,0.524 0.023,1.122 -0.347,3.805 -1.329,0.143 -2.728,-1.924 -0.219,-0.122 -0.024,-1.852 0.19,-0.005 0.563,-0.594 0.536,-1.097 -0.017,-1.703 2.217,-0.012 1.474,-0.024"
   id="05115"
   inkscape:label="Pope, AR"
   inkscape:connector-curvature="0" />
  <path
   style="fill:#72b3dc;stroke:#c2dffb;stroke-width:1"
   d="m 17.88,6.8 0.095,5.076 -2.217,0.012 -3.701,-0.346 -0.09,-0.781 0.005,-0.752 0.229,-0.568 0.32,-0.563 L 12.346,6.836 14.202,6.832 17.88,6.8"
   id="05101"
   inkscape:label="Newton, AR"
   inkscape:connector-curvature="0" />
  <path
   style="fill:#72b3dc;stroke:#c2dffb;stroke-width:1"
   d="m 8.816,4.564 1.632,0.006 0.279,0.319 0.14,0.509 0,0.487 0.091,0.185 0.284,0.396 0.364,0.37 0.74,0 0.175,2.042 -0.32,0.563 -0.229,0.568 -0.005,0.752 0.09,0.781 -1.839,-0.023 -2.226,0.167 -0.541,0 0,-0.942 L 7.55,7.39 8.09,5.51 8.816,4.564"
   id="05087"
   inkscape:label="Madison, AR"
   inkscape:connector-curvature="0" />
  <path
   style="fill:#72b3dc;stroke:#c2dffb;stroke-width:1"
   d="m 7.992,11.686 2.226,-0.167 -0.022,5.111 -3.282,2.168 -0.545,-2.993 0.162,-0.086 0.194,-0.621 0.145,-0.739 0.031,-1.372 1.091,-0.923 0.189,-0.188 0.004,-0.19 -0.193,0"
   id="05047"
   inkscape:label="Franklin, AR"
   inkscape:connector-curvature="0" />
  <path
   style="fill:#72b3dc;stroke:#c2dffb;stroke-width:1"
   d="m 10.218,11.519 1.839,0.023 3.701,0.346 0.017,1.703 -0.536,1.097 -0.563,0.594 -0.19,0.005 0.024,1.852 -1.875,-1.076 -0.443,0.175 -0.794,0.253 -1.202,0.139 0.022,-5.111"
   id="05071"
   inkscape:label="Johnson, AR"
   inkscape:connector-curvature="0" />
  <path
   style="fill:#72b3dc;stroke:#c2dffb;stroke-width:1"
   d="m 10.196,16.63 1.202,-0.139 0.794,-0.253 0.443,-0.175 1.875,1.076 0.219,0.122 0.019,1.361 -2.123,0.478 -1.862,0.464 -0.454,0.184 0,1.146 0.053,0.347 -2.213,0.013 -1.668,-0.013 -0.711,-0.365 0,-0.573 0.004,-0.568 1.132,0.013 0.008,-0.95 3.282,-2.168"
   id="05083"
   inkscape:label="Logan, AR"
   inkscape:connector-curvature="0" />
  <path
   style="fill:#72b3dc;stroke:#c2dffb;stroke-width:1"
   d="m 14.729,17.261 2.728,1.924 1.329,-0.143 -1.478,1.265 -0.848,0.785 -0.779,0.752 -0.357,0.398 -0.536,0.734 0.041,1.348 -1.108,0.419 -3.331,0.058 -0.028,-3.56 -0.053,-0.347 0,-1.146 0.454,-0.184 1.862,-0.464 2.123,-0.478 -0.019,-1.361"
   id="05149"
   inkscape:label="Yell, AR"
   inkscape:connector-curvature="0" />
  <path
   style="fill:#72b3dc;stroke:#c2dffb;stroke-width:1"
   d="m 17.308,20.307 3.376,-0.045 0.878,-0.085 0.167,-0.032 0.135,-0.049 0.524,-0.433 0.049,0.051 0.099,0.265 0.014,0.121 -0.04,0.316 -0.046,0.113 -0.081,0.116 -0.117,0.123 -0.166,0.14 -0.073,0.09 -0.046,0.153 0.04,0.157 0.122,0.203 0.11,0.095 0.125,0.072 0.189,0.058 -0.314,0.217 -0.772,0.194 -1.09,0.212 0.008,0.748 0.163,-0.005 -0.104,0.231 -0.843,-0.222 -1.482,0 -1.086,0.045 0.022,1.118 -2.24,0.05 -0.041,-1.348 0.536,-0.734 0.357,-0.398 0.779,-0.752 0.848,-0.785"
   id="05105"
   inkscape:label="Perry, AR"
   inkscape:connector-curvature="0" />
  <path
   style="fill:#72b3dc;stroke:#c2dffb;stroke-width:1"
   d="m 19.133,15.237 3.877,-0.04 0.022,1.131 -0.644,3.335 -0.524,0.433 -0.135,0.049 -0.167,0.032 -0.878,0.085 -3.376,0.045 1.478,-1.265 0.347,-3.805"
   id="05029"
   inkscape:label="Conway, AR"
   inkscape:connector-curvature="0" />
  <path
   style="fill:#72b3dc;stroke:#c2dffb;stroke-width:1"
   d="m 26.894,16.252 0.073,3.844 0.012,0.702 -1.118,0.019 -0.328,1.132 -2.137,0.022 -0.829,-0.235 -0.189,-0.058 -0.125,-0.072 -0.11,-0.095 -0.122,-0.203 -0.04,-0.157 0.046,-0.153 0.073,-0.09 0.166,-0.14 0.117,-0.123 0.081,-0.116 0.046,-0.113 0.04,-0.316 -0.014,-0.121 -0.099,-0.265 -0.049,-0.051 0.644,-3.335 2.389,-0.031 1.473,-0.045"
   id="05045"
   inkscape:label="Faulkner, AR"
   inkscape:connector-curvature="0" />
  <path
   style="fill:#72b3dc;stroke:#c2dffb;stroke-width:1"
   d="m 23.501,10.847 1.869,0.924 0.051,4.526 -2.389,0.031 -0.022,-1.131 -3.877,0.04 -0.023,-1.122 0.366,-0.524 -0.027,-1.739 1.857,-0.009 -0.018,-0.941 2.213,-0.055"
   id="05141"
   inkscape:label="Van Buren, AR"
   inkscape:connector-curvature="0" />
  <path
   style="fill:#72b3dc;stroke:#c2dffb;stroke-width:1"
   d="m 17.88,6.8 0.559,-0.004 0.568,0.553 4.413,-0.062 0.013,1.132 0.068,2.428 -2.213,0.055 0.018,0.941 -1.857,0.009 -1.474,0.024 L 17.88,6.8"
   id="05129"
   inkscape:label="Searcy, AR"
   inkscape:connector-curvature="0" />
  <path
   style="fill:#72b3dc;stroke:#c2dffb;stroke-width:1"
   d="m 25.619,6.291 1.234,0.942 0.06,0.045 0.188,0.229 0.005,0.059 -0.261,0.847 2.009,0.997 0.492,0.176 0.221,2.104 -4.197,0.081 -1.869,-0.924 -0.068,-2.428 1.114,-0.018 1.09,-1.154 -0.018,-0.956"
   id="05137"
   inkscape:label="Stone, AR"
   inkscape:connector-curvature="0" />
  <path
   style="fill:#72b3dc;stroke:#c2dffb;stroke-width:1"
   d="m 29.567,11.69 0.545,2.195 0.028,1.019 -0.532,1.289 -2.714,0.059 -1.473,0.045 -0.051,-4.526 4.197,-0.081"
   id="05023"
   inkscape:label="Cleburne, AR"
   inkscape:connector-curvature="0" />
  <path
   style="fill:#72b3dc;stroke:#c2dffb;stroke-width:1"
   d="m 30.112,13.885 2.214,-0.053 2.5,1.067 -0.847,1.046 -0.027,0.775 0.023,0.081 0.284,0.392 -0.226,2.002 -0.221,0.298 -3.502,0.928 -1.487,-0.135 -0.491,-0.172 -1.365,-0.018 -0.073,-3.844 2.714,-0.059 0.532,-1.289 -0.028,-1.019"
   id="05145"
   inkscape:label="White, AR"
   inkscape:connector-curvature="0" />
  <path
   style="fill:#72b3dc;stroke:#c2dffb;stroke-width:1"
   d="m 34.434,9.049 1.645,-0.073 -0.058,0.226 -0.104,0.307 -0.288,0.671 -0.869,1.943 -0.222,1.659 -1.406,0.045 -0.806,0.005 -2.214,0.053 -0.545,-2.195 -0.221,-2.104 1.398,-1.028 2.564,-0.054 0.014,0.577 1.112,-0.032"
   id="05063"
   inkscape:label="Independence, AR"
   inkscape:connector-curvature="0" />
  <path
   style="fill:#72b3dc;stroke:#c2dffb;stroke-width:1"
   d="m 36.079,8.976 1.727,-0.026 0.073,2.294 0.152,3.444 0.059,1.15 -2.212,0.071 -0.073,-1.145 -1.015,0.063 0.036,0.072 -2.5,-1.067 0.806,-0.005 1.406,-0.045 0.222,-1.659 0.869,-1.943 0.288,-0.671 0.104,-0.307 0.058,-0.226"
   id="05067"
   inkscape:label="Jackson, AR"
   inkscape:connector-curvature="0" />
  <path
   style="fill:#72b3dc;stroke:#c2dffb;stroke-width:1"
   d="m 34.826,14.899 -0.036,-0.072 1.015,-0.063 0.073,1.145 2.212,-0.071 0.108,2.671 -1.023,1.949 -0.923,0.026 -0.47,0.27 -0.085,0.397 0.013,0.549 -0.776,0.036 -0.035,-1.807 -1.004,0.045 -0.051,-0.143 -0.032,-0.338 0.221,-0.298 0.226,-2.002 -0.284,-0.392 -0.023,-0.081 0.027,-0.775 0.847,-1.046"
   id="05147"
   inkscape:label="Woodruff, AR"
   inkscape:connector-curvature="0" />
  <path
   style="fill:#72b3dc;stroke:#c2dffb;stroke-width:1"
   d="m 43.845,18.253 1.073,-0.113 0.09,1.889 0.009,1.275 -5.628,0.28 -1.07,-0.01 -0.553,0.032 0.022,0.576 -0.613,-1.724 1.023,-1.949 5.647,-0.256"
   id="05123"
   inkscape:label="St. Francis, AR"
   inkscape:connector-curvature="0" />
  <path
   style="fill:#72b3dc;stroke:#c2dffb;stroke-width:1"
   d="m 47.28,14.242 0.699,0.688 0.04,0.136 0.419,2.957 -0.004,0.014 0,0.012 -0.004,0.008 -0.019,0.029 -0.157,0.193 -1.105,0.849 -1.05,0.346 -0.126,0.402 0.018,0.18 0.265,1.74 -1.176,0.431 -0.063,-0.923 -0.009,-1.275 -0.09,-1.889 -1.073,0.113 -0.216,-3.858 2.25,-0.09 1.401,-0.063"
   id="05035"
   inkscape:label="Crittenden, AR"
   inkscape:connector-curvature="0" />
  <path
   style="fill:#72b3dc;stroke:#c2dffb;stroke-width:1"
   d="m 43.629,14.395 0.216,3.858 -5.647,0.256 -0.108,-2.671 -0.059,-1.15 0.951,-0.041 2.416,-0.229 1.1,-0.05 1.131,0.027"
   id="05037"
   inkscape:label="Cross, AR"
   inkscape:connector-curvature="0" />
  <path
   style="fill:#72b3dc;stroke:#c2dffb;stroke-width:1"
   d="m 37.879,11.244 1.951,-0.064 4.142,-0.215 1.704,-0.05 0.203,3.39 -2.25,0.09 -1.131,-0.027 -1.1,0.05 -2.416,0.229 -0.951,0.041 -0.152,-3.444"
   id="05111"
   inkscape:label="Poinsett, AR"
   inkscape:connector-curvature="0" />
  <path
   style="fill:#72b3dc;stroke:#c2dffb;stroke-width:1"
   d="M 51.169,6.656 51.72,7.873 51.435,7.868 51.247,7.9 51.022,8.017 50.988,8.04 l -0.066,0.058 -0.91,1.943 -0.285,2.731 -2.447,1.47 -1.401,0.063 -0.203,-3.39 -0.253,-3.84 3.407,-0.243 2.339,-0.176"
   id="05093"
   inkscape:label="Mississippi, AR"
   inkscape:connector-curvature="0" />
  <path
   style="fill:#72b3dc;stroke:#c2dffb;stroke-width:1"
   d="m 45.423,7.075 0.253,3.84 -1.704,0.05 L 39.83,11.18 37.879,11.244 37.806,8.95 39.613,7.778 44.427,7.548 44.6,7.129 45.423,7.075"
   id="05031"
   inkscape:label="Craighead, AR"
   inkscape:connector-curvature="0" />
  <path
   style="fill:#72b3dc;stroke:#c2dffb;stroke-width:1"
   d="M 30.757,4.506 30.744,8.558 29.346,9.586 28.854,9.41 26.845,8.413 27.106,7.566 27.101,7.507 26.913,7.278 26.853,7.233 25.619,6.291 l -0.203,0 -0.009,-0.54 0.555,-0.231 -0.014,-0.911 4.809,-0.103"
   id="05065"
   inkscape:label="Izard, AR"
   inkscape:connector-curvature="0" />
  <path
   style="fill:#72b3dc;stroke:#c2dffb;stroke-width:1"
   d="m 35.214,4.235 1.254,1.105 0.703,0.613 0.324,-0.451 2.43,-0.104 0.618,-0.027 0.004,0.05 -0.195,0.487 -0.284,0.274 -0.148,0.109 -0.405,1.131 0.098,0.356 -1.807,1.172 -1.727,0.026 -1.645,0.073 -0.04,-1.73 -0.085,-1.961 -0.014,-0.726 0.181,-0.194 0.738,-0.203"
   id="05075"
   inkscape:label="Lawrence, AR"
   inkscape:connector-curvature="0" />
  <path
   style="fill:#72b3dc;stroke:#c2dffb;stroke-width:1"
   d="m 33.538,1.207 0.004,0.126 0.632,0.64 0.374,0.18 0.414,0.577 0.216,0.672 0.036,0.833 -0.738,0.203 -0.181,0.194 0.014,0.726 0.085,1.961 0.04,1.73 -1.112,0.032 -0.014,-0.577 -2.564,0.054 0.013,-4.052 1.299,-0.014 1.081,-1.536 -0.04,-1.736 0.441,-0.013"
   id="05135"
   inkscape:label="Sharp, AR"
   inkscape:connector-curvature="0" />
  <path
   style="fill:#72b3dc;stroke:#c2dffb;stroke-width:1"
   d="M 39.875,3.876 40.809,3.807 44.17,3.726 44.909,4.064 44.932,4.448 46.193,4.357 44.6,7.129 44.427,7.548 39.613,7.778 39.515,7.422 39.92,6.291 40.068,6.182 40.352,5.908 40.547,5.421 40.543,5.371 39.925,5.398 39.875,3.876"
   id="05055"
   inkscape:label="Greene, AR"
   inkscape:connector-curvature="0" />
  <path
   style="fill:#72b3dc;stroke:#c2dffb;stroke-width:1"
   d="m 42.079,0.739 3.655,-0.208 0.275,-0.018 0.406,-0.013 0.919,1.298 0.1,0.134 0.067,1.024 L 47.392,3.253 47.32,3.366 46.193,4.357 44.932,4.448 44.909,4.064 44.17,3.726 40.809,3.807 39.875,3.876 39.937,0.855 42.079,0.739"
   id="05021"
   inkscape:label="Clay, AR"
   inkscape:connector-curvature="0" />
  <path
   style="fill:#72b3dc;stroke:#c2dffb;stroke-width:1"
   d="m 39.937,0.855 -0.062,3.021 0.05,1.522 -2.43,0.104 L 37.171,5.953 36.468,5.34 35.214,4.235 35.178,3.402 34.962,2.73 34.548,2.153 34.174,1.973 33.542,1.333 33.538,1.207 36.423,1.054 39.937,0.855"
   id="05121"
   inkscape:label="Randolph, AR"
   inkscape:connector-curvature="0" />
  <path
   style="fill:#72b3dc;stroke:#c2dffb;stroke-width:1"
   d="M 33.097,1.22 33.137,2.956 32.056,4.492 30.757,4.506 25.948,4.609 25.893,1.528 26.2,1.509 30.81,1.302 33.097,1.22"
   id="05049"
   inkscape:label="Fulton, AR"
   inkscape:connector-curvature="0" />
  <path
   style="fill:#72b3dc;stroke:#c2dffb;stroke-width:1"
   d="m 21.995,1.689 3.898,-0.161 0.055,3.081 0.014,0.911 -0.555,0.231 0.009,0.54 0.203,0 0.018,0.956 -1.09,1.154 L 23.433,8.419 23.42,7.287 23.414,6.53 23.154,5.925 22.603,4.796 22.126,4.232 21.955,4.109 22.004,3.087 21.995,1.689"
   id="05005"
   inkscape:label="Baxter, AR"
   inkscape:connector-curvature="0" />
  <path
   style="fill:#72b3dc;stroke:#c2dffb;stroke-width:1"
   d="m 19.494,1.775 2.501,-0.086 0.009,1.398 -0.049,1.022 0.171,0.123 0.477,0.564 0.551,1.129 0.26,0.605 0.006,0.757 -4.413,0.062 -0.568,-0.553 0.211,-4.994 0.844,-0.027"
   id="05089"
   inkscape:label="Marion, AR"
   inkscape:connector-curvature="0" />
  <path
   style="fill:#72b3dc;stroke:#c2dffb;stroke-width:1"
   d="M 18.65,1.802 18.439,6.796 17.88,6.8 14.202,6.832 14.108,1.937 18.65,1.802"
   id="05009"
   inkscape:label="Boone, AR"
   inkscape:connector-curvature="0" />
  <path
   style="fill:#72b3dc;stroke:#c2dffb;stroke-width:1"
   d="m 14.108,1.937 0.094,4.895 -1.856,0.004 -0.74,0 -0.364,-0.37 -0.284,-0.396 -0.091,-0.185 0,-0.487 L 10.727,4.889 10.448,4.57 8.816,4.564 8.235,2.081 11.138,2.009 13.909,1.941 14.108,1.937"
   id="05015"
   inkscape:label="Carroll, AR"
   inkscape:connector-curvature="0" />
  <path
   style="fill:#72b3dc;stroke:#c2dffb;stroke-width:1"
   d="M 6.067,2.126 8.235,2.081 8.816,4.564 8.09,5.51 6.81,5.502 5.702,5.755 3.494,5.868 3.034,6.809 2.926,7.373 1.258,7.364 1.136,6.592 0.5,2.215 6.067,2.126"
   id="05007"
   inkscape:label="Benton, AR"
   inkscape:connector-curvature="0" />
  <path
   style="fill:#72b3dc;stroke:#c2dffb;stroke-width:1"
   d="M 1.258,7.364 2.926,7.373 3.034,6.809 3.494,5.868 5.702,5.755 6.81,5.502 8.09,5.51 7.55,7.39 l -0.099,3.354 0,0.942 L 5.77,11.672 4.485,11.831 1.939,11.807 1.258,7.364"
   id="05143"
   inkscape:label="Washington, AR"
   inkscape:connector-curvature="0" />
  <path
   style="fill:#72b3dc;stroke:#c2dffb;stroke-width:1"
   d="m 7.451,11.686 0.734,0 -0.004,0.19 -0.189,0.188 -1.091,0.923 -0.031,1.372 -0.145,0.739 -0.194,0.621 -0.162,0.086 -0.618,-0.062 -0.089,0.013 -0.064,0.036 -0.09,0.076 -0.044,0.099 0.049,0.108 0.153,0.136 0.045,0.081 0.04,0.139 L 5.743,16.526 5.711,16.608 5.634,16.675 4.976,16.972 4.805,17.027 4.084,17.081 3.818,16.995 3.575,16.693 3.539,16.517 3.58,16.346 3.58,16.297 3.521,16.166 3.178,15.9 3.007,15.824 2.867,15.797 2.84,15.81 2.65,16.486 2.178,13.371 1.939,11.807 4.485,11.831 5.77,11.672 7.451,11.686"
   id="05033"
   inkscape:label="Crawford, AR"
   inkscape:connector-curvature="0" />
  <path
   style="fill:#72b3dc;stroke:#c2dffb;stroke-width:1"
   d="m 2.65,16.486 0.19,-0.676 0.027,-0.013 0.14,0.027 0.171,0.076 0.343,0.266 0.059,0.131 0,0.049 -0.041,0.171 0.036,0.176 0.243,0.302 0.266,0.086 0.721,-0.054 0.171,-0.055 0.658,-0.297 0.077,-0.067 0.032,-0.082 0.008,-0.095 -0.04,-0.139 -0.045,-0.081 -0.153,-0.136 -0.049,-0.108 0.044,-0.099 0.09,-0.076 0.064,-0.036 0.089,-0.013 0.618,0.062 0.545,2.993 -0.008,0.95 -1.132,-0.013 -0.004,0.568 -0.19,0.004 -0.667,0.281 -0.289,0.184 0,0.095 0.236,0.004 0,1.154 -0.357,0.148 -1.735,0.375 -0.185,-0.036 0.063,-5.8 0.004,-0.226"
   id="05131"
   inkscape:label="Sebastian, AR"
   inkscape:connector-curvature="0" />
  <path
   style="fill:#72b3dc;stroke:#c2dffb;stroke-width:1"
   d="m 5.77,20.303 0,0.573 0.711,0.365 1.668,0.013 2.213,-0.013 0.028,3.56 -0.366,-0.003 -0.882,0.472 -0.497,0.6 -0.549,0.022 0,-0.189 -0.933,-0.14 -3.155,-0.005 -0.483,-0.252 -0.969,-0.131 0.027,-2.663 0.185,0.036 1.735,-0.375 0.357,-0.148 0,-1.154 -0.236,-0.004 0,-0.095 0.289,-0.184 0.667,-0.281 0.19,-0.004"
   id="05127"
   inkscape:label="Scott, AR"
   inkscape:connector-curvature="0" />
  <path
   style="fill:#72b3dc;stroke:#c2dffb;stroke-width:1"
   d="m 13.721,24.743 -0.014,4.498 0.009,0.744 -5.585,0 -0.035,-4.093 0.549,-0.022 0.497,-0.6 0.882,-0.472 0.366,0.003 3.331,-0.058"
   id="05097"
   inkscape:label="Montgomery, AR"
   inkscape:connector-curvature="0" />
  <path
   style="fill:#72b3dc;stroke:#c2dffb;stroke-width:1"
   d="m 17.069,24.274 1.113,-0.04 0.032,1.136 0.684,0.616 1.06,0.551 0.188,0.365 0.006,0.757 -1.285,0.01 -0.324,0.752 0.022,0.775 -4.858,0.045 0.014,-4.498 1.108,-0.419 2.24,-0.05"
   id="05051"
   inkscape:label="Garland, AR"
   inkscape:connector-curvature="0" />
  <path
   style="fill:#72b3dc;stroke:#c2dffb;stroke-width:1"
   d="m 20.562,23.102 0.937,0.681 1.109,1.068 1.546,1.069 1.696,0.521 0.089,1.137 -1.668,0.036 -1.577,0.591 -0.658,0.509 -0.527,0.058 -1.357,-1.113 -0.006,-0.757 -0.188,-0.365 -1.06,-0.551 -0.684,-0.616 -0.032,-1.136 -1.113,0.04 -0.022,-1.118 1.086,-0.045 1.482,0 0.843,0.222 0.104,-0.231"
   id="05125"
   inkscape:label="Saline, AR"
   inkscape:connector-curvature="0" />
  <path
   style="fill:#72b3dc;stroke:#c2dffb;stroke-width:1"
   d="m 26.979,20.798 0.529,-0.012 0.081,3.623 0.563,1.416 0.067,1.713 -1.878,0.03 -0.402,0.01 -0.089,-1.137 -1.696,-0.521 -1.546,-1.069 -1.109,-1.068 -0.937,-0.681 -0.163,0.005 -0.008,-0.748 1.09,-0.212 0.772,-0.194 0.314,-0.217 0.829,0.235 2.137,-0.022 0.328,-1.132 1.118,-0.019"
   id="05119"
   inkscape:label="Pulaski, AR"
   inkscape:connector-curvature="0" />
  <path
   style="fill:#72b3dc;stroke:#c2dffb;stroke-width:1"
   d="m 26.967,20.096 1.365,0.018 0.491,0.172 1.487,0.135 0.05,1.411 1.159,-0.028 0.753,3.782 0.094,0.829 -0.005,0.198 -0.419,0.861 -0.288,0 -3.435,0.064 -0.067,-1.713 -0.563,-1.416 -0.081,-3.623 -0.529,0.012 -0.012,-0.702"
   id="05085"
   inkscape:label="Lonoke, AR"
   inkscape:connector-curvature="0" />
  <path
   style="fill:#72b3dc;stroke:#c2dffb;stroke-width:1"
   d="m 30.31,20.421 3.502,-0.928 0.032,0.338 0.051,0.143 1.004,-0.045 0.035,1.807 0.127,4.53 -2.289,0.054 0.039,1.127 -0.31,0.027 -0.559,0 0.419,-0.861 0.005,-0.198 -0.094,-0.829 -0.753,-3.782 -1.159,0.028 -0.05,-1.411"
   id="05117"
   inkscape:label="Prairie, AR"
   inkscape:connector-curvature="0" />
  <path
   style="fill:#72b3dc;stroke:#c2dffb;stroke-width:1"
   d="m 34.934,21.736 0.776,-0.036 -0.013,-0.549 0.085,-0.397 0.47,-0.27 0.923,-0.026 0.613,1.724 0.059,1.718 0.563,-0.018 0.032,1.145 0.085,2.267 0.576,-0.014 0.009,0.203 0.06,1.528 -0.569,0.022 -0.076,0.006 -0.334,-0.127 -0.166,-0.116 -0.96,-1.038 -0.749,-1.073 -0.346,-0.441 -0.911,0.022 -0.127,-4.53"
   id="05095"
   inkscape:label="Monroe, AR"
   inkscape:connector-curvature="0" />
  <path
   style="fill:#72b3dc;stroke:#c2dffb;stroke-width:1"
   d="m 37.788,22.182 -0.022,-0.576 0.553,-0.032 1.07,0.01 5.628,-0.28 0.063,0.923 -1.622,2.583 -5.016,0.217 -0.032,-1.145 -0.563,0.018 -0.059,-1.718"
   id="05077"
   inkscape:label="Lee, AR"
   inkscape:connector-curvature="0" />
  <path
   style="fill:#72b3dc;stroke:#c2dffb;stroke-width:1"
   d="m 43.458,24.81 0.144,1.501 0.113,1.158 -0.076,0.248 -0.01,0.023 -0.023,0.018 -0.365,0.32 -0.459,0.22 -0.555,0.114 -0.553,0.108 -1.01,1.812 -0.479,0.987 -0.153,0.319 0.036,0.126 0.005,0.019 -1.978,0.099 0.508,-2.849 0.569,-0.022 -0.06,-1.528 -0.009,-0.203 -0.576,0.014 -0.085,-2.267 5.016,-0.217"
   id="05107"
   inkscape:label="Phillips, AR"
   inkscape:connector-curvature="0" />
  <path
   style="fill:#72b3dc;stroke:#c2dffb;stroke-width:1"
   d="m 28.219,27.538 3.435,-0.064 0.076,3.227 1.263,0.01 0.555,0.026 0.107,0.077 0.992,1.154 0.14,0.492 -0.082,0.076 -0.058,0.027 -0.599,0.117 -0.799,-0.261 -1.645,-0.799 -0.243,0.911 -2.114,0.103 0.014,0.379 -2.971,0.144 -0.04,-1.378 0.172,-0.808 -0.081,-3.403 1.878,-0.03"
   id="05069"
   inkscape:label="Jefferson, AR"
   inkscape:connector-curvature="0" />
  <path
   style="fill:#72b3dc;stroke:#c2dffb;stroke-width:1"
   d="m 26.341,27.568 0.081,3.403 -0.172,0.808 0.04,1.378 -1.09,0.078 -0.991,-0.816 -0.735,-0.217 -1.948,0 -0.017,-3.43 0.527,-0.058 0.658,-0.509 1.577,-0.591 1.668,-0.036 0.402,-0.01"
   id="05053"
   inkscape:label="Grant, AR"
   inkscape:connector-curvature="0" />
  <path
   style="fill:#72b3dc;stroke:#c2dffb;stroke-width:1"
   d="m 20.152,27.659 1.357,1.113 0.017,3.43 -2.209,-0.004 -1.081,-0.005 -0.428,-0.645 -3.524,-0.811 -0.568,-0.752 -0.009,-0.744 4.858,-0.045 -0.022,-0.775 0.324,-0.752 1.285,-0.01"
   id="05059"
   inkscape:label="Hot Spring, AR"
   inkscape:connector-curvature="0" />
  <path
   style="fill:#72b3dc;stroke:#c2dffb;stroke-width:1"
   d="m 19.317,32.198 2.209,0.004 1.948,0 0.735,0.217 0.991,0.816 -1.433,0.144 -0.004,1.041 0.193,0.036 0.383,0.346 0.248,0.357 0.721,1.271 0.044,0.235 -2.654,0.004 -3.312,0.013 -0.24,-1.081 0.171,-1.164 0,-2.239"
   id="05039"
   inkscape:label="Dallas, AR"
   inkscape:connector-curvature="0" />
  <path
   style="fill:#72b3dc;stroke:#c2dffb;stroke-width:1"
   d="m 26.29,33.157 2.971,-0.144 -0.086,3.538 0.05,1.132 -3.791,0.108 -0.082,-1.126 -0.044,-0.235 -0.721,-1.271 -0.248,-0.357 -0.383,-0.346 -0.193,-0.036 0.004,-1.041 1.433,-0.144 1.09,-0.078"
   id="05025"
   inkscape:label="Cleveland, AR"
   inkscape:connector-curvature="0" />
  <path
   style="fill:#72b3dc;stroke:#c2dffb;stroke-width:1"
   d="m 34.647,32.563 0.292,0.838 0.004,0.206 -0.445,0.316 -0.884,0.028 0.005,1.933 0.018,0.578 -4.462,0.089 0.086,-3.538 -0.014,-0.379 2.114,-0.103 0.243,-0.911 1.645,0.799 0.799,0.261 0.599,-0.117"
   id="05079"
   inkscape:label="Lincoln, AR"
   inkscape:connector-curvature="0" />
  <path
   style="fill:#72b3dc;stroke:#c2dffb;stroke-width:1"
   d="m 31.654,27.474 0.847,0 0.31,-0.027 -0.039,-1.127 2.289,-0.054 0.911,-0.022 0.346,0.441 0.749,1.073 0.96,1.038 0.166,0.116 0.334,0.127 0.076,-0.006 -0.508,2.849 -0.524,0.356 -0.166,0.158 -0.087,0.14 -0.012,0.293 0.031,0.193 0.222,0.222 0.491,0.757 -0.19,0.253 -1.298,-0.384 -0.635,-0.388 -0.988,-0.081 -0.292,-0.838 0.058,-0.027 0.082,-0.076 -0.14,-0.492 -0.992,-1.154 -0.107,-0.077 -0.555,-0.026 -1.263,-0.01 -0.076,-3.227"
   id="05001"
   inkscape:label="Arkansas, AR"
   inkscape:connector-curvature="0" />
  <path
   style="fill:#72b3dc;stroke:#c2dffb;stroke-width:1"
   d="m 40.073,31.783 0.478,0.383 0.113,0.28 -0.063,0.433 -2.083,1.049 -0.856,3.687 -0.059,0.293 0.014,0.026 0.064,0.114 0.319,0.239 0.302,0.244 0,0.013 -0.028,0.139 -0.189,0.162 -0.788,0.317 -0.167,0.581 -0.789,0.021 -0.292,-0.179 -0.059,-0.388 -1.109,0.055 -1.244,-2.79 -0.018,-0.578 -0.005,-1.933 0.884,-0.028 0.445,-0.316 -0.004,-0.206 0.988,0.081 0.635,0.388 1.298,0.384 0.19,-0.253 -0.491,-0.757 -0.222,-0.222 -0.031,-0.193 0.012,-0.293 0.087,-0.14 0.166,-0.158 0.524,-0.356 1.978,-0.099"
   id="05041"
   inkscape:label="Desha, AR"
   inkscape:connector-curvature="0" />
  <path
   style="fill:#72b3dc;stroke:#c2dffb;stroke-width:1"
   d="m 29.175,36.551 4.462,-0.089 1.244,2.79 0.068,2.262 -5.711,0.134 -0.118,-0.166 -0.175,-0.518 -0.01,-0.063 0.033,-0.915 0.008,-0.023 0.338,-0.018 -0.089,-2.262 -0.05,-1.132"
   id="05043"
   inkscape:label="Drew, AR"
   inkscape:connector-curvature="0" />
  <path
   style="fill:#72b3dc;stroke:#c2dffb;stroke-width:1"
   d="m 25.434,37.791 3.791,-0.108 0.089,2.262 -0.338,0.018 -0.008,0.023 -0.033,0.915 0.01,0.063 0.175,0.518 0.118,0.166 0.333,0.244 -0.144,0.996 -0.31,0.262 -0.213,0.059 -0.472,0.382 -0.398,0.519 -0.252,0.648 -0.947,-0.72 -1.405,-0.726 -0.028,-0.139 0.028,-0.082 -0.302,-0.193 -0.064,-0.402 0.046,-0.402 0.09,-0.053 0.045,0.017 0.18,-0.455 0.243,-0.724 0.081,-0.402 -0.197,-1.807 -0.118,-0.879"
   id="05011"
   inkscape:label="Bradley, AR"
   inkscape:connector-curvature="0" />
  <path
   style="fill:#72b3dc;stroke:#c2dffb;stroke-width:1"
   d="m 22.698,36.669 2.654,-0.004 0.082,1.126 0.118,0.879 0.197,1.807 -0.081,0.402 -0.243,0.724 -0.18,0.455 -0.045,-0.017 -0.09,0.053 -0.046,0.402 0.064,0.402 0.302,0.193 -0.316,0.275 -0.469,0.099 -0.207,-0.009 -0.325,-0.252 0.015,-0.036 -0.1,-0.401 -0.802,-0.432 -0.153,-0.041 -1.506,-0.776 -0.675,-0.771 -0.091,-0.221 -0.036,-0.459 0.468,-1.361 0.073,-0.059 0.712,-0.122 0.049,-0.039 0.347,-0.546 0.284,-1.271"
   id="05013"
   inkscape:label="Calhoun, AR"
   inkscape:connector-curvature="0" />
  <path
   style="fill:#72b3dc;stroke:#c2dffb;stroke-width:1"
   d="m 19.386,36.682 3.312,-0.013 -0.284,1.271 -0.347,0.546 -0.049,0.039 -0.712,0.122 -0.073,0.059 -0.468,1.361 0.036,0.459 0.091,0.221 0.675,0.771 1.506,0.776 -4.413,0.023 -1.505,-0.938 0,-4.201 2.231,-0.496"
   id="05103"
   inkscape:label="Ouachita, AR"
   inkscape:connector-curvature="0" />
  <path
   style="fill:#72b3dc;stroke:#c2dffb;stroke-width:1"
   d="m 14.221,34.933 0.77,1.105 1.663,0.707 0.225,0.126 0.276,0.307 0,4.201 -2.664,0.188 -1.271,-0.373 0.005,-2.551 0.112,-1.974 0,-1.713 0.884,-0.023"
   id="05099"
   inkscape:label="Nevada, AR"
   inkscape:connector-curvature="0" />
  <path
   style="fill:#72b3dc;stroke:#c2dffb;stroke-width:1"
   d="m 9.425,34.38 3.912,0.576 0,1.713 -0.112,1.974 L 13.22,41.194 10.65,41.18 9.511,39.549 8.068,37.755 9.411,37.763 9.425,34.38"
   id="05057"
   inkscape:label="Hempstead, AR"
   inkscape:connector-curvature="0" />
  <path
   style="fill:#72b3dc;stroke:#c2dffb;stroke-width:1"
   d="m 12.973,29.985 0.743,0 0.568,0.752 3.524,0.811 0.428,0.645 1.081,0.005 0,2.239 -0.171,1.164 0.24,1.081 -2.231,0.496 -0.276,-0.307 -0.225,-0.126 -1.663,-0.707 -0.77,-1.105 -0.622,-1.158 -0.159,-0.437 -0.459,-2.218 -0.008,-1.135"
   id="05019"
   inkscape:label="Clark, AR"
   inkscape:connector-curvature="0" />
  <path
   style="fill:#72b3dc;stroke:#c2dffb;stroke-width:1"
   d="m 8.131,29.985 4.842,0 0.008,1.135 0.459,2.218 0.159,0.437 0.622,1.158 -0.884,0.023 L 9.425,34.38 9.398,32.112 8.281,32.102 8.141,31.111 8.131,29.985"
   id="05109"
   inkscape:label="Pike, AR"
   inkscape:connector-curvature="0" />
  <path
   style="fill:#72b3dc;stroke:#c2dffb;stroke-width:1"
   d="m 8.131,29.985 0.01,1.126 0.14,0.991 1.117,0.01 0.027,2.268 -0.014,3.383 -1.343,-0.008 -0.018,0 L 6.861,35.619 6.816,35.488 6.608,34.118 6.531,33.501 6.499,32.522 6.54,32.13 6.423,32.075 4.904,32.093 4.756,31.098 4.75,29.98 8.131,29.985"
   id="05061"
   inkscape:label="Howard, AR"
   inkscape:connector-curvature="0" />
  <path
   style="fill:#72b3dc;stroke:#c2dffb;stroke-width:1"
   d="m 2.556,25.175 0.969,0.131 0.483,0.252 3.155,0.005 0.933,0.14 0,0.189 0.035,4.093 -3.381,-0.005 0.006,1.118 0.148,0.995 -2.402,0.073 0.054,-6.991"
   id="05113"
   inkscape:label="Polk, AR"
   inkscape:connector-curvature="0" />
  <path
   style="fill:#72b3dc;stroke:#c2dffb;stroke-width:1"
   d="m 4.904,32.093 1.519,-0.018 0.117,0.055 -0.041,0.392 0.032,0.979 0.077,0.617 0.208,1.37 0.045,0.131 1.189,2.136 -0.883,-0.013 -2.804,-0.83 -1.884,-1.515 0.023,-3.231 2.402,-0.073"
   id="05133"
   inkscape:label="Sevier, AR"
   inkscape:connector-curvature="0" />
  <path
   style="fill:#72b3dc;stroke:#c2dffb;stroke-width:1"
   d="m 2.479,35.397 1.884,1.515 2.804,0.83 0.883,0.013 0.018,0 1.443,1.794 L 7.203,40.346 6.946,40.134 6.748,40.053 5.711,39.845 5.111,39.932 4.954,39.951 4.9,40 3.863,40.526 3.286,40.211 3.129,40.108 2.691,39.828 2.62,39.733 2.538,39.545 2.453,39.324 2.479,35.397"
   id="05081"
   inkscape:label="Little River, AR"
   inkscape:connector-curvature="0" />
  <path
   style="fill:#72b3dc;stroke:#c2dffb;stroke-width:1"
   d="m 9.511,39.549 1.139,1.631 -0.076,0.829 0.74,1.096 0,0.068 -0.176,0.572 -0.807,1.424 -0.077,0.099 -0.076,0.072 -0.126,0.019 -0.604,1.072 0.464,0.762 -0.104,0 -2.46,0.054 -0.145,-6.901 2.308,-0.797"
   id="05091"
   inkscape:label="Miller, AR"
   inkscape:connector-curvature="0" />
  <path
   style="fill:#72b3dc;stroke:#c2dffb;stroke-width:1"
   d="m 10.65,41.18 2.57,0.014 1.271,0.373 -0.117,0.149 -1.064,2.272 -0.013,3.133 -0.33,0.004 -3.055,0.068 -0.464,-0.762 0.604,-1.072 0.126,-0.019 0.076,-0.072 0.077,-0.099 0.807,-1.424 0.176,-0.572 0,-0.068 -0.74,-1.096 0.076,-0.829"
   id="05073"
   inkscape:label="Lafayette, AR"
   inkscape:connector-curvature="0" />
  <path
   style="fill:#72b3dc;stroke:#c2dffb;stroke-width:1"
   d="m 14.491,41.567 2.664,-0.188 1.505,0.938 0.04,4.659 -2.69,0.073 -2.713,0.072 0.013,-3.133 1.064,-2.272 0.117,-0.149"
   id="05027"
   inkscape:label="Columbia, AR"
   inkscape:connector-curvature="0" />
  <path
   style="fill:#72b3dc;stroke:#c2dffb;stroke-width:1"
   d="m 18.66,42.317 4.413,-0.023 0.153,0.041 0.802,0.432 0.1,0.401 -0.015,0.036 0.325,0.252 0.207,0.009 0.469,-0.099 0.316,-0.275 -0.028,0.082 0.028,0.139 1.405,0.726 0.947,0.72 0.82,1.975 -7.063,0.19 -2.839,0.053 -0.04,-4.659"
   id="05139"
   inkscape:label="Union, AR"
   inkscape:connector-curvature="0" />
  
  
  
  
  
  
  
  
  
  
  
  
  
  
  
  
  
  
  
  
  
  
  
  
  
  
  
  
  
  
  
  
  
  
  
  
  
  
  
  
  
  
  
  
  
  
  
  
  
  
  
  
  
  
  
  
  
  
  
  
  
  
  
  
  
  
  
  
  
  
  
  
  
  
  
  
  
  
  
  
  
  
  
  
  
  
  
  
  
  
  
  
  
  
  
  
  
  
  
  
  
  
  
  
  
  
  
  
  
  
  
  
  
  
  
  
  
  
  
  
  
  
  
  
  
  
  
  
  
  
  
  
  
  
  
  
  
  
  
  
  
  
  
  
  
  
  
  
  
  
  
  
  
  
  
  
  
  
  
  
  
  
  
  
  
  
  
  
  
  
  
  
  
  
  
  
  
  
  
  
  
  
  
  
  
  
  
  
  
  
  
  
  
  
  
  
  
  
  
  
  
  
  
  
  
  
  
  
  
  
  
  
  
  
  
  
  
  
  
  
  
  
  
  
  
  
  
  
  
  
  
  
  
  
  
  
  
  
  
  
  
  
  
  
  
  
  
  
  
  
  
  
  
  
  
  
  
  
  
  
  
  
  
  
  
  
  
  
  
  
  
  
  
  
  
  
  
  
  
  
  
  
  
  
  
  
  
  
  
  
  
  
  
  
  
  
  
  
  
  
  
  
  
  
  
  
  
  
  
  
  
  
  
  
  
  
  
  
  
  
  
  
  
  
  
  
  
  
  
  
  
  
  
  
  
  
  
  
  
  
  
  
  
  
  
  
  
  
  
  
  
  
  
  
  
  
  
  
  
  
  
  
  
  
  
  
  
  
  
  
  
  
  
  
  
  
  
  
  
  
  
  
  
  
  
  
  
  
  
  
  
  
  
  
  
  
  
  
  
  
  
  
  
  
  
  
  
  
  
  
  
  
  
  
  
  
  
  
  
  
  
  
  
  
  
  
  
  
  
  
  
  
  
  
  
  
  
  
  
  
  
  
  
  
  
  
  
  
  
  
  
  
  
  
  
  
  
  
  
  
  
  
  
  
  
  
  
  
  
  
  
  
  
  
  
  
  
  
  
  
  
  
  
  
  
  
  
  
  
  
  
  
  
  
  
  
  
  
  
  
  
  
  
  
  
  
  
  
  
  
  
  
  
  
  
  
  
  
  
  
  
  
  
  
  
  
  
  
  
  
  
  
  
  
  
  
  
  
  
  
  
  
  
  
  
  
  
  
  
  
  
  
  
  
  
  
  
  
  
  
  
  
  
  
  
  
  
  
  
  
  
  
  
  
  
  
  
  
  
  
  
  
  
  
  
  
  
  
  
  
  
  
  
  
  
  
  
  
  
  
  
  
  
  
  
  
  
  
  
  
  
  
  
  
  
  
  
  
  
  
  
  
  
  
  
  
  
  
  
  
  
  
  
  
  
  
  
  
  
  
  
  
  
  
  
  
  
  
  
  
  
  
  
  
  
  
  
  
  
  
  
  
  
  
  
  
  
  
  
  
  
  
  
  
  
  
  
  
  
  
  
  
  
  
  
  
  
  
  
  
  
  
  
  
  
  
  
  
  
  
  
  
  
  
  
  
  
  
  
  
  
  
  
  
  
  
  
  
  
  
  
  
  
  
  
  
  
  
  
  
  
  
  
  
  
  
  
  
  
  
  
  
  
  
  
  
  
  
  
  
  
  
  
  
  
  
  
  
  
  
  
  
  
  
  
  
  
  
  
  
  
  
  
  
  
  
  
  
  
  
  
  
  
  
  
  
  
  
  
  
  
  
  
  
  
  
  
  
  
  
  
  
  
  
  
  
  
  
  
  
  
  
  
  
  
  
  
  
  
  
  
  
  
  
  
  
  
  
  
  
  
  
  
  
  
  
  
  
  
  
  
  
  
  
  
  
  
  
  
  
  
  
  
  
  
  
  
  
  
  
  
  
  
  
  
  
  
  
  
  
  
  
  
  
  
  
  
  
  
  
  
  
  
  
  
  
  
  
  
  
  
  
  
  
  
  
  
  
  
  
  
  
  
  
  
  
  
  
  
  
  
  
  
  
  
  
  
  
  
  
  
  
  
  
  
  
  
  
  
  
  
  
  
  
  
  
  
  
  
  
  
  
  
  
  
  
  
  
  
  
  
  
  
  
  
  
  
  
  
  
  
  
  
  
  
  
  
  
  
  
  
  
  
  
  
  
  
  
  
  
  
  
  
  
  
  
  
  
  
  
  
  
  
  
  
  
  
  
  
  
  
  
  
  
  
  
  
  
  
  
  
  
  
  
  
  
  
  
  
  
  
  
  
  
  
  
  
  
  
  
  
  
  
  
  
  
  
  
  
  
  
  
  
  
  
  
  
  
  
  
  
  
  
  
  
  
  
  
  
  
  
  
  
  
  
  
  
  
  
  
  
  
  
  
  
  
  
  
  
  
  
  
  
  
  
  
  
  
  
  
  
  
  
  
  
  
  
  
  
  
  
  
  
  
  
  
  
  
  
  
  
  
  
  
  
  
  
  
  
  
  
  
  
  
  
  
  
  
  
  
  
  
  
  
  
  
  
  
  
  
  
  
  
  
  
  
  
  
  
  
  
  
  
  
  
  
  
  
  
  
  
  
  
  
  
  
  
  
  
  
  
  
  
  
  
  
  
  
  
  
  
  
  
  
  
  
  
  
  
  
  
  
  
  
  
  
  
  
  
  
  
  
  
  
  
  
  
  
  
  
  
  
  
  
  
  
  
  
  
  
  
  
  
  
  
  
  
  
  
  
  
  
  
  
  
  
  
  
  
  
  
  
  
  
  
  
  
  
  
  
  
  
  
  
  
  
  
  
  
  
  
  
  
  
  
  
  
  
  
  
  
  
  
  
  
  
  
  
  
  
  
  
  
  
  
  
  
  
  
  
  
  
  
  
  
  
  
  
  
  
  
  
  
  
  
  
  
  
  
  
  
  
  
  
  
  
  
  
  
  
  
  
  
  
  
  
  
  
  
  
  
  
  
  
  
  
  
  
  
  
  
  
  
  
  
  
  
  
  
  
  
  
  
  
  
  
  
  
  
  
  
  
  
  
  
  
  
  
  
  
  
  
  
  
  
  
  
  
  
  
  
  
  
  
  
  
  
  
  
  
  
  
  
  
  
  
  
  
  
  
  
  
  
  
  
  
  
  
  
  
  
  
  
  
  
  
  
  
  
  
  
  
  
  
  
  
  
  
  
  
  
  
  
  
  
  
  
  
  
  
  
  
  
  
  
  
  
  
  
  
  
  
  
  
  
  
  
  
  
  
  
  
  
  
  
  
  
  
  
  
  
  
  
  
  
  
  
  
  
  
  
  
  
  
  
  
  
  
  
  
  
  
  
  
  
  
  
  
  
  
  
  
  
  
  
  
  
  
  
  
  
  
  
  
  
  
  
  
  
  
  
  
  
  
  
  
  
  
  
  
  
  
  
  
  
  
  
  
  
  
  
  
  
  
  
  
  
  
  
  
  
  
  
  
  
  
  
  
  
  
  
  
  
  
  
  
  
  
  
  
  
  
  
  
  
  
  
  
  
  
  
  
  
  
  
  
  
  
  
  
  
  
  
  
  
  
  
  
  
  
  
  
  
  
  
  
  
  
  
  
  
  
  
  
  
  
  
  
  
  
  
  
  
  
  
  
  
  
  
  
  
  
  
  
  
  
  
  
  
  
  
  
  
  
  
  
  
  
  
  
  
  
  
  
  
  
  
  
  
  
  
  
  
  
  
  
  
  
  
  
  
  
  
  
  
  
  
  
  
  
  
  
  
  
  
  
  
  
  
  
  
  
  
  
  
  
  
  
  
  
  
  
  
  
  
  
  
  
  
  
  
  
  
  
  
  
  
  
  
  
  
  
  
  
  
  
  
  
  
  
  
  
  
  
  
  
  
  
  
  
  
  
  
  
  
  
  
  
  
  
  
  
  
  
  
  
  
  
  
  
  
  
  
  
  
  
  
  
  
  
  
  
  
  
  
  
  
  
  
  
  
  
  
  
  
  
  
  
  
  
  
  
  
  
  
  
  
  
  
  
  
  
  
  
  
  
  
  
  
  
  
  
  
  
  
  
  
  
  
  
  
  
  
  
  
  
  
  
  
  
  
  
  
  
  
  
  
  
  
  
  
  
  
  
  
  
  
  
  
  
  
  
  
  
  
  
  
  
  
  
  
  
  
  
  
  
  
  
  
  
  
  
  
  
  
  
  
  
  
  
  
  
  
  
  
  
  
  
  
  
  
  
  
  
  
  
  
  
  
  
  
  
  
  
  
  
  
  
  
  
  
  
  
  
  
  
  
  
  
  
  
  
  
  
  
  
  
  
  
  
  
  
  
  
  
  
  
  
  
  
  
  
  
  
  
  
  
  
  
  
  
  
  
  
  
  
  
  
  
  
  
  
  
  
  
  
  
  
  
  
  
  
  
  
  
  
  
  
  
  
  
  
  
  
  
  
  
  
  
  
  
  
  
  
  
  
  
  
  
  
  
  
  
  
  
  
  
  
  
  
  
  
  
  
  
  
  
  
  
  
  
  
  
  
  
  
  
  
  
  
  
  
  
  
  
  
  
  
  
  
  
  
  
  
  
  
  
  
  
  
  
  
  
  
  
  
  
  
  
  
  
  
  
  
  
  
  
  
  
  
  
  
  
  
  
  
  
  
  
  
  
  
  
  
  
  
  
  
  
  
  
  
  
  
  
  
  
  
  
  
  
  
  
  
  
  
  
  
  
  
  
  
  
  
  
  
  
  
  
  
  
  
  
  
  
  
  
  
  
  
  
  
  
  
  
  
  
  
  
  
  
  
  
  
  
  
  
  
  
  
  
  
  
  
  
  
  
  
  
  
  
  
  
  
  
  
  
  
  
  
  
  
  
  
  
  
  
  
  
  
  
  
  
  
  
  
  
  
  
  
  
  
  
  
  
  
  
  
  
  
  
  
  
  
  
  
  
  
  
  
  
  
  
  
  
  
  
  
  
  
  
  
  
  
  
  
  
  
  
  
  
  
  
  
  
  
  
  
  
  
  
  
  
  
  
  
  
  
  
  
  
  
  
  
  
  
  
  
  
  
  
  
  
  
  
  
  
  
  
  
  
  
  
  
  
  
  
  
  
  
  
  
  
  
  
  
  
  
  
  
  
  
  
  
  
  
  
  
  
  
  
  
  
  
  
  
  
  
  
  
  
  
  
  
  
  
  
  
  
  
  
  
  
  
  
  
  
  
  
  
  
  
  
  
  
  
  
  
  
  
  
  
  
  
  
  
  
  
  
  
  
  
  
  
  
  
  
  
  
  
  
  
  
  
  
  
  
  
  
  
  
  
  
  
  
  
  
  
  
  
  
  
  
  
  
  
  
  
  
  
  
  
  
  
  
  
  
  
  
  
  
  
  
  
  
  
  
  
  
  
  
  
  
  
  
  
  
  
  
  
  
  
  
  
  
  
  
  
  
  
  
  
  
  
  
  
  
  
  
  
  
  
  
  
  
  
  
  
  
  
  
  
  
  
  
  
  
  
  
  
  
  
  
  
  
  
  
  
  
  
  
  
  
  
  
  
  
  
  
  
  
  
  
  
  
  
  
  
  
  
  
  
  
  
  
  
  
  
  
  
  
  
  
  
  
  
  
  
  
  
  
  
  
  
  
  
  
  
  
  
  
  
  
  
  
  
  
  
  
  
  
  
  
  
  
  
  
  
  
  
  
  
  
  
  
  
  
  
  
  
  
  
  
  
  
  
  
  
  
  
  
  
  
  
  
  
  
  
  
  
  
  
  
  
  
  
  
  
  
  
  
  
  
  
  
  
  
  
  
  
  
  
  
  
  
  
  
  
  
  
  
  
  
  
  
  
  
  
  
  
  
  
  
  
  
  
  
  
  
  
  
  
  
  
  
  
  
  
  
  
  
  
  
  
  
  
  
  
  
  
  
  
  
  
  
  
  
  
  
  
  
  
  
  
  
  
  
  
  
  
  
  
  
  
  
  
  
  
  
  
  
  
  
  
  
  
  
  
  
  
  
  
  
  
  
  
  
  
  
  
  
  
  
  
  
  
  
  
  
  
  
  
  
  
  
  
  
  
  
  
  
  
  
  
  
  
  
  
  
  
  
  
  
  
  
  
  
  
  
  
  
  
  
  
  
  
  
  
  
  
  
  
  
  
  
  
  
  
  
  
  
  
  
  
  
  
  
  
  
  
  
  
  
  
  
  
  
  
  
  
  
  
  
  
  
  
  
  
  
  
  
  
  
  
  
  
  
  
  
  
  
  
  
  
  
  
  
  
  
  
  
  
  
  
  
  
  
  
  
  
  
  
  
  
  
  
  
  
  
  
  
  
  
  
  
  
  
  
  
  
  
  
  
  
  
  
  
  
  
  
  
  
  
  
  
  
  
  
  
  
  
  
  
  
  
  
  
  
  
  
  
  
  
  
  
  
  
  
  
  
  
  
  
  
  
  
  
  
  
  
  
  
  
  
  
  
  
  
  
  
  
  
  
  
  
  
  
  
  
  
  
  
  
  
  
  
  
  
  
  
  
  
  
  
  
  
  
  
  
  
  
  
  
  
  
  
  
  
  
  
  
  
  
  
  
  
  
  
  
  
  
  
  
  
  
  
  
  
  
  
  
  
  
  
  
  
  
  
  
  
  
  
  
  
  
  
  
  
  
  
  
  
  
  
</svg>