<?xml version="1.0" encoding="UTF-8" standalone="no"?>
<!--?xml version="1.0" encoding="UTF-8" standalone="no"?-->

<svg
   xmlns:dc="http://purl.org/dc/elements/1.1/"
   xmlns:cc="http://creativecommons.org/ns#"
   xmlns:rdf="http://www.w3.org/1999/02/22-rdf-syntax-ns#"
   xmlns:svg="http://www.w3.org/2000/svg"
   xmlns="http://www.w3.org/2000/svg"
   xmlns:sodipodi="http://sodipodi.sourceforge.net/DTD/sodipodi-0.dtd"
   xmlns:inkscape="http://www.inkscape.org/namespaces/inkscape"
   width="81.621017"
   height="64.673256"
   viewBox="0 0 75.447999 59.076532"
   preserveAspectRatio="xMinYMin meet"
   xml:space="preserve"
   id="svg284"
   version="1.1"
   inkscape:version="0.48.2 r9819"
   sodipodi:docname="CO.svg"><metadata
   id="metadata354"><rdf:RDF><cc:Work
       rdf:about=""><dc:format>image/svg+xml</dc:format><dc:type
         rdf:resource="http://purl.org/dc/dcmitype/StillImage" /></cc:Work></rdf:RDF></metadata><defs
   id="defs352" /><sodipodi:namedview
   pagecolor="#ffffff"
   bordercolor="#666666"
   borderopacity="1"
   objecttolerance="10"
   gridtolerance="10"
   guidetolerance="10"
   inkscape:pageopacity="0"
   inkscape:pageshadow="2"
   inkscape:window-width="640"
   inkscape:window-height="480"
   id="namedview350"
   showgrid="false"
   inkscape:zoom="0.56730769"
   inkscape:cx="124.39397"
   inkscape:cy="-5.9834364"
   inkscape:window-x="0"
   inkscape:window-y="0"
   inkscape:window-maximized="0"
   inkscape:current-layer="svg284" />
  
  
  
  
  
  
  
  
  
  
  
  
  
  
  
  
  
  
  
  
  
  
  
  
  
  
  
  
  
  
  
  
  
  
  
  
  
  
  
  
  
  
  
  
  
  
  
  
  
  
  
  
  
  
  
  
  
  
  
  
  
  
  
  
  
  
  
  
  
  
  
  
  
  
  
  
  
  
  
  
  
  
  
  
  
  
  
  
  
  
  
  
  
  
  
  
  
  
  
  
  
  
  
  
  
  
  
  
  
  
  
  
  
  
  
  
  
  
  
  
  
  
  
  
  
  
  
  
  
  
  
  
  
  
  
  
  
  
  
  
  
  
  
  
  
  
  
  
  
  
  
  
  
  
  
  
  
  
  
  
  
  
  
  
  
  
  
  
  
  
  
  
  
  
  
  
  
  
  
  
  
  
  
  
  
  
  
  
  
  
  
  
  
  
  
  
  
  
  
  
  
  
  
  
  
  
  
  
  
  
  
  
  
  
  
  
  
  
  
  
  
  
  
  
  
  
  
  
  
  
  
  
  
  
  
  
  
  
  
  
  
  
  <path
   style="fill:#72b3dc;stroke:#c2dffb;stroke-width:1"
   d="M 12.426,45.211 11.984,45.599 9.681,48.586 9.604,48.694 8.743,50.11 7.382,52.562 7.247,52.932 0.5,52.03 l 0.883,-6.256 1.528,-1.716 6.112,0.81 1.154,0.127 0.879,0.049 1.37,0.167"
   id="08083"
   inkscape:label="Montezuma, CO"
   inkscape:connector-curvature="0" />
  <path
   style="fill:#72b3dc;stroke:#c2dffb;stroke-width:1"
   d="m 12.426,45.211 4.926,0.608 -0.996,8.253 -9.109,-1.14 0.135,-0.37 1.361,-2.452 0.861,-1.416 0.077,-0.108 2.303,-2.987 0.442,-0.388"
   id="08067"
   inkscape:label="La Plata, CO"
   inkscape:connector-curvature="0" />
  <path
   style="fill:#72b3dc;stroke:#c2dffb;stroke-width:1"
   d="m 65.758,42.286 7,0.446 -0.005,0.081 -0.406,6.801 -0.072,1.221 -7.143,-0.473 0.162,-2.325 0.072,0 0.018,-0.185 0.374,-5.566"
   id="08099"
   inkscape:label="Prowers, CO"
   inkscape:connector-curvature="0" />
  <path
   style="fill:#72b3dc;stroke:#c2dffb;stroke-width:1"
   d="m 65.758,42.286 -0.374,5.566 -0.018,0.185 -0.072,0 -0.162,2.325 -3.322,-0.239 -3.317,-0.252 0.671,-8.059 6.594,0.474"
   id="08011"
   inkscape:label="Bent, CO"
   inkscape:connector-curvature="0" />
  <path
   style="fill:#72b3dc;stroke:#c2dffb;stroke-width:1"
   d="m 61.783,37.49 1.104,0.049 4.498,0.349 2.465,0.139 3.187,0.211 -0.279,4.494 -7,-0.446 -6.594,-0.474 -1.019,-0.072 0.226,-3.263 0.428,-0.058 2.118,0.162 0.78,0.04 0.086,-1.131"
   id="08061"
   inkscape:label="Kiowa, CO"
   inkscape:connector-curvature="0" />
  <path
   style="fill:#72b3dc;stroke:#c2dffb;stroke-width:1"
   d="m 73.384,32.637 -0.275,4.534 -0.072,1.067 -3.187,-0.211 -2.465,-0.139 -4.498,-0.349 -1.104,-0.049 0.514,-5.503 1.108,0.054 3.326,0.252 2.141,0.112 1.461,0.046 3.051,0.186"
   id="08017"
   inkscape:label="Cheyenne, CO"
   inkscape:connector-curvature="0" />
  <path
   style="fill:#72b3dc;stroke:#c2dffb;stroke-width:1"
   d="m 62.896,25.144 3.466,0.226 7.423,0.425 -0.004,0.075 -0.334,5.648 -0.063,1.119 -3.051,-0.186 -1.461,-0.046 -2.141,-0.112 -3.326,-0.252 -1.108,-0.054 0.085,-1.145 0.235,-2.069 0.279,-3.629"
   id="08063"
   inkscape:label="Kit Carson, CO"
   inkscape:connector-curvature="0" />
  <path
   style="fill:#72b3dc;stroke:#c2dffb;stroke-width:1"
   d="m 68.512,14.18 5.972,0.383 -0.077,1.176 -0.284,4.488 -0.338,5.568 -7.423,-0.425 0.293,-3.87 0.103,-1.759 0.42,-4.52 0.216,-1.119 1.118,0.078"
   id="08125"
   inkscape:label="Yuma, CO"
   inkscape:connector-curvature="0" />
  <path
   style="fill:#72b3dc;stroke:#c2dffb;stroke-width:1"
   d="m 57.929,19.079 2.285,0.181 0.154,-2.142 0.211,-2.37 0.144,-1.118 6.671,0.472 -0.216,1.119 -0.42,4.52 -0.103,1.759 -0.293,3.87 -3.466,-0.226 -5.44,-0.431 0.473,-5.634"
   id="08121"
   inkscape:label="Washington, CO"
   inkscape:connector-curvature="0" />
  <path
   style="fill:#72b3dc;stroke:#c2dffb;stroke-width:1"
   d="m 74.745,10.546 -0.045,0.677 -0.216,3.34 -5.972,-0.383 0.419,-4.017 5.814,0.383"
   id="08095"
   inkscape:label="Phillips, CO"
   inkscape:connector-curvature="0" />
  <path
   style="fill:#72b3dc;stroke:#c2dffb;stroke-width:1"
   d="m 69.45,6.901 5.498,0.368 -0.203,3.277 -5.814,-0.383 0.207,-3.28 0.312,0.018"
   id="08115"
   inkscape:label="Sedgwick, CO"
   inkscape:connector-curvature="0" />
  <path
   style="fill:#72b3dc;stroke:#c2dffb;stroke-width:1"
   d="m 60.246,6.225 1.852,0.143 7.04,0.515 -0.207,3.28 -0.419,4.017 -1.118,-0.078 -6.671,-0.472 -1.041,-1.218 0.199,-2.311 0.058,0.004 0.298,-3.578 0.009,-0.302"
   id="08075"
   inkscape:label="Logan, CO"
   inkscape:connector-curvature="0" />
  <path
   style="fill:#72b3dc;stroke:#c2dffb;stroke-width:1"
   d="m 57.929,19.079 -4.349,-0.361 0.608,-6.774 3.155,0.271 1.226,0.125 1.113,0.072 1.041,1.218 -0.144,1.118 -0.211,2.37 -0.154,2.142 -2.285,-0.181"
   id="08087"
   inkscape:label="Morgan, CO"
   inkscape:connector-curvature="0" />
  <path
   style="fill:#72b3dc;stroke:#c2dffb;stroke-width:1"
   d="m 61.81,50.123 3.322,0.239 7.143,0.473 -0.216,3.308 -0.329,5.139 -3.195,-0.225 -5.301,-0.437 -1.294,-0.1 -0.856,-0.063 0.113,-1.622 0.293,-3.321 0.081,0.004 0.239,-3.395"
   id="08009"
   inkscape:label="Baca, CO"
   inkscape:connector-curvature="0" />
  <path
   style="fill:#72b3dc;stroke:#c2dffb;stroke-width:1"
   d="m 59.164,41.812 -0.671,8.059 -6.608,-0.545 0.072,-1.177 0.482,-5.332 0.244,0.095 0.951,0.284 1.032,0.243 2.141,0.172 1.163,-0.68 0.175,-1.191 1.019,0.072"
   id="08089"
   inkscape:label="Otero, CO"
   inkscape:connector-curvature="0" />
  <path
   style="fill:#72b3dc;stroke:#c2dffb;stroke-width:1"
   d="m 52.895,37.95 5.476,0.527 -0.226,3.263 -0.175,1.191 -1.163,0.68 -2.141,-0.172 -1.032,-0.243 -0.951,-0.284 -0.244,-0.095 0.456,-4.867"
   id="08025"
   inkscape:label="Crowley, CO"
   inkscape:connector-curvature="0" />
  <path
   style="fill:#72b3dc;stroke:#c2dffb;stroke-width:1"
   d="m 62.896,25.144 -0.279,3.629 -0.235,2.069 -0.085,1.145 -0.514,5.503 -0.086,1.131 -0.78,-0.04 -2.118,-0.162 -0.428,0.058 -5.476,-0.527 0.365,-4.489 3.335,0.302 0.32,-3.371 0.469,-5.688 0.072,0.009 5.44,0.431"
   id="08073"
   inkscape:label="Lincoln, CO"
   inkscape:connector-curvature="0" />
  <path
   style="fill:#72b3dc;stroke:#c2dffb;stroke-width:1"
   d="m 53.26,33.461 0.324,-3.359 -6.048,-0.549 0.541,-5.644 9.307,0.795 -0.469,5.688 -0.32,3.371 -3.335,-0.302"
   id="08039"
   inkscape:label="Elbert, CO"
   inkscape:connector-curvature="0" />
  <path
   style="fill:#72b3dc;stroke:#c2dffb;stroke-width:1"
   d="m 46.07328,21.43728 0.83172,0.0837 0.649,0.064 2.587,0.266 5.413,0.427 2.091,0.186 -0.189,2.249 -0.072,-0.009 -9.307,-0.795 -3.818,-0.359 0.023,-0.722 0.013,-0.112 0,-0.018 0.01,0 1.653,0.009 0.181,-0.401 -0.072,-0.671 0.0102,-0.11178"
   id="08005"
   inkscape:label="Arapahoe, CO"
   inkscape:connector-curvature="0" />
  <path
   style="fill:#72b3dc;stroke:#c2dffb;stroke-width:1"
   d="m 55.631,5.847 4.615,0.378 -0.009,0.302 -0.298,3.578 -0.058,-0.004 -0.199,2.311 -1.113,-0.072 -1.226,-0.125 -3.155,-0.271 -0.608,6.774 -8.09196,-0.73174 0.0395,-0.31717 -0.41213,-0.0367 -0.0567,0.31881 -0.29879,-0.0212 0.297,-3.394 0.095,-1.127 1.077,0.1 0.121,-1.136 0.695,-7.253 8.586,0.727"
   id="08123"
   inkscape:label="Weld, CO"
   inkscape:connector-curvature="0" />
  <path
   style="fill:#72b3dc;stroke:#c2dffb;stroke-width:1"
   d="M 45.25974,17.97637 53.58,18.718 l 4.349,0.361 -0.284,3.385 -2.091,-0.186 -5.413,-0.427 -2.587,-0.266 -0.649,-0.064 -0.83046,-0.0921 0.94056,-0.93208 0.73422,0.016 0.077,-0.68606 -0.54709,-0.0619 -1.2371,0.92619 -1.54916,-0.062 0.154,-1.591 0.30131,-0.14305 0.0952,-0.67885 0.17766,0.0218"
   id="08001"
   inkscape:label="Adams, CO"
   inkscape:connector-curvature="0" />
  <path
   style="fill:#72b3dc;stroke:#c2dffb;stroke-width:1"
   d="m 44.493,20.629 1.54477,0.072 1.24833,-0.93238 0.53933,0.0673 -0.089,0.67046 -0.72206,-0.018 -0.93707,0.92993 -0.0103,0.21668 0.072,0.671 -0.181,0.401 -1.653,-0.009 0.04,-0.473 0.018,-0.186 0.13,-1.41"
   id="08031"
   inkscape:label="Denver, CO"
   inkscape:connector-curvature="0" />
  <path
   style="fill:#72b3dc;stroke:#c2dffb;stroke-width:1"
   d="m 44.259,23.55 3.818,0.359 -0.541,5.644 -3.664,-0.347 -2.921,-0.279 3.308,-5.377"
   id="08035"
   inkscape:label="Douglas, CO"
   inkscape:connector-curvature="0" />
  <path
   style="fill:#72b3dc;stroke:#c2dffb;stroke-width:1"
   d="m 53.26,33.461 -0.365,4.489 -8.861,-0.758 0.153,-1.685 0.108,-0.784 0.104,-1.118 -0.802,-1.013 0.216,-2.083 0.059,-1.303 3.664,0.347 6.048,0.549 -0.324,3.359"
   id="08041"
   inkscape:label="El Paso, CO"
   inkscape:connector-curvature="0" />
  <path
   style="fill:#72b3dc;stroke:#c2dffb;stroke-width:1"
   d="m 40.938,28.927 0.013,0 2.921,0.279 -0.059,1.303 -0.216,2.083 0.802,1.013 -0.104,1.118 -0.108,0.784 -1.672,-0.13 -1.298,-0.127 0.031,-0.311 -0.419,-0.37 -0.432,-0.049 0.541,-5.593"
   id="08119"
   inkscape:label="Teller, CO"
   inkscape:connector-curvature="0" />
  <path
   style="fill:#72b3dc;stroke:#c2dffb;stroke-width:1"
   d="m 44.034,37.192 8.861,0.758 -0.456,4.867 -0.482,5.332 -2.83,-1.325 -2.88,-1.343 -3.453,-0.09 -0.414,-0.32 -0.172,-0.163 0.429,-4.43 1.09,0.099 0.307,-3.385"
   id="08101"
   inkscape:label="Pueblo, CO"
   inkscape:connector-curvature="0" />
  <path
   style="fill:#72b3dc;stroke:#c2dffb;stroke-width:1"
   d="m 49.127,46.824 2.83,1.325 -0.072,1.177 6.608,0.545 3.317,0.252 -0.239,3.395 -0.081,-0.004 -0.293,3.321 -0.113,1.622 L 51.687,57.758 44.305,57.141 41.573,56.89 40,56.713 l 0.383,-3.854 0.392,0 3.854,-1.086 0.437,-0.347 1.83,-2.086 1.217,-1.799 1.014,-0.717"
   id="08071"
   inkscape:label="Las Animas, CO"
   inkscape:connector-curvature="0" />
  <path
   style="fill:#72b3dc;stroke:#c2dffb;stroke-width:1"
   d="m 37.927,44.746 0.541,0.136 0.054,-0.009 1.176,-0.307 1.573,-0.748 0.937,1.09 0.172,0.163 0.414,0.32 3.453,0.09 2.88,1.343 -1.014,0.717 -1.217,1.799 -1.83,2.086 -0.437,0.347 -3.854,1.086 -0.392,0 0.347,-1.518 -0.374,-2.606 -0.946,-0.676 -0.063,-0.013 -0.717,0.13 -0.758,0.275 -0.482,0.397 0.51,-2.218 0.027,-1.884"
   id="08055"
   inkscape:label="Huerfano, CO"
   inkscape:connector-curvature="0" />
  <path
   style="fill:#72b3dc;stroke:#c2dffb;stroke-width:1"
   d="m 34.497,51.439 2.893,-2.591 0.482,-0.397 0.758,-0.275 0.717,-0.13 0.063,0.013 0.946,0.676 0.374,2.606 -0.347,1.518 -0.383,3.854 -0.667,-0.064 -5.066,-0.513 -0.397,-0.442 -0.058,-0.139 -0.014,-0.118 0.064,-0.261 0.283,-0.487 0.203,-0.639 0.239,-1.555 -0.09,-1.056"
   id="08023"
   inkscape:label="Costilla, CO"
   inkscape:connector-curvature="0" />
  <path
   style="fill:#72b3dc;stroke:#c2dffb;stroke-width:1"
   d="m 31.558,50.56 2.939,0.879 0.09,1.056 -0.239,1.555 -0.203,0.639 -0.283,0.487 -0.064,0.261 0.014,0.118 0.058,0.139 0.397,0.442 -2.93,-0.302 -4.777,-0.491 -0.099,-0.293 -1.33,-2.777 -0.284,-0.198 0.257,-2.258 6.454,0.743"
   id="08021"
   inkscape:label="Conejos, CO"
   inkscape:connector-curvature="0" />
  <path
   style="fill:#72b3dc;stroke:#c2dffb;stroke-width:1"
   d="m 37.9,46.63 -0.51,2.218 -2.893,2.591 -2.939,-0.879 0.482,-4.494 5.86,0.564"
   id="08003"
   inkscape:label="Alamosa, CO"
   inkscape:connector-curvature="0" />
  <path
   style="fill:#72b3dc;stroke:#c2dffb;stroke-width:1"
   d="m 25.577,44.225 1.068,0.129 -0.117,1.118 5.512,0.594 -0.482,4.494 -6.454,-0.743 -0.329,-0.045 0.171,-1.524 0.361,-1.82 0.27,-2.203"
   id="08105"
   inkscape:label="Rio Grande, CO"
   inkscape:connector-curvature="0" />
  <path
   style="fill:#72b3dc;stroke:#c2dffb;stroke-width:1"
   d="m 35.168,39.64 2.497,0.265 2.056,0.276 2.916,0.297 -0.429,4.43 -0.937,-1.09 -1.573,0.748 -1.176,0.307 -0.054,0.009 -0.541,-0.136 -0.262,-0.392 -0.923,-1.514 -0.523,-1.528 -0.136,-0.284 -0.915,-1.388"
   id="08027"
   inkscape:label="Custer, CO"
   inkscape:connector-curvature="0" />
  <path
   style="fill:#72b3dc;stroke:#c2dffb;stroke-width:1"
   d="m 40.397,34.52 0.432,0.049 0.419,0.37 -0.031,0.311 1.298,0.127 1.672,0.13 -0.46,5.07 -1.09,-0.099 -2.916,-0.297 -2.056,-0.276 -2.497,-0.265 -1.888,-2.569 1.117,-0.775 0.294,-0.59 0.117,-0.488 0.004,-0.063 -0.049,-0.184 -0.293,-0.789 -0.032,-0.04 -0.18,-0.126 -0.235,-0.095 2.317,0.225 2.871,0.252 1.186,0.122"
   id="08043"
   inkscape:label="Fremont, CO"
   inkscape:connector-curvature="0" />
  <path
   style="fill:#72b3dc;stroke:#c2dffb;stroke-width:1"
   d="m 30.891,37.126 2.389,-0.055 1.888,2.569 0.915,1.388 0.136,0.284 0.523,1.528 0.923,1.514 0.262,0.392 -0.027,1.884 -5.86,-0.564 -5.512,-0.594 0.117,-1.118 -1.068,-0.129 -0.067,-0.529 -1.645,-1.32 -0.108,-0.086 -0.726,-0.189 -0.311,0.158 -0.045,0.05 0.284,-2.466 0.424,-3.597 7.508,0.88"
   id="08109"
   inkscape:label="Saguache, CO"
   inkscape:connector-curvature="0" />
  <path
   style="fill:#72b3dc;stroke:#c2dffb;stroke-width:1"
   d="m 28.507,28.557 3.822,0.442 0.054,0.248 0.563,1.319 0.406,0.163 0.05,0.005 0.053,-0.058 0.028,-0.059 0.067,-0.015 0.235,0.034 0.545,0.518 0.167,0.338 0.14,1.239 -0.347,0.914 -0.267,0.276 0.235,0.095 0.18,0.126 0.032,0.04 0.293,0.789 0.049,0.184 -0.004,0.063 -0.117,0.488 -0.294,0.59 -1.117,0.775 -2.389,0.055 -0.726,-1.007 -0.77,-2.144 -0.054,-0.473 0.346,-1.556 0.091,-0.193 0.09,-0.054 0.027,-1.231 -1.686,-1.162 0.298,-0.749"
   id="08015"
   inkscape:label="Chaffee, CO"
   inkscape:connector-curvature="0" />
  <path
   style="fill:#72b3dc;stroke:#c2dffb;stroke-width:1"
   d="m 20.75,25.059 0.086,0.762 0.189,0.361 0.613,0.785 2.001,0.233 0.136,0.019 0.608,0.716 -0.009,0.248 0.176,0.302 0.595,0.545 0.779,0.284 0.253,0.023 0.189,-0.095 0.388,-0.469 0.053,-0.208 0.469,-0.116 0.068,0.009 0.865,0.848 1.686,1.162 -0.027,1.231 -0.09,0.054 -0.091,0.193 -0.346,1.556 0.054,0.473 0.77,2.144 0.726,1.007 -7.508,-0.88 -0.424,3.597 -5.675,-0.681 -0.419,-2.078 1.348,0.167 0.568,-4.733 0.86,-7.088 1.109,-0.371"
   id="08051"
   inkscape:label="Gunnison, CO"
   inkscape:connector-curvature="0" />
  <path
   style="fill:#72b3dc;stroke:#c2dffb;stroke-width:1"
   d="m 23.684,23.974 6.752,0.82 -1.929,3.763 -0.298,0.749 -0.865,-0.848 -0.068,-0.009 -0.469,0.116 -0.053,0.208 -0.388,0.469 -0.189,0.095 L 25.924,29.314 25.145,29.03 24.55,28.485 24.374,28.183 24.383,27.935 23.775,27.219 23.639,27.2 21.638,26.967 21.025,26.182 20.836,25.821 20.75,25.059 20.561,23.6 l 3.123,0.374"
   id="08097"
   inkscape:label="Pitkin, CO"
   inkscape:connector-curvature="0" />
  <path
   style="fill:#72b3dc;stroke:#c2dffb;stroke-width:1"
   d="m 32.622,24.803 0.703,0.077 -0.194,0.202 -0.378,0.653 -0.072,0.388 -0.05,0.897 -0.009,0.929 -0.158,0.788 -0.135,0.262 -3.822,-0.442 1.929,-3.763 2.186,0.009"
   id="08065"
   inkscape:label="Lake, CO"
   inkscape:connector-curvature="0" />
  <path
   style="fill:#72b3dc;stroke:#c2dffb;stroke-width:1"
   d="m 40.82,23.212 -0.55,5.647 0.668,0.068 -0.541,5.593 -1.186,-0.122 -2.871,-0.252 -2.317,-0.225 0.267,-0.276 0.347,-0.914 -0.14,-1.239 -0.167,-0.338 -0.545,-0.518 -0.235,-0.034 -0.067,0.015 -0.028,0.059 -0.053,0.058 -0.05,-0.005 -0.406,-0.163 -0.563,-1.319 -0.054,-0.248 0.135,-0.262 0.158,-0.788 0.009,-0.929 0.05,-0.897 0.072,-0.388 0.378,-0.653 0.194,-0.202 1.145,0.297 1.726,-1.744 0.388,-0.636 4.236,0.415"
   id="08093"
   inkscape:label="Park, CO"
   inkscape:connector-curvature="0" />
  <path
   style="fill:#72b3dc;stroke:#c2dffb;stroke-width:1"
   d="m 44.647,19.038 -0.077,0.7955 -0.077,0.7955 -0.13,1.41 -0.018,0.186 -0.04,0.473 -0.01,0 0,0.018 -0.013,0.112 -0.023,0.722 -3.308,5.377 -0.013,0 -0.668,-0.068 0.55,-5.647 0.239,-2.339 0.217,-2.147 2.78496,0.26997 -0.0321,0.11822 0.37682,0.0378"
   id="08059"
   inkscape:label="Jefferson, CO"
   inkscape:connector-curvature="0" />
  <path
   style="fill:#72b3dc;stroke:#c2dffb;stroke-width:1"
   d="m 38.58,18.199 1.713,0.177 0.622,0.004 0.383,0.063 -0.022,0.283 -0.217,2.147 -1.424,-0.586 -0.262,-0.348 -0.477,-0.495 -0.564,-0.217 0.248,-1.028"
   id="08047"
   inkscape:label="Gilpin, CO"
   inkscape:connector-curvature="0" />
  <path
   style="fill:#72b3dc;stroke:#c2dffb;stroke-width:1"
   d="m 38.332,19.227 0.564,0.217 0.477,0.495 0.262,0.348 1.424,0.586 -0.239,2.339 -4.236,-0.415 0.581,-0.465 0.009,-0.071 -0.045,-0.258 -0.094,-0.094 -0.235,0.014 -0.879,-0.465 -0.139,-0.161 0.053,-0.33 0.194,-0.333 0.92,-0.681 0.59,-0.063 0.221,-0.094 0.496,-0.406 0.076,-0.163"
   id="08019"
   inkscape:label="Clear Creek, CO"
   inkscape:connector-curvature="0" />
  <path
   style="fill:#72b3dc;stroke:#c2dffb;stroke-width:1"
   d="m 31.157,17.51 0.383,0.049 1.587,0.578 0.942,0.775 0.351,0.5 0.104,0.568 0.032,0.519 0.266,0.486 0.288,0.099 0.505,-0.009 0.22,-0.108 -0.053,0.33 0.139,0.161 0.879,0.465 0.235,-0.014 0.094,0.094 0.045,0.258 -0.009,0.071 -0.581,0.465 -0.388,0.636 -1.726,1.744 -1.145,-0.297 -0.703,-0.077 -0.284,-1.88 -1.203,-4.359 -0.05,-0.382 0.072,-0.672"
   id="08117"
   inkscape:label="Summit, CO"
   inkscape:connector-curvature="0" />
  <path
   style="fill:#72b3dc;stroke:#c2dffb;stroke-width:1"
   d="m 29.282,17.303 1.875,0.207 -0.072,0.672 0.05,0.382 1.203,4.359 0.284,1.88 -2.186,-0.009 -6.752,-0.82 0.834,-7.144 0.803,0.1 3.961,0.373"
   id="08037"
   inkscape:label="Eagle, CO"
   inkscape:connector-curvature="0" />
  <path
   style="fill:#72b3dc;stroke:#c2dffb;stroke-width:1"
   d="m 38.58,18.199 0.654,-4.214 0.991,0.087 1.447,0.193 3.385,0.271 -0.297,3.394 -0.0833,0.7283 -0.34477,-0.0359 -0.25754,0.36691 -2.79837,-0.26326 0.022,-0.283 -0.383,-0.063 -0.622,-0.004 -1.713,-0.177"
   id="08013"
   inkscape:label="Boulder, CO"
   inkscape:connector-curvature="0" />
  <path
   style="fill:#72b3dc;stroke:#c2dffb;stroke-width:1"
   d="m 29.282,17.303 0.113,-0.969 0.437,-4.417 -0.041,-1.361 0.303,0.842 0.076,0.104 1.505,0.555 2.033,0.513 0.406,0.014 2.141,-0.104 0.721,-0.541 0.599,-1.077 1.659,3.123 -0.654,4.214 -0.248,1.028 -0.076,0.163 -0.496,0.406 -0.221,0.094 -0.59,0.063 -0.92,0.681 -0.194,0.333 -0.22,0.108 -0.505,0.009 -0.288,-0.099 -0.266,-0.486 -0.032,-0.519 -0.104,-0.568 -0.351,-0.5 -0.942,-0.775 -1.587,-0.578 -0.383,-0.049 -1.875,-0.207"
   id="08049"
   inkscape:label="Grand, CO"
   inkscape:connector-curvature="0" />
  <path
   style="fill:#72b3dc;stroke:#c2dffb;stroke-width:1"
   d="m 35.033,3.908 8.798,0.901 3.214,0.311 -0.695,7.253 -0.121,1.136 -1.077,-0.1 -0.095,1.127 L 41.672,14.265 40.225,14.072 39.234,13.985 37.575,10.862 37.089,9.712 36.719,8.041 36.273,6.86 36.16,6.64 35.222,5.071 35.033,3.908"
   id="08069"
   inkscape:label="Larimer, CO"
   inkscape:connector-curvature="0" />
  <path
   style="fill:#72b3dc;stroke:#c2dffb;stroke-width:1"
   d="m 28.629,3.134 5.151,0.625 1.253,0.149 0.189,1.163 0.938,1.569 0.113,0.22 0.446,1.181 0.37,1.671 0.486,1.15 -0.599,1.077 -0.721,0.541 -2.141,0.104 -0.406,-0.014 -2.033,-0.513 -1.505,-0.555 -0.076,-0.104 -0.303,-0.842 -0.099,-0.414 -0.18,-1.374 0.004,-0.47 0.663,-1.96 0.09,-0.046 L 30.436,6.13 30.468,5.959 30.459,5.774 30.256,5.211 30.138,5.039 29.963,4.858 29.291,4.485 29.219,4.453 29.165,4.494 29.016,4.574 28.561,4.143 28.439,3.705 28.431,3.502 28.584,3.173 28.629,3.134"
   id="08057"
   inkscape:label="Jackson, CO"
   inkscape:connector-curvature="0" />
  <path
   style="fill:#72b3dc;stroke:#c2dffb;stroke-width:1"
   d="m 24.202,2.613 4.427,0.521 -0.045,0.039 -0.153,0.329 0.008,0.203 0.122,0.438 0.455,0.431 0.149,-0.08 0.054,-0.041 0.072,0.032 0.672,0.373 0.175,0.181 0.118,0.172 0.203,0.563 0.009,0.185 -0.032,0.171 -0.167,0.162 -0.09,0.046 -0.663,1.96 -0.004,0.47 0.18,1.374 0.099,0.414 0.041,1.361 -0.437,4.417 -0.113,0.969 -3.961,-0.373 0.202,-2.237 0.199,-1.726 -3.904,-0.442 0.14,-1.437 0.46,-2.659 0.635,-0.632 0.32,-0.013 0.244,0.027 0.148,-1.209 0.437,-3.989"
   id="08107"
   inkscape:label="Routt, CO"
   inkscape:connector-curvature="0" />
  <path
   style="fill:#72b3dc;stroke:#c2dffb;stroke-width:1"
   d="m 18.429,1.916 5.773,0.697 -0.437,3.989 -0.148,1.209 -0.244,-0.027 -0.32,0.013 -0.635,0.632 -0.46,2.659 -0.14,1.437 -0.004,0.04 L 21.737,12.557 19.096,12.191 15.152,11.719 6.179,10.51 6.968,4.967 7.572,0.5 l 7.666,1.032 3.191,0.384"
   id="08081"
   inkscape:label="Moffat, CO"
   inkscape:connector-curvature="0" />
  <path
   style="fill:#72b3dc;stroke:#c2dffb;stroke-width:1"
   d="m 21.818,12.525 3.904,0.442 -0.199,1.726 -2.722,-0.31 -0.162,1.167 -0.126,1.099 -1.24,0.984 -2.889,-0.353 -2.064,-0.217 -0.212,1.687 -2.731,-0.361 -2.222,-0.085 -1.145,0.233 -3.335,-0.45 -0.036,-0.14 -1.465,-0.198 1.005,-7.239 8.973,1.209 3.944,0.472 2.641,0.366 0.077,0.008 0.004,-0.04"
   id="08103"
   inkscape:label="Rio Blanco, CO"
   inkscape:connector-curvature="0" />
  <path
   style="fill:#72b3dc;stroke:#c2dffb;stroke-width:1"
   d="m 25.523,14.693 -0.202,2.237 -0.803,-0.1 -0.834,7.144 -3.123,-0.374 -15.91,-2.07 0.235,-1.685 0.288,-2.096 1.465,0.198 0.036,0.14 3.335,0.45 1.145,-0.233 2.222,0.085 2.731,0.361 0.212,-1.687 2.064,0.217 2.889,0.353 1.24,-0.984 0.126,-1.099 0.162,-1.167 2.722,0.31"
   id="08045"
   inkscape:label="Garfield, CO"
   inkscape:connector-curvature="0" />
  <path
   style="fill:#72b3dc;stroke:#c2dffb;stroke-width:1"
   d="m 19.641,25.43 -0.86,7.088 -8.708,-1.094 0.27,-2.078 4.3,-2.47 1.181,-0.067 1.866,-0.083 0.482,-0.485 0.329,-0.212 1.14,-0.599"
   id="08029"
   inkscape:label="Delta, CO"
   inkscape:connector-curvature="0" />
  <path
   style="fill:#72b3dc;stroke:#c2dffb;stroke-width:1"
   d="m 4.651,21.53 15.91,2.07 0.189,1.459 -1.109,0.371 -1.14,0.599 -0.329,0.212 -0.482,0.485 -1.866,0.083 -1.181,0.067 -4.3,2.47 -0.27,2.078 -0.288,2.168 -6.761,-0.91 0.392,-2.831 0.388,-2.371 0.072,-0.496 0.342,-2.34 0.433,-3.114"
   id="08077"
   inkscape:label="Mesa, CO"
   inkscape:connector-curvature="0" />
  <path
   style="fill:#72b3dc;stroke:#c2dffb;stroke-width:1"
   d="m 10.073,31.424 8.708,1.094 -0.568,4.733 -1.348,-0.167 0.081,-0.302 -0.04,-0.085 -4.949,-0.619 -0.013,0.141 0.342,0.907 0.748,0.094 0.266,0.122 0.329,0.329 0.086,0.108 -0.081,0.581 -0.122,0.266 -0.189,-0.024 -10.741,-1.427 0.442,-4.493 6.761,0.91 0.288,-2.168"
   id="08085"
   inkscape:label="Montrose, CO"
   inkscape:connector-curvature="0" />
  <path
   style="fill:#72b3dc;stroke:#c2dffb;stroke-width:1"
   d="m 15.202,42.074 0.126,0.104 0.23,0.117 0.05,0 0.338,-0.104 0.153,-0.072 0.135,-0.122 0.005,-0.031 -0.032,-0.108 0,-0.068 0.059,-0.365 0.73,0.09 0.356,4.304 -4.926,-0.608 0.121,-0.357 0.361,-0.446 0.554,-0.103 0.257,-0.46 0.045,-0.247 1.438,-1.524"
   id="08111"
   inkscape:label="San Juan, CO"
   inkscape:connector-curvature="0" />
  <path
   style="fill:#72b3dc;stroke:#c2dffb;stroke-width:1"
   d="m 13.764,43.598 -0.045,0.247 -0.257,0.46 -0.554,0.103 -0.361,0.446 -0.121,0.357 -1.37,-0.167 -0.879,-0.049 -1.154,-0.127 -6.112,-0.81 -1.528,1.716 0.716,-5.101 2.219,0.31 0.04,-0.108 0.243,-0.045 5.391,0.726 0.153,0.256 0.054,0.208 0,0.234 0.144,0.311 1.583,-0.081 0.441,-0.131 0.248,0.095 0.645,0.519 0.504,0.631"
   id="08033"
   inkscape:label="Dolores, CO"
   inkscape:connector-curvature="0" />
  <path
   style="fill:#72b3dc;stroke:#c2dffb;stroke-width:1"
   d="m 2.582,37.175 10.741,1.427 -0.009,0.096 0.095,0.393 0.364,1.22 0.081,0.203 0.059,0.063 0.32,0.212 0.333,0.104 0.266,0.184 0.338,0.37 0.127,0.316 -0.054,0.243 -0.041,0.068 -1.438,1.524 -0.504,-0.631 -0.645,-0.519 -0.248,-0.095 -0.441,0.131 -1.583,0.081 -0.144,-0.311 0,-0.234 -0.054,-0.208 -0.153,-0.256 -5.391,-0.726 -0.243,0.045 -0.04,0.108 -2.219,-0.31 0.483,-3.498"
   id="08113"
   inkscape:label="San Miguel, CO"
   inkscape:connector-curvature="0" />
  <path
   style="fill:#72b3dc;stroke:#c2dffb;stroke-width:1"
   d="m 16.865,37.084 0.419,2.078 -0.288,2.353 -0.73,-0.09 -0.059,0.365 0,0.068 0.032,0.108 -0.005,0.031 -0.135,0.122 -0.153,0.072 -0.338,0.104 -0.05,0 -0.23,-0.117 -0.126,-0.104 0.041,-0.068 0.054,-0.243 -0.127,-0.316 -0.338,-0.37 -0.266,-0.184 -0.333,-0.104 -0.32,-0.212 -0.059,-0.063 -0.081,-0.203 -0.364,-1.22 -0.095,-0.393 0.009,-0.096 0.189,0.024 0.122,-0.266 0.081,-0.581 -0.086,-0.108 -0.329,-0.329 -0.266,-0.122 -0.748,-0.094 -0.342,-0.907 0.013,-0.141 4.949,0.619 0.04,0.085 -0.081,0.302"
   id="08091"
   inkscape:label="Ouray, CO"
   inkscape:connector-curvature="0" />
  <path
   style="fill:#72b3dc;stroke:#c2dffb;stroke-width:1"
   d="m 17.284,39.162 5.675,0.681 -0.284,2.466 -0.717,-0.073 -0.69,0.135 -0.382,2.862 -0.014,1.586 -0.288,2.223 -3.57,-0.423 0.338,-2.8 -0.356,-4.304 0.288,-2.353"
   id="08053"
   inkscape:label="Hinsdale, CO"
   inkscape:connector-curvature="0" />
  <path
   style="fill:#72b3dc;stroke:#c2dffb;stroke-width:1"
   d="m 22.675,42.309 0.045,-0.05 0.311,-0.158 0.726,0.189 0.108,0.086 1.645,1.32 0.067,0.529 -0.27,2.203 -0.361,1.82 -0.171,1.524 -0.009,0.104 -4.232,-0.438 0.05,-0.396 0.288,-2.223 0.014,-1.586 0.382,-2.862 0.69,-0.135 0.717,0.073"
   id="08079"
   inkscape:label="Mineral, CO"
   inkscape:connector-curvature="0" />
  <path
   style="fill:#72b3dc;stroke:#c2dffb;stroke-width:1"
   d="m 17.014,48.619 3.57,0.423 -0.05,0.396 4.232,0.438 0.009,-0.104 0.329,0.045 -0.257,2.258 0.284,0.198 1.33,2.777 0.099,0.293 -1.433,-0.154 -2.57,-0.283 -1.315,-0.253 -4.269,-0.505 -0.617,-0.076 0.658,-5.453"
   id="08007"
   inkscape:label="Archuleta, CO"
   inkscape:connector-curvature="0" />
  <path
   style="fill:#72b3dc;stroke:#c2dffb;stroke-width:1"
   d="m 44.02881,19.10897 0.0436,-0.11484 0.26141,-0.36823 0.35238,0.0396 0.0753,-0.73258 0.30095,0.0199 0.0553,-0.31691 0.40001,0.0356 -0.0317,0.32076 -0.22968,-0.0198 -0.0356,0.26135 -0.18216,-0.0198 -0.095,0.68111 -0.53063,0.24947 -0.38412,-0.0356"
   id="08014"
   inkscape:label="Broomfield, CO"
   inkscape:connector-curvature="0" />
  
  
  
  
  
  
  
  
  
  
  
  
  
  
  
  
  
  
  
  
  
  
  
  
  
  
  
  
  
  
  
  
  
  
  
  
  
  
  
  
  
  
  
  
  
  
  
  
  
  
  
  
  
  
  
  
  
  
  
  
  
  
  
  
  
  
  
  
  
  
  
  
  
  
  
  
  
  
  
  
  
  
  
  
  
  
  
  
  
  
  
  
  
  
  
  
  
  
  
  
  
  
  
  
  
  
  
  
  
  
  
  
  
  
  
  
  
  
  
  
  
  
  
  
  
  
  
  
  
  
  
  
  
  
  
  
  
  
  
  
  
  
  
  
  
  
  
  
  
  
  
  
  
  
  
  
  
  
  
  
  
  
  
  
  
  
  
  
  
  
  
  
  
  
  
  
  
  
  
  
  
  
  
  
  
  
  
  
  
  
  
  
  
  
  
  
  
  
  
  
  
  
  
  
  
  
  
  
  
  
  
  
  
  
  
  
  
  
  
  
  
  
  
  
  
  
  
  
  
  
  
  
  
  
  
  
  
  
  
  
  
  
  
  
  
  
  
  
  
  
  
  
  
  
  
  
  
  
  
  
  
  
  
  
  
  
  
  
  
  
  
  
  
  
  
  
  
  
  
  
  
  
  
  
  
  
  
  
  
  
  
  
  
  
  
  
  
  
  
  
  
  
  
  
  
  
  
  
  
  
  
  
  
  
  
  
  
  
  
  
  
  
  
  
  
  
  
  
  
  
  
  
  
  
  
  
  
  
  
  
  
  
  
  
  
  
  
  
  
  
  
  
  
  
  
  
  
  
  
  
  
  
  
  
  
  
  
  
  
  
  
  
  
  
  
  
  
  
  
  
  
  
  
  
  
  
  
  
  
  
  
  
  
  
  
  
  
  
  
  
  
  
  
  
  
  
  
  
  
  
  
  
  
  
  
  
  
  
  
  
  
  
  
  
  
  
  
  
  
  
  
  
  
  
  
  
  
  
  
  
  
  
  
  
  
  
  
  
  
  
  
  
  
  
  
  
  
  
  
  
  
  
  
  
  
  
  
  
  
  
  
  
  
  
  
  
  
  
  
  
  
  
  
  
  
  
  
  
  
  
  
  
  
  
  
  
  
  
  
  
  
  
  
  
  
  
  
  
  
  
  
  
  
  
  
  
  
  
  
  
  
  
  
  
  
  
  
  
  
  
  
  
  
  
  
  
  
  
  
  
  
  
  
  
  
  
  
  
  
  
  
  
  
  
  
  
  
  
  
  
  
  
  
  
  
  
  
  
  
  
  
  
  
  
  
  
  
  
  
  
  
  
  
  
  
  
  
  
  
  
  
  
  
  
  
  
  
  
  
  
  
  
  
  
  
  
  
  
  
  
  
  
  
  
  
  
  
  
  
  
  
  
  
  
  
  
  
  
  
  
  
  
  
  
  
  
  
  
  
  
  
  
  
  
  
  
  
  
  
  
  
  
  
  
  
  
  
  
  
  
  
  
  
  
  
  
  
  
  
  
  
  
  
  
  
  
  
  
  
  
  
  
  
  
  
  
  
  
  
  
  
  
  
  
  
  
  
  
  
  
  
  
  
  
  
  
  
  
  
  
  
  
  
  
  
  
  
  
  
  
  
  
  
  
  
  
  
  
  
  
  
  
  
  
  
  
  
  
  
  
  
  
  
  
  
  
  
  
  
  
  
  
  
  
  
  
  
  
  
  
  
  
  
  
  
  
  
  
  
  
  
  
  
  
  
  
  
  
  
  
  
  
  
  
  
  
  
  
  
  
  
  
  
  
  
  
  
  
  
  
  
  
  
  
  
  
  
  
  
  
  
  
  
  
  
  
  
  
  
  
  
  
  
  
  
  
  
  
  
  
  
  
  
  
  
  
  
  
  
  
  
  
  
  
  
  
  
  
  
  
  
  
  
  
  
  
  
  
  
  
  
  
  
  
  
  
  
  
  
  
  
  
  
  
  
  
  
  
  
  
  
  
  
  
  
  
  
  
  
  
  
  
  
  
  
  
  
  
  
  
  
  
  
  
  
  
  
  
  
  
  
  
  
  
  
  
  
  
  
  
  
  
  
  
  
  
  
  
  
  
  
  
  
  
  
  
  
  
  
  
  
  
  
  
  
  
  
  
  
  
  
  
  
  
  
  
  
  
  
  
  
  
  
  
  
  
  
  
  
  
  
  
  
  
  
  
  
  
  
  
  
  
  
  
  
  
  
  
  
  
  
  
  
  
  
  
  
  
  
  
  
  
  
  
  
  
  
  
  
  
  
  
  
  
  
  
  
  
  
  
  
  
  
  
  
  
  
  
  
  
  
  
  
  
  
  
  
  
  
  
  
  
  
  
  
  
  
  
  
  
  
  
  
  
  
  
  
  
  
  
  
  
  
  
  
  
  
  
  
  
  
  
  
  
  
  
  
  
  
  
  
  
  
  
  
  
  
  
  
  
  
  
  
  
  
  
  
  
  
  
  
  
  
  
  
  
  
  
  
  
  
  
  
  
  
  
  
  
  
  
  
  
  
  
  
  
  
  
  
  
  
  
  
  
  
  
  
  
  
  
  
  
  
  
  
  
  
  
  
  
  
  
  
  
  
  
  
  
  
  
  
  
  
  
  
  
  
  
  
  
  
  
  
  
  
  
  
  
  
  
  
  
  
  
  
  
  
  
  
  
  
  
  
  
  
  
  
  
  
  
  
  
  
  
  
  
  
  
  
  
  
  
  
  
  
  
  
  
  
  
  
  
  
  
  
  
  
  
  
  
  
  
  
  
  
  
  
  
  
  
  
  
  
  
  
  
  
  
  
  
  
  
  
  
  
  
  
  
  
  
  
  
  
  
  
  
  
  
  
  
  
  
  
  
  
  
  
  
  
  
  
  
  
  
  
  
  
  
  
  
  
  
  
  
  
  
  
  
  
  
  
  
  
  
  
  
  
  
  
  
  
  
  
  
  
  
  
  
  
  
  
  
  
  
  
  
  
  
  
  
  
  
  
  
  
  
  
  
  
  
  
  
  
  
  
  
  
  
  
  
  
  
  
  
  
  
  
  
  
  
  
  
  
  
  
  
  
  
  
  
  
  
  
  
  
  
  
  
  
  
  
  
  
  
  
  
  
  
  
  
  
  
  
  
  
  
  
  
  
  
  
  
  
  
  
  
  
  
  
  
  
  
  
  
  
  
  
  
  
  
  
  
  
  
  
  
  
  
  
  
  
  
  
  
  
  
  
  
  
  
  
  
  
  
  
  
  
  
  
  
  
  
  
  
  
  
  
  
  
  
  
  
  
  
  
  
  
  
  
  
  
  
  
  
  
  
  
  
  
  
  
  
  
  
  
  
  
  
  
  
  
  
  
  
  
  
  
  
  
  
  
  
  
  
  
  
  
  
  
  
  
  
  
  
  
  
  
  
  
  
  
  
  
  
  
  
  
  
  
  
  
  
  
  
  
  
  
  
  
  
  
  
  
  
  
  
  
  
  
  
  
  
  
  
  
  
  
  
  
  
  
  
  
  
  
  
  
  
  
  
  
  
  
  
  
  
  
  
  
  
  
  
  
  
  
  
  
  
  
  
  
  
  
  
  
  
  
  
  
  
  
  
  
  
  
  
  
  
  
  
  
  
  
  
  
  
  
  
  
  
  
  
  
  
  
  
  
  
  
  
  
  
  
  
  
  
  
  
  
  
  
  
  
  
  
  
  
  
  
  
  
  
  
  
  
  
  
  
  
  
  
  
  
  
  
  
  
  
  
  
  
  
  
  
  
  
  
  
  
  
  
  
  
  
  
  
  
  
  
  
  
  
  
  
  
  
  
  
  
  
  
  
  
  
  
  
  
  
  
  
  
  
  
  
  
  
  
  
  
  
  
  
  
  
  
  
  
  
  
  
  
  
  
  
  
  
  
  
  
  
  
  
  
  
  
  
  
  
  
  
  
  
  
  
  
  
  
  
  
  
  
  
  
  
  
  
  
  
  
  
  
  
  
  
  
  
  
  
  
  
  
  
  
  
  
  
  
  
  
  
  
  
  
  
  
  
  
  
  
  
  
  
  
  
  
  
  
  
  
  
  
  
  
  
  
  
  
  
  
  
  
  
  
  
  
  
  
  
  
  
  
  
  
  
  
  
  
  
  
  
  
  
  
  
  
  
  
  
  
  
  
  
  
  
  
  
  
  
  
  
  
  
  
  
  
  
  
  
  
  
  
  
  
  
  
  
  
  
  
  
  
  
  
  
  
  
  
  
  
  
  
  
  
  
  
  
  
  
  
  
  
  
  
  
  
  
  
  
  
  
  
  
  
  
  
  
  
  
  
  
  
  
  
  
  
  
  
  
  
  
  
  
  
  
  
  
  
  
  
  
  
  
  
  
  
  
  
  
  
  
  
  
  
  
  
  
  
  
  
  
  
  
  
  
  
  
  
  
  
  
  
  
  
  
  
  
  
  
  
  
  
  
  
  
  
  
  
  
  
  
  
  
  
  
  
  
  
  
  
  
  
  
  
  
  
  
  
  
  
  
  
  
  
  
  
  
  
  
  
  
  
  
  
  
  
  
  
  
  
  
  
  
  
  
  
  
  
  
  
  
  
  
  
  
  
  
  
  
  
  
  
  
  
  
  
  
  
  
  
  
  
  
  
  
  
  
  
  
  
  
  
  
  
  
  
  
  
  
  
  
  
  
  
  
  
  
  
  
  
  
  
  
  
  
  
  
  
  
  
  
  
  
  
  
  
  
  
  
  
  
  
  
  
  
  
  
  
  
  
  
  
  
  
  
  
  
  
  
  
  
  
  
  
  
  
  
  
  
  
  
  
  
  
  
  
  
  
  
  
  
  
  
  
  
  
  
  
  
  
  
  
  
  
  
  
  
  
  
  
  
  
  
  
  
  
  
  
  
  
  
  
  
  
  
  
  
  
  
  
  
  
  
  
  
  
  
  
  
  
  
  
  
  
  
  
  
  
  
  
  
  
  
  
  
  
  
  
  
  
  
  
  
  
  
  
  
  
  
  
  
  
  
  
  
  
  
  
  
  
  
  
  
  
  
  
  
  
  
  
  
  
  
  
  
  
  
  
  
  
  
  
  
  
  
  
  
  
  
  
  
  
  
  
  
  
  
  
  
  
  
  
  
  
  
  
  
  
  
  
  
  
  
  
  
  
  
  
  
  
  
  
  
  
  
  
  
  
  
  
  
  
  
  
  
  
  
  
  
  
  
  
  
  
  
  
  
  
  
  
  
  
  
  
  
  
  
  
  
  
  
  
  
  
  
  
  
  
  
  
  
  
  
  
  
  
  
  
  
  
  
  
  
  
  
  
  
  
  
  
  
  
  
  
  
  
  
  
  
  
  
  
  
  
  
  
  
  
  
  
  
  
  
  
  
  
  
  
  
  
  
  
  
  
  
  
  
  
  
  
  
  
  
  
  
  
  
  
  
  
  
  
  
  
  
  
  
  
  
  
  
  
  
  
  
  
  
  
  
  
  
  
  
  
  
  
  
  
  
  
  
  
  
  
  
  
  
  
  
  
  
  
  
  
  
  
  
  
  
  
  
  
  
  
  
  
  
  
  
  
  
  
  
  
  
  
  
  
  
  
  
  
  
  
  
  
  
  
  
  
  
  
  
  
  
  
  
  
  
  
  
  
  
  
  
  
  
  
  
  
  
  
  
  
  
  
  
  
  
  
  
  
  
  
  
  
  
  
  
  
  
  
  
  
  
  
  
  
  
  
  
  
  
  
  
  
  
  
  
  
  
  
  
  
  
  
  
  
  
  
  
  
  
  
  
  
  
  
  
  
  
  
  
  
  
  
  
  
  
  
  
  
  
  
  
  
  
  
  
  
  
  
  
  
  
  
  
  
  
  
  
  
  
  
  
  
  
  
  
  
  
  
  
  
  
  
  
  
  
  
  
  
  
  
  
  
  
  
  
  
  
  
  
  
  
  
  
  
  
  
  
  
  
  
  
  
  
  
  
  
  
  
  
  
  
  
  
  
  
  
  
  
  
  
  
  
  
  
  
  
  
  
  
  
  
  
  
  
  
  
  
  
  
  
  
  
  
  
  
  
  
  
  
  
  
  
  
  
  
  
  
  
  
  
  
  
  
  
  
  
  
  
  
  
  
  
  
  
  
  
  
  
  
  
  
  
  
  
  
  
  
  
  
  
  
  
  
  
  
  
  
  
  
  
  
  
  
  
  
  
  
  
  
  
  
  
  
  
  
  
  
  
  
  
  
  
  
  
  
  
  
  
  
  
  
  
  
  
  
  
  
  
  
  
  
  
  
  
  
  
  
  
  
  
  
  
  
  
  
  
  
  
  
  
  
  
  
  
  
  
  
  
  
  
  
  
  
  
  
  
  
  
  
  
  
  
  
  
</svg>