<?xml version="1.0" encoding="UTF-8" standalone="no"?>
<!--?xml version="1.0" encoding="UTF-8" standalone="no"?-->

<svg
   xmlns:dc="http://purl.org/dc/elements/1.1/"
   xmlns:cc="http://creativecommons.org/ns#"
   xmlns:rdf="http://www.w3.org/1999/02/22-rdf-syntax-ns#"
   xmlns:svg="http://www.w3.org/2000/svg"
   xmlns="http://www.w3.org/2000/svg"
   xmlns:sodipodi="http://sodipodi.sourceforge.net/DTD/sodipodi-0.dtd"
   xmlns:inkscape="http://www.inkscape.org/namespaces/inkscape"
   width="101.99382"
   height="86.823479"
   viewBox="0 0 94.280002 79.309908"
   preserveAspectRatio="xMinYMin meet"
   xml:space="preserve"
   id="svg392"
   version="1.1"
   inkscape:version="0.48.2 r9819"
   sodipodi:docname="FL.svg"><metadata
   id="metadata465"><rdf:RDF><cc:Work
       rdf:about=""><dc:format>image/svg+xml</dc:format><dc:type
         rdf:resource="http://purl.org/dc/dcmitype/StillImage" /></cc:Work></rdf:RDF></metadata><defs
   id="defs463" /><sodipodi:namedview
   pagecolor="#ffffff"
   bordercolor="#666666"
   borderopacity="1"
   objecttolerance="10"
   gridtolerance="10"
   guidetolerance="10"
   inkscape:pageopacity="0"
   inkscape:pageshadow="2"
   inkscape:window-width="640"
   inkscape:window-height="480"
   id="namedview461"
   showgrid="false"
   inkscape:zoom="0.56730769"
   inkscape:cx="-119.44136"
   inkscape:cy="155.88469"
   inkscape:window-x="0"
   inkscape:window-y="0"
   inkscape:window-maximized="0"
   inkscape:current-layer="svg392" />
  
  
  
  
  
  
  
  
  
  
  
  
  
  
  
  
  
  
  
  
  
  
  
  
  
  
  
  
  
  
  
  
  
  
  
  
  
  
  
  
  
  
  
  
  
  
  
  
  
  
  
  
  
  
  
  
  
  
  
  
  
  
  
  
  
  
  
  
  
  
  
  
  
  
  
  
  
  
  
  
  
  
  
  
  
  
  
  
  
  
  
  
  
  
  
  
  
  
  
  
  
  
  
  
  
  
  
  
  
  
  
  
  
  
  
  
  
  
  
  
  
  
  
  
  
  
  
  
  
  
  
  
  
  
  
  
  
  
  
  
  
  
  
  
  
  
  
  
  
  
  
  
  
  
  
  
  
  
  
  
  
  
  
  
  
  
  
  
  
  
  
  
  
  
  
  
  
  
  
  
  
  
  
  
  
  
  
  
  
  
  
  
  
  
  
  
  
  
  
  
  
  
  
  
  
  
  
  
  
  
  
  
  
  
  
  
  
  
  
  
  
  
  
  
  
  
  
  
  
  
  
  
  
  
  
  
  
  
  
  
  
  
  
  
  
  
  
  
  
  
  
  
  
  
  
  
  
  
  
  
  
  
  
  
  
  
  
  
  
  
  
  
  
  
  
  
  
  
  
  
  
  
  
  
  
  
  
  
  
  
  
  
  
  
  
  
  
  
  
  
  
  
  
  
  
  
  
  
  
  
  
  
  
  
  
  
  
  <path
   style="fill:#72b3dc;stroke:#c2dffb;stroke-width:1"
   d="m 25.704,8.762 0.465,4.687 0.411,3.543 -1.16,-0.352 -0.252,-0.104 -0.081,-0.053 -0.306,-0.218 -0.387,-0.356 -2.44,-1.415 -0.179,-0.098 -0.127,-0.072 -0.121,-0.068 -0.195,-0.095 -0.422,-0.216 -0.177,-0.086 -0.144,-0.068 -0.172,-0.071 -0.207,-0.096 -0.184,-0.066 -0.667,-0.244 -0.131,-1.546 0.274,-0.302 1.195,-0.518 3.376,-0.325 0.671,-0.073 -0.166,-1.671 0.563,-0.063 0.563,-0.054"
   id="12005"
   inkscape:label="Bay, FL"
   inkscape:connector-curvature="0" />
  <path
   style="fill:#72b3dc;stroke:#c2dffb;stroke-width:1"
   d="M 23.943,3.375 29.27,2.727 31.216,6.251 30.626,7.684 28.81,7.882 28.026,8.469 27.187,8.608 25.704,8.762 25.141,8.816 24.862,6.022 24.01,5.543 22.955,5.648 23.833,3.394 23.943,3.375"
   id="12063"
   inkscape:label="Jackson, FL"
   inkscape:connector-curvature="0" />
  <path
   style="fill:#72b3dc;stroke:#c2dffb;stroke-width:1"
   d="m 68.959,48.879 5.665,-0.869 0.469,3.335 -5.695,0.847 0.02,-0.414 -0.126,-0.708 -0.203,-1.006 -0.04,-0.139 -0.167,-0.082 -0.36,0.064 -0.099,0.058 -0.542,0.479 -0.057,0.089 0.261,1.776 -0.032,0.055 -0.495,0.081 -0.132,-0.119 -0.031,0 -0.072,0.123 -0.073,0.249 -0.157,0.008 -0.054,-0.176 -0.054,-0.166 -0.027,-0.05 -0.005,-0.009 -1.483,-1.804 1.38,-0.193 -0.104,-0.757 -0.053,-0.352 2.266,-0.32"
   id="12015"
   inkscape:label="Charlotte, FL"
   inkscape:connector-curvature="0" />
  <path
   style="fill:#72b3dc;stroke:#c2dffb;stroke-width:1"
   id="12071"
   d="m 67.29,53.364 1.277,2.406 0.154,0.144 0.215,0.122 0.744,0.18 0.112,-0.157 0.159,-0.076 0.594,0.117 0,0.026 -0.518,0.424 -0.13,0.064 -0.09,0.012 -0.181,-0.012 -0.352,-0.095 -0.589,-0.316 -0.055,-0.045 -0.053,-0.049 -0.091,-0.159 -1.19,-2.194 -0.006,-0.392 m 2.108,-1.172 5.695,-0.847 0.523,3.23 0.194,1.141 -0.901,1.492 -1.858,0.297 -0.329,-0.12 -0.365,-0.578 -0.585,-0.541 -1.272,-0.816 -1.262,-1.884 0.16,-1.374"
   inkscape:label="Lee, FL"
   inkscape:connector-curvature="0" />
  <path
   style="fill:#72b3dc;stroke:#c2dffb;stroke-width:1"
   d="m 75.093,51.345 4.529,-0.686 2.597,-0.418 0.302,-2.507 1.316,7.87 0.161,0.933 -4.47,0.788 -0.369,-2.127 -0.19,-1.19 -3.353,0.567 -0.523,-3.23"
   id="12051"
   inkscape:label="Hendry, FL"
   inkscape:connector-curvature="0" />
  <path
   style="fill:#72b3dc;stroke:#c2dffb;stroke-width:1"
   d="m 83.998,56.537 0.645,3.51 0.352,2.183 -5.462,0.896 -0.081,-0.162 -0.054,-0.058 -0.542,-0.303 -0.292,-0.121 -0.086,-0.027 -1.123,-0.239 -0.139,0 -1.347,0.251 -0.109,0.073 -0.095,0.118 -0.013,0.135 -0.032,0.243 -0.044,0.154 -0.081,-0.009 -0.064,-0.064 -0.734,-1.037 -1.014,-1.73 -0.123,-0.474 -0.08,-0.32 -0.298,-1.045 -0.252,-0.708 -0.194,-0.396 -0.014,-0.022 0.329,0.12 1.858,-0.297 0.901,-1.492 -0.194,-1.141 3.353,-0.567 0.19,1.19 0.369,2.127 4.47,-0.788"
   id="12021"
   inkscape:label="Collier, FL"
   inkscape:connector-curvature="0" />
  <path
   style="fill:#72b3dc;stroke:#c2dffb;stroke-width:1"
   id="12087"
   d="m 88.971,73.443 -0.132,0.28 -0.472,0.423 -0.469,0.405 -0.569,0.208 -0.048,0.013 0,-0.004 -0.01,-0.009 0.05,-0.059 0.555,-0.554 1.004,-0.761 0.091,0.058 m 4.29,-6.644 -0.072,0.051 -0.166,0.314 -0.699,1.794 -0.02,0.081 0.083,0.185 -0.072,0.203 -0.167,0.334 -1.848,2.52 -0.057,0.067 -0.916,0.874 -0.028,-0.027 0,-0.009 0.005,-0.059 0.369,-0.564 0.257,-0.225 0.538,-0.621 0.351,-0.424 0.617,-0.932 0.103,-0.19 0.664,-1.406 0.788,-2.023 0.27,0.057 m -7.247,8.852 -0.51,0.465 -0.68,0.464 -0.338,0.099 -0.194,-0.148 -0.027,-0.025 -0.022,-0.038 0.996,-0.563 1.379,-0.767 0.008,0.013 0.064,0.135 -0.059,0.073 -0.617,0.292 m -7.054,2.272 0.009,-0.136 0.163,-0.328 1.572,-0.816 0.446,0.076 0.826,0.194 0.338,0.519 0,0.031 -0.05,0.041 -0.113,0.071 -0.212,0.136 -0.698,0.343 -4.457,1.636 -0.285,0.067 -0.031,-0.017 -0.051,-0.212 0.024,-0.081 0.172,-0.237 0.536,-0.134 0.103,-0.012 0.067,0.067 0.051,0.018 0.41,-0.19 0.171,-0.098 0.446,-0.375 0.563,-0.563 m 6.035,-15.693 0.887,5.548 0.524,2.122 0.122,0.175 0.009,0.005 -0.704,0.568 -0.937,0.371 -0.934,0.22 -0.188,-0.077 -0.514,-0.297 -0.103,-0.082 -0.479,-0.675 -0.031,-0.298 0.018,-0.568 0.049,-0.455 0.028,-0.108 0.077,-0.122 0.067,-0.036 0.153,0.031 0.026,-0.085 -0.008,-0.126 -0.814,-1.271 -1.335,-2.033 -1.375,-1.911 5.462,-0.896"
   inkscape:label="Monroe, FL"
   inkscape:connector-curvature="0" />
  <path
   style="fill:#72b3dc;stroke:#c2dffb;stroke-width:1"
   id="12086"
   d="m 93.261,66.799 -0.27,-0.057 0.122,-0.596 0.441,-1.483 0.086,-0.158 0.054,0 0.086,0.442 -0.203,0.947 -0.316,0.905 m -8.618,-6.752 1.118,-0.176 1.163,0.095 2.78,-0.455 1.66,-0.36 0.356,-0.158 0.374,-0.077 0.45,-0.085 0.843,-0.168 0.011,0.033 0.116,0.712 0.135,0.942 0.022,0.293 0.028,0.585 -0.064,0.293 -0.055,0.132 -0.233,0.193 -0.095,-0.101 -0.153,-0.071 -0.148,0.042 -0.338,0.206 -0.114,0.127 -0.031,0.099 -0.595,2.474 -0.052,0.437 0.044,0.263 0.323,0.986 0.077,0.072 0.122,0 0.054,0.064 -0.018,0.143 -0.22,0.483 -0.488,0.73 -0.027,0.03 -0.306,0.344 -0.649,0.712 -1.504,0.753 -0.335,0.162 -0.45,0.126 -0.74,0.131 L 86.537,70.08 86.528,70.075 86.406,69.9 85.882,67.778 84.995,62.23 84.643,60.047"
   inkscape:label="Miami-Dade, FL"
   inkscape:connector-curvature="0" />
  <path
   style="fill:#72b3dc;stroke:#c2dffb;stroke-width:1"
   d="m 83.837,55.604 6.72,-1.11 0.55,-0.089 2.042,-0.171 0.238,4.429 -0.843,0.168 -0.45,0.085 -0.374,0.077 -0.356,0.158 -1.66,0.36 -2.78,0.455 -1.163,-0.095 -1.118,0.176 -0.645,-3.51 -0.161,-0.933"
   id="12011"
   inkscape:label="Broward, FL"
   inkscape:connector-curvature="0" />
  <path
   style="fill:#72b3dc;stroke:#c2dffb;stroke-width:1"
   d="m 82.521,47.734 5.733,-0.929 0.117,-0.018 2.661,-0.419 0.683,-0.296 0.203,0.446 0.221,0.474 0.193,0.418 0.302,0.761 0.19,1.204 0.157,1.117 0.055,0.55 0.13,2.989 -0.017,0.203 -2.042,0.171 -0.55,0.089 -6.72,1.11 -1.316,-7.87"
   id="12099"
   inkscape:label="Palm Beach, FL"
   inkscape:connector-curvature="0" />
  <path
   style="fill:#72b3dc;stroke:#c2dffb;stroke-width:1"
   d="m 68.642,46.658 0.317,2.221 -2.266,0.32 0.053,0.352 0.104,0.757 -1.38,0.193 -2.036,-3.082 -0.121,-0.168 -0.173,-0.232 -0.107,-0.151 -0.515,-0.635 -0.292,-0.296 -0.613,-0.614 4.465,-0.595 0.312,2.245 2.252,-0.315"
   id="12115"
   inkscape:label="Sarasota, FL"
   inkscape:connector-curvature="0" />
  <path
   style="fill:#72b3dc;stroke:#c2dffb;stroke-width:1"
   d="m 74.021,44.128 0.603,3.882 -5.665,0.869 -0.55,-3.871 2.249,-0.316 1.24,-0.23 2.123,-0.334"
   id="12027"
   inkscape:label="DeSoto, FL"
   inkscape:connector-curvature="0" />
  <path
   style="fill:#72b3dc;stroke:#c2dffb;stroke-width:1"
   d="m 81.354,44.664 1.167,3.07 -0.302,2.507 -2.597,0.418 -4.529,0.686 -0.469,-3.335 3.385,-0.51 -0.181,-1.118 0.952,-1.298 2.574,-0.42"
   id="12043"
   inkscape:label="Glades, FL"
   inkscape:connector-curvature="0" />
  <path
   style="fill:#72b3dc;stroke:#c2dffb;stroke-width:1"
   d="m 89.728,42.615 1.987,3.457 -0.683,0.296 -2.661,0.419 -0.117,0.018 -5.733,0.929 1.871,-3.497 2.987,-0.492 1.488,-0.247 -0.113,-0.726 0.974,-0.157"
   id="12085"
   inkscape:label="Martin, FL"
   inkscape:connector-curvature="0" />
  <path
   style="fill:#72b3dc;stroke:#c2dffb;stroke-width:1"
   d="m 83.648,39.793 4.069,-0.659 2.011,3.481 -0.974,0.157 0.113,0.726 -1.488,0.247 -2.987,0.492 -0.744,-4.444"
   id="12111"
   inkscape:label="St. Lucie, FL"
   inkscape:connector-curvature="0" />
  <path
   style="fill:#72b3dc;stroke:#c2dffb;stroke-width:1"
   d="m 80.962,36.8 4.074,-0.653 0.563,-0.523 0.059,-0.081 2.059,3.591 -4.069,0.659 -1.11,0.176 -0.179,-1.068 -1.082,0.184 -0.315,-2.285"
   id="12061"
   inkscape:label="Indian River, FL"
   inkscape:connector-curvature="0" />
  <path
   style="fill:#72b3dc;stroke:#c2dffb;stroke-width:1"
   d="m 78.221,39.563 3.056,-0.478 1.082,-0.184 0.179,1.068 1.11,-0.176 0.744,4.444 -1.871,3.497 -1.167,-3.07 -0.974,-0.972 -1.135,-0.876 -1.25,-2.117 0.226,-1.136"
   id="12093"
   inkscape:label="Okeechobee, FL"
   inkscape:connector-curvature="0" />
  <path
   style="fill:#72b3dc;stroke:#c2dffb;stroke-width:1"
   d="m 73.43,40.261 4.791,-0.698 -0.226,1.136 1.25,2.117 1.135,0.876 0.974,0.972 -2.574,0.42 -0.952,1.298 0.181,1.118 -3.385,0.51 -0.603,-3.882 -0.591,-3.867"
   id="12055"
   inkscape:label="Highlands, FL"
   inkscape:connector-curvature="0" />
  <path
   style="fill:#72b3dc;stroke:#c2dffb;stroke-width:1"
   d="m 67.85,41.105 5.58,-0.844 0.591,3.867 -2.123,0.334 -1.24,0.23 -2.249,0.316 -0.559,-3.903"
   id="12049"
   inkscape:label="Hardee, FL"
   inkscape:connector-curvature="0" />
  <path
   style="fill:#72b3dc;stroke:#c2dffb;stroke-width:1"
   d="m 62.162,41.948 5.688,-0.843 0.559,3.903 0.233,1.65 -2.252,0.315 -0.312,-2.245 -4.465,0.595 -0.65,-0.613 -0.365,-0.672 0.298,-0.139 0.389,-0.253 0.755,-1.212 0.045,-0.095 0.077,-0.391"
   id="12081"
   inkscape:label="Manatee, FL"
   inkscape:connector-curvature="0" />
  <path
   style="fill:#72b3dc;stroke:#c2dffb;stroke-width:1"
   d="m 60.112,35.408 0.405,2.619 -0.762,0.211 -0.04,0.037 -0.027,0.102 0.067,0.145 0.131,0.085 1.231,0.536 0.46,-0.197 0.058,0.324 -0.148,0.555 -0.951,2.434 -0.574,-0.799 -1.225,-3.078 0.008,-0.027 0.054,-0.667 0.032,-0.581 -0.108,-0.915 -0.094,-0.211 -0.059,-0.087 -0.199,-0.23 1.741,-0.256"
   id="12103"
   inkscape:label="Pinellas, FL"
   inkscape:connector-curvature="0" />
  <path
   style="fill:#72b3dc;stroke:#c2dffb;stroke-width:1"
   d="m 60.112,35.408 6.171,-0.871 0.562,-0.081 0.6,3.881 0.405,2.768 -5.688,0.843 1.145,-1.708 0.022,-0.05 0.253,-0.614 0.058,-0.329 -0.185,-0.559 -0.162,-0.215 -1.708,-0.605 -0.41,0.005 -0.338,0.064 -0.32,0.09 -0.405,-2.619"
   id="12057"
   inkscape:label="Hillsborough, FL"
   inkscape:connector-curvature="0" />
  <path
   style="fill:#72b3dc;stroke:#c2dffb;stroke-width:1"
   d="m 59.233,28.783 2.559,-0.371 0.06,0.365 1.739,-0.275 0.023,0.253 0.153,0.208 0.455,0.509 0.234,0.14 1.449,0.359 0.378,0.591 -2.237,0.325 0.081,0.555 -4.358,0.644 -0.433,0.063 -0.103,-3.366"
   id="12053"
   inkscape:label="Hernando, FL"
   inkscape:connector-curvature="0" />
  <path
   style="fill:#72b3dc;stroke:#c2dffb;stroke-width:1"
   d="m 66.283,30.562 0.301,2.113 -0.301,1.862 -6.171,0.871 -1.741,0.256 0.965,-3.515 0.433,-0.063 4.358,-0.644 -0.081,-0.555 2.237,-0.325"
   id="12101"
   inkscape:label="Pasco, FL"
   inkscape:connector-curvature="0" />
  <path
   style="fill:#72b3dc;stroke:#c2dffb;stroke-width:1"
   d="m 71.015,31.554 8.946,-1.402 0.221,1.275 0.315,2.047 -0.072,0.014 0.537,3.312 0.315,2.285 -3.056,0.478 -0.099,-0.45 -0.081,-0.317 -0.587,-0.874 -0.337,-0.481 -2.511,-2.299 -0.802,-0.623 -2.619,-1.852 -0.17,-1.113"
   id="12097"
   inkscape:label="Osceola, FL"
   inkscape:connector-curvature="0" />
  <path
   style="fill:#72b3dc;stroke:#c2dffb;stroke-width:1"
   d="m 71.015,31.554 0.17,1.113 2.619,1.852 0.802,0.623 2.511,2.299 0.337,0.481 0.587,0.874 0.081,0.317 0.099,0.45 -4.791,0.698 -5.58,0.844 -0.405,-2.768 -0.6,-3.881 -0.562,0.081 0.301,-1.862 1.044,-0.585 3.387,-0.536"
   id="12105"
   inkscape:label="Polk, FL"
   inkscape:connector-curvature="0" />
  <path
   style="fill:#72b3dc;stroke:#c2dffb;stroke-width:1"
   d="m 72.899,25.576 -0.362,1.042 0.041,0.285 0.586,0.517 1.095,0.222 3.768,-0.631 1.934,3.141 -8.946,1.402 -0.849,-5.472 0.109,-0.103 0.108,-0.024 0.158,-0.021 2.358,-0.358"
   id="12095"
   inkscape:label="Orandge, FL"
   inkscape:connector-curvature="0" />
  <path
   style="fill:#72b3dc;stroke:#c2dffb;stroke-width:1"
   d="m 72.899,25.576 0.342,-1.269 0.613,0.481 1.456,0.329 0.238,0.042 0.068,-0.009 0.37,-0.177 0.112,-0.252 0.829,0.694 0.37,0.465 0.73,1.131 -3.768,0.631 -1.095,-0.222 -0.586,-0.517 -0.041,-0.285 0.362,-1.042"
   id="12117"
   inkscape:label="Seminole, FL"
   inkscape:connector-curvature="0" />
  <path
   style="fill:#72b3dc;stroke:#c2dffb;stroke-width:1"
   d="m 69.391,19.728 2.064,2.073 0.759,0.504 0.472,0.257 0.455,0.351 0.027,0.037 0.136,0.658 -0.063,0.699 -0.342,1.269 -2.358,0.358 -0.158,0.021 -0.108,0.024 -0.109,0.103 0.849,5.472 -3.387,0.536 -1.121,-7.81 3.309,-0.5 0.021,-1.335 -0.446,-2.717"
   id="12069"
   inkscape:label="Lake, FL"
   inkscape:connector-curvature="0" />
  <path
   style="fill:#72b3dc;stroke:#c2dffb;stroke-width:1"
   d="m 62.505,24.866 4.002,-0.586 1.121,7.81 -1.044,0.585 -0.301,-2.113 -0.378,-0.591 -1.449,-0.359 -0.234,-0.14 -0.455,-0.509 -0.153,-0.208 -0.023,-0.253 0.049,-0.559 0.041,-0.117 0.14,-0.243 0.225,-0.306 0.208,-0.055 0.04,-0.04 0.118,-0.41 -0.009,-0.054 -1.425,-1.28 -0.473,-0.572"
   id="12119"
   inkscape:label="Sumter, FL"
   inkscape:connector-curvature="0" />
  <path
   style="fill:#72b3dc;stroke:#c2dffb;stroke-width:1"
   d="m 59.841,24.153 2.664,0.713 0.473,0.572 1.425,1.28 0.009,0.054 -0.118,0.41 -0.04,0.04 -0.208,0.055 -0.225,0.306 -0.14,0.243 -0.041,0.117 -0.049,0.559 -1.739,0.275 -0.06,-0.365 -2.559,0.371 -0.185,-1.908 -0.072,-0.414 -0.077,-0.158 -1.487,-1.14 0.075,-0.135 0.114,-0.136 0.293,-0.284 0.212,-0.054 0.171,0.005 0.694,0.157 0.663,-0.391 0.198,-0.145 0.009,-0.027"
   id="12017"
   inkscape:label="Citrus, FL"
   inkscape:connector-curvature="0" />
  <path
   style="fill:#72b3dc;stroke:#c2dffb;stroke-width:1"
   d="m 57.551,17.727 2.93,0.621 0.532,3.421 -1.482,0.221 0.31,2.163 -0.009,0.027 -0.198,0.145 -0.663,0.391 -0.694,-0.157 -0.171,-0.005 -0.212,0.054 -0.293,0.284 -0.114,0.136 -0.075,0.135 0.022,-0.432 -0.116,-0.343 -0.672,-1.105 -0.271,-0.117 -4.015,-1.135 0.901,-0.803 0.478,-0.861 0.243,-0.816 0.397,-1.722 3.172,-0.102"
   id="12075"
   inkscape:label="Levy, FL"
   inkscape:connector-curvature="0" />
  <path
   style="fill:#72b3dc;stroke:#c2dffb;stroke-width:1"
   d="m 60.481,18.348 2.001,-0.283 0.203,0.225 -0.023,0.139 0.821,0.361 0.829,-0.346 0.144,-0.091 0.009,-0.028 -0.057,-0.377 0.287,-0.343 0.235,-0.126 0.757,-0.298 1.803,0.099 0.315,0.708 0.555,0.675 0.504,0.528 0.527,0.537 0.446,2.717 -0.021,1.335 -3.309,0.5 -4.002,0.586 -2.664,-0.713 -0.31,-2.163 1.482,-0.221 -0.532,-3.421"
   id="12083"
   inkscape:label="Marion, FL"
   inkscape:connector-curvature="0" />
  <path
   style="fill:#72b3dc;stroke:#c2dffb;stroke-width:1"
   d="m 68.864,19.191 2.606,-1.362 0.197,0.271 0.258,1.447 0.933,-0.157 0.045,-0.01 1.992,-0.36 -0.257,-1.38 0.474,-0.748 0.85,1.416 0.687,1.059 0.531,0.825 0.319,0.432 0.943,1.155 2.083,2.514 -2.637,0.438 0.396,2.234 -0.257,0.046 -0.73,-1.131 -0.37,-0.465 -0.829,-0.694 -0.112,0.252 -0.37,0.177 -0.068,0.009 -0.238,-0.042 -1.456,-0.329 -0.613,-0.481 0.063,-0.699 -0.136,-0.658 -0.027,-0.037 -0.455,-0.351 -0.472,-0.257 -0.759,-0.504 -2.064,-2.073 -0.527,-0.537"
   id="12127"
   inkscape:label="Volusia, FL"
   inkscape:connector-curvature="0" />
  <path
   style="fill:#72b3dc;stroke:#c2dffb;stroke-width:1"
   d="m 78.027,27.011 0.257,-0.046 -0.396,-2.234 2.637,-0.438 2.059,2.181 0.022,0.027 0.088,0.089 0.016,0.028 0.821,1.497 0,0.104 -0.379,0.243 -0.104,0.144 -0.121,0.239 -0.009,0.063 -0.006,0.014 -0.036,0.193 -0.026,0.352 0.018,0.357 0.036,0.319 0.157,0.672 0.325,0.982 0.438,0.997 0.306,0.557 0.247,0.38 0.334,0.51 0.019,0.031 0.928,1.271 -0.059,0.081 -0.563,0.523 -4.074,0.653 -0.537,-3.312 0.072,-0.014 -0.315,-2.047 -0.221,-1.275 -1.934,-3.141"
   id="12009"
   inkscape:label="Brevard, FL"
   inkscape:connector-curvature="0" />
  <path
   style="fill:#72b3dc;stroke:#c2dffb;stroke-width:1"
   d="m 20.436,7.572 0.067,-0.857 0.063,-0.293 0.771,-0.072 0.202,0.167 0.033,0.374 1.294,-0.108 0.117,-0.887 0,-0.11 -0.028,-0.138 1.055,-0.105 0.852,0.479 0.279,2.794 -0.563,0.063 0.166,1.671 -0.671,0.073 -3.376,0.325 -1.195,0.518 -0.274,0.302 0.4,-0.762 0.383,-1.87 L 19.836,8.942 19.783,8.55 20.295,7.66 20.436,7.572"
   id="12133"
   inkscape:label="Washington, FL"
   inkscape:connector-curvature="0" />
  <path
   style="fill:#72b3dc;stroke:#c2dffb;stroke-width:1"
   d="m 17.944,4.075 5.889,-0.681 -0.878,2.254 0.028,0.138 0,0.11 L 22.866,6.783 21.572,6.891 21.539,6.517 21.337,6.35 20.566,6.422 20.503,6.715 20.436,7.572 18.309,7.78 17.944,4.075"
   id="12059"
   inkscape:label="Holmes, FL"
   inkscape:connector-curvature="0" />
  <path
   style="fill:#72b3dc;stroke:#c2dffb;stroke-width:1"
   d="m 16.271,4.241 1.673,-0.166 0.365,3.705 2.127,-0.208 -0.141,0.088 -0.512,0.89 0.053,0.392 0.175,0.194 -0.383,1.87 -0.4,0.762 0.131,1.546 -4.598,-0.942 -0.703,-7.906 2.213,-0.225"
   id="12131"
   inkscape:label="Walton, FL"
   inkscape:connector-curvature="0" />
  <path
   style="fill:#72b3dc;stroke:#c2dffb;stroke-width:1"
   d="M 14.058,4.466 14.761,12.372 10.29,12.71 9.691,4.863 10.749,4.783 14.058,4.466"
   id="12091"
   inkscape:label="Okaloosa, FL"
   inkscape:connector-curvature="0" />
  <path
   style="fill:#72b3dc;stroke:#c2dffb;stroke-width:1"
   d="M 5.544,5.233 9.691,4.863 10.29,12.71 8.993,13.043 7.19,13.336 6.366,12.836 4.972,10.308 4.404,8.946 4.233,8.483 4.197,8.27 4.062,7.306 4.097,7.117 4.304,6.354 4.382,6.22 4.876,5.786 5.544,5.233"
   id="12113"
   inkscape:label="Santa Rosa, FL"
   inkscape:connector-curvature="0" />
  <path
   style="fill:#72b3dc;stroke:#c2dffb;stroke-width:1"
   d="M 0.749,5.688 5.544,5.233 4.876,5.786 4.382,6.22 4.304,6.354 4.097,7.117 4.062,7.306 4.197,8.27 l 0.036,0.213 0.171,0.463 0.568,1.362 1.394,2.528 0.824,0.5 1.803,-0.293 -2.565,0.798 -0.096,0.023 -0.067,0.017 -0.392,0.1 -0.26,0.05 -0.416,0.081 -1.725,0.41 -1.015,0.293 0.712,-0.321 0.149,-1.41 L 3.43,10.267 3.412,10.055 3.372,9.902 3.237,9.681 2.741,9.374 2.367,9.181 2.182,9.149 2.12,9.126 1.767,8.883 0.645,7.66 0.5,7.414 0.749,5.688"
   id="12033"
   inkscape:label="Escambia, FL"
   inkscape:connector-curvature="0" />
  <path
   style="fill:#72b3dc;stroke:#c2dffb;stroke-width:1"
   d="m 25.704,8.762 1.483,-0.154 0.839,-0.139 0.784,-0.587 1.816,-0.198 -0.527,1.204 -0.37,2.378 -0.523,1.854 -3.037,0.329 -0.465,-4.687"
   id="12013"
   inkscape:label="Calhoun, FL"
   inkscape:connector-curvature="0" />
  <path
   style="fill:#72b3dc;stroke:#c2dffb;stroke-width:1"
   d="m 26.169,13.449 3.037,-0.329 1.339,2.807 0.131,1.754 -0.609,0.87 -0.166,-0.027 -0.983,0.965 -0.104,0.22 -1.05,0.086 -0.031,-1.284 -0.032,-0.14 -0.166,-0.275 -0.645,-0.813 -0.267,-0.255 -0.043,-0.036 -0.411,-3.543"
   id="12045"
   inkscape:label="Gulf, FL"
   inkscape:connector-curvature="0" />
  <path
   style="fill:#72b3dc;stroke:#c2dffb;stroke-width:1"
   d="m 35.819,14.792 2.339,0.366 0.081,0.224 0.032,0.122 0.027,0.095 0.004,0.018 -0.01,0.144 -0.063,0.181 -0.058,0.04 -0.324,0.09 -0.514,-0.067 -0.122,-0.027 -0.119,-0.081 -0.111,-0.185 -0.649,0.238 -0.257,0.118 -1.609,1.243 -0.73,0.609 -0.635,0.469 -0.605,0.387 -1.211,0.388 -0.483,0.109 -0.4,-0.06 -0.329,0.041 -0.217,0.064 -1.042,0.391 0.104,-0.22 0.983,-0.965 0.166,0.027 0.609,-0.87 -0.131,-1.754 0.135,-0.566 5.139,-0.569"
   id="12037"
   inkscape:label="Franklin, FL"
   inkscape:connector-curvature="0" />
  <path
   style="fill:#72b3dc;stroke:#c2dffb;stroke-width:1"
   d="m 54.158,14.832 0.221,2.997 -0.397,1.722 -0.243,0.816 -0.478,0.861 -0.901,0.803 -0.202,-0.699 -0.389,-0.59 -0.221,-0.311 -0.27,-0.127 -0.266,0 -0.523,-0.238 -0.879,-0.451 -0.257,-0.144 -0.027,-0.072 -0.357,-1.803 0.767,-2.137 4.422,-0.627"
   id="12029"
   inkscape:label="Dixie, FL"
   inkscape:connector-curvature="0" />
  <path
   style="fill:#72b3dc;stroke:#c2dffb;stroke-width:1"
   d="m 54.495,13.97 0.803,-0.701 1.753,1.081 0.5,3.377 -3.172,0.102 -0.221,-2.997 0.337,-0.862"
   id="12041"
   inkscape:label="Gilchrist, FL"
   inkscape:connector-curvature="0" />
  <path
   style="fill:#72b3dc;stroke:#c2dffb;stroke-width:1"
   d="m 58.282,12.731 1.257,0.055 0.311,0.437 0.117,0.042 1.411,0.238 0.617,-0.045 0.126,-0.072 0.073,-0.014 0.518,0.054 0.158,0.041 0.987,0.933 0.122,0.253 -0.019,0.148 0.448,3.147 0.057,0.377 -0.009,0.028 -0.144,0.091 -0.829,0.346 -0.821,-0.361 0.023,-0.139 -0.203,-0.225 -2.001,0.283 -2.93,-0.621 -0.5,-3.377 1.231,-1.619"
   id="12001"
   inkscape:label="Alachua, FL"
   inkscape:connector-curvature="0" />
  <path
   style="fill:#72b3dc;stroke:#c2dffb;stroke-width:1"
   d="m 68.977,12.476 1.06,2.663 1.433,2.69 -2.606,1.362 -0.504,-0.528 -0.555,-0.675 -0.315,-0.708 -1.803,-0.099 -0.757,0.298 -0.235,0.126 -0.287,0.343 -0.448,-3.147 0.059,-0.009 0.266,-0.134 0.988,-0.705 0.049,-0.229 0.076,-0.092 1.018,-0.728 0.172,-0.027 2.389,-0.401"
   id="12107"
   inkscape:label="Putnam, FL"
   inkscape:connector-curvature="0" />
  <path
   style="fill:#72b3dc;stroke:#c2dffb;stroke-width:1"
   d="m 70.037,15.139 3.353,-1.149 1.722,2.902 -0.474,0.748 0.257,1.38 -1.992,0.36 -0.045,0.01 -0.933,0.157 -0.258,-1.447 -0.197,-0.271 -1.433,-2.69"
   id="12035"
   inkscape:label="Flagler, FL"
   inkscape:connector-curvature="0" />
  <path
   style="fill:#72b3dc;stroke:#c2dffb;stroke-width:1"
   d="m 67.332,9.059 0.601,-0.252 0.255,0 0.739,0.234 1.159,-0.198 -0.325,-1.866 0.627,-0.106 1.343,3.486 0.946,2.258 0.018,0.042 0.14,0.287 0.104,0.225 0.451,0.821 -3.353,1.149 -1.06,-2.663 -1.645,-3.417"
   id="12109"
   inkscape:label="St. Johns, FL"
   inkscape:connector-curvature="0" />
  <path
   style="fill:#72b3dc;stroke:#c2dffb;stroke-width:1"
   d="m 67.332,9.059 1.645,3.417 -2.389,0.401 -0.172,0.027 -1.018,0.728 -0.076,0.092 -0.049,0.229 -0.988,0.705 -0.266,0.134 -0.802,-5.404 -0.081,-0.555 1.109,-0.162 2.307,-0.383 0.307,-0.068 0.346,-0.045 0.127,0.884"
   id="12019"
   inkscape:label="Clay, FL"
   inkscape:connector-curvature="0" />
  <path
   style="fill:#72b3dc;stroke:#c2dffb;stroke-width:1"
   d="m 62.19,9.541 1.027,-0.153 0.802,5.404 -0.059,0.009 0.019,-0.148 -0.122,-0.253 -0.987,-0.933 -0.158,-0.041 -0.518,-0.054 -0.073,0.014 -0.126,0.072 -0.617,0.045 -1.411,-0.238 -0.117,-0.042 -0.311,-0.437 0.483,-0.22 0.699,-0.379 1.193,-1.681 0.33,-0.644 0.022,-0.14 -0.076,-0.181"
   id="12007"
   inkscape:label="Bradford, FL"
   inkscape:connector-curvature="0" />
  <path
   style="fill:#72b3dc;stroke:#c2dffb;stroke-width:1"
   d="m 62.19,9.541 0.076,0.181 -0.022,0.14 -0.33,0.644 -1.193,1.681 -0.699,0.379 -0.483,0.22 -1.257,-0.055 0.432,-2.6 3.476,-0.59"
   id="12125"
   inkscape:label="Union, FL"
   inkscape:connector-curvature="0" />
  <path
   style="fill:#72b3dc;stroke:#c2dffb;stroke-width:1"
   d="m 54.64,8.104 0.658,5.165 -0.803,0.701 -0.689,-0.818 -0.428,-0.424 -0.185,-0.135 -1.135,-0.73 -0.527,-0.248 -0.555,-0.059 -0.045,0.127 -0.172,0.112 -0.343,-0.078 -0.144,-0.106 -0.396,-0.916 -0.154,-0.833 0.01,-0.069 0.045,-0.031 0.627,-1.703 0.09,-0.384 0.031,-0.049 0.338,-0.244 0.415,-0.135 0.887,0.018 0.56,0.108 1.915,0.731"
   id="12121"
   inkscape:label="Suwannee, FL"
   inkscape:connector-curvature="0" />
  <path
   style="fill:#72b3dc;stroke:#c2dffb;stroke-width:1"
   d="m 49.777,9.762 -0.045,0.031 -0.01,0.069 0.154,0.833 0.396,0.916 0.144,0.106 0.343,0.078 0.172,-0.112 0.045,-0.127 0.555,0.059 0.527,0.248 1.135,0.73 0.185,0.135 0.428,0.424 0.689,0.818 -0.337,0.862 -4.422,0.627 -0.374,0.055 -0.325,-0.916 -0.581,-4.655 1.321,-0.181"
   id="12067"
   inkscape:label="Lafayette, FL"
   inkscape:connector-curvature="0" />
  <path
   style="fill:#72b3dc;stroke:#c2dffb;stroke-width:1"
   d="m 48.456,9.943 0.581,4.655 0.325,0.916 0.374,-0.055 -0.767,2.137 -0.384,-0.096 -1.111,-0.449 -0.122,-0.105 -0.104,-0.121 -0.386,-0.528 0.004,-0.062 -0.077,-0.244 -0.131,-0.194 -0.573,-0.68 -0.508,-0.352 -0.091,-0.059 -1.222,-0.531 -0.662,-0.189 -1.036,-0.465 -0.722,-0.424 1.537,-3.047 3.876,-0.517 0.069,0.562 1.13,-0.152"
   id="12123"
   inkscape:label="Taylor, FL"
   inkscape:connector-curvature="0" />
  <path
   style="fill:#72b3dc;stroke:#c2dffb;stroke-width:1"
   d="m 33.511,11.318 5.143,-0.668 0.117,0.361 1.834,-0.221 0.279,2.279 -1.875,0.267 -1.023,0.505 -0.175,0.095 -0.027,0.436 0.103,0.465 0.027,0.035 0.244,0.286 -2.339,-0.366 -0.727,-0.428 -0.35,-0.244 -0.479,-0.622 -0.974,-1.708 0.081,-0.306 0.141,-0.166"
   id="12129"
   inkscape:label="Wakulla, FL"
   inkscape:connector-curvature="0" />
  <path
   style="fill:#72b3dc;stroke:#c2dffb;stroke-width:1"
   d="m 34.115,10.1 -0.604,1.218 -0.141,0.166 -0.081,0.306 0.974,1.708 0.479,0.622 0.35,0.244 0.727,0.428 -5.139,0.569 -0.135,0.566 -1.339,-2.807 0.523,-1.854 0.37,-2.378 0.527,-1.204 3.489,2.416"
   id="12077"
   inkscape:label="Liberty, FL"
   inkscape:connector-curvature="0" />
  <path
   style="fill:#72b3dc;stroke:#c2dffb;stroke-width:1"
   d="M 36.575,5.891 37.68,5.814 37.229,7.031 36.721,8.545 36.67,8.654 36.508,8.798 36.283,8.892 34.805,9.64 l -0.69,0.46 -3.489,-2.416 0.59,-1.433 0.014,0 5.345,-0.36"
   id="12039"
   inkscape:label="Gadsden, FL"
   inkscape:connector-curvature="0" />
  <path
   style="fill:#72b3dc;stroke:#c2dffb;stroke-width:1"
   d="m 40.713,5.603 -0.131,1.969 -0.23,1.163 0.253,2.055 -1.834,0.221 L 38.654,10.65 33.511,11.318 34.115,10.1 34.805,9.64 36.283,8.892 36.508,8.798 36.67,8.654 36.721,8.545 37.229,7.031 37.68,5.814 39.867,5.66 40.713,5.603"
   id="12073"
   inkscape:label="Leon, FL"
   inkscape:connector-curvature="0" />
  <path
   style="fill:#72b3dc;stroke:#c2dffb;stroke-width:1"
   d="m 43.634,5.404 1.465,-0.095 0.099,0.153 0.099,0.722 -0.316,0.419 -0.883,0.951 -0.636,1.875 -0.081,0.621 -1.537,3.047 -0.96,-0.028 -0.532,-4.334 0.23,-1.163 0.131,-1.969 2.921,-0.199"
   id="12065"
   inkscape:label="Jefferson, FL"
   inkscape:connector-curvature="0" />
  <path
   style="fill:#72b3dc;stroke:#c2dffb;stroke-width:1"
   d="m 47.919,5.115 0.533,-0.031 0.496,0.221 0.518,1.744 0.311,0.595 0.072,0.062 0.555,0.353 -0.627,1.703 -1.321,0.181 -1.13,0.152 -0.069,-0.562 -3.876,0.517 0.081,-0.621 0.636,-1.875 0.883,-0.951 0.316,-0.419 -0.099,-0.722 -0.099,-0.153 2.82,-0.194"
   id="12079"
   inkscape:label="Madison, FL"
   inkscape:connector-curvature="0" />
  <path
   style="fill:#72b3dc;stroke:#c2dffb;stroke-width:1"
   d="m 50.368,4.952 4.961,-0.341 -0.252,0.486 -0.004,0.23 0.045,0.357 0.22,0.257 0.631,0.666 0.072,0.103 0.114,0.308 0.004,0.117 L 55.862,7.906 55.793,7.991 55.203,8.28 54.681,8.235 54.64,8.104 52.725,7.373 52.165,7.265 51.278,7.247 50.863,7.382 50.525,7.626 50.494,7.675 50.404,8.059 49.849,7.706 49.777,7.644 49.466,7.049 48.948,5.305 48.452,5.084 50.368,4.952"
   id="12047"
   inkscape:label="Hamilton, FL"
   inkscape:connector-curvature="0" />
  <path
   style="fill:#72b3dc;stroke:#c2dffb;stroke-width:1"
   d="m 56.501,4.525 1.379,-0.099 0.834,5.705 -0.432,2.6 L 57.051,14.35 55.298,13.269 54.64,8.104 54.681,8.235 55.203,8.28 55.793,7.991 55.862,7.906 56.159,7.135 56.155,7.018 56.041,6.71 55.969,6.607 55.338,5.941 55.118,5.684 55.073,5.327 55.077,5.097 55.329,4.611 56.501,4.525"
   id="12023"
   inkscape:label="Columbia, FL"
   inkscape:connector-curvature="0" />
  <path
   style="fill:#72b3dc;stroke:#c2dffb;stroke-width:1"
   d="m 58.331,4.394 2.263,-0.139 0.324,1.807 0.109,0.288 0.207,0.297 0.229,0.18 0.073,0.015 1.262,-0.244 0.177,1.131 0.242,1.659 -1.027,0.153 -3.476,0.59 -0.834,-5.705 0.451,-0.032"
   id="12003"
   inkscape:label="Baker, FL"
   inkscape:connector-curvature="0" />
  <path
   style="fill:#72b3dc;stroke:#c2dffb;stroke-width:1"
   d="m 62.975,7.729 2,-2.785 0.941,-1.276 0.235,-0.225 0.113,-0.063 0.775,-0.333 1.257,0.049 0.167,0.023 0.726,0.59 0.212,0.14 0.194,0.162 0.311,1.014 0.131,0.766 0.121,0.46 0.126,0.366 0.104,0.254 -0.627,0.106 0.325,1.866 -1.159,0.198 -0.739,-0.234 -0.255,0 L 67.332,9.059 67.205,8.175 66.859,8.22 66.552,8.288 64.245,8.671 63.136,8.833 62.975,7.729"
   id="12031"
   inkscape:label="Duval, FL"
   inkscape:connector-curvature="0" />
  <path
   style="fill:#72b3dc;stroke:#c2dffb;stroke-width:1"
   d="M 68.783,1.166 69.189,3.709 68.463,3.119 68.296,3.096 67.039,3.047 66.264,3.38 66.151,3.443 65.916,3.668 64.975,4.944 62.975,7.729 62.798,6.598 62.856,5.705 62.915,4.823 62.907,3.961 62.762,3.565 62.424,3.123 62.252,2.862 62.203,2.596 62.299,1.203 63.505,0.5 l 0.469,0.316 1.718,0.369 1.297,0.144 0.686,-0.031 0.938,-0.113 0.17,-0.019"
   id="12089"
   inkscape:label="Nassau, FL"
   inkscape:connector-curvature="0" />
  
  
  
  
  
  
  
  
  
  
  
  
  
  
  
  
  
  
  
  
  
  
  
  
  
  
  
  
  
  
  
  
  
  
  
  
  
  
  
  
  
  
  
  
  
  
  
  
  
  
  
  
  
  
  
  
  
  
  
  
  
  
  
  
  
  
  
  
  
  
  
  
  
  
  
  
  
  
  
  
  
  
  
  
  
  
  
  
  
  
  
  
  
  
  
  
  
  
  
  
  
  
  
  
  
  
  
  
  
  
  
  
  
  
  
  
  
  
  
  
  
  
  
  
  
  
  
  
  
  
  
  
  
  
  
  
  
  
  
  
  
  
  
  
  
  
  
  
  
  
  
  
  
  
  
  
  
  
  
  
  
  
  
  
  
  
  
  
  
  
  
  
  
  
  
  
  
  
  
  
  
  
  
  
  
  
  
  
  
  
  
  
  
  
  
  
  
  
  
  
  
  
  
  
  
  
  
  
  
  
  
  
  
  
  
  
  
  
  
  
  
  
  
  
  
  
  
  
  
  
  
  
  
  
  
  
  
  
  
  
  
  
  
  
  
  
  
  
  
  
  
  
  
  
  
  
  
  
  
  
  
  
  
  
  
  
  
  
  
  
  
  
  
  
  
  
  
  
  
  
  
  
  
  
  
  
  
  
  
  
  
  
  
  
  
  
  
  
  
  
  
  
  
  
  
  
  
  
  
  
  
  
  
  
  
  
  
  
  
  
  
  
  
  
  
  
  
  
  
  
  
  
  
  
  
  
  
  
  
  
  
  
  
  
  
  
  
  
  
  
  
  
  
  
  
  
  
  
  
  
  
  
  
  
  
  
  
  
  
  
  
  
  
  
  
  
  
  
  
  
  
  
  
  
  
  
  
  
  
  
  
  
  
  
  
  
  
  
  
  
  
  
  
  
  
  
  
  
  
  
  
  
  
  
  
  
  
  
  
  
  
  
  
  
  
  
  
  
  
  
  
  
  
  
  
  
  
  
  
  
  
  
  
  
  
  
  
  
  
  
  
  
  
  
  
  
  
  
  
  
  
  
  
  
  
  
  
  
  
  
  
  
  
  
  
  
  
  
  
  
  
  
  
  
  
  
  
  
  
  
  
  
  
  
  
  
  
  
  
  
  
  
  
  
  
  
  
  
  
  
  
  
  
  
  
  
  
  
  
  
  
  
  
  
  
  
  
  
  
  
  
  
  
  
  
  
  
  
  
  
  
  
  
  
  
  
  
  
  
  
  
  
  
  
  
  
  
  
  
  
  
  
  
  
  
  
  
  
  
  
  
  
  
  
  
  
  
  
  
  
  
  
  
  
  
  
  
  
  
  
  
  
  
  
  
  
  
  
  
  
  
  
  
  
  
  
  
  
  
  
  
  
  
  
  
  
  
  
  
  
  
  
  
  
  
  
  
  
  
  
  
  
  
  
  
  
  
  
  
  
  
  
  
  
  
  
  
  
  
  
  
  
  
  
  
  
  
  
  
  
  
  
  
  
  
  
  
  
  
  
  
  
  
  
  
  
  
  
  
  
  
  
  
  
  
  
  
  
  
  
  
  
  
  
  
  
  
  
  
  
  
  
  
  
  
  
  
  
  
  
  
  
  
  
  
  
  
  
  
  
  
  
  
  
  
  
  
  
  
  
  
  
  
  
  
  
  
  
  
  
  
  
  
  
  
  
  
  
  
  
  
  
  
  
  
  
  
  
  
  
  
  
  
  
  
  
  
  
  
  
  
  
  
  
  
  
  
  
  
  
  
  
  
  
  
  
  
  
  
  
  
  
  
  
  
  
  
  
  
  
  
  
  
  
  
  
  
  
  
  
  
  
  
  
  
  
  
  
  
  
  
  
  
  
  
  
  
  
  
  
  
  
  
  
  
  
  
  
  
  
  
  
  
  
  
  
  
  
  
  
  
  
  
  
  
  
  
  
  
  
  
  
  
  
  
  
  
  
  
  
  
  
  
  
  
  
  
  
  
  
  
  
  
  
  
  
  
  
  
  
  
  
  
  
  
  
  
  
  
  
  
  
  
  
  
  
  
  
  
  
  
  
  
  
  
  
  
  
  
  
  
  
  
  
  
  
  
  
  
  
  
  
  
  
  
  
  
  
  
  
  
  
  
  
  
  
  
  
  
  
  
  
  
  
  
  
  
  
  
  
  
  
  
  
  
  
  
  
  
  
  
  
  
  
  
  
  
  
  
  
  
  
  
  
  
  
  
  
  
  
  
  
  
  
  
  
  
  
  
  
  
  
  
  
  
  
  
  
  
  
  
  
  
  
  
  
  
  
  
  
  
  
  
  
  
  
  
  
  
  
  
  
  
  
  
  
  
  
  
  
  
  
  
  
  
  
  
  
  
  
  
  
  
  
  
  
  
  
  
  
  
  
  
  
  
  
  
  
  
  
  
  
  
  
  
  
  
  
  
  
  
  
  
  
  
  
  
  
  
  
  
  
  
  
  
  
  
  
  
  
  
  
  
  
  
  
  
  
  
  
  
  
  
  
  
  
  
  
  
  
  
  
  
  
  
  
  
  
  
  
  
  
  
  
  
  
  
  
  
  
  
  
  
  
  
  
  
  
  
  
  
  
  
  
  
  
  
  
  
  
  
  
  
  
  
  
  
  
  
  
  
  
  
  
  
  
  
  
  
  
  
  
  
  
  
  
  
  
  
  
  
  
  
  
  
  
  
  
  
  
  
  
  
  
  
  
  
  
  
  
  
  
  
  
  
  
  
  
  
  
  
  
  
  
  
  
  
  
  
  
  
  
  
  
  
  
  
  
  
  
  
  
  
  
  
  
  
  
  
  
  
  
  
  
  
  
  
  
  
  
  
  
  
  
  
  
  
  
  
  
  
  
  
  
  
  
  
  
  
  
  
  
  
  
  
  
  
  
  
  
  
  
  
  
  
  
  
  
  
  
  
  
  
  
  
  
  
  
  
  
  
  
  
  
  
  
  
  
  
  
  
  
  
  
  
  
  
  
  
  
  
  
  
  
  
  
  
  
  
  
  
  
  
  
  
  
  
  
  
  
  
  
  
  
  
  
  
  
  
  
  
  
  
  
  
  
  
  
  
  
  
  
  
  
  
  
  
  
  
  
  
  
  
  
  
  
  
  
  
  
  
  
  
  
  
  
  
  
  
  
  
  
  
  
  
  
  
  
  
  
  
  
  
  
  
  
  
  
  
  
  
  
  
  
  
  
  
  
  
  
  
  
  
  
  
  
  
  
  
  
  
  
  
  
  
  
  
  
  
  
  
  
  
  
  
  
  
  
  
  
  
  
  
  
  
  
  
  
  
  
  
  
  
  
  
  
  
  
  
  
  
  
  
  
  
  
  
  
  
  
  
  
  
  
  
  
  
  
  
  
  
  
  
  
  
  
  
  
  
  
  
  
  
  
  
  
  
  
  
  
  
  
  
  
  
  
  
  
  
  
  
  
  
  
  
  
  
  
  
  
  
  
  
  
  
  
  
  
  
  
  
  
  
  
  
  
  
  
  
  
  
  
  
  
  
  
  
  
  
  
  
  
  
  
  
  
  
  
  
  
  
  
  
  
  
  
  
  
  
  
  
  
  
  
  
  
  
  
  
  
  
  
  
  
  
  
  
  
  
  
  
  
  
  
  
  
  
  
  
  
  
  
  
  
  
  
  
  
  
  
  
  
  
  
  
  
  
  
  
  
  
  
  
  
  
  
  
  
  
  
  
  
  
  
  
  
  
  
  
  
  
  
  
  
  
  
  
  
  
  
  
  
  
  
  
  
  
  
  
  
  
  
  
  
  
  
  
  
  
  
  
  
  
  
  
  
  
  
  
  
  
  
  
  
  
  
  
  
  
  
  
  
  
  
  
  
  
  
  
  
  
  
  
  
  
  
  
  
  
  
  
  
  
  
  
  
  
  
  
  
  
  
  
  
  
  
  
  
  
  
  
  
  
  
  
  
  
  
  
  
  
  
  
  
  
  
  
  
  
  
  
  
  
  
  
  
  
  
  
  
  
  
  
  
  
  
  
  
  
  
  
  
  
  
  
  
  
  
  
  
  
  
  
  
  
  
  
  
  
  
  
  
  
  
  
  
  
  
  
  
  
  
  
  
  
  
  
  
  
  
  
  
  
  
  
  
  
  
  
  
  
  
  
  
  
  
  
  
  
  
  
  
  
  
  
  
  
  
  
  
  
  
  
  
  
  
  
  
  
  
  
  
  
  
  
  
  
  
  
  
  
  
  
  
  
  
  
  
  
  
  
  
  
  
  
  
  
  
  
  
  
  
  
  
  
  
  
  
  
  
  
  
  
  
  
  
  
  
  
  
  
  
  
  
  
  
  
  
  
  
  
  
  
  
  
  
  
  
  
  
  
  
  
  
  
  
  
  
  
  
  
  
  
  
  
  
  
  
  
  
  
  
  
  
  
  
  
  
  
  
  
  
  
  
  
  
  
  
  
  
  
  
  
  
  
  
  
  
  
  
  
  
  
  
  
  
  
  
  
  
  
  
  
  
  
  
  
  
  
  
  
  
  
  
  
  
  
  
  
  
  
  
  
  
  
  
  
  
  
  
  
  
  
  
  
  
  
  
  
  
  
  
  
  
  
  
  
  
  
  
  
  
  
  
  
  
  
  
  
  
  
  
  
  
  
  
  
  
  
  
  
  
  
  
  
  
  
  
  
  
  
  
  
  
  
  
  
  
  
  
  
  
  
  
  
  
  
  
  
  
  
  
  
  
  
  
  
  
  
  
  
  
  
  
  
  
  
  
  
  
  
  
  
  
  
  
  
  
  
  
  
  
  
  
  
  
  
  
  
  
  
  
  
  
  
  
  
  
  
  
  
  
  
  
  
  
  
  
  
  
  
  
  
  
  
  
  
  
  
  
  
  
  
  
  
  
  
  
  
  
  
  
  
  
  
  
  
  
  
  
  
  
  
  
  
  
  
  
  
  
  
  
  
  
  
  
  
  
  
  
  
  
  
  
  
  
  
  
  
  
  
  
  
  
  
  
  
  
  
  
  
  
  
  
  
  
  
  
  
  
  
  
  
  
  
  
  
  
  
  
  
  
  
  
  
  
  
  
  
  
  
  
  
  
  
  
  
  
  
  
  
  
  
  
  
  
  
  
  
  
  
  
  
  
  
  
  
  
  
  
  
  
  
  
  
  
  
  
  
  
  
  
  
  
  
  
  
  
  
  
  
  
  
  
  
  
  
  
  
  
  
  
  
  
  
  
  
  
  
  
  
  
  
  
  
  
  
  
  
  
  
  
  
  
  
  
  
  
  
  
  
  
  
  
  
  
  
  
  
  
  
  
  
  
  
  
  
  
  
  
  
  
  
  
  
  
  
  
  
  
  
  
  
  
  
  
  
  
  
  
  
  
  
  
  
  
  
  
  
  
  
  
  
  
  
  
  
  
  
  
  
  
  
  
  
  
  
  
  
  
  
  
  
  
  
  
  
  
  
  
  
  
  
  
  
  
  
  
  
  
  
  
  
  
  
  
  
  
  
  
  
  
  
  
  
  
  
  
  
  
  
  
  
  
  
  
  
  
  
  
  
  
  
  
  
  
  
  
  
  
  
  
  
  
  
  
  
  
  
  
  
  
  
  
  
  
  
  
  
  
  
  
  
  
  
  
  
  
  
  
  
  
  
  
  
  
  
  
  
  
  
  
  
  
  
  
  
  
  
  
  
  
  
  
  
  
  
  
  
  
  
  
  
  
  
  
  
  
  
  
  
  
  
  
  
  
  
  
  
  
  
  
  
  
  
  
  
  
  
  
  
  
  
  
  
  
  
  
  
  
  
  
  
  
  
  
  
  
  
  
  
  
  
  
  
  
  
  
  
  
  
  
  
  
  
  
  
  
  
  
  
  
  
  
  
  
  
  
  
  
  
  
  
  
  
  
  
  
  
  
  
  
  
  
  
  
  
  
  
  
  
  
  
  
  
  
  
  
  
  
  
  
  
  
  
  
  
  
  
  
  
  
  
  
  
  
  
  
  
  
  
  
  
  
  
  
  
  
  
  
  
  
  
  
  
  
  
  
  
  
  
  
  
  
  
  
  
  
  
  
  
  
  
  
  
  
  
  
  
  
  
  
  
  
  
  
  
  
  
  
  
  
  
  
  
  
  
  
  
  
  
  
  
  
  
  
  
  
  
  
  
  
  
  
  
  
  
  
  
  
  
  
  
  
  
  
  
  
  
</svg>