<?xml version="1.0" encoding="UTF-8" standalone="no"?>
<!--?xml version="1.0" encoding="UTF-8" standalone="no"?-->

<svg
   xmlns:dc="http://purl.org/dc/elements/1.1/"
   xmlns:cc="http://creativecommons.org/ns#"
   xmlns:rdf="http://www.w3.org/1999/02/22-rdf-syntax-ns#"
   xmlns:svg="http://www.w3.org/2000/svg"
   xmlns="http://www.w3.org/2000/svg"
   xmlns:sodipodi="http://sodipodi.sourceforge.net/DTD/sodipodi-0.dtd"
   xmlns:inkscape="http://www.inkscape.org/namespaces/inkscape"
   width="61.3326"
   height="63.862972"
   viewBox="0 0 56.694 58.336369"
   preserveAspectRatio="xMinYMin meet"
   xml:space="preserve"
   id="svg467"
   version="1.1"
   inkscape:version="0.48.2 r9819"
   sodipodi:docname="GA.svg"><metadata
   id="metadata632"><rdf:RDF><cc:Work
       rdf:about=""><dc:format>image/svg+xml</dc:format><dc:type
         rdf:resource="http://purl.org/dc/dcmitype/StillImage" /></cc:Work></rdf:RDF></metadata><defs
   id="defs630" /><sodipodi:namedview
   pagecolor="#ffffff"
   bordercolor="#666666"
   borderopacity="1"
   objecttolerance="10"
   gridtolerance="10"
   guidetolerance="10"
   inkscape:pageopacity="0"
   inkscape:pageshadow="2"
   inkscape:window-width="640"
   inkscape:window-height="480"
   id="namedview628"
   showgrid="false"
   inkscape:zoom="0.56730769"
   inkscape:cx="-137.32165"
   inkscape:cy="77.003918"
   inkscape:window-x="0"
   inkscape:window-y="0"
   inkscape:window-maximized="0"
   inkscape:current-layer="svg467" />
  
  
  
  
  
  
  
  
  
  
  
  
  
  
  
  
  
  
  
  
  
  
  
  
  
  
  
  
  
  
  
  
  
  
  
  
  
  
  
  
  
  
  
  
  
  
  
  
  
  
  
  
  
  
  
  
  
  
  
  
  
  
  
  
  
  
  
  
  
  
  
  
  
  
  
  
  
  
  
  
  
  
  
  
  
  
  
  
  
  
  
  
  
  
  
  
  
  
  
  
  
  
  
  
  
  
  
  
  
  
  
  
  
  
  
  
  
  
  
  
  
  
  
  
  
  
  
  
  
  
  
  
  
  
  
  
  
  
  
  
  
  
  
  
  
  
  
  
  
  
  
  
  
  
  
  
  
  
  
  
  
  
  
  
  
  
  
  
  
  
  
  
  
  
  
  
  
  
  
  
  
  
  
  
  
  
  
  
  
  
  
  
  
  
  
  
  
  
  
  
  
  
  
  
  
  
  
  
  
  
  
  
  
  
  
  
  
  
  
  
  
  
  
  
  
  
  
  
  
  
  
  
  
  
  
  
  
  
  
  
  
  
  
  
  
  
  
  
  
  
  
  
  
  
  
  
  
  
  
  
  
  
  
  
  
  
  
  
  
  
  
  
  
  
  
  
  
  
  
  
  
  
  
  
  
  
  
  
  
  
  
  
  
  
  
  
  
  
  
  
  
  
  
  
  
  
  
  
  
  
  
  
  
  
  
  
  
  
  
  
  
  
  
  
  
  
  
  
  
  
  
  
  
  
  
  
  
  
  
  
  
  
  
  
  
  
  
  
  
  
  
  
  
  
  
  
  
  
  
  
  
  
  
  
  
  
  
  
  
  
  
  
  
  
  
  
  
  
  
  
  
  
  
  
  <path
   style="fill:#72b3dc;stroke:#c2dffb;stroke-width:1"
   d="M 26.488,0.5 26.262,1.527 25.306,2.27 24.613,3.528 24.441,4.502 21.134,3.542 21.917,1.221 22.599,1.112 26.488,0.5"
   id="13241"
   inkscape:label="Rabun, GA"
   inkscape:connector-curvature="0" />
  <path
   style="fill:#72b3dc;stroke:#c2dffb;stroke-width:1"
   d="M 17.894,1.807 21.917,1.221 21.134,3.542 20.863,3.87 19.845,4.1 19.8,3.776 19.417,2.879 19.109,2.703 18.804,2.726 18.165,2.365 17.831,2.045 17.894,1.807"
   id="13281"
   inkscape:label="Towns, GA"
   inkscape:connector-curvature="0" />
  <path
   style="fill:#72b3dc;stroke:#c2dffb;stroke-width:1"
   d="m 23.036,47.404 0.531,4.702 -1.239,0.143 -2.845,0.349 -1.44,0.178 0.009,-0.54 0.165,-0.442 0.06,-0.094 1.315,-1.885 1.326,-1.031 0.567,-1.136 1.551,-0.244"
   id="13205"
   inkscape:label="Mitchell, GA"
   inkscape:connector-curvature="0" />
  <path
   style="fill:#72b3dc;stroke:#c2dffb;stroke-width:1"
   d="m 18.335,48.084 3.15,-0.436 -0.567,1.136 -1.326,1.031 -1.315,1.885 -0.06,0.094 -0.165,0.442 -0.009,0.54 -0.38,0.036 -1.361,-2.171 -0.225,-2.25 2.258,-0.307"
   id="13007"
   inkscape:label="Baker, GA"
   inkscape:connector-curvature="0" />
  <path
   style="fill:#72b3dc;stroke:#c2dffb;stroke-width:1"
   d="m 16.302,50.641 1.361,2.171 -2.046,0.375 -2.106,0.207 -0.225,-2.357 2.331,-0.226 0.685,-0.139 0,-0.031"
   id="13201"
   inkscape:label="Miller, GA"
   inkscape:connector-curvature="0" />
  <path
   style="fill:#72b3dc;stroke:#c2dffb;stroke-width:1"
   d="m 13.986,47.766 2.091,0.625 0.225,2.25 0,0.031 -0.685,0.139 -2.331,0.226 0.225,2.357 -1.092,0.09 -0.119,-0.257 -0.082,-0.147 -0.521,-0.573 -0.082,-0.023 -0.095,0 -0.095,-0.054 -0.112,-0.261 -0.153,-0.915 0.076,-0.334 0.117,-0.342 0.136,-2.749 0.238,0.401 0.248,-0.027 0.212,-0.068 0.302,-0.119 1.497,-0.25"
   id="13099"
   inkscape:label="Early, GA"
   inkscape:connector-curvature="0" />
  <path
   style="fill:#72b3dc;stroke:#c2dffb;stroke-width:1"
   d="m 13.511,53.394 2.106,-0.207 -0.193,0.473 0.198,1.92 -0.085,0.654 -0.344,0.635 -0.433,0.28 -0.158,0.333 -0.017,0.203 0.117,0.257 -0.014,0 -1.946,-3.524 -0.323,-0.934 1.092,-0.09"
   id="13253"
   inkscape:label="Seminole, GA"
   inkscape:connector-curvature="0" />
  <path
   style="fill:#72b3dc;stroke:#c2dffb;stroke-width:1"
   d="m 19.483,52.598 0.564,4.984 -5.345,0.36 -0.117,-0.257 0.017,-0.203 0.158,-0.333 0.433,-0.28 0.344,-0.635 0.085,-0.654 -0.198,-1.92 0.193,-0.473 2.046,-0.375 0.38,-0.036 1.44,-0.178"
   id="13087"
   inkscape:label="Decatur, GA"
   inkscape:connector-curvature="0" />
  <path
   style="fill:#72b3dc;stroke:#c2dffb;stroke-width:1"
   d="m 22.328,52.249 0.136,1.267 0.163,0.352 0.148,0.185 0.22,0.212 0.344,3.086 -2.187,0.154 -1.105,0.077 -0.564,-4.984 2.845,-0.349"
   id="13131"
   inkscape:label="Grady, GA"
   inkscape:connector-curvature="0" />
  <path
   style="fill:#72b3dc;stroke:#c2dffb;stroke-width:1"
   d="m 23.567,52.106 2.988,0.13 0.551,4.859 -2.921,0.199 -0.846,0.057 -0.344,-3.086 -0.22,-0.212 -0.148,-0.185 -0.163,-0.352 -0.136,-1.267 1.239,-0.143"
   id="13275"
   inkscape:label="Thomas, GA"
   inkscape:connector-curvature="0" />
  <path
   style="fill:#72b3dc;stroke:#c2dffb;stroke-width:1"
   d="m 29.423,51.934 0.99,2.547 -0.287,0.315 -0.321,0.677 -0.008,0.047 0.419,0.615 0.179,0.134 0.996,0.537 -2.82,0.194 -1.465,0.095 -0.551,-4.859 1.7,-0.748 1.168,0.446"
   id="13027"
   inkscape:label="Brooks, GA"
   inkscape:connector-curvature="0" />
  <path
   style="fill:#72b3dc;stroke:#c2dffb;stroke-width:1"
   d="m 28.516,48.207 -0.261,3.281 -1.7,0.748 -2.988,-0.13 -0.373,-3.304 3.773,-0.433 1.549,-0.162"
   id="13071"
   inkscape:label="Colquitt, GA"
   inkscape:connector-curvature="0" />
  <path
   style="fill:#72b3dc;stroke:#c2dffb;stroke-width:1"
   d="m 29.333,47.806 0,0.406 0.071,0.202 0.071,0.103 0.597,0.419 0.175,0.064 0.901,1.929 0.257,0.802 -1.982,0.203 -1.168,-0.446 0.261,-3.281 0.817,-0.401"
   id="13075"
   inkscape:label="Cook, GA"
   inkscape:connector-curvature="0" />
  <path
   style="fill:#72b3dc;stroke:#c2dffb;stroke-width:1"
   d="m 33.843,49.361 0.826,-0.122 0.554,4.028 -0.491,0.326 -0.14,-0.694 -0.289,-0.518 -1.5,0.166 -0.329,-0.937 -0.05,-0.379 0.194,-1.225 1.389,-0.186 0.008,-0.05 -0.067,-0.225 -0.105,-0.184"
   id="13173"
   inkscape:label="Lanier, GA"
   inkscape:connector-curvature="0" />
  <path
   style="fill:#72b3dc;stroke:#c2dffb;stroke-width:1"
   d="m 31.405,51.731 1.069,-0.121 0.329,0.937 1.5,-0.166 0.289,0.518 0.14,0.694 -0.892,3.05 -1.916,0.132 -0.533,0.031 -0.996,-0.537 -0.179,-0.134 -0.419,-0.615 0.008,-0.047 0.321,-0.677 0.287,-0.315 -0.99,-2.547 1.982,-0.203"
   id="13185"
   inkscape:label="Lowndes, GA"
   inkscape:connector-curvature="0" />
  <path
   style="fill:#72b3dc;stroke:#c2dffb;stroke-width:1"
   d="m 35.223,53.267 1.429,0.263 0.126,0.202 0.162,0.451 0.316,0.352 0.158,0.084 0.293,0.083 0.414,-0.019 0.221,-0.031 0.437,-0.01 0.726,0.045 0.194,0.079 0.112,0.112 0.04,0.067 0.122,1.271 -1.172,0.086 -4.961,0.341 0.892,-3.05 0.491,-0.326"
   id="13101"
   inkscape:label="Echols, GA"
   inkscape:connector-curvature="0" />
  <path
   style="fill:#72b3dc;stroke:#c2dffb;stroke-width:1"
   d="m 34.669,49.239 3.271,-0.445 0.987,1.684 0.379,0.383 0.69,0.514 1.18,1.695 0.226,1.488 0.212,1.144 0.189,0.383 -0.451,0.032 -1.379,0.099 -0.122,-1.271 -0.04,-0.067 -0.112,-0.112 -0.194,-0.079 -0.726,-0.045 -0.437,0.01 -0.221,0.031 -0.414,0.019 -0.293,-0.083 -0.158,-0.084 -0.316,-0.352 -0.162,-0.451 -0.126,-0.202 -1.429,-0.263 -0.554,-4.028"
   id="13065"
   inkscape:label="Clinch, GA"
   inkscape:connector-curvature="0" />
  <path
   style="fill:#72b3dc;stroke:#c2dffb;stroke-width:1"
   d="m 38.081,46.427 -0.141,2.367 -3.271,0.445 -0.826,0.122 -0.103,-0.541 -0.271,-1.172 -0.501,-0.387 -0.512,-0.541 -0.018,-0.033 -0.023,-0.215 1.983,-0.231 1.457,0.299 0.17,0.166 2.056,-0.279"
   id="13003"
   inkscape:label="Atkinson, GA"
   inkscape:connector-curvature="0" />
  <path
   style="fill:#72b3dc;stroke:#c2dffb;stroke-width:1"
   d="m 32.261,45.822 0.154,0.65 0.023,0.215 0.018,0.033 0.512,0.541 0.501,0.387 0.271,1.172 0.103,0.541 0.105,0.184 0.067,0.225 -0.008,0.05 -1.389,0.186 -0.194,1.225 0.05,0.379 -1.069,0.121 -0.257,-0.802 -0.901,-1.929 -0.175,-0.064 -0.597,-0.419 -0.071,-0.103 -0.071,-0.202 0,-0.406 0.829,-1.754 2.099,-0.23"
   id="13019"
   inkscape:label="Berrien, GA"
   inkscape:connector-curvature="0" />
  <path
   style="fill:#72b3dc;stroke:#c2dffb;stroke-width:1"
   d="m 33.51,43.028 -1.249,2.794 -2.099,0.23 -1.965,-1.27 0.238,-2.168 0.898,-0.108 0.617,0.91 0.688,0.252 0.97,-0.095 0.622,-0.297 1.28,-0.248"
   id="13155"
   inkscape:label="Irwin, GA"
   inkscape:connector-curvature="0" />
  <path
   style="fill:#72b3dc;stroke:#c2dffb;stroke-width:1"
   d="m 26.619,45.322 1.578,-0.54 1.965,1.27 -0.829,1.754 -0.817,0.401 -1.549,0.162 -0.348,-3.047"
   id="13277"
   inkscape:label="Tift, GA"
   inkscape:connector-curvature="0" />
  <path
   style="fill:#72b3dc;stroke:#c2dffb;stroke-width:1"
   d="m 23.009,42.145 1.555,0.378 0.049,0.032 0.081,0.509 0.235,1.767 0.856,-0.1 0.095,0.033 0.328,0.216 0.411,0.342 0.348,3.047 -3.773,0.433 -0.158,-1.398 -0.56,-2.618 0.533,-2.641"
   id="13321"
   inkscape:label="Worth, GA"
   inkscape:connector-curvature="0" />
  <path
   style="fill:#72b3dc;stroke:#c2dffb;stroke-width:1"
   d="m 19.483,45.529 2.993,-0.743 0.56,2.618 -1.551,0.244 -3.15,0.436 -0.508,-2.347 1.656,-0.208"
   id="13095"
   inkscape:label="Dougherty, GA"
   inkscape:connector-curvature="0" />
  <path
   style="fill:#72b3dc;stroke:#c2dffb;stroke-width:1"
   d="m 16.776,45.872 1.051,-0.135 0.508,2.347 -2.258,0.307 -2.091,-0.625 -0.158,-1.525 2.948,-0.369"
   id="13037"
   inkscape:label="Calhoun, GA"
   inkscape:connector-curvature="0" />
  <path
   style="fill:#72b3dc;stroke:#c2dffb;stroke-width:1"
   d="m 10.1,44.588 1.961,-0.195 0.32768,1.95921 1.43932,-0.11121 0.158,1.525 -1.497,0.25 -0.302,0.119 -0.212,0.068 L 11.727,48.23 11.489,47.829 10.29,44.84 10.1,44.588"
   id="13061"
   inkscape:label="Clay, GA"
   inkscape:connector-curvature="0" />
  <path
   style="fill:#72b3dc;stroke:#c2dffb;stroke-width:1"
   d="m 10.609,41.819 1.79,0.627 -0.338,1.947 -1.961,0.195 0.509,-2.769"
   id="13239"
   inkscape:label="Quitman, GA"
   inkscape:connector-curvature="0" />
  <path
   style="fill:#72b3dc;stroke:#c2dffb;stroke-width:1"
   d="m 15.131,42.181 0.608,-0.073 0.189,1.903 0.383,0.153 0.492,0.915 0.036,0.441 -0.036,0.253 -0.027,0.099 -2.948,0.369 -1.43932,0.10426 -0.32768,-1.95226 0.338,-1.947 2.732,-0.265"
   id="13243"
   inkscape:label="Randolph, GA"
   inkscape:connector-curvature="0" />
  <path
   style="fill:#72b3dc;stroke:#c2dffb;stroke-width:1"
   d="m 19.296,44.655 0.187,0.874 -1.656,0.208 -1.051,0.135 0.027,-0.099 0.036,-0.253 -0.036,-0.441 -0.492,-0.915 -0.383,-0.153 -0.189,-1.903 1.613,-0.815 1.293,1.068 0.651,2.294 z"
   id="13273"
   inkscape:label="Terrell, GA"
   inkscape:connector-curvature="0" />
  <path
   style="fill:#72b3dc;stroke:#c2dffb;stroke-width:1"
   d="m 23.09,41.307 -0.081,0.838 -0.533,2.641 -2.993,0.743 -0.187,-0.874 -0.651,-2.294 -0.066,-0.551 4.511,-0.503"
   id="13177"
   inkscape:label="Lee, GA"
   inkscape:connector-curvature="0" />
  <path
   style="fill:#72b3dc;stroke:#c2dffb;stroke-width:1"
   d="m 22.476,39.833 3.81,-0.46 0.261,2.235 -1.983,0.915 -1.555,-0.378 0.081,-0.838 -0.614,-1.474"
   id="13081"
   inkscape:label="Crisp, GA"
   inkscape:connector-curvature="0" />
  <path
   style="fill:#72b3dc;stroke:#c2dffb;stroke-width:1"
   d="m 26.547,41.608 1.442,-0.103 0.446,1.109 -0.238,2.168 -1.578,0.54 -0.411,-0.342 -0.328,-0.216 -0.095,-0.033 -0.856,0.1 -0.235,-1.767 -0.081,-0.509 -0.049,-0.032 1.983,-0.915"
   id="13287"
   inkscape:label="Turner, GA"
   inkscape:connector-curvature="0" />
  <path
   style="fill:#72b3dc;stroke:#c2dffb;stroke-width:1"
   d="m 27.989,41.505 3.276,-0.447 2.087,0.595 0.158,1.375 -1.28,0.248 -0.622,0.297 -0.97,0.095 -0.688,-0.252 -0.617,-0.91 -0.898,0.108 -0.446,-1.109"
   id="13017"
   inkscape:label="Ben Hill, GA"
   inkscape:connector-curvature="0" />
  <path
   style="fill:#72b3dc;stroke:#c2dffb;stroke-width:1"
   d="m 33.352,41.653 1.663,-0.698 0.253,1.853 2.271,-0.334 0.195,1.464 0.351,-0.045 0.149,1.136 -0.153,1.398 -2.056,0.279 -0.17,-0.166 -1.457,-0.299 -1.983,0.231 -0.154,-0.65 1.249,-2.794 -0.158,-1.375"
   id="13069"
   inkscape:label="Coffee, GA"
   inkscape:connector-curvature="0" />
  <path
   style="fill:#72b3dc;stroke:#c2dffb;stroke-width:1"
   d="m 38.617,41.825 0.838,0.464 0.513,0.266 0.726,0.189 1.249,0.618 0.109,0.117 0.094,0.185 -0.14,0.022 -0.59,0.573 0.045,0.324 -0.411,0.55 -0.8,0.293 -2.016,-0.397 -0.149,-1.136 -0.351,0.045 -0.195,-1.464 1.078,-0.649"
   id="13005"
   inkscape:label="Bacon, GA"
   inkscape:connector-curvature="0" />
  <path
   style="fill:#72b3dc;stroke:#c2dffb;stroke-width:1"
   d="m 43.521,39.594 0.932,0.356 3.791,2.7 0.591,1.027 -0.923,1.749 -0.39,-0.171 -0.436,-0.145 -0.514,0.202 -0.78,0.226 -1.212,-0.085 -0.117,-0.077 -1.186,-1.104 -0.572,-3.858 0.41,-0.676 0.406,-0.144"
   id="13305"
   inkscape:label="Wayne, GA"
   inkscape:connector-curvature="0" />
  <path
   style="fill:#72b3dc;stroke:#c2dffb;stroke-width:1"
   d="m 42.146,43.664 1.131,0.608 1.186,1.104 0.648,0.758 -0.026,0.279 -0.145,0.162 -1.807,1.222 -0.032,0 -1.014,-0.136 -1.837,-2.235 0.8,-0.293 0.411,-0.55 -0.045,-0.324 0.59,-0.573 0.14,-0.022"
   id="13229"
   inkscape:label="Pierce, GA"
   inkscape:connector-curvature="0" />
  <path
   style="fill:#72b3dc;stroke:#c2dffb;stroke-width:1"
   d="m 47.912,45.426 -0.073,2.105 -0.603,0.888 -0.7,0.221 -0.194,0.09 -0.068,0.109 -0.053,0.522 -1.416,-0.154 -0.095,0.865 -0.558,0.077 -2.065,-2.488 1.014,0.136 0.032,0 1.807,-1.222 0.145,-0.162 0.026,-0.279 -0.648,-0.758 0.117,0.077 1.212,0.085 0.78,-0.226 0.514,-0.202 0.436,0.145 0.39,0.171"
   id="13025"
   inkscape:label="Brantley, GA"
   inkscape:connector-curvature="0" />
  <path
   style="fill:#72b3dc;stroke:#c2dffb;stroke-width:1"
   d="m 38.234,45.029 2.016,0.397 1.837,2.235 2.065,2.488 -3.11,0.42 0.351,2.794 2.664,-0.329 0.32,0.036 -0.311,2.876 -2.263,0.139 -0.189,-0.383 -0.212,-1.144 -0.226,-1.488 -1.18,-1.695 -0.69,-0.514 -0.379,-0.383 -0.987,-1.684 0.141,-2.367 0.153,-1.398"
   id="13299"
   inkscape:label="Ware, GA"
   inkscape:connector-curvature="0" />
  <path
   style="fill:#72b3dc;stroke:#c2dffb;stroke-width:1"
   d="m 46.221,49.361 0.756,2.83 -1.206,0.703 -0.096,1.393 0.049,0.266 0.172,0.261 0.338,0.442 0.145,0.396 0.008,0.862 -0.059,0.882 -0.058,0.893 -1.262,0.244 -0.073,-0.015 -0.229,-0.18 -0.207,-0.297 -0.109,-0.288 -0.324,-1.807 0.311,-2.876 -0.32,-0.036 -2.664,0.329 -0.351,-2.794 3.11,-0.42 0.558,-0.077 0.095,-0.865 1.416,0.154"
   id="13049"
   inkscape:label="Charlton, GA"
   inkscape:connector-curvature="0" />
  <path
   style="fill:#72b3dc;stroke:#c2dffb;stroke-width:1"
   d="m 51.602,48.964 0.653,3.893 -0.17,0.019 -0.938,0.113 -0.686,0.031 -1.297,-0.144 -1.718,-0.369 -0.469,-0.316 -0.756,-2.83 0.053,-0.522 0.068,-0.109 0.194,-0.09 0.7,-0.221 0.603,-0.888 0.041,0.153 0.035,0.049 0.887,0.272 0.519,0.021 2.281,0.938"
   id="13039"
   inkscape:label="Camden, GA"
   inkscape:connector-curvature="0" />
  <path
   style="fill:#72b3dc;stroke:#c2dffb;stroke-width:1"
   d="m 52.99,45.12 -1.388,3.844 -2.281,-0.938 -0.519,-0.021 -0.887,-0.272 -0.035,-0.049 -0.041,-0.153 0.073,-2.105 0.923,-1.749 0.008,0.041 0.59,0.558 0.753,0.455 1.533,0.294 1.09,0.135 0.181,-0.04"
   id="13127"
   inkscape:label="Glynn, GA"
   inkscape:connector-curvature="0" />
  <path
   style="fill:#72b3dc;stroke:#c2dffb;stroke-width:1"
   d="m 49.79,40.315 0.356,0.103 0.536,0.375 0.28,0.067 0.789,-0.334 0.594,0.024 0.316,0.103 0.198,0.095 0.36,0.297 0.045,0.09 0.015,0.356 -0.289,3.629 -0.181,0.04 -1.09,-0.135 -1.533,-0.294 -0.753,-0.455 -0.59,-0.558 -0.008,-0.041 -0.591,-1.027 1.546,-2.335"
   id="13191"
   inkscape:label="McIntosh, GA"
   inkscape:connector-curvature="0" />
  <path
   style="fill:#72b3dc;stroke:#c2dffb;stroke-width:1"
   d="M 8.982,23.296 10.1,25.784 7.062,27.375 6.017,23.603 8.982,23.296"
   id="13149"
   inkscape:label="Heard, GA"
   inkscape:connector-curvature="0" />
  <path
   style="fill:#72b3dc;stroke:#c2dffb;stroke-width:1"
   d="m 4.345,17.612 1.24,-0.116 0.594,-0.149 1.723,-0.176 0.265,1.177 -0.045,0.725 -0.757,0.834 -1.632,0.807 -0.514,0.045 -0.874,-3.147"
   id="13143"
   inkscape:label="Haralson, GA"
   inkscape:connector-curvature="0" />
  <path
   style="fill:#72b3dc;stroke:#c2dffb;stroke-width:1"
   d="m 7.649,14.697 1.329,0.027 -0.39,1.757 -0.755,0.073 0.069,0.617 -1.723,0.176 -0.594,0.149 -1.24,0.116 L 4.124,16.824 3.714,15.35 5.445,15.174 5.426,14.958 7.649,14.697"
   id="13233"
   inkscape:label="Polk, GA"
   inkscape:connector-curvature="0" />
  <path
   style="fill:#72b3dc;stroke:#c2dffb;stroke-width:1"
   d="M 6.684,8.4 7.64,10.834 7.712,11.42 7.716,13.165 7.5,13.187 7.649,14.697 5.426,14.958 5.445,15.174 3.714,15.35 2.993,12.745 3.782,12.664 4.34,11.43 4.894,11.113 5.737,10.486 5.823,10.225 6.278,8.445 6.684,8.4"
   id="13115"
   inkscape:label="Floyd, GA"
   inkscape:connector-curvature="0" />
  <path
   style="fill:#72b3dc;stroke:#c2dffb;stroke-width:1"
   d="M 6.278,8.445 5.823,10.225 5.737,10.486 4.894,11.113 4.34,11.43 3.782,12.664 2.993,12.745 2.109,9.744 1.88,8.928 6.278,8.445"
   id="13055"
   inkscape:label="Chattooga, GA"
   inkscape:connector-curvature="0" />
  <path
   style="fill:#72b3dc;stroke:#c2dffb;stroke-width:1"
   d="M 7.05,3.127 8.785,2.924 8.572,3.753 7.911,6.629 7.878,7.058 8.24,7.607 6.828,7.923 6.679,6.67 5.44,6.805 5.454,6.697 5.625,6.169 5.742,5.475 6.401,5.277 6.648,4.767 7.045,3.325 7.018,3.132 7.05,3.127"
   id="13313"
   inkscape:label="Whitfield, GA"
   inkscape:connector-curvature="0" />
  <path
   style="fill:#72b3dc;stroke:#c2dffb;stroke-width:1"
   d="M 4.047,3.505 7.018,3.132 7.045,3.325 6.648,4.767 6.401,5.277 5.742,5.475 5.625,6.169 4.047,3.505"
   id="13047"
   inkscape:label="Catoosa, GA"
   inkscape:connector-curvature="0" />
  <path
   style="fill:#72b3dc;stroke:#c2dffb;stroke-width:1"
   d="M 4.047,3.505 5.625,6.169 5.454,6.697 5.44,6.805 6.679,6.67 6.828,7.923 6.684,8.4 6.278,8.445 1.88,8.928 1.754,8.485 2.145,7.842 2.438,6.638 2.381,6.151 2.619,4.678 3.02,3.645 4.047,3.505"
   id="13295"
   inkscape:label="Walker, GA"
   inkscape:connector-curvature="0" />
  <path
   style="fill:#72b3dc;stroke:#c2dffb;stroke-width:1"
   d="M 3.02,3.645 2.619,4.678 2.381,6.151 2.438,6.638 2.145,7.842 1.754,8.485 0.906,5.488 0.5,3.911 1.888,3.767 3.02,3.645"
   id="13083"
   inkscape:label="Dade, GA"
   inkscape:connector-curvature="0" />
  <path
   style="fill:#72b3dc;stroke:#c2dffb;stroke-width:1"
   d="m 45.585,36.831 0.275,0.334 0.604,1.226 0.031,0.139 1.542,1.191 1.663,0.598 0.09,-0.004 -1.546,2.335 -3.791,-2.7 1.132,-3.119"
   id="13183"
   inkscape:label="Long, GA"
   inkscape:connector-curvature="0" />
  <path
   style="fill:#72b3dc;stroke:#c2dffb;stroke-width:1"
   d="m 41.452,38.773 2.069,0.821 -0.406,0.144 -0.41,0.676 0.572,3.858 -1.131,-0.608 -0.094,-0.185 -0.109,-0.117 -1.249,-0.618 -0.726,-0.189 -0.513,-0.266 -0.838,-0.464 -0.221,-1.637 0.964,-0.13 -0.176,-1.29 -0.061,-0.35 2.329,0.355"
   id="13001"
   inkscape:label="Appling, GA"
   inkscape:connector-curvature="0" />
  <path
   style="fill:#72b3dc;stroke:#c2dffb;stroke-width:1"
   d="m 39.123,38.418 0.061,0.35 0.176,1.29 -0.964,0.13 0.221,1.637 -1.078,0.649 -2.271,0.334 -0.253,-1.853 1.88,-1.6 1.032,-0.672 0.654,-0.248 0.542,-0.017"
   id="13161"
   inkscape:label="Jeff Davis, GA"
   inkscape:connector-curvature="0" />
  <path
   style="fill:#72b3dc;stroke:#c2dffb;stroke-width:1"
   d="m 14.617,38.175 0.103,-0.019 0.108,0.091 0.086,0.733 0.072,0.87 -0.004,0.938 0.149,1.393 -2.732,0.265 -1.79,-0.627 -0.03,-0.964 1.172,-2.315 2.866,-0.365"
   id="13259"
   inkscape:label="Stewart, GA"
   inkscape:connector-curvature="0" />
  <path
   style="fill:#72b3dc;stroke:#c2dffb;stroke-width:1"
   d="m 14.72,38.156 0.307,-0.036 0.901,0.646 0.234,0.283 0.496,0.157 0.568,-0.064 0.126,2.151 -1.613,0.815 -0.608,0.073 -0.149,-1.393 0.004,-0.938 -0.072,-0.87 -0.086,-0.733 -0.108,-0.091"
   id="13307"
   inkscape:label="Webster, GA"
   inkscape:connector-curvature="0" />
  <path
   style="fill:#72b3dc;stroke:#c2dffb;stroke-width:1"
   d="m 19.772,37.584 1.754,0.54 0.95,1.709 0.614,1.474 -4.511,0.503 0.066,0.551 -1.293,-1.068 -0.126,-2.151 -0.036,-0.414 2.582,-1.144"
   id="13261"
   inkscape:label="Sumter, GA"
   inkscape:connector-curvature="0" />
  <path
   style="fill:#72b3dc;stroke:#c2dffb;stroke-width:1"
   d="m 29.093,37.989 1.776,2.439 0.396,0.63 -3.276,0.447 -1.442,0.103 -0.261,-2.235 -0.141,-1.153 1.277,-0.168 0.576,-0.17 0.195,-0.131 0.451,-0.046 0.12,0.027 0.329,0.257"
   id="13315"
   inkscape:label="Wilcox, GA"
   inkscape:connector-curvature="0" />
  <path
   style="fill:#72b3dc;stroke:#c2dffb;stroke-width:1"
   d="m 33.461,37.012 3.434,2.343 -1.88,1.6 -1.663,0.698 -2.087,-0.595 -0.396,-0.63 2.592,-3.416"
   id="13271"
   inkscape:label="Telfair, GA"
   inkscape:connector-curvature="0" />
  <path
   style="fill:#72b3dc;stroke:#c2dffb;stroke-width:1"
   d="m 35.368,34.474 0.733,0.044 0.1,0.015 0.09,0.256 0.383,1.289 0.083,0.686 0.323,1.018 0.112,0.197 0.049,0.082 0.686,0.622 -1.032,0.672 -3.434,-2.343 0.356,-0.844 1.551,-1.694"
   id="13309"
   inkscape:label="Wheeler, GA"
   inkscape:connector-curvature="0" />
  <path
   style="fill:#72b3dc;stroke:#c2dffb;stroke-width:1"
   d="m 28.706,35.871 1.974,-2.235 2.078,3.312 1.059,-0.78 -0.356,0.844 -2.592,3.416 -1.776,-2.439 0.27,-0.297 0.032,-0.104 0.068,-0.604 -1.015,-0.784 0.258,-0.329"
   id="13091"
   inkscape:label="Dodge, GA"
   inkscape:connector-curvature="0" />
  <path
   style="fill:#72b3dc;stroke:#c2dffb;stroke-width:1"
   d="m 28.706,35.871 -0.258,0.329 1.015,0.784 -0.068,0.604 -0.032,0.104 -0.27,0.297 -0.329,-0.257 -0.12,-0.027 -0.451,0.046 -0.195,0.131 -0.576,0.17 -1.277,0.168 -0.364,-2.173 1.072,-1.618 1.853,1.442"
   id="13235"
   inkscape:label="Pulaski, GA"
   inkscape:connector-curvature="0" />
  <path
   style="fill:#72b3dc;stroke:#c2dffb;stroke-width:1"
   d="m 25.781,36.047 0.364,2.173 0.141,1.153 -3.81,0.46 -0.95,-1.709 1.739,-1.779 2.516,-0.298"
   id="13093"
   inkscape:label="Dooly, GA"
   inkscape:connector-curvature="0" />
  <path
   style="fill:#72b3dc;stroke:#c2dffb;stroke-width:1"
   d="m 21.085,33.811 1.91,0.257 0.27,2.277 -1.739,1.779 -1.754,-0.54 -1.013,-1.731 1.924,-2.195 0.402,0.153"
   id="13193"
   inkscape:label="Macon, GA"
   inkscape:connector-curvature="0" />
  <path
   style="fill:#72b3dc;stroke:#c2dffb;stroke-width:1"
   d="m 17.546,35.668 1.213,0.185 1.013,1.731 -2.582,1.144 -0.095,-0.846 0.135,-0.609 0.186,-0.284 -0.208,-1.492 0.338,0.171 z m 0,0 0,0"
   id="13249"
   inkscape:label="Schley, GA"
   inkscape:connector-curvature="0" />
  <path
   style="fill:#72b3dc;stroke:#c2dffb;stroke-width:1"
   d="m 14.383,34.266 2.032,-0.599 0.793,1.83 0.208,1.492 -0.186,0.284 -0.135,0.609 0.095,0.846 0.036,0.414 -0.568,0.064 -0.496,-0.157 -0.234,-0.283 -0.901,-0.646 -0.307,0.036 -0.103,0.019 -0.234,-3.909"
   id="13197"
   inkscape:label="Marion, GA"
   inkscape:connector-curvature="0" />
  <path
   style="fill:#72b3dc;stroke:#c2dffb;stroke-width:1"
   d="m 14.383,34.266 0.234,3.909 -2.866,0.365 0.026,-0.037 0.09,-0.406 -0.108,-0.215 -0.266,-0.222 -0.716,-0.193 -0.068,-0.076 -0.023,-0.109 0.121,-0.46 1.115,-0.591 1.185,-0.338 0.685,-1.347 0.591,-0.28"
   id="13053"
   inkscape:label="Chattahoochee, GA"
   inkscape:connector-curvature="0" />
  <path
   style="fill:#72b3dc;stroke:#c2dffb;stroke-width:1"
   d="m 9.473,33.892 1.889,-0.216 0.036,0.311 2.29,-0.28 0.104,0.839 -0.685,1.347 -1.185,0.338 -1.115,0.591 -0.3,-1.78 -1.034,-1.15"
   id="13215"
   inkscape:label="Muscogee, GA"
   inkscape:connector-curvature="0" />
  <path
   style="fill:#72b3dc;stroke:#c2dffb;stroke-width:1"
   d="m 17.817,31.076 0.99,0.626 2.4,1.785 -0.524,0.171 -1.924,2.195 -1.213,-0.185 -0.338,-0.171 -0.793,-1.83 1.402,-2.591"
   id="13269"
   inkscape:label="Taylor, GA"
   inkscape:connector-curvature="0" />
  <path
   style="fill:#72b3dc;stroke:#c2dffb;stroke-width:1"
   d="m 15.243,29.641 0.096,-0.037 0.233,0.056 0.73,0.469 0.172,0.22 0.134,0.262 0.027,0.095 0.099,0.077 0.537,0.202 0.546,0.091 -1.402,2.591 -2.032,0.599 -0.591,0.28 -0.104,-0.839 -0.46,-3.339 2.015,-0.727"
   id="13263"
   inkscape:label="Talbot, GA"
   inkscape:connector-curvature="0" />
  <path
   style="fill:#72b3dc;stroke:#c2dffb;stroke-width:1"
   d="m 11.457,30.214 1.771,0.154 0.46,3.339 -2.29,0.28 -0.036,-0.311 -1.889,0.216 -0.779,-1.716 -0.689,-1.534 3.452,-0.428"
   id="13145"
   inkscape:label="Harris, GA"
   inkscape:connector-curvature="0" />
  <path
   style="fill:#72b3dc;stroke:#c2dffb;stroke-width:1"
   d="m 10.1,25.784 0.866,0.334 0.491,4.096 -3.452,0.428 -0.866,-2.997 -0.077,-0.27 3.038,-1.591"
   id="13285"
   inkscape:label="Troup, GA"
   inkscape:connector-curvature="0" />
  <path
   style="fill:#72b3dc;stroke:#c2dffb;stroke-width:1"
   d="m 8.167,18.348 1.492,0.234 1.298,2.547 -0.351,0.855 -1.624,1.312 -2.965,0.307 -0.194,-0.695 -0.604,-2.149 0.514,-0.045 1.632,-0.807 0.757,-0.834 0.045,-0.725"
   id="13045"
   inkscape:label="Carroll, GA"
   inkscape:connector-curvature="0" />
  <path
   style="fill:#72b3dc;stroke:#c2dffb;stroke-width:1"
   d="m 8.978,14.724 1.956,-0.19 0.185,1.699 0.173,-0.022 0.197,1.825 -1.83,0.546 -1.492,-0.234 -0.265,-1.177 -0.069,-0.617 0.755,-0.073 0.39,-1.757"
   id="13223"
   inkscape:label="Paulding, GA"
   inkscape:connector-curvature="0" />
  <path
   style="fill:#72b3dc;stroke:#c2dffb;stroke-width:1"
   d="M 10.754,2.682 10.988,4.389 11.394,4.7 11.421,4.74 11.417,4.781 11.191,5.169 10.912,5.475 10.786,6.07 11.038,7.941 8.24,7.607 7.878,7.058 7.911,6.629 8.572,3.753 8.785,2.924 9.144,2.879 10.754,2.682"
   id="13213"
   inkscape:label="Murray, GA"
   inkscape:connector-curvature="0" />
  <path
   style="fill:#72b3dc;stroke:#c2dffb;stroke-width:1"
   d="m 8.24,7.607 2.798,0.334 0.054,0.441 0.221,1.754 L 7.64,10.834 6.684,8.4 6.828,7.923 8.24,7.607"
   id="13129"
   inkscape:label="Gordon, GA"
   inkscape:connector-curvature="0" />
  <path
   style="fill:#72b3dc;stroke:#c2dffb;stroke-width:1"
   d="m 11.313,10.136 0.455,4.317 -2.79,0.271 L 7.649,14.697 7.5,13.187 7.716,13.165 7.712,11.42 7.64,10.834 11.313,10.136"
   id="13015"
   inkscape:label="Bartow, GA"
   inkscape:connector-curvature="0" />
  <path
   style="fill:#72b3dc;stroke:#c2dffb;stroke-width:1"
   d="m 11.768,14.453 2.542,-0.248 0.429,0.969 -0.38,1.569 -0.121,0.504 -0.063,0.186 -0.666,0.837 -0.366,0.384 -1.654,-0.618 -0.197,-1.825 -0.173,0.022 -0.185,-1.699 0.834,-0.081"
   id="13067"
   inkscape:label="Cobb, GA"
   inkscape:connector-curvature="0" />
  <path
   style="fill:#72b3dc;stroke:#c2dffb;stroke-width:1"
   d="m 9.659,18.582 1.83,-0.546 1.654,0.618 -0.668,1.069 -1.009,0.639 -0.41,0.473 -0.086,0.127 -0.013,0.167 -1.298,-2.547"
   id="13097"
   inkscape:label="Douglas, GA"
   inkscape:connector-curvature="0" />
  <path
   style="fill:#72b3dc;stroke:#c2dffb;stroke-width:1"
   d="m 10.606,21.984 2.577,-0.188 0.154,1.334 0.689,0.657 0.483,0.595 0.248,0.419 0.008,0.473 -3.799,0.844 -0.866,-0.334 -1.118,-2.488 1.624,-1.312"
   id="13077"
   inkscape:label="Coweta, GA"
   inkscape:connector-curvature="0" />
  <path
   style="fill:#72b3dc;stroke:#c2dffb;stroke-width:1"
   d="m 14.878,25.753 0.013,2.77 0.352,1.118 -2.015,0.727 -1.771,-0.154 -0.491,-4.096 3.799,-0.844 0.113,0.479"
   id="13199"
   inkscape:label="Meriwether, GA"
   inkscape:connector-curvature="0" />
  <path
   style="fill:#72b3dc;stroke:#c2dffb;stroke-width:1"
   d="m 14.878,25.753 0.446,-0.389 0.617,-0.066 0.244,0.211 1.337,-0.153 0.083,2.57 -2.714,0.597 -0.013,-2.77"
   id="13231"
   inkscape:label="Pike, GA"
   inkscape:connector-curvature="0" />
  <path
   style="fill:#72b3dc;stroke:#c2dffb;stroke-width:1"
   d="m 17.605,27.926 1.663,0.558 0.121,1.064 -0.582,2.154 -0.99,-0.626 -0.546,-0.091 -0.537,-0.202 -0.099,-0.077 -0.027,-0.095 -0.134,-0.262 -0.172,-0.22 -0.73,-0.469 -0.233,-0.056 -0.096,0.037 -0.352,-1.118 2.714,-0.597"
   id="13293"
   inkscape:label="Upson, GA"
   inkscape:connector-curvature="0" />
  <path
   style="fill:#72b3dc;stroke:#c2dffb;stroke-width:1"
   d="m 19.389,29.548 2.488,-0.298 2.308,1.74 0,0.004 -2.978,2.493 -2.4,-1.785 0.582,-2.154"
   id="13079"
   inkscape:label="Crawford, GA"
   inkscape:connector-curvature="0" />
  <path
   style="fill:#72b3dc;stroke:#c2dffb;stroke-width:1"
   d="m 21.207,33.487 2.978,-2.493 0.065,2.074 -0.016,0.143 -0.68,1.055 -0.198,0.126 -0.108,0.024 -0.253,-0.348 -1.91,-0.257 L 20.68265,33.65819 21.207,33.487"
   id="13225"
   inkscape:label="Peach, GA"
   inkscape:connector-curvature="0" />
  <path
   style="fill:#72b3dc;stroke:#c2dffb;stroke-width:1"
   d="m 24.185,30.994 0,-0.004 1.157,0.212 1.429,2.578 0.082,0.649 -1.072,1.618 -2.516,0.298 -0.27,-2.277 0.253,0.348 0.108,-0.024 0.198,-0.126 0.68,-1.055 0.016,-0.143 -0.065,-2.074"
   id="13153"
   inkscape:label="Houston, GA"
   inkscape:connector-curvature="0" />
  <path
   style="fill:#72b3dc;stroke:#c2dffb;stroke-width:1"
   d="m 30.68,33.636 -1.974,2.235 -1.853,-1.442 -0.082,-0.649 2.687,-2.083 1.222,1.939"
   id="13023"
   inkscape:label="Bleckley, GA"
   inkscape:connector-curvature="0" />
  <path
   style="fill:#72b3dc;stroke:#c2dffb;stroke-width:1"
   d="m 29.458,31.697 2.673,-1.983 0.997,-0.239 0.874,0.257 1.392,0.781 0.095,1.139 0.311,0.105 -0.432,2.717 -1.551,1.694 -1.059,0.78 -2.078,-3.312 -1.222,-1.939"
   id="13175"
   inkscape:label="Laurens, GA"
   inkscape:connector-curvature="0" />
  <path
   style="fill:#72b3dc;stroke:#c2dffb;stroke-width:1"
   d="m 27.467,27.501 1.946,-1.231 0.162,-0.134 0.162,0.009 0.727,0.684 0.58,0.952 0.484,0.167 0.18,0.112 0.288,0.452 0.153,0.53 -0.018,0.672 -2.673,1.983 -2.474,-3.767 0.483,-0.429"
   id="13319"
   inkscape:label="Wilkinson, GA"
   inkscape:connector-curvature="0" />
  <path
   style="fill:#72b3dc;stroke:#c2dffb;stroke-width:1"
   d="m 25.939,28.767 1.045,-0.837 2.474,3.767 -2.687,2.083 -1.429,-2.578 0.078,-0.974 0.694,-0.897 0.112,-0.329 -0.287,-0.235"
   id="13289"
   inkscape:label="Twiggs, GA"
   inkscape:connector-curvature="0" />
  <path
   style="fill:#72b3dc;stroke:#c2dffb;stroke-width:1"
   d="m 23.649,27.659 0.217,0.441 0.45,0.317 0.643,-0.081 0.375,0.085 0.605,0.346 0.287,0.235 -0.112,0.329 -0.694,0.897 -0.078,0.974 -1.157,-0.212 -2.308,-1.74 1.772,-1.591"
   id="13021"
   inkscape:label="Bibb, GA"
   inkscape:connector-curvature="0" />
  <path
   style="fill:#72b3dc;stroke:#c2dffb;stroke-width:1"
   d="m 27.908,24.031 0.221,-0.022 1.721,0.228 0.034,0.051 0.007,0.076 -0.013,0.104 -0.059,0.041 -0.04,0.108 -0.042,0.478 0.033,0.107 0.226,0.339 0.268,-0.226 0.195,-0.238 0.005,1.752 -0.727,-0.684 -0.162,-0.009 -0.162,0.134 -1.946,1.231 -1.208,-3.227 1.649,-0.243"
   id="13009"
   inkscape:label="Baldwin, GA"
   inkscape:connector-curvature="0" />
  <path
   style="fill:#72b3dc;stroke:#c2dffb;stroke-width:1"
   d="m 26.259,24.274 1.208,3.227 -0.483,0.429 -1.045,0.837 -0.605,-0.346 -0.375,-0.085 -0.643,0.081 -0.45,-0.317 -0.217,-0.441 -1.424,-2.154 2.817,-0.888 1.217,-0.343"
   id="13169"
   inkscape:label="Jones, GA"
   inkscape:connector-curvature="0" />
  <path
   style="fill:#72b3dc;stroke:#c2dffb;stroke-width:1"
   d="m 19.706,24.9 2.375,-0.009 0.144,0.614 1.424,2.154 -1.772,1.591 -2.488,0.298 -0.121,-1.064 0.742,-0.081 0.082,-0.226 -0.386,-3.277"
   id="13207"
   inkscape:label="Monroe, GA"
   inkscape:connector-curvature="0" />
  <path
   style="fill:#72b3dc;stroke:#c2dffb;stroke-width:1"
   d="m 19.706,24.9 0.386,3.277 -0.082,0.226 -0.742,0.081 -1.663,-0.558 -0.083,-2.57 1.304,-0.347 0.88,-0.109"
   id="13171"
   inkscape:label="Lamar, GA"
   inkscape:connector-curvature="0" />
  <path
   style="fill:#72b3dc;stroke:#c2dffb;stroke-width:1"
   d="m 15.775,23.435 0.356,-0.044 2.767,0.365 -0.072,1.253 -1.304,0.347 -1.337,0.153 -0.244,-0.211 -0.617,0.066 -0.446,0.389 -0.113,-0.479 -0.008,-0.473 1.018,-1.366"
   id="13255"
   inkscape:label="Spalding, GA"
   inkscape:connector-curvature="0" />
  <path
   style="fill:#72b3dc;stroke:#c2dffb;stroke-width:1"
   d="m 13.183,21.796 1.529,-0.822 1.063,2.461 -1.018,1.366 -0.248,-0.419 -0.483,-0.595 -0.689,-0.657 -0.154,-1.334"
   id="13113"
   inkscape:label="Fayette, GA"
   inkscape:connector-curvature="0" />
  <path
   style="fill:#72b3dc;stroke:#c2dffb;stroke-width:1"
   d="m 16.438,19.51 0.225,0.18 0.104,0.627 0.012,0.428 -0.139,1.501 -0.09,0.117 -0.509,0.231 0.09,0.797 -0.356,0.044 -1.063,-2.461 0.995,-1.387 0.731,-0.077"
   id="13063"
   inkscape:label="Clayton, GA"
   inkscape:connector-curvature="0" />
  <path
   style="fill:#72b3dc;stroke:#c2dffb;stroke-width:1"
   d="m 20.552,21.548 0.78,0.982 0.749,2.361 -2.375,0.009 -0.88,0.109 0.072,-1.253 1.654,-2.208"
   id="13035"
   inkscape:label="Butts, GA"
   inkscape:connector-curvature="0" />
  <path
   style="fill:#72b3dc;stroke:#c2dffb;stroke-width:1"
   d="m 16.438,19.51 1.031,-0.113 1.682,1.348 1.401,0.803 -1.654,2.208 -2.767,-0.365 -0.09,-0.797 0.509,-0.231 0.09,-0.117 0.139,-1.501 -0.012,-0.428 -0.104,-0.627 -0.225,-0.18"
   id="13151"
   inkscape:label="Henry, GA"
   inkscape:connector-curvature="0" />
  <path
   style="fill:#72b3dc;stroke:#c2dffb;stroke-width:1"
   d="m 15.991,15.508 3.006,2.3 -0.306,0.382 -0.613,1.32 -0.609,-0.113 -1.031,0.113 -0.731,0.077 -0.108,-0.951 -0.086,-0.78 -0.012,-0.122 -0.262,-2.176 0.752,-0.05"
   id="13089"
   inkscape:label="DeKalb, GA"
   inkscape:connector-curvature="0" />
  <path
   style="fill:#72b3dc;stroke:#c2dffb;stroke-width:1"
   d="m 15.815,12.547 1.92,1.528 -1.744,1.433 -0.752,0.05 0.262,2.176 0.012,0.122 0.086,0.78 0.108,0.951 -0.995,1.387 -1.529,0.822 -2.577,0.188 0.351,-0.855 0.013,-0.167 0.086,-0.127 0.41,-0.473 1.009,-0.639 0.668,-1.069 0.366,-0.384 0.666,-0.837 0.063,-0.186 0.121,-0.504 0.38,-1.569 -0.429,-0.969 1.505,-1.658"
   id="13121"
   inkscape:label="Fulton, GA"
   inkscape:connector-curvature="0" />
  <path
   style="fill:#72b3dc;stroke:#c2dffb;stroke-width:1"
   d="m 15.522,10.036 0.059,0.591 0.234,1.92 -1.505,1.658 -2.542,0.248 -0.455,-4.317 4.209,-0.1"
   id="13057"
   inkscape:label="Cherokee, GA"
   inkscape:connector-curvature="0" />
  <path
   style="fill:#72b3dc;stroke:#c2dffb;stroke-width:1"
   d="m 11.092,8.382 0.982,-0.14 1.983,-0.216 0.248,-0.217 0.023,0.186 0.401,1.005 0.662,-0.076 0.131,1.112 -4.209,0.1 -0.221,-1.754"
   id="13227"
   inkscape:label="Pickens, GA"
   inkscape:connector-curvature="0" />
  <path
   style="fill:#72b3dc;stroke:#c2dffb;stroke-width:1"
   d="m 15.775,6.908 0.112,0.185 2.489,2.091 0.374,1.064 -3.169,0.379 L 15.522,10.036 15.391,8.924 14.729,9 14.328,7.995 14.305,7.809 15.775,6.908"
   id="13085"
   inkscape:label="Dawson, GA"
   inkscape:connector-curvature="0" />
  <path
   style="fill:#72b3dc;stroke:#c2dffb;stroke-width:1"
   d="m 15.581,10.627 3.169,-0.379 -0.844,2.275 -0.171,1.552 -1.92,-1.528 -0.234,-1.92"
   id="13117"
   inkscape:label="Forsyth, GA"
   inkscape:connector-curvature="0" />
  <path
   style="fill:#72b3dc;stroke:#c2dffb;stroke-width:1"
   d="m 20.556,12.714 0.529,2.513 -1.7,2.097 -0.388,0.484 -3.006,-2.3 1.744,-1.433 0.171,-1.552 2.65,0.191"
   id="13135"
   inkscape:label="Gwinnett, GA"
   inkscape:connector-curvature="0" />
  <path
   style="fill:#72b3dc;stroke:#c2dffb;stroke-width:1"
   d="m 20.165,17.77 -1.014,2.975 -1.682,-1.348 0.609,0.113 0.613,-1.32 0.306,-0.382 0.388,-0.484 0.78,0.446"
   id="13247"
   inkscape:label="Rockdale, GA"
   inkscape:connector-curvature="0" />
  <path
   style="fill:#72b3dc;stroke:#c2dffb;stroke-width:1"
   d="m 24.721,21.227 0.321,3.39 -2.817,0.888 -0.144,-0.614 -0.749,-2.361 1.659,-2.276 1.73,0.973"
   id="13159"
   inkscape:label="Jasper, GA"
   inkscape:connector-curvature="0" />
  <path
   style="fill:#72b3dc;stroke:#c2dffb;stroke-width:1"
   d="m 20.165,17.77 2.722,1.574 0.104,0.91 -1.659,2.276 -0.78,-0.982 -1.401,-0.803 1.014,-2.975"
   id="13217"
   inkscape:label="Newton, GA"
   inkscape:connector-curvature="0" />
  <path
   style="fill:#72b3dc;stroke:#c2dffb;stroke-width:1"
   d="m 21.085,15.227 1.644,0.096 1.641,0.942 -1.483,3.079 -2.722,-1.574 -0.78,-0.446 1.7,-2.097"
   id="13297"
   inkscape:label="Walton, GA"
   inkscape:connector-curvature="0" />
  <path
   style="fill:#72b3dc;stroke:#c2dffb;stroke-width:1"
   d="m 20.556,12.714 0.416,0.522 0.18,0.113 0.996,0.199 0.256,-0.032 0.874,0.004 0.123,0.073 0.383,0.811 -1.055,0.919 -1.644,-0.096 -0.529,-2.513"
   id="13013"
   inkscape:label="Barrow, GA"
   inkscape:connector-curvature="0" />
  <path
   style="fill:#72b3dc;stroke:#c2dffb;stroke-width:1"
   d="m 24.806,11.239 0.717,1.956 -1.739,1.209 -0.383,-0.811 -0.123,-0.073 -0.874,-0.004 -0.256,0.032 -0.996,-0.199 -0.18,-0.113 -0.416,-0.522 1.799,-2.43 0.329,0.266 0.217,0.14 0.126,0.045 0.459,-0.09 0.392,-0.127 0.659,0.492 0.269,0.229"
   id="13157"
   inkscape:label="Jackson, GA"
   inkscape:connector-curvature="0" />
  <path
   style="fill:#72b3dc;stroke:#c2dffb;stroke-width:1"
   d="m 25.523,13.195 1.146,0.389 -0.086,0.004 -0.059,0.599 0.009,0.037 0.05,0.112 0.437,0.441 -0.27,0.772 -2.966,-1.145 1.739,-1.209"
   id="13059"
   inkscape:label="Clarke, GA"
   inkscape:connector-curvature="0" />
  <path
   style="fill:#72b3dc;stroke:#c2dffb;stroke-width:1"
   d="m 22.729,15.323 1.055,-0.919 2.966,1.145 0.094,1.117 -1.217,0.991 -1.257,-1.392 -1.641,-0.942"
   id="13219"
   inkscape:label="Oconee, GA"
   inkscape:connector-curvature="0" />
  <path
   style="fill:#72b3dc;stroke:#c2dffb;stroke-width:1"
   d="m 25.627,17.657 1.705,2.583 -2.611,0.987 -1.73,-0.973 -0.104,-0.91 1.483,-3.079 1.257,1.392"
   id="13211"
   inkscape:label="Morgan, GA"
   inkscape:connector-curvature="0" />
  <path
   style="fill:#72b3dc;stroke:#c2dffb;stroke-width:1"
   d="m 24.721,21.227 2.611,-0.987 1.45,1.479 0.154,0.086 0.079,0.071 0.02,0.041 -0.09,0.424 -0.429,0.342 -0.293,0.153 -0.221,0.244 -0.117,0.77 0.004,0.131 0.019,0.05 -1.649,0.243 -1.217,0.343 -0.321,-3.39"
   id="13237"
   inkscape:label="Putnam, GA"
   inkscape:connector-curvature="0" />
  <path
   style="fill:#72b3dc;stroke:#c2dffb;stroke-width:1"
   d="m 31.941,20.132 0.343,0.176 0.568,1.433 0.451,0.681 0.107,0.184 -0.315,0.046 -0.733,0.644 -0.109,0.217 -0.086,0.369 -0.073,0.213 -0.111,0.147 -1.056,0.767 -0.468,0.068 -0.195,0.238 -0.268,0.226 -0.226,-0.339 -0.033,-0.107 0.042,-0.478 0.04,-0.108 0.059,-0.041 0.013,-0.104 -0.007,-0.076 -0.034,-0.051 -1.721,-0.228 -0.221,0.022 -0.019,-0.05 -0.004,-0.131 0.117,-0.77 0.221,-0.244 0.293,-0.153 0.429,-0.342 0.09,-0.424 -0.02,-0.041 -0.079,-0.071 -0.154,-0.086 1.406,-1.681 1.753,0.094"
   id="13141"
   inkscape:label="Hancock, GA"
   inkscape:connector-curvature="0" />
  <path
   style="fill:#72b3dc;stroke:#c2dffb;stroke-width:1"
   d="m 30.401,16.554 0.779,1.18 0.153,0.163 0.023,0 1.307,-0.14 0.82,0.108 -0.347,0.536 -0.996,0.871 -0.351,0.549 -0.014,0.054 0.166,0.257 -1.753,-0.094 -0.212,-2.907 0.425,-0.577"
   id="13265"
   inkscape:label="Taliaferro, GA"
   inkscape:connector-curvature="0" />
  <path
   style="fill:#72b3dc;stroke:#c2dffb;stroke-width:1"
   d="m 29.976,17.131 0.212,2.907 -1.406,1.681 -1.45,-1.479 -1.705,-2.583 1.217,-0.991 3.132,0.465"
   id="13133"
   inkscape:label="Greene, GA"
   inkscape:connector-curvature="0" />
  <path
   style="fill:#72b3dc;stroke:#c2dffb;stroke-width:1"
   d="m 29.562,12.61 2.203,0.645 -0.666,0.5 -0.216,0.261 -0.568,1.033 -0.402,0.887 -0.004,0.063 0.492,0.555 -0.425,0.577 -3.132,-0.465 -0.094,-1.117 0.27,-0.772 -0.437,-0.441 -0.05,-0.112 -0.009,-0.037 0.059,-0.599 0.086,-0.004 1.229,-0.785 0.077,-0.009 0.154,0.09 0.577,0.168 0.144,0.017 0.712,-0.455"
   id="13221"
   inkscape:label="Oglethorpe, GA"
   inkscape:connector-curvature="0" />
  <path
   style="fill:#72b3dc;stroke:#c2dffb;stroke-width:1"
   d="m 31.765,13.255 1.38,-0.375 2.389,4.178 -1.744,0.649 -0.307,0.158 -0.82,-0.108 -1.307,0.14 -0.023,0 -0.153,-0.163 -0.779,-1.18 -0.492,-0.555 0.004,-0.063 0.402,-0.887 0.568,-1.033 0.216,-0.261 0.666,-0.5"
   id="13317"
   inkscape:label="Wilkes, GA"
   inkscape:connector-curvature="0" />
  <path
   style="fill:#72b3dc;stroke:#c2dffb;stroke-width:1"
   d="m 33.79,17.707 0.649,1.289 0.974,1.812 0.472,0.144 1.267,0.158 -0.442,0.55 -0.775,-0.266 -0.68,-0.211 -0.316,0.117 -1.636,1.122 -0.451,-0.681 -0.568,-1.433 -0.343,-0.176 -0.166,-0.257 0.014,-0.054 0.351,-0.549 0.996,-0.871 0.347,-0.536 0.307,-0.158"
   id="13301"
   inkscape:label="Warren, GA"
   inkscape:connector-curvature="0" />
  <path
   style="fill:#72b3dc;stroke:#c2dffb;stroke-width:1"
   d="m 36.089,16.833 -0.095,0.131 -0.009,0.171 0.176,1.013 0.708,0.989 0.964,1.162 0.193,0.126 -0.554,0.635 -0.32,0.05 -1.267,-0.158 -0.472,-0.144 -0.974,-1.812 -0.649,-1.289 1.744,-0.649 0.555,-0.225"
   id="13189"
   inkscape:label="McDuffie, GA"
   inkscape:connector-curvature="0" />
  <path
   style="fill:#72b3dc;stroke:#c2dffb;stroke-width:1"
   d="m 33.303,22.422 1.636,-1.122 0.316,-0.117 0.68,0.211 0.775,0.266 -0.369,0.379 -1.069,1.181 0.036,0.121 0.086,0.546 -0.861,0.027 -1.123,-1.308 -0.107,-0.184"
   id="13125"
   inkscape:label="Glascock, GA"
   inkscape:connector-curvature="0" />
  <path
   style="fill:#72b3dc;stroke:#c2dffb;stroke-width:1"
   d="m 37.152,21.11 0.32,-0.05 0.995,0.443 0.06,0.013 0.09,0.072 0.293,0.325 -0.221,1.055 -0.072,0.567 -0.018,0.627 0.081,0.319 0.121,0.366 0.23,0.887 -0.134,0.784 -0.144,0.586 -1.123,1.127 -1.041,-0.635 -0.239,-1.412 -0.482,-0.995 -0.032,0.004 -0.392,-0.202 -0.437,-0.334 -0.176,-0.235 -0.298,-0.508 0.861,-0.027 -0.086,-0.546 -0.036,-0.121 1.069,-1.181 0.369,-0.379 0.442,-0.55"
   id="13163"
   inkscape:label="Jefferson, GA"
   inkscape:connector-curvature="0" />
  <path
   style="fill:#72b3dc;stroke:#c2dffb;stroke-width:1"
   d="m 34.533,23.914 0.298,0.508 0.176,0.235 0.437,0.334 0.392,0.202 0.032,-0.004 0.482,0.995 0.239,1.412 -0.902,0.451 -0.587,0.274 -1.179,0.015 -0.316,-0.154 -1.456,0.86 -0.153,-0.53 -0.288,-0.452 -0.18,-0.112 -0.484,-0.167 -0.58,-0.952 -0.005,-1.752 0.468,-0.068 1.056,-0.767 0.111,-0.147 0.073,-0.213 0.086,-0.369 0.109,-0.217 0.733,-0.644 0.315,-0.046 1.123,1.308"
   id="13303"
   inkscape:label="Washington, GA"
   inkscape:connector-curvature="0" />
  <path
   style="fill:#72b3dc;stroke:#c2dffb;stroke-width:1"
   d="m 37.63,28.231 -1.83,3.526 -0.311,-0.105 -0.095,-1.139 -1.392,-0.781 -0.874,-0.257 -0.997,0.239 0.018,-0.672 1.456,-0.86 0.316,0.154 1.179,-0.015 0.587,-0.274 0.902,-0.451 1.041,0.635"
   id="13167"
   inkscape:label="Johnson, GA"
   inkscape:connector-curvature="0" />
  <path
   style="fill:#72b3dc;stroke:#c2dffb;stroke-width:1"
   d="m 35.8,31.757 1.623,-0.041 0.284,0.081 0.95,0.396 0.104,0.09 -0.023,0.635 -0.09,0.506 -2.547,1.094 -0.733,-0.044 0.432,-2.717"
   id="13283"
   inkscape:label="Treutlen, GA"
   inkscape:connector-curvature="0" />
  <path
   style="fill:#72b3dc;stroke:#c2dffb;stroke-width:1"
   d="m 38.648,33.424 -0.067,5.011 -0.654,0.248 -0.686,-0.622 -0.049,-0.082 -0.112,-0.197 -0.323,-1.018 -0.083,-0.686 -0.383,-1.289 -0.09,-0.256 -0.1,-0.015 2.547,-1.094"
   id="13209"
   inkscape:label="Montgomery, GA"
   inkscape:connector-curvature="0" />
  <path
   style="fill:#72b3dc;stroke:#c2dffb;stroke-width:1"
   d="m 38.648,33.424 1.961,0.175 0.739,2.213 0.104,2.961 -2.329,-0.355 -0.542,0.017 0.067,-5.011"
   id="13279"
   inkscape:label="Toombs, GA"
   inkscape:connector-curvature="0" />
  <path
   style="fill:#72b3dc;stroke:#c2dffb;stroke-width:1"
   d="m 46.198,36.308 0.383,-0.599 0.928,0.423 1.916,0.644 0.793,0.272 0.09,0.152 0.348,0.83 0.021,0.09 -0.003,0.036 0.116,0.104 0.816,0.599 1.236,0.6 0.067,0.021 -0.039,0.096 0.219,0.198 0.293,0.085 0.068,-0.04 0.017,-0.062 0.028,-0.019 0.108,-0.022 0.095,0.036 0.076,0.532 0.045,0.397 -0.185,0.72 -0.108,0.207 -0.063,0.014 -0.184,-0.131 -0.015,-0.356 -0.045,-0.09 -0.36,-0.297 -0.198,-0.095 -0.316,-0.103 -0.594,-0.024 -0.789,0.334 -0.28,-0.067 -0.536,-0.375 -0.356,-0.103 -0.09,0.004 -1.663,-0.598 -1.542,-1.191 -0.031,-0.139 -0.604,-1.226 -0.275,-0.334 0.613,-0.523"
   id="13179"
   inkscape:label="Liberty, GA"
   inkscape:connector-curvature="0" />
  <path
   style="fill:#72b3dc;stroke:#c2dffb;stroke-width:1"
   d="m 42.917,33.78 0.626,0.039 2.236,1.187 0.802,0.703 -0.383,0.599 -1.38,0.176 -1.041,-0.253 -0.86,-2.451"
   id="13109"
   inkscape:label="Evans, GA"
   inkscape:connector-curvature="0" />
  <path
   style="fill:#72b3dc;stroke:#c2dffb;stroke-width:1"
   d="m 40.609,33.599 2.308,0.181 0.86,2.451 1.041,0.253 1.38,-0.176 -0.613,0.523 -1.132,3.119 -0.932,-0.356 -2.069,-0.821 -0.104,-2.961 -0.739,-2.213"
   id="13267"
   inkscape:label="Tattnall, GA"
   inkscape:connector-curvature="0" />
  <path
   style="fill:#72b3dc;stroke:#c2dffb;stroke-width:1"
   d="m 42.371,30.462 0.685,0.235 0.748,1.172 -0.17,1.64 -0.091,0.31 -0.626,-0.039 -2.308,-0.181 -0.217,-0.531 0.483,-1.537 0.261,-0.65 0.663,-0.613 0.572,0.194"
   id="13043"
   inkscape:label="Candler, GA"
   inkscape:connector-curvature="0" />
  <path
   style="fill:#72b3dc;stroke:#c2dffb;stroke-width:1"
   d="m 40.628,27.137 1.923,2.411 -0.18,0.914 -0.572,-0.194 -0.663,0.613 -0.261,0.65 -0.483,1.537 0.217,0.531 -1.961,-0.175 0.09,-0.506 0.023,-0.635 -0.104,-0.09 -0.95,-0.396 -0.284,-0.081 -1.623,0.041 1.83,-3.526 1.123,-1.127 1.875,0.033"
   id="13107"
   inkscape:label="Emanuel, GA"
   inkscape:connector-curvature="0" />
  <path
   style="fill:#72b3dc;stroke:#c2dffb;stroke-width:1"
   d="m 52.701,33.022 0.056,0.252 0.102,0.515 0.14,0.559 0.05,0.049 0.609,0.235 2.005,0.378 0.374,0.041 0.103,0.018 0.054,0.157 0,0.113 -0.04,0.198 -0.113,0.266 -1.807,2.912 -0.081,0.113 -0.506,0.58 -0.076,0.036 -0.247,-0.053 -0.361,-1.095 -0.5,-1.312 -1.249,-0.834 -0.897,-0.799 -0.231,-0.264 2.615,-2.065"
   id="13051"
   inkscape:label="Chatham, GA"
   inkscape:connector-curvature="0" />
  <path
   style="fill:#72b3dc;stroke:#c2dffb;stroke-width:1"
   d="m 45.779,35.006 3.547,-1.704 0.76,1.785 0.231,0.264 0.897,0.799 1.249,0.834 0.5,1.312 0.361,1.095 -0.415,0.089 -0.067,-0.021 -1.236,-0.6 -0.816,-0.599 -0.116,-0.104 0.003,-0.036 -0.021,-0.09 -0.348,-0.83 -0.09,-0.152 -0.793,-0.272 -1.916,-0.644 -0.928,-0.423 -0.802,-0.703"
   id="13029"
   inkscape:label="Bryan, GA"
   inkscape:connector-curvature="0" />
  <path
   style="fill:#72b3dc;stroke:#c2dffb;stroke-width:1"
   d="m 44.187,28.749 3.452,1.565 1.687,2.988 -3.547,1.704 -2.236,-1.187 0.091,-0.31 0.17,-1.64 -0.748,-1.172 -0.685,-0.235 0.18,-0.914 1.636,-0.799"
   id="13031"
   inkscape:label="Bulloch, GA"
   inkscape:connector-curvature="0" />
  <path
   style="fill:#72b3dc;stroke:#c2dffb;stroke-width:1"
   d="m 40.628,27.137 -0.046,-0.086 0.139,-0.857 0.389,-0.492 2.324,-0.819 0.362,0.053 0.463,0.15 0.113,0.08 0.099,0.136 -0.284,3.447 -1.636,0.799 -1.923,-2.411"
   id="13165"
   inkscape:label="Jenkins, GA"
   inkscape:connector-curvature="0" />
  <path
   style="fill:#72b3dc;stroke:#c2dffb;stroke-width:1"
   d="m 49.123,28.695 1.127,0.451 0.207,0.077 0.96,0.793 1.144,2.321 0.14,0.685 -2.615,2.065 -0.76,-1.785 -1.687,-2.988 1.484,-1.619"
   id="13103"
   inkscape:label="Effingham, GA"
   inkscape:connector-curvature="0" />
  <path
   style="fill:#72b3dc;stroke:#c2dffb;stroke-width:1"
   d="m 44.471,25.302 2.137,-2.11 2.05,3.619 0.465,1.884 -1.484,1.619 -3.452,-1.565 0.284,-3.447"
   id="13251"
   inkscape:label="Screven, GA"
   inkscape:connector-curvature="0" />
  <path
   style="fill:#72b3dc;stroke:#c2dffb;stroke-width:1"
   d="m 38.467,21.503 0.974,-0.529 0.072,0.005 0.352,0.204 0.076,0.152 0.636,0.244 1.037,-0.009 0.883,-0.568 0.425,0.103 1.003,0.758 1.799,0.843 0.884,0.486 -2.137,2.11 -0.099,-0.136 -0.113,-0.08 -0.463,-0.15 -0.362,-0.053 -2.324,0.819 -0.389,0.492 -0.139,0.857 0.046,0.086 -1.875,-0.033 0.144,-0.586 0.134,-0.784 -0.23,-0.887 -0.121,-0.366 -0.081,-0.319 0.018,-0.627 0.072,-0.567 0.221,-1.055 -0.293,-0.325 -0.09,-0.072 -0.06,-0.013"
   id="13033"
   inkscape:label="Burke, GA"
   inkscape:connector-curvature="0" />
  <path
   style="fill:#72b3dc;stroke:#c2dffb;stroke-width:1"
   d="m 40.483,17.576 0.175,0.163 0.091,0.086 0.505,0.478 0.715,0.834 0.253,0.977 0.7,0.991 -0.425,-0.103 -0.883,0.568 -1.037,0.009 -0.636,-0.244 -0.076,-0.152 -0.352,-0.204 -0.072,-0.005 -0.974,0.529 -0.995,-0.443 0.554,-0.635 2.457,-2.849"
   id="13245"
   inkscape:label="Richmond, GA"
   inkscape:connector-curvature="0" />
  <path
   style="fill:#72b3dc;stroke:#c2dffb;stroke-width:1"
   d="m 38.207,16.058 1.234,1.077 1.042,0.441 -2.457,2.849 -0.193,-0.126 -0.964,-1.162 -0.708,-0.989 -0.176,-1.013 0.009,-0.171 0.095,-0.131 2.118,-0.775"
   id="13073"
   inkscape:label="Columbia, GA"
   inkscape:connector-curvature="0" />
  <path
   style="fill:#72b3dc;stroke:#c2dffb;stroke-width:1"
   d="m 33.145,12.88 0.911,0.249 1.595,0.95 0.067,0.018 0.15,-0.058 0.049,0.004 0.92,0.464 0.279,0.199 0.663,0.545 0.428,0.807 -2.118,0.775 -0.555,0.225 -2.389,-4.178"
   id="13181"
   inkscape:label="Lincoln, GA"
   inkscape:connector-curvature="0" />
  <path
   style="fill:#72b3dc;stroke:#c2dffb;stroke-width:1"
   d="m 31.342,9.112 0.397,1.033 1.875,2.312 0.442,0.672 -0.911,-0.249 -1.38,0.375 -2.203,-0.645 -1.388,-2.209 3.168,-1.289"
   id="13105"
   inkscape:label="Elbert, GA"
   inkscape:connector-curvature="0" />
  <path
   style="fill:#72b3dc;stroke:#c2dffb;stroke-width:1"
   d="m 27.718,9.852 0.456,0.549 1.388,2.209 -0.712,0.455 -0.144,-0.017 -0.577,-0.168 -0.154,-0.09 -0.077,0.009 -1.229,0.785 -1.146,-0.389 -0.717,-1.956 0.452,-0.405 2.46,-0.982"
   id="13195"
   inkscape:label="Madison, GA"
   inkscape:connector-curvature="0" />
  <path
   style="fill:#72b3dc;stroke:#c2dffb;stroke-width:1"
   d="m 24.402,7.846 0.856,2.988 -0.452,0.405 -0.269,-0.229 -0.659,-0.492 -0.392,0.127 -0.459,0.09 L 22.901,10.69 22.684,10.55 22.355,10.284 22.184,8.53 23.72,7.674 24.402,7.846"
   id="13011"
   inkscape:label="Banks, GA"
   inkscape:connector-curvature="0" />
  <path
   style="fill:#72b3dc;stroke:#c2dffb;stroke-width:1"
   d="m 21.517,7.67 0.667,0.86 0.171,1.754 -1.799,2.43 -2.65,-0.191 L 18.75,10.248 18.376,9.184 19.66,7.887 21.517,7.67"
   id="13139"
   inkscape:label="Hall, GA"
   inkscape:connector-curvature="0" />
  <path
   style="fill:#72b3dc;stroke:#c2dffb;stroke-width:1"
   d="M 19.164,5.114 19.66,7.887 18.376,9.184 15.887,7.093 16.136,6.458 16.942,6.296 17.807,5.484 19.164,5.114"
   id="13187"
   inkscape:label="Lumpkin, GA"
   inkscape:connector-curvature="0" />
  <path
   style="fill:#72b3dc;stroke:#c2dffb;stroke-width:1"
   d="m 10.988,4.389 2.002,-0.234 0.599,0.068 0.46,0.289 0.244,0.183 0.743,0.996 0.626,0.91 0.113,0.307 -1.47,0.901 -0.248,0.217 -1.983,0.216 -0.982,0.14 L 11.038,7.941 10.786,6.07 10.912,5.475 11.191,5.169 11.417,4.781 11.421,4.74 11.394,4.7 10.988,4.389"
   id="13123"
   inkscape:label="Gilmer, GA"
   inkscape:connector-curvature="0" />
  <path
   style="fill:#72b3dc;stroke:#c2dffb;stroke-width:1"
   d="m 13.877,2.298 2.007,-0.235 -0.419,0.447 -0.038,0.072 0.01,0.067 0.617,1.74 0.199,0.13 L 16.451,4.457 16.402,5.813 16.136,6.458 15.887,7.093 15.775,6.908 15.662,6.601 15.036,5.691 14.293,4.695 14.049,4.512 13.589,4.223 12.99,4.155 10.988,4.389 10.754,2.682 13.877,2.298"
   id="13111"
   inkscape:label="Fannin, GA"
   inkscape:connector-curvature="0" />
  <path
   style="fill:#72b3dc;stroke:#c2dffb;stroke-width:1"
   d="m 17.176,1.901 0.718,-0.094 -0.063,0.238 0.334,0.32 0.639,0.361 0.305,-0.023 0.308,0.176 0.383,0.897 0.045,0.324 -0.681,1.014 -1.357,0.37 -0.865,0.812 -0.806,0.162 0.266,-0.645 0.049,-1.356 -0.198,0.062 -0.199,-0.13 -0.617,-1.74 -0.01,-0.067 0.038,-0.072 0.419,-0.447 1.292,-0.162"
   id="13291"
   inkscape:label="Union, GA"
   inkscape:connector-curvature="0" />
  <path
   style="fill:#72b3dc;stroke:#c2dffb;stroke-width:1"
   d="m 19.845,4.1 1.018,-0.23 0.555,0.32 0.072,0.122 0.072,0.325 0.405,2.456 L 21.517,7.67 19.66,7.887 19.164,5.114 19.845,4.1"
   id="13311"
   inkscape:label="White, GA"
   inkscape:connector-curvature="0" />
  <path
   style="fill:#72b3dc;stroke:#c2dffb;stroke-width:1"
   d="m 21.134,3.542 3.307,0.96 0.208,0.347 L 23.72,7.674 22.184,8.53 21.517,7.67 21.967,7.093 21.562,4.637 21.49,4.312 21.418,4.19 20.863,3.87 21.134,3.542"
   id="13137"
   inkscape:label="Habersham, GA"
   inkscape:connector-curvature="0" />
  <path
   style="fill:#72b3dc;stroke:#c2dffb;stroke-width:1"
   d="m 27.971,6.944 0.654,0.091 0.117,-0.059 0.009,-0.004 0.42,-0.104 0.378,-0.05 0.221,0.063 0.108,0.082 -0.004,0.035 0.351,0.542 1.117,1.572 -3.168,1.289 -0.456,-0.549 0.253,-2.908"
   id="13147"
   inkscape:label="Hart, GA"
   inkscape:connector-curvature="0" />
  <path
   style="fill:#72b3dc;stroke:#c2dffb;stroke-width:1"
   d="m 27.325,6.494 0.646,0.45 -0.253,2.908 -2.46,0.982 -0.856,-2.988 0.211,-0.13 0.081,-0.028 1.988,-0.36 0.643,-0.834"
   id="13119"
   inkscape:label="Franklin, GA"
   inkscape:connector-curvature="0" />
  <path
   style="fill:#72b3dc;stroke:#c2dffb;stroke-width:1"
   d="m 24.649,4.849 2.676,1.645 -0.643,0.834 -1.988,0.36 -0.081,0.028 -0.211,0.13 -0.682,-0.172 0.929,-2.825"
   id="13257"
   inkscape:label="Stephens, GA"
   inkscape:connector-curvature="0" />
  
  
  
  
  
  
  
  
  
  
  
  
  
  
  
  
  
  
  
  
  
  
  
  
  
  
  
  
  
  
  
  
  
  
  
  
  
  
  
  
  
  
  
  
  
  
  
  
  
  
  
  
  
  
  
  
  
  
  
  
  
  
  
  
  
  
  
  
  
  
  
  
  
  
  
  
  
  
  
  
  
  
  
  
  
  
  
  
  
  
  
  
  
  
  
  
  
  
  
  
  
  
  
  
  
  
  
  
  
  
  
  
  
  
  
  
  
  
  
  
  
  
  
  
  
  
  
  
  
  
  
  
  
  
  
  
  
  
  
  
  
  
  
  
  
  
  
  
  
  
  
  
  
  
  
  
  
  
  
  
  
  
  
  
  
  
  
  
  
  
  
  
  
  
  
  
  
  
  
  
  
  
  
  
  
  
  
  
  
  
  
  
  
  
  
  
  
  
  
  
  
  
  
  
  
  
  
  
  
  
  
  
  
  
  
  
  
  
  
  
  
  
  
  
  
  
  
  
  
  
  
  
  
  
  
  
  
  
  
  
  
  
  
  
  
  
  
  
  
  
  
  
  
  
  
  
  
  
  
  
  
  
  
  
  
  
  
  
  
  
  
  
  
  
  
  
  
  
  
  
  
  
  
  
  
  
  
  
  
  
  
  
  
  
  
  
  
  
  
  
  
  
  
  
  
  
  
  
  
  
  
  
  
  
  
  
  
  
  
  
  
  
  
  
  
  
  
  
  
  
  
  
  
  
  
  
  
  
  
  
  
  
  
  
  
  
  
  
  
  
  
  
  
  
  
  
  
  
  
  
  
  
  
  
  
  
  
  
  
  
  
  
  
  
  
  
  
  
  
  
  
  
  
  
  
  
  
  
  
  
  
  
  
  
  
  
  
  
  
  
  
  
  
  
  
  
  
  
  
  
  
  
  
  
  
  
  
  
  
  
  
  
  
  
  
  
  
  
  
  
  
  
  
  
  
  
  
  
  
  
  
  
  
  
  
  
  
  
  
  
  
  
  
  
  
  
  
  
  
  
  
  
  
  
  
  
  
  
  
  
  
  
  
  
  
  
  
  
  
  
  
  
  
  
  
  
  
  
  
  
  
  
  
  
  
  
  
  
  
  
  
  
  
  
  
  
  
  
  
  
  
  
  
  
  
  
  
  
  
  
  
  
  
  
  
  
  
  
  
  
  
  
  
  
  
  
  
  
  
  
  
  
  
  
  
  
  
  
  
  
  
  
  
  
  
  
  
  
  
  
  
  
  
  
  
  
  
  
  
  
  
  
  
  
  
  
  
  
  
  
  
  
  
  
  
  
  
  
  
  
  
  
  
  
  
  
  
  
  
  
  
  
  
  
  
  
  
  
  
  
  
  
  
  
  
  
  
  
  
  
  
  
  
  
  
  
  
  
  
  
  
  
  
  
  
  
  
  
  
  
  
  
  
  
  
  
  
  
  
  
  
  
  
  
  
  
  
  
  
  
  
  
  
  
  
  
  
  
  
  
  
  
  
  
  
  
  
  
  
  
  
  
  
  
  
  
  
  
  
  
  
  
  
  
  
  
  
  
  
  
  
  
  
  
  
  
  
  
  
  
  
  
  
  
  
  
  
  
  
  
  
  
  
  
  
  
  
  
  
  
  
  
  
  
  
  
  
  
  
  
  
  
  
  
  
  
  
  
  
  
  
  
  
  
  
  
  
  
  
  
  
  
  
  
  
  
  
  
  
  
  
  
  
  
  
  
  
  
  
  
  
  
  
  
  
  
  
  
  
  
  
  
  
  
  
  
  
  
  
  
  
  
  
  
  
  
  
  
  
  
  
  
  
  
  
  
  
  
  
  
  
  
  
  
  
  
  
  
  
  
  
  
  
  
  
  
  
  
  
  
  
  
  
  
  
  
  
  
  
  
  
  
  
  
  
  
  
  
  
  
  
  
  
  
  
  
  
  
  
  
  
  
  
  
  
  
  
  
  
  
  
  
  
  
  
  
  
  
  
  
  
  
  
  
  
  
  
  
  
  
  
  
  
  
  
  
  
  
  
  
  
  
  
  
  
  
  
  
  
  
  
  
  
  
  
  
  
  
  
  
  
  
  
  
  
  
  
  
  
  
  
  
  
  
  
  
  
  
  
  
  
  
  
  
  
  
  
  
  
  
  
  
  
  
  
  
  
  
  
  
  
  
  
  
  
  
  
  
  
  
  
  
  
  
  
  
  
  
  
  
  
  
  
  
  
  
  
  
  
  
  
  
  
  
  
  
  
  
  
  
  
  
  
  
  
  
  
  
  
  
  
  
  
  
  
  
  
  
  
  
  
  
  
  
  
  
  
  
  
  
  
  
  
  
  
  
  
  
  
  
  
  
  
  
  
  
  
  
  
  
  
  
  
  
  
  
  
  
  
  
  
  
  
  
  
  
  
  
  
  
  
  
  
  
  
  
  
  
  
  
  
  
  
  
  
  
  
  
  
  
  
  
  
  
  
  
  
  
  
  
  
  
  
  
  
  
  
  
  
  
  
  
  
  
  
  
  
  
  
  
  
  
  
  
  
  
  
  
  
  
  
  
  
  
  
  
  
  
  
  
  
  
  
  
  
  
  
  
  
  
  
  
  
  
  
  
  
  
  
  
  
  
  
  
  
  
  
  
  
  
  
  
  
  
  
  
  
  
  
  
  
  
  
  
  
  
  
  
  
  
  
  
  
  
  
  
  
  
  
  
  
  
  
  
  
  
  
  
  
  
  
  
  
  
  
  
  
  
  
  
  
  
  
  
  
  
  
  
  
  
  
  
  
  
  
  
  
  
  
  
  
  
  
  
  
  
  
  
  
  
  
  
  
  
  
  
  
  
  
  
  
  
  
  
  
  
  
  
  
  
  
  
  
  
  
  
  
  
  
  
  
  
  
  
  
  
  
  
  
  
  
  
  
  
  
  
  
  
  
  
  
  
  
  
  
  
  
  
  
  
  
  
  
  
  
  
  
  
  
  
  
  
  
  
  
  
  
  
  
  
  
  
  
  
  
  
  
  
  
  
  
  
  
  
  
  
  
  
  
  
  
  
  
  
  
  
  
  
  
  
  
  
  
  
  
  
  
  
  
  
  
  
  
  
  
  
  
  
  
  
  
  
  
  
  
  
  
  
  
  
  
  
  
  
  
  
  
  
  
  
  
  
  
  
  
  
  
  
  
  
  
  
  
  
  
  
  
  
  
  
  
  
  
  
  
  
  
  
  
  
  
  
  
  
  
  
  
  
  
  
  
  
  
  
  
  
  
  
  
  
  
  
  
  
  
  
  
  
  
  
  
  
  
  
  
  
  
  
  
  
  
  
  
  
  
  
  
  
  
  
  
  
  
  
  
  
  
  
  
  
  
  
  
  
  
  
  
  
  
  
  
  
  
  
  
  
  
  
  
  
  
  
  
  
  
  
  
  
  
  
  
  
  
  
  
  
  
  
  
  
  
  
  
  
  
  
  
  
  
  
  
  
  
  
  
  
  
  
  
  
  
  
  
  
  
  
  
  
  
  
  
  
  
  
  
  
  
  
  
  
  
  
  
  
  
  
  
  
  
  
  
  
  
  
  
  
  
  
  
  
  
  
  
  
  
  
  
  
  
  
  
  
  
  
  
  
  
  
  
  
  
  
  
  
  
  
  
  
  
  
  
  
  
  
  
  
  
  
  
  
  
  
  
  
  
  
  
  
  
  
  
  
  
  
  
  
  
  
  
  
  
  
  
  
  
  
  
  
  
  
  
  
  
  
  
  
  
  
  
  
  
  
  
  
  
  
  
  
  
  
  
  
  
  
  
  
  
  
  
  
  
  
  
  
  
  
  
  
  
  
  
  
  
  
  
  
  
  
  
  
  
  
  
  
  
  
  
  
  
  
  
  
  
  
  
  
  
  
  
  
  
  
  
  
  
  
  
  
  
  
  
  
  
  
  
  
  
  
  
  
  
  
  
  
  
  
  
  
  
  
  
  
  
  
  
  
  
  
  
  
  
  
  
  
  
  
  
  
  
  
  
  
  
  
  
  
  
  
  
  
  
  
  
  
  
  
  
  
  
  
  
  
  
  
  
  
  
  
  
  
  
  
  
  
  
  
  
  
  
  
  
  
  
  
  
  
  
  
  
  
  
  
  
  
  
  
  
  
  
  
  
  
  
  
  
  
  
  
  
  
  
  
  
  
  
  
  
  
  
  
  
  
  
  
  
  
  
  
  
  
  
  
  
  
  
  
  
  
  
  
  
  
  
  
  
  
  
  
  
  
  
  
  
  
  
  
  
  
  
  
  
  
  
  
  
  
  
  
  
  
  
  
  
  
  
  
  
  
  
  
  
  
  
  
  
  
  
  
  
  
  
  
  
  
  
  
  
  
  
  
  
  
  
  
  
  
  
  
  
  
  
  
  
  
  
  
  
  
  
  
  
  
  
  
  
  
  
  
  
  
  
  
  
  
  
  
  
  
  
  
  
  
  
  
  
  
  
  
  
  
  
  
  
  
  
  
  
  
  
  
  
  
  
  
  
  
  
  
  
  
  
  
  
  
  
  
  
  
  
  
  
  
  
  
  
  
  
  
  
  
  
  
  
  
  
  
  
  
  
  
  
  
  
  
  
  
  
  
  
  
  
  
  
  
  
  
  
  
  
  
  
  
  
  
  
  
  
  
  
  
  
  
  
  
  
  
  
  
  
  
  
  
  
  
  
  
  
  
  
  
  
  
  
  
  
  
  
  
  
  
  
  
  
  
  
  
  
  
  
  
  
  
  
  
  
  
  
  
  
  
  
  
  
  
  
  
  
  
  
  
  
  
  
  
  
  
  
  
  
  
  
  
  
  
  
  
  
  
  
  
  
  
  
  
  
  
  
  
  
  
  
  
  
  
  
  
  
  
  
  
  
  
  
  
  
  
  
  
  
  
  
  
  
  
  
  
  
  
  
  
  
  
  
  
  
  
  
  
  
  
  
  
  
  
  
  
  
  
  
  
  
  
  
  
  
  
  
  
  
  
  
  
  
  
  
  
  
  
  
  
  
  
  
  
  
  
  
  
  
  
  
  
  
  
  
  
  
  
  
  
  
  
  
  
  
  
  
  
  
  
  
  
  
  
  
  
  
  
  
  
  
  
  
  
  
  
  
  
  
  
  
  
  
  
  
  
  
  
  
  
  
  
  
  
  
  
  
  
  
  
  
  
  
  
  
  
  
  
  
  
  
  
  
  
  
  
  
  
  
  
  
  
  
  
  
  
  
  
  
  
  
  
  
  
  
  
  
  
  
  
  
  
  
  
  
  
  
  
  
  
  
  
  
  
  
  
  
  
  
  
  
  
  
  
  
  
  
  
  
  
  
  
  
  
  
  
  
  
  
  
  
  
  
  
  
  
  
  
  
  
  
  
  
  
  
  
  
  
  
  
  
  
  
  
  
  
  
  
  
  
  
  
  
  
  
  
  
  
  
  
  
  
  
  
  
  
  
  
  
  
  
  
  
  
  
  
  
  
  
  
  
  
  
  
  
  
  
  
  
  
  
  
  
  
  
  
  
  
  
  
  
  
  
  
  
  
  
  
  
  
  
  
  
  
  
  
  
  
  
  
  
  
  
  
  
  
  
  
  
  
  
  
  
  
  
  
  
  
  
  
  
  
  
  
  
  
  
  
  
  
  
  
  
  
  
  
  
  
  
  
  
  
  
  
  
  
  
  
  
  
  
  
  
  
  
  
  
  
  
  
  
  
  
  
  
  
  
  
  
  
  
  
  
  
  
  
  
  
  
  
  
  
  
  
  
  
  
  
  
  
  
  
  
  
  
  
  
  
  
  
  
  
  
  
  
  
  
  
  
  
</svg>