<?xml version="1.0" encoding="UTF-8" standalone="no"?>
<!--?xml version="1.0" encoding="UTF-8" standalone="no"?-->

<svg
   xmlns:dc="http://purl.org/dc/elements/1.1/"
   xmlns:cc="http://creativecommons.org/ns#"
   xmlns:rdf="http://www.w3.org/1999/02/22-rdf-syntax-ns#"
   xmlns:svg="http://www.w3.org/2000/svg"
   xmlns="http://www.w3.org/2000/svg"
   xmlns:sodipodi="http://sodipodi.sourceforge.net/DTD/sodipodi-0.dtd"
   xmlns:inkscape="http://www.inkscape.org/namespaces/inkscape"
   width="67.622292"
   height="44.956036"
   viewBox="0 0 62.508001 41.065609"
   preserveAspectRatio="xMinYMin meet"
   xml:space="preserve"
   id="svg647"
   version="1.1"
   inkscape:version="0.48.2 r9819"
   sodipodi:docname="IA.svg"><metadata
   id="metadata752"><rdf:RDF><cc:Work
       rdf:about=""><dc:format>image/svg+xml</dc:format><dc:type
         rdf:resource="http://purl.org/dc/dcmitype/StillImage" /></cc:Work></rdf:RDF></metadata><defs
   id="defs750" /><sodipodi:namedview
   pagecolor="#ffffff"
   bordercolor="#666666"
   borderopacity="1"
   objecttolerance="10"
   gridtolerance="10"
   guidetolerance="10"
   inkscape:pageopacity="0"
   inkscape:pageshadow="2"
   inkscape:window-width="640"
   inkscape:window-height="480"
   id="namedview748"
   showgrid="false"
   inkscape:zoom="0.56730769"
   inkscape:cx="-13.314997"
   inkscape:cy="-52.624945"
   inkscape:window-x="0"
   inkscape:window-y="0"
   inkscape:window-maximized="0"
   inkscape:current-layer="svg647" />
  
  
  
  
  
  
  
  
  
  
  
  
  
  
  
  
  
  
  
  
  
  
  
  
  
  
  
  
  
  
  
  
  
  
  
  
  
  
  
  
  
  
  
  
  
  
  
  
  
  
  
  
  
  
  
  
  
  
  
  
  
  
  
  
  
  
  
  
  
  
  
  
  
  
  
  
  
  
  
  
  
  
  
  
  
  
  
  
  
  
  
  
  
  
  
  
  
  
  
  
  
  
  
  
  
  
  
  
  
  
  
  
  
  
  
  
  
  
  
  
  
  
  
  
  
  
  
  
  
  
  
  
  
  
  
  
  
  
  
  
  
  
  
  
  
  
  
  
  
  
  
  
  
  
  
  
  
  
  
  
  
  
  
  
  
  
  
  
  
  
  
  
  
  
  
  
  
  
  
  
  
  
  
  
  
  
  
  
  
  
  
  
  
  
  
  
  
  
  
  
  
  
  
  
  
  
  
  
  
  
  
  
  
  
  
  
  
  
  
  
  
  
  
  
  
  
  
  
  
  
  
  
  
  
  
  
  
  
  
  
  
  
  
  
  
  
  
  
  
  
  
  
  
  
  
  
  
  
  
  
  
  
  
  
  
  
  
  
  
  
  
  
  
  
  
  
  
  
  
  
  
  
  
  
  
  
  
  
  
  
  
  
  
  
  
  
  
  
  
  
  
  
  
  
  
  
  
  
  
  
  
  
  
  
  
  
  
  
  
  
  
  
  
  
  
  
  
  
  
  
  
  
  
  
  
  
  
  
  
  
  
  
  
  
  
  
  
  
  
  
  
  
  
  
  
  
  
  
  
  
  
  
  
  
  
  
  
  
  
  
  
  
  
  
  
  
  
  
  
  
  
  
  
  
  
  
  
  
  
  
  
  
  
  
  
  
  
  
  
  
  
  
  
  
  
  
  
  
  
  
  
  
  
  
  
  
  
  
  
  
  
  
  
  
  
  
  
  
  
  
  
  
  
  
  
  
  
  
  
  
  
  
  
  
  
  
  
  
  
  
  
  
  
  
  
  
  
  
  
  
  
  
  
  
  
  
  
  
  
  
  
  
  
  
  
  
  
  
  
  
  
  
  
  
  
  
  
  
  
  
  
  
  
  
  
  
  
  
  
  
  
  
  
  
  
  
  
  
  
  
  
  
  
  
  
  
  
  
  
  
  
  
  
  
  
  
  
  
  
  
  
  
  
  
  
  
  
  
  
  
  
  
  
  
  
  
  
  
  <path
   style="fill:#72b3dc;stroke:#c2dffb;stroke-width:1"
   d="m 55,22.729 1.072,-0.058 3.21,-0.091 1.306,0.384 -0.149,1.405 -0.5,0.672 -0.572,0.667 -1.821,0.902 -0.776,0.198 -0.329,0.009 L 56.302,26.799 55.107,24.988 55,22.729"
   id="19163"
   inkscape:label="Scott, IA"
   inkscape:connector-curvature="0" />
  <path
   style="fill:#72b3dc;stroke:#c2dffb;stroke-width:1"
   d="m 54.82,19.331 7.084,-0.402 0.104,1.349 -0.744,1.928 -0.676,0.758 -1.306,-0.384 -3.21,0.091 L 55,22.729 54.878,20.467 54.82,19.331"
   id="19045"
   inkscape:label="Clinton, IA"
   inkscape:connector-curvature="0" />
  <path
   style="fill:#72b3dc;stroke:#c2dffb;stroke-width:1"
   d="M 0.595,1.605 1.955,1.614 5.691,1.627 7.481,1.632 7.476,4.769 0.756,4.719 0.595,1.605"
   id="19119"
   inkscape:label="Lyon, IA"
   inkscape:connector-curvature="0" />
  <path
   style="fill:#72b3dc;stroke:#c2dffb;stroke-width:1"
   d="M 0.756,4.719 7.476,4.769 7.508,9.281 1.257,9.271 1.91,7.017 2.059,6.62 2.086,6.531 1.725,5.233 1.636,5.191 0.964,5.188 0.756,4.719"
   id="19167"
   inkscape:label="Sioux, IA"
   inkscape:connector-curvature="0" />
  <path
   style="fill:#72b3dc;stroke:#c2dffb;stroke-width:1"
   d="m 7.508,9.281 0,4.515 L 1.644,13.782 1.302,12.881 1.058,12.489 0.747,12.2 0.5,12.011 l 0.378,-1.73 0.379,-1.01 6.251,0.01"
   id="19149"
   inkscape:label="Plymouth, IA"
   inkscape:connector-curvature="0" />
  <path
   style="fill:#72b3dc;stroke:#c2dffb;stroke-width:1"
   d="m 11.948,9.257 0.031,4.512 -3.348,0.019 -1.123,0.008 0,-4.515 4.44,-0.024"
   id="19035"
   inkscape:label="Cherokee, IA"
   inkscape:connector-curvature="0" />
  <path
   style="fill:#72b3dc;stroke:#c2dffb;stroke-width:1"
   d="M 7.476,4.769 11.92,4.782 11.948,9.257 7.508,9.281 7.476,4.769"
   id="19141"
   inkscape:label="O'Brien, IA"
   inkscape:connector-curvature="0" />
  <path
   style="fill:#72b3dc;stroke:#c2dffb;stroke-width:1"
   d="m 11.281,1.609 0.622,0 0.017,3.173 -4.444,-0.013 0.005,-3.137 3.8,-0.023"
   id="19143"
   inkscape:label="Osceola, IA"
   inkscape:connector-curvature="0" />
  <path
   style="fill:#72b3dc;stroke:#c2dffb;stroke-width:1"
   d="M 11.903,1.609 16.315,1.569 16.364,4.741 11.92,4.782 11.903,1.609"
   id="19059"
   inkscape:label="Dickinson, IA"
   inkscape:connector-curvature="0" />
  <path
   style="fill:#72b3dc;stroke:#c2dffb;stroke-width:1"
   d="m 11.92,4.782 4.444,-0.041 0.05,4.476 -4.466,0.04 -0.028,-4.475"
   id="19041"
   inkscape:label="Clay, IA"
   inkscape:connector-curvature="0" />
  <path
   style="fill:#72b3dc;stroke:#c2dffb;stroke-width:1"
   d="m 16.414,9.217 0.045,4.529 -4.48,0.023 -0.031,-4.512 4.466,-0.04"
   id="19021"
   inkscape:label="Buena Vista, IA"
   inkscape:connector-curvature="0" />
  <path
   style="fill:#72b3dc;stroke:#c2dffb;stroke-width:1"
   d="m 16.414,9.217 4.435,-0.04 0.054,3.411 0.023,1.113 -4.467,0.045 -0.045,-4.529"
   id="19151"
   inkscape:label="Pocahontas, IA"
   inkscape:connector-curvature="0" />
  <path
   style="fill:#72b3dc;stroke:#c2dffb;stroke-width:1"
   d="m 20.772,4.683 0.077,4.494 -4.435,0.04 -0.05,-4.476 4.408,-0.058"
   id="19147"
   inkscape:label="Palo Alto, IA"
   inkscape:connector-curvature="0" />
  <path
   style="fill:#72b3dc;stroke:#c2dffb;stroke-width:1"
   d="M 20.723,1.505 20.772,4.683 16.364,4.741 16.315,1.569 16.883,1.56 20.723,1.505"
   id="19063"
   inkscape:label="Emmet, IA"
   inkscape:connector-curvature="0" />
  <path
   style="fill:#72b3dc;stroke:#c2dffb;stroke-width:1"
   d="M 25.131,1.433 25.203,4.597 25.288,9.1 20.849,9.177 20.772,4.683 20.723,1.505 22.549,1.474 25.131,1.433"
   id="19109"
   inkscape:label="Kossuth, IA"
   inkscape:connector-curvature="0" />
  <path
   style="fill:#72b3dc;stroke:#c2dffb;stroke-width:1"
   d="M 20.849,9.177 25.288,9.1 25.361,12.507 20.903,12.588 20.849,9.177"
   id="19091"
   inkscape:label="Humboldt, IA"
   inkscape:connector-curvature="0" />
  <path
   style="fill:#72b3dc;stroke:#c2dffb;stroke-width:1"
   d="m 7.508,13.796 1.123,-0.008 0.004,0.938 0.37,0.183 0.31,0 0,3.416 L 2.793,18.277 2.911,17.479 2.622,16.938 2.51,15.454 2.577,15.275 2.573,15.076 2.533,14.927 2.433,14.788 2.307,14.739 1.983,14.716 1.644,13.782 7.508,13.796"
   id="19193"
   inkscape:label="Woodbury, IA"
   inkscape:connector-curvature="0" />
  <path
   style="fill:#72b3dc;stroke:#c2dffb;stroke-width:1"
   d="m 11.979,13.769 0.009,1.127 0.617,-0.005 0.014,3.427 -3.304,0.007 0,-3.416 -0.31,0 -0.37,-0.183 -0.004,-0.938 3.348,-0.019"
   id="19093"
   inkscape:label="Ida, IA"
   inkscape:connector-curvature="0" />
  <path
   style="fill:#72b3dc;stroke:#c2dffb;stroke-width:1"
   d="m 11.979,13.769 4.48,-0.023 0.009,1.115 0.55,0 0.027,3.429 -2.213,0.014 -2.213,0.014 -0.014,-3.427 -0.617,0.005 -0.009,-1.127"
   id="19161"
   inkscape:label="Sac, IA"
   inkscape:connector-curvature="0" />
  <path
   style="fill:#72b3dc;stroke:#c2dffb;stroke-width:1"
   d="m 16.459,13.746 4.467,-0.045 0.014,1.109 0.432,-0.004 0.059,3.426 -2.2,0.031 -2.186,0.027 -0.027,-3.429 -0.55,0 -0.009,-1.115"
   id="19025"
   inkscape:label="Calhoun, IA"
   inkscape:connector-curvature="0" />
  <path
   style="fill:#72b3dc;stroke:#c2dffb;stroke-width:1"
   d="m 25.361,12.507 0.045,2.236 0.379,-0.004 0.076,3.393 -2.217,0.051 -2.213,0.049 -0.059,-3.426 -0.432,0.004 -0.014,-1.109 -0.023,-1.113 4.458,-0.081"
   id="19187"
   inkscape:label="Webster, IA"
   inkscape:connector-curvature="0" />
  <path
   style="fill:#72b3dc;stroke:#c2dffb;stroke-width:1"
   d="m 21.431,18.232 2.213,-0.049 0.094,4.497 -1.114,0.021 -3.33,0.06 -0.063,-4.498 2.2,-0.031"
   id="19073"
   inkscape:label="Greene, IA"
   inkscape:connector-curvature="0" />
  <path
   style="fill:#72b3dc;stroke:#c2dffb;stroke-width:1"
   d="m 17.045,18.29 2.186,-0.027 0.063,4.498 -1.109,0.018 -3.326,0.027 -0.027,-4.502 2.213,-0.014"
   id="19027"
   inkscape:label="Carroll, IA"
   inkscape:connector-curvature="0" />
  <path
   style="fill:#72b3dc;stroke:#c2dffb;stroke-width:1"
   d="m 14.832,18.304 0.027,4.502 -4.439,0.027 -1.105,0.009 0,-4.517 3.304,-0.007 2.213,-0.014"
   id="19047"
   inkscape:label="Crawford, IA"
   inkscape:connector-curvature="0" />
  <path
   style="fill:#72b3dc;stroke:#c2dffb;stroke-width:1"
   d="m 9.315,18.325 0,4.517 -4.466,-0.031 -1.267,-2.353 -0.789,-2.181 6.522,0.048"
   id="19133"
   inkscape:label="Monona, IA"
   inkscape:connector-curvature="0" />
  <path
   style="fill:#72b3dc;stroke:#c2dffb;stroke-width:1"
   d="m 10.42,22.833 0.004,3.394 0.577,-0.005 0.005,1.249 -4.642,0 -1.344,-2.28 -0.171,-2.38 4.466,0.031 1.105,-0.009"
   id="19085"
   inkscape:label="Harrison, IA"
   inkscape:connector-curvature="0" />
  <path
   style="fill:#72b3dc;stroke:#c2dffb;stroke-width:1"
   d="m 10.42,22.833 4.439,-0.027 0.031,3.389 0.501,-0.004 0.014,1.261 -1.1,0.006 -3.299,0.013 -0.005,-1.249 -0.577,0.005 -0.004,-3.394"
   id="19165"
   inkscape:label="Shelby, IA"
   inkscape:connector-curvature="0" />
  <path
   style="fill:#72b3dc;stroke:#c2dffb;stroke-width:1"
   d="m 14.859,22.806 3.326,-0.027 0.045,2.807 0.425,0.563 0.017,1.273 -3.267,0.03 -0.014,-1.261 -0.501,0.004 -0.031,-3.389"
   id="19009"
   inkscape:label="Audubon, IA"
   inkscape:connector-curvature="0" />
  <path
   style="fill:#72b3dc;stroke:#c2dffb;stroke-width:1"
   d="m 19.294,22.761 3.33,-0.06 0.064,3.395 0.374,0 0.022,1.263 -4.412,0.063 -0.017,-1.273 -0.425,-0.563 -0.045,-2.807 1.109,-0.018"
   id="19077"
   inkscape:label="Guthrie, IA"
   inkscape:connector-curvature="0" />
  <path
   style="fill:#72b3dc;stroke:#c2dffb;stroke-width:1"
   d="m 23.084,27.359 0.082,4.497 -2.213,0.032 -2.217,0.027 -0.064,-4.493 4.412,-0.063"
   id="19001"
   inkscape:label="Adair, IA"
   inkscape:connector-curvature="0" />
  <path
   style="fill:#72b3dc;stroke:#c2dffb;stroke-width:1"
   d="m 18.672,27.422 0.064,4.493 -2.196,0.023 -2.204,0.012 -0.031,-4.492 1.1,-0.006 3.267,-0.03"
   id="19029"
   inkscape:label="Cass, IA"
   inkscape:connector-curvature="0" />
  <path
   style="fill:#72b3dc;stroke:#c2dffb;stroke-width:1"
   d="m 11.006,27.471 3.299,-0.013 0.031,4.492 -2.195,0.018 -4.538,0.01 -0.676,-0.406 -0.144,-2.623 -0.419,-1.478 4.642,0"
   id="19155"
   inkscape:label="Pottawattamie, IA"
   inkscape:connector-curvature="0" />
  <path
   style="fill:#72b3dc;stroke:#c2dffb;stroke-width:1"
   d="m 7.901,35.331 4.244,-0.018 0.014,1.749 0.113,1.452 0.009,0.968 -3.813,-0.04 -0.87,-2.579 0.303,-1.532"
   id="19071"
   inkscape:label="Fremont, IA"
   inkscape:connector-curvature="0" />
  <path
   style="fill:#72b3dc;stroke:#c2dffb;stroke-width:1"
   d="m 12.141,31.968 0.004,3.345 -4.244,0.018 -0.429,-1.884 0.131,-1.469 4.538,-0.01"
   id="19129"
   inkscape:label="Mills, IA"
   inkscape:connector-curvature="0" />
  <path
   style="fill:#72b3dc;stroke:#c2dffb;stroke-width:1"
   d="m 14.336,31.95 2.204,-0.012 0.027,3.347 -4.422,0.028 -0.004,-3.345 2.195,-0.018"
   id="19137"
   inkscape:label="Montgomery, IA"
   inkscape:connector-curvature="0" />
  <path
   style="fill:#72b3dc;stroke:#c2dffb;stroke-width:1"
   d="m 16.567,35.285 0.028,2.25 0.148,0 0.009,1.979 -2.803,-0.018 -1.668,-0.014 -0.009,-0.968 -0.113,-1.452 -0.014,-1.749 4.422,-0.028"
   id="19145"
   inkscape:label="Page, IA"
   inkscape:connector-curvature="0" />
  <path
   style="fill:#72b3dc;stroke:#c2dffb;stroke-width:1"
   d="m 21.007,35.241 0.063,4.268 -1.563,0.019 -2.755,-0.014 -0.009,-1.979 -0.148,0 -0.028,-2.25 4.44,-0.044"
   id="19173"
   inkscape:label="Taylor, IA"
   inkscape:connector-curvature="0" />
  <path
   style="fill:#72b3dc;stroke:#c2dffb;stroke-width:1"
   d="m 20.953,31.888 0.054,3.353 -4.44,0.044 -0.027,-3.347 2.196,-0.023 2.217,-0.027"
   id="19003"
   inkscape:label="Adams, IA"
   inkscape:connector-curvature="0" />
  <path
   style="fill:#72b3dc;stroke:#c2dffb;stroke-width:1"
   d="m 23.166,31.856 2.195,-0.036 0.067,3.372 -4.421,0.049 -0.054,-3.353 2.213,-0.032"
   id="19175"
   inkscape:label="Union, IA"
   inkscape:connector-curvature="0" />
  <path
   style="fill:#72b3dc;stroke:#c2dffb;stroke-width:1"
   d="m 21.007,35.241 4.421,-0.049 0.077,4.196 -2.109,0.066 -2.326,0.055 -0.063,-4.268"
   id="19159"
   inkscape:label="Ringgold, IA"
   inkscape:connector-curvature="0" />
  <path
   style="fill:#72b3dc;stroke:#c2dffb;stroke-width:1"
   d="m 25.428,35.192 4.435,-0.118 0.104,4.128 -2.114,0.087 -2.348,0.099 -0.077,-4.196"
   id="19053"
   inkscape:label="Decatur, IA"
   inkscape:connector-curvature="0" />
  <path
   style="fill:#72b3dc;stroke:#c2dffb;stroke-width:1"
   d="m 29.769,31.657 0.094,3.417 -4.435,0.118 -0.067,-3.372 2.172,-0.117 2.236,-0.046"
   id="19039"
   inkscape:label="Clarke, IA"
   inkscape:connector-curvature="0" />
  <path
   style="fill:#72b3dc;stroke:#c2dffb;stroke-width:1"
   d="m 27.416,27.159 0.117,4.544 -2.172,0.117 -2.195,0.036 -0.082,-4.497 4.332,-0.2"
   id="19121"
   inkscape:label="Madison, IA"
   inkscape:connector-curvature="0" />
  <path
   style="fill:#72b3dc;stroke:#c2dffb;stroke-width:1"
   d="m 27.065,22.603 0.081,2.848 0.238,0.564 0.032,1.144 -4.332,0.2 -0.022,-1.263 -0.374,0 -0.064,-3.395 1.114,-0.021 3.327,-0.077"
   id="19049"
   inkscape:label="Dallas, IA"
   inkscape:connector-curvature="0" />
  <path
   style="fill:#72b3dc;stroke:#c2dffb;stroke-width:1"
   d="m 28.079,18.091 0.113,4.485 -1.127,0.027 -3.327,0.077 -0.094,-4.497 2.217,-0.051 2.218,-0.041"
   id="19015"
   inkscape:label="Boone, IA"
   inkscape:connector-curvature="0" />
  <path
   style="fill:#72b3dc;stroke:#c2dffb;stroke-width:1"
   d="m 29.854,13.531 0.464,4.505 -2.239,0.055 -2.218,0.041 -0.076,-3.393 -0.379,0.004 -0.022,-1.113 4.47,-0.099"
   id="19079"
   inkscape:label="Hamilton, IA"
   inkscape:connector-curvature="0" />
  <path
   style="fill:#72b3dc;stroke:#c2dffb;stroke-width:1"
   d="m 25.288,9.1 4.454,-0.117 0.112,4.548 -4.47,0.099 L 25.361,12.507 25.288,9.1"
   id="19197"
   inkscape:label="Wright, IA"
   inkscape:connector-curvature="0" />
  <path
   style="fill:#72b3dc;stroke:#c2dffb;stroke-width:1"
   d="M 29.634,4.489 29.742,8.983 25.288,9.1 25.203,4.597 29.634,4.489"
   id="19081"
   inkscape:label="Hancock, IA"
   inkscape:connector-curvature="0" />
  <path
   style="fill:#72b3dc;stroke:#c2dffb;stroke-width:1"
   d="m 29.553,1.329 0.081,3.16 -4.431,0.108 -0.072,-3.164 3.006,-0.068 1.416,-0.036"
   id="19189"
   inkscape:label="Winnebago, IA"
   inkscape:connector-curvature="0" />
  <path
   style="fill:#72b3dc;stroke:#c2dffb;stroke-width:1"
   d="m 33.965,1.198 0.103,3.161 -4.434,0.13 -0.081,-3.16 4.182,-0.121 0.23,-0.01"
   id="19195"
   inkscape:label="Worth, IA"
   inkscape:connector-curvature="0" />
  <path
   style="fill:#72b3dc;stroke:#c2dffb;stroke-width:1"
   d="m 29.634,4.489 4.434,-0.13 0.018,0.554 0.113,3.948 -4.457,0.122 -0.108,-4.494"
   id="19033"
   inkscape:label="Cerro Gordo, IA"
   inkscape:connector-curvature="0" />
  <path
   style="fill:#72b3dc;stroke:#c2dffb;stroke-width:1"
   d="m 29.742,8.983 4.457,-0.122 0.126,4.552 -4.471,0.118 -0.112,-4.548"
   id="19069"
   inkscape:label="Franklin, IA"
   inkscape:connector-curvature="0" />
  <path
   style="fill:#72b3dc;stroke:#c2dffb;stroke-width:1"
   d="m 34.325,13.413 0.384,4.493 -2.191,0.073 -2.2,0.057 -0.464,-4.505 4.471,-0.118"
   id="19083"
   inkscape:label="Hardin, IA"
   inkscape:connector-curvature="0" />
  <path
   style="fill:#72b3dc;stroke:#c2dffb;stroke-width:1"
   d="m 32.518,17.979 0.13,4.489 -1.108,0.026 -3.348,0.082 -0.113,-4.485 2.239,-0.055 2.2,-0.057"
   id="19169"
   inkscape:label="Story, IA"
   inkscape:connector-curvature="0" />
  <path
   style="fill:#72b3dc;stroke:#c2dffb;stroke-width:1"
   d="m 31.54,22.494 0.311,4.608 0.008,0.207 -4.443,-0.15 -0.032,-1.144 -0.238,-0.564 -0.081,-2.848 1.127,-0.027 3.348,-0.082"
   id="19153"
   inkscape:label="Polk, IA"
   inkscape:connector-curvature="0" />
  <path
   style="fill:#72b3dc;stroke:#c2dffb;stroke-width:1"
   d="m 31.859,27.309 0.126,4.294 -2.216,0.054 -2.236,0.046 -0.117,-4.544 4.443,0.15"
   id="19181"
   inkscape:label="Warren, IA"
   inkscape:connector-curvature="0" />
  <path
   style="fill:#72b3dc;stroke:#c2dffb;stroke-width:1"
   d="m 31.985,31.603 2.21,-0.063 0.116,3.404 -4.448,0.13 -0.094,-3.417 2.216,-0.054"
   id="19117"
   inkscape:label="Lucas, IA"
   inkscape:connector-curvature="0" />
  <path
   style="fill:#72b3dc;stroke:#c2dffb;stroke-width:1"
   d="m 34.311,34.944 0.131,4.084 -2.695,0.125 -1.78,0.049 -0.104,-4.128 4.448,-0.13"
   id="19185"
   inkscape:label="Wayne, IA"
   inkscape:connector-curvature="0" />
  <path
   style="fill:#72b3dc;stroke:#c2dffb;stroke-width:1"
   d="m 38.752,34.79 0.157,4.002 -0.744,0.041 -3.723,0.195 -0.131,-4.084 4.441,-0.154"
   id="19007"
   inkscape:label="Appanoose, IA"
   inkscape:connector-curvature="0" />
  <path
   style="fill:#72b3dc;stroke:#c2dffb;stroke-width:1"
   d="m 38.62,31.388 0.132,3.402 -4.441,0.154 -0.116,-3.404 2.213,-0.072 2.212,-0.08"
   id="19135"
   inkscape:label="Monroe, IA"
   inkscape:connector-curvature="0" />
  <path
   style="fill:#72b3dc;stroke:#c2dffb;stroke-width:1"
   d="m 36.245,26.957 0.163,4.511 -2.213,0.072 -2.21,0.063 -0.126,-4.294 -0.008,-0.207 4.394,-0.145"
   id="19125"
   inkscape:label="Marion, IA"
   inkscape:connector-curvature="0" />
  <path
   style="fill:#72b3dc;stroke:#c2dffb;stroke-width:1"
   d="m 32.648,22.468 4.448,-0.135 0.249,4.583 -1.1,0.041 -4.394,0.145 -0.311,-4.608 1.108,-0.026"
   id="19099"
   inkscape:label="Jasper, IA"
   inkscape:connector-curvature="0" />
  <path
   style="fill:#72b3dc;stroke:#c2dffb;stroke-width:1"
   d="m 34.709,17.906 2.221,-0.081 0.166,4.508 -4.448,0.135 -0.13,-4.489 2.191,-0.073"
   id="19127"
   inkscape:label="Marshall, IA"
   inkscape:connector-curvature="0" />
  <path
   style="fill:#72b3dc;stroke:#c2dffb;stroke-width:1"
   d="m 38.805,13.274 0.307,3.342 -2.21868,0.0875 0.0367,1.12148 -2.221,0.081 -0.384,-4.493 4.48,-0.139"
   id="19075"
   inkscape:label="Grundy, IA"
   inkscape:connector-curvature="0" />
  <path
   style="fill:#72b3dc;stroke:#c2dffb;stroke-width:1"
   d="m 34.199,8.861 4.431,-0.139 0.122,3.43 0.053,1.122 -4.48,0.139 -0.126,-4.552"
   id="19023"
   inkscape:label="Butler, IA"
   inkscape:connector-curvature="0" />
  <path
   style="fill:#72b3dc;stroke:#c2dffb;stroke-width:1"
   d="M 34.086,4.913 38.485,4.764 38.63,8.722 34.199,8.861 34.086,4.913"
   id="19067"
   inkscape:label="Floyd, IA"
   inkscape:connector-curvature="0" />
  <path
   style="fill:#72b3dc;stroke:#c2dffb;stroke-width:1"
   d="M 38.364,1.041 38.485,4.764 34.086,4.913 33.965,1.198 38.364,1.041"
   id="19131"
   inkscape:label="Mitchcell, IA"
   inkscape:connector-curvature="0" />
  <path
   style="fill:#72b3dc;stroke:#c2dffb;stroke-width:1"
   d="m 39.338,1.005 3.438,-0.14 0.149,3.723 -4.44,0.176 -0.121,-3.723 0.974,-0.036"
   id="19089"
   inkscape:label="Howard, IA"
   inkscape:connector-curvature="0" />
  <path
   style="fill:#72b3dc;stroke:#c2dffb;stroke-width:1"
   d="M 42.925,4.588 42.987,6.275 43.078,8.55 38.63,8.722 38.485,4.764 42.925,4.588"
   id="19037"
   inkscape:label="Chickasaw, IA"
   inkscape:connector-curvature="0" />
  <path
   style="fill:#72b3dc;stroke:#c2dffb;stroke-width:1"
   d="m 38.63,8.722 4.448,-0.172 0.141,3.43 -4.467,0.172 -0.122,-3.43"
   id="19017"
   inkscape:label="Bremer, IA"
   inkscape:connector-curvature="0" />
  <path
   style="fill:#72b3dc;stroke:#c2dffb;stroke-width:1"
   d="m 43.219,11.98 0.097,2.259 0.177,0.288 0.072,1.916 -2.222,0.086 -2.231,0.087 -0.307,-3.342 -0.053,-1.122 4.467,-0.172"
   id="19013"
   inkscape:label="Black Hawk, IA"
   inkscape:connector-curvature="0" />
  <path
   style="fill:#72b3dc;stroke:#c2dffb;stroke-width:1"
   d="m 41.343,16.529 0.225,5.636 -4.472,0.168 L 36.88958,16.70266 41.343,16.529"
   id="19171"
   inkscape:label="Tama, IA"
   inkscape:connector-curvature="0" />
  <path
   style="fill:#72b3dc;stroke:#c2dffb;stroke-width:1"
   d="m 37.096,22.333 4.472,-0.168 0.186,4.58 -1.101,0.045 -3.308,0.126 -0.249,-4.583"
   id="19157"
   inkscape:label="Poweshiek, IA"
   inkscape:connector-curvature="0" />
  <path
   style="fill:#72b3dc;stroke:#c2dffb;stroke-width:1"
   d="m 37.345,26.916 3.308,-0.126 0.19,4.508 -2.223,0.09 -2.212,0.08 -0.163,-4.511 1.1,-0.041"
   id="19123"
   inkscape:label="Mahaska, IA"
   inkscape:connector-curvature="0" />
  <path
   style="fill:#72b3dc;stroke:#c2dffb;stroke-width:1"
   d="m 40.843,31.298 2.222,-0.096 0.144,3.412 -4.457,0.176 -0.132,-3.402 2.223,-0.09"
   id="19179"
   inkscape:label="Wapello, IA"
   inkscape:connector-curvature="0" />
  <path
   style="fill:#72b3dc;stroke:#c2dffb;stroke-width:1"
   d="m 43.209,34.614 0.148,3.881 -1.658,0.108 -2.79,0.189 -0.157,-4.002 4.457,-0.176"
   id="19051"
   inkscape:label="Davis, IA"
   inkscape:connector-curvature="0" />
  <path
   style="fill:#72b3dc;stroke:#c2dffb;stroke-width:1"
   d="m 43.209,34.614 4.462,-0.207 0.046,1.136 0.147,2.784 -2.208,0.006 -2.299,0.162 -0.148,-3.881"
   id="19177"
   inkscape:label="Van Buren, IA"
   inkscape:connector-curvature="0" />
  <path
   style="fill:#72b3dc;stroke:#c2dffb;stroke-width:1"
   d="m 47.54,31.009 0.131,3.398 -4.462,0.207 -0.144,-3.412 2.257,-0.108 2.218,-0.085"
   id="19101"
   inkscape:label="Jefferson, IA"
   inkscape:connector-curvature="0" />
  <path
   style="fill:#72b3dc;stroke:#c2dffb;stroke-width:1"
   d="m 45.782,16.325 0.244,5.669 -4.458,0.171 -0.225,-5.636 2.222,-0.086 2.217,-0.118"
   id="19011"
   inkscape:label="Benton, IA"
   inkscape:connector-curvature="0" />
  <path
   style="fill:#72b3dc;stroke:#c2dffb;stroke-width:1"
   d="m 41.568,22.165 4.458,-0.171 0.22,4.538 -1.117,0.06 -3.375,0.153 -0.186,-4.58"
   id="19095"
   inkscape:label="Iowa, IA"
   inkscape:connector-curvature="0" />
  <path
   style="fill:#72b3dc;stroke:#c2dffb;stroke-width:1"
   d="m 41.754,26.745 3.375,-0.153 0.193,4.502 -2.257,0.108 -2.222,0.096 -0.19,-4.508 1.101,-0.045"
   id="19107"
   inkscape:label="Keokuk, IA"
   inkscape:connector-curvature="0" />
  <path
   style="fill:#72b3dc;stroke:#c2dffb;stroke-width:1"
   d="m 46.246,26.532 2.966,-0.129 0.158,0.225 0.248,0.888 0.14,3.393 -2.218,0.1 -2.218,0.085 -0.193,-4.502 1.117,-0.06"
   id="19183"
   inkscape:label="Washington, IA"
   inkscape:connector-curvature="0" />
  <path
   style="fill:#72b3dc;stroke:#c2dffb;stroke-width:1"
   d="m 49.758,30.909 1.167,1.091 -0.207,3.412 -3.001,0.131 -0.046,-1.136 -0.131,-3.398 2.218,-0.1"
   id="19087"
   inkscape:label="Henry, IA"
   inkscape:connector-curvature="0" />
  <path
   style="fill:#72b3dc;stroke:#c2dffb;stroke-width:1"
   d="m 47.717,35.543 3.001,-0.131 2.957,1.366 -0.677,0.794 -0.315,0.008 -0.257,0.019 -0.077,0.004 -0.004,0 -0.51,0.179 -0.014,0.009 -0.058,0.033 -0.244,0.139 -0.086,0.054 -0.03,0.033 -0.036,0.035 -0.036,0.041 -0.41,0.63 -0.015,0.096 0.032,0.108 0.199,0.094 0.162,0.235 0.054,0.157 0.008,0.13 -0.026,1.16 -0.004,0.008 -0.023,0.113 -0.103,0.086 -0.014,0.008 -0.298,0.105 -0.639,-0.046 -0.407,-0.329 -0.982,-1.208 -0.036,-0.09 0.032,-0.262 -0.023,-0.085 -0.771,-0.582 -0.203,-0.127 -0.147,-2.784"
   id="19111"
   inkscape:label="Lee, IA"
   inkscape:connector-curvature="0" />
  <path
   style="fill:#72b3dc;stroke:#c2dffb;stroke-width:1"
   d="m 54.995,31.811 0.009,0.032 0.036,0.112 0.049,0.348 -0.039,1.05 -0.082,0.383 -0.054,0.081 -0.279,0.158 -0.104,0.102 -0.753,1.074 -0.036,0.167 -0.067,1.46 -2.957,-1.366 0.207,-3.412 4.07,-0.189"
   id="19057"
   inkscape:label="Des Moines, IA"
   inkscape:connector-curvature="0" />
  <path
   style="fill:#72b3dc;stroke:#c2dffb;stroke-width:1"
   d="m 49.618,27.516 1.109,-0.045 0.049,1.131 2.785,-0.108 0,0.004 -0.275,1.101 0.01,0.107 0.004,0.009 0.653,0.785 0.308,0.153 0.129,-0.018 0.078,0.036 0.082,0.085 0.454,0.744 -0.009,0.311 -4.07,0.189 -1.167,-1.091 -0.14,-3.393"
   id="19115"
   inkscape:label="Louisa, IA"
   inkscape:connector-curvature="0" />
  <path
   style="fill:#72b3dc;stroke:#c2dffb;stroke-width:1"
   d="m 55.107,24.988 1.195,1.811 -0.59,0.005 -1.352,0.369 -0.362,0.131 -0.103,0.067 -0.009,0.005 0,0.004 -0.068,0.096 -0.009,0.025 -0.134,0.551 -0.114,0.442 -2.785,0.108 -0.049,-1.131 -0.09,-2.272 4.47,-0.211"
   id="19139"
   inkscape:label="Muscatine, IA"
   inkscape:connector-curvature="0" />
  <path
   style="fill:#72b3dc;stroke:#c2dffb;stroke-width:1"
   d="m 50.474,21.81 0.163,3.389 0.09,2.272 -1.109,0.045 -0.248,-0.888 -0.158,-0.225 -2.966,0.129 -0.22,-4.538 4.448,-0.184"
   id="19103"
   inkscape:label="Johnson, IA"
   inkscape:connector-curvature="0" />
  <path
   style="fill:#72b3dc;stroke:#c2dffb;stroke-width:1"
   d="m 50.226,16.154 0.195,4.525 0.053,1.131 -4.448,0.184 -0.244,-5.669 2.227,-0.064 2.217,-0.107"
   id="19113"
   inkscape:label="Linn, IA"
   inkscape:connector-curvature="0" />
  <path
   style="fill:#72b3dc;stroke:#c2dffb;stroke-width:1"
   d="m 54.878,20.467 0.122,2.262 0.107,2.259 -4.47,0.211 -0.216,-4.52 4.457,-0.212"
   id="19031"
   inkscape:label="Cedar, IA"
   inkscape:connector-curvature="0" />
  <path
   style="fill:#72b3dc;stroke:#c2dffb;stroke-width:1"
   d="m 52.439,16.05 2.199,-0.109 0.182,3.39 0.058,1.136 -4.457,0.212 -0.195,-4.525 2.213,-0.104"
   id="19105"
   inkscape:label="Jones, IA"
   inkscape:connector-curvature="0" />
  <path
   style="fill:#72b3dc;stroke:#c2dffb;stroke-width:1"
   d="m 47.702,11.763 0.027,0.983 0.063,1.28 0.163,1.239 0.054,0.996 -2.227,0.064 -2.217,0.118 -0.072,-1.916 -0.177,-0.288 -0.097,-2.259 4.483,-0.217"
   id="19019"
   inkscape:label="Buchanan, IA"
   inkscape:connector-curvature="0" />
  <path
   style="fill:#72b3dc;stroke:#c2dffb;stroke-width:1"
   d="M 42.987,6.275 47.46,6.093 47.702,11.763 43.219,11.98 43.078,8.55 42.987,6.275"
   id="19065"
   inkscape:label="Fayette, IA"
   inkscape:connector-curvature="0" />
  <path
   style="fill:#72b3dc;stroke:#c2dffb;stroke-width:1"
   d="M 47.153,0.676 47.247,2.727 47.315,2.722 47.46,6.093 42.987,6.275 42.925,4.588 42.776,0.865 46.04,0.726 47.153,0.676"
   id="19191"
   inkscape:label="Winneshiek, IA"
   inkscape:connector-curvature="0" />
  <path
   style="fill:#72b3dc;stroke:#c2dffb;stroke-width:1"
   d="m 50.821,0.5 0.162,0.996 -0.009,0.663 1.001,0.704 0.217,0.275 0.283,0.455 -0.036,0.161 -0.72,1.213 L 51.474,5.918 47.46,6.093 47.315,2.722 47.247,2.727 47.153,0.676 50.821,0.5"
   id="19005"
   inkscape:label="Allamakee, IA"
   inkscape:connector-curvature="0" />
  <path
   style="fill:#72b3dc;stroke:#c2dffb;stroke-width:1"
   d="m 51.474,5.918 0.2,1.226 0.211,0.986 0.861,1.912 0.117,0.243 0.761,0.505 0.262,0.121 0.496,0.118 -2.204,0.492 -4.476,0.242 -0.242,-5.67 4.014,-0.175"
   id="19043"
   inkscape:label="Clayton, IA"
   inkscape:connector-curvature="0" />
  <path
   style="fill:#72b3dc;stroke:#c2dffb;stroke-width:1"
   d="m 47.702,11.763 4.476,-0.242 0.261,4.529 -2.213,0.104 -2.217,0.107 -0.054,-0.996 -0.163,-1.239 -0.063,-1.28 -0.027,-0.983"
   id="19055"
   inkscape:label="Delaware, IA"
   inkscape:connector-curvature="0" />
  <path
   style="fill:#72b3dc;stroke:#c2dffb;stroke-width:1"
   d="m 52.178,11.521 2.204,-0.492 1.221,0.234 0.473,0.113 0.108,0.053 0.068,0.068 0.6,1.091 0.103,0.325 0.006,0.073 -0.036,0.062 -0.132,0.226 -0.004,0.03 0.009,0.072 0.022,0.065 0.077,0.08 0.22,0.158 0.637,0.329 0.81,0.564 0.004,0.004 0.024,0.023 -1.803,0.094 0.059,1.135 -2.21,0.113 -2.199,0.109 -0.261,-4.529"
   id="19061"
   inkscape:label="Dubuque, IA"
   inkscape:connector-curvature="0" />
  <path
   style="fill:#72b3dc;stroke:#c2dffb;stroke-width:1"
   d="m 58.592,14.599 0.567,0.657 0.027,0.042 0.005,0.049 -0.054,0.365 -0.054,0.121 0,0.082 0.132,0.297 0.007,0.014 0.271,0.338 0.009,0.008 0.163,0.131 0.175,0.113 0.397,0.127 1.667,1.986 -7.084,0.402 -0.182,-3.39 2.21,-0.113 -0.059,-1.135 1.803,-0.094"
   id="19097"
   inkscape:label="Jackson, IA"
   inkscape:connector-curvature="0" />
  
  
  
  
  
  
  
  
  
  
  
  
  
  
  
  
  
  
  
  
  
  
  
  
  
  
  
  
  
  
  
  
  
  
  
  
  
  
  
  
  
  
  
  
  
  
  
  
  
  
  
  
  
  
  
  
  
  
  
  
  
  
  
  
  
  
  
  
  
  
  
  
  
  
  
  
  
  
  
  
  
  
  
  
  
  
  
  
  
  
  
  
  
  
  
  
  
  
  
  
  
  
  
  
  
  
  
  
  
  
  
  
  
  
  
  
  
  
  
  
  
  
  
  
  
  
  
  
  
  
  
  
  
  
  
  
  
  
  
  
  
  
  
  
  
  
  
  
  
  
  
  
  
  
  
  
  
  
  
  
  
  
  
  
  
  
  
  
  
  
  
  
  
  
  
  
  
  
  
  
  
  
  
  
  
  
  
  
  
  
  
  
  
  
  
  
  
  
  
  
  
  
  
  
  
  
  
  
  
  
  
  
  
  
  
  
  
  
  
  
  
  
  
  
  
  
  
  
  
  
  
  
  
  
  
  
  
  
  
  
  
  
  
  
  
  
  
  
  
  
  
  
  
  
  
  
  
  
  
  
  
  
  
  
  
  
  
  
  
  
  
  
  
  
  
  
  
  
  
  
  
  
  
  
  
  
  
  
  
  
  
  
  
  
  
  
  
  
  
  
  
  
  
  
  
  
  
  
  
  
  
  
  
  
  
  
  
  
  
  
  
  
  
  
  
  
  
  
  
  
  
  
  
  
  
  
  
  
  
  
  
  
  
  
  
  
  
  
  
  
  
  
  
  
  
  
  
  
  
  
  
  
  
  
  
  
  
  
  
  
  
  
  
  
  
  
  
  
  
  
  
  
  
  
  
  
  
  
  
  
  
  
  
  
  
  
  
  
  
  
  
  
  
  
  
  
  
  
  
  
  
  
  
  
  
  
  
  
  
  
  
  
  
  
  
  
  
  
  
  
  
  
  
  
  
  
  
  
  
  
  
  
  
  
  
  
  
  
  
  
  
  
  
  
  
  
  
  
  
  
  
  
  
  
  
  
  
  
  
  
  
  
  
  
  
  
  
  
  
  
  
  
  
  
  
  
  
  
  
  
  
  
  
  
  
  
  
  
  
  
  
  
  
  
  
  
  
  
  
  
  
  
  
  
  
  
  
  
  
  
  
  
  
  
  
  
  
  
  
  
  
  
  
  
  
  
  
  
  
  
  
  
  
  
  
  
  
  
  
  
  
  
  
  
  
  
  
  
  
  
  
  
  
  
  
  
  
  
  
  
  
  
  
  
  
  
  
  
  
  
  
  
  
  
  
  
  
  
  
  
  
  
  
  
  
  
  
  
  
  
  
  
  
  
  
  
  
  
  
  
  
  
  
  
  
  
  
  
  
  
  
  
  
  
  
  
  
  
  
  
  
  
  
  
  
  
  
  
  
  
  
  
  
  
  
  
  
  
  
  
  
  
  
  
  
  
  
  
  
  
  
  
  
  
  
  
  
  
  
  
  
  
  
  
  
  
  
  
  
  
  
  
  
  
  
  
  
  
  
  
  
  
  
  
  
  
  
  
  
  
  
  
  
  
  
  
  
  
  
  
  
  
  
  
  
  
  
  
  
  
  
  
  
  
  
  
  
  
  
  
  
  
  
  
  
  
  
  
  
  
  
  
  
  
  
  
  
  
  
  
  
  
  
  
  
  
  
  
  
  
  
  
  
  
  
  
  
  
  
  
  
  
  
  
  
  
  
  
  
  
  
  
  
  
  
  
  
  
  
  
  
  
  
  
  
  
  
  
  
  
  
  
  
  
  
  
  
  
  
  
  
  
  
  
  
  
  
  
  
  
  
  
  
  
  
  
  
  
  
  
  
  
  
  
  
  
  
  
  
  
  
  
  
  
  
  
  
  
  
  
  
  
  
  
  
  
  
  
  
  
  
  
  
  
  
  
  
  
  
  
  
  
  
  
  
  
  
  
  
  
  
  
  
  
  
  
  
  
  
  
  
  
  
  
  
  
  
  
  
  
  
  
  
  
  
  
  
  
  
  
  
  
  
  
  
  
  
  
  
  
  
  
  
  
  
  
  
  
  
  
  
  
  
  
  
  
  
  
  
  
  
  
  
  
  
  
  
  
  
  
  
  
  
  
  
  
  
  
  
  
  
  
  
  
  
  
  
  
  
  
  
  
  
  
  
  
  
  
  
  
  
  
  
  
  
  
  
  
  
  
  
  
  
  
  
  
  
  
  
  
  
  
  
  
  
  
  
  
  
  
  
  
  
  
  
  
  
  
  
  
  
  
  
  
  
  
  
  
  
  
  
  
  
  
  
  
  
  
  
  
  
  
  
  
  
  
  
  
  
  
  
  
  
  
  
  
  
  
  
  
  
  
  
  
  
  
  
  
  
  
  
  
  
  
  
  
  
  
  
  
  
  
  
  
  
  
  
  
  
  
  
  
  
  
  
  
  
  
  
  
  
  
  
  
  
  
  
  
  
  
  
  
  
  
  
  
  
  
  
  
  
  
  
  
  
  
  
  
  
  
  
  
  
  
  
  
  
  
  
  
  
  
  
  
  
  
  
  
  
  
  
  
  
  
  
  
  
  
  
  
  
  
  
  
  
  
  
  
  
  
  
  
  
  
  
  
  
  
  
  
  
  
  
  
  
  
  
  
  
  
  
  
  
  
  
  
  
  
  
  
  
  
  
  
  
  
  
  
  
  
  
  
  
  
  
  
  
  
  
  
  
  
  
  
  
  
  
  
  
  
  
  
  
  
  
  
  
  
  
  
  
  
  
  
  
  
  
  
  
  
  
  
  
  
  
  
  
  
  
  
  
  
  
  
  
  
  
  
  
  
  
  
  
  
  
  
  
  
  
  
  
  
  
  
  
  
  
  
  
  
  
  
  
  
  
  
  
  
  
  
  
  
  
  
  
  
  
  
  
  
  
  
  
  
  
  
  
  
  
  
  
  
  
  
  
  
  
  
  
  
  
  
  
  
  
  
  
  
  
  
  
  
  
  
  
  
  
  
  
  
  
  
  
  
  
  
  
  
  
  
  
  
  
  
  
  
  
  
  
  
  
  
  
  
  
  
  
  
  
  
  
  
  
  
  
  
  
  
  
  
  
  
  
  
  
  
  
  
  
  
  
  
  
  
  
  
  
  
  
  
  
  
  
  
  
  
  
  
  
  
  
  
  
  
  
  
  
  
  
  
  
  
  
  
  
  
  
  
  
  
  
  
  
  
  
  
  
  
  
  
  
  
  
  
  
  
  
  
  
  
  
  
  
  
  
  
  
  
  
  
  
  
  
  
  
  
  
  
  
  
  
  
  
  
  
  
  
  
  
  
  
  
  
  
  
  
  
  
  
  
  
  
  
  
  
  
  
  
  
  
  
  
  
  
  
  
  
  
  
  
  
  
  
  
  
  
  
  
  
  
  
  
  
  
  
  
  
  
  
  
  
  
  
  
  
  
  
  
  
  
  
  
  
  
  
  
  
  
  
  
  
  
  
  
  
  
  
  
  
  
  
  
  
  
  
  
  
  
  
  
  
  
  
  
  
  
  
  
  
  
  
  
  
  
  
  
  
  
  
  
  
  
  
  
  
  
  
  
  
  
  
  
  
  
  
  
  
  
  
  
  
  
  
  
  
  
  
  
  
  
  
  
  
  
  
  
  
  
  
  
  
  
  
  
  
  
  
  
  
  
  
  
  
  
  
  
  
  
  
  
  
  
  
  
  
  
  
  
  
  
  
  
  
  
  
  
  
  
  
  
  
  
  
  
  
  
  
  
  
  
  
  
  
  
  
  
  
  
  
  
  
  
  
  
  
  
  
  
  
  
  
  
  
  
  
  
  
  
  
  
  
  
  
  
  
  
  
  
  
  
  
  
  
  
  
  
  
  
  
  
  
  
  
  
  
  
  
  
  
  
  
  
  
  
  
  
  
  
  
  
  
  
  
  
  
  
  
  
  
  
  
  
  
  
  
  
  
  
  
  
  
  
  
  
  
  
  
  
  
  
  
  
  
  
  
  
  
  
  
  
  
  
  
  
  
  
  
  
  
  
  
  
  
  
  
  
  
  
  
  
  
  
  
  
  
  
  
  
  
  
  
  
  
  
  
  
  
  
  
  
  
  
  
  
  
  
  
  
  
  
  
  
  
  
  
  
  
  
  
  
  
  
  
  
  
  
  
  
  
  
  
  
  
  
  
  
  
  
  
  
  
  
  
  
  
  
  
  
  
  
  
  
  
  
  
  
  
  
  
  
  
  
  
  
  
  
  
  
  
  
  
  
  
  
  
  
  
  
  
  
  
  
  
  
  
  
  
  
  
  
  
  
  
  
  
  
  
  
  
  
  
  
  
  
  
  
  
  
  
  
  
  
  
  
  
  
  
  
  
  
  
  
  
  
  
  
  
  
  
  
  
  
  
  
  
  
  
  
  
  
  
  
  
  
  
  
  
  
  
  
  
  
  
  
  
  
  
  
  
  
  
  
  
  
  
  
  
  
  
  
  
  
  
  
  
  
  
  
  
  
  
  
  
  
  
  
  
  
  
  
  
  
  
  
  
  
  
  
  
  
  
  
  
  
  
  
  
  
  
  
  
  
  
  
  
  
  
  
  
  
  
  
  
  
  
  
  
  
  
  
  
  
  
  
  
  
  
  
  
  
  
  
  
  
  
  
  
  
  
  
  
  
  
  
  
  
  
  
  
  
  
  
  
  
  
  
  
  
  
  
  
  
  
  
  
  
  
  
  
  
  
  
  
  
  
  
  
  
  
  
  
  
  
  
  
  
  
  
  
  
  
  
  
  
  
  
  
  
  
  
  
  
  
  
  
  
  
  
  
  
  
  
  
  
  
  
  
  
  
  
  
  
  
  
  
  
  
  
  
  
  
  
  
  
  
  
  
  
  
  
  
  
  
  
  
  
  
  
  
  
  
  
  
  
  
  
  
  
  
  
  
  
  
  
  
  
  
  
  
  
  
  
  
  
  
  
  
  
  
  
  
  
  
  
  
  
  
  
  
  
  
  
  
  
  
  
  
  
  
  
  
  
  
  
  
  
  
  
  
  
  
  
  
  
  
  
  
  
  
  
  
  
  
  
  
  
  
  
  
  
  
  
  
  
  
  
  
  
  
  
  
  
  
  
  
  
  
  
  
  
  
  
  
  
  
  
  
  
  
  
  
  
  
  
  
  
  
  
  
  
  
  
  
  
  
  
  
  
  
  
  
  
  
  
  
  
  
  
  
  
  
  
  
  
  
  
  
  
  
  
  
  
  
  
  
  
  
  
  
  
  
  
  
  
  
  
  
  
  
  
  
  
  
  
  
  
  
  
  
  
  
  
  
  
  
  
  
  
  
  
  
  
  
  
  
  
  
  
  
  
  
  
  
  
  
  
  
  
  
  
  
  
  
  
  
  
  
  
  
  
  
  
  
  
  
  
  
  
  
  
  
  
  
  
  
  
  
  
  
  
  
  
  
  
  
  
  
  
  
  
  
  
  
  
  
  
  
  
  
  
  
  
  
  
  
  
  
  
  
  
  
  
  
  
  
  
  
  
  
  
  
  
  
  
  
  
  
  
  
  
  
  
  
  
  
  
</svg>