<?xml version="1.0" encoding="UTF-8" standalone="no"?>
<!--?xml version="1.0" encoding="UTF-8" standalone="no"?-->

<svg
   xmlns:dc="http://purl.org/dc/elements/1.1/"
   xmlns:cc="http://creativecommons.org/ns#"
   xmlns:rdf="http://www.w3.org/1999/02/22-rdf-syntax-ns#"
   xmlns:svg="http://www.w3.org/2000/svg"
   xmlns="http://www.w3.org/2000/svg"
   xmlns:sodipodi="http://sodipodi.sourceforge.net/DTD/sodipodi-0.dtd"
   xmlns:inkscape="http://www.inkscape.org/namespaces/inkscape"
   width="45.277336"
   height="79.401131"
   viewBox="0 0 41.853 72.529879"
   preserveAspectRatio="xMinYMin meet"
   xml:space="preserve"
   id="svg806"
   version="1.1"
   inkscape:version="0.48.2 r9819"
   sodipodi:docname="IL.svg"><metadata
   id="metadata914"><rdf:RDF><cc:Work
       rdf:about=""><dc:format>image/svg+xml</dc:format><dc:type
         rdf:resource="http://purl.org/dc/dcmitype/StillImage" /></cc:Work></rdf:RDF></metadata><defs
   id="defs912" /><sodipodi:namedview
   pagecolor="#ffffff"
   bordercolor="#666666"
   borderopacity="1"
   objecttolerance="10"
   gridtolerance="10"
   guidetolerance="10"
   inkscape:pageopacity="0"
   inkscape:pageshadow="2"
   inkscape:window-width="640"
   inkscape:window-height="480"
   id="namedview910"
   showgrid="false"
   inkscape:zoom="0.56730769"
   inkscape:cx="-66.987242"
   inkscape:cy="-6.4475364"
   inkscape:window-x="0"
   inkscape:window-y="0"
   inkscape:window-maximized="0"
   inkscape:current-layer="svg806" />
  
  
  
  
  
  
  
  
  
  
  
  
  
  
  
  
  
  
  
  
  
  
  
  
  
  
  
  
  
  
  
  
  
  
  
  
  
  
  
  
  
  
  
  
  
  
  
  
  
  
  
  
  
  
  
  
  
  
  
  
  
  
  
  
  
  
  
  
  
  
  
  
  
  
  
  
  
  
  
  
  
  
  
  
  
  
  
  
  
  
  
  
  
  
  
  
  
  
  
  
  
  
  
  
  
  
  
  
  
  
  
  
  
  
  
  
  
  
  
  
  
  
  
  
  
  
  
  
  
  
  
  
  
  
  
  
  
  
  
  
  
  
  
  
  
  
  
  
  
  
  
  
  
  
  
  
  
  
  
  
  
  
  
  
  
  
  
  
  
  
  
  
  
  
  
  
  
  
  
  
  
  
  
  
  
  
  
  
  
  
  
  
  
  
  
  
  
  
  
  
  
  
  
  
  
  
  
  
  
  
  
  
  
  
  
  
  
  
  
  
  
  
  
  
  
  
  
  
  
  
  
  
  
  
  
  
  
  
  
  
  
  
  
  
  
  
  
  
  
  
  
  
  
  
  
  
  
  
  
  
  
  
  
  
  
  
  
  
  
  
  
  
  
  
  
  
  
  
  
  
  
  
  
  
  
  
  
  
  
  
  
  
  
  
  
  
  
  
  
  
  
  
  
  
  
  
  
  
  
  
  
  
  
  
  
  
  
  
  
  
  
  
  
  
  
  
  
  
  
  
  
  
  
  
  
  
  
  
  
  
  
  
  
  
  
  
  
  
  
  
  
  
  
  
  
  
  
  
  
  
  
  
  
  
  
  
  
  
  
  
  
  
  
  
  
  
  
  
  
  
  
  
  
  
  
  
  
  
  
  
  
  
  
  
  
  
  
  
  
  
  
  
  
  
  
  
  
  
  
  
  
  
  
  
  
  
  
  
  
  
  
  
  
  
  
  
  
  
  
  
  
  
  
  
  
  
  
  
  
  
  
  
  
  
  
  
  
  
  
  
  
  
  
  
  
  
  
  
  
  
  
  
  
  
  
  
  
  
  
  
  
  
  
  
  
  
  
  
  
  
  
  
  
  
  
  
  
  
  
  
  
  
  
  
  
  
  
  
  
  
  
  
  
  
  
  
  
  
  
  
  
  
  
  
  
  
  
  
  
  
  
  
  
  
  
  
  
  
  
  
  
  
  
  
  
  
  
  
  
  
  
  
  
  
  
  
  
  
  
  
  
  
  
  
  
  
  
  
  
  
  
  
  
  
  
  
  
  
  
  
  
  
  
  
  
  
  
  
  
  
  
  
  
  
  
  
  
  
  
  
  
  
  
  
  
  
  
  
  
  
  
  
  
  
  
  
  
  
  
  
  
  
  
  
  
  
  
  
  
  
  
  
  
  
  
  
  
  
  
  
  
  
  
  
  
  
  
  
  
  
  
  
  
  
  
  
  
  
  
  
  
  
  
  
  
  
  
  
  
  
  
  
  
  
  
  
  
  
  
  
  
  
  
  
  
  
  
  
  
  
  
  
  
  
  
  
  
  
  
  
  
  <path
   style="fill:#72b3dc;stroke:#c2dffb;stroke-width:1"
   d="m 39.082,26.32 0.333,4.265 0.288,3.43 -3.957,0.387 -0.429,-4.471 0.131,-0.013 -0.229,-2.249 -0.122,-1.118 3.97,-0.415 0.015,0.184"
   id="17183"
   inkscape:label="Vermilion, IL"
   inkscape:connector-curvature="0" />
  <path
   style="fill:#72b3dc;stroke:#c2dffb;stroke-width:1"
   d="m 32.641,20.088 5.827,-0.668 0.599,6.716 -3.97,0.415 -1.776,0.126 -0.68,-6.589"
   id="17075"
   inkscape:label="Iroquois, IL"
   inkscape:connector-curvature="0" />
  <path
   style="fill:#72b3dc;stroke:#c2dffb;stroke-width:1"
   d="m 22.847,68.575 2.397,-0.172 -0.031,1.411 -0.032,1.311 0.095,0.203 0.081,0.096 0.249,0.112 0.663,0.279 0.481,1.081 -1.961,-0.211 -0.681,-0.555 -0.36,-0.883 -0.626,-1.172 -0.258,-0.369 -0.017,-1.131"
   id="17003"
   inkscape:label="Alexander, IL"
   inkscape:connector-curvature="0" />
  <path
   style="fill:#72b3dc;stroke:#c2dffb;stroke-width:1"
   d="m 25.244,68.403 2.073,-0.081 1.2,0.266 0.086,0.992 -0.055,0.018 -2.279,2.217 -0.663,-0.279 -0.249,-0.112 -0.081,-0.096 -0.095,-0.203 0.032,-1.311 0.031,-1.411"
   id="17153"
   inkscape:label="Pulaski, IL"
   inkscape:connector-curvature="0" />
  <path
   style="fill:#72b3dc;stroke:#c2dffb;stroke-width:1"
   d="m 28.517,68.588 2.185,-0.612 2.416,2.126 0.1,1.203 -0.743,-0.079 -3.872,-1.646 -0.086,-0.992"
   id="17127"
   inkscape:label="Massac, IL"
   inkscape:connector-curvature="0" />
  <path
   style="fill:#72b3dc;stroke:#c2dffb;stroke-width:1"
   d="m 33.831,64.307 2.475,0.125 0.805,0.834 0,0.208 -0.193,0.22 -0.103,0.023 -1.407,0.298 -0.212,0.045 -0.175,0.049 -0.064,0.019 -0.022,0.004 -0.244,0.148 -0.049,0.032 -0.009,0.004 -0.172,0.159 -0.256,0.341 -0.591,-0.193 -0.153,-2.289 0.37,-0.027"
   id="17069"
   inkscape:label="Hardin, IL"
   inkscape:connector-curvature="0" />
  <path
   style="fill:#72b3dc;stroke:#c2dffb;stroke-width:1"
   d="m 33.461,64.334 0.153,2.289 -0.063,0.027 -0.175,0.08 -0.072,0.055 -0.091,0.064 -0.131,0.17 -0.053,0.127 -0.289,1.27 0,0.005 -0.006,0.086 0.087,0.279 0.428,0.514 0.136,0.077 0.126,0.121 0.288,0.64 -0.149,0.716 -0.121,0.334 -0.235,0.104 -0.076,0.013 -0.1,-1.203 -2.416,-2.126 -0.238,-3.399 2.997,-0.243"
   id="17151"
   inkscape:label="Pope, IL"
   inkscape:connector-curvature="0" />
  <path
   style="fill:#72b3dc;stroke:#c2dffb;stroke-width:1"
   d="m 30.464,64.577 0.238,3.399 -2.185,0.612 -1.2,-0.266 -0.22,-3.457 3.367,-0.288"
   id="17087"
   inkscape:label="Johnson, IL"
   inkscape:connector-curvature="0" />
  <path
   style="fill:#72b3dc;stroke:#c2dffb;stroke-width:1"
   d="m 27.097,64.865 0.22,3.457 -2.073,0.081 -2.397,0.172 0.369,-0.099 0.117,-0.06 0.009,-0.013 0.01,-0.009 0.008,-0.013 0.041,-0.122 0.04,-0.397 0.005,-0.017 -0.005,-0.014 -0.058,-0.217 -0.005,-0.021 -0.004,-0.01 -0.162,-0.365 -0.126,-0.158 -0.267,-0.262 -0.189,-0.283 -0.288,-0.537 -0.004,-0.003 -0.064,-0.258 -0.009,-0.117 0,-0.077 3.696,-0.627 1.136,-0.031"
   id="17181"
   inkscape:label="Union, IL"
   inkscape:connector-curvature="0" />
  <path
   style="fill:#72b3dc;stroke:#c2dffb;stroke-width:1"
   d="m 36.616,60.29 0.509,1.141 -0.131,0.491 -0.049,0.131 -0.076,0.139 -0.122,0.132 -0.469,0.341 -0.008,0.005 -0.163,0.307 -0.082,0.139 -0.013,0.028 -0.054,0.144 -0.014,0.09 0.005,0.014 0.053,0.292 0.006,0.014 0.216,0.586 0.082,0.148 -2.475,-0.125 -0.311,-3.994 0,-0.009 3.096,-0.014"
   id="17059"
   inkscape:label="Gallatin, IL"
   inkscape:connector-curvature="0" />
  <path
   style="fill:#72b3dc;stroke:#c2dffb;stroke-width:1"
   d="m 33.52,60.313 0.311,3.994 -0.37,0.027 -2.997,0.243 -0.248,-3.426 -0.04,-0.563 3.344,-0.275"
   id="17165"
   inkscape:label="Saline, IL"
   inkscape:connector-curvature="0" />
  <path
   style="fill:#72b3dc;stroke:#c2dffb;stroke-width:1"
   d="m 30.216,61.151 0.248,3.426 -3.367,0.288 -1.136,0.031 -0.221,-3.394 4.476,-0.351"
   id="17199"
   inkscape:label="Williamson, IL"
   inkscape:connector-curvature="0" />
  <path
   style="fill:#72b3dc;stroke:#c2dffb;stroke-width:1"
   d="m 21.184,60.606 4.205,-0.23 0.351,1.126 0.221,3.394 -3.696,0.627 -1.748,-2.894 0.667,-2.023"
   id="17077"
   inkscape:label="Jackson, IL"
   inkscape:connector-curvature="0" />
  <path
   style="fill:#72b3dc;stroke:#c2dffb;stroke-width:1"
   d="m 14.009,53.706 1.252,1.14 2.357,1.923 0.276,0.591 -1.376,0.06 0.073,1.136 -1.651,0.712 -0.512,-0.383 -0.848,-0.825 -0.026,-0.028 -0.032,-0.045 -0.185,-0.253 -0.117,-0.289 -0.135,-0.58 -0.019,-0.541 0.009,-0.131 0.019,-0.054 0.147,-0.5 0.045,-0.09 0.028,-0.036 0.695,-1.807"
   id="17133"
   inkscape:label="Monroe, IL"
   inkscape:connector-curvature="0" />
  <path
   style="fill:#72b3dc;stroke:#c2dffb;stroke-width:1"
   d="m 20.973,57.181 0.211,3.425 -0.667,2.023 -2.723,-0.756 -2.854,-2.605 1.651,-0.712 -0.073,-1.136 1.376,-0.06 1.969,-0.107 1.11,-0.072"
   id="17157"
   inkscape:label="Randolph, IL"
   inkscape:connector-curvature="0" />
  <path
   style="fill:#72b3dc;stroke:#c2dffb;stroke-width:1"
   d="m 20.973,57.181 4.474,-0.231 0.268,1.127 -0.326,2.299 -4.205,0.23 -0.211,-3.425"
   id="17145"
   inkscape:label="Perry, IL"
   inkscape:connector-curvature="0" />
  <path
   style="fill:#72b3dc;stroke:#c2dffb;stroke-width:1"
   d="m 29.977,57.753 0.239,3.398 -4.476,0.351 -0.351,-1.126 0.326,-2.299 4.262,-0.324"
   id="17055"
   inkscape:label="Franklin, IL"
   inkscape:connector-curvature="0" />
  <path
   style="fill:#72b3dc;stroke:#c2dffb;stroke-width:1"
   d="m 33.199,55.806 0.321,4.498 0,0.009 -3.344,0.275 -0.199,-2.835 -0.109,-1.704 3.331,-0.243"
   id="17065"
   inkscape:label="Hamilton, IL"
   inkscape:connector-curvature="0" />
  <path
   style="fill:#72b3dc;stroke:#c2dffb;stroke-width:1"
   d="m 36.999,55.432 0.374,0.419 -0.058,1.352 -0.144,2.987 -0.027,0.055 -0.006,0.009 -0.022,0.015 -0.017,0.003 -0.483,0.018 -3.096,0.014 -0.321,-4.498 2.2,-0.189 1.6,-0.185"
   id="17193"
   inkscape:label="White, IL"
   inkscape:connector-curvature="0" />
  <path
   style="fill:#72b3dc;stroke:#c2dffb;stroke-width:1"
   d="m 29.684,53.219 0.184,2.83 0.109,1.704 -4.262,0.324 -0.268,-1.127 -0.212,-3.389 4.449,-0.342"
   id="17081"
   inkscape:label="Jefferson, IL"
   inkscape:connector-curvature="0" />
  <path
   style="fill:#72b3dc;stroke:#c2dffb;stroke-width:1"
   d="m 25.213,53.183 0.022,0.378 0.212,3.389 -4.474,0.231 -1.11,0.072 -0.18,-2.583 0.342,-0.343 0.514,-0.428 0.406,-0.153 3.001,-0.519 1.267,-0.044"
   id="17189"
   inkscape:label="Washington, IL"
   inkscape:connector-curvature="0" />
  <path
   style="fill:#72b3dc;stroke:#c2dffb;stroke-width:1"
   d="m 23.888,50.162 1.158,-0.008 0.167,3.029 -1.267,0.044 -3.001,0.519 -0.406,0.153 -0.514,0.428 -0.342,0.343 -0.23,-3.069 1.014,-1.217 3.421,-0.222"
   id="17027"
   inkscape:label="Clinton, IL"
   inkscape:connector-curvature="0" />
  <path
   style="fill:#72b3dc;stroke:#c2dffb;stroke-width:1"
   d="m 14.715,51.835 4.738,-0.234 0.23,3.069 0.18,2.583 -1.969,0.107 -0.276,-0.591 -2.357,-1.923 -1.252,-1.14 0.045,-0.159 0.661,-1.712"
   id="17163"
   inkscape:label="St. Clair, IL"
   inkscape:connector-curvature="0" />
  <path
   style="fill:#72b3dc;stroke:#c2dffb;stroke-width:1"
   d="m 19.827,47.094 0.095,1.045 0.158,0.563 0.315,0.789 0.072,0.893 -1.014,1.217 -4.738,0.234 -0.206,-1.038 0.726,-0.886 0.022,-0.122 0.036,-0.298 -0.009,-0.076 -0.041,-0.072 -0.978,-0.591 -0.19,-0.112 -0.252,-0.121 -0.257,-0.078 1.231,-1.037 4.444,-0.269 0.586,-0.041"
   id="17119"
   inkscape:label="Madison, IL"
   inkscape:connector-curvature="0" />
  <path
   style="fill:#72b3dc;stroke:#c2dffb;stroke-width:1"
   d="m 23.662,46.454 0.226,3.708 -3.421,0.222 -0.072,-0.893 -0.315,-0.789 -0.158,-0.563 -0.095,-1.045 3.835,-0.64"
   id="17005"
   inkscape:label="Bond, IL"
   inkscape:connector-curvature="0" />
  <path
   style="fill:#72b3dc;stroke:#c2dffb;stroke-width:1"
   d="m 25.046,50.154 -0.077,-1.14 1.376,-0.086 3.028,-0.266 0.19,2.853 0.121,1.704 -4.449,0.342 -0.022,-0.378 -0.167,-3.029"
   id="17121"
   inkscape:label="Marion, IL"
   inkscape:connector-curvature="0" />
  <path
   style="fill:#72b3dc;stroke:#c2dffb;stroke-width:1"
   d="m 34.002,51.249 1.095,0.312 0.302,4.056 -2.2,0.189 -3.331,0.243 -0.184,-2.83 -0.121,-1.704 4.439,-0.266"
   id="17191"
   inkscape:label="Wayne, IL"
   inkscape:connector-curvature="0" />
  <path
   style="fill:#72b3dc;stroke:#c2dffb;stroke-width:1"
   d="m 37.44,51.34 2.606,-0.195 -0.717,2.064 -1.942,2.579 -0.014,0.063 -0.374,-0.419 0.018,-4.056 0.423,-0.036"
   id="17185"
   inkscape:label="Wabash, IL"
   inkscape:connector-curvature="0" />
  <path
   style="fill:#72b3dc;stroke:#c2dffb;stroke-width:1"
   d="m 37.017,51.376 -0.018,4.056 -1.6,0.185 -0.302,-4.056 1.92,-0.185"
   id="17047"
   inkscape:label="Edwards, IL"
   inkscape:connector-curvature="0" />
  <path
   style="fill:#72b3dc;stroke:#c2dffb;stroke-width:1"
   d="m 40.906,47.359 0.041,0.005 0.022,0.036 0.384,0.825 -0.004,0.315 -0.141,0.82 -0.099,0.181 -0.08,0.067 -0.789,1.009 -0.194,0.528 -2.606,0.195 -0.266,-3.629 3.732,-0.352"
   id="17101"
   inkscape:label="Lawrence, IL"
   inkscape:connector-curvature="0" />
  <path
   style="fill:#72b3dc;stroke:#c2dffb;stroke-width:1"
   d="m 37.174,47.711 0.266,3.629 -0.423,0.036 -1.92,0.185 -1.095,-0.312 -0.406,-1.132 -0.028,-0.193 -0.003,-0.365 0.262,-0.009 -0.137,-1.51 3.11,-0.293 0.374,-0.036"
   id="17159"
   inkscape:label="Richland, IL"
   inkscape:connector-curvature="0" />
  <path
   style="fill:#72b3dc;stroke:#c2dffb;stroke-width:1"
   d="m 29.301,47.513 3.304,-0.212 0.0659,0.83434 1.01906,-0.0953 0.137,1.51 -0.262,0.009 0.003,0.365 0.028,0.193 0.406,1.132 -4.439,0.266 -0.19,-2.853 -0.072,-1.149"
   id="17025"
   inkscape:label="Clay, IL"
   inkscape:connector-curvature="0" />
  <path
   style="fill:#72b3dc;stroke:#c2dffb;stroke-width:1"
   d="M 35.827,43.605 36.395,43.543 36.8,47.747 32.6709,48.13614 32.339,43.93 35.827,43.605"
   id="17079"
   inkscape:label="Jasper, IL"
   inkscape:connector-curvature="0" />
  <path
   style="fill:#72b3dc;stroke:#c2dffb;stroke-width:1"
   d="m 36.395,43.543 3.2,-0.046 0.203,0.693 0.469,0.551 0.716,1.279 -0.027,0.411 -0.072,0.204 -0.059,0.081 0.081,0.643 -3.732,0.352 -0.374,0.036 -0.405,-4.204"
   id="17033"
   inkscape:label="Crawford, IL"
   inkscape:connector-curvature="0" />
  <path
   style="fill:#72b3dc;stroke:#c2dffb;stroke-width:1"
   d="m 35.962,39.585 2.668,-0.311 0.006,0.139 1.55,-0.144 -0.46,2.885 -0.131,1.343 -3.2,0.046 -0.568,0.062 -0.266,-2.65 0.401,-1.37"
   id="17023"
   inkscape:label="Clark, IL"
   inkscape:connector-curvature="0" />
  <path
   style="fill:#72b3dc;stroke:#c2dffb;stroke-width:1"
   d="m 35.561,40.955 0.266,2.65 -4.57694,0.42568 L 31.04,41.384 35.561,40.955"
   id="17035"
   inkscape:label="Cumberland, IL"
   inkscape:connector-curvature="0" />
  <path
   style="fill:#72b3dc;stroke:#c2dffb;stroke-width:1"
   d="m 31.202,43.452 0.0472,0.57985 1.08978,-0.10185 0.266,3.371 -3.304,0.212 -1.122,0.122 -0.284,-3.949"
   id="17049"
   inkscape:label="Effingham, IL"
   inkscape:connector-curvature="0" />
  <path
   style="fill:#72b3dc;stroke:#c2dffb;stroke-width:1"
   d="m 27.895,43.686 0.284,3.949 1.122,-0.122 0.072,1.149 -3.028,0.266 -1.376,0.086 0.077,1.14 -1.158,0.008 -0.226,-3.708 0.919,-2.542 3.314,-0.226"
   id="17051"
   inkscape:label="Fayette, IL"
   inkscape:connector-curvature="0" />
  <path
   style="fill:#72b3dc;stroke:#c2dffb;stroke-width:1"
   d="m 25.294,38.174 2.114,-0.144 0.09,0.943 2.33,1.338 0.473,0.175 0.668,-0.049 0.071,0.947 0.162,2.068 -3.307,0.234 -3.314,0.226 -0.121,-1.699 1.132,-0.046 -0.153,-2.293 -0.145,-1.7"
   id="17173"
   inkscape:label="Shelby, IL"
   inkscape:connector-curvature="0" />
  <path
   style="fill:#72b3dc;stroke:#c2dffb;stroke-width:1"
   d="m 18.759,40.338 1.653,-0.132 0.187,2.281 2.758,-0.189 1.103,-0.085 0.121,1.699 -0.919,2.542 -3.835,0.64 -0.586,0.041 -0.482,-6.797"
   id="17135"
   inkscape:label="Montgomery, IL"
   inkscape:connector-curvature="0" />
  <path
   style="fill:#72b3dc;stroke:#c2dffb;stroke-width:1"
   d="m 14.567,44.007 0.23,3.397 -1.231,1.037 -1.775,-0.432 -1.626,-1.857 0.174,-0.888 0.437,-0.104 0.276,0.049 0.057,0.051 0.006,0.027 0.17,0.098 1.709,-0.134 -0.046,-0.663 1.155,-0.551 0.464,-0.03"
   id="17083"
   inkscape:label="Jersey, IL"
   inkscape:connector-curvature="0" />
  <path
   style="fill:#72b3dc;stroke:#c2dffb;stroke-width:1"
   d="m 16.545,40.495 2.214,-0.157 0.482,6.797 -4.444,0.269 -0.23,-3.397 -0.266,-3.345 2.244,-0.167"
   id="17117"
   inkscape:label="Macoupin, IL"
   inkscape:connector-curvature="0" />
  <path
   style="fill:#72b3dc;stroke:#c2dffb;stroke-width:1"
   d="m 6.523,42.681 3.334,-0.135 0.308,3.606 1.626,1.857 -2.113,0.558 -0.536,-1.437 0,-0.005 -0.025,-0.09 0.01,-0.041 0.271,-0.419 0.008,-0.162 -0.464,-1.582 -2.419,-2.15"
   id="17013"
   inkscape:label="Calhoun, IL"
   inkscape:connector-curvature="0" />
  <path
   style="fill:#72b3dc;stroke:#c2dffb;stroke-width:1"
   d="m 14.301,40.662 0.266,3.345 -0.464,0.03 -1.155,0.551 0.046,0.663 -1.709,0.134 -0.17,-0.098 -0.006,-0.027 -0.057,-0.051 -0.276,-0.049 -0.437,0.104 -0.174,0.888 -0.308,-3.606 0.23,-1.654 2.754,-0.14 1.46,-0.09"
   id="17061"
   inkscape:label="Greene, IL"
   inkscape:connector-curvature="0" />
  <path
   style="fill:#72b3dc;stroke:#c2dffb;stroke-width:1"
   d="m 23.261,36.25 0.758,0.107 0.161,1.884 1.114,-0.067 0.145,1.7 0.153,2.293 -1.132,0.046 -1.103,0.085 -2.758,0.189 -0.187,-2.281 -0.116,-1.509 1.275,-1.406 1.321,-1.041 0.369,0"
   id="17021"
   inkscape:label="Christian, IL"
   inkscape:connector-curvature="0" />
  <path
   style="fill:#72b3dc;stroke:#c2dffb;stroke-width:1"
   d="m 30.742,37.791 4.017,-0.338 -0.031,-0.374 0.364,-0.077 0.581,-0.065 0.289,2.648 -0.401,1.37 -4.521,0.429 -0.071,-0.947 -0.227,-2.646"
   id="17029"
   inkscape:label="Coles, IL"
   inkscape:connector-curvature="0" />
  <path
   style="fill:#72b3dc;stroke:#c2dffb;stroke-width:1"
   d="m 35.746,34.402 3.957,-0.387 0.329,3.569 0.154,1.685 -1.55,0.144 -0.006,-0.139 -2.668,0.311 -0.289,-2.648 -0.094,-0.944 0.243,-0.456 -0.076,-1.135"
   id="17045"
   inkscape:label="Edgar, IL"
   inkscape:connector-curvature="0" />
  <path
   style="fill:#72b3dc;stroke:#c2dffb;stroke-width:1"
   d="m 30.603,34.834 5.143,-0.432 0.076,1.135 -0.243,0.456 0.094,0.944 -0.581,0.065 -0.364,0.077 0.031,0.374 -4.017,0.338 -0.157,-1.816 0.018,-1.141"
   id="17041"
   inkscape:label="Douglas, IL"
   inkscape:connector-curvature="0" />
  <path
   style="fill:#72b3dc;stroke:#c2dffb;stroke-width:1"
   d="m 30.585,35.975 0.157,1.816 0.227,2.646 -0.668,0.049 -0.473,-0.175 -2.33,-1.338 -0.09,-0.943 0.504,-1.847 2.673,-0.208"
   id="17139"
   inkscape:label="Moultrie, IL"
   inkscape:connector-curvature="0" />
  <path
   style="fill:#72b3dc;stroke:#c2dffb;stroke-width:1"
   d="m 27.655,32.775 0.257,3.408 -0.504,1.847 -2.114,0.144 -1.114,0.067 -0.161,-1.884 -0.758,-0.107 -0.099,-1.348 0.595,-1.758 1.132,-0.094 2.194,-0.236 0.572,-0.039"
   id="17115"
   inkscape:label="Macon, IL"
   inkscape:connector-curvature="0" />
  <path
   style="fill:#72b3dc;stroke:#c2dffb;stroke-width:1"
   d="m 19.574,34.384 0.929,-0.072 0.041,0.563 0.784,0.144 1.834,-0.117 0.099,1.348 -0.369,0 -1.321,1.041 -1.275,1.406 0.116,1.509 -1.653,0.132 -2.214,0.157 -0.009,-0.378 -0.067,-0.279 -0.662,-1.849 -0.145,-0.865 -0.076,-1.136 -0.027,-0.379 2.209,-0.144 0.648,-0.251 -0.022,-0.262 0.008,-0.478 1.172,-0.09"
   id="17167"
   inkscape:label="Sangamon, IL"
   inkscape:connector-curvature="0" />
  <path
   style="fill:#72b3dc;stroke:#c2dffb;stroke-width:1"
   d="m 9.799,36.286 5.787,-0.298 0.076,1.136 0.145,0.865 0.662,1.849 0.067,0.279 0.009,0.378 -2.244,0.167 -1.46,0.09 -0.076,-1.51 -0.784,-1.478 -1.127,-0.397 -1.14,0.055 0.229,-0.658 -0.144,-0.478"
   id="17137"
   inkscape:label="Morgan, IL"
   inkscape:connector-curvature="0" />
  <path
   style="fill:#72b3dc;stroke:#c2dffb;stroke-width:1"
   d="m 12.841,40.752 -2.754,0.14 0.072,-0.23 -0.004,-0.049 -0.077,-0.261 -0.346,-0.969 -0.176,-1.371 0.158,-0.59 1.14,-0.055 1.127,0.397 0.784,1.478 0.076,1.51"
   id="17171"
   inkscape:label="Scott, IL"
   inkscape:connector-curvature="0" />
  <path
   style="fill:#72b3dc;stroke:#c2dffb;stroke-width:1"
   d="m 9.943,36.764 -0.229,0.658 -0.158,0.59 0.176,1.371 0.346,0.969 0.077,0.261 0.004,0.049 -0.072,0.23 -0.23,1.654 -3.334,0.135 -2.375,-2.466 -1.39,-1.058 -0.585,-0.929 1.618,-0.058 2.825,-0.149 -0.063,-1.14 3.39,-0.117"
   id="17149"
   inkscape:label="Pike, IL"
   inkscape:connector-curvature="0" />
  <path
   style="fill:#72b3dc;stroke:#c2dffb;stroke-width:1"
   d="m 6.4,33.509 1.15,-0.076 0.982,-0.032 0.74,0.979 0.225,0.436 0.905,-0.009 -0.603,1.479 0.144,0.478 -3.39,0.117 L 6.4,33.509"
   id="17009"
   inkscape:label="Brown, IL"
   inkscape:connector-curvature="0" />
  <path
   style="fill:#72b3dc;stroke:#c2dffb;stroke-width:1"
   d="m 6.356,32.359 0.044,1.15 0.153,3.372 0.063,1.14 L 3.791,38.17 2.173,38.228 1.19,35.845 0.5,32.559 l 5.856,-0.2"
   id="17001"
   inkscape:label="Adams, IL"
   inkscape:connector-curvature="0" />
  <path
   style="fill:#72b3dc;stroke:#c2dffb;stroke-width:1"
   d="m 3.385,26.727 2.736,-0.159 0.19,4.607 0.045,1.184 -5.856,0.2 0.06,-0.631 0.72,-1.717 0.298,-0.105 0.014,-0.008 0.103,-0.086 0.023,-0.113 0.004,-0.008 0.026,-1.16 L 1.74,28.601 1.686,28.444 1.524,28.209 1.325,28.115 1.293,28.007 1.308,27.911 1.718,27.281 1.754,27.24 1.79,27.205 1.82,27.172 1.906,27.118 2.15,26.979 l 0.058,-0.033 0.014,-0.009 0.51,-0.179 0.004,0 0.077,-0.004 0.257,-0.019 0.315,-0.008"
   id="17067"
   inkscape:label="Hancock, IL"
   inkscape:connector-curvature="0" />
  <path
   style="fill:#72b3dc;stroke:#c2dffb;stroke-width:1"
   d="m 7.239,26.551 3.343,-0.086 0.222,4.561 -4.493,0.149 -0.19,-4.607 1.118,-0.017"
   id="17109"
   inkscape:label="Donough, IL"
   inkscape:connector-curvature="0" />
  <path
   style="fill:#72b3dc;stroke:#c2dffb;stroke-width:1"
   d="m 6.311,31.175 4.493,-0.149 2.519,1.054 -1.474,0.866 -1.447,1.861 L 9.497,34.816 9.272,34.38 8.532,33.401 7.55,33.433 6.4,33.509 6.311,31.175"
   id="17169"
   inkscape:label="Schuyler, IL"
   inkscape:connector-curvature="0" />
  <path
   style="fill:#72b3dc;stroke:#c2dffb;stroke-width:1"
   d="m 11.849,32.946 0.735,0.852 0.874,-0.014 0.018,-0.009 0.974,-0.397 0.898,-0.369 0.04,-0.072 0.171,2.672 0.027,0.379 -5.787,0.298 0.603,-1.479 1.447,-1.861"
   id="17017"
   inkscape:label="Cass, IL"
   inkscape:connector-curvature="0" />
  <path
   style="fill:#72b3dc;stroke:#c2dffb;stroke-width:1"
   d="m 15.388,32.937 0.432,-0.342 2.704,-0.536 0.351,0.062 0.348,0.379 0.351,1.884 -1.172,0.09 -0.008,0.478 0.022,0.262 -0.648,0.251 -2.209,0.144 -0.171,-2.672"
   id="17129"
   inkscape:label="Menard, IL"
   inkscape:connector-curvature="0" />
  <path
   style="fill:#72b3dc;stroke:#c2dffb;stroke-width:1"
   d="m 15.803,28.642 2.018,-0.126 0.122,1.509 1.09,-0.086 0.19,2.561 -0.348,-0.379 -0.351,-0.062 -2.704,0.536 -0.432,0.342 -0.04,0.072 -0.898,0.369 -0.974,0.397 -0.018,0.009 -0.874,0.014 -0.735,-0.852 1.474,-0.866 0.672,-0.603 0.063,-0.082 0.456,-0.851 0.121,-0.734 0.054,-0.204 0.059,-0.105 0.914,-0.774 0.141,-0.085"
   id="17125"
   inkscape:label="Mason, IL"
   inkscape:connector-curvature="0" />
  <path
   style="fill:#72b3dc;stroke:#c2dffb;stroke-width:1"
   d="m 22.338,29.647 1.157,0.478 0.262,3.019 -0.595,1.758 -1.834,0.117 -0.784,-0.144 -0.041,-0.563 -0.929,0.072 -0.351,-1.884 -0.19,-2.561 3.305,-0.292"
   id="17107"
   inkscape:label="Logan, IL"
   inkscape:connector-curvature="0" />
  <path
   style="fill:#72b3dc;stroke:#c2dffb;stroke-width:1"
   d="m 29.095,29.71 -1.44,3.065 -0.572,0.039 -2.194,0.236 -1.132,0.094 -0.262,-3.019 5.6,-0.415"
   id="17039"
   inkscape:label="De Witt, IL"
   inkscape:connector-curvature="0" />
  <path
   style="fill:#72b3dc;stroke:#c2dffb;stroke-width:1"
   d="m 29.095,29.71 1.121,-0.09 0.387,5.214 -0.018,1.141 -2.673,0.208 -0.257,-3.408 1.44,-3.065"
   id="17147"
   inkscape:label="Piatt, IL"
   inkscape:connector-curvature="0" />
  <path
   style="fill:#72b3dc;stroke:#c2dffb;stroke-width:1"
   d="m 30.09,28.101 5.129,-0.432 0.229,2.249 -0.131,0.013 0.429,4.471 -5.143,0.432 -0.387,-5.214 -0.126,-1.519"
   id="17019"
   inkscape:label="Champaign, IL"
   inkscape:connector-curvature="0" />
  <path
   style="fill:#72b3dc;stroke:#c2dffb;stroke-width:1"
   d="m 31.531,20.219 1.11,-0.131 0.68,6.589 1.776,-0.126 0.122,1.118 -5.129,0.432 -0.216,-2.831 2.176,-0.184 -0.519,-4.867"
   id="17053"
   inkscape:label="Ford, IL"
   inkscape:connector-curvature="0" />
  <path
   style="fill:#72b3dc;stroke:#c2dffb;stroke-width:1"
   d="m 25.181,23.859 3.341,-0.31 0.103,1.127 0.135,0.693 1.114,-0.099 0.216,2.831 0.126,1.519 -1.121,0.09 -5.6,0.415 -1.157,-0.478 -0.302,-3.484 1.313,-0.127 0.841,-0.464 0.541,-0.527 0.45,-1.186"
   id="17113"
   inkscape:label="McLean, IL"
   inkscape:connector-curvature="0" />
  <path
   style="fill:#72b3dc;stroke:#c2dffb;stroke-width:1"
   d="m 19.124,24.364 2.181,-0.158 0.054,0.758 0.095,0.965 0.582,0.234 0.302,3.484 -3.305,0.292 -1.09,0.086 -0.122,-1.509 -2.018,0.126 0.44,-1.033 2.007,-1.284 0.914,-1.38 0.068,-0.229 -0.053,-0.239 -0.055,-0.113"
   id="17179"
   inkscape:label="Tazewell, IL"
   inkscape:connector-curvature="0" />
  <path
   style="fill:#72b3dc;stroke:#c2dffb;stroke-width:1"
   d="m 23.875,21.71 1.117,-0.108 0.189,2.257 -0.45,1.186 -0.541,0.527 -0.841,0.464 -1.313,0.127 -0.582,-0.234 -0.095,-0.965 -0.054,-0.758 -2.181,0.158 0.649,-2.303 4.102,-0.351"
   id="17203"
   inkscape:label="Woodford, IL"
   inkscape:connector-curvature="0" />
  <path
   style="fill:#72b3dc;stroke:#c2dffb;stroke-width:1"
   d="m 18.119,21.489 1.654,0.572 -0.649,2.303 0.055,0.113 0.053,0.239 -0.068,0.229 -0.914,1.38 -2.007,1.284 -0.049,-0.869 -0.053,-0.573 -1.123,0.055 -0.041,-1.123 -0.211,-3.403 3.353,-0.207"
   id="17143"
   inkscape:label="Peoria, IL"
   inkscape:connector-curvature="0" />
  <path
   style="fill:#72b3dc;stroke:#c2dffb;stroke-width:1"
   d="m 14.977,25.099 0.041,1.123 1.123,-0.055 0.053,0.573 0.049,0.869 -0.44,1.033 -0.141,0.085 -0.914,0.774 -0.059,0.105 -0.054,0.204 -0.121,0.734 -0.456,0.851 -0.063,0.082 -0.672,0.603 -2.519,-1.054 -0.222,-4.561 -0.054,-1.127 4.449,-0.239"
   id="17057"
   inkscape:label="Fulton, IL"
   inkscape:connector-curvature="0" />
  <path
   style="fill:#72b3dc;stroke:#c2dffb;stroke-width:1"
   d="m 6.969,20.935 3.344,-0.131 0.269,5.661 -3.343,0.086 -0.27,-5.616"
   id="17187"
   inkscape:label="Warren, IL"
   inkscape:connector-curvature="0" />
  <path
   style="fill:#72b3dc;stroke:#c2dffb;stroke-width:1"
   d="m 5.391,20.998 1.578,-0.063 0.27,5.616 -1.118,0.017 -2.736,0.159 0.677,-0.794 0.067,-1.46 L 4.165,24.306 4.918,23.232 5.022,23.13 5.301,22.972 5.355,22.891 5.437,22.508 5.476,21.458 5.427,21.11 5.391,20.998"
   id="17071"
   inkscape:label="Henderson, IL"
   inkscape:connector-curvature="0" />
  <path
   style="fill:#72b3dc;stroke:#c2dffb;stroke-width:1"
   d="m 3.948,17.653 6.217,-0.261 0.148,3.412 L 6.969,20.935 5.391,20.998 5.382,20.966 5.391,20.655 4.937,19.911 4.855,19.826 4.777,19.79 4.648,19.808 4.34,19.655 3.687,18.87 3.683,18.861 3.673,18.754 3.948,17.653"
   id="17131"
   inkscape:label="Mercer, IL"
   inkscape:connector-curvature="0" />
  <path
   style="fill:#72b3dc;stroke:#c2dffb;stroke-width:1"
   d="m 14.63,19.43 0.136,2.266 0.211,3.403 -4.449,0.239 -0.215,-4.534 -0.05,-1.131 4.367,-0.243"
   id="17095"
   inkscape:label="Knox, IL"
   inkscape:connector-curvature="0" />
  <path
   style="fill:#72b3dc;stroke:#c2dffb;stroke-width:1"
   d="m 15.784,18.253 2.181,0.974 0.154,2.262 -3.353,0.207 -0.136,-2.266 1.154,-1.177"
   id="17175"
   inkscape:label="Stark, IL"
   inkscape:connector-curvature="0" />
  <path
   style="fill:#72b3dc;stroke:#c2dffb;stroke-width:1"
   d="m 17.965,19.227 1.665,-0.113 1.318,-0.086 -0.017,0.316 -0.019,0.086 -0.057,0.08 -0.095,0.051 -0.054,0.062 1.894,-0.141 1.275,2.228 -4.102,0.351 -1.654,-0.572 -0.154,-2.262"
   id="17123"
   inkscape:label="Marshall, IL"
   inkscape:connector-curvature="0" />
  <path
   style="fill:#72b3dc;stroke:#c2dffb;stroke-width:1"
   d="m 22.392,16.814 0.208,2.668 -1.894,0.141 0.054,-0.062 0.095,-0.051 0.057,-0.08 0.019,-0.086 0.017,-0.316 -1.318,0.086 -0.083,-1.109 1.303,-0.983 0.523,-0.288 0.117,-0.013 0.902,0.093"
   id="17155"
   inkscape:label="Putnam, IL"
   inkscape:connector-curvature="0" />
  <path
   style="fill:#72b3dc;stroke:#c2dffb;stroke-width:1"
   d="m 28.148,19.015 3.217,-0.334 0.166,1.538 0.519,4.867 -2.176,0.184 -1.114,0.099 -0.135,-0.693 -0.103,-1.127 -3.341,0.31 -0.189,-2.257 -0.167,-2.309 3.323,-0.278"
   id="17105"
   inkscape:label="Livingston, IL"
   inkscape:connector-curvature="0" />
  <path
   style="fill:#72b3dc;stroke:#c2dffb;stroke-width:1"
   d="m 38.283,17.405 0.185,2.015 -5.827,0.668 -1.11,0.131 -0.166,-1.538 -0.023,-1.14 1.673,-0.186 0.487,-0.748 -0.046,-0.427 4.674,-0.483 0.153,1.708"
   id="17091"
   inkscape:label="Kankakee, IL"
   inkscape:connector-curvature="0" />
  <path
   style="fill:#72b3dc;stroke:#c2dffb;stroke-width:1"
   d="m 30.991,14.165 0.351,3.376 0.023,1.14 -3.217,0.334 -0.448,-4.512 3.291,-0.338"
   id="17063"
   inkscape:label="Grundy, IL"
   inkscape:connector-curvature="0" />
  <path
   style="fill:#72b3dc;stroke:#c2dffb;stroke-width:1"
   d="m 30.621,10.784 2.263,0.32 0.063,0.569 2.457,2.028 2.536,-0.225 0.19,2.221 -4.674,0.483 0.046,0.427 -0.487,0.748 -1.673,0.186 -0.351,-3.376 -0.37,-3.381"
   id="17197"
   inkscape:label="Will, IL"
   inkscape:connector-curvature="0" />
  <path
   style="fill:#72b3dc;stroke:#c2dffb;stroke-width:1"
   d="m 30.617,10.784 0.004,0 0.37,3.381 -3.291,0.338 -0.238,-2.254 -0.085,-1.14 3.24,-0.325"
   id="17093"
   inkscape:label="Kendall, IL"
   inkscape:connector-curvature="0" />
  <path
   style="fill:#72b3dc;stroke:#c2dffb;stroke-width:1"
   d="m 24.249,12.538 3.213,-0.289 0.238,2.254 0.448,4.512 -3.323,0.278 0.167,2.309 -1.117,0.108 -1.275,-2.228 -0.208,-2.668 -0.328,-4.123 1.102,-0.054 1.083,-0.099"
   id="17099"
   inkscape:label="La Salle, IL"
   inkscape:connector-curvature="0" />
  <path
   style="fill:#72b3dc;stroke:#c2dffb;stroke-width:1"
   d="m 22.107,13.255 0.285,3.559 -0.902,-0.093 -0.117,0.013 -0.523,0.288 -1.303,0.983 0.083,1.109 -1.665,0.113 -2.181,-0.974 -0.338,-4.526 2.208,-0.162 4.453,-0.31"
   id="17011"
   inkscape:label="Bureau, IL"
   inkscape:connector-curvature="0" />
  <path
   style="fill:#72b3dc;stroke:#c2dffb;stroke-width:1"
   d="m 15.446,13.727 0.338,4.526 -1.154,1.177 -4.367,0.243 -0.098,-2.281 -0.078,-1.68 0.613,-0.637 0.113,-0.086 0.17,-0.076 0.456,-0.108 0.356,-0.058 0.496,-0.262 0.086,-0.195 0.041,-0.225 -0.015,-0.08 -0.054,-0.073 3.097,-0.185"
   id="17073"
   inkscape:label="Henry, IL"
   inkscape:connector-curvature="0" />
  <path
   style="fill:#72b3dc;stroke:#c2dffb;stroke-width:1"
   d="m 11.651,11.361 -0.036,0.248 0.009,0.236 0.108,0.517 0.144,0.293 0.186,0.171 0.188,0.068 0.159,0.099 0.126,0.136 0.022,0.175 0.005,0.158 -0.027,0.293 -0.023,0.041 -0.163,0.116 0.054,0.073 0.015,0.08 -0.041,0.225 -0.086,0.195 -0.496,0.262 -0.356,0.058 -0.456,0.108 -0.17,0.076 -0.113,0.086 -0.613,0.637 0.078,1.68 -6.217,0.261 0,-0.004 0.114,-0.442 0.134,-0.551 0.009,-0.025 0.068,-0.096 0,-0.004 0.009,-0.005 0.103,-0.067 0.362,-0.131 1.352,-0.369 0.59,-0.005 0.139,0.018 0.329,-0.009 0.776,-0.198 1.821,-0.902 0.572,-0.667 0.5,-0.672 0.149,-1.405 0.676,-0.758"
   id="17161"
   inkscape:label="Rock Island, IL"
   inkscape:connector-curvature="0" />
  <path
   style="fill:#72b3dc;stroke:#c2dffb;stroke-width:1"
   d="m 17.398,9.464 0.639,-0.049 1.925,-0.141 0.014,0.19 3.993,-0.338 0.28,3.412 -1.083,0.099 -1.102,0.054 0.043,0.564 -4.453,0.31 -0.256,-4.101"
   id="17103"
   inkscape:label="Lee, IL"
   inkscape:connector-curvature="0" />
  <path
   style="fill:#72b3dc;stroke:#c2dffb;stroke-width:1"
   d="m 16.83,9.126 0.568,0.338 0.256,4.101 -2.208,0.162 -3.097,0.185 0.163,-0.116 0.023,-0.041 0.027,-0.293 -0.005,-0.158 -0.022,-0.175 -0.126,-0.136 -0.159,-0.099 -0.188,-0.068 -0.186,-0.171 -0.144,-0.293 -0.108,-0.517 -0.009,-0.236 0.036,-0.248 0.744,-1.928 4.435,-0.307"
   id="17195"
   inkscape:label="Whiteside, IL"
   inkscape:connector-curvature="0" />
  <path
   style="fill:#72b3dc;stroke:#c2dffb;stroke-width:1"
   d="M 16.581,5.65 16.83,9.126 12.395,9.433 12.291,8.084 10.624,6.098 14.392,5.831 16.581,5.65"
   id="17015"
   inkscape:label="Carroll, IL"
   inkscape:connector-curvature="0" />
  <path
   style="fill:#72b3dc;stroke:#c2dffb;stroke-width:1"
   d="M 19.354,5.422 21.473,5.246 21.522,5.943 23.734,5.754 23.969,9.126 19.976,9.464 19.962,9.274 18.037,9.415 17.398,9.464 16.83,9.126 16.581,5.65 19.354,5.422"
   id="17141"
   inkscape:label="Ogle, IL"
   inkscape:connector-curvature="0" />
  <path
   style="fill:#72b3dc;stroke:#c2dffb;stroke-width:1"
   d="m 27.066,5.484 0.311,5.625 0.085,1.14 -3.213,0.289 -0.28,-3.412 -0.235,-3.372 2.223,-0.184 1.109,-0.086"
   id="17037"
   inkscape:label="DeKalb, IL"
   inkscape:connector-curvature="0" />
  <path
   style="fill:#72b3dc;stroke:#c2dffb;stroke-width:1"
   d="m 30.392,5.214 -0.059,2.19 0.284,3.38 -3.24,0.325 -0.311,-5.625 3.326,-0.27"
   id="17089"
   inkscape:label="Kane, IL"
   inkscape:connector-curvature="0" />
  <path
   style="fill:#72b3dc;stroke:#c2dffb;stroke-width:1"
   d="m 30.617,10.784 -0.284,-3.38 2.199,-0.265 0.951,-0.095 0.14,0.455 0.325,3.109 -1.064,0.496 -2.263,-0.32 -0.004,0"
   id="17043"
   inkscape:label="DuPage, IL"
   inkscape:connector-curvature="0" />
  <path
   style="fill:#72b3dc;stroke:#c2dffb;stroke-width:1"
   d="m 30.761,5.182 4.174,-0.333 0.951,1.28 0.518,1.451 0.113,0.393 0.099,0.423 0.095,0.301 0.036,0.081 0.068,0.149 0.279,0.506 0.586,0.959 0.26,3.084 -2.536,0.225 -2.457,-2.028 -0.063,-0.569 1.064,-0.496 -0.325,-3.109 -0.14,-0.455 -0.951,0.095 -2.199,0.265 0.059,-2.19 0.369,-0.032"
   id="17031"
   inkscape:label="Cook, IL"
   inkscape:connector-curvature="0" />
  <path
   style="fill:#72b3dc;stroke:#c2dffb;stroke-width:1"
   d="m 30.387,0.761 3.778,-0.261 0.004,0 0.045,0.256 0.027,1.131 -0.086,0.267 -0.036,0.045 -0.063,0.409 0,0.38 0.09,0.401 0.199,0.477 0.143,0.298 0.447,0.685 -4.174,0.333 -0.374,-4.421"
   id="17097"
   inkscape:label="Lake, IL"
   inkscape:connector-curvature="0" />
  <path
   style="fill:#72b3dc;stroke:#c2dffb;stroke-width:1"
   d="M 29.404,0.86 30.387,0.761 30.761,5.182 30.392,5.214 27.066,5.484 25.957,5.57 25.601,1.176 29.404,0.86"
   id="17111"
   inkscape:label="McHenry, IL"
   inkscape:connector-curvature="0" />
  <path
   style="fill:#72b3dc;stroke:#c2dffb;stroke-width:1"
   d="m 24.947,1.221 0.654,-0.045 0.356,4.394 -2.223,0.184 -0.337,-4.43 1.55,-0.103"
   id="17007"
   inkscape:label="Boone, IL"
   inkscape:connector-curvature="0" />
  <path
   style="fill:#72b3dc;stroke:#c2dffb;stroke-width:1"
   d="M 23.397,1.324 23.734,5.754 21.522,5.943 21.473,5.246 19.354,5.422 19.033,1.566 19.371,1.545 23.397,1.324"
   id="17201"
   inkscape:label="Winnebago, IL"
   inkscape:connector-curvature="0" />
  <path
   style="fill:#72b3dc;stroke:#c2dffb;stroke-width:1"
   d="M 14.91,1.779 19.033,1.566 19.354,5.422 16.581,5.65 14.392,5.831 14.067,1.828 14.91,1.779"
   id="17177"
   inkscape:label="Stephenson, IL"
   inkscape:connector-curvature="0" />
  <path
   style="fill:#72b3dc;stroke:#c2dffb;stroke-width:1"
   d="M 14.067,1.828 14.392,5.831 10.624,6.098 10.227,5.971 10.052,5.858 9.889,5.727 9.88,5.719 9.609,5.381 9.602,5.367 9.47,5.07 9.47,4.988 9.524,4.867 9.578,4.502 9.573,4.453 9.546,4.411 8.979,3.754 8.955,3.731 8.951,3.727 8.141,3.163 7.504,2.834 7.284,2.676 7.207,2.596 7.185,2.531 7.176,2.459 7.18,2.429 7.312,2.203 9.339,2.103 14.067,1.828"
   id="17085"
   inkscape:label="Jo Daviess, IL"
   inkscape:connector-curvature="0" />
  
  
  
  
  
  
  
  
  
  
  
  
  
  
  
  
  
  
  
  
  
  
  
  
  
  
  
  
  
  
  
  
  
  
  
  
  
  
  
  
  
  
  
  
  
  
  
  
  
  
  
  
  
  
  
  
  
  
  
  
  
  
  
  
  
  
  
  
  
  
  
  
  
  
  
  
  
  
  
  
  
  
  
  
  
  
  
  
  
  
  
  
  
  
  
  
  
  
  
  
  
  
  
  
  
  
  
  
  
  
  
  
  
  
  
  
  
  
  
  
  
  
  
  
  
  
  
  
  
  
  
  
  
  
  
  
  
  
  
  
  
  
  
  
  
  
  
  
  
  
  
  
  
  
  
  
  
  
  
  
  
  
  
  
  
  
  
  
  
  
  
  
  
  
  
  
  
  
  
  
  
  
  
  
  
  
  
  
  
  
  
  
  
  
  
  
  
  
  
  
  
  
  
  
  
  
  
  
  
  
  
  
  
  
  
  
  
  
  
  
  
  
  
  
  
  
  
  
  
  
  
  
  
  
  
  
  
  
  
  
  
  
  
  
  
  
  
  
  
  
  
  
  
  
  
  
  
  
  
  
  
  
  
  
  
  
  
  
  
  
  
  
  
  
  
  
  
  
  
  
  
  
  
  
  
  
  
  
  
  
  
  
  
  
  
  
  
  
  
  
  
  
  
  
  
  
  
  
  
  
  
  
  
  
  
  
  
  
  
  
  
  
  
  
  
  
  
  
  
  
  
  
  
  
  
  
  
  
  
  
  
  
  
  
  
  
  
  
  
  
  
  
  
  
  
  
  
  
  
  
  
  
  
  
  
  
  
  
  
  
  
  
  
  
  
  
  
  
  
  
  
  
  
  
  
  
  
  
  
  
  
  
  
  
  
  
  
  
  
  
  
  
  
  
  
  
  
  
  
  
  
  
  
  
  
  
  
  
  
  
  
  
  
  
  
  
  
  
  
  
  
  
  
  
  
  
  
  
  
  
  
  
  
  
  
  
  
  
  
  
  
  
  
  
  
  
  
  
  
  
  
  
  
  
  
  
  
  
  
  
  
  
  
  
  
  
  
  
  
  
  
  
  
  
  
  
  
  
  
  
  
  
  
  
  
  
  
  
  
  
  
  
  
  
  
  
  
  
  
  
  
  
  
  
  
  
  
  
  
  
  
  
  
  
  
  
  
  
  
  
  
  
  
  
  
  
  
  
  
  
  
  
  
  
  
  
  
  
  
  
  
  
  
  
  
  
  
  
  
  
  
  
  
  
  
  
  
  
  
  
  
  
  
  
  
  
  
  
  
  
  
  
  
  
  
  
  
  
  
  
  
  
  
  
  
  
  
  
  
  
  
  
  
  
  
  
  
  
  
  
  
  
  
  
  
  
  
  
  
  
  
  
  
  
  
  
  
  
  
  
  
  
  
  
  
  
  
  
  
  
  
  
  
  
  
  
  
  
  
  
  
  
  
  
  
  
  
  
  
  
  
  
  
  
  
  
  
  
  
  
  
  
  
  
  
  
  
  
  
  
  
  
  
  
  
  
  
  
  
  
  
  
  
  
  
  
  
  
  
  
  
  
  
  
  
  
  
  
  
  
  
  
  
  
  
  
  
  
  
  
  
  
  
  
  
  
  
  
  
  
  
  
  
  
  
  
  
  
  
  
  
  
  
  
  
  
  
  
  
  
  
  
  
  
  
  
  
  
  
  
  
  
  
  
  
  
  
  
  
  
  
  
  
  
  
  
  
  
  
  
  
  
  
  
  
  
  
  
  
  
  
  
  
  
  
  
  
  
  
  
  
  
  
  
  
  
  
  
  
  
  
  
  
  
  
  
  
  
  
  
  
  
  
  
  
  
  
  
  
  
  
  
  
  
  
  
  
  
  
  
  
  
  
  
  
  
  
  
  
  
  
  
  
  
  
  
  
  
  
  
  
  
  
  
  
  
  
  
  
  
  
  
  
  
  
  
  
  
  
  
  
  
  
  
  
  
  
  
  
  
  
  
  
  
  
  
  
  
  
  
  
  
  
  
  
  
  
  
  
  
  
  
  
  
  
  
  
  
  
  
  
  
  
  
  
  
  
  
  
  
  
  
  
  
  
  
  
  
  
  
  
  
  
  
  
  
  
  
  
  
  
  
  
  
  
  
  
  
  
  
  
  
  
  
  
  
  
  
  
  
  
  
  
  
  
  
  
  
  
  
  
  
  
  
  
  
  
  
  
  
  
  
  
  
  
  
  
  
  
  
  
  
  
  
  
  
  
  
  
  
  
  
  
  
  
  
  
  
  
  
  
  
  
  
  
  
  
  
  
  
  
  
  
  
  
  
  
  
  
  
  
  
  
  
  
  
  
  
  
  
  
  
  
  
  
  
  
  
  
  
  
  
  
  
  
  
  
  
  
  
  
  
  
  
  
  
  
  
  
  
  
  
  
  
  
  
  
  
  
  
  
  
  
  
  
  
  
  
  
  
  
  
  
  
  
  
  
  
  
  
  
  
  
  
  
  
  
  
  
  
  
  
  
  
  
  
  
  
  
  
  
  
  
  
  
  
  
  
  
  
  
  
  
  
  
  
  
  
  
  
  
  
  
  
  
  
  
  
  
  
  
  
  
  
  
  
  
  
  
  
  
  
  
  
  
  
  
  
  
  
  
  
  
  
  
  
  
  
  
  
  
  
  
  
  
  
  
  
  
  
  
  
  
  
  
  
  
  
  
  
  
  
  
  
  
  
  
  
  
  
  
  
  
  
  
  
  
  
  
  
  
  
  
  
  
  
  
  
  
  
  
  
  
  
  
  
  
  
  
  
  
  
  
  
  
  
  
  
  
  
  
  
  
  
  
  
  
  
  
  
  
  
  
  
  
  
  
  
  
  
  
  
  
  
  
  
  
  
  
  
  
  
  
  
  
  
  
  
  
  
  
  
  
  
  
  
  
  
  
  
  
  
  
  
  
  
  
  
  
  
  
  
  
  
  
  
  
  
  
  
  
  
  
  
  
  
  
  
  
  
  
  
  
  
  
  
  
  
  
  
  
  
  
  
  
  
  
  
  
  
  
  
  
  
  
  
  
  
  
  
  
  
  
  
  
  
  
  
  
  
  
  
  
  
  
  
  
  
  
  
  
  
  
  
  
  
  
  
  
  
  
  
  
  
  
  
  
  
  
  
  
  
  
  
  
  
  
  
  
  
  
  
  
  
  
  
  
  
  
  
  
  
  
  
  
  
  
  
  
  
  
  
  
  
  
  
  
  
  
  
  
  
  
  
  
  
  
  
  
  
  
  
  
  
  
  
  
  
  
  
  
  
  
  
  
  
  
  
  
  
  
  
  
  
  
  
  
  
  
  
  
  
  
  
  
  
  
  
  
  
  
  
  
  
  
  
  
  
  
  
  
  
  
  
  
  
  
  
  
  
  
  
  
  
  
  
  
  
  
  
  
  
  
  
  
  
  
  
  
  
  
  
  
  
  
  
  
  
  
  
  
  
  
  
  
  
  
  
  
  
  
  
  
  
  
  
  
  
  
  
  
  
  
  
  
  
  
  
  
  
  
  
  
  
  
  
  
  
  
  
  
  
  
  
  
  
  
  
  
  
  
  
  
  
  
  
  
  
  
  
  
  
  
  
  
  
  
  
  
  
  
  
  
  
  
  
  
  
  
  
  
  
  
  
  
  
  
  
  
  
  
  
  
  
  
  
  
  
  
  
  
  
  
  
  
  
  
  
  
  
  
  
  
  
  
  
  
  
  
  
  
  
  
  
  
  
  
  
  
  
  
  
  
  
  
  
  
  
  
  
  
  
  
  
  
  
  
  
  
  
  
  
  
  
  
  
  
  
  
  
  
  
  
  
  
  
  
  
  
  
  
  
  
  
  
  
  
  
  
  
  
  
  
  
  
  
  
  
  
  
  
  
  
  
  
  
  
  
  
  
  
  
  
  
  
  
  
  
  
  
  
  
  
  
  
  
  
  
  
  
  
  
  
  
  
  
  
  
  
  
  
  
  
  
  
  
  
  
  
  
  
  
  
  
  
  
  
  
  
  
  
  
  
  
  
  
  
  
  
  
  
  
  
  
  
  
  
  
  
  
  
  
  
  
  
  
  
  
  
  
  
  
  
  
  
  
  
  
  
  
  
  
  
  
  
  
  
  
  
  
  
  
  
  
  
  
  
  
  
  
  
  
  
  
  
  
  
  
  
  
  
  
  
  
  
  
  
  
  
  
  
  
  
  
  
  
  
  
  
  
  
  
  
  
  
  
  
  
  
  
  
  
  
  
  
  
  
  
  
  
  
  
  
  
  
  
  
  
  
  
  
  
  
  
  
  
  
  
  
  
  
  
  
  
  
  
  
  
  
  
  
  
  
  
  
  
  
  
  
  
  
  
  
  
  
  
  
  
  
  
  
  
  
  
  
  
  
  
  
  
  
  
  
  
  
  
  
  
  
  
  
  
  
  
  
  
  
  
  
  
  
  
  
  
  
  
  
  
  
  
  
  
  
  
  
  
  
  
  
  
  
  
  
  
  
  
  
  
  
  
  
  
  
  
  
  
  
  
  
  
  
  
  
  
  
  
  
  
  
  
  
  
  
  
  
  
  
  
  
  
  
  
  
  
  
  
  
  
  
  
  
  
  
  
  
  
  
  
  
  
  
  
  
  
  
  
  
  
  
  
  
  
  
  
  
  
  
  
  
  
  
  
  
  
  
  
  
  
  
  
  
  
  
  
  
  
  
  
  
  
  
  
  
  
  
  
  
  
  
  
  
  
  
  
  
  
  
  
  
  
  
  
  
  
  
  
  
  
  
  
  
  
  
  
  
  
  
  
  
  
  
  
  
  
  
  
  
  
  
  
  
  
  
  
  
  
  
  
  
  
  
  
  
  
  
  
  
  
  
  
  
  
  
  
  
  
  
  
  
  
  
  
  
  
  
  
  
  
  
  
  
  
  
  
  
  
  
  
  
  
  
  
  
  
  
  
  
  
  
  
  
  
  
  
  
  
  
  
  
  
  
  
  
  
  
  
  
  
  
  
  
  
  
  
  
  
  
  
  
  
  
  
  
  
  
  
  
  
  
  
  
  
  
  
  
  
  
  
  
  
  
  
  
  
  
  
  
  
  
  
  
  
  
  
  
  
  
  
  
  
  
  
  
  
  
  
  
  
  
  
  
  
  
  
  
  
  
  
  
  
  
  
  
  
  
  
  
  
  
  
  
  
  
  
  
  
  
  
  
  
  
  
  
  
  
  
  
  
  
  
  
  
  
  
  
  
  
  
  
  
</svg>