<?xml version="1.0" encoding="UTF-8" standalone="no"?>
<!--?xml version="1.0" encoding="UTF-8" standalone="no"?-->

<svg
   xmlns:dc="http://purl.org/dc/elements/1.1/"
   xmlns:cc="http://creativecommons.org/ns#"
   xmlns:rdf="http://www.w3.org/1999/02/22-rdf-syntax-ns#"
   xmlns:svg="http://www.w3.org/2000/svg"
   xmlns="http://www.w3.org/2000/svg"
   xmlns:sodipodi="http://sodipodi.sourceforge.net/DTD/sodipodi-0.dtd"
   xmlns:inkscape="http://www.inkscape.org/namespaces/inkscape"
   width="35.129883"
   height="59.903519"
   viewBox="0 0 32.473001 54.71956"
   preserveAspectRatio="xMinYMin meet"
   xml:space="preserve"
   id="svg916"
   version="1.1"
   inkscape:version="0.48.2 r9819"
   sodipodi:docname="IN.svg"><metadata
   id="metadata1014"><rdf:RDF><cc:Work
       rdf:about=""><dc:format>image/svg+xml</dc:format><dc:type
         rdf:resource="http://purl.org/dc/dcmitype/StillImage" /></cc:Work></rdf:RDF></metadata><defs
   id="defs1012" /><sodipodi:namedview
   pagecolor="#ffffff"
   bordercolor="#666666"
   borderopacity="1"
   objecttolerance="10"
   gridtolerance="10"
   guidetolerance="10"
   inkscape:pageopacity="0"
   inkscape:pageshadow="2"
   inkscape:window-width="640"
   inkscape:window-height="480"
   id="namedview1010"
   showgrid="false"
   inkscape:zoom="0.56730769"
   inkscape:cx="-106.05819"
   inkscape:cy="-18.850582"
   inkscape:window-x="0"
   inkscape:window-y="0"
   inkscape:window-maximized="0"
   inkscape:current-layer="svg916" />
  
  
  
  
  
  
  
  
  
  
  
  
  
  
  
  
  
  
  
  
  
  
  
  
  
  
  
  
  
  
  
  
  
  
  
  
  
  
  
  
  
  
  
  
  
  
  
  
  
  
  
  
  
  
  
  
  
  
  
  
  
  
  
  
  
  
  
  
  
  
  
  
  
  
  
  
  
  
  
  
  
  
  
  
  
  
  
  
  
  
  
  
  
  
  
  
  
  
  
  
  
  
  
  
  
  
  
  
  
  
  
  
  
  
  
  
  
  
  
  
  
  
  
  
  
  
  
  
  
  
  
  
  
  
  
  
  
  
  
  
  
  
  
  
  
  
  
  
  
  
  
  
  
  
  
  
  
  
  
  
  
  
  
  
  
  
  
  
  
  
  
  
  
  
  
  
  
  
  
  
  
  
  
  
  
  
  
  
  
  
  
  
  
  
  
  
  
  
  
  
  
  
  
  
  
  
  
  
  
  
  
  
  
  
  
  
  
  
  
  
  
  
  
  
  
  
  
  
  
  
  
  
  
  
  
  
  
  
  
  
  
  
  
  
  
  
  
  
  
  
  
  
  
  
  
  
  
  
  
  
  
  
  
  
  
  
  
  
  
  
  
  
  
  
  
  
  
  
  
  
  
  
  
  
  
  
  
  
  
  
  
  
  
  
  
  
  
  
  
  
  
  
  
  
  
  
  
  
  
  
  
  
  
  
  
  
  
  
  
  
  
  
  
  
  
  
  
  
  
  
  
  
  
  
  
  
  
  
  
  
  
  
  
  
  
  
  
  
  
  
  
  
  
  
  
  
  
  
  
  
  
  
  
  
  
  
  
  
  
  
  
  
  
  
  
  
  
  
  
  
  
  
  
  
  
  
  
  
  
  
  
  
  
  
  
  
  
  
  
  
  
  
  
  
  
  
  
  
  
  
  
  
  
  
  
  
  
  
  
  
  
  
  
  
  
  
  
  
  
  
  
  
  
  
  
  
  
  
  
  
  
  
  
  
  
  
  
  
  
  
  
  
  
  
  
  
  
  
  
  
  
  
  
  
  
  
  
  
  
  
  
  
  
  
  
  
  
  
  
  
  
  
  
  
  
  
  
  
  
  
  
  
  
  
  
  
  
  
  
  
  
  
  
  
  
  
  
  
  
  
  
  
  
  
  
  
  
  
  
  
  
  
  
  
  
  
  
  
  
  
  
  
  
  
  
  
  
  
  
  
  
  
  
  
  
  
  
  
  
  
  
  
  
  
  
  
  
  
  
  
  
  
  
  
  
  
  
  
  
  
  
  
  
  
  
  
  
  
  
  
  
  
  
  
  
  
  
  
  
  
  
  
  
  
  
  
  
  
  
  
  
  
  
  
  
  
  
  
  
  
  
  
  
  
  
  
  
  
  
  
  
  
  
  
  
  
  
  
  
  
  
  
  
  
  
  
  
  
  
  
  
  
  
  
  
  
  
  
  
  
  
  
  
  
  
  
  
  
  
  
  
  
  
  
  
  
  
  
  
  
  
  
  
  
  
  
  
  
  
  
  
  
  
  
  
  
  
  
  
  
  
  
  
  
  
  
  
  
  
  
  
  
  
  
  
  
  
  
  
  
  
  
  
  
  
  
  
  
  
  
  
  
  
  
  
  
  
  
  
  
  
  
  
  
  
  
  
  
  
  
  
  
  
  
  
  
  
  
  
  
  
  
  
  
  
  
  
  
  
  
  
  
  
  
  
  
  
  
  
  
  
  
  
  
  
  
  
  
  
  
  
  
  
  
  
  
  
  
  
  
  
  
  
  <path
   style="fill:#72b3dc;stroke:#c2dffb;stroke-width:1"
   d="M 7.201,3.28 7.816,9.401 7.734,9.509 7.458,9.663 7.373,9.639 6.629,9.167 6.107,8.986 5.913,8.937 5.805,8.959 5.26,9.275 5.034,9.599 4.542,4.664 7.201,3.28"
   id="18127"
   inkscape:label="Porter, IN"
   inkscape:connector-curvature="0" />
  <path
   style="fill:#72b3dc;stroke:#c2dffb;stroke-width:1"
   d="M 1.564,3.834 4.542,4.664 5.034,9.599 4.515,9.951 2.167,10.847 2.014,9.139 1.564,3.834"
   id="18089"
   inkscape:label="Lake, IN"
   inkscape:connector-curvature="0" />
  <path
   style="fill:#72b3dc;stroke:#c2dffb;stroke-width:1"
   d="m 14.003,47.634 1.09,-0.153 1.177,0.662 0.163,1.426 -0.199,0.679 -0.059,0.008 -0.207,0.038 -0.054,0.031 -0.041,0.058 -0.017,0.141 0.076,0.77 -0.658,1.5 -0.28,0.217 -0.134,0.045 -0.077,-0.005 -1.793,-1.86 -0.033,-2.7 -0.062,-0.568 1.136,-0.095 -0.028,-0.194"
   id="18123"
   inkscape:label="Perry, IN"
   inkscape:connector-curvature="0" />
  <path
   style="fill:#72b3dc;stroke:#c2dffb;stroke-width:1"
   d="m 12.957,48.491 0.033,2.7 -1.569,1.04 -0.627,0.587 -0.753,1.36 -1.473,-0.982 -0.049,-0.622 0.017,-0.049 1.708,-2.579 0.451,-1.216 2.262,-0.239"
   id="18147"
   inkscape:label="Spencer, IN"
   inkscape:connector-curvature="0" />
  <path
   style="fill:#72b3dc;stroke:#c2dffb;stroke-width:1"
   d="m 7.648,48.46 2.457,-0.055 0.59,0.325 -0.451,1.216 -1.708,2.579 -0.017,0.049 0.049,0.622 L 8.207,52.944 6.661,52.529 6.562,51.312 6.327,51.335 6.238,50.208 6.233,49.64 6.201,49.176 7.699,49.032 7.648,48.46"
   id="18173"
   inkscape:label="Warrick, IN"
   inkscape:connector-curvature="0" />
  <path
   style="fill:#72b3dc;stroke:#c2dffb;stroke-width:1"
   d="m 4.015,49.797 2.218,-0.157 0.005,0.568 0.089,1.127 0.235,-0.023 0.099,1.217 -2.465,0.744 -0.181,-3.476"
   id="18163"
   inkscape:label="Vanderburgh, IN"
   inkscape:connector-curvature="0" />
  <path
   style="fill:#72b3dc;stroke:#c2dffb;stroke-width:1"
   d="M 1.271,49.23 4.015,49.797 4.196,53.273 1.91,53.454 1.009,54.873 0.5,53.732 0.983,53.714 1,53.711 1.022,53.696 1.028,53.687 1.055,53.632 1.199,50.645 1.257,49.293 1.271,49.23"
   id="18129"
   inkscape:label="Posey, IN"
   inkscape:connector-curvature="0" />
  <path
   style="fill:#72b3dc;stroke:#c2dffb;stroke-width:1"
   d="m 3.213,46.651 2.637,-1.779 0.077,0.878 0.22,0.365 0.591,0.713 0.14,-0.05 0.531,-0.09 0.085,0.036 0.205,2.308 -1.498,0.144 0.032,0.464 -2.218,0.157 -2.744,-0.567 1.942,-2.579"
   id="18051"
   inkscape:label="Gibson, IN"
   inkscape:connector-curvature="0" />
  <path
   style="fill:#72b3dc;stroke:#c2dffb;stroke-width:1"
   d="m 8.04,44.52 1.727,0.234 0.338,3.651 L 7.648,48.46 7.494,46.724 7.409,46.688 6.878,46.778 6.738,46.828 6.147,46.115 5.927,45.75 5.85,44.872 6.215,44.741 6.878,44.637 6.945,44.656 7.491,45.024 7.62,44.989 7.792,44.836 7.923,44.705 8.04,44.52"
   id="18125"
   inkscape:label="Pike, IN"
   inkscape:connector-curvature="0" />
  <path
   style="fill:#72b3dc;stroke:#c2dffb;stroke-width:1"
   d="m 13.642,44.231 0.176,1.698 0.185,1.705 0.028,0.194 -1.136,0.095 0.062,0.568 -2.262,0.239 -0.59,-0.325 -0.338,-3.651 1.491,-0.008 2.384,-0.515"
   id="18037"
   inkscape:label="Dubois, IN"
   inkscape:connector-curvature="0" />
  <path
   style="fill:#72b3dc;stroke:#c2dffb;stroke-width:1"
   d="m 17.505,45.192 0.536,-0.051 0.226,3.801 -2.033,1.306 0.199,-0.679 -0.163,-1.426 -1.177,-0.662 -1.09,0.153 -0.185,-1.705 2.29,-0.251 1.433,-0.112 -0.036,-0.374"
   id="18025"
   inkscape:label="Crawford, IN"
   inkscape:connector-curvature="0" />
  <path
   style="fill:#72b3dc;stroke:#c2dffb;stroke-width:1"
   d="m 20.263,44.97 0.122,1.127 0.221,0.356 0.032,0 0.41,0.302 0.207,0.171 0.645,0.907 0.013,0.099 -0.248,2.267 -0.487,0.166 -0.301,0.099 -1.456,-0.072 -0.072,-0.009 -0.438,-0.172 -0.455,-0.301 -0.049,-0.031 -0.023,-0.036 -0.059,-0.09 -0.072,-0.252 -0.009,-0.023 -0.004,-0.059 -0.004,-0.09 0,-0.023 0.031,-0.364 -0.226,-3.801 2.222,-0.171"
   id="18061"
   inkscape:label="Harrison, IN"
   inkscape:connector-curvature="0" />
  <path
   style="fill:#72b3dc;stroke:#c2dffb;stroke-width:1"
   d="m 20.642,44.926 0.01,0.094 0.288,0.067 1.582,-0.179 0.55,0.649 -0.221,0.829 -0.938,1.546 -0.013,-0.099 -0.645,-0.907 -0.207,-0.171 -0.41,-0.302 -0.032,0 -0.221,-0.356 -0.122,-1.127 0.379,-0.044"
   id="18043"
   inkscape:label="Floyd, IN"
   inkscape:connector-curvature="0" />
  <path
   style="fill:#72b3dc;stroke:#c2dffb;stroke-width:1"
   d="m 24.608,42.042 1.452,0.097 0.031,0.813 -1.839,2.082 -1.401,1.352 0.221,-0.829 -0.55,-0.649 -1.582,0.179 -0.288,-0.067 -0.01,-0.094 -0.081,-0.911 0.437,-0.221 0.622,-0.084 0.167,-0.213 0.144,-0.393 -0.023,-0.179 2.7,-0.883"
   id="18019"
   inkscape:label="Clark, IN"
   inkscape:connector-curvature="0" />
  <path
   style="fill:#72b3dc;stroke:#c2dffb;stroke-width:1"
   d="m 28.452,37.137 2.39,-1.356 0.995,1.586 -3.388,0.013 0.003,-0.243"
   id="18115"
   inkscape:label="Ohio, IN"
   inkscape:connector-curvature="0" />
  <path
   style="fill:#72b3dc;stroke:#c2dffb;stroke-width:1"
   d="m 28.449,37.38 3.388,-0.013 0.136,0.563 -2.182,1.475 -1.64,1.122 -0.347,-2.866 0.645,-0.281"
   id="18155"
   inkscape:label="Switzerland, IN"
   inkscape:connector-curvature="0" />
  <path
   style="fill:#72b3dc;stroke:#c2dffb;stroke-width:1"
   d="m 25.41,37.939 2.394,-0.278 0.347,2.866 -1.393,-0.483 -0.698,2.095 -1.452,-0.097 -0.113,-0.938 -0.387,-0.144 -0.298,-0.163 -0.323,-0.343 -0.222,-0.284 -0.081,-0.708 0.712,-0.193 0.315,-0.505 0.1,-0.305 0.18,-0.408 0.919,-0.112"
   id="18077"
   inkscape:label="Jefferson, IN"
   inkscape:connector-curvature="0" />
  <path
   style="fill:#72b3dc;stroke:#c2dffb;stroke-width:1"
   d="m 23.184,39.462 0.081,0.708 0.222,0.284 0.323,0.343 0.298,0.163 0.387,0.144 0.113,0.938 -2.7,0.883 -0.644,-2.196 0.825,-1.045 1.095,-0.222"
   id="18143"
   inkscape:label="Scott, IN"
   inkscape:connector-curvature="0" />
  <path
   style="fill:#72b3dc;stroke:#c2dffb;stroke-width:1"
   d="m 17.384,40.753 3.88,-0.024 0.644,2.196 0.023,0.179 -0.144,0.393 -0.167,0.213 -0.622,0.084 -0.437,0.221 0.081,0.911 -0.379,0.044 -2.222,0.171 -0.536,0.051 -0.351,-3.431 0.23,-1.008"
   id="18175"
   inkscape:label="Washington, IN"
   inkscape:connector-curvature="0" />
  <path
   style="fill:#72b3dc;stroke:#c2dffb;stroke-width:1"
   d="m 17.154,41.761 0.351,3.431 0.036,0.374 -1.433,0.112 -2.29,0.251 -0.176,-1.698 -0.211,-2.073 3.723,-0.397"
   id="18117"
   inkscape:label="Orange, IN"
   inkscape:connector-curvature="0" />
  <path
   style="fill:#72b3dc;stroke:#c2dffb;stroke-width:1"
   d="m 10.961,39.552 2.195,-0.219 0.275,2.825 0.211,2.073 -2.384,0.515 -0.297,-5.194"
   id="18101"
   inkscape:label="Martin, IN"
   inkscape:connector-curvature="0" />
  <path
   style="fill:#72b3dc;stroke:#c2dffb;stroke-width:1"
   d="m 9.032,39.738 1.929,-0.186 0.297,5.194 L 9.767,44.754 8.04,44.52 7.59,42.545 7.725,41.487 7.901,41.139 8.744,39.968 9.032,39.738"
   id="18027"
   inkscape:label="Daviess, IN"
   inkscape:connector-curvature="0" />
  <path
   style="fill:#72b3dc;stroke:#c2dffb;stroke-width:1"
   d="M 7.617,39.819 9.032,39.738 8.744,39.968 7.901,41.139 7.725,41.487 7.59,42.545 8.04,44.52 7.923,44.705 7.792,44.836 7.62,44.989 7.491,45.024 6.945,44.656 6.878,44.637 6.215,44.741 5.85,44.872 3.213,46.651 3.93,44.587 4.124,44.059 4.913,43.05 4.993,42.983 5.092,42.802 5.233,41.982 5.237,41.667 4.853,40.842 4.831,40.806 4.79,40.801 4.709,40.158 7.617,39.819"
   id="18083"
   inkscape:label="Knox, IN"
   inkscape:connector-curvature="0" />
  <path
   style="fill:#72b3dc;stroke:#c2dffb;stroke-width:1"
   d="m 7.201,35.276 0.1,1.127 0.316,3.416 L 4.709,40.158 4.768,40.077 4.84,39.873 4.867,39.462 4.151,38.183 3.682,37.632 3.479,36.939 3.61,35.596 7.201,35.276"
   id="18153"
   inkscape:label="Sullivan, IN"
   inkscape:connector-curvature="0" />
  <path
   style="fill:#72b3dc;stroke:#c2dffb;stroke-width:1"
   d="m 9.145,36.281 3.678,-0.324 0.225,2.24 0.108,1.136 -2.195,0.219 -1.929,0.186 -1.415,0.081 -0.316,-3.416 1.844,-0.122"
   id="18055"
   inkscape:label="Greene, IN"
   inkscape:connector-curvature="0" />
  <path
   style="fill:#72b3dc;stroke:#c2dffb;stroke-width:1"
   d="m 13.048,38.197 3.614,-0.343 0.722,2.899 -0.23,1.008 -3.723,0.397 -0.275,-2.825 -0.108,-1.136"
   id="18093"
   inkscape:label="Lawrence, IN"
   inkscape:connector-curvature="0" />
  <path
   style="fill:#72b3dc;stroke:#c2dffb;stroke-width:1"
   d="m 18.934,36.844 2.754,-0.526 0.401,3.366 -0.825,1.045 -3.88,0.024 -0.722,-2.899 -0.081,-0.748 2.353,-0.262"
   id="18071"
   inkscape:label="Jackson, IN"
   inkscape:connector-curvature="0" />
  <path
   style="fill:#72b3dc;stroke:#c2dffb;stroke-width:1"
   d="m 25.055,34.284 0.355,3.655 -0.919,0.112 -0.18,0.408 -0.1,0.305 -0.315,0.505 -0.712,0.193 -1.095,0.222 -0.401,-3.366 1.022,-0.929 2.345,-1.105"
   id="18079"
   inkscape:label="Jennings, IN"
   inkscape:connector-curvature="0" />
  <path
   style="fill:#72b3dc;stroke:#c2dffb;stroke-width:1"
   d="m 28.578,32.423 -0.126,4.714 -0.003,0.243 -0.645,0.281 -2.394,0.278 -0.355,-3.655 1.307,-1.1 2.216,-0.761"
   id="18137"
   inkscape:label="Ripley, IN"
   inkscape:connector-curvature="0" />
  <path
   style="fill:#72b3dc;stroke:#c2dffb;stroke-width:1"
   d="m 28.578,32.423 2.426,-0.257 0.297,2.579 -0.459,1.036 -2.39,1.356 0.126,-4.714"
   id="18029"
   inkscape:label="Dearborn, IN"
   inkscape:connector-curvature="0" />
  <path
   style="fill:#72b3dc;stroke:#c2dffb;stroke-width:1"
   d="m 30.716,29.362 0.288,2.804 -2.426,0.257 -2.216,0.761 -0.28,-2.388 -0.113,-0.928 2.573,-0.307 2.174,-0.199"
   id="18047"
   inkscape:label="Franklin, IN"
   inkscape:connector-curvature="0" />
  <path
   style="fill:#72b3dc;stroke:#c2dffb;stroke-width:1"
   d="m 22.819,31.166 3.263,-0.37 0.28,2.388 -1.307,1.1 -2.345,1.105 -0.288,-2.835 0.397,-1.388"
   id="18031"
   inkscape:label="Decatur, IN"
   inkscape:connector-curvature="0" />
  <path
   style="fill:#72b3dc;stroke:#c2dffb;stroke-width:1"
   d="m 22.422,32.554 0.288,2.835 -1.022,0.929 -2.754,0.526 -0.45,-3.795 1.311,-0.175 2.627,-0.32"
   id="18005"
   inkscape:label="Bartholomew, IN"
   inkscape:connector-curvature="0" />
  <path
   style="fill:#72b3dc;stroke:#c2dffb;stroke-width:1"
   d="m 16.847,33.253 1.637,-0.204 0.45,3.795 -2.353,0.262 -1.009,-3.696 1.275,-0.157"
   id="18013"
   inkscape:label="Brown, IN"
   inkscape:connector-curvature="0" />
  <path
   style="fill:#72b3dc;stroke:#c2dffb;stroke-width:1"
   d="m 13.107,33.549 2.465,-0.139 1.009,3.696 0.081,0.748 -3.614,0.343 -0.225,-2.24 0.284,-2.408"
   id="18105"
   inkscape:label="Monroe, IN"
   inkscape:connector-curvature="0" />
  <path
   style="fill:#72b3dc;stroke:#c2dffb;stroke-width:1"
   d="m 9.902,32.224 2.492,-0.202 0.713,1.527 -0.284,2.408 -3.678,0.324 -0.203,-2.262 1.094,-0.095 -0.134,-1.7"
   id="18119"
   inkscape:label="Owen, IN"
   inkscape:connector-curvature="0" />
  <path
   style="fill:#72b3dc;stroke:#c2dffb;stroke-width:1"
   d="m 7.189,30.733 1.833,-0.145 0.88,1.636 0.134,1.7 -1.094,0.095 0.203,2.262 -1.844,0.122 -0.1,-1.127 -0.296,-3.39 0.378,-0.022 -0.094,-1.131"
   id="18021"
   inkscape:label="Clay, IN"
   inkscape:connector-curvature="0" />
  <path
   style="fill:#72b3dc;stroke:#c2dffb;stroke-width:1"
   d="m 7.189,30.733 0.094,1.131 -0.378,0.022 0.296,3.39 -3.591,0.32 0.46,-2.885 -0.154,-1.685 1.47,-0.14 1.803,-0.153"
   id="18167"
   inkscape:label="Vigo, IN"
   inkscape:connector-curvature="0" />
  <path
   style="fill:#72b3dc;stroke:#c2dffb;stroke-width:1"
   d="m 4.538,24.183 0.072,2.277 0.451,0.59 0.127,0.167 0.179,0.356 -0.085,2.307 0.104,1.006 -1.47,0.14 -0.329,-3.569 -0.288,-3.43 1.239,0.156"
   id="18165"
   inkscape:label="Vermillion, IN"
   inkscape:connector-curvature="0" />
  <path
   style="fill:#72b3dc;stroke:#c2dffb;stroke-width:1"
   d="M 7.833,26.158 8.735,27.2 9.022,30.588 7.189,30.733 5.386,30.886 5.282,29.88 5.367,27.573 5.188,27.217 5.061,27.05 4.61,26.46 7.833,26.158"
   id="18121"
   inkscape:label="Parke, IN"
   inkscape:connector-curvature="0" />
  <path
   style="fill:#72b3dc;stroke:#c2dffb;stroke-width:1"
   d="m 8.735,27.2 3.078,-0.276 0.081,-0.009 0.171,1.771 0.294,1.249 0.166,0.365 -0.131,1.722 L 9.902,32.224 9.022,30.588 8.735,27.2"
   id="18133"
   inkscape:label="Putnam, IN"
   inkscape:connector-curvature="0" />
  <path
   style="fill:#72b3dc;stroke:#c2dffb;stroke-width:1"
   d="m 16.478,29.475 0.369,3.778 -1.275,0.157 -2.465,0.139 -0.713,-1.527 0.131,-1.722 1.88,-0.185 -0.041,-0.378 1.271,-0.153 0.095,-0.009 0.748,-0.1"
   id="18109"
   inkscape:label="Morgan, IN"
   inkscape:connector-curvature="0" />
  <path
   style="fill:#72b3dc;stroke:#c2dffb;stroke-width:1"
   d="m 19.394,29.111 0.401,3.763 -1.311,0.175 -1.637,0.204 -0.369,-3.778 2.916,-0.364"
   id="18081"
   inkscape:label="Johnson, IN"
   inkscape:connector-curvature="0" />
  <path
   style="fill:#72b3dc;stroke:#c2dffb;stroke-width:1"
   d="m 19.317,28.348 3.119,-0.355 0.383,3.173 -0.397,1.388 -2.627,0.32 -0.401,-3.763 -0.077,-0.763"
   id="18145"
   inkscape:label="Shelby, IN"
   inkscape:connector-curvature="0" />
  <path
   style="fill:#72b3dc;stroke:#c2dffb;stroke-width:1"
   d="m 22.665,26.816 2.89,-0.334 0.527,4.314 -3.263,0.37 -0.383,-3.173 0.229,-1.177"
   id="18139"
   inkscape:label="Rush, IN"
   inkscape:connector-curvature="0" />
  <path
   style="fill:#72b3dc;stroke:#c2dffb;stroke-width:1"
   d="m 25.555,26.482 0.784,-0.099 0.37,-0.04 0.094,0.942 1.474,-0.157 0.265,2.433 -2.573,0.307 -0.414,-3.386"
   id="18041"
   inkscape:label="Fayette, IN"
   inkscape:connector-curvature="0" />
  <path
   style="fill:#72b3dc;stroke:#c2dffb;stroke-width:1"
   d="m 28.277,27.128 2.136,-0.407 0.235,2.056 0.068,0.585 -2.174,0.199 -0.265,-2.433"
   id="18161"
   inkscape:label="Union, IN"
   inkscape:connector-curvature="0" />
  <path
   style="fill:#72b3dc;stroke:#c2dffb;stroke-width:1"
   d="m 30.022,23.12 0.117,1.141 0.274,2.46 -2.136,0.407 -1.474,0.157 -0.094,-0.942 -0.37,0.04 -0.127,-2.812 3.81,-0.451"
   id="18177"
   inkscape:label="Wayne, IN"
   inkscape:connector-curvature="0" />
  <path
   style="fill:#72b3dc;stroke:#c2dffb;stroke-width:1"
   d="m 22.454,23.044 3.53,-0.393 0.228,0.92 0.127,2.812 -0.784,0.099 -2.89,0.334 -0.026,-2.078 -0.185,-1.694"
   id="18065"
   inkscape:label="Henry, IN"
   inkscape:connector-curvature="0" />
  <path
   style="fill:#72b3dc;stroke:#c2dffb;stroke-width:1"
   d="m 22.639,24.738 0.026,2.078 -0.229,1.177 -3.119,0.355 -0.18,-2.987 0.712,-0.289 2.79,-0.334"
   id="18059"
   inkscape:label="Hancock, IN"
   inkscape:connector-curvature="0" />
  <path
   style="fill:#72b3dc;stroke:#c2dffb;stroke-width:1"
   d="m 19.137,25.361 0.18,2.987 0.077,0.763 -2.916,0.364 -0.748,0.1 -0.384,-3.778 0.835,-0.107 2.956,-0.329"
   id="18097"
   inkscape:label="Marion, IN"
   inkscape:connector-curvature="0" />
  <path
   style="fill:#72b3dc;stroke:#c2dffb;stroke-width:1"
   d="m 15.346,25.797 0.384,3.778 -0.095,0.009 -1.271,0.153 0.041,0.378 -1.88,0.185 -0.166,-0.365 -0.294,-1.249 -0.171,-1.771 -0.081,0.009 -0.072,-0.748 3.605,-0.379"
   id="18063"
   inkscape:label="Hendricks, IN"
   inkscape:connector-curvature="0" />
  <path
   style="fill:#72b3dc;stroke:#c2dffb;stroke-width:1"
   d="m 15.824,22.395 0.357,3.295 -0.835,0.107 -3.605,0.379 -0.334,-3.308 4.417,-0.473"
   id="18011"
   inkscape:label="Boone, IN"
   inkscape:connector-curvature="0" />
  <path
   style="fill:#72b3dc;stroke:#c2dffb;stroke-width:1"
   d="m 15.774,21.939 3.701,-0.427 0.374,3.56 -0.712,0.289 -2.956,0.329 -0.357,-3.295 -0.05,-0.456"
   id="18057"
   inkscape:label="Hamilton, IN"
   inkscape:connector-curvature="0" />
  <path
   style="fill:#72b3dc;stroke:#c2dffb;stroke-width:1"
   d="m 25.6,19.685 4.024,-0.509 0.398,3.944 -3.81,0.451 -0.228,-0.92 -0.384,-2.966"
   id="18135"
   inkscape:label="Randolph, IN"
   inkscape:connector-curvature="0" />
  <path
   style="fill:#72b3dc;stroke:#c2dffb;stroke-width:1"
   d="m 25.483,18.753 0.117,0.932 0.384,2.966 -3.53,0.393 -0.45,-3.904 1.302,-0.139 2.177,-0.248"
   id="18035"
   inkscape:label="Delaware, IN"
   inkscape:connector-curvature="0" />
  <path
   style="fill:#72b3dc;stroke:#c2dffb;stroke-width:1"
   d="m 22.004,19.14 0.45,3.904 0.185,1.694 -2.79,0.334 -0.374,-3.56 -0.226,-2.061 2.755,-0.311"
   id="18095"
   inkscape:label="Madison, IN"
   inkscape:connector-curvature="0" />
  <path
   style="fill:#72b3dc;stroke:#c2dffb;stroke-width:1"
   d="m 19.249,19.451 0.226,2.061 -3.701,0.427 -0.216,-2.042 3.655,-0.811 0.036,0.365"
   id="18159"
   inkscape:label="Tipton, IN"
   inkscape:connector-curvature="0" />
  <path
   style="fill:#72b3dc;stroke:#c2dffb;stroke-width:1"
   d="m 11.096,19.586 3.096,-0.306 0.645,-0.063 0.059,0.559 0.297,0.162 0.365,-0.041 0.216,2.042 0.05,0.456 -4.417,0.473 -0.045,-0.464 -0.266,-2.818"
   id="18023"
   inkscape:label="Clinton, IN"
   inkscape:connector-curvature="0" />
  <path
   style="fill:#72b3dc;stroke:#c2dffb;stroke-width:1"
   d="m 11.362,22.404 0.045,0.464 0.334,3.308 0.072,0.748 L 8.735,27.2 7.833,26.158 7.499,22.769 11.362,22.404"
   id="18107"
   inkscape:label="Montgomery, IN"
   inkscape:connector-curvature="0" />
  <path
   style="fill:#72b3dc;stroke:#c2dffb;stroke-width:1"
   d="M 7.499,22.769 7.833,26.158 4.61,26.46 4.538,24.183 4.232,23.854 l -0.05,-0.121 0.009,-0.068 0.132,-0.251 1.554,-1.632 0.239,-0.198 1.203,-0.776 0.18,1.961"
   id="18045"
   inkscape:label="Fountain, IN"
   inkscape:connector-curvature="0" />
  <path
   style="fill:#72b3dc;stroke:#c2dffb;stroke-width:1"
   d="m 29.238,15.792 0.319,2.836 0.067,0.548 -4.024,0.509 -0.117,-0.932 -0.095,-2.448 1.281,-0.162 2.569,-0.351"
   id="18075"
   inkscape:label="Jay, IN"
   inkscape:connector-curvature="0" />
  <path
   style="fill:#72b3dc;stroke:#c2dffb;stroke-width:1"
   d="m 23.008,16.581 2.38,-0.276 0.095,2.448 -2.177,0.248 -0.298,-2.42"
   id="18009"
   inkscape:label="Blackford, IN"
   inkscape:connector-curvature="0" />
  <path
   style="fill:#72b3dc;stroke:#c2dffb;stroke-width:1"
   d="m 21.035,15.67 1.833,-0.211 0.14,1.122 0.298,2.42 -1.302,0.139 -2.755,0.311 -0.036,-0.365 -0.239,-2.05 -0.125,-1.114 2.186,-0.252"
   id="18053"
   inkscape:label="Grant, IN"
   inkscape:connector-curvature="0" />
  <path
   style="fill:#72b3dc;stroke:#c2dffb;stroke-width:1"
   d="m 16.063,17.378 2.911,-0.342 0.239,2.05 -3.655,0.811 -0.365,0.041 -0.297,-0.162 -0.059,-0.559 -0.645,0.063 -0.153,-1.672 2.024,-0.23"
   id="18067"
   inkscape:label="Howard, IN"
   inkscape:connector-curvature="0" />
  <path
   style="fill:#72b3dc;stroke:#c2dffb;stroke-width:1"
   d="m 14.039,17.608 0.153,1.672 -3.096,0.306 -0.1986,-1.67168 -0.7064,0.0627 -0.122,-1.076 0.049,-1.068 0.037,-0.091 0.04,-0.053 1.609,-0.137 0.549,-0.049 1.519,0.406 0.167,1.699"
   id="18015"
   inkscape:label="Carroll, IN"
   inkscape:connector-curvature="0" />
  <path
   style="fill:#72b3dc;stroke:#c2dffb;stroke-width:1"
   d="m 7.048,18.271 3.143,-0.294 0.70702,-0.0628 0.19798,1.67176 0.266,2.818 -3.863,0.365 -0.18,-1.961 -0.149,-1.411 -0.122,-1.126"
   id="18157"
   inkscape:label="Tippecanoe, IN"
   inkscape:connector-curvature="0" />
  <path
   style="fill:#72b3dc;stroke:#c2dffb;stroke-width:1"
   d="m 2.966,19.762 4.204,-0.365 0.149,1.411 -1.203,0.776 -0.239,0.198 -1.554,1.632 -0.132,0.251 -0.009,0.068 0.05,0.121 0.306,0.329 -1.239,-0.156 -0.333,-4.265"
   id="18171"
   inkscape:label="Warren, IN"
   inkscape:connector-curvature="0" />
  <path
   style="fill:#72b3dc;stroke:#c2dffb;stroke-width:1"
   d="M 5.173,16.179 6.805,16.027 7.17,19.397 2.966,19.762 2.951,19.578 2.668,16.4 5.173,16.179"
   id="18007"
   inkscape:label="Benton, IN"
   inkscape:connector-curvature="0" />
  <path
   style="fill:#72b3dc;stroke:#c2dffb;stroke-width:1"
   d="m 28.698,11.276 0.304,2.506 0.236,2.01 -2.569,0.351 -0.573,-4.502 2.602,-0.365"
   id="18001"
   inkscape:label="Adams, IN"
   inkscape:connector-curvature="0" />
  <path
   style="fill:#72b3dc;stroke:#c2dffb;stroke-width:1"
   d="m 23.576,11.938 2.52,-0.297 0.573,4.502 -1.281,0.162 -2.38,0.276 -0.14,-1.122 1.105,-0.132 -0.397,-3.389"
   id="18179"
   inkscape:label="Wells, IN"
   inkscape:connector-curvature="0" />
  <path
   style="fill:#72b3dc;stroke:#c2dffb;stroke-width:1"
   d="m 20.489,11.168 2.965,-0.371 0.122,1.141 0.397,3.389 -1.105,0.132 -1.833,0.211 -0.546,-4.502"
   id="18069"
   inkscape:label="Huntington, IN"
   inkscape:connector-curvature="0" />
  <path
   style="fill:#72b3dc;stroke:#c2dffb;stroke-width:1"
   d="m 20.038,10.636 0.451,0.532 0.546,4.502 -2.186,0.252 -0.727,0.086 -0.54,-4.488 -0.054,-0.563 2.51,-0.321"
   id="18169"
   inkscape:label="Wabash, IN"
   inkscape:connector-curvature="0" />
  <path
   style="fill:#72b3dc;stroke:#c2dffb;stroke-width:1"
   d="m 17.582,11.52 0.54,4.488 0.727,-0.086 0.125,1.114 -2.911,0.342 -0.505,-4.475 2.024,-1.383"
   id="18103"
   inkscape:label="Miami, IN"
   inkscape:connector-curvature="0" />
  <path
   style="fill:#72b3dc;stroke:#c2dffb;stroke-width:1"
   d="m 12.673,13.196 2.885,-0.293 0.505,4.475 -2.024,0.23 -0.167,-1.699 -1.519,-0.406 -0.549,0.049 -0.226,-2.262 1.095,-0.094"
   id="18017"
   inkscape:label="Cass, IN"
   inkscape:connector-curvature="0" />
  <path
   style="fill:#72b3dc;stroke:#c2dffb;stroke-width:1"
   d="m 11.578,13.29 0.226,2.262 -1.609,0.137 -0.04,0.053 -0.037,0.091 -0.049,1.068 0.122,1.076 -3.143,0.294 -0.243,-2.244 1.406,-2.43 3.367,-0.307"
   id="18181"
   inkscape:label="White, IN"
   inkscape:connector-curvature="0" />
  <path
   style="fill:#72b3dc;stroke:#c2dffb;stroke-width:1"
   d="m 28.187,7.016 0.406,3.399 0.105,0.861 -2.602,0.365 -2.52,0.297 -0.122,-1.141 -0.112,-3.37 1.104,-0.127 3.713,-0.522 0.028,0.238"
   id="18003"
   inkscape:label="Allen, IN"
   inkscape:connector-curvature="0" />
  <path
   style="fill:#72b3dc;stroke:#c2dffb;stroke-width:1"
   d="m 19.997,7.4 1.109,-0.127 0.032,0.374 2.204,-0.22 0.112,3.37 -2.965,0.371 L 20.038,10.636 19.83,8.937 20.156,8.9 20.065,7.927 19.997,7.4"
   id="18183"
   inkscape:label="Whitley, IN"
   inkscape:connector-curvature="0" />
  <path
   style="fill:#72b3dc;stroke:#c2dffb;stroke-width:1"
   d="m 12.344,9.811 3.741,-0.401 1.443,1.547 0.054,0.563 -2.024,1.383 -2.885,0.293 -0.329,-3.385"
   id="18049"
   inkscape:label="Fulton, IN"
   inkscape:connector-curvature="0" />
  <path
   style="fill:#72b3dc;stroke:#c2dffb;stroke-width:1"
   d="m 12.344,9.811 0.329,3.385 -1.095,0.094 -3.367,0.307 -0.319,-3.358 4.452,-0.428"
   id="18131"
   inkscape:label="Pulaski, IN"
   inkscape:connector-curvature="0" />
  <path
   style="fill:#72b3dc;stroke:#c2dffb;stroke-width:1"
   d="m 24.044,3.916 3.71,-0.478 0.162,1.343 0.243,1.997 L 24.446,7.3 24.044,3.916"
   id="18033"
   inkscape:label="DeKalb, IN"
   inkscape:connector-curvature="0" />
  <path
   style="fill:#72b3dc;stroke:#c2dffb;stroke-width:1"
   d="M 24.044,3.916 24.446,7.3 23.342,7.427 21.138,7.647 21.106,7.273 19.997,7.4 19.782,5.565 19.647,4.452 24.044,3.916"
   id="18113"
   inkscape:label="Noble, IN"
   inkscape:connector-curvature="0" />
  <path
   style="fill:#72b3dc;stroke:#c2dffb;stroke-width:1"
   d="M 15.906,5.993 19.782,5.565 19.997,7.4 20.065,7.927 20.156,8.9 19.83,8.937 20.038,10.636 17.528,10.957 16.085,9.41 15.906,5.993"
   id="18085"
   inkscape:label="Kosciusko, IN"
   inkscape:connector-curvature="0" />
  <path
   style="fill:#72b3dc;stroke:#c2dffb;stroke-width:1"
   d="M 15.906,5.993 16.085,9.41 12.344,9.811 12.006,6.43 11.949,5.872 l 1.72,-0.203 2.174,-0.23 0.063,0.554"
   id="18099"
   inkscape:label="Marshall, IN"
   inkscape:connector-curvature="0" />
  <path
   style="fill:#72b3dc;stroke:#c2dffb;stroke-width:1"
   d="M 12.006,6.43 12.344,9.811 7.892,10.239 7.816,9.401 8.874,8.824 9.158,8.639 9.378,8.292 9.546,7.976 9.61,7.805 9.807,7.047 10.325,6.601 11.451,6.489 12.006,6.43"
   id="18149"
   inkscape:label="Starke, IN"
   inkscape:connector-curvature="0" />
  <path
   style="fill:#72b3dc;stroke:#c2dffb;stroke-width:1"
   d="m 7.816,9.401 0.076,0.838 0.319,3.358 -1.406,2.43 L 5.173,16.179 4.949,13.917 4.895,13.895 4.867,13.84 4.515,9.951 5.034,9.599 5.26,9.275 5.805,8.959 5.913,8.937 6.107,8.986 6.629,9.167 7.373,9.639 7.458,9.663 7.734,9.509 7.816,9.401"
   id="18073"
   inkscape:label="Jasper, IN"
   inkscape:connector-curvature="0" />
  <path
   style="fill:#72b3dc;stroke:#c2dffb;stroke-width:1"
   d="M 2.167,10.847 4.515,9.951 4.867,13.84 4.895,13.895 4.949,13.917 5.173,16.179 2.668,16.4 2.352,12.862 2.167,10.847"
   id="18111"
   inkscape:label="Newton, IN"
   inkscape:connector-curvature="0" />
  <path
   style="fill:#72b3dc;stroke:#c2dffb;stroke-width:1"
   d="m 27.209,0.5 0.279,0.801 0.266,2.137 -3.71,0.478 L 23.675,0.915 27.209,0.5"
   id="18151"
   inkscape:label="Steuben, IN"
   inkscape:connector-curvature="0" />
  <path
   style="fill:#72b3dc;stroke:#c2dffb;stroke-width:1"
   d="m 22.765,1.013 0.91,-0.098 0.369,3.001 -4.397,0.536 -0.38,-3.037 3.498,-0.402"
   id="18087"
   inkscape:label="LaGrange, IN"
   inkscape:connector-curvature="0" />
  <path
   style="fill:#72b3dc;stroke:#c2dffb;stroke-width:1"
   d="m 19.267,1.415 0.38,3.037 0.135,1.113 -3.876,0.428 -0.474,-4.182 2.582,-0.262 1.253,-0.134"
   id="18039"
   inkscape:label="Elkhart, IN"
   inkscape:connector-curvature="0" />
  <path
   style="fill:#72b3dc;stroke:#c2dffb;stroke-width:1"
   d="m 15.432,1.811 0.411,3.628 -2.174,0.23 -1.72,0.203 0.057,0.558 -0.555,0.059 -0.414,-4.219 2.84,-0.293 1.555,-0.166"
   id="18141"
   inkscape:label="St. Joseph, IN"
   inkscape:connector-curvature="0" />
  <path
   style="fill:#72b3dc;stroke:#c2dffb;stroke-width:1"
   d="M 8.171,2.545 11.037,2.27 11.451,6.489 10.325,6.601 9.807,7.047 9.61,7.805 9.546,7.976 9.378,8.292 9.158,8.639 8.874,8.824 7.816,9.401 7.201,3.28 8.171,2.545"
   id="18091"
   inkscape:label="LaPorte, IN"
   inkscape:connector-curvature="0" />
  
  
  
  
  
  
  
  
  
  
  
  
  
  
  
  
  
  
  
  
  
  
  
  
  
  
  
  
  
  
  
  
  
  
  
  
  
  
  
  
  
  
  
  
  
  
  
  
  
  
  
  
  
  
  
  
  
  
  
  
  
  
  
  
  
  
  
  
  
  
  
  
  
  
  
  
  
  
  
  
  
  
  
  
  
  
  
  
  
  
  
  
  
  
  
  
  
  
  
  
  
  
  
  
  
  
  
  
  
  
  
  
  
  
  
  
  
  
  
  
  
  
  
  
  
  
  
  
  
  
  
  
  
  
  
  
  
  
  
  
  
  
  
  
  
  
  
  
  
  
  
  
  
  
  
  
  
  
  
  
  
  
  
  
  
  
  
  
  
  
  
  
  
  
  
  
  
  
  
  
  
  
  
  
  
  
  
  
  
  
  
  
  
  
  
  
  
  
  
  
  
  
  
  
  
  
  
  
  
  
  
  
  
  
  
  
  
  
  
  
  
  
  
  
  
  
  
  
  
  
  
  
  
  
  
  
  
  
  
  
  
  
  
  
  
  
  
  
  
  
  
  
  
  
  
  
  
  
  
  
  
  
  
  
  
  
  
  
  
  
  
  
  
  
  
  
  
  
  
  
  
  
  
  
  
  
  
  
  
  
  
  
  
  
  
  
  
  
  
  
  
  
  
  
  
  
  
  
  
  
  
  
  
  
  
  
  
  
  
  
  
  
  
  
  
  
  
  
  
  
  
  
  
  
  
  
  
  
  
  
  
  
  
  
  
  
  
  
  
  
  
  
  
  
  
  
  
  
  
  
  
  
  
  
  
  
  
  
  
  
  
  
  
  
  
  
  
  
  
  
  
  
  
  
  
  
  
  
  
  
  
  
  
  
  
  
  
  
  
  
  
  
  
  
  
  
  
  
  
  
  
  
  
  
  
  
  
  
  
  
  
  
  
  
  
  
  
  
  
  
  
  
  
  
  
  
  
  
  
  
  
  
  
  
  
  
  
  
  
  
  
  
  
  
  
  
  
  
  
  
  
  
  
  
  
  
  
  
  
  
  
  
  
  
  
  
  
  
  
  
  
  
  
  
  
  
  
  
  
  
  
  
  
  
  
  
  
  
  
  
  
  
  
  
  
  
  
  
  
  
  
  
  
  
  
  
  
  
  
  
  
  
  
  
  
  
  
  
  
  
  
  
  
  
  
  
  
  
  
  
  
  
  
  
  
  
  
  
  
  
  
  
  
  
  
  
  
  
  
  
  
  
  
  
  
  
  
  
  
  
  
  
  
  
  
  
  
  
  
  
  
  
  
  
  
  
  
  
  
  
  
  
  
  
  
  
  
  
  
  
  
  
  
  
  
  
  
  
  
  
  
  
  
  
  
  
  
  
  
  
  
  
  
  
  
  
  
  
  
  
  
  
  
  
  
  
  
  
  
  
  
  
  
  
  
  
  
  
  
  
  
  
  
  
  
  
  
  
  
  
  
  
  
  
  
  
  
  
  
  
  
  
  
  
  
  
  
  
  
  
  
  
  
  
  
  
  
  
  
  
  
  
  
  
  
  
  
  
  
  
  
  
  
  
  
  
  
  
  
  
  
  
  
  
  
  
  
  
  
  
  
  
  
  
  
  
  
  
  
  
  
  
  
  
  
  
  
  
  
  
  
  
  
  
  
  
  
  
  
  
  
  
  
  
  
  
  
  
  
  
  
  
  
  
  
  
  
  
  
  
  
  
  
  
  
  
  
  
  
  
  
  
  
  
  
  
  
  
  
  
  
  
  
  
  
  
  
  
  
  
  
  
  
  
  
  
  
  
  
  
  
  
  
  
  
  
  
  
  
  
  
  
  
  
  
  
  
  
  
  
  
  
  
  
  
  
  
  
  
  
  
  
  
  
  
  
  
  
  
  
  
  
  
  
  
  
  
  
  
  
  
  
  
  
  
  
  
  
  
  
  
  
  
  
  
  
  
  
  
  
  
  
  
  
  
  
  
  
  
  
  
  
  
  
  
  
  
  
  
  
  
  
  
  
  
  
  
  
  
  
  
  
  
  
  
  
  
  
  
  
  
  
  
  
  
  
  
  
  
  
  
  
  
  
  
  
  
  
  
  
  
  
  
  
  
  
  
  
  
  
  
  
  
  
  
  
  
  
  
  
  
  
  
  
  
  
  
  
  
  
  
  
  
  
  
  
  
  
  
  
  
  
  
  
  
  
  
  
  
  
  
  
  
  
  
  
  
  
  
  
  
  
  
  
  
  
  
  
  
  
  
  
  
  
  
  
  
  
  
  
  
  
  
  
  
  
  
  
  
  
  
  
  
  
  
  
  
  
  
  
  
  
  
  
  
  
  
  
  
  
  
  
  
  
  
  
  
  
  
  
  
  
  
  
  
  
  
  
  
  
  
  
  
  
  
  
  
  
  
  
  
  
  
  
  
  
  
  
  
  
  
  
  
  
  
  
  
  
  
  
  
  
  
  
  
  
  
  
  
  
  
  
  
  
  
  
  
  
  
  
  
  
  
  
  
  
  
  
  
  
  
  
  
  
  
  
  
  
  
  
  
  
  
  
  
  
  
  
  
  
  
  
  
  
  
  
  
  
  
  
  
  
  
  
  
  
  
  
  
  
  
  
  
  
  
  
  
  
  
  
  
  
  
  
  
  
  
  
  
  
  
  
  
  
  
  
  
  
  
  
  
  
  
  
  
  
  
  
  
  
  
  
  
  
  
  
  
  
  
  
  
  
  
  
  
  
  
  
  
  
  
  
  
  
  
  
  
  
  
  
  
  
  
  
  
  
  
  
  
  
  
  
  
  
  
  
  
  
  
  
  
  
  
  
  
  
  
  
  
  
  
  
  
  
  
  
  
  
  
  
  
  
  
  
  
  
  
  
  
  
  
  
  
  
  
  
  
  
  
  
  
  
  
  
  
  
  
  
  
  
  
  
  
  
  
  
  
  
  
  
  
  
  
  
  
  
  
  
  
  
  
  
  
  
  
  
  
  
  
  
  
  
  
  
  
  
  
  
  
  
  
  
  
  
  
  
  
  
  
  
  
  
  
  
  
  
  
  
  
  
  
  
  
  
  
  
  
  
  
  
  
  
  
  
  
  
  
  
  
  
  
  
  
  
  
  
  
  
  
  
  
  
  
  
  
  
  
  
  
  
  
  
  
  
  
  
  
  
  
  
  
  
  
  
  
  
  
  
  
  
  
  
  
  
  
  
  
  
  
  
  
  
  
  
  
  
  
  
  
  
  
  
  
  
  
  
  
  
  
  
  
  
  
  
  
  
  
  
  
  
  
  
  
  
  
  
  
  
  
  
  
  
  
  
  
  
  
  
  
  
  
  
  
  
  
  
  
  
  
  
  
  
  
  
  
  
  
  
  
  
  
  
  
  
  
  
  
  
  
  
  
  
  
  
  
  
  
  
  
  
  
  
  
  
  
  
  
  
  
  
  
  
  
  
  
  
  
  
  
  
  
  
  
  
  
  
  
  
  
  
  
  
  
  
  
  
  
  
  
  
  
  
  
  
  
  
  
  
  
  
  
  
  
  
  
  
  
  
  
  
  
  
  
  
  
  
  
  
  
  
  
  
  
  
  
  
  
  
  
  
  
  
  
  
  
  
  
  
  
  
  
  
  
  
  
  
  
  
  
  
  
  
  
  
  
  
  
  
  
  
  
  
  
  
  
  
  
  
  
  
  
  
  
  
  
  
  
  
  
  
  
  
  
  
  
  
  
  
  
  
  
  
  
  
  
  
  
  
  
  
  
  
  
  
  
  
  
  
  
  
  
  
  
  
  
  
  
  
  
  
  
  
  
  
  
  
  
  
  
  
  
  
  
  
  
  
  
  
  
  
  
  
  
  
  
  
  
  
  
  
  
  
  
  
  
  
  
  
  
  
  
  
  
  
  
  
  
  
  
  
  
  
  
  
  
  
  
  
  
  
  
  
  
  
  
  
  
  
  
  
  
  
  
  
  
  
  
  
  
  
  
  
  
  
  
  
  
  
  
  
  
  
  
  
  
  
  
  
  
  
  
  
  
  
  
  
  
  
  
  
  
  
  
  
  
  
  
  
  
  
  
  
  
  
  
  
  
  
  
  
  
  
  
  
  
  
  
  
  
  
  
  
  
  
  
  
  
  
  
  
  
  
  
  
  
  
  
  
  
  
  
  
  
  
  
  
  
  
  
  
  
  
  
  
  
  
  
  
  
  
  
  
  
  
  
  
  
  
  
  
  
  
  
  
  
  
  
  
  
  
  
  
  
  
  
  
  
  
  
  
  
  
  
  
  
  
  
  
  
  
  
  
  
  
  
  
  
  
  
  
  
  
  
  
  
  
  
  
  
  
  
  
  
  
  
  
  
  
  
  
  
  
  
  
  
  
  
  
  
  
  
  
  
  
  
  
  
  
  
  
  
  
  
  
  
  
  
  
  
  
  
  
  
  
  
  
  
  
  
  
  
  
  
  
  
  
  
  
  
  
  
  
  
  
  
  
  
  
  
  
  
  
  
  
  
  
  
  
  
  
  
  
  
  
  
  
  
  
  
  
  
  
  
  
  
  
  
  
  
  
  
  
  
  
  
  
  
  
  
  
  
  
  
  
  
  
  
  
  
  
  
  
  
  
  
  
  
  
  
  
  
  
  
  
  
  
  
  
  
  
  
  
  
  
  
  
  
  
  
  
  
  
  
  
  
  
  
  
  
  
  
  
  
  
  
  
  
  
  
  
  
  
  
  
  
  
  
  
  
  
  
  
  
  
  
  
  
  
  
  
  
  
  
  
  
  
  
  
  
  
  
  
  
  
  
  
  
  
  
  
  
  
  
  
  
  
  
  
  
  
  
  
  
  
  
  
  
  
  
  
  
  
  
  
  
  
  
  
  
  
  
  
  
  
  
  
  
  
  
  
  
  
  
  
  
  
  
  
  
  
  
  
  
  
  
  
  
  
  
  
  
  
  
  
  
  
  
  
  
  
  
  
  
  
  
  
  
  
  
  
  
  
  
  
  
  
  
  
  
  
  
  
  
  
  
  
  
  
  
  
  
  
  
  
  
  
  
  
</svg>