<?xml version="1.0" encoding="UTF-8" standalone="no"?>
<!--?xml version="1.0" encoding="UTF-8" standalone="no"?-->

<svg
   xmlns:dc="http://purl.org/dc/elements/1.1/"
   xmlns:cc="http://creativecommons.org/ns#"
   xmlns:rdf="http://www.w3.org/1999/02/22-rdf-syntax-ns#"
   xmlns:svg="http://www.w3.org/2000/svg"
   xmlns="http://www.w3.org/2000/svg"
   xmlns:sodipodi="http://sodipodi.sourceforge.net/DTD/sodipodi-0.dtd"
   xmlns:inkscape="http://www.inkscape.org/namespaces/inkscape"
   width="83.171265"
   height="45.375782"
   viewBox="0 0 76.881001 41.449032"
   preserveAspectRatio="xMinYMin meet"
   xml:space="preserve"
   id="svg1016"
   version="1.1"
   inkscape:version="0.48.2 r9819"
   sodipodi:docname="KS.svg"><metadata
   id="metadata1127"><rdf:RDF><cc:Work
       rdf:about=""><dc:format>image/svg+xml</dc:format><dc:type
         rdf:resource="http://purl.org/dc/dcmitype/StillImage" /></cc:Work></rdf:RDF></metadata><defs
   id="defs1125" /><sodipodi:namedview
   pagecolor="#ffffff"
   bordercolor="#666666"
   borderopacity="1"
   objecttolerance="10"
   gridtolerance="10"
   guidetolerance="10"
   inkscape:pageopacity="0"
   inkscape:pageshadow="2"
   inkscape:window-width="640"
   inkscape:window-height="480"
   id="namedview1123"
   showgrid="false"
   inkscape:zoom="0.56730769"
   inkscape:cx="47.336058"
   inkscape:cy="-3.9398818"
   inkscape:window-x="0"
   inkscape:window-y="0"
   inkscape:window-maximized="0"
   inkscape:current-layer="svg1016" />
  
  
  
  
  
  
  
  
  
  
  
  
  
  
  
  
  
  
  
  
  
  
  
  
  
  
  
  
  
  
  
  
  
  
  
  
  
  
  
  
  
  
  
  
  
  
  
  
  
  
  
  
  
  
  
  
  
  
  
  
  
  
  
  
  
  
  
  
  
  
  
  
  
  
  
  
  
  
  
  
  
  
  
  
  
  
  
  
  
  
  
  
  
  
  
  
  
  
  
  
  
  
  
  
  
  
  
  
  
  
  
  
  
  
  
  
  
  
  
  
  
  
  
  
  
  
  
  
  
  
  
  
  
  
  
  
  
  
  
  
  
  
  
  
  
  
  
  
  
  
  
  
  
  
  
  
  
  
  
  
  
  
  
  
  
  
  
  
  
  
  
  
  
  
  
  
  
  
  
  
  
  
  
  
  
  
  
  
  
  
  
  
  
  
  
  
  
  
  
  
  
  
  
  
  
  
  
  
  
  
  
  
  
  
  
  
  
  
  
  
  
  
  
  
  
  
  
  
  
  
  
  
  
  
  
  
  
  
  
  
  
  
  
  
  
  
  
  
  
  
  
  
  
  
  
  
  
  
  
  
  
  
  
  
  
  
  
  
  
  
  
  
  
  
  
  
  
  
  
  
  
  
  
  
  
  
  
  
  
  
  
  
  
  
  
  
  
  
  
  
  
  
  
  
  
  
  
  
  
  
  
  
  
  
  
  
  
  
  
  
  
  
  
  
  
  
  
  
  
  
  
  
  
  
  
  
  
  
  
  
  
  
  
  
  
  
  
  
  
  
  
  
  
  
  
  
  
  
  
  
  
  
  
  
  
  
  
  
  
  
  
  
  
  
  
  
  
  
  
  
  
  
  
  
  
  
  
  
  
  
  
  
  
  
  
  
  
  
  
  
  
  
  
  
  
  
  
  
  
  
  
  
  
  
  
  
  
  
  
  
  
  
  
  
  
  
  
  
  
  
  
  
  
  
  
  
  
  
  
  
  
  
  
  
  
  
  
  
  
  
  
  
  
  
  
  
  
  
  
  
  
  
  
  
  
  
  
  
  
  
  
  
  
  
  
  
  
  
  
  
  
  
  
  
  
  
  
  
  
  
  
  
  
  
  
  
  
  
  
  
  
  
  
  
  
  
  
  
  
  
  
  
  
  
  
  
  
  
  
  
  
  
  
  
  
  
  
  
  
  
  
  
  
  
  
  
  
  
  
  
  
  
  
  
  
  
  
  
  
  
  
  
  
  
  
  
  
  
  
  
  
  
  
  
  
  
  
  
  
  
  
  
  
  
  
  
  
  
  
  
  
  
  
  
  
  
  
  
  
  
  
  
  
  
  
  
  
  
  
  
  
  
  
  
  
  
  
  
  
  
  
  
  
  
  
  
  
  
  
  
  
  
  
  
  
  
  
  
  
  
  
  
  
  
  
  
  
  
  
  
  
  
  
  
  
  
  
  
  
  
  
  
  
  
  
  
  
  
  
  
  
  
  
  
  
  
  
  
  
  
  
  
  
  
  
  
  
  
  
  
  
  
  
  
  
  
  
  
  
  
  
  
  
  
  
  
  
  
  
  
  
  
  
  
  
  
  
  
  
  
  
  
  
  
  
  
  
  
  
  
  
  
  
  
  
  
  
  
  
  
  
  
  
  
  
  
  
  
  
  
  
  
  
  
  
  
  
  
  
  
  
  
  
  
  
  
  
  
  
  
  
  
  
  
  
  
  
  
  
  
  
  
  
  
  
  
  
  
  
  
  
  
  
  
  
  
  
  
  
  
  
  
  
  
  
  
  
  
  
  
  
  
  
  
  
  
  
  
  
  
  
  
  
  
  
  
  
  
  
  
  
  
  
  
  
  
  
  
  
  
  
  
  
  
  
  
  
  
  
  
  
  
  
  
  
  
  
  
  
  
  
  
  
  
  
  
  
  
  
  
  
  
  
  
  
  
  
  
  
  
  
  
  
  
  
  
  
  
  
  
  
  
  
  
  
  <path
   style="fill:#72b3dc;stroke:#c2dffb;stroke-width:1"
   d="m 68.728,2.408 0.311,0 0.005,0.121 0.063,0.091 1.19,1.077 0.482,0.31 0.243,0.09 0.189,0.072 0.036,0.013 0.045,-0.004 0.375,-0.036 0.073,-0.027 0.058,-0.054 0.008,-0.009 0.338,-0.383 0.825,1.037 0.081,0.383 0.077,0.356 L 72.92,5.906 72.712,5.942 72,6.572 71.96,6.618 71.621,7.113 71.504,7.28 68.76,6.919 68.728,2.408"
   id="20043"
   inkscape:label="Doniphan, KS"
   inkscape:connector-curvature="0" />
  <path
   style="fill:#72b3dc;stroke:#c2dffb;stroke-width:1"
   d="m 64.329,2.425 4.399,-0.017 0.032,4.511 -2.213,0.013 -2.218,0.01 0,-4.517"
   id="20013"
   inkscape:label="Brown, KS"
   inkscape:connector-curvature="0" />
  <path
   style="fill:#72b3dc;stroke:#c2dffb;stroke-width:1"
   d="M 1.117,29.887 6.319,30.234 6.071,34.746 5.755,34.728 0.829,34.416 1.045,31.108 1.117,29.887"
   id="20187"
   inkscape:label="Stanton, KS"
   inkscape:connector-curvature="0" />
  <path
   style="fill:#72b3dc;stroke:#c2dffb;stroke-width:1"
   d="M 0.829,34.416 5.755,34.728 5.471,39.83 0.644,39.564 0.5,39.555 0.829,34.416"
   id="20129"
   inkscape:label="Morton, KS"
   inkscape:connector-curvature="0" />
  <path
   style="fill:#72b3dc;stroke:#c2dffb;stroke-width:1"
   d="m 5.755,34.728 0.316,0.018 4.426,0.256 0.22,0.014 -0.256,5.062 -4.99,-0.248 0.284,-5.102"
   id="20189"
   inkscape:label="Stevens, KS"
   inkscape:connector-curvature="0" />
  <path
   style="fill:#72b3dc;stroke:#c2dffb;stroke-width:1"
   d="m 6.319,30.234 4.421,0.243 -0.243,4.525 -4.426,-0.256 0.248,-4.512"
   id="20067"
   inkscape:label="Grant, KS"
   inkscape:connector-curvature="0" />
  <path
   style="fill:#72b3dc;stroke:#c2dffb;stroke-width:1"
   d="m 15.166,30.707 -0.176,3.394 -0.054,1.136 -4.219,-0.221 -0.22,-0.014 0.243,-4.525 4.426,0.23"
   id="20081"
   inkscape:label="Haskell, KS"
   inkscape:connector-curvature="0" />
  <path
   style="fill:#72b3dc;stroke:#c2dffb;stroke-width:1"
   d="m 14.936,35.237 -0.049,5.039 -3.187,-0.135 -1.239,-0.063 0.256,-5.062 4.219,0.221"
   id="20175"
   inkscape:label="Seward, KS"
   inkscape:connector-curvature="0" />
  <path
   style="fill:#72b3dc;stroke:#c2dffb;stroke-width:1"
   d="m 19.425,34.3 1.105,0.059 -0.086,6.146 -5.557,-0.229 0.049,-5.039 0.054,-1.136 4.435,0.199"
   id="20119"
   inkscape:label="Meade, KS"
   inkscape:connector-curvature="0" />
  <path
   style="fill:#72b3dc;stroke:#c2dffb;stroke-width:1"
   d="m 19.565,28.599 -0.14,5.701 -4.435,-0.199 0.176,-3.394 -0.072,-1.212 0.117,-2.253 4.413,0.23 -0.059,1.127"
   id="20069"
   inkscape:label="Gray, KS"
   inkscape:connector-curvature="0" />
  <path
   style="fill:#72b3dc;stroke:#c2dffb;stroke-width:1"
   d="m 19.565,28.599 6.635,0.287 0.018,2.318 -0.095,3.469 -5.593,-0.314 -1.105,-0.059 0.14,-5.701"
   id="20057"
   inkscape:label="Ford, KS"
   inkscape:connector-curvature="0" />
  <path
   style="fill:#72b3dc;stroke:#c2dffb;stroke-width:1"
   d="m 26.123,34.673 0.085,1.132 -0.162,4.957 -4.715,-0.216 -0.887,-0.041 0.086,-6.146 5.593,0.314"
   id="20025"
   inkscape:label="Clark, KS"
   inkscape:connector-curvature="0" />
  <path
   style="fill:#72b3dc;stroke:#c2dffb;stroke-width:1"
   d="m 31.617,35.949 -0.049,5.003 -4.652,-0.158 -0.87,-0.032 0.162,-4.957 5.409,0.144"
   id="20033"
   inkscape:label="Comanche, KS"
   inkscape:connector-curvature="0" />
  <path
   style="fill:#72b3dc;stroke:#c2dffb;stroke-width:1"
   d="m 26.218,31.204 5.521,0.216 -0.095,3.411 -0.027,1.118 -5.409,-0.144 -0.085,-1.132 0.095,-3.469"
   id="20097"
   inkscape:label="Kiowa, KS"
   inkscape:connector-curvature="0" />
  <path
   style="fill:#72b3dc;stroke:#c2dffb;stroke-width:1"
   d="m 26.289,26.62 2.204,0.077 -0.036,1.131 3.308,0.112 0.014,2.281 -0.04,1.199 -5.521,-0.216 -0.018,-2.318 0.089,-2.266"
   id="20047"
   inkscape:label="Edwards, KS"
   inkscape:connector-curvature="0" />
  <path
   style="fill:#72b3dc;stroke:#c2dffb;stroke-width:1"
   d="m 37.251,30.387 0.045,1.195 -0.09,3.398 -5.562,-0.149 0.095,-3.411 0.04,-1.199 5.472,0.166"
   id="20151"
   inkscape:label="Pratt, KS"
   inkscape:connector-curvature="0" />
  <path
   style="fill:#72b3dc;stroke:#c2dffb;stroke-width:1"
   d="m 31.644,34.831 5.562,0.149 1.14,1.163 -0.095,5.017 -2.023,-0.064 -4.66,-0.144 0.049,-5.003 0.027,-1.118"
   id="20007"
   inkscape:label="Barber, KS"
   inkscape:connector-curvature="0" />
  <path
   style="fill:#72b3dc;stroke:#c2dffb;stroke-width:1"
   d="m 38.346,36.143 5.521,0.091 -0.045,5.038 -3.169,-0.059 -2.402,-0.053 0.095,-5.017"
   id="20077"
   inkscape:label="Harper, KS"
   inkscape:connector-curvature="0" />
  <path
   style="fill:#72b3dc;stroke:#c2dffb;stroke-width:1"
   d="m 37.296,31.582 6.648,0.134 -0.059,3.376 -0.018,1.142 -5.521,-0.091 -1.14,-1.163 0.09,-3.398"
   id="20095"
   inkscape:label="Kingman, KS"
   inkscape:connector-curvature="0" />
  <path
   style="fill:#72b3dc;stroke:#c2dffb;stroke-width:1"
   d="m 42.903,25.98 2.217,0.04 -0.063,3.39 -1.113,2.306 -6.648,-0.134 -0.045,-1.195 0.112,-4.525 5.54,0.118"
   id="20155"
   inkscape:label="Reno, KS"
   inkscape:connector-curvature="0" />
  <path
   style="fill:#72b3dc;stroke:#c2dffb;stroke-width:1"
   d="m 48.442,26.075 2.185,1.149 -0.017,2.271 -5.553,-0.085 0.063,-3.39 3.322,0.055"
   id="20079"
   inkscape:label="Harvey, KS"
   inkscape:connector-curvature="0" />
  <path
   style="fill:#72b3dc;stroke:#c2dffb;stroke-width:1"
   d="m 45.057,29.41 5.553,0.085 -0.077,5.684 -6.648,-0.087 0.059,-3.376 1.113,-2.306"
   id="20173"
   inkscape:label="Sedgwick, KS"
   inkscape:connector-curvature="0" />
  <path
   style="fill:#72b3dc;stroke:#c2dffb;stroke-width:1"
   d="m 43.885,35.092 6.648,0.087 -0.018,6.193 -3.218,-0.04 -3.475,-0.06 0.045,-5.038 0.018,-1.142"
   id="20191"
   inkscape:label="Sumner, KS"
   inkscape:connector-curvature="0" />
  <path
   style="fill:#72b3dc;stroke:#c2dffb;stroke-width:1"
   d="m 50.533,35.179 6.373,0.045 0,2.258 -0.032,3.943 -2.294,-0.013 -4.065,-0.04 0.018,-6.193"
   id="20035"
   inkscape:label="Cowley, KS"
   inkscape:connector-curvature="0" />
  <path
   style="fill:#72b3dc;stroke:#c2dffb;stroke-width:1"
   d="m 53.774,27.282 3.209,0.013 -0.063,6.229 -0.014,1.7 -6.373,-0.045 0.077,-5.684 0.017,-2.271 3.147,0.058"
   id="20015"
   inkscape:label="Butler, KS"
   inkscape:connector-curvature="0" />
  <path
   style="fill:#72b3dc;stroke:#c2dffb;stroke-width:1"
   d="m 56.906,37.482 5.707,0.059 0.003,3.903 -0.373,0 -5.369,-0.019 0.032,-3.943"
   id="20019"
   inkscape:label="Chautauqua, KS"
   inkscape:connector-curvature="0" />
  <path
   style="fill:#72b3dc;stroke:#c2dffb;stroke-width:1"
   d="m 62.643,33.582 0,2.822 -0.03,1.137 -5.707,-0.059 0,-2.258 0.014,-1.7 5.723,0.058"
   id="20049"
   inkscape:label="Elk, KS"
   inkscape:connector-curvature="0" />
  <path
   style="fill:#72b3dc;stroke:#c2dffb;stroke-width:1"
   d="m 62.662,26.206 -0.005,1.703 -0.014,3.975 0,1.698 -5.723,-0.058 0.063,-6.229 1.672,-1.117 4.007,0.028"
   id="20073"
   inkscape:label="Greenwood, KS"
   inkscape:connector-curvature="0" />
  <path
   style="fill:#72b3dc;stroke:#c2dffb;stroke-width:1"
   d="m 62.643,36.404 4.431,0.023 0.046,0 0.04,1.524 -0.031,2.659 0.003,0.815 -2.704,0.014 -1.812,0.005 -0.003,-3.903 0.03,-1.137"
   id="20125"
   inkscape:label="Montgomery, KS"
   inkscape:connector-curvature="0" />
  <path
   style="fill:#72b3dc;stroke:#c2dffb;stroke-width:1"
   d="m 62.643,31.884 4.408,0.009 0.023,4.534 -4.431,-0.023 0,-4.52"
   id="20205"
   inkscape:label="Wilson, KS"
   inkscape:connector-curvature="0" />
  <path
   style="fill:#72b3dc;stroke:#c2dffb;stroke-width:1"
   d="m 62.657,27.909 4.44,0.013 -0.046,3.971 -4.408,-0.009 0.014,-3.975"
   id="20207"
   inkscape:label="Woodson, KS"
   inkscape:connector-curvature="0" />
  <path
   style="fill:#72b3dc;stroke:#c2dffb;stroke-width:1"
   d="m 67.12,36.427 4.407,-0.032 0.135,0.572 0.063,4.422 -3.42,0.032 -1.173,0.004 -0.003,-0.815 0.031,-2.659 -0.04,-1.524"
   id="20099"
   inkscape:label="Labette, KS"
   inkscape:connector-curvature="0" />
  <path
   style="fill:#72b3dc;stroke:#c2dffb;stroke-width:1"
   d="m 71.482,31.867 0.01,0.751 0.035,3.777 -4.407,0.032 -0.046,0 -0.023,-4.534 4.431,-0.026"
   id="20133"
   inkscape:label="Neosho, KS"
   inkscape:connector-curvature="0" />
  <path
   style="fill:#72b3dc;stroke:#c2dffb;stroke-width:1"
   d="m 71.549,27.895 -0.067,3.972 -4.431,0.026 0.046,-3.971 4.452,-0.027"
   id="20001"
   inkscape:label="Allen, KS"
   inkscape:connector-curvature="0" />
  <path
   style="fill:#72b3dc;stroke:#c2dffb;stroke-width:1"
   d="m 71.662,36.967 4.66,-0.036 0.059,4.422 -3.984,0.032 -0.672,0.004 -0.063,-4.422"
   id="20021"
   inkscape:label="Cherokee, KS"
   inkscape:connector-curvature="0" />
  <path
   style="fill:#72b3dc;stroke:#c2dffb;stroke-width:1"
   d="m 76.255,32.578 0.063,4.015 0.004,0.338 -4.66,0.036 -0.135,-0.572 -0.035,-3.777 4.763,-0.04"
   id="20037"
   inkscape:label="Crawford, KS"
   inkscape:connector-curvature="0" />
  <path
   style="fill:#72b3dc;stroke:#c2dffb;stroke-width:1"
   d="m 71.549,27.895 4.675,-0.045 0.031,4.728 -4.763,0.04 -0.01,-0.751 0.067,-3.972"
   id="20011"
   inkscape:label="Bourbon, KS"
   inkscape:connector-curvature="0" />
  <path
   style="fill:#72b3dc;stroke:#c2dffb;stroke-width:1"
   d="M 1.523,23.086 6.31,23.371 6.562,23.383 6.35,27.152 6.386,29.049 6.319,30.234 1.117,29.887 1.523,23.086"
   id="20075"
   inkscape:label="Hamilton, KS"
   inkscape:connector-curvature="0" />
  <path
   style="fill:#72b3dc;stroke:#c2dffb;stroke-width:1"
   d="M 1.879,17.444 6.643,17.709 6.31,23.371 1.523,23.086 1.807,18.511 1.879,17.444"
   id="20071"
   inkscape:label="Greeley, KS"
   inkscape:connector-curvature="0" />
  <path
   style="fill:#72b3dc;stroke:#c2dffb;stroke-width:1"
   d="M 7.86,12.111 7.472,17.749 6.643,17.709 1.879,17.444 2.154,12.91 2.217,11.791 7.86,12.111"
   id="20199"
   inkscape:label="Wallace, KS"
   inkscape:connector-curvature="0" />
  <path
   style="fill:#72b3dc;stroke:#c2dffb;stroke-width:1"
   d="M 2.551,6.143 8.82,6.523 9.063,6.536 8.717,12.157 7.86,12.111 2.217,11.791 2.551,6.143"
   id="20181"
   inkscape:label="Sherman, KS"
   inkscape:connector-curvature="0" />
  <path
   style="fill:#72b3dc;stroke:#c2dffb;stroke-width:1"
   d="M 2.893,0.5 9.167,0.889 8.82,6.523 2.551,6.143 2.555,6.068 2.893,0.5"
   id="20023"
   inkscape:label="Cheyenne, KS"
   inkscape:connector-curvature="0" />
  <path
   style="fill:#72b3dc;stroke:#c2dffb;stroke-width:1"
   d="m 32.973,24.591 4.35,0.126 0.04,1.145 -0.112,4.525 -5.472,-0.166 -0.014,-2.281 1.096,0.036 0.112,-3.385"
   id="20185"
   inkscape:label="Stafford, KS"
   inkscape:connector-curvature="0" />
  <path
   style="fill:#72b3dc;stroke:#c2dffb;stroke-width:1"
   d="m 6.562,23.383 4.187,0.221 0.221,0.01 -0.104,2.168 -0.203,3.487 0.077,1.208 L 6.319,30.234 6.386,29.049 6.35,27.152 6.562,23.383"
   id="20093"
   inkscape:label="Kearny, KS"
   inkscape:connector-curvature="0" />
  <path
   style="fill:#72b3dc;stroke:#c2dffb;stroke-width:1"
   d="m 15.175,23.833 4.421,0.236 0.171,0.009 -0.143,3.394 -4.413,-0.23 -0.117,2.253 0.072,1.212 -4.426,-0.23 -0.077,-1.208 0.203,-3.487 0.104,-2.168 4.205,0.219"
   id="20055"
   inkscape:label="Finney, KS"
   inkscape:connector-curvature="0" />
  <path
   style="fill:#72b3dc;stroke:#c2dffb;stroke-width:1"
   d="m 26.226,24.343 0.063,2.277 -0.089,2.266 -6.635,-0.287 0.059,-1.127 0.143,-3.394 6.459,0.265"
   id="20083"
   inkscape:label="Hodgeman, KS"
   inkscape:connector-curvature="0" />
  <path
   style="fill:#72b3dc;stroke:#c2dffb;stroke-width:1"
   d="m 26.263,23.207 5.543,0.209 1.167,1.175 -0.112,3.385 -1.096,-0.036 -3.308,-0.112 0.036,-1.131 -2.204,-0.077 -0.063,-2.277 0.037,-1.136"
   id="20145"
   inkscape:label="Pawnee, KS"
   inkscape:connector-curvature="0" />
  <path
   style="fill:#72b3dc;stroke:#c2dffb;stroke-width:1"
   d="m 67.182,22.77 0,0.573 0.019,1.703 -0.095,0 -0.009,2.876 -4.44,-0.013 0.005,-1.703 0.085,-3.421 4.435,-0.015"
   id="20031"
   inkscape:label="Coffey, KS"
   inkscape:connector-curvature="0" />
  <path
   style="fill:#72b3dc;stroke:#c2dffb;stroke-width:1"
   d="m 67.182,23.343 4.445,-0.027 0.022,1.703 -0.1,1.74 0,1.136 -4.452,0.027 0.009,-2.876 0.095,0 -0.019,-1.703"
   id="20003"
   inkscape:label="Anderson, KS"
   inkscape:connector-curvature="0" />
  <path
   style="fill:#72b3dc;stroke:#c2dffb;stroke-width:1"
   d="m 76.165,23.276 0.054,4.271 0.005,0.303 -4.675,0.045 0,-1.136 0.1,-1.74 -0.022,-1.703 4.538,-0.04"
   id="20107"
   inkscape:label="Linn, KS"
   inkscape:connector-curvature="0" />
  <path
   style="fill:#72b3dc;stroke:#c2dffb;stroke-width:1"
   d="m 76.138,18.732 0.014,3.39 0.013,1.154 -4.538,0.04 0.044,-4.534 4.467,-0.05"
   id="20121"
   inkscape:label="Miami, KS"
   inkscape:connector-curvature="0" />
  <path
   style="fill:#72b3dc;stroke:#c2dffb;stroke-width:1"
   d="m 67.232,18.818 4.439,-0.036 -0.044,4.534 -4.445,0.027 0,-0.573 0.05,-3.952"
   id="20059"
   inkscape:label="Franklin, KS"
   inkscape:connector-curvature="0" />
  <path
   style="fill:#72b3dc;stroke:#c2dffb;stroke-width:1"
   d="m 67.227,17.11 0.005,1.708 -0.05,3.952 -4.435,0.015 0.041,-3.958 -0.004,-1.703 4.443,-0.014"
   id="20139"
   inkscape:label="Osage, KS"
   inkscape:connector-curvature="0" />
  <path
   style="fill:#72b3dc;stroke:#c2dffb;stroke-width:1"
   d="m 58.727,18.813 4.061,0.014 -0.041,3.958 -0.085,3.421 -4.007,-0.028 0.049,-4.535 0.023,-2.83"
   id="20111"
   inkscape:label="Lyon, KS"
   inkscape:connector-curvature="0" />
  <path
   style="fill:#72b3dc;stroke:#c2dffb;stroke-width:1"
   d="m 54.039,21.603 4.665,0.04 -0.049,4.535 -1.672,1.117 -3.209,-0.013 0.018,-2.136 0.045,-1.285 0.184,0.006 0.018,-2.264"
   id="20017"
   inkscape:label="Chase, KS"
   inkscape:connector-curvature="0" />
  <path
   style="fill:#72b3dc;stroke:#c2dffb;stroke-width:1"
   d="m 57.248,17.11 1.479,1.703 -0.023,2.83 -4.665,-0.04 -1.099,-1.14 0.433,-3.384 3.875,0.031"
   id="20127"
   inkscape:label="Morris, KS"
   inkscape:connector-curvature="0" />
  <path
   style="fill:#72b3dc;stroke:#c2dffb;stroke-width:1"
   d="m 52.94,20.463 1.099,1.14 -0.018,2.264 -0.184,-0.006 -0.045,1.285 -0.018,2.136 -3.147,-0.058 -2.185,-1.149 0.081,-5.666 4.417,0.054"
   id="20115"
   inkscape:label="Marion, KS"
   inkscape:connector-curvature="0" />
  <path
   style="fill:#72b3dc;stroke:#c2dffb;stroke-width:1"
   d="m 48.523,20.409 -0.081,5.666 -3.322,-0.055 -2.217,-0.04 0.089,-5.67 5.531,0.099"
   id="20113"
   inkscape:label="McPherson, KS"
   inkscape:connector-curvature="0" />
  <path
   style="fill:#72b3dc;stroke:#c2dffb;stroke-width:1"
   d="m 37.404,21.324 5.571,0.117 -0.072,4.539 -5.54,-0.118 -0.04,-1.145 0.081,-3.393"
   id="20159"
   inkscape:label="Rice, KS"
   inkscape:connector-curvature="0" />
  <path
   style="fill:#72b3dc;stroke:#c2dffb;stroke-width:1"
   d="m 48.591,15.879 -0.068,4.53 -5.531,-0.099 0.028,-3.399 0.022,-1.131 5.549,0.099"
   id="20169"
   inkscape:label="Saline, KS"
   inkscape:connector-curvature="0" />
  <path
   style="fill:#72b3dc;stroke:#c2dffb;stroke-width:1"
   d="m 37.48,16.785 5.54,0.126 -0.028,3.399 -0.017,1.131 -5.571,-0.117 0.005,-2.281 0.071,-2.258"
   id="20053"
   inkscape:label="Ellsworth, KS"
   inkscape:connector-curvature="0" />
  <path
   style="fill:#72b3dc;stroke:#c2dffb;stroke-width:1"
   d="m 37.409,19.043 -0.005,2.281 -0.081,3.393 -4.35,-0.126 -1.167,-1.175 0.14,-4.526 5.463,0.153"
   id="20009"
   inkscape:label="Barton, KS"
   inkscape:connector-curvature="0" />
  <path
   style="fill:#72b3dc;stroke:#c2dffb;stroke-width:1"
   d="m 26.429,18.701 5.417,0.184 0.1,0.005 -0.14,4.526 -5.543,-0.209 0.166,-4.506"
   id="20165"
   inkscape:label="Rush, KS"
   inkscape:connector-curvature="0" />
  <path
   style="fill:#72b3dc;stroke:#c2dffb;stroke-width:1"
   d="m 19.817,18.408 0.933,0.049 5.544,0.239 0.135,0.005 -0.166,4.506 -0.037,1.136 -6.459,-0.265 -0.171,-0.009 0.221,-5.661"
   id="20135"
   inkscape:label="Ness, KS"
   inkscape:connector-curvature="0" />
  <path
   style="fill:#72b3dc;stroke:#c2dffb;stroke-width:1"
   d="m 15.418,18.173 4.399,0.235 -0.221,5.661 -4.421,-0.236 0.243,-5.66"
   id="20101"
   inkscape:label="Lane, KS"
   inkscape:connector-curvature="0" />
  <path
   style="fill:#72b3dc;stroke:#c2dffb;stroke-width:1"
   d="m 11.024,17.939 3.092,0.171 1.302,0.063 -0.243,5.66 -4.205,-0.219 -0.221,-0.01 0.275,-5.665"
   id="20171"
   inkscape:label="Scott, KS"
   inkscape:connector-curvature="0" />
  <path
   style="fill:#72b3dc;stroke:#c2dffb;stroke-width:1"
   d="m 7.472,17.749 3.552,0.19 -0.275,5.665 -4.187,-0.221 -0.252,-0.012 0.333,-5.662 0.829,0.04"
   id="20203"
   inkscape:label="Wichita, KS"
   inkscape:connector-curvature="0" />
  <path
   style="fill:#72b3dc;stroke:#c2dffb;stroke-width:1"
   d="m 8.717,12.157 1.478,0.081 1.509,0.108 2.763,0.144 -0.351,5.62 -3.092,-0.171 -3.552,-0.19 0.388,-5.638 0.857,0.046"
   id="20109"
   inkscape:label="Logan, KS"
   inkscape:connector-curvature="0" />
  <path
   style="fill:#72b3dc;stroke:#c2dffb;stroke-width:1"
   d="m 15.369,12.535 5.525,0.275 0.163,0.004 -0.307,5.643 -0.933,-0.049 -4.399,-0.235 -1.302,-0.063 0.351,-5.62 0.902,0.045"
   id="20063"
   inkscape:label="Gove, KS"
   inkscape:connector-curvature="0" />
  <path
   style="fill:#72b3dc;stroke:#c2dffb;stroke-width:1"
   d="m 21.057,12.814 5.386,0.217 0.135,0.004 -0.284,5.661 -5.544,-0.239 0.307,-5.643"
   id="20195"
   inkscape:label="Trego, KS"
   inkscape:connector-curvature="0" />
  <path
   style="fill:#72b3dc;stroke:#c2dffb;stroke-width:1"
   d="m 26.578,13.035 5.399,0.18 0.104,0.005 -0.235,5.665 -5.417,-0.184 -0.135,-0.005 0.284,-5.661"
   id="20051"
   inkscape:label="Ellis, KS"
   inkscape:connector-curvature="0" />
  <path
   style="fill:#72b3dc;stroke:#c2dffb;stroke-width:1"
   d="m 32.081,13.22 5.435,0.162 -0.036,3.403 -0.071,2.258 -5.463,-0.153 -0.1,-0.005 0.235,-5.665"
   id="20167"
   inkscape:label="Russell, KS"
   inkscape:connector-curvature="0" />
  <path
   style="fill:#72b3dc;stroke:#c2dffb;stroke-width:1"
   d="m 43.101,12.386 -0.059,3.394 -0.022,1.131 -5.54,-0.126 0.036,-3.403 0.032,-1.132 5.553,0.136"
   id="20105"
   inkscape:label="Lincoln, KS"
   inkscape:connector-curvature="0" />
  <path
   style="fill:#72b3dc;stroke:#c2dffb;stroke-width:1"
   d="m 43.128,11.255 5.548,0.099 -0.049,2.263 -0.036,2.262 -5.549,-0.099 0.059,-3.394 0.027,-1.131"
   id="20143"
   inkscape:label="Ottawa, KS"
   inkscape:connector-curvature="0" />
  <path
   style="fill:#72b3dc;stroke:#c2dffb;stroke-width:1"
   d="m 52.679,13.662 0.694,3.417 -0.433,3.384 -4.417,-0.054 0.068,-4.53 0.036,-2.262 4.052,0.045"
   id="20041"
   inkscape:label="Dickinson, KS"
   inkscape:connector-curvature="0" />
  <path
   style="fill:#72b3dc;stroke:#c2dffb;stroke-width:1"
   d="m 52.679,13.662 0.031,-1.145 1.104,0.026 -0.027,1.701 2.695,0.219 0.784,0.009 0,0.38 -0.018,2.258 -3.875,-0.031 -0.694,-3.417"
   id="20061"
   inkscape:label="Geary, KS"
   inkscape:connector-curvature="0" />
  <path
   style="fill:#72b3dc;stroke:#c2dffb;stroke-width:1"
   d="m 61.859,13.788 0.925,3.336 0.004,1.703 -4.061,-0.014 -1.479,-1.703 0.018,-2.258 1.123,-1.673 0.063,0.059 0.252,0.158 0.104,0.026 0.523,-0.536 0.672,-0.162 1.185,0.095 0.235,0.095 0.144,0.184 0.279,0.587 0.013,0.103"
   id="20197"
   inkscape:label="Wabaunsee, KS"
   inkscape:connector-curvature="0" />
  <path
   style="fill:#72b3dc;stroke:#c2dffb;stroke-width:1"
   d="m 61.895,12.616 4.426,-0.004 0.897,2.077 0.009,2.421 -4.443,0.014 -0.925,-3.336 0.036,-1.172"
   id="20177"
   inkscape:label="Shawnee, KS"
   inkscape:connector-curvature="0" />
  <path
   style="fill:#72b3dc;stroke:#c2dffb;stroke-width:1"
   d="m 70.333,14.825 1.311,0.793 0.027,3.164 -4.439,0.036 -0.005,-1.708 -0.009,-2.421 0.434,-0.157 0.202,-0.024 0.139,0.024 0.199,0.085 0.126,0.144 0.316,0.19 0.176,0.045 0.143,-0.009 1.38,-0.162"
   id="20045"
   inkscape:label="Douglas, KS"
   inkscape:connector-curvature="0" />
  <path
   style="fill:#72b3dc;stroke:#c2dffb;stroke-width:1"
   d="m 73.109,15.487 0.266,-0.82 0.063,-0.054 0.131,-0.045 0.153,-0.005 0.852,0.217 1.528,-0.023 0.032,2.56 0.004,1.415 -4.467,0.05 -0.027,-3.164 1.465,-0.131"
   id="20091"
   inkscape:label="Johnson, KS"
   inkscape:connector-curvature="0" />
  <path
   style="fill:#72b3dc;stroke:#c2dffb;stroke-width:1"
   d="m 76.134,13.251 -0.046,0.605 0.014,0.901 -1.528,0.023 -0.852,-0.217 -0.153,0.005 -0.131,0.045 -0.063,0.054 -0.266,0.82 -0.014,-1.789 0.068,-0.956 1.064,0 1.907,0.509"
   id="20209"
   inkscape:label="Wyandotte, KS"
   inkscape:connector-curvature="0" />
  <path
   style="fill:#72b3dc;stroke:#c2dffb;stroke-width:1"
   d="m 70.365,9.948 2.086,-0.02 1.776,2.814 -1.064,0 -0.068,0.956 0.014,1.789 -1.465,0.131 -1.311,-0.793 -0.018,-1.1 0.067,-1.307 -0.017,-2.47"
   id="20103"
   inkscape:label="Leavenworth, KS"
   inkscape:connector-curvature="0" />
  <path
   style="fill:#72b3dc;stroke:#c2dffb;stroke-width:1"
   d="m 66.497,9.971 3.868,-0.023 0.017,2.47 -0.067,1.307 0.018,1.1 -1.38,0.162 -0.143,0.009 -0.176,-0.045 -0.316,-0.19 -0.126,-0.144 -0.199,-0.085 -0.139,-0.024 -0.202,0.024 -0.434,0.157 -0.897,-2.077 0.176,-2.641"
   id="20087"
   inkscape:label="Jefferson, KS"
   inkscape:connector-curvature="0" />
  <path
   style="fill:#72b3dc;stroke:#c2dffb;stroke-width:1"
   d="m 71.113,8.456 1.338,1.472 -2.086,0.02 -3.868,0.023 0.05,-3.039 2.213,-0.013 2.744,0.361 -0.391,1.176"
   id="20005"
   inkscape:label="Atchison, KS"
   inkscape:connector-curvature="0" />
  <path
   style="fill:#72b3dc;stroke:#c2dffb;stroke-width:1"
   d="m 66.497,9.971 -0.176,2.641 -4.426,0.004 0,-4.543 2.434,-1.131 2.218,-0.01 -0.05,3.039"
   id="20085"
   inkscape:label="Jackson, KS"
   inkscape:connector-curvature="0" />
  <path
   style="fill:#72b3dc;stroke:#c2dffb;stroke-width:1"
   d="m 61.895,12.616 -0.036,1.172 -0.013,-0.103 -0.279,-0.587 -0.144,-0.184 -0.235,-0.095 -1.185,-0.095 -0.672,0.162 -0.523,0.536 -0.104,-0.026 -0.252,-0.158 -0.063,-0.059 -0.712,-0.212 -0.658,-0.289 -0.933,-0.864 -0.491,-0.767 -0.487,-0.896 0.004,-0.519 0.122,-0.203 1.271,-1.379 3.385,0.019 2.005,0.004 0,4.543"
   id="20149"
   inkscape:label="Pottawatomie, KS"
   inkscape:connector-curvature="0" />
  <path
   style="fill:#72b3dc;stroke:#c2dffb;stroke-width:1"
   d="m 52.71,12.517 0.072,-4.498 1.505,0.014 2.218,0.017 -1.271,1.379 -0.122,0.203 -0.004,0.519 0.487,0.896 0.491,0.767 0.933,0.864 0.658,0.289 0.712,0.212 -1.123,1.673 0,-0.38 -0.784,-0.009 -2.695,-0.219 0.027,-1.701 -1.104,-0.026"
   id="20161"
   inkscape:label="Riley, KS"
   inkscape:connector-curvature="0" />
  <path
   style="fill:#72b3dc;stroke:#c2dffb;stroke-width:1"
   d="m 48.676,11.354 0.059,-3.39 4.047,0.055 -0.072,4.498 -0.031,1.145 -4.052,-0.045 0.049,-2.263"
   id="20027"
   inkscape:label="Clay, KS"
   inkscape:connector-curvature="0" />
  <path
   style="fill:#72b3dc;stroke:#c2dffb;stroke-width:1"
   d="m 43.173,7.866 0.027,-1.132 5.548,0.099 -0.013,1.131 -0.059,3.39 -5.548,-0.099 0.045,-3.389"
   id="20029"
   inkscape:label="Cloud, KS"
   inkscape:connector-curvature="0" />
  <path
   style="fill:#72b3dc;stroke:#c2dffb;stroke-width:1"
   d="m 43.173,7.866 -0.045,3.389 -0.027,1.131 -5.553,-0.136 0.145,-4.519 5.48,0.135"
   id="20123"
   inkscape:label="Mitchell, KS"
   inkscape:connector-curvature="0" />
  <path
   style="fill:#72b3dc;stroke:#c2dffb;stroke-width:1"
   d="m 37.548,12.25 -0.032,1.132 -5.435,-0.162 -0.104,-0.005 0.059,-1.888 0.077,-1.501 0.081,-2.257 5.318,0.157 0.181,0.005 -0.145,4.519"
   id="20141"
   inkscape:label="Osborne, KS"
   inkscape:connector-curvature="0" />
  <path
   style="fill:#72b3dc;stroke:#c2dffb;stroke-width:1"
   d="m 26.686,7.382 5.296,0.177 0.212,0.01 -0.081,2.257 -0.077,1.501 -0.059,1.888 -5.399,-0.18 -0.135,-0.004 0.243,-5.649"
   id="20163"
   inkscape:label="Rooks, KS"
   inkscape:connector-curvature="0" />
  <path
   style="fill:#72b3dc;stroke:#c2dffb;stroke-width:1"
   d="m 20.894,12.81 0.275,-5.652 5.264,0.213 0.253,0.011 -0.243,5.649 -5.386,-0.217 -0.163,-0.004"
   id="20065"
   inkscape:label="Graham, KS"
   inkscape:connector-curvature="0" />
  <path
   style="fill:#72b3dc;stroke:#c2dffb;stroke-width:1"
   d="m 15.657,6.886 5.328,0.268 0.184,0.004 -0.275,5.652 -5.525,-0.275 0.288,-5.649"
   id="20179"
   inkscape:label="Sheridan, KS"
   inkscape:connector-curvature="0" />
  <path
   style="fill:#72b3dc;stroke:#c2dffb;stroke-width:1"
   d="M 8.717,12.157 9.063,6.536 15.454,6.878 15.657,6.886 15.369,12.535 14.467,12.49 11.704,12.346 10.195,12.238 8.717,12.157"
   id="20193"
   inkscape:label="Thomas, KS"
   inkscape:connector-curvature="0" />
  <path
   style="fill:#72b3dc;stroke:#c2dffb;stroke-width:1"
   d="m 9.167,0.889 0.852,0.045 5.543,0.297 0.195,0.014 L 15.454,6.878 9.063,6.536 8.82,6.523 9.167,0.889"
   id="20153"
   inkscape:label="Rawlins, KS"
   inkscape:connector-curvature="0" />
  <path
   style="fill:#72b3dc;stroke:#c2dffb;stroke-width:1"
   d="m 15.757,1.245 5.345,0.256 0.153,0.01 -0.27,5.643 -5.328,-0.268 -0.203,-0.008 0.303,-5.633"
   id="20039"
   inkscape:label="Decatur, KS"
   inkscape:connector-curvature="0" />
  <path
   style="fill:#72b3dc;stroke:#c2dffb;stroke-width:1"
   d="M 31.054,1.885 32.153,1.916 31.982,7.559 26.686,7.382 26.433,7.371 26.668,1.727 31.054,1.885"
   id="20147"
   inkscape:label="Phillips, KS"
   inkscape:connector-curvature="0" />
  <path
   style="fill:#72b3dc;stroke:#c2dffb;stroke-width:1"
   d="m 26.645,1.727 0.023,0 -0.235,5.644 -5.264,-0.213 -0.184,-0.004 0.27,-5.643 5.39,0.216"
   id="20137"
   inkscape:label="Norton, KS"
   inkscape:connector-curvature="0" />
  <path
   style="fill:#72b3dc;stroke:#c2dffb;stroke-width:1"
   d="M 32.153,1.916 35.493,2.02 37.67,2.079 37.512,7.726 32.194,7.569 31.982,7.559 32.153,1.916"
   id="20183"
   inkscape:label="Smith, KS"
   inkscape:connector-curvature="0" />
  <path
   style="fill:#72b3dc;stroke:#c2dffb;stroke-width:1"
   d="M 39.932,2.132 43.29,2.213 43.2,6.734 43.173,7.866 37.693,7.731 37.512,7.726 37.67,2.079 39.932,2.132"
   id="20089"
   inkscape:label="Jewell, KS"
   inkscape:connector-curvature="0" />
  <path
   style="fill:#72b3dc;stroke:#c2dffb;stroke-width:1"
   d="M 44.372,2.237 48.811,2.308 48.748,6.833 43.2,6.734 43.29,2.213 44.372,2.237"
   id="20157"
   inkscape:label="Republic, KS"
   inkscape:connector-curvature="0" />
  <path
   style="fill:#72b3dc;stroke:#c2dffb;stroke-width:1"
   d="M 48.811,2.308 53.26,2.367 54.346,2.38 54.287,8.033 52.782,8.019 48.735,7.964 48.748,6.833 48.811,2.308"
   id="20201"
   inkscape:label="Washington, KS"
   inkscape:connector-curvature="0" />
  <path
   style="fill:#72b3dc;stroke:#c2dffb;stroke-width:1"
   d="M 57.7,2.408 59.903,2.421 59.89,8.069 56.505,8.05 54.287,8.033 54.346,2.38 57.7,2.408"
   id="20117"
   inkscape:label="Marshall, KS"
   inkscape:connector-curvature="0" />
  <path
   style="fill:#72b3dc;stroke:#c2dffb;stroke-width:1"
   d="m 62.143,2.425 2.186,0 0,4.517 -2.434,1.131 -2.005,-0.004 0.013,-5.648 2.24,0.004"
   id="20131"
   inkscape:label="Nemaha, KS"
   inkscape:connector-curvature="0" />
  
  
  
  
  
  
  
  
  
  
  
  
  
  
  
  
  
  
  
  
  
  
  
  
  
  
  
  
  
  
  
  
  
  
  
  
  
  
  
  
  
  
  
  
  
  
  
  
  
  
  
  
  
  
  
  
  
  
  
  
  
  
  
  
  
  
  
  
  
  
  
  
  
  
  
  
  
  
  
  
  
  
  
  
  
  
  
  
  
  
  
  
  
  
  
  
  
  
  
  
  
  
  
  
  
  
  
  
  
  
  
  
  
  
  
  
  
  
  
  
  
  
  
  
  
  
  
  
  
  
  
  
  
  
  
  
  
  
  
  
  
  
  
  
  
  
  
  
  
  
  
  
  
  
  
  
  
  
  
  
  
  
  
  
  
  
  
  
  
  
  
  
  
  
  
  
  
  
  
  
  
  
  
  
  
  
  
  
  
  
  
  
  
  
  
  
  
  
  
  
  
  
  
  
  
  
  
  
  
  
  
  
  
  
  
  
  
  
  
  
  
  
  
  
  
  
  
  
  
  
  
  
  
  
  
  
  
  
  
  
  
  
  
  
  
  
  
  
  
  
  
  
  
  
  
  
  
  
  
  
  
  
  
  
  
  
  
  
  
  
  
  
  
  
  
  
  
  
  
  
  
  
  
  
  
  
  
  
  
  
  
  
  
  
  
  
  
  
  
  
  
  
  
  
  
  
  
  
  
  
  
  
  
  
  
  
  
  
  
  
  
  
  
  
  
  
  
  
  
  
  
  
  
  
  
  
  
  
  
  
  
  
  
  
  
  
  
  
  
  
  
  
  
  
  
  
  
  
  
  
  
  
  
  
  
  
  
  
  
  
  
  
  
  
  
  
  
  
  
  
  
  
  
  
  
  
  
  
  
  
  
  
  
  
  
  
  
  
  
  
  
  
  
  
  
  
  
  
  
  
  
  
  
  
  
  
  
  
  
  
  
  
  
  
  
  
  
  
  
  
  
  
  
  
  
  
  
  
  
  
  
  
  
  
  
  
  
  
  
  
  
  
  
  
  
  
  
  
  
  
  
  
  
  
  
  
  
  
  
  
  
  
  
  
  
  
  
  
  
  
  
  
  
  
  
  
  
  
  
  
  
  
  
  
  
  
  
  
  
  
  
  
  
  
  
  
  
  
  
  
  
  
  
  
  
  
  
  
  
  
  
  
  
  
  
  
  
  
  
  
  
  
  
  
  
  
  
  
  
  
  
  
  
  
  
  
  
  
  
  
  
  
  
  
  
  
  
  
  
  
  
  
  
  
  
  
  
  
  
  
  
  
  
  
  
  
  
  
  
  
  
  
  
  
  
  
  
  
  
  
  
  
  
  
  
  
  
  
  
  
  
  
  
  
  
  
  
  
  
  
  
  
  
  
  
  
  
  
  
  
  
  
  
  
  
  
  
  
  
  
  
  
  
  
  
  
  
  
  
  
  
  
  
  
  
  
  
  
  
  
  
  
  
  
  
  
  
  
  
  
  
  
  
  
  
  
  
  
  
  
  
  
  
  
  
  
  
  
  
  
  
  
  
  
  
  
  
  
  
  
  
  
  
  
  
  
  
  
  
  
  
  
  
  
  
  
  
  
  
  
  
  
  
  
  
  
  
  
  
  
  
  
  
  
  
  
  
  
  
  
  
  
  
  
  
  
  
  
  
  
  
  
  
  
  
  
  
  
  
  
  
  
  
  
  
  
  
  
  
  
  
  
  
  
  
  
  
  
  
  
  
  
  
  
  
  
  
  
  
  
  
  
  
  
  
  
  
  
  
  
  
  
  
  
  
  
  
  
  
  
  
  
  
  
  
  
  
  
  
  
  
  
  
  
  
  
  
  
  
  
  
  
  
  
  
  
  
  
  
  
  
  
  
  
  
  
  
  
  
  
  
  
  
  
  
  
  
  
  
  
  
  
  
  
  
  
  
  
  
  
  
  
  
  
  
  
  
  
  
  
  
  
  
  
  
  
  
  
  
  
  
  
  
  
  
  
  
  
  
  
  
  
  
  
  
  
  
  
  
  
  
  
  
  
  
  
  
  
  
  
  
  
  
  
  
  
  
  
  
  
  
  
  
  
  
  
  
  
  
  
  
  
  
  
  
  
  
  
  
  
  
  
  
  
  
  
  
  
  
  
  
  
  
  
  
  
  
  
  
  
  
  
  
  
  
  
  
  
  
  
  
  
  
  
  
  
  
  
  
  
  
  
  
  
  
  
  
  
  
  
  
  
  
  
  
  
  
  
  
  
  
  
  
  
  
  
  
  
  
  
  
  
  
  
  
  
  
  
  
  
  
  
  
  
  
  
  
  
  
  
  
  
  
  
  
  
  
  
  
  
  
  
  
  
  
  
  
  
  
  
  
  
  
  
  
  
  
  
  
  
  
  
  
  
  
  
  
  
  
  
  
  
  
  
  
  
  
  
  
  
  
  
  
  
  
  
  
  
  
  
  
  
  
  
  
  
  
  
  
  
  
  
  
  
  
  
  
  
  
  
  
  
  
  
  
  
  
  
  
  
  
  
  
  
  
  
  
  
  
  
  
  
  
  
  
  
  
  
  
  
  
  
  
  
  
  
  
  
  
  
  
  
  
  
  
  
  
  
  
  
  
  
  
  
  
  
  
  
  
  
  
  
  
  
  
  
  
  
  
  
  
  
  
  
  
  
  
  
  
  
  
  
  
  
  
  
  
  
  
  
  
  
  
  
  
  
  
  
  
  
  
  
  
  
  
  
  
  
  
  
  
  
  
  
  
  
  
  
  
  
  
  
  
  
  
  
  
  
  
  
  
  
  
  
  
  
  
  
  
  
  
  
  
  
  
  
  
  
  
  
  
  
  
  
  
  
  
  
  
  
  
  
  
  
  
  
  
  
  
  
  
  
  
  
  
  
  
  
  
  
  
  
  
  
  
  
  
  
  
  
  
  
  
  
  
  
  
  
  
  
  
  
  
  
  
  
  
  
  
  
  
  
  
  
  
  
  
  
  
  
  
  
  
  
  
  
  
  
  
  
  
  
  
  
  
  
  
  
  
  
  
  
  
  
  
  
  
  
  
  
  
  
  
  
  
  
  
  
  
  
  
  
  
  
  
  
  
  
  
  
  
  
  
  
  
  
  
  
  
  
  
  
  
  
  
  
  
  
  
  
  
  
  
  
  
  
  
  
  
  
  
  
  
  
  
  
  
  
  
  
  
  
  
  
  
  
  
  
  
  
  
  
  
  
  
  
  
  
  
  
  
  
  
  
  
  
  
  
  
  
  
  
  
  
  
  
  
  
  
  
  
  
  
  
  
  
  
  
  
  
  
  
  
  
  
  
  
  
  
  
  
  
  
  
  
  
  
  
  
  
  
  
  
  
  
  
  
  
  
  
  
  
  
  
  
  
  
  
  
  
  
  
  
  
  
  
  
  
  
  
  
  
  
  
  
  
  
  
  
  
  
  
  
  
  
  
  
  
  
  
  
  
  
  
  
  
  
  
  
  
  
  
  
  
  
  
  
  
  
  
  
  
  
  
  
  
  
  
  
  
  
  
  
  
  
  
  
  
  
  
  
  
  
  
  
  
  
  
  
  
  
  
  
  
  
  
  
  
  
  
  
  
  
  
  
  
  
  
  
  
  
  
  
  
  
  
  
  
  
  
  
  
  
  
  
  
  
  
  
  
  
  
  
  
  
  
  
  
  
  
  
  
  
  
  
  
  
  
  
  
  
  
  
  
  
  
  
  
  
  
  
  
  
  
  
  
  
  
  
  
  
  
  
  
  
  
  
  
  
  
  
  
  
  
  
  
  
  
  
  
  
  
  
  
  
  
  
  
  
  
  
  
  
  
  
  
  
  
  
  
  
  
  
  
  
  
  
  
  
  
  
  
  
  
  
  
  
  
  
  
  
  
  
  
  
  
  
  
  
  
  
  
  
  
  
  
  
  
  
  
  
  
  
  
  
  
  
  
  
  
  
  
  
  
  
  
  
  
  
  
  
  
  
  
  
  
  
  
  
  
  
  
  
  
  
  
  
  
  
  
  
  
  
  
  
  
  
  
  
  
  
  
  
  
  
  
  
  
  
  
  
  
  
  
  
  
  
  
  
  
  
  
  
  
  
  
  
  
  
  
  
  
  
  
  
  
  
  
  
  
  
  
  
  
  
  
  
  
  
  
  
  
  
  
  
  
  
  
  
  
  
  
  
  
  
  
  
  
  
  
  
  
  
  
  
  
  
  
  
  
  
  
  
  
  
  
  
  
  
  
  
  
  
  
  
  
  
  
  
  
  
  
  
  
  
  
  
  
  
  
  
  
  
  
  
  
  
  
  
  
  
  
  
  
  
  
  
  
  
  
  
  
  
  
  
  
  
  
  
  
  
  
  
  
  
  
  
  
  
  
  
  
  
  
  
  
  
  
  
  
  
  
  
  
  
  
  
  
  
  
  
  
  
  
  
  
  
  
  
  
  
  
  
  
  
  
  
  
  
  
  
  
  
  
  
  
  
  
  
  
  
  
  
  
  
  
  
  
  
  
  
  
  
  
  
  
  
  
  
  
  
  
  
  
  
  
  
  
  
  
  
  
  
  
  
  
  
  
  
  
  
  
  
  
  
  
  
  
  
  
  
  
  
  
  
  
  
  
  
  
  
  
  
  
  
  
  
  
  
  
  
  
  
  
  
  
  
  
  
  
  
  
  
  
  
  
  
  
  
  
  
  
  
  
  
  
  
  
  
  
  
  
  
  
  
  
  
  
  
  
  
  
  
  
  
  
  
  
  
  
  
  
  
  
  
  
  
  
  
  
  
  
  
  
  
  
  
  
  
  
  
  
  
  
  
  
  
  
  
  
  
  
  
</svg>