<?xml version="1.0" encoding="UTF-8" standalone="no"?>
<!--?xml version="1.0" encoding="UTF-8" standalone="no"?-->

<svg
   xmlns:dc="http://purl.org/dc/elements/1.1/"
   xmlns:cc="http://creativecommons.org/ns#"
   xmlns:rdf="http://www.w3.org/1999/02/22-rdf-syntax-ns#"
   xmlns:svg="http://www.w3.org/2000/svg"
   xmlns="http://www.w3.org/2000/svg"
   xmlns:sodipodi="http://sodipodi.sourceforge.net/DTD/sodipodi-0.dtd"
   xmlns:inkscape="http://www.inkscape.org/namespaces/inkscape"
   width="83.144218"
   height="42.623638"
   viewBox="0 0 76.856 38.935054"
   preserveAspectRatio="xMinYMin meet"
   xml:space="preserve"
   id="svg1129"
   version="1.1"
   inkscape:version="0.48.2 r9819"
   sodipodi:docname="KY.svg"><metadata
   id="metadata1255"><rdf:RDF><cc:Work
       rdf:about=""><dc:format>image/svg+xml</dc:format><dc:type
         rdf:resource="http://purl.org/dc/dcmitype/StillImage" /></cc:Work></rdf:RDF></metadata><defs
   id="defs1253" /><sodipodi:namedview
   pagecolor="#ffffff"
   bordercolor="#666666"
   borderopacity="1"
   objecttolerance="10"
   gridtolerance="10"
   guidetolerance="10"
   inkscape:pageopacity="0"
   inkscape:pageshadow="2"
   inkscape:window-width="640"
   inkscape:window-height="480"
   id="namedview1251"
   showgrid="false"
   inkscape:zoom="0.56730769"
   inkscape:cx="-90.951678"
   inkscape:cy="0.65676364"
   inkscape:window-x="0"
   inkscape:window-y="0"
   inkscape:window-maximized="0"
   inkscape:current-layer="svg1129" />
  
  
  
  
  
  
  
  
  
  
  
  
  
  
  
  
  
  
  
  
  
  
  
  
  
  
  
  
  
  
  
  
  
  
  
  
  
  
  
  
  
  
  
  
  
  
  
  
  
  
  
  
  
  
  
  
  
  
  
  
  
  
  
  
  
  
  
  
  
  
  
  
  
  
  
  
  
  
  
  
  
  
  
  
  
  
  
  
  
  
  
  
  
  
  
  
  
  
  
  
  
  
  
  
  
  
  
  
  
  
  
  
  
  
  
  
  
  
  
  
  
  
  
  
  
  
  
  
  
  
  
  
  
  
  
  
  
  
  
  
  
  
  
  
  
  
  
  
  
  
  
  
  
  
  
  
  
  
  
  
  
  
  
  
  
  
  
  
  
  
  
  
  
  
  
  
  
  
  
  
  
  
  
  
  
  
  
  
  
  
  
  
  
  
  
  
  
  
  
  
  
  
  
  
  
  
  
  
  
  
  
  
  
  
  
  
  
  
  
  
  
  
  
  
  
  
  
  
  
  
  
  
  
  
  
  
  
  
  
  
  
  
  
  
  
  
  
  
  
  
  
  
  
  
  
  
  
  
  
  
  
  
  
  
  
  
  
  
  
  
  
  
  
  
  
  
  
  
  
  
  
  
  
  
  
  
  
  
  
  
  
  
  
  
  
  
  
  
  
  
  
  
  
  
  
  
  
  
  
  
  
  
  
  
  
  
  
  
  
  
  
  
  
  
  
  
  
  
  
  
  
  
  
  
  
  
  
  
  
  
  
  
  
  
  
  
  
  
  
  
  
  
  
  
  
  
  
  
  
  
  
  
  
  
  
  
  
  
  
  
  
  
  
  
  
  
  
  
  
  
  
  
  
  
  
  
  
  
  
  
  
  
  
  
  
  
  
  
  
  
  
  
  
  
  
  
  
  
  
  
  
  
  
  
  
  
  
  
  
  
  
  
  
  
  
  
  
  
  
  
  
  
  
  
  
  
  
  
  
  
  
  
  
  
  
  
  
  
  
  
  
  
  
  
  
  
  
  
  
  
  
  
  
  
  
  
  
  
  
  
  
  
  
  
  
  
  
  
  
  
  
  
  
  
  
  
  
  
  
  
  
  
  
  
  
  
  
  
  
  
  
  
  
  
  
  
  
  
  
  
  
  
  
  
  
  
  
  
  
  
  
  
  
  
  
  
  
  
  
  
  
  
  
  
  
  
  
  
  
  
  
  
  
  
  
  
  
  
  
  
  
  
  
  
  
  
  
  
  
  
  
  
  
  
  
  
  
  
  
  
  
  
  
  
  
  
  
  
  
  
  
  
  
  
  
  
  
  
  
  
  
  
  
  
  
  
  
  
  
  
  
  
  
  
  
  
  
  
  
  
  
  
  
  
  
  
  
  
  
  
  
  
  
  
  
  
  
  
  
  
  
  
  
  
  
  
  
  
  
  
  
  
  
  
  
  
  
  
  
  
  
  
  
  
  
  
  
  
  
  
  
  
  
  
  
  
  
  
  
  
  
  
  
  
  
  
  
  
  
  
  
  
  
  
  
  
  
  
  
  
  
  
  
  
  
  
  
  
  
  
  
  
  
  
  
  
  
  
  
  
  
  
  
  
  
  
  
  
  
  
  
  
  
  
  
  
  
  
  
  
  
  
  
  
  
  
  
  
  
  
  
  
  
  
  
  
  
  
  
  
  
  
  
  
  
  
  
  
  
  
  
  
  
  
  
  
  
  
  
  
  
  
  
  
  
  
  
  
  
  
  
  
  
  
  
  
  
  
  
  
  
  
  
  
  
  
  
  
  
  
  
  
  
  
  
  
  
  
  
  
  
  
  
  
  
  
  
  
  
  
  
  
  
  
  
  
  
  
  
  
  
  
  
  
  
  
  
  
  
  
  
  
  
  
  
  
  
  
  
  
  
  
  
  
  
  
  
  
  
  
  
  
  
  
  
  
  
  
  
  
  
  
  
  
  
  
  
  
  
  
  
  
  
  
  
  
  
  
  
  
  
  
  
  
  
  
  
  
  
  
  
  
  
  
  
  
  
  
  
  
  
  
  
  
  
  
  
  
  
  
  
  
  
  
  
  
  
  
  
  
  
  
  
  
  
  
  
  
  
  
  
  
  
  
  
  
  
  
  
  
  
  
  
  
  
  
  
  
  
  
  
  
  
  
  
  
  
  
  
  
  
  
  
  
  
  
  
  
  
  
  
  
  
  
  
  
  
  
  
  
  <path
   style="fill:#72b3dc;stroke:#c2dffb;stroke-width:1"
   d="M 4.877,34.876 8.064,34.798 8.298,38.306 8.186,38.315 8.109,38.319 7.33,37.409 6.91,37.251 4.481,36.664 4.877,34.876"
   id="21105"
   inkscape:label="Hickman, KY"
   inkscape:connector-curvature="0" />
  <path
   style="fill:#72b3dc;stroke:#c2dffb;stroke-width:1"
   d="m 4.481,36.664 2.429,0.587 0.42,0.158 0.779,0.91 -5.251,0.379 -0.726,0.103 0.798,-1.789 1.551,-0.348 M 0.879,38.9 0.65,38.572 0.636,38.558 0.524,38.319 0.52,38.31 0.51,38.256 0.5,38.215 0.51,38.17 l 0.014,-0.059 0.013,-0.049 0.017,-0.023 0.118,-0.158 0.064,-0.04 0.189,-0.026 0.288,0.045 0.158,0.045 0.027,0.018 0.022,0.018 0.014,0.009 0.066,0.103 0.006,0.013 0.063,0.149 0.032,0.14 0,0.005 0.004,0.022 0,0.055 -0.009,0.035 -0.032,0.127 -0.013,0.049 -0.016,0.032 -0.101,0.19 -0.555,0.03"
   id="21075"
   inkscape:label="Fulton, KY"
   inkscape:connector-curvature="0" />
  <path
   style="fill:#72b3dc;stroke:#c2dffb;stroke-width:1"
   d="m 61.887,27.047 0.272,0.532 0.684,2.929 -2.077,1.114 -2.583,0.496 0.378,-1.343 0.686,-1.209 0.958,-0.983 0.425,-0.4 0.627,-0.698 0.063,-0.271 -0.05,-0.099 -0.23,-0.181 0.847,0.113"
   id="21013"
   inkscape:label="Bell, KY"
   inkscape:connector-curvature="0" />
  <path
   style="fill:#72b3dc;stroke:#c2dffb;stroke-width:1"
   d="m 58.02,26.029 0.127,-0.014 0.883,0.113 0.329,0.094 0.131,0.117 0.14,0.162 0.022,0.091 0.302,0.126 0.437,0.14 0.424,0.076 0.225,0 0.23,0.181 0.05,0.099 -0.063,0.271 -0.627,0.698 -0.425,0.4 -0.958,0.983 -0.686,1.209 -0.888,-0.411 -1.289,-1.496 -0.441,-1.285 2.077,-1.554"
   id="21121"
   inkscape:label="Knox, KY"
   inkscape:connector-curvature="0" />
  <path
   style="fill:#72b3dc;stroke:#c2dffb;stroke-width:1"
   d="m 53.873,27.976 2.07,-0.393 0.441,1.285 1.289,1.496 0.888,0.411 -0.378,1.343 -0.581,0.058 -2.443,0.28 -0.654,-0.609 -0.298,-0.365 -0.594,-1.28 -0.022,-0.181 0.282,-2.045"
   id="21235"
   inkscape:label="Whitley, KY"
   inkscape:connector-curvature="0" />
  <path
   style="fill:#72b3dc;stroke:#c2dffb;stroke-width:1"
   d="m 54.888,22.95 2.077,0.644 -0.13,1.015 0.306,0.338 0.532,0.329 0.284,0.423 0.063,0.33 -2.077,1.554 -2.07,0.393 -0.639,-0.096 0.397,-2.568 1.257,-2.362"
   id="21125"
   inkscape:label="Laurel, KY"
   inkscape:connector-curvature="0" />
  <path
   style="fill:#72b3dc;stroke:#c2dffb;stroke-width:1"
   d="m 58.403,22.125 0.83,0.037 1.524,0.752 0.405,0.036 0.229,0.261 0.496,3.836 -0.847,-0.113 -0.225,0 -0.424,-0.076 -0.437,-0.14 -0.302,-0.126 -0.022,-0.091 -0.14,-0.162 -0.131,-0.117 -0.329,-0.094 -0.883,-0.113 -0.127,0.014 -0.063,-0.33 -0.284,-0.423 -0.532,-0.329 -0.306,-0.338 0.13,-1.015 1.438,-1.469"
   id="21051"
   inkscape:label="Clay, KY"
   inkscape:connector-curvature="0" />
  <path
   style="fill:#72b3dc;stroke:#c2dffb;stroke-width:1"
   d="m 61.391,23.211 0.758,-1.018 0.856,0.496 1.114,0.698 0.387,0.339 0.41,0.716 0.159,0.536 -0.014,0.563 -2.902,2.038 -0.272,-0.532 -0.496,-3.836"
   id="21131"
   inkscape:label="Leslie, KY"
   inkscape:connector-curvature="0" />
  <path
   style="fill:#72b3dc;stroke:#c2dffb;stroke-width:1"
   d="m 65.061,25.541 0.644,0.171 0.306,0.384 1.519,-0.82 0.785,0.432 -0.041,0.977 -0.212,0.371 -2.042,1.686 -2.141,1.212 -1.036,0.554 -0.684,-2.929 2.902,-2.038"
   id="21095"
   inkscape:label="Harlan, KY"
   inkscape:connector-curvature="0" />
  <path
   style="fill:#72b3dc;stroke:#c2dffb;stroke-width:1"
   d="m 69.158,21.688 0.459,0.401 0.289,-0.013 0.282,-0.23 0.06,0 0.333,0.211 0.402,0.361 -2.668,3.29 -0.785,-0.432 -1.519,0.82 -0.306,-0.384 0.123,0.1 0.036,-0.005 0.46,-0.365 0.034,-0.049 0.027,-0.145 -0.013,-0.625 -0.261,-0.501 0.017,-0.09 0.176,-0.456 0.288,-0.54 0.183,0.127 0.219,0.003 0.397,-0.315 0.202,-0.203 0.19,-0.244 0.698,-0.486 0.677,-0.23"
   id="21133"
   inkscape:label="Letcher, KY"
   inkscape:connector-curvature="0" />
  <path
   style="fill:#72b3dc;stroke:#c2dffb;stroke-width:1"
   d="m 66.831,19.191 1.006,0.149 0.74,0.41 0.093,0.145 0.05,0.423 -0.022,0.351 0.184,0.54 0.054,0.055 0.226,0.131 0.194,0.086 -0.198,0.207 -0.677,0.23 -0.698,0.486 -0.19,0.244 -0.202,0.203 -0.397,0.315 -0.219,-0.003 -0.183,-0.127 -1.621,-2.525 1.599,-1.5 0.261,0.18"
   id="21119"
   inkscape:label="Knott, KY"
   inkscape:connector-curvature="0" />
  <path
   style="fill:#72b3dc;stroke:#c2dffb;stroke-width:1"
   d="m 64.971,20.511 1.621,2.525 -0.288,0.54 -0.176,0.456 -0.017,0.09 0.261,0.501 0.013,0.625 -0.027,0.145 -0.034,0.049 -0.46,0.365 -0.036,0.005 -0.123,-0.1 -0.644,-0.171 0.014,-0.563 -0.159,-0.536 -0.41,-0.716 -0.387,-0.339 -1.114,-0.698 -0.856,-0.496 -0.758,1.018 -0.229,-0.261 -0.342,-0.956 1.185,-0.419 2.19,-1.081 0.776,0.017"
   id="21193"
   inkscape:label="Perry, KY"
   inkscape:connector-curvature="0" />
  <path
   style="fill:#72b3dc;stroke:#c2dffb;stroke-width:1"
   d="m 60.215,19.827 0.605,2.167 0.342,0.956 -0.405,-0.036 -1.524,-0.752 -0.83,-0.037 -1.293,-2.051 0.239,0.18 0.234,0.096 0.203,0.04 0.802,-0.194 0.595,-0.311 0.121,-0.176 0.479,-0.031 0.432,0.149"
   id="21189"
   inkscape:label="Owsley, KY"
   inkscape:connector-curvature="0" />
  <path
   style="fill:#72b3dc;stroke:#c2dffb;stroke-width:1"
   d="m 54.964,19.714 1.903,0.064 0.243,0.296 1.293,2.051 -1.438,1.469 -2.077,-0.644 -0.158,-0.618 -0.278,-0.671 -0.303,-0.424 -0.194,-0.347 -0.049,-0.329 0.031,-0.148 1.027,-0.699"
   id="21109"
   inkscape:label="Jackson, KY"
   inkscape:connector-curvature="0" />
  <path
   style="fill:#72b3dc;stroke:#c2dffb;stroke-width:1"
   d="m 54.599,16.004 0.812,0.09 0.434,0.425 0.689,0.464 0.805,0.054 1.082,0.27 -1.554,2.471 -1.903,-0.064 -0.365,-3.71"
   id="21065"
   inkscape:label="Estill, KY"
   inkscape:connector-curvature="0" />
  <path
   style="fill:#72b3dc;stroke:#c2dffb;stroke-width:1"
   d="m 58.566,17.285 1.996,0.761 -0.347,1.781 -0.432,-0.149 -0.479,0.031 -0.121,0.176 -0.595,0.311 -0.802,0.194 -0.203,-0.04 -0.234,-0.096 -0.239,-0.18 -0.243,-0.296 1.554,-2.471 0.145,-0.022"
   id="21129"
   inkscape:label="Lee, KY"
   inkscape:connector-curvature="0" />
  <path
   style="fill:#72b3dc;stroke:#c2dffb;stroke-width:1"
   d="m 60.562,18.046 0.344,0.188 0.31,-0.17 0.072,-0.099 0.13,-0.27 0.027,-0.166 -0.012,-0.082 0.026,-0.122 0.054,-0.09 0.267,-0.157 1.477,0.198 3.313,1.735 -1.599,1.5 -0.776,-0.017 -2.19,1.081 -1.185,0.419 -0.605,-2.167 0.347,-1.781"
   id="21025"
   inkscape:label="Breathitt, KY"
   inkscape:connector-curvature="0" />
  <path
   style="fill:#72b3dc;stroke:#c2dffb;stroke-width:1"
   d="m 69.27,15.784 0.839,0.346 -0.271,0.091 -0.171,0.104 -0.045,0.067 0.195,1.857 0.297,0.293 0.171,0.402 0.008,0.283 -0.198,0.816 -0.473,1.131 -0.171,0.23 -0.095,0.077 -0.194,-0.086 -0.226,-0.131 -0.054,-0.055 -0.184,-0.54 0.022,-0.351 -0.05,-0.423 -0.093,-0.145 -0.74,-0.41 -1.006,-0.149 -0.563,-2.94 0.329,0.006 1.172,-0.603 0.32,-0.117 0.302,0.008 0.848,0.211 0.031,0.028"
   id="21071"
   inkscape:label="Floyd, KY"
   inkscape:connector-curvature="0" />
  <path
   style="fill:#72b3dc;stroke:#c2dffb;stroke-width:1"
   d="m 69.261,13.698 0.009,2.086 -0.031,-0.028 -0.848,-0.211 -0.302,-0.008 -0.32,0.117 -1.172,0.603 -0.329,-0.006 -0.896,-1.748 -0.028,-1.374 0.086,-0.28 0.045,-0.09 0.173,-0.148 0.039,-0.004 1.222,0.256 1.049,0.532 0.6,0.212 0.703,0.091"
   id="21115"
   inkscape:label="Johnson, KY"
   inkscape:connector-curvature="0" />
  <path
   style="fill:#72b3dc;stroke:#c2dffb;stroke-width:1"
   d="m 65.372,14.503 0.896,1.748 0.563,2.94 -0.261,-0.18 -3.313,-1.735 -0.207,-0.536 -0.185,-0.718 1.177,-1.779 0.028,-0.028 0.4,0 0.468,0.095 0.434,0.193"
   id="21153"
   inkscape:label="Magoffin, KY"
   inkscape:connector-curvature="0" />
  <path
   style="fill:#72b3dc;stroke:#c2dffb;stroke-width:1"
   d="m 60.455,15.13 0.139,0.216 0.555,0.253 1.063,0.36 0.838,0.781 0.207,0.536 -1.477,-0.198 -0.267,0.157 -0.054,0.09 -0.026,0.122 0.012,0.082 -0.027,0.166 -0.13,0.27 -0.072,0.099 -0.31,0.17 -0.344,-0.188 -1.996,-0.761 0.586,-1.506 1.303,-0.649"
   id="21237"
   inkscape:label="Wolfe, KY"
   inkscape:connector-curvature="0" />
  <path
   style="fill:#72b3dc;stroke:#c2dffb;stroke-width:1"
   d="m 55.614,14.85 2,-0.09 1.538,1.019 -0.586,1.506 -0.145,0.022 -1.082,-0.27 -0.805,-0.054 -0.689,-0.464 -0.434,-0.425 0.203,-1.244"
   id="21197"
   inkscape:label="Powell, KY"
   inkscape:connector-curvature="0" />
  <path
   style="fill:#72b3dc;stroke:#c2dffb;stroke-width:1"
   d="m 54.176,12.624 1.438,2.226 -0.203,1.244 -0.812,-0.09 -2.637,-0.18 0.232,-2.326 1.982,-0.874"
   id="21049"
   inkscape:label="Clark, KY"
   inkscape:connector-curvature="0" />
  <path
   style="fill:#72b3dc;stroke:#c2dffb;stroke-width:1"
   d="m 55.069,11.498 0.536,0.513 0.522,0.081 0.113,0.099 0.582,0.537 0.667,0.808 0.086,0.174 0.039,1.05 -2,0.09 -1.438,-2.226 0.893,-1.126"
   id="21173"
   inkscape:label="Montgomery, KY"
   inkscape:connector-curvature="0" />
  <path
   style="fill:#72b3dc;stroke:#c2dffb;stroke-width:1"
   d="m 60.093,12.701 0.682,0.13 -0.32,2.299 -1.303,0.649 -1.538,-1.019 -0.039,-1.05 2.518,-1.009"
   id="21165"
   inkscape:label="Menifee, KY"
   inkscape:connector-curvature="0" />
  <path
   style="fill:#72b3dc;stroke:#c2dffb;stroke-width:1"
   d="m 64.935,12.62 0.409,0.509 0.028,1.374 -0.434,-0.193 -0.468,-0.095 -0.4,0 -0.028,0.028 -1.177,1.779 0.185,0.718 -0.838,-0.781 -1.063,-0.36 -0.555,-0.253 -0.139,-0.216 0.32,-2.299 1.563,-1.279 2.597,1.068"
   id="21175"
   inkscape:label="Morgan, KY"
   inkscape:connector-curvature="0" />
  <path
   style="fill:#72b3dc;stroke:#c2dffb;stroke-width:1"
   d="m 65.606,10.326 -0.671,2.294 -2.597,-1.068 0.054,-1.014 0.532,-1.051 0.244,0.05 0.77,0.428 0.41,0.297 0.775,0.158 0.316,-0.005 0.167,-0.089"
   id="21063"
   inkscape:label="Elliott, KY"
   inkscape:connector-curvature="0" />
  <path
   style="fill:#72b3dc;stroke:#c2dffb;stroke-width:1"
   d="m 61.207,9.028 1.185,1.51 -0.054,1.014 -1.563,1.279 -0.682,-0.13 -1.596,-1.582 0.524,-0.428 0.171,-0.186 0.432,-0.657 -0.094,-0.234 0.1,-0.569 0.36,-0.671 1.217,0.654"
   id="21205"
   inkscape:label="Rowan, KY"
   inkscape:connector-curvature="0" />
  <path
   style="fill:#72b3dc;stroke:#c2dffb;stroke-width:1"
   d="m 56.191,9.984 0.076,-0.088 0.045,-0.003 0.974,0.049 0.108,0.059 0.247,0.189 0.335,0.644 0.437,0.515 0.067,-0.104 0.017,-0.126 1.596,1.582 -2.518,1.009 -0.086,-0.174 -0.667,-0.808 -0.582,-0.537 -0.113,-0.099 -0.522,-0.081 -0.536,-0.513 1.122,-1.514"
   id="21011"
   inkscape:label="Bath, KY"
   inkscape:connector-curvature="0" />
  <path
   style="fill:#72b3dc;stroke:#c2dffb;stroke-width:1"
   d="m 54.649,8.315 1.542,1.669 -1.122,1.514 -2.444,-2.042 0.771,-1.25 1.253,0.109"
   id="21181"
   inkscape:label="Nicholas, KY"
   inkscape:connector-curvature="0" />
  <path
   style="fill:#72b3dc;stroke:#c2dffb;stroke-width:1"
   d="m 57.864,6.769 2.126,1.605 -0.36,0.671 -0.1,0.569 0.094,0.234 -0.432,0.657 -0.171,0.186 -0.524,0.428 -0.017,0.126 -0.067,0.104 L 57.976,10.834 57.641,10.19 57.394,10.001 57.286,9.942 56.312,9.893 56.267,9.896 56.191,9.984 54.649,8.315 55.055,7.568 55.821,7.941 57.11,7.148 57.864,6.769"
   id="21069"
   inkscape:label="Fleming, KY"
   inkscape:connector-curvature="0" />
  <path
   style="fill:#72b3dc;stroke:#c2dffb;stroke-width:1"
   d="M 54.28,6.336 55.055,7.568 54.649,8.315 53.396,8.206 52.653,7.063 54.28,6.336"
   id="21201"
   inkscape:label="Robertson, KY"
   inkscape:connector-curvature="0" />
  <path
   style="fill:#72b3dc;stroke:#c2dffb;stroke-width:1"
   d="M 54.861,3.975 54.28,6.336 52.653,7.063 52.175,6.751 51.53,3.606 53.382,4.133 54.861,3.975"
   id="21023"
   inkscape:label="Bracken, KY"
   inkscape:connector-curvature="0" />
  <path
   style="fill:#72b3dc;stroke:#c2dffb;stroke-width:1"
   d="M 57.623,5.345 57.864,6.769 57.11,7.148 55.821,7.941 55.055,7.568 54.28,6.336 l 0.581,-2.361 0.342,0.045 0.122,0.045 0.063,0.051 0.879,0.91 0.78,0.387 0.576,-0.068"
   id="21161"
   inkscape:label="Mason, KY"
   inkscape:connector-curvature="0" />
  <path
   style="fill:#72b3dc;stroke:#c2dffb;stroke-width:1"
   d="m 63.578,3.38 -0.956,3.038 -0.451,1.619 0.109,0.527 -0.041,0.094 -0.402,0.23 -0.63,0.14 L 59.99,8.374 57.864,6.769 57.623,5.345 57.677,4.89 l 0.077,-0.126 0.104,-0.072 0.784,-0.343 0.123,-0.027 0.085,0.009 0.014,0 0.404,0.099 1.074,0.258 0.027,0.013 0.337,0.158 0.024,0.008 0.571,0.428 2.277,-1.915"
   id="21135"
   inkscape:label="Lewis, KY"
   inkscape:connector-curvature="0" />
  <path
   style="fill:#72b3dc;stroke:#c2dffb;stroke-width:1"
   d="m 68.458,6.684 0.212,2.263 -1.883,0.311 -0.469,-1.641 1.27,-1.911 0.87,0.978"
   id="21019"
   inkscape:label="Boyd, KY"
   inkscape:connector-curvature="0" />
  <path
   style="fill:#72b3dc;stroke:#c2dffb;stroke-width:1"
   d="M 65.98,5.08 67.588,5.706 66.318,7.617 65.33,7.423 63.83,6.756 63.415,6.612 62.622,6.418 63.578,3.38 l 0,-0.005 0.179,-0.081 0.834,-0.378 0.272,-0.119 0.012,-0.003 0.051,0 0.103,0.045 0.046,0.05 0.013,0.023 0.027,0.04 0.017,0.031 0.005,0.018 0.004,0.018 0.019,0.077 0.008,0.091 0,0.013 0.005,0.006 -0.01,0.156 0.095,0.406 0.28,0.843 0.023,0.05 0.067,0.143 0.081,0.095 0.01,0.014 0.216,0.144 0.045,0.023"
   id="21089"
   inkscape:label="Greenup, KY"
   inkscape:connector-curvature="0" />
  <path
   style="fill:#72b3dc;stroke:#c2dffb;stroke-width:1"
   d="m 62.622,6.418 0.793,0.194 0.415,0.144 1.5,0.667 0.988,0.194 0.469,1.641 -1.181,1.068 -0.167,0.089 -0.316,0.005 -0.775,-0.158 -0.41,-0.297 -0.77,-0.428 -0.244,-0.05 -0.532,1.051 -1.185,-1.51 0.63,-0.14 0.402,-0.23 0.041,-0.094 -0.109,-0.527 0.451,-1.619"
   id="21043"
   inkscape:label="Carter, KY"
   inkscape:connector-curvature="0" />
  <path
   style="fill:#72b3dc;stroke:#c2dffb;stroke-width:1"
   d="m 66.787,9.258 1.883,-0.311 -0.252,1.103 0,0.004 0.04,0.113 0.091,0.226 0,0.01 0.181,0.161 0.193,0.042 0.027,0.008 1.586,1.514 0.014,0.018 0.004,0.01 0,0.072 -0.261,0.451 -1.032,1.019 -0.703,-0.091 -0.6,-0.212 -1.049,-0.532 -1.222,-0.256 -0.039,0.004 -0.173,0.148 -0.045,0.09 -0.086,0.28 -0.409,-0.509 0.671,-2.294 1.181,-1.068"
   id="21127"
   inkscape:label="Lawrence, KY"
   inkscape:connector-curvature="0" />
  <path
   style="fill:#72b3dc;stroke:#c2dffb;stroke-width:1"
   d="m 71.338,13.643 1.046,1.415 -2.275,1.072 -0.839,-0.346 -0.009,-2.086 1.032,-1.019 1.045,0.964"
   id="21159"
   inkscape:label="Martin, KY"
   inkscape:connector-curvature="0" />
  <path
   style="fill:#72b3dc;stroke:#c2dffb;stroke-width:1"
   d="m 70.109,16.13 2.275,-1.072 -0.004,0.009 0.019,0.063 0.377,0.581 2.052,1.38 0.003,0 0.732,0.266 0.4,-0.091 0.393,-0.117 -2.962,3.56 -0.379,0.489 -1.523,0.859 -0.396,0.284 -0.113,0.077 -0.402,-0.361 -0.333,-0.211 -0.06,0 -0.282,0.23 -0.289,0.013 -0.459,-0.401 0.198,-0.207 0.095,-0.077 0.171,-0.23 0.473,-1.131 0.198,-0.816 -0.008,-0.283 -0.171,-0.402 -0.297,-0.293 -0.195,-1.857 0.045,-0.067 0.171,-0.104 0.271,-0.091"
   id="21195"
   inkscape:label="Pike, KY"
   inkscape:connector-curvature="0" />
  <path
   style="fill:#72b3dc;stroke:#c2dffb;stroke-width:1"
   d="m 52.653,7.063 0.743,1.143 -0.771,1.25 -2.335,1.447 -1.473,-2.57 0.725,-0.743 2.633,-0.839 0.478,0.312"
   id="21097"
   inkscape:label="Harrison, KY"
   inkscape:connector-curvature="0" />
  <path
   style="fill:#72b3dc;stroke:#c2dffb;stroke-width:1"
   d="m 50.29,10.903 2.335,-1.447 2.444,2.042 -0.893,1.126 -1.982,0.874 -1.38,-1.671 -0.524,-0.924"
   id="21017"
   inkscape:label="Bourbon, KY"
   inkscape:connector-curvature="0" />
  <path
   style="fill:#72b3dc;stroke:#c2dffb;stroke-width:1"
   d="m 51.962,15.824 2.637,0.18 0.365,3.71 -1.027,0.699 -1.519,-0.023 -2.154,-2.759 0.784,-1.108 0.914,-0.699"
   id="21151"
   inkscape:label="Madison, KY"
   inkscape:connector-curvature="0" />
  <path
   style="fill:#72b3dc;stroke:#c2dffb;stroke-width:1"
   d="m 53.937,20.413 -0.031,0.148 0.049,0.329 0.194,0.347 0.303,0.424 0.278,0.671 0.158,0.618 -1.257,2.362 -2.448,-2.015 0.32,-2.099 0.915,-0.808 1.519,0.023"
   id="21203"
   inkscape:label="Rockcastle, KY"
   inkscape:connector-curvature="0" />
  <path
   style="fill:#72b3dc;stroke:#c2dffb;stroke-width:1"
   d="m 53.234,27.88 0.639,0.096 -0.282,2.045 0.022,0.181 0.594,1.28 0.298,0.365 0.654,0.609 -0.352,0.04 -5.292,0.496 0.821,-1.817 0.649,-1.022 0.157,-0.812 2.092,-1.461"
   id="21147"
   inkscape:label="McCreary, KY"
   inkscape:connector-curvature="0" />
  <path
   style="fill:#72b3dc;stroke:#c2dffb;stroke-width:1"
   d="m 49.141,19.538 2.362,1.66 -0.32,2.099 -2.06,1.429 0.05,-0.812 -0.257,-0.761 -0.789,-0.302 -0.608,-0.406 -0.158,-0.509 0.01,-1.055 1.77,-1.343"
   id="21137"
   inkscape:label="Lincoln, KY"
   inkscape:connector-curvature="0" />
  <path
   style="fill:#72b3dc;stroke:#c2dffb;stroke-width:1"
   d="m 48.276,17.271 0.189,-0.18 0.149,-0.051 0.735,0.42 0.04,0.302 0.32,0.397 0.154,0.058 0.027,-0.017 0.374,-0.569 2.154,2.759 -0.915,0.808 -2.362,-1.66 -0.992,-0.911 0.127,-1.356"
   id="21079"
   inkscape:label="Garrard, KY"
   inkscape:connector-curvature="0" />
  <path
   style="fill:#72b3dc;stroke:#c2dffb;stroke-width:1"
   d="m 48.55,14.775 2.498,1.748 -0.784,1.108 -0.374,0.569 -0.027,0.017 -0.154,-0.058 -0.32,-0.397 -0.04,-0.302 -0.735,-0.42 -0.149,0.051 -0.189,0.18 -0.004,-0.608 0.278,-1.888"
   id="21113"
   inkscape:label="Jessamine, KY"
   inkscape:connector-curvature="0" />
  <path
   style="fill:#72b3dc;stroke:#c2dffb;stroke-width:1"
   d="m 50.814,11.827 1.38,1.671 -0.232,2.326 -0.914,0.699 -2.498,-1.748 0.177,-1.498 2.087,-1.45"
   id="21067"
   inkscape:label="Fayette, KY"
   inkscape:connector-curvature="0" />
  <path
   style="fill:#72b3dc;stroke:#c2dffb;stroke-width:1"
   d="m 47.604,12.376 1.123,0.901 -0.177,1.498 -0.278,1.888 -1.033,-1.294 -0.91,-1.812 1.275,-1.181"
   id="21239"
   inkscape:label="Woodford, KY"
   inkscape:connector-curvature="0" />
  <path
   style="fill:#72b3dc;stroke:#c2dffb;stroke-width:1"
   d="m 48.817,8.333 1.473,2.57 0.524,0.924 -2.087,1.45 -1.123,-0.901 -0.393,-2.005 1.408,-1.748 0.198,-0.29"
   id="21209"
   inkscape:label="Scott, KY"
   inkscape:connector-curvature="0" />
  <path
   style="fill:#72b3dc;stroke:#c2dffb;stroke-width:1"
   d="m 45.91,10.465 1.301,-0.094 0.393,2.005 -1.275,1.181 -1.61,0.027 -0.049,-2.699 1.24,-0.42"
   id="21073"
   inkscape:label="Franklin, KY"
   inkscape:connector-curvature="0" />
  <path
   style="fill:#72b3dc;stroke:#c2dffb;stroke-width:1"
   d="m 44.719,13.584 1.61,-0.027 0.91,1.812 -0.797,0.478 -1.204,0.789 -0.125,0.067 -0.073,-0.008 -0.032,-0.037 -1.235,0.063 -0.261,-0.937 0.564,-0.915 0.643,-1.285"
   id="21005"
   inkscape:label="Anderson, KY"
   inkscape:connector-curvature="0" />
  <path
   style="fill:#72b3dc;stroke:#c2dffb;stroke-width:1"
   d="m 47.239,15.369 1.033,1.294 0.004,0.608 -0.127,1.356 -2.767,0.771 -0.374,-2.74 0.032,0.037 0.073,0.008 0.125,-0.067 1.204,-0.789 0.797,-0.478"
   id="21167"
   inkscape:label="Mercer, KY"
   inkscape:connector-curvature="0" />
  <path
   style="fill:#72b3dc;stroke:#c2dffb;stroke-width:1"
   d="m 48.149,18.627 0.992,0.911 -1.77,1.343 -1.935,0.262 -0.036,-1.123 -0.018,-0.622 2.767,-0.771"
   id="21021"
   inkscape:label="Boyle, KY"
   inkscape:connector-curvature="0" />
  <path
   style="fill:#72b3dc;stroke:#c2dffb;stroke-width:1"
   d="m 45.436,21.143 1.935,-0.262 -0.01,1.055 0.158,0.509 0.608,0.406 0.789,0.302 0.257,0.761 -0.05,0.812 -1.64,1.789 -1.546,-0.73 -1.42,-1.466 0.771,-1.442 0.148,-1.734"
   id="21045"
   inkscape:label="Casey, KY"
   inkscape:connector-curvature="0" />
  <path
   style="fill:#72b3dc;stroke:#c2dffb;stroke-width:1"
   d="m 49.123,24.726 2.06,-1.429 2.448,2.015 -0.397,2.568 -2.092,1.461 -2.812,-1.371 -0.847,-1.455 1.64,-1.789"
   id="21199"
   inkscape:label="Pulaski, KY"
   inkscape:connector-curvature="0" />
  <path
   style="fill:#72b3dc;stroke:#c2dffb;stroke-width:1"
   d="m 51.142,29.341 -0.157,0.812 -0.649,1.022 -0.821,1.817 -0.076,0.004 -1.884,0.086 -0.217,-0.045 -0.117,-0.063 -0.049,-0.104 -0.265,-0.766 -0.028,-0.122 -0.008,-0.198 0.027,-0.171 -0.411,-1.105 -0.276,-0.477 2.119,-2.061 2.812,1.371"
   id="21231"
   inkscape:label="Wayne, KY"
   inkscape:connector-curvature="0" />
  <path
   style="fill:#72b3dc;stroke:#c2dffb;stroke-width:1"
   d="m 45.937,25.785 1.546,0.73 0.847,1.455 -2.119,2.061 -0.504,0.472 -0.843,-0.495 -0.374,-0.157 -0.054,0.035 0.009,0.064 0.235,0.315 -0.137,0.054 -0.085,-0.018 -0.067,-0.04 -0.384,-0.488 0.398,-0.4 0.163,-0.957 0.346,-0.517 0.64,-1.271 0.383,-0.843"
   id="21207"
   inkscape:label="Russell, KY"
   inkscape:connector-curvature="0" />
  <path
   style="fill:#72b3dc;stroke:#c2dffb;stroke-width:1"
   d="m 44.68,30.265 -0.235,-0.315 -0.009,-0.064 0.054,-0.035 0.374,0.157 0.843,0.495 0.504,-0.472 0.276,0.477 0.411,1.105 -0.027,0.171 0.008,0.198 0.028,0.122 0.265,0.766 0.049,0.104 0.117,0.063 0.217,0.045 -3.164,0.199 -0.198,0.035 0.487,-3.051"
   id="21053"
   inkscape:label="Clinton, KY"
   inkscape:connector-curvature="0" />
  <path
   style="fill:#72b3dc;stroke:#c2dffb;stroke-width:1"
   d="m 44.405,29.373 -0.398,0.4 0.384,0.488 0.067,0.04 0.085,0.018 0.137,-0.054 -0.487,3.051 -1.425,0.258 -1.915,-2.403 1.298,-1.717 2.254,-0.081"
   id="21057"
   inkscape:label="Cumberland, KY"
   inkscape:connector-curvature="0" />
  <path
   style="fill:#72b3dc;stroke:#c2dffb;stroke-width:1"
   d="m 44.517,24.319 1.42,1.466 -0.383,0.843 -0.64,1.271 -0.346,0.517 -0.163,0.957 -2.254,0.081 -1.005,-2.123 1.644,-1.271 1.727,-1.741"
   id="21001"
   inkscape:label="Adair, KY"
   inkscape:connector-curvature="0" />
  <path
   style="fill:#72b3dc;stroke:#c2dffb;stroke-width:1"
   d="m 41.249,22.663 0.019,-0.035 0.197,-0.084 0.948,-0.089 2.257,-0.024 0.618,0.446 -0.771,1.442 -1.727,1.741 -0.946,-1.344 -0.571,-0.724 -1.182,-0.776 -0.031,-0.113 -0.005,-0.369 1.194,-0.071"
   id="21217"
   inkscape:label="Taylor, KY"
   inkscape:connector-curvature="0" />
  <path
   style="fill:#72b3dc;stroke:#c2dffb;stroke-width:1"
   d="m 41.515,19.16 0.383,0.522 0.442,0.41 0.776,0.195 2.284,-0.267 0.036,1.123 -0.148,1.734 -0.618,-0.446 -2.257,0.024 -0.948,0.089 -0.197,0.084 -0.019,0.035 -0.689,-1.088 0.955,-2.415"
   id="21155"
   inkscape:label="Marion, KY"
   inkscape:connector-curvature="0" />
  <path
   style="fill:#72b3dc;stroke:#c2dffb;stroke-width:1"
   d="m 45.008,16.658 0.374,2.74 0.018,0.622 -2.284,0.267 -0.776,-0.195 -0.442,-0.41 -0.383,-0.522 2.258,-2.439 1.235,-0.063"
   id="21229"
   inkscape:label="Washington, KY"
   inkscape:connector-curvature="0" />
  <path
   style="fill:#72b3dc;stroke:#c2dffb;stroke-width:1"
   d="m 40.691,13.8 3.385,1.069 -0.564,0.915 -3.25,0.112 0.42,-1.712 0.009,-0.384"
   id="21215"
   inkscape:label="Spencer, KY"
   inkscape:connector-curvature="0" />
  <path
   style="fill:#72b3dc;stroke:#c2dffb;stroke-width:1"
   d="m 41.79,10.925 2.88,-0.04 0.049,2.699 -0.643,1.285 -3.385,-1.069 -0.636,-1.729 0.112,-0.147 0.091,-0.061 0.171,-0.068 0.379,-0.113 0.374,0.027 0.266,-0.117 0.342,-0.667"
   id="21211"
   inkscape:label="Shelby, KY"
   inkscape:connector-curvature="0" />
  <path
   style="fill:#72b3dc;stroke:#c2dffb;stroke-width:1"
   d="m 42.602,7.851 0.915,-0.252 2.393,2.866 -1.24,0.42 -2.88,0.04 -0.504,-1.705 1.316,-1.369"
   id="21103"
   inkscape:label="Henry, KY"
   inkscape:connector-curvature="0" />
  <path
   style="fill:#72b3dc;stroke:#c2dffb;stroke-width:1"
   d="m 44.81,6.599 1.384,-0.925 0.27,1.299 1.655,1.474 0.193,0.085 0.307,0.091 -1.408,1.748 -1.301,0.094 -2.393,-2.866 1.293,-1"
   id="21187"
   inkscape:label="Owen, KY"
   inkscape:connector-curvature="0" />
  <path
   style="fill:#72b3dc;stroke:#c2dffb;stroke-width:1"
   d="M 47.753,4.412 48.605,4.444 49.542,7.59 48.817,8.333 48.619,8.623 48.312,8.532 48.119,8.447 46.464,6.973 46.194,5.674 47.357,4.787 47.753,4.412"
   id="21081"
   inkscape:label="Grant, KY"
   inkscape:connector-curvature="0" />
  <path
   style="fill:#72b3dc;stroke:#c2dffb;stroke-width:1"
   d="m 51.53,3.606 0.645,3.145 -2.633,0.839 -0.937,-3.146 1.1,-0.324 1.73,-1.105 0.095,0.591"
   id="21191"
   inkscape:label="Pendleton, KY"
   inkscape:connector-curvature="0" />
  <path
   style="fill:#72b3dc;stroke:#c2dffb;stroke-width:1"
   d="M 50.34,1.221 51.435,3.015 49.705,4.12 48.384,0.5 50.34,1.221"
   id="21037"
   inkscape:label="Campbell, KY"
   inkscape:connector-curvature="0" />
  <path
   style="fill:#72b3dc;stroke:#c2dffb;stroke-width:1"
   d="m 48.384,0.5 1.321,3.62 -1.1,0.324 L 47.753,4.412 47.257,0.911 48.384,0.5"
   id="21117"
   inkscape:label="Kenton, KY"
   inkscape:connector-curvature="0" />
  <path
   style="fill:#72b3dc;stroke:#c2dffb;stroke-width:1"
   d="M 47.257,0.911 47.753,4.412 47.357,4.787 45.937,3.925 45.801,3.362 44.806,1.776 45.265,0.74 47.257,0.911"
   id="21015"
   inkscape:label="Boone, KY"
   inkscape:connector-curvature="0" />
  <path
   style="fill:#72b3dc;stroke:#c2dffb;stroke-width:1"
   d="M 45.937,3.925 47.357,4.787 46.194,5.674 44.81,6.599 43.755,5.4 45.937,3.925"
   id="21077"
   inkscape:label="Gallatin, KY"
   inkscape:connector-curvature="0" />
  <path
   style="fill:#72b3dc;stroke:#c2dffb;stroke-width:1"
   d="m 42.115,6.522 1.64,-1.122 1.055,1.199 -1.293,1 -0.915,0.252 -1.88,-1.812 1.393,0.483"
   id="21041"
   inkscape:label="Carroll, KY"
   inkscape:connector-curvature="0" />
  <path
   style="fill:#72b3dc;stroke:#c2dffb;stroke-width:1"
   d="M 40.722,6.039 42.602,7.851 41.286,9.22 40.055,8.947 40.024,8.134 40.722,6.039"
   id="21223"
   inkscape:label="Trimble, KY"
   inkscape:connector-curvature="0" />
  <path
   style="fill:#72b3dc;stroke:#c2dffb;stroke-width:1"
   d="m 41.286,9.22 0.504,1.705 -0.342,0.667 -0.266,0.117 -0.374,-0.027 -0.379,0.113 -0.171,0.068 -0.091,0.061 -0.112,0.147 -1.839,-1.042 1.839,-2.082 1.231,0.273"
   id="21185"
   inkscape:label="Oldham, KY"
   inkscape:connector-curvature="0" />
  <path
   style="fill:#72b3dc;stroke:#c2dffb;stroke-width:1"
   d="m 38.216,11.029 1.839,1.042 0.636,1.729 -0.009,0.384 -1.218,0.716 -1.576,0 -1.543,0.744 -0.302,0.224 -0.297,0.421 -0.117,-0.095 0.248,-2.267 0.938,-1.546 1.401,-1.352"
   id="21111"
   inkscape:label="Jefferson, KY"
   inkscape:connector-curvature="0" />
  <path
   style="fill:#72b3dc;stroke:#c2dffb;stroke-width:1"
   d="m 40.682,14.184 -0.42,1.712 -0.82,1.38 0.095,0.085 -0.014,0.027 -0.576,0.703 -0.321,0.231 -0.437,0.172 -0.171,-0.01 -2.272,-2.195 0.297,-0.421 0.302,-0.224 1.543,-0.744 1.576,0 1.218,-0.716"
   id="21029"
   inkscape:label="Bullitt, KY"
   inkscape:connector-curvature="0" />
  <path
   style="fill:#72b3dc;stroke:#c2dffb;stroke-width:1"
   d="m 43.512,15.784 0.261,0.937 -2.258,2.439 -0.955,2.415 -0.348,0.423 -0.039,0.028 -0.514,-0.18 -0.028,-0.244 0.018,-0.401 0.018,-0.199 0.212,-0.243 -0.23,-0.906 -0.094,-0.066 -0.703,-0.307 -0.144,-0.027 -0.69,-0.969 0.171,0.01 0.437,-0.172 0.321,-0.231 0.576,-0.703 0.014,-0.027 -0.095,-0.085 0.82,-1.38 3.25,-0.112"
   id="21179"
   inkscape:label="Nelson, KY"
   inkscape:connector-curvature="0" />
  <path
   style="fill:#72b3dc;stroke:#c2dffb;stroke-width:1"
   d="m 38.708,19.453 0.144,0.027 0.703,0.307 0.094,0.066 0.23,0.906 -0.212,0.243 -0.018,0.199 -0.018,0.401 0.028,0.244 0.514,0.18 0.039,-0.028 0.348,-0.423 0.689,1.088 -1.194,0.071 -0.676,0.698 -2.411,0.026 0.031,-1.369 0.681,-0.937 0.423,-0.532 0.605,-1.167"
   id="21123"
   inkscape:label="Larue, KY"
   inkscape:connector-curvature="0" />
  <path
   style="fill:#72b3dc;stroke:#c2dffb;stroke-width:1"
   d="m 39.379,23.432 0.676,-0.698 0.005,0.369 0.031,0.113 1.182,0.776 0.571,0.724 0.946,1.344 -1.644,1.271 -1.727,-0.762 -0.04,-3.137"
   id="21087"
   inkscape:label="Green, KY"
   inkscape:connector-curvature="0" />
  <path
   style="fill:#72b3dc;stroke:#c2dffb;stroke-width:1"
   d="m 39.419,26.569 1.727,0.762 1.005,2.123 -1.298,1.717 -1.492,-0.144 -0.342,-2.118 -0.176,-0.789 -0.185,-0.523 -0.094,-0.361 0.288,-0.45 0.567,-0.217"
   id="21169"
   inkscape:label="Metcalfe, KY"
   inkscape:connector-curvature="0" />
  <path
   style="fill:#72b3dc;stroke:#c2dffb;stroke-width:1"
   d="m 39.361,31.027 1.492,0.144 1.915,2.403 -3.601,0.346 -1.929,0.118 -0.135,-1.217 2.258,-1.794"
   id="21171"
   inkscape:label="Monroe, KY"
   inkscape:connector-curvature="0" />
  <path
   style="fill:#72b3dc;stroke:#c2dffb;stroke-width:1"
   d="m 30.419,31.414 0.356,0.654 1.892,0.108 -0.012,0.405 0.108,1.632 -1.542,0.379 -2.056,0 1.254,-3.178"
   id="21213"
   inkscape:label="Simpson, KY"
   inkscape:connector-curvature="0" />
  <path
   style="fill:#72b3dc;stroke:#c2dffb;stroke-width:1"
   d="m 34.88,30.291 2.223,2.53 0.135,1.217 -2.348,0.099 -2.127,0.076 -0.108,-1.632 1.009,-1.063 0.306,-0.487 0.587,-0.68 0.323,-0.06"
   id="21003"
   inkscape:label="Allen, KY"
   inkscape:connector-curvature="0" />
  <path
   style="fill:#72b3dc;stroke:#c2dffb;stroke-width:1"
   d="m 38.852,26.786 -0.288,0.45 0.094,0.361 0.185,0.523 0.176,0.789 0.342,2.118 -2.258,1.794 -2.223,-2.53 0.37,-1.699 0.438,-1.432 3.164,-0.374"
   id="21009"
   inkscape:label="Barren, KY"
   inkscape:connector-curvature="0" />
  <path
   style="fill:#72b3dc;stroke:#c2dffb;stroke-width:1"
   d="m 36.968,23.458 2.411,-0.026 0.04,3.137 -0.567,0.217 -3.164,0.374 -1.253,-2.069 0.96,-1.595 1.573,-0.038"
   id="21099"
   inkscape:label="Hart, KY"
   inkscape:connector-curvature="0" />
  <path
   style="fill:#72b3dc;stroke:#c2dffb;stroke-width:1"
   d="m 35.629,16.194 0.117,0.095 2.272,2.195 0.69,0.969 -0.605,1.167 -0.423,0.532 -0.681,0.937 -0.031,1.369 -1.573,0.038 -0.162,-0.636 -0.645,-0.771 -0.194,-0.017 -0.176,0.098 -0.275,0.109 -1.045,-0.398 0.978,-2.785 1.424,-0.405 0.235,-0.779 -0.393,-1.552 0.487,-0.166"
   id="21093"
   inkscape:label="Hardin, KY"
   inkscape:connector-curvature="0" />
  <path
   style="fill:#72b3dc;stroke:#c2dffb;stroke-width:1"
   d="m 30.198,16.243 2.033,-1.306 -0.031,0.364 0,0.023 0.004,0.09 0.004,0.059 0.009,0.023 0.072,0.252 0.059,0.09 0.023,0.036 0.049,0.031 0.455,0.301 0.438,0.172 0.072,0.009 1.456,0.072 0.301,-0.099 0.393,1.552 -0.235,0.779 -1.424,0.405 -3.737,-2.845 0.059,-0.008"
   id="21163"
   inkscape:label="Meade, KY"
   inkscape:connector-curvature="0" />
  <path
   style="fill:#72b3dc;stroke:#c2dffb;stroke-width:1"
   d="m 25.385,18.226 1.569,-1.04 1.793,1.86 -0.1,0.096 -0.063,0.567 0.736,1.726 -0.172,-0.066 -1.96,-0.803 -0.006,-0.703 -0.432,-0.6 -0.618,-0.64 -0.789,0.013 0.042,-0.41"
   id="21091"
   inkscape:label="Hancock, KY"
   inkscape:connector-curvature="0" />
  <path
   style="fill:#72b3dc;stroke:#c2dffb;stroke-width:1"
   d="m 28.747,19.046 0.077,0.005 0.134,-0.045 0.28,-0.217 0.658,-1.5 -0.076,-0.77 0.017,-0.141 0.041,-0.058 0.054,-0.031 0.207,-0.038 3.737,2.845 -0.978,2.785 -0.112,0.082 -0.844,0.464 -1.009,-0.383 -0.01,-0.05 -0.121,-0.125 -0.275,-0.131 -0.044,0.005 -0.231,0.126 -0.216,0.248 -0.302,0.459 -0.586,-1.207 0.172,0.066 -0.736,-1.726 0.063,-0.567 0.1,-0.096"
   id="21027"
   inkscape:label="Breckinridge, KY"
   inkscape:connector-curvature="0" />
  <path
   style="fill:#72b3dc;stroke:#c2dffb;stroke-width:1"
   d="m 29.734,22.576 0.302,-0.459 0.216,-0.248 0.231,-0.126 0.044,-0.005 0.275,0.131 0.121,0.125 0.01,0.05 1.009,0.383 0.844,-0.464 0.112,-0.082 1.045,0.398 0.275,-0.109 0.176,-0.098 0.194,0.017 0.645,0.771 0.162,0.636 -0.96,1.595 -3.133,0.513 -1.546,-0.819 -0.022,-2.209"
   id="21085"
   inkscape:label="Grayson, KY"
   inkscape:connector-curvature="0" />
  <path
   style="fill:#72b3dc;stroke:#c2dffb;stroke-width:1"
   d="m 31.302,25.604 3.133,-0.513 1.253,2.069 -0.438,1.432 -3.046,-1.107 -0.902,-1.881"
   id="21061"
   inkscape:label="Edmonson, KY"
   inkscape:connector-curvature="0" />
  <path
   style="fill:#72b3dc;stroke:#c2dffb;stroke-width:1"
   d="m 32.204,27.485 3.046,1.107 -0.37,1.699 -0.323,0.06 -0.587,0.68 -0.306,0.487 -1.009,1.063 0.012,-0.405 -1.892,-0.108 -0.356,-0.654 -0.789,-1.447 0.352,-2.249 1.537,-0.045 0.685,-0.188"
   id="21227"
   inkscape:label="Warren, KY"
   inkscape:connector-curvature="0" />
  <path
   style="fill:#72b3dc;stroke:#c2dffb;stroke-width:1"
   d="m 29.756,24.785 1.546,0.819 0.902,1.881 -0.685,0.188 -1.537,0.045 -0.352,2.249 -2.803,-0.635 0.248,-1.892 0.753,-1.137 0.649,-0.288 1.279,-1.23"
   id="21031"
   inkscape:label="Butler, KY"
   inkscape:connector-curvature="0" />
  <path
   style="fill:#72b3dc;stroke:#c2dffb;stroke-width:1"
   d="m 26.827,29.332 2.803,0.635 0.789,1.447 -1.254,3.178 -3.033,0.364 -0.432,-5.413 1.127,-0.211"
   id="21141"
   inkscape:label="Logan, KY"
   inkscape:connector-curvature="0" />
  <path
   style="fill:#72b3dc;stroke:#c2dffb;stroke-width:1"
   d="m 23.585,29.602 2.115,-0.059 0.432,5.413 -0.554,0.064 -2.257,0.221 0.264,-5.639"
   id="21219"
   inkscape:label="Todd, KY"
   inkscape:connector-curvature="0" />
  <path
   style="fill:#72b3dc;stroke:#c2dffb;stroke-width:1"
   d="m 24.794,24.995 2.281,2.445 -0.248,1.892 -1.127,0.211 -2.115,0.059 -0.85,-1.031 0.166,-0.365 -0.676,-0.834 -0.122,-0.721 0.735,-1.154 1.956,-0.502"
   id="21177"
   inkscape:label="Muhlenberg, KY"
   inkscape:connector-curvature="0" />
  <path
   style="fill:#72b3dc;stroke:#c2dffb;stroke-width:1"
   d="m 27.188,20.566 1.96,0.803 0.586,1.207 0.022,2.209 -1.279,1.23 -0.649,0.288 -0.753,1.137 -2.281,-2.445 0.442,-1.932 0.991,-0.929 0.56,-1.154 0.401,-0.414"
   id="21183"
   inkscape:label="Ohio, KY"
   inkscape:connector-curvature="0" />
  <path
   style="fill:#72b3dc;stroke:#c2dffb;stroke-width:1"
   d="m 22.171,18.939 0.361,0.252 1.473,0.982 0.753,-1.36 0.627,-0.587 -0.042,0.41 0.789,-0.013 0.618,0.64 0.432,0.6 0.006,0.703 -0.401,0.414 -0.56,1.154 -0.991,0.929 -3.88,-1.239 0.815,-2.885"
   id="21059"
   inkscape:label="Daviess, KY"
   inkscape:connector-curvature="0" />
  <path
   style="fill:#72b3dc;stroke:#c2dffb;stroke-width:1"
   d="m 21.356,21.824 3.88,1.239 -0.442,1.932 -1.956,0.502 -1.013,-2.241 -1.308,-0.892 0.839,-0.54"
   id="21149"
   inkscape:label="McLean, KY"
   inkscape:connector-curvature="0" />
  <path
   style="fill:#72b3dc;stroke:#c2dffb;stroke-width:1"
   d="m 21.825,23.256 1.013,2.241 -0.735,1.154 0.122,0.721 0.676,0.834 -0.166,0.365 -0.69,0.387 -1.164,0.451 -1.666,-0.429 -1.574,-2.486 1.799,-1.403 1.249,-0.653 1.136,-1.182"
   id="21107"
   inkscape:label="Hopkins, KY"
   inkscape:connector-curvature="0" />
  <path
   style="fill:#72b3dc;stroke:#c2dffb;stroke-width:1"
   d="m 22.735,28.571 0.85,1.031 -0.264,5.639 -3.119,0.325 -0.541,0.062 0.048,-1.104 -0.071,-3.191 -0.794,-0.396 0.371,-1.957 1.666,0.429 1.164,-0.451 0.69,-0.387"
   id="21047"
   inkscape:label="Christian, KY"
   inkscape:connector-curvature="0" />
  <path
   style="fill:#72b3dc;stroke:#c2dffb;stroke-width:1"
   d="m 18.844,30.937 0.794,0.396 0.071,3.191 -0.048,1.104 -1.627,0.19 0.004,-0.397 -1.676,-0.032 -0.601,0.036 -0.486,-0.856 -0.603,-1.519 2.758,-1.441 1.414,-0.672"
   id="21221"
   inkscape:label="Trigg, KY"
   inkscape:connector-curvature="0" />
  <path
   style="fill:#72b3dc;stroke:#c2dffb;stroke-width:1"
   d="m 14.004,29.458 0.951,-0.504 0.555,0.018 0.797,1.325 1.123,1.312 -2.758,1.441 -0.968,-1.415 0.3,-2.177"
   id="21143"
   inkscape:label="Lyon, KY"
   inkscape:connector-curvature="0" />
  <path
   style="fill:#72b3dc;stroke:#c2dffb;stroke-width:1"
   d="m 17.641,26.494 1.574,2.486 -0.371,1.957 -1.414,0.672 -1.123,-1.312 -0.797,-1.325 -0.555,-0.018 2.777,-2.84 -0.091,0.38"
   id="21033"
   inkscape:label="Caldwell, KY"
   inkscape:connector-curvature="0" />
  <path
   style="fill:#72b3dc;stroke:#c2dffb;stroke-width:1"
   d="m 20.517,22.364 1.308,0.892 -1.136,1.182 -1.249,0.653 -1.799,1.403 0.091,-0.38 -1.446,-1.191 1.829,-2.225 2.402,-0.334"
   id="21233"
   inkscape:label="Webster, KY"
   inkscape:connector-curvature="0" />
  <path
   style="fill:#72b3dc;stroke:#c2dffb;stroke-width:1"
   d="m 20.625,18.524 1.546,0.415 -0.815,2.885 -0.839,0.54 -2.402,0.334 -2.241,-3.249 2.286,-0.181 2.465,-0.744"
   id="21101"
   inkscape:label="Henderson, KY"
   inkscape:connector-curvature="0" />
  <path
   style="fill:#72b3dc;stroke:#c2dffb;stroke-width:1"
   d="m 14.973,20.868 0.901,-1.419 2.241,3.249 -1.829,2.225 -1.327,-0.22 -0.805,-0.834 -0.082,-0.148 -0.216,-0.586 -0.006,-0.014 -0.053,-0.292 -0.005,-0.014 0.014,-0.09 0.054,-0.144 0.013,-0.028 0.082,-0.139 0.163,-0.307 0.008,-0.005 0.469,-0.341 0.122,-0.132 0.076,-0.139 0.049,-0.131 0.131,-0.491"
   id="21225"
   inkscape:label="Union, KY"
   inkscape:connector-curvature="0" />
  <path
   style="fill:#72b3dc;stroke:#c2dffb;stroke-width:1"
   d="m 16.286,24.923 1.446,1.191 -2.777,2.84 -0.951,0.504 -1.951,-3.205 0.256,-0.341 0.172,-0.159 0.009,-0.004 0.049,-0.032 0.244,-0.148 0.022,-0.004 0.064,-0.019 0.175,-0.049 0.212,-0.045 1.407,-0.298 0.103,-0.023 0.193,-0.22 0,-0.208 1.327,0.22"
   id="21055"
   inkscape:label="Crittenden, KY"
   inkscape:connector-curvature="0" />
  <path
   style="fill:#72b3dc;stroke:#c2dffb;stroke-width:1"
   d="m 12.053,26.253 1.951,3.205 -0.3,2.177 -2.516,-0.329 -0.865,-0.643 0.743,0.079 0.076,-0.013 0.235,-0.104 0.121,-0.334 0.149,-0.716 -0.288,-0.64 -0.126,-0.121 -0.136,-0.077 -0.428,-0.514 -0.087,-0.279 0.006,-0.086 0,-0.005 0.289,-1.27 0.053,-0.127 0.131,-0.17 0.091,-0.064 0.072,-0.055 0.175,-0.08 0.063,-0.027 0.591,0.193"
   id="21139"
   inkscape:label="Livingston, KY"
   inkscape:connector-curvature="0" />
  <path
   style="fill:#72b3dc;stroke:#c2dffb;stroke-width:1"
   d="m 11.435,34.834 3.84,-0.265 0.486,0.856 0.37,2.33 -4.475,0.311 -0.221,-3.232"
   id="21035"
   inkscape:label="Calloway, KY"
   inkscape:connector-curvature="0" />
  <path
   style="fill:#72b3dc;stroke:#c2dffb;stroke-width:1"
   d="m 11.188,31.306 2.516,0.329 0.968,1.415 0.603,1.519 -3.84,0.265 -0.185,-2.487 -0.062,-1.041"
   id="21157"
   inkscape:label="Marshall, KY"
   inkscape:connector-curvature="0" />
  <path
   style="fill:#72b3dc;stroke:#c2dffb;stroke-width:1"
   d="m 11.25,32.347 0.185,2.487 0.221,3.232 -0.279,0.018 -3.079,0.222 -0.234,-3.508 -0.167,-2.243 3.353,-0.208"
   id="21083"
   inkscape:label="Graves, KY"
   inkscape:connector-curvature="0" />
  <path
   style="fill:#72b3dc;stroke:#c2dffb;stroke-width:1"
   d="m 6.451,29.017 3.872,1.646 0.865,0.643 0.062,1.041 -3.353,0.208 -0.036,-0.099 -1.465,-3.421 0.055,-0.018"
   id="21145"
   inkscape:label="McCracken, KY"
   inkscape:connector-curvature="0" />
  <path
   style="fill:#72b3dc;stroke:#c2dffb;stroke-width:1"
   d="m 7.897,32.555 0.167,2.243 -3.187,0.078 -0.59,-0.311 -0.005,-0.005 0,-0.297 0.005,-0.005 0.284,-0.162 0.006,-0.004 0.386,-1.289 2.898,-0.347 0.036,0.099"
   id="21039"
   inkscape:label="Carlisle, KY"
   inkscape:connector-curvature="0" />
  <path
   style="fill:#72b3dc;stroke:#c2dffb;stroke-width:1"
   d="M 6.396,29.035 7.861,32.456 4.963,32.803 4.598,32.333 4.117,31.252 6.396,29.035"
   id="21007"
   inkscape:label="Ballard, KY"
   inkscape:connector-curvature="0" />
  
  
  
  
  
  
  
  
  
  
  
  
  
  
  
  
  
  
  
  
  
  
  
  
  
  
  
  
  
  
  
  
  
  
  
  
  
  
  
  
  
  
  
  
  
  
  
  
  
  
  
  
  
  
  
  
  
  
  
  
  
  
  
  
  
  
  
  
  
  
  
  
  
  
  
  
  
  
  
  
  
  
  
  
  
  
  
  
  
  
  
  
  
  
  
  
  
  
  
  
  
  
  
  
  
  
  
  
  
  
  
  
  
  
  
  
  
  
  
  
  
  
  
  
  
  
  
  
  
  
  
  
  
  
  
  
  
  
  
  
  
  
  
  
  
  
  
  
  
  
  
  
  
  
  
  
  
  
  
  
  
  
  
  
  
  
  
  
  
  
  
  
  
  
  
  
  
  
  
  
  
  
  
  
  
  
  
  
  
  
  
  
  
  
  
  
  
  
  
  
  
  
  
  
  
  
  
  
  
  
  
  
  
  
  
  
  
  
  
  
  
  
  
  
  
  
  
  
  
  
  
  
  
  
  
  
  
  
  
  
  
  
  
  
  
  
  
  
  
  
  
  
  
  
  
  
  
  
  
  
  
  
  
  
  
  
  
  
  
  
  
  
  
  
  
  
  
  
  
  
  
  
  
  
  
  
  
  
  
  
  
  
  
  
  
  
  
  
  
  
  
  
  
  
  
  
  
  
  
  
  
  
  
  
  
  
  
  
  
  
  
  
  
  
  
  
  
  
  
  
  
  
  
  
  
  
  
  
  
  
  
  
  
  
  
  
  
  
  
  
  
  
  
  
  
  
  
  
  
  
  
  
  
  
  
  
  
  
  
  
  
  
  
  
  
  
  
  
  
  
  
  
  
  
  
  
  
  
  
  
  
  
  
  
  
  
  
  
  
  
  
  
  
  
  
  
  
  
  
  
  
  
  
  
  
  
  
  
  
  
  
  
  
  
  
  
  
  
  
  
  
  
  
  
  
  
  
  
  
  
  
  
  
  
  
  
  
  
  
  
  
  
  
  
  
  
  
  
  
  
  
  
  
  
  
  
  
  
  
  
  
  
  
  
  
  
  
  
  
  
  
  
  
  
  
  
  
  
  
  
  
  
  
  
  
  
  
  
  
  
  
  
  
  
  
  
  
  
  
  
  
  
  
  
  
  
  
  
  
  
  
  
  
  
  
  
  
  
  
  
  
  
  
  
  
  
  
  
  
  
  
  
  
  
  
  
  
  
  
  
  
  
  
  
  
  
  
  
  
  
  
  
  
  
  
  
  
  
  
  
  
  
  
  
  
  
  
  
  
  
  
  
  
  
  
  
  
  
  
  
  
  
  
  
  
  
  
  
  
  
  
  
  
  
  
  
  
  
  
  
  
  
  
  
  
  
  
  
  
  
  
  
  
  
  
  
  
  
  
  
  
  
  
  
  
  
  
  
  
  
  
  
  
  
  
  
  
  
  
  
  
  
  
  
  
  
  
  
  
  
  
  
  
  
  
  
  
  
  
  
  
  
  
  
  
  
  
  
  
  
  
  
  
  
  
  
  
  
  
  
  
  
  
  
  
  
  
  
  
  
  
  
  
  
  
  
  
  
  
  
  
  
  
  
  
  
  
  
  
  
  
  
  
  
  
  
  
  
  
  
  
  
  
  
  
  
  
  
  
  
  
  
  
  
  
  
  
  
  
  
  
  
  
  
  
  
  
  
  
  
  
  
  
  
  
  
  
  
  
  
  
  
  
  
  
  
  
  
  
  
  
  
  
  
  
  
  
  
  
  
  
  
  
  
  
  
  
  
  
  
  
  
  
  
  
  
  
  
  
  
  
  
  
  
  
  
  
  
  
  
  
  
  
  
  
  
  
  
  
  
  
  
  
  
  
  
  
  
  
  
  
  
  
  
  
  
  
  
  
  
  
  
  
  
  
  
  
  
  
  
  
  
  
  
  
  
  
  
  
  
  
  
  
  
  
  
  
  
  
  
  
  
  
  
  
  
  
  
  
  
  
  
  
  
  
  
  
  
  
  
  
  
  
  
  
  
  
  
  
  
  
  
  
  
  
  
  
  
  
  
  
  
  
  
  
  
  
  
  
  
  
  
  
  
  
  
  
  
  
  
  
  
  
  
  
  
  
  
  
  
  
  
  
  
  
  
  
  
  
  
  
  
  
  
  
  
  
  
  
  
  
  
  
  
  
  
  
  
  
  
  
  
  
  
  
  
  
  
  
  
  
  
  
  
  
  
  
  
  
  
  
  
  
  
  
  
  
  
  
  
  
  
  
  
  
  
  
  
  
  
  
  
  
  
  
  
  
  
  
  
  
  
  
  
  
  
  
  
  
  
  
  
  
  
  
  
  
  
  
  
  
  
  
  
  
  
  
  
  
  
  
  
  
  
  
  
  
  
  
  
  
  
  
  
  
  
  
  
  
  
  
  
  
  
  
  
  
  
  
  
  
  
  
  
  
  
  
  
  
  
  
  
  
  
  
  
  
  
  
  
  
  
  
  
  
  
  
  
  
  
  
  
  
  
  
  
  
  
  
  
  
  
  
  
  
  
  
  
  
  
  
  
  
  
  
  
  
  
  
  
  
  
  
  
  
  
  
  
  
  
  
  
  
  
  
  
  
  
  
  
  
  
  
  
  
  
  
  
  
  
  
  
  
  
  
  
  
  
  
  
  
  
  
  
  
  
  
  
  
  
  
  
  
  
  
  
  
  
  
  
  
  
  
  
  
  
  
  
  
  
  
  
  
  
  
  
  
  
  
  
  
  
  
  
  
  
  
  
  
  
  
  
  
  
  
  
  
  
  
  
  
  
  
  
  
  
  
  
  
  
  
  
  
  
  
  
  
  
  
  
  
  
  
  
  
  
  
  
  
  
  
  
  
  
  
  
  
  
  
  
  
  
  
  
  
  
  
  
  
  
  
  
  
  
  
  
  
  
  
  
  
  
  
  
  
  
  
  
  
  
  
  
  
  
  
  
  
  
  
  
  
  
  
  
  
  
  
  
  
  
  
  
  
  
  
  
  
  
  
  
  
  
  
  
  
  
  
  
  
  
  
  
  
  
  
  
  
  
  
  
  
  
  
  
  
  
  
  
  
  
  
  
  
  
  
  
  
  
  
  
  
  
  
  
  
  
  
  
  
  
  
  
  
  
  
  
  
  
  
  
  
  
  
  
  
  
  
  
  
  
  
  
  
  
  
  
  
  
  
  
  
  
  
  
  
  
  
  
  
  
  
  
  
  
  
  
  
  
  
  
  
  
  
  
  
  
  
  
  
  
  
  
  
  
  
  
  
  
  
  
  
  
  
  
  
  
  
  
  
  
  
  
  
  
  
  
  
  
  
  
  
  
  
  
  
  
  
  
  
  
  
  
  
  
  
  
  
  
  
  
  
  
  
  
  
  
  
  
  
  
  
  
  
  
  
  
  
  
  
  
  
  
  
  
  
  
  
  
  
  
  
  
  
  
  
  
  
  
  
  
  
  
  
  
  
  
  
  
  
  
  
  
  
  
  
  
  
  
  
  
  
  
  
  
  
  
  
  
  
  
  
  
  
  
  
  
  
  
  
  
  
  
  
  
  
  
  
  
  
  
  
  
  
  
  
  
  
  
  
  
  
  
  
  
  
  
  
  
  
  
  
  
  
  
  
  
  
  
  
  
  
  
  
  
  
  
  
  
  
  
  
  
  
  
  
  
  
  
  
  
  
  
  
  
  
  
  
  
  
  
  
  
  
  
  
  
  
  
  
  
  
  
  
  
  
  
  
  
  
  
  
  
  
  
  
  
  
  
  
  
  
  
  
  
  
  
  
  
  
  
  
  
  
  
  
  
  
  
  
  
  
  
  
  
  
  
  
  
  
  
  
  
  
  
  
  
  
  
  
  
  
  
  
  
  
  
  
  
  
  
  
  
  
  
  
  
  
  
  
  
  
  
  
  
  
  
  
  
  
  
  
  
  
  
  
  
  
  
  
  
  
  
  
  
  
  
  
  
  
  
  
  
  
  
  
  
  
  
  
  
  
  
  
  
  
  
  
  
  
  
  
  
  
  
  
  
  
  
  
  
  
  
  
  
  
  
  
  
  
  
  
  
  
  
  
  
  
  
  
  
  
  
  
  
  
  
  
  
  
  
  
  
  
  
  
  
  
  
  
  
  
  
  
  
  
  
  
  
  
  
  
  
  
  
  
  
  
  
  
  
  
  
  
  
  
  
  
  
  
  
  
  
  
  
  
  
  
  
  
  
  
  
  
  
  
  
  
  
  
  
  
  
  
  
  
  
  
  
  
  
  
  
  
  
  
  
  
  
  
  
  
  
  
  
  
  
  
  
  
  
  
  
  
  
  
  
  
  
  
  
  
  
  
  
  
  
  
  
  
  
  
  
  
  
  
  
  
  
  
  
  
  
  
  
  
  
  
  
  
  
  
  
  
  
  
  
  
  
  
  
  
  
  
  
  
  
  
  
  
  
  
  
  
  
  
  
  
  
  
  
  
  
  
  
  
  
  
  
  
  
  
  
  
  
  
  
  
  
  
  
  
  
  
  
  
  
  
  
  
  
  
  
  
</svg>