<?xml version="1.0" encoding="UTF-8" standalone="no"?>
<!--?xml version="1.0" encoding="UTF-8" standalone="no"?-->

<svg
   xmlns:dc="http://purl.org/dc/elements/1.1/"
   xmlns:cc="http://creativecommons.org/ns#"
   xmlns:rdf="http://www.w3.org/1999/02/22-rdf-syntax-ns#"
   xmlns:svg="http://www.w3.org/2000/svg"
   xmlns="http://www.w3.org/2000/svg"
   xmlns:sodipodi="http://sodipodi.sourceforge.net/DTD/sodipodi-0.dtd"
   xmlns:inkscape="http://www.inkscape.org/namespaces/inkscape"
   width="63.696373"
   height="56.0728"
   viewBox="0 0 58.879 51.220346"
   preserveAspectRatio="xMinYMin meet"
   xml:space="preserve"
   id="svg1257"
   version="1.1"
   inkscape:version="0.48.2 r9819"
   sodipodi:docname="LA.svg"><metadata
   id="metadata1327"><rdf:RDF><cc:Work
       rdf:about=""><dc:format>image/svg+xml</dc:format><dc:type
         rdf:resource="http://purl.org/dc/dcmitype/StillImage" /></cc:Work></rdf:RDF></metadata><defs
   id="defs1325" /><sodipodi:namedview
   pagecolor="#ffffff"
   bordercolor="#666666"
   borderopacity="1"
   objecttolerance="10"
   gridtolerance="10"
   guidetolerance="10"
   inkscape:pageopacity="0"
   inkscape:pageshadow="2"
   inkscape:window-width="640"
   inkscape:window-height="480"
   id="namedview1323"
   showgrid="false"
   inkscape:zoom="0.56730769"
   inkscape:cx="-42.263369"
   inkscape:cy="105.69374"
   inkscape:window-x="0"
   inkscape:window-y="0"
   inkscape:window-maximized="0"
   inkscape:current-layer="svg1257" />
  
  
  
  
  
  
  
  
  
  
  
  
  
  
  
  
  
  
  
  
  
  
  
  
  
  
  
  
  
  
  
  
  
  
  
  
  
  
  
  
  
  
  
  
  
  
  
  
  
  
  
  
  
  
  
  
  
  
  
  
  
  
  
  
  
  
  
  
  
  
  
  
  
  
  
  
  
  
  
  
  
  
  
  
  
  
  
  
  
  
  
  
  
  
  
  
  
  
  
  
  
  
  
  
  
  
  
  
  
  
  
  
  
  
  
  
  
  
  
  
  
  
  
  
  
  
  
  
  
  
  
  
  
  
  
  
  
  
  
  
  
  
  
  
  
  
  
  
  
  
  
  
  
  
  
  
  
  
  
  
  
  
  
  
  
  
  
  
  
  
  
  
  
  
  
  
  
  
  
  
  
  
  
  
  
  
  
  
  
  
  
  
  
  
  
  
  
  
  
  
  
  
  
  
  
  
  
  
  
  
  
  
  
  
  
  
  
  
  
  
  
  
  
  
  
  
  
  
  
  
  
  
  
  
  
  
  
  
  
  
  
  
  
  
  
  
  
  
  
  
  
  
  
  
  
  
  
  
  
  
  
  
  
  
  
  
  
  
  
  
  
  
  
  
  
  
  
  
  
  
  
  
  
  
  
  
  
  
  
  
  
  
  
  
  
  
  
  
  
  
  
  
  
  
  
  
  
  
  
  
  
  
  
  
  
  
  
  
  
  
  
  
  
  
  
  
  
  
  
  
  
  
  
  
  
  
  
  
  
  
  
  
  
  
  
  
  
  
  
  
  
  
  
  
  
  
  
  
  
  
  
  
  
  
  
  
  
  
  
  
  
  
  
  
  
  
  
  
  
  
  
  
  
  
  
  
  
  
  
  
  
  
  
  
  
  
  
  
  
  
  
  
  
  
  
  
  
  
  
  
  
  
  
  
  
  
  
  
  
  
  
  
  
  
  
  
  
  
  
  
  
  
  
  
  
  
  
  
  
  
  
  
  
  
  
  
  
  
  
  
  
  
  
  
  
  
  
  
  
  
  
  
  
  
  
  
  
  
  
  
  
  
  
  
  
  
  
  
  
  
  
  
  
  
  
  
  
  
  
  
  
  
  
  
  
  
  
  
  
  
  
  
  
  
  
  
  
  
  
  
  
  
  
  
  
  
  
  
  
  
  
  
  
  
  
  
  
  
  
  
  
  
  
  
  
  
  
  
  
  
  
  
  
  
  
  
  
  
  
  
  
  
  
  
  
  
  
  
  
  
  
  
  
  
  
  
  
  
  
  
  
  
  
  
  
  
  
  
  
  
  
  
  
  
  
  
  
  
  
  
  
  
  
  
  
  
  
  
  
  
  
  
  
  
  
  
  
  
  
  
  
  
  
  
  
  
  
  
  
  
  
  
  
  
  
  
  
  
  
  
  
  
  
  
  
  
  
  
  
  
  
  
  
  
  
  
  
  
  
  
  
  
  
  
  
  
  
  
  
  
  
  
  
  
  
  
  
  
  
  
  
  
  
  
  
  
  
  
  
  
  
  
  
  
  
  
  
  
  
  
  
  
  
  
  
  
  
  
  
  
  
  
  
  
  
  
  
  
  
  
  
  
  
  
  
  
  
  
  
  
  
  
  
  
  
  
  
  
  
  
  
  
  
  
  
  
  
  
  
  
  
  
  
  
  
  
  
  
  
  
  
  
  
  
  
  
  
  
  
  
  
  
  
  
  
  
  
  
  
  
  
  
  
  
  
  
  
  
  
  
  
  
  
  
  
  
  
  
  
  
  
  
  
  
  
  
  
  
  
  
  
  
  
  
  
  
  
  
  
  
  
  
  
  
  
  
  
  
  
  
  
  
  
  
  
  
  
  
  
  
  
  
  
  
  
  
  
  
  
  
  
  
  
  
  
  
  
  
  
  
  
  
  
  
  
  
  
  
  
  
  
  
  
  
  
  
  
  
  
  
  
  
  
  
  
  
  
  
  
  
  
  
  
  
  
  
  
  
  
  
  
  
  
  
  
  
  
  
  
  
  
  
  
  
  
  
  
  
  
  
  
  
  
  
  
  
  
  
  
  
  
  
  
  
  
  
  
  
  
  
  
  
  
  
  
  
  
  
  
  
  
  
  
  
  
  
  
  
  
  
  
  
  
  
  
  
  
  
  
  
  
  
  
  
  
  
  
  
  
  
  
  
  
  
  
  
  
  
  
  
  
  
  
  
  
  
  
  
  
  
  
  
  
  
  
  
  
  
  
  
  
  
  
  
  
  
  
  
  
  
  
  
  
  
  
  
  
  
  
  
  
  
  
  
  
  
  
  
  
  
  
  
  
  
  
  
  
  
  
  
  
  
  
  
  
  
  
  
  
  
  
  
  
  
  
  
  
  
  
  
  
  
  
  
  
  
  
  
  
  
  
  
  
  
  
  
  
  
  
  
  
  
  
  
  
  
  
  
  
  
  
  
  
  
  
  
  
  
  
  
  
  
  
  
  
  
  
  
  
  
  <path
   style="fill:#72b3dc;stroke:#c2dffb;stroke-width:1"
   d="m 43.051,29.512 4.61,0.307 1.852,2.551 0.019,0.017 0.072,0.073 0.69,1.402 0.017,0.239 -0.103,0.261 -0.028,0.108 0.009,0.069 0.353,0.67 0.108,0.208 0.242,0.283 0.082,0.095 0.028,0.018 0.04,0.027 0.027,0.019 0.021,-0.005 0.515,-0.031 -1.072,0.44 -0.072,-0.045 -0.619,-0.202 -2.175,-0.172 -0.258,0.1 -1.045,0.627 -1.236,-0.469 -1.554,-0.324 -0.523,-6.266"
   id="22103"
   inkscape:label="St. Tammany, LA"
   inkscape:connector-curvature="0" />
  <path
   style="fill:#72b3dc;stroke:#c2dffb;stroke-width:1"
   d="m 47.454,25.493 1.185,-0.081 0.023,0.4 -0.136,0.681 -0.111,0.248 -0.069,0.009 -0.09,0.013 -0.026,0.028 -0.145,0.603 -0.167,0.824 -0.134,0.68 -0.123,0.921 -4.61,-0.307 -0.005,-0.23 -0.802,-1.91 -0.347,-0.289 -0.081,-1.221 0.969,-0.059 4.669,-0.31"
   id="22117"
   inkscape:label="Washington, LA"
   inkscape:connector-curvature="0" />
  <path
   style="fill:#72b3dc;stroke:#c2dffb;stroke-width:1"
   d="m 6.926,11.38 0.469,0.005 2.642,1.054 0.13,0.127 0.265,0.4 0.208,0.65 0.005,0.058 -0.059,0.748 -1.014,1.2 -0.455,0.206 -0.438,0 L 8.36,15.715 8.3,15.288 7.318,14.563 7.201,14.419 6.511,13.345 6.092,11.962 5.368,11.417 6.926,11.38"
   id="22081"
   inkscape:label="Red River, LA"
   inkscape:connector-curvature="0" />
  <path
   style="fill:#72b3dc;stroke:#c2dffb;stroke-width:1"
   d="m 13.196,6.693 1.181,1.664 -0.275,3.974 -1.349,0.032 -2.716,0.076 L 7.395,11.385 7.936,9.118 9.41,9.073 10.366,8.464 10.351,8.144 9.973,6.796 13.196,6.693"
   id="22013"
   inkscape:label="Bienville, LA"
   inkscape:connector-curvature="0" />
  <path
   style="fill:#72b3dc;stroke:#c2dffb;stroke-width:1"
   d="m 14.8,4.38 0.892,-0.026 0.464,0.054 0.352,0.077 1.686,0.933 0.045,1.127 0.036,1.125 -2.24,0.079 0.027,0.557 L 14.377,8.357 13.196,6.693 14.8,4.38"
   id="22061"
   inkscape:label="Lincoln, LA"
   inkscape:connector-curvature="0" />
  <path
   style="fill:#72b3dc;stroke:#c2dffb;stroke-width:1"
   d="m 14.377,8.357 1.685,-0.051 -0.027,-0.557 2.24,-0.079 0.041,1.038 0.063,0.158 1.108,1.023 0.018,0.558 0.063,1.699 -5.466,0.185 0.275,-3.974"
   id="22049"
   inkscape:label="Jackson, LA"
   inkscape:connector-curvature="0" />
  <path
   style="fill:#72b3dc;stroke:#c2dffb;stroke-width:1"
   d="m 14.102,12.331 5.466,-0.185 0.109,2.821 -0.482,1.713 -2.804,0.095 0.014,0.609 -0.041,0.523 -3.808,0.139 0.676,-2.105 0.198,-0.905 0.019,-0.158 -0.072,-0.956 -0.231,-0.833 -0.393,-0.726 1.349,-0.032"
   id="22127"
   inkscape:label="Winn, LA"
   inkscape:connector-curvature="0" />
  <path
   style="fill:#72b3dc;stroke:#c2dffb;stroke-width:1"
   d="m 19.505,10.447 3.016,-0.116 1.586,1.559 0.239,0.32 0.059,0.108 0.027,0.334 -0.572,0.351 0.257,0.91 0.147,0.298 -1.238,0.626 -3.349,0.13 -0.109,-2.821 -0.063,-1.699"
   id="22021"
   inkscape:label="Caldwell, LA"
   inkscape:connector-curvature="0" />
  <path
   style="fill:#72b3dc;stroke:#c2dffb;stroke-width:1"
   d="m 21.949,4.584 1.762,2.736 -1.19,3.011 -3.016,0.116 L 19.487,9.889 18.379,8.866 18.316,8.708 18.275,7.67 18.239,6.545 19.903,6.491 20.2,6.4 20.312,6.323 21.727,4.939 21.949,4.584"
   id="22073"
   inkscape:label="Ouachita, LA"
   inkscape:connector-curvature="0" />
  <path
   style="fill:#72b3dc;stroke:#c2dffb;stroke-width:1"
   d="m 28.731,6.108 -0.106,0.576 -0.128,1.713 -1.685,0.09 -0.406,0.238 -0.943,1.123 -0.49,1.131 -0.866,0.911 -1.586,-1.559 1.19,-3.011 0.396,-0.36 0.757,-0.538 0.73,-0.247 0.668,-0.335 0.103,-0.112 0.149,-0.27 0.099,-0.306 -0.013,-0.05 0.45,0.145 0.473,0.91 1.208,-0.049"
   id="22083"
   inkscape:label="Richland, LA"
   inkscape:connector-curvature="0" />
  <path
   style="fill:#72b3dc;stroke:#c2dffb;stroke-width:1"
   d="m 28.448,11.019 -0.708,4.188 -0.266,-0.735 -0.55,-0.261 -0.017,0.108 -0.197,0.334 -0.399,0.441 -0.278,0.203 -0.52,0.144 -0.162,-0.207 -0.261,-0.401 -0.392,-0.397 -0.276,-0.176 -0.158,-0.049 -0.147,-0.298 -0.257,-0.91 0.572,-0.351 -0.027,-0.334 -0.059,-0.108 -0.239,-0.32 0.866,-0.911 0.49,-1.131 0.943,-1.123 0.406,-0.238 1.685,-0.09 -0.049,2.622"
   id="22041"
   inkscape:label="Franklin, LA"
   inkscape:connector-curvature="0" />
  <path
   style="fill:#72b3dc;stroke:#c2dffb;stroke-width:1"
   d="m 28.448,11.019 1.87,-0.076 0.054,-0.103 0.189,-0.135 1.203,-0.388 0.491,-0.082 0.064,0 0.141,0.117 0.003,0.28 0,0.012 1.1,1.285 -2.24,3.269 -1.248,1.65 -0.108,0.194 -1.817,-0.172 -0.41,-1.663 0.708,-4.188"
   id="22107"
   inkscape:label="Tensas, LA"
   inkscape:connector-curvature="0" />
  <path
   style="fill:#72b3dc;stroke:#c2dffb;stroke-width:1"
   d="m 32.581,6.161 -0.245,0.825 0.019,0.207 0,0.014 0.031,0.045 0.046,0.072 0.009,0.023 1.203,1.28 0.076,1.861 -1.257,0.156 0,-0.012 -0.003,-0.28 -0.141,-0.117 -0.064,0 -0.491,0.082 -1.203,0.388 -0.189,0.135 -0.054,0.103 -1.87,0.076 0.049,-2.622 0.128,-1.713 3.956,-0.523"
   id="22065"
   inkscape:label="Madison, LA"
   inkscape:connector-curvature="0" />
  <path
   style="fill:#72b3dc;stroke:#c2dffb;stroke-width:1"
   d="m 31.471,0.5 -0.355,0.573 -0.113,0.41 0.018,0.104 0.865,3.92 0.064,0.154 0.012,0.022 0.034,0.04 0.012,0.024 0.023,0.018 0.103,0.09 0.027,0.023 0.343,0.107 0.077,0.176 L 28.625,6.684 28.731,6.108 29.039,5.814 29.142,5.5 29.466,4.255 29.632,2.826 29.682,2.447 30.075,1.293 30.408,0.541 31.471,0.5"
   id="22035"
   inkscape:label="East Carroll, LA"
   inkscape:connector-curvature="0" />
  <path
   style="fill:#72b3dc;stroke:#c2dffb;stroke-width:1"
   d="M 30.408,0.541 30.075,1.293 29.682,2.447 29.632,2.826 29.466,4.255 29.142,5.5 29.039,5.814 28.731,6.108 27.523,6.157 27.05,5.247 26.6,5.102 26.996,3.989 28.505,0.893 28.569,0.616 30.408,0.541"
   id="22123"
   inkscape:label="West Carroll, LA"
   inkscape:connector-curvature="0" />
  <path
   style="fill:#72b3dc;stroke:#c2dffb;stroke-width:1"
   d="M 28.303,0.631 28.569,0.616 28.505,0.893 26.996,3.989 26.6,5.102 26.613,5.152 26.514,5.458 26.365,5.728 26.262,5.84 25.594,6.175 24.864,6.422 24.107,6.96 23.711,7.32 21.949,4.584 21.998,4.544 22.079,4.368 22.047,3.687 21.656,2.578 21.754,0.897 28.303,0.631"
   id="22067"
   inkscape:label="Morehouse, LA"
   inkscape:connector-curvature="0" />
  <path
   style="fill:#72b3dc;stroke:#c2dffb;stroke-width:1"
   d="m 21.754,0.897 -0.098,1.681 0.391,1.109 0.032,0.681 -0.081,0.176 -0.049,0.04 L 21.727,4.939 20.312,6.323 20.2,6.4 19.903,6.491 18.239,6.545 18.194,5.418 16.508,4.485 16.156,4.408 15.692,4.354 14.8,4.38 14.691,1.087 21.754,0.897"
   id="22111"
   inkscape:label="Union, LA"
   inkscape:connector-curvature="0" />
  <path
   style="fill:#72b3dc;stroke:#c2dffb;stroke-width:1"
   d="M 11.852,1.14 14.691,1.087 14.8,4.38 13.196,6.693 9.973,6.796 10,6.161 9.837,5.093 9.289,5.116 9.162,1.213 11.852,1.14"
   id="22027"
   inkscape:label="Claiborne, LA"
   inkscape:connector-curvature="0" />
  <path
   style="fill:#72b3dc;stroke:#c2dffb;stroke-width:1"
   d="M 6.449,1.285 9.162,1.213 9.289,5.116 9.837,5.093 10,6.161 9.973,6.796 10.351,8.144 10.366,8.464 9.41,9.073 7.936,9.118 7.192,9.131 7.101,8.001 7.03,4.597 6.917,3.196 6.61,2.876 6.232,2.312 6.03,1.952 6.03,1.758 6.119,1.289 6.449,1.285"
   id="22119"
   inkscape:label="Webster, LA"
   inkscape:connector-curvature="0" />
  <path
   style="fill:#72b3dc;stroke:#c2dffb;stroke-width:1"
   d="M 6.119,1.289 6.03,1.758 6.03,1.952 6.232,2.312 6.61,2.876 6.917,3.196 7.03,4.597 7.101,8.001 7.192,9.131 7.936,9.118 7.395,11.385 6.926,11.38 5.966,10.132 4.758,9.488 3.402,5.323 3.289,4.714 2.825,1.505 2.843,1.456 2.96,1.357 l 0.104,0 3.055,-0.068"
   id="22015"
   inkscape:label="Bossier, LA"
   inkscape:connector-curvature="0" />
  <path
   style="fill:#72b3dc;stroke:#c2dffb;stroke-width:1"
   d="M 2.96,1.357 2.843,1.456 2.825,1.505 3.289,4.714 3.402,5.323 4.758,9.488 5.966,10.132 6.926,11.38 5.368,11.417 5.358,10.993 5.254,10.836 5.002,10.565 4.776,10.398 3.888,10.1 3.699,10.06 l -0.206,0.045 -0.159,0.1 -0.058,0.048 -0.542,0.64 -0.03,0.19 L 2.726,11.16 2.69,11.272 2.307,11.625 1.72,12.043 0.725,12.061 0.585,5.634 0.54,3.2 0.5,1.411 2.96,1.357"
   id="22017"
   inkscape:label="Caddo, LA"
   inkscape:connector-curvature="0" />
  <path
   style="fill:#72b3dc;stroke:#c2dffb;stroke-width:1"
   d="m 5.368,11.417 0.724,0.545 0.419,1.383 0.69,1.074 0.117,0.144 L 8.3,15.288 7.39,16.437 2.613,16.564 1.076,14.847 0.725,12.061 1.72,12.043 2.307,11.625 2.69,11.272 2.726,11.16 2.704,11.083 l 0.03,-0.19 0.542,-0.64 0.058,-0.048 0.159,-0.1 0.206,-0.045 0.189,0.04 0.888,0.298 0.226,0.167 0.252,0.271 0.104,0.157 0.01,0.424"
   id="22031"
   inkscape:label="De Soto, LA"
   inkscape:connector-curvature="0" />
  <path
   style="fill:#72b3dc;stroke:#c2dffb;stroke-width:1"
   d="M 2.613,16.564 7.39,16.437 7.426,18.123 8.553,18.096 8.635,20.368 9.739,20.336 9.811,22.581 8.112,22.629 6.544,23.856 6.417,24.257 6.363,24.961 6.39,24.983 5.877,25.118 5.763,24.451 5.687,24.028 5.358,22.594 4.348,21.129 3.163,19.884 2.613,16.564"
   id="22085"
   inkscape:label="Sabine, LA"
   inkscape:connector-curvature="0" />
  <path
   style="fill:#72b3dc;stroke:#c2dffb;stroke-width:1"
   d="m 10.037,12.439 2.716,-0.076 0.393,0.726 0.231,0.833 0.072,0.956 -0.019,0.158 -0.198,0.905 -0.676,2.105 2.866,2.375 -2.808,2.304 L 9.811,22.581 9.739,20.336 8.635,20.368 8.553,18.096 7.426,18.123 7.39,16.437 8.3,15.288 l 0.06,0.427 0.319,0.113 0.438,0 0.455,-0.206 1.014,-1.2 0.059,-0.748 -0.005,-0.058 -0.208,-0.65 -0.265,-0.4 -0.13,-0.127"
   id="22069"
   inkscape:label="Natchitoches, LA"
   inkscape:connector-curvature="0" />
  <path
   style="fill:#72b3dc;stroke:#c2dffb;stroke-width:1"
   d="m 12.556,18.046 3.808,-0.139 0.041,-0.523 -0.014,-0.609 2.804,-0.095 0.126,1.633 0.36,0.995 0.519,0.722 0.501,0.55 0.476,0.138 -1.167,0.299 -3.574,1.014 -0.293,0.04 -0.334,-0.117 -0.075,-0.054 -0.149,-0.664 -0.163,-0.815 -2.866,-2.375"
   id="22043"
   inkscape:label="Grant, LA"
   inkscape:connector-curvature="0" />
  <path
   style="fill:#72b3dc;stroke:#c2dffb;stroke-width:1"
   d="m 19.677,14.967 3.349,-0.13 0.298,7.762 -0.871,-0.09 -1.276,-1.791 -0.476,-0.138 -0.501,-0.55 -0.519,-0.722 -0.36,-0.995 -0.126,-1.633 0.482,-1.713"
   id="22059"
   inkscape:label="La Salle, LA"
   inkscape:connector-curvature="0" />
  <path
   style="fill:#72b3dc;stroke:#c2dffb;stroke-width:1"
   d="m 23.026,14.837 1.238,-0.626 0.158,0.049 0.276,0.176 0.392,0.397 0.261,0.401 0.162,0.207 0.52,-0.144 0.278,-0.203 0.399,-0.441 0.197,-0.334 0.017,-0.108 0.55,0.261 0.266,0.735 0.41,1.663 -1.511,0.189 -0.089,0.081 -1.18,1.42 -0.073,0.126 -0.41,1.664 -0.059,0.368 0.05,1.957 0.037,0.118 0.35,0.491 -0.612,-0.302 -0.226,-0.056 -0.193,0.034 -0.127,0.13 -0.076,0.198 0.107,0.261 0.132,0.159 0.036,0.086 -0.212,0.126 -0.523,-0.033 -0.05,-0.053 -0.197,-0.803 0,-0.432 -0.298,-7.762"
   id="22025"
   inkscape:label="Catahoula, LA"
   inkscape:connector-curvature="0" />
  <path
   style="fill:#72b3dc;stroke:#c2dffb;stroke-width:1"
   d="m 28.15,16.87 1.817,0.172 -0.173,0.296 -0.008,0.01 -1.176,2.362 -0.027,0.053 -0.041,0.087 -0.004,0.009 -0.41,3.361 -0.266,1.389 -0.267,2.015 -0.265,0.387 0.032,-0.311 -0.753,-0.609 0.081,-0.194 0.054,-0.188 0.294,-1.493 -0.127,-0.152 -0.201,-0.104 -0.056,0.014 -0.37,-0.051 -0.522,-0.139 -0.249,-0.157 -0.248,-0.343 -0.35,-0.491 -0.037,-0.118 -0.05,-1.957 0.059,-0.368 0.41,-1.664 0.073,-0.126 1.18,-1.42 0.089,-0.081 1.511,-0.189"
   id="22029"
   inkscape:label="Concordia, LA"
   inkscape:connector-curvature="0" />
  <path
   style="fill:#72b3dc;stroke:#c2dffb;stroke-width:1"
   d="m 22.453,22.509 0.871,0.09 0,0.432 0.197,0.803 0.05,0.053 0.523,0.033 0.212,-0.126 -0.036,-0.086 -0.132,-0.159 -0.107,-0.261 0.076,-0.198 0.127,-0.13 0.193,-0.034 0.226,0.056 0.612,0.302 0.248,0.343 0.249,0.157 0.522,0.139 0.37,0.051 0.056,-0.014 0.201,0.104 0.127,0.152 -0.294,1.493 -0.054,0.188 -0.081,0.194 -0.274,0.343 -0.624,2.231 -4.394,0.176 -0.807,-1.469 0.695,-0.369 -0.266,-1.799 -0.091,-2.461 0.1,-0.086 0.076,-0.031 0.046,0.008 0.684,0.321 0.699,-0.446"
   id="22009"
   inkscape:label="Avoyelles, LA"
   inkscape:connector-curvature="0" />
  <path
   style="fill:#72b3dc;stroke:#c2dffb;stroke-width:1"
   d="m 15.422,20.421 0.163,0.815 0.149,0.664 0.075,0.054 0.334,0.117 0.293,-0.04 3.574,-1.014 1.167,-0.299 1.276,1.791 -0.699,0.446 -0.684,-0.321 -0.046,-0.008 -0.076,0.031 -0.1,0.086 0.091,2.461 0.266,1.799 -0.695,0.369 -1.117,-0.423 -2.353,1.441 -2.492,0.166 -0.099,-1.562 -0.126,-3.107 -0.577,-0.82 -0.19,-0.09 -0.942,-0.252 2.808,-2.304"
   id="22079"
   inkscape:label="Rapides, LA"
   inkscape:connector-curvature="0" />
  <path
   style="fill:#72b3dc;stroke:#c2dffb;stroke-width:1"
   d="m 9.811,22.581 2.803,0.144 0.942,0.252 0.19,0.09 0.577,0.82 0.126,3.107 0.099,1.562 -1.709,0.208 L 11.123,28.76 7.945,28.845 6.431,29.071 6.39,24.983 6.363,24.961 6.417,24.257 6.544,23.856 8.112,22.629 9.811,22.581"
   id="22115"
   inkscape:label="Vernon, LA"
   inkscape:connector-curvature="0" />
  <path
   style="fill:#72b3dc;stroke:#c2dffb;stroke-width:1"
   d="m 17.04,28.39 2.353,-1.441 1.117,0.423 0.807,1.469 0.491,1.023 0.028,0.703 0.013,0.496 -0.46,1.393 -0.464,0.401 -1.695,0.063 -0.369,0.068 -0.116,0.131 -0.353,0.585 -1.541,0.046 0.019,-0.086 0.071,-0.073 0.099,-0.175 0.321,-0.78 -0.024,-0.059 -0.148,-0.135 -0.095,-2.353 -0.018,-0.481 -0.036,-1.218"
   id="22039"
   inkscape:label="Evangeline, LA"
   inkscape:connector-curvature="0" />
  <path
   style="fill:#72b3dc;stroke:#c2dffb;stroke-width:1"
   d="m 14.548,28.556 2.492,-0.166 0.036,1.218 0.018,0.481 0.095,2.353 0.148,0.135 0.024,0.059 -0.321,0.78 -0.099,0.175 -0.071,0.073 -1.597,0.049 -0.883,0.464 -1.767,0.271 -1.293,0.224 -0.059,-2.244 0.924,-0.037 0.753,-0.021 -0.054,-2.596 -0.055,-1.01 1.709,-0.208"
   id="22003"
   inkscape:label="Allen, LA"
   inkscape:connector-curvature="0" />
  <path
   style="fill:#72b3dc;stroke:#c2dffb;stroke-width:1"
   d="m 12.839,28.764 0.055,1.01 0.054,2.596 -0.753,0.021 -0.924,0.037 0.059,2.244 0.009,0.267 L 8.512,35.024 8.485,33.897 7.359,33.924 7.39,35.056 4.538,35.132 4.55,35.12 4.975,34.763 5.02,34.651 5.024,34.584 4.867,33.78 4.556,33.405 4.524,33.371 l 0,-0.005 0.126,-0.451 1.582,-2.979 0.199,-0.865 1.514,-0.226 3.178,-0.085 1.716,0.004"
   id="22011"
   inkscape:label="Beauregard, LA"
   inkscape:connector-curvature="0" />
  <path
   style="fill:#72b3dc;stroke:#c2dffb;stroke-width:1"
   d="m 16.851,33.75 0.252,5.003 -1.239,0.751 -2.88,0.082 -0.014,-0.568 1.19,-0.068 -0.199,-0.572 -0.274,-0.333 -1.177,-1.308 -1.162,-1.501 -0.009,-0.297 -0.009,-0.267 1.293,-0.224 1.767,-0.271 0.883,-0.464 1.597,-0.049 -0.019,0.086"
   id="22053"
   inkscape:label="Jefferson Davis, LA"
   inkscape:connector-curvature="0" />
  <path
   style="fill:#72b3dc;stroke:#c2dffb;stroke-width:1"
   d="m 11.339,34.939 0.009,0.297 1.162,1.501 1.177,1.308 0.274,0.333 0.199,0.572 -1.19,0.068 0.014,0.568 -1.474,0.05 -0.005,-0.19 -6.617,0.184 -0.017,0.018 0.008,-2.491 -0.341,-2.025 2.852,-0.076 -0.031,-1.132 1.126,-0.027 0.027,1.127 2.827,-0.085"
   id="22019"
   inkscape:label="Calcasieu, LA"
   inkscape:connector-curvature="0" />
  <path
   style="fill:#72b3dc;stroke:#c2dffb;stroke-width:1"
   d="m 15.864,39.504 1.375,-0.058 0.167,4.408 0.017,1.496 -0.406,-0.103 -1.031,-0.342 -0.934,-0.406 -0.513,-0.221 -0.789,-0.374 -0.373,-0.15 -0.015,-0.003 -1.288,-0.415 -1.006,-0.244 -0.564,-0.072 -0.45,0.004 -2.326,0.181 -0.708,0.094 -1.08,0.163 -0.542,0.084 -0.648,0.155 -0.033,0.013 -0.062,0.023 -0.177,0.058 -0.364,0.194 -0.221,0.149 -0.207,0.176 -0.1,-2.875 1.285,-1.791 0.017,-0.018 6.617,-0.184 0.005,0.19 1.474,-0.05 2.88,-0.082"
   id="22023"
   inkscape:label="Cameron, LA"
   inkscape:connector-curvature="0" />
  <path
   style="fill:#72b3dc;stroke:#c2dffb;stroke-width:1"
   d="m 16.851,33.75 1.541,-0.046 2.759,-0.103 0.783,0.527 0.451,1.478 0,0.284 -1.509,2.01 -0.874,0.997 -0.23,0.161 -0.217,0.1 -0.198,0.067 -2.132,-0.436 -0.122,-0.036 -0.252,-5.003"
   id="22001"
   inkscape:label="Acadia, LA"
   inkscape:connector-curvature="0" />
  <path
   style="fill:#72b3dc;stroke:#c2dffb;stroke-width:1"
   d="m 25.711,28.665 0.164,0.127 0.426,0.725 0.393,0.969 0.05,0.433 -0.054,1.753 -0.122,0.474 0.446,0.612 0.474,0.676 -1.488,0.072 -0.085,-0.067 -0.558,-0.199 -0.668,0.293 -0.631,0.388 -1.673,0.969 0,-0.284 -0.451,-1.478 -0.783,-0.527 -2.759,0.103 0.353,-0.585 0.116,-0.131 0.369,-0.068 1.695,-0.063 0.464,-0.401 0.46,-1.393 -0.013,-0.496 -0.028,-0.703 -0.491,-1.023 4.394,-0.176"
   id="22097"
   inkscape:label="St. Landry, LA"
   inkscape:connector-curvature="0" />
  <path
   style="fill:#72b3dc;stroke:#c2dffb;stroke-width:1"
   d="m 26.335,26.434 1.027,0.266 -0.032,0.311 0.072,1.424 0.026,0.072 0.082,0.077 0.067,0.036 1.217,0.635 1.781,0.334 0.058,0.027 0.211,0.315 0.344,0.92 -1.609,2.163 -2.398,0.109 -0.613,0.023 0.122,-0.474 0.054,-1.753 -0.05,-0.433 -0.393,-0.969 -0.426,-0.725 -0.164,-0.127 0.624,-2.231"
   id="22077"
   inkscape:label="Pointe Coupee, LA"
   inkscape:connector-curvature="0" />
  <path
   style="fill:#72b3dc;stroke:#c2dffb;stroke-width:1"
   d="m 31.188,30.851 0.288,0.063 0.086,0.041 1.938,4.111 -1.888,0.103 -0.433,-0.545 -1.226,-1.331 -0.374,-0.279 1.609,-2.163"
   id="22121"
   inkscape:label="West Baton Rouge, LA"
   inkscape:connector-curvature="0" />
  <path
   style="fill:#72b3dc;stroke:#c2dffb;stroke-width:1"
   d="m 22.385,35.89 1.673,-0.969 0.58,3.781 -0.139,0.506 -1.154,-0.465 -0.712,-0.496 -0.927,-0.306 -0.83,-0.041 1.509,-2.01"
   id="22055"
   inkscape:label="Lafayette, LA"
   inkscape:connector-curvature="0" />
  <path
   style="fill:#72b3dc;stroke:#c2dffb;stroke-width:1"
   d="m 24.499,39.208 0.069,2.961 -0.718,0.324 -0.229,0.131 -0.554,0.379 -0.402,0.377 -0.045,0.253 0.207,0.46 0.253,0.492 0.207,0.031 1.073,0.031 -0.464,0.42 -0.06,-0.032 -0.671,0 -0.58,0.086 -0.009,0 -0.596,0.269 -0.429,0.317 -0.293,0.081 -0.026,0.004 -0.072,0.004 -0.199,0.014 -0.054,0 -2.817,-0.369 -0.649,-0.091 -0.018,0 -0.017,-1.496 -0.167,-4.408 -1.375,0.058 1.239,-0.751 0.122,0.036 2.132,0.436 0.198,-0.067 0.217,-0.1 0.23,-0.161 0.874,-0.997 0.83,0.041 0.927,0.306 0.712,0.496 1.154,0.465"
   id="22113"
   inkscape:label="Vermilion, LA"
   inkscape:connector-curvature="0" />
  <path
   style="fill:#72b3dc;stroke:#c2dffb;stroke-width:1"
   id="22045"
   d="m 24.36,44.647 0.833,-0.302 0.267,-0.058 0.374,0.054 1.767,0.78 0.03,0.049 -0.02,0.085 -0.624,0.871 -0.131,0.081 -0.437,0.135 -0.189,-0.054 -2.163,-1.036 -0.171,-0.185 0.464,-0.42 m 6.783,-6.058 1.636,0.352 -0.311,0.713 -2.412,0.314 -1.703,0.217 -0.906,1.32 -1.776,1.682 -1.103,-1.018 -0.069,-2.961 0.139,-0.506 0.488,-0.009 1.564,-0.536 0.207,-0.126 0.15,-0.04 0.319,-0.014 0.4,0.086 0.1,0.035 1.943,0.564 1.334,-0.073"
   inkscape:label="Iberia, LA"
   inkscape:connector-curvature="0" />
  <path
   style="fill:#72b3dc;stroke:#c2dffb;stroke-width:1"
   d="m 29.579,33.014 0.374,0.279 1.226,1.331 0.433,0.545 1.888,-0.103 1.347,-0.05 -0.774,3.38 -1.294,0.545 -1.636,-0.352 -0.01,-0.17 -0.121,-0.293 -1.163,-1.672 -0.193,-0.085 -0.208,-0.042 -0.352,0.032 -0.229,-0.018 -0.145,-0.068 -0.143,-0.118 -0.397,-0.661 -0.063,-0.177 -0.024,-0.075 0.024,-0.155 -0.028,-0.675 -0.049,-0.252 -0.153,-0.365 -0.708,-0.672 2.398,-0.109"
   id="22047"
   inkscape:label="Iberville, LA"
   inkscape:connector-curvature="0" />
  <path
   style="fill:#72b3dc;stroke:#c2dffb;stroke-width:1"
   d="m 35.659,38.265 0.982,2.025 -1.225,2.518 -0.794,1.181 -0.243,-0.928 0.027,-0.83 -0.009,-0.486 -0.086,-0.167 -0.14,-0.145 -0.229,-0.121 -0.117,0 -0.488,-0.095 -0.166,-0.162 -0.609,-1.158 -0.094,-0.243 0.311,-0.713 1.294,-0.545 1.586,-0.131"
   id="22007"
   inkscape:label="Assumption, LA"
   inkscape:connector-curvature="0" />
  <path
   style="fill:#72b3dc;stroke:#c2dffb;stroke-width:1"
   id="22099"
   d="m 26.568,33.146 0.613,-0.023 0.708,0.672 0.153,0.365 0.049,0.252 0.028,0.675 -0.024,0.155 0.024,0.075 0.063,0.177 0.397,0.661 0.143,0.118 0.145,0.068 0.229,0.018 0.352,-0.032 0.208,0.042 0.193,0.085 1.163,1.672 0.121,0.293 0.01,0.17 -1.334,0.073 -1.943,-0.564 -0.1,-0.035 -0.4,-0.086 -0.319,0.014 -0.15,0.04 -0.207,0.126 -1.564,0.536 -0.488,0.009 -0.58,-3.781 0.631,-0.388 0.668,-0.293 0.558,0.199 0.085,0.067 1.488,-0.072 -0.474,-0.676 -0.446,-0.612 m 3.488,6.822 2.412,-0.314 0.094,0.243 0.609,1.158 0.166,0.162 0.488,0.095 0.117,0 0.229,0.121 0.14,0.145 0.086,0.167 0.009,0.486 -0.027,0.83 -1.32,-0.6 -1.852,-0.856 -1.151,-1.637"
   inkscape:label="St. Martin, LA"
   inkscape:connector-curvature="0" />
  <path
   style="fill:#72b3dc;stroke:#c2dffb;stroke-width:1"
   d="m 30.056,39.968 1.151,1.637 1.852,0.856 1.32,0.6 0.243,0.928 -2.028,2.037 -0.248,0 -0.473,-0.09 -2.222,-0.482 -0.091,-0.437 -0.067,-0.365 -0.153,-0.487 -0.825,-1.28 -0.131,-0.09 -1.175,-0.032 -0.168,0.023 -1.37,0.401 1.776,-1.682 0.906,-1.32 1.703,-0.217"
   id="22101"
   inkscape:label="St. Mary, LA"
   inkscape:connector-curvature="0" />
  <path
   style="fill:#72b3dc;stroke:#c2dffb;stroke-width:1"
   d="m 35.416,42.808 1.961,-0.888 0.076,-0.036 0.149,0.018 2.767,2.638 2.115,2.172 0.161,0.17 0.067,0.191 0.068,0.602 -0.283,1.416 -1.713,-0.004 -0.915,1.023 0.13,0.712 -2.281,0.51 -5.051,-2.371 -0.281,-0.221 -0.381,-0.402 0.017,-0.093 0.617,-0.338 0.758,-0.438 0.107,-0.122 -0.043,-0.253 -0.155,-0.392 -0.068,-0.148 -0.045,-0.045 -0.599,-0.483 2.028,-2.037 0.794,-1.181"
   id="22109"
   inkscape:label="Terrebonne, LA"
   inkscape:connector-curvature="0" />
  <path
   style="fill:#72b3dc;stroke:#c2dffb;stroke-width:1"
   d="m 40.508,40.245 0.605,0.395 0.973,1.036 0.578,0.744 0.004,0.078 0.103,0.139 0.136,0.032 1.248,-0.064 0.284,-0.013 0.369,0.086 0.118,0.072 0.031,0.099 0.13,0.905 0.009,0.13 -0.066,0.241 0.901,1.329 0.68,0.298 0.014,1.46 -0.667,0.82 0.337,0.658 -0.166,0.622 -0.123,0.121 -0.03,0.036 -0.721,0.596 -0.037,0.031 -0.03,0.019 -0.511,0.274 -1.329,0.442 -0.063,-0.004 0,-0.01 -0.013,-0.067 0.266,-0.163 0.238,-0.044 0.127,-0.023 0.107,-0.055 0.276,-0.134 0.053,-0.032 0.199,-0.225 -0.014,-0.238 -0.478,-0.948 -0.189,-0.257 -0.359,-0.482 -0.2,-0.145 -0.382,0.06 -0.216,0.288 -0.203,0.739 0.283,-1.416 -0.068,-0.602 -0.067,-0.191 -0.161,-0.17 -2.115,-2.172 -2.767,-2.638 -0.149,-0.018 -0.076,0.036 -1.961,0.888 1.225,-2.518 2.574,0.062 1.293,-0.107"
   id="22057"
   inkscape:label="Lafourche, LA"
   inkscape:connector-curvature="0" />
  <path
   style="fill:#72b3dc;stroke:#c2dffb;stroke-width:1"
   d="m 39.174,36.782 -0.13,1.497 -0.297,0.212 0.22,1.077 0.154,0.586 0.094,0.198 -2.574,-0.062 -0.982,-2.025 3.515,-1.483"
   id="22093"
   inkscape:label="St. James, LA"
   inkscape:connector-curvature="0" />
  <path
   style="fill:#72b3dc;stroke:#c2dffb;stroke-width:1"
   d="m 36.267,34.637 2.028,1.893 0.239,0.162 0.054,0.015 0.045,-0.024 0.605,-0.613 -0.064,0.712 -3.515,1.483 -1.586,0.131 0.774,-3.38 1.42,-0.379"
   id="22005"
   inkscape:label="Ascension, LA"
   inkscape:connector-curvature="0" />
  <path
   style="fill:#72b3dc;stroke:#c2dffb;stroke-width:1"
   d="m 36.479,29.796 -0.631,0.939 -0.725,0.867 0.037,1.782 0.211,0.528 0.896,0.725 -1.42,0.379 -1.347,0.05 -1.938,-4.111 0.329,-0.654 0.114,-0.085 4.474,-0.42"
   id="22033"
   inkscape:label="East Baton Rouge, LA"
   inkscape:connector-curvature="0" />
  <path
   style="fill:#72b3dc;stroke:#c2dffb;stroke-width:1"
   d="m 33.955,26.322 2.583,-0.145 -0.334,0.839 0.221,1.117 0.054,0.721 0,0.942 -4.474,0.42 -0.114,0.085 -0.329,0.654 -0.086,-0.041 -0.026,-0.302 0.021,-0.423 0.162,-0.506 0.114,-0.153 0.446,-0.766 0.324,-1.487 0.157,-0.892 1.281,-0.063"
   id="22037"
   inkscape:label="East Feliciana, LA"
   inkscape:connector-curvature="0" />
  <path
   style="fill:#72b3dc;stroke:#c2dffb;stroke-width:1"
   d="m 39.396,26.01 0.256,4.503 -3.804,0.222 0.631,-0.939 0,-0.942 -0.054,-0.721 -0.221,-1.117 0.334,-0.839 2.858,-0.167"
   id="22091"
   inkscape:label="St. Helena, LA"
   inkscape:connector-curvature="0" />
  <path
   style="fill:#72b3dc;stroke:#c2dffb;stroke-width:1"
   d="m 35.848,30.735 3.804,-0.222 0.122,2.1 0.27,0.676 0.866,1.199 0.378,0.389 0.131,0.107 0.14,0.063 0.206,0.048 -0.747,0.254 -0.253,0.136 -0.071,0.062 -0.168,0.371 -0.14,0.215 -0.147,0.154 -0.136,0.086 -0.113,0.017 -0.121,-0.021 -0.631,-0.299 -0.605,0.613 -0.045,0.024 -0.054,-0.015 -0.239,-0.162 -2.028,-1.893 -0.896,-0.725 -0.211,-0.528 -0.037,-1.782 0.725,-0.867"
   id="22063"
   inkscape:label="Livingston, LA"
   inkscape:connector-curvature="0" />
  <path
   style="fill:#72b3dc;stroke:#c2dffb;stroke-width:1"
   d="m 41.765,35.095 1.416,0.623 -1.339,2.02 -0.923,0.703 -0.478,0.198 -0.117,0.19 0.018,0.238 0.166,1.178 -1.293,0.107 -0.094,-0.198 -0.154,-0.586 -0.22,-1.077 0.297,-0.212 0.194,-2.209 0.631,0.299 0.121,0.021 0.113,-0.017 0.136,-0.086 0.147,-0.154 0.14,-0.215 0.168,-0.371 0.071,-0.062 0.253,-0.136 0.747,-0.254"
   id="22095"
   inkscape:label="St. John the Baptist, LA"
   inkscape:connector-curvature="0" />
  <path
   style="fill:#72b3dc;stroke:#c2dffb;stroke-width:1"
   d="m 40.508,40.245 -0.166,-1.178 -0.018,-0.238 0.117,-0.19 0.478,-0.198 0.923,-0.703 1.339,-2.02 0.149,2.885 0.027,0.446 0.113,0.641 0.072,0.211 0.342,0.528 0.681,0.406 -0.185,1.072 -0.063,0.198 -0.162,0.5 -1.248,0.064 -0.136,-0.032 -0.103,-0.139 -0.004,-0.078 -0.578,-0.744 -0.973,-1.036 -0.605,-0.395"
   id="22089"
   inkscape:label="St. Charles, LA"
   inkscape:connector-curvature="0" />
  <path
   style="fill:#72b3dc;stroke:#c2dffb;stroke-width:1"
   d="m 39.607,26.003 2.209,-0.141 0.081,1.221 0.347,0.289 0.802,1.91 0.005,0.23 0.523,6.266 -0.393,-0.06 -1.416,-0.623 -0.206,-0.048 -0.14,-0.063 -0.131,-0.107 -0.378,-0.389 -0.866,-1.199 -0.27,-0.676 -0.122,-2.1 -0.256,-4.503 0.211,-0.007"
   id="22105"
   inkscape:label="Tangipahoa, LA"
   inkscape:connector-curvature="0" />
  <path
   style="fill:#72b3dc;stroke:#c2dffb;stroke-width:1"
   d="m 45.128,36.102 1.236,0.469 1.045,-0.627 0.258,-0.1 2.175,0.172 0.619,0.202 0.072,0.045 -0.479,0.569 -1.495,0.96 -0.501,0.599 -0.5,1.727 -1.109,-0.275 -0.6,-0.608 -0.753,-1.024 0.032,-2.109"
   id="22071"
   inkscape:label="Orleans, LA"
   inkscape:connector-curvature="0" />
  <path
   style="fill:#72b3dc;stroke:#c2dffb;stroke-width:1"
   d="m 48.058,38.391 0.068,0.284 0.108,0.275 0.072,0.123 0.113,0.075 1.586,0.808 0.357,0.048 0.252,-0.03 0.269,-0.122 0.163,-0.131 0.063,-0.203 0.127,-0.816 -0.015,-0.311 0.831,-0.924 0.387,-0.189 0.464,0.144 0.293,0.24 -0.239,0.134 -0.073,0.073 -0.107,0.103 0.009,0.217 0.018,0.157 0.658,0.717 0.126,0.095 0.532,0.274 0.126,0.069 -0.747,1.248 -0.433,0.639 -0.641,0.243 -0.5,-0.192 -1.172,-0.042 -0.19,0.06 0.046,0.378 0.063,0.113 0.559,0.306 0.267,0.113 0.188,0.036 0.263,-0.018 0.549,0.473 0.031,0.076 -0.013,0.05 -0.068,-0.099 -0.311,-0.248 -1.226,-0.294 -0.793,-0.715 -0.167,-0.177 -1.654,-0.441 -0.122,0.045 -0.072,-0.013 -0.141,-0.166 -0.247,-0.429 -0.157,-0.329 0.5,-1.727"
   id="22087"
   inkscape:label="St. Bernard, LA"
   inkscape:connector-curvature="0" />
  <path
   style="fill:#72b3dc;stroke:#c2dffb;stroke-width:1"
   d="m 46.449,39.843 1.109,0.275 0.157,0.329 0.247,0.429 0.141,0.166 0.072,0.013 0.122,-0.045 1.654,0.441 0.167,0.177 0.793,0.715 1.226,0.294 0.311,0.248 0.068,0.099 -0.208,-0.126 -0.355,-0.193 -0.97,-0.045 -0.221,0.13 -0.356,0.301 -0.09,0.311 -0.112,1.064 0.008,0.063 0.082,0.091 0.329,0.216 2.09,1.104 0.334,-0.022 0.871,-0.041 2.33,0.672 0.599,0.744 0.302,0.418 0.455,0.262 0.42,-0.189 0.08,0.031 0.082,0.077 0.193,0.393 0,0.012 -0.036,0.176 0,0.009 -0.203,0.465 -0.351,0.797 -1.023,0.609 -0.722,-0.446 -1.554,0.04 -1.244,-1.438 -0.033,-0.032 -0.152,-0.147 -0.018,-0.019 -0.123,-0.086 0,-0.004 -0.048,-0.018 -0.334,-0.122 -0.244,-0.09 -1.563,-0.573 -0.248,-0.068 -0.045,-0.012 -0.239,-0.05 -0.094,-0.023 -0.019,0 -0.049,-0.005 -0.236,-0.017 -0.332,-0.028 -0.635,-0.572 0.143,-0.248 0.041,-0.09 0,-0.121 -0.014,-0.068 -0.248,-0.865 -0.007,-0.037 -0.074,-0.036 -0.103,-0.053 -0.145,0.031 -0.148,0.063 -0.283,0.176 -0.177,0.216 -0.14,0.199 -0.257,0.026 -0.108,-0.072 -0.148,-0.157 -0.163,-1.929 -0.058,-0.244 -0.447,-0.762 -0.22,-0.256 -0.36,-0.483 -0.124,-0.419 0.209,-0.865 0.446,-0.766"
   id="22075"
   inkscape:label="Plaquemines, LA"
   inkscape:connector-curvature="0" />
  <path
   style="fill:#72b3dc;stroke:#c2dffb;stroke-width:1"
   id="22125"
   inkscape:label="West Feliciana, LA"
   d="m 27.595,26.624 5.079,-0.239 -0.157,0.892 -0.324,1.487 -0.446,0.766 -0.114,0.153 -0.162,0.506 -0.021,0.423 0.026,0.302 -0.288,-0.063 -0.344,-0.92 -0.211,-0.315 -0.058,-0.027 -1.781,-0.334 -1.217,-0.635 -0.067,-0.036 -0.082,-0.077 -0.026,-0.072 -0.072,-1.424 0.265,-0.387 m -0.986,-0.533 0.753,0.609 -1.027,-0.266 0.274,-0.343"
   inkscape:connector-curvature="0" />
  <path
   style="fill:#72b3dc;stroke:#c2dffb;stroke-width:1"
   id="22051"
   inkscape:label="Jefferson, LA"
   d="m 43.181,35.718 0.393,0.06 1.554,0.324 -0.032,2.109 0.753,1.024 0.6,0.608 -0.446,0.766 -0.209,0.865 0.124,0.419 0.36,0.483 0.22,0.256 0.447,0.762 0.058,0.244 0.163,1.929 -0.555,0.185 -0.68,-0.298 -0.901,-1.329 0.066,-0.241 -0.009,-0.13 -0.13,-0.905 -0.031,-0.099 -0.118,-0.072 -0.369,-0.086 -0.284,0.013 0.162,-0.5 0.063,-0.198 0.185,-1.072 L 43.884,40.429 43.542,39.901 43.47,39.69 43.357,39.049 43.33,38.603 43.181,35.718 m 3.114,12.972 0.01,0.01 0.311,-0.06 0.243,-0.274 0.649,-0.5 0.095,0.013 0.019,0.037 -0.01,0.031 -0.058,0.094 -0.709,0.527 -0.608,0.632 -0.105,0.108 -0.003,0.004 0.166,-0.622"
   inkscape:connector-curvature="0" />
  
  
  
  
  
  
  
  
  
  
  
  
  
  
  
  
  
  
  
  
  
  
  
  
  
  
  
  
  
  
  
  
  
  
  
  
  
  
  
  
  
  
  
  
  
  
  
  
  
  
  
  
  
  
  
  
  
  
  
  
  
  
  
  
  
  
  
  
  
  
  
  
  
  
  
  
  
  
  
  
  
  
  
  
  
  
  
  
  
  
  
  
  
  
  
  
  
  
  
  
  
  
  
  
  
  
  
  
  
  
  
  
  
  
  
  
  
  
  
  
  
  
  
  
  
  
  
  
  
  
  
  
  
  
  
  
  
  
  
  
  
  
  
  
  
  
  
  
  
  
  
  
  
  
  
  
  
  
  
  
  
  
  
  
  
  
  
  
  
  
  
  
  
  
  
  
  
  
  
  
  
  
  
  
  
  
  
  
  
  
  
  
  
  
  
  
  
  
  
  
  
  
  
  
  
  
  
  
  
  
  
  
  
  
  
  
  
  
  
  
  
  
  
  
  
  
  
  
  
  
  
  
  
  
  
  
  
  
  
  
  
  
  
  
  
  
  
  
  
  
  
  
  
  
  
  
  
  
  
  
  
  
  
  
  
  
  
  
  
  
  
  
  
  
  
  
  
  
  
  
  
  
  
  
  
  
  
  
  
  
  
  
  
  
  
  
  
  
  
  
  
  
  
  
  
  
  
  
  
  
  
  
  
  
  
  
  
  
  
  
  
  
  
  
  
  
  
  
  
  
  
  
  
  
  
  
  
  
  
  
  
  
  
  
  
  
  
  
  
  
  
  
  
  
  
  
  
  
  
  
  
  
  
  
  
  
  
  
  
  
  
  
  
  
  
  
  
  
  
  
  
  
  
  
  
  
  
  
  
  
  
  
  
  
  
  
  
  
  
  
  
  
  
  
  
  
  
  
  
  
  
  
  
  
  
  
  
  
  
  
  
  
  
  
  
  
  
  
  
  
  
  
  
  
  
  
  
  
  
  
  
  
  
  
  
  
  
  
  
  
  
  
  
  
  
  
  
  
  
  
  
  
  
  
  
  
  
  
  
  
  
  
  
  
  
  
  
  
  
  
  
  
  
  
  
  
  
  
  
  
  
  
  
  
  
  
  
  
  
  
  
  
  
  
  
  
  
  
  
  
  
  
  
  
  
  
  
  
  
  
  
  
  
  
  
  
  
  
  
  
  
  
  
  
  
  
  
  
  
  
  
  
  
  
  
  
  
  
  
  
  
  
  
  
  
  
  
  
  
  
  
  
  
  
  
  
  
  
  
  
  
  
  
  
  
  
  
  
  
  
  
  
  
  
  
  
  
  
  
  
  
  
  
  
  
  
  
  
  
  
  
  
  
  
  
  
  
  
  
  
  
  
  
  
  
  
  
  
  
  
  
  
  
  
  
  
  
  
  
  
  
  
  
  
  
  
  
  
  
  
  
  
  
  
  
  
  
  
  
  
  
  
  
  
  
  
  
  
  
  
  
  
  
  
  
  
  
  
  
  
  
  
  
  
  
  
  
  
  
  
  
  
  
  
  
  
  
  
  
  
  
  
  
  
  
  
  
  
  
  
  
  
  
  
  
  
  
  
  
  
  
  
  
  
  
  
  
  
  
  
  
  
  
  
  
  
  
  
  
  
  
  
  
  
  
  
  
  
  
  
  
  
  
  
  
  
  
  
  
  
  
  
  
  
  
  
  
  
  
  
  
  
  
  
  
  
  
  
  
  
  
  
  
  
  
  
  
  
  
  
  
  
  
  
  
  
  
  
  
  
  
  
  
  
  
  
  
  
  
  
  
  
  
  
  
  
  
  
  
  
  
  
  
  
  
  
  
  
  
  
  
  
  
  
  
  
  
  
  
  
  
  
  
  
  
  
  
  
  
  
  
  
  
  
  
  
  
  
  
  
  
  
  
  
  
  
  
  
  
  
  
  
  
  
  
  
  
  
  
  
  
  
  
  
  
  
  
  
  
  
  
  
  
  
  
  
  
  
  
  
  
  
  
  
  
  
  
  
  
  
  
  
  
  
  
  
  
  
  
  
  
  
  
  
  
  
  
  
  
  
  
  
  
  
  
  
  
  
  
  
  
  
  
  
  
  
  
  
  
  
  
  
  
  
  
  
  
  
  
  
  
  
  
  
  
  
  
  
  
  
  
  
  
  
  
  
  
  
  
  
  
  
  
  
  
  
  
  
  
  
  
  
  
  
  
  
  
  
  
  
  
  
  
  
  
  
  
  
  
  
  
  
  
  
  
  
  
  
  
  
  
  
  
  
  
  
  
  
  
  
  
  
  
  
  
  
  
  
  
  
  
  
  
  
  
  
  
  
  
  
  
  
  
  
  
  
  
  
  
  
  
  
  
  
  
  
  
  
  
  
  
  
  
  
  
  
  
  
  
  
  
  
  
  
  
  
  
  
  
  
  
  
  
  
  
  
  
  
  
  
  
  
  
  
  
  
  
  
  
  
  
  
  
  
  
  
  
  
  
  
  
  
  
  
  
  
  
  
  
  
  
  
  
  
  
  
  
  
  
  
  
  
  
  
  
  
  
  
  
  
  
  
  
  
  
  
  
  
  
  
  
  
  
  
  
  
  
  
  
  
  
  
  
  
  
  
  
  
  
  
  
  
  
  
  
  
  
  
  
  
  
  
  
  
  
  
  
  
  
  
  
  
  
  
  
  
  
  
  
  
  
  
  
  
  
  
  
  
  
  
  
  
  
  
  
  
  
  
  
  
  
  
  
  
  
  
  
  
  
  
  
  
  
  
  
  
  
  
  
  
  
  
  
  
  
  
  
  
  
  
  
  
  
  
  
  
  
  
  
  
  
  
  
  
  
  
  
  
  
  
  
  
  
  
  
  
  
  
  
  
  
  
  
  
  
  
  
  
  
  
  
  
  
  
  
  
  
  
  
  
  
  
  
  
  
  
  
  
  
  
  
  
  
  
  
  
  
  
  
  
  
  
  
  
  
  
  
  
  
  
  
  
  
  
  
  
  
  
  
  
  
  
  
  
  
  
  
  
  
  
  
  
  
  
  
  
  
  
  
  
  
  
  
  
  
  
  
  
  
  
  
  
  
  
  
  
  
  
  
  
  
  
  
  
  
  
  
  
  
  
  
  
  
  
  
  
  
  
  
  
  
  
  
  
  
  
  
  
  
  
  
  
  
  
  
  
  
  
  
  
  
  
  
  
  
  
  
  
  
  
  
  
  
  
  
  
  
  
  
  
  
  
  
  
  
  
  
  
  
  
  
  
  
  
  
  
  
  
  
  
  
  
  
  
  
  
  
  
  
  
  
  
  
  
  
  
  
  
  
  
  
  
  
  
  
  
  
  
  
  
  
  
  
  
  
  
  
  
  
  
  
  
  
  
  
  
  
  
  
  
  
  
  
  
  
  
  
  
  
  
  
  
  
  
  
  
  
  
  
  
  
  
  
  
  
  
  
  
  
  
  
  
  
  
  
  
  
  
  
  
  
  
  
  
  
  
  
  
  
  
  
  
  
  
  
  
  
  
  
  
  
  
  
  
  
  
  
  
  
  
  
  
  
  
  
  
  
  
  
  
  
  
  
  
  
  
  
  
  
  
  
  
  
  
  
  
  
  
  
  
  
  
  
  
  
  
  
  
  
  
  
  
  
  
  
  
  
  
  
  
  
  
  
  
  
  
  
  
  
  
  
  
  
  
  
  
  
  
  
  
  
  
  
  
  
  
  
  
  
  
  
  
  
  
  
  
  
  
  
  
  
  
  
  
  
  
  
  
  
  
  
  
  
  
  
  
  
  
  
  
  
  
  
  
  
  
  
  
  
  
  
  
  
  
  
  
  
  
  
  
  
  
  
  
  
  
  
  
  
  
  
  
  
  
  
  
  
  
  
  
  
  
  
  
  
  
  
  
  
  
  
  
  
  
  
  
  
  
  
  
  
  
  
  
  
  
  
  
  
  
  
  
  
  
  
  
  
  
  
  
  
  
  
  
  
  
  
  
  
  
  
  
  
  
  
  
  
  
  
  
  
  
  
  
  
  
  
  
  
  
  
  
  
  
  
  
  
  
  
  
  
  
  
  
  
  
  
  
  
  
  
  
  
  
  
  
  
  
  
  
  
  
  
  
  
  
  
  
  
  
  
  
  
  
  
  
  
  
  
  
  
  
  
  
  
  
  
  
  
  
  
  
  
  
  
  
  
  
  
  
  
  
  
  
  
  
  
  
  
  
  
  
  
  
  
  
  
  
  
  
  
  
  
  
  
  
  
  
  
  
  
  
  
  
  
  
  
  
  
  
  
  
  
  
  
  
  
  
  
  
  
  
  
  
  
  
  
  
  
  
  
  
  
  
  
  
  
  
  
  
  
  
  
  
  
  
  
  
  
  
  
  
  
  
  
  
  
  
  
  
  
  
  
  
  
  
  
  
  
</svg>