<?xml version="1.0" encoding="UTF-8" standalone="no"?>
<!--?xml version="1.0" encoding="UTF-8" standalone="no"?-->

<svg
   xmlns:dc="http://purl.org/dc/elements/1.1/"
   xmlns:cc="http://creativecommons.org/ns#"
   xmlns:rdf="http://www.w3.org/1999/02/22-rdf-syntax-ns#"
   xmlns:svg="http://www.w3.org/2000/svg"
   xmlns="http://www.w3.org/2000/svg"
   xmlns:sodipodi="http://sodipodi.sourceforge.net/DTD/sodipodi-0.dtd"
   xmlns:inkscape="http://www.inkscape.org/namespaces/inkscape"
   width="39.59671"
   height="21.779163"
   viewBox="0 0 36.602001 19.894428"
   preserveAspectRatio="xMinYMin meet"
   xml:space="preserve"
   id="svg1329"
   version="1.1"
   inkscape:version="0.48.2 r9819"
   sodipodi:docname="MA.svg"><metadata
   id="metadata1349"><rdf:RDF><cc:Work
       rdf:about=""><dc:format>image/svg+xml</dc:format><dc:type
         rdf:resource="http://purl.org/dc/dcmitype/StillImage" /></cc:Work></rdf:RDF></metadata><defs
   id="defs1347" /><sodipodi:namedview
   pagecolor="#ffffff"
   bordercolor="#666666"
   borderopacity="1"
   objecttolerance="10"
   gridtolerance="10"
   guidetolerance="10"
   inkscape:pageopacity="0"
   inkscape:pageshadow="2"
   inkscape:window-width="640"
   inkscape:window-height="480"
   id="namedview1345"
   showgrid="false"
   inkscape:zoom="0.56730769"
   inkscape:cx="-249.19896"
   inkscape:cy="-99.595327"
   inkscape:window-x="0"
   inkscape:window-y="0"
   inkscape:window-maximized="0"
   inkscape:current-layer="svg1329" />
  
  
  
  
  
  
  
  
  
  
  
  
  
  
  
  
  
  
  
  
  
  
  
  
  
  
  
  
  
  
  
  
  
  
  
  
  
  
  
  
  
  
  
  
  
  
  
  
  
  
  
  
  
  
  
  
  
  
  
  
  
  
  
  
  
  
  
  
  
  
  
  
  
  
  
  
  
  
  
  
  
  
  
  
  
  
  
  
  
  
  
  
  
  
  
  
  
  
  
  
  
  
  
  
  
  
  
  
  
  
  
  
  
  
  
  
  
  
  
  
  
  
  
  
  
  
  
  
  
  
  
  
  
  
  
  
  
  
  
  
  
  
  
  
  
  
  
  
  
  
  
  
  
  
  
  
  
  
  
  
  
  
  
  
  
  
  
  
  
  
  
  
  
  
  
  
  
  
  
  
  
  
  
  
  
  
  
  
  
  
  
  
  
  
  
  
  
  
  
  
  
  
  
  
  
  
  
  
  
  
  
  
  
  
  
  
  
  
  
  
  
  
  
  
  
  
  
  
  
  
  
  
  
  
  
  
  
  
  
  
  
  
  
  
  
  
  
  
  
  
  
  
  
  
  
  
  
  
  
  
  
  
  
  
  
  
  
  
  
  
  
  
  
  
  
  
  
  
  
  
  
  
  
  
  
  
  
  
  
  
  
  
  
  
  
  
  
  
  
  
  
  
  
  
  
  
  
  
  
  
  
  
  
  
  
  
  
  
  
  
  
  
  
  
  
  
  
  
  
  
  
  
  
  
  
  
  
  
  
  
  
  
  
  
  
  
  
  
  
  
  
  
  
  
  
  
  
  
  
  
  
  
  
  
  
  
  
  
  
  
  
  
  
  
  
  
  
  
  
  
  
  
  
  
  
  
  
  
  
  
  
  
  
  
  
  
  
  
  
  
  
  
  
  
  
  
  
  
  
  
  
  
  
  
  
  
  
  
  
  
  
  
  
  
  
  
  
  
  
  
  
  
  
  
  
  
  
  
  
  
  
  
  
  
  
  
  
  
  
  
  
  
  
  
  
  
  
  
  
  
  
  
  
  
  
  
  
  
  
  
  
  
  
  
  
  
  
  
  
  
  
  
  
  
  
  
  
  
  
  
  
  
  
  
  
  
  
  
  
  
  
  
  
  
  
  
  
  
  
  
  
  
  
  
  
  
  
  
  
  
  
  
  
  
  
  
  
  
  
  
  
  
  
  
  
  
  
  
  
  
  
  
  
  
  
  
  
  
  
  
  
  
  
  
  
  
  
  
  
  
  
  
  
  
  
  
  
  
  
  
  
  
  
  
  
  
  
  
  
  
  
  
  
  
  
  
  
  
  
  
  
  
  
  
  
  
  
  
  
  
  
  
  
  
  
  
  
  
  
  
  
  
  
  
  
  
  
  
  
  
  
  
  
  
  
  
  
  
  
  
  
  
  
  
  
  
  
  
  
  
  
  
  
  
  
  
  
  
  
  
  
  
  
  
  
  
  
  
  
  
  
  
  
  
  
  
  
  
  
  
  
  
  
  
  
  
  
  
  
  
  
  
  
  
  
  
  
  
  
  
  
  
  
  
  
  
  
  
  
  
  
  
  
  
  
  
  
  
  
  
  
  
  
  
  
  
  
  
  
  
  
  
  
  
  
  
  
  
  
  
  
  
  
  
  
  
  
  
  
  
  
  
  
  
  
  
  
  
  
  
  
  
  
  
  
  
  
  
  
  
  
  
  
  
  
  
  
  
  
  
  
  
  
  
  
  
  
  
  
  
  
  
  
  
  
  
  
  
  
  
  
  
  
  
  
  
  
  
  
  
  
  
  
  
  
  
  
  
  
  
  
  
  
  
  
  
  
  
  
  
  
  
  
  
  
  
  
  
  
  
  
  
  
  
  
  
  
  
  
  
  
  
  
  
  
  
  
  
  
  
  
  
  
  
  
  
  
  
  
  
  
  
  
  
  
  
  
  
  
  
  
  
  
  
  
  
  
  
  
  
  
  
  
  
  
  
  
  
  
  
  
  
  
  
  
  
  
  
  
  
  
  
  
  
  
  
  
  
  
  
  
  
  
  
  
  
  
  
  
  
  
  
  
  
  
  
  
  
  
  
  
  
  
  
  
  
  
  
  
  
  
  
  
  
  
  
  
  
  
  
  
  
  
  
  
  
  
  
  
  
  
  
  
  
  
  
  
  
  
  
  
  
  
  
  
  
  
  
  
  
  
  
  
  
  
  
  
  
  
  
  
  
  
  
  
  
  
  
  
  
  
  
  
  
  
  
  
  
  
  
  
  
  
  
  
  
  
  
  
  
  
  
  
  
  
  
  
  
  
  
  
  
  
  
  
  
  
  
  
  
  
  
  
  
  
  
  
  
  
  
  
  
  
  
  
  
  
  
  
  
  
  
  
  
  
  
  
  
  
  
  
  
  
  
  
  
  
  
  
  
  
  
  
  
  
  
  
  
  
  
  
  
  
  
  
  
  
  
  
  
  
  
  
  
  
  
  
  
  
  
  
  
  
  
  
  
  
  
  
  
  
  
  
  
  
  
  
  
  
  
  
  
  
  
  
  
  
  
  
  
  
  
  
  
  
  
  
  
  
  
  
  
  
  
  
  
  
  
  
  
  
  
  
  
  
  
  
  
  
  
  
  
  
  
  <path
   style="fill:#72b3dc;stroke:#c2dffb;stroke-width:1"
   d="m 13.345,5.129 0.04,0.09 0.694,0.707 0.465,-0.108 0.15,-0.135 0.751,0.094 0.369,0.045 1.375,0.559 0.145,0.267 0.067,0.703 0.036,0.72 -0.112,0.366 -0.289,0.568 0.64,1.613 0.252,0.235 0.298,0.098 0.802,0.127 0.274,1.798 -2.749,0.843 -0.063,-0.189 -2.406,0.572 -0.397,0.082 -0.315,0.062 -0.415,-1.654 -0.604,0.162 -0.658,-0.139 -0.044,-0.163 0.004,-0.098 0.238,-0.609 L 10.718,10.731 10.551,10.068 10.497,8.964 10.609,8.293 10.412,7.22 9.798,5.899 13.069,5.191 13.345,5.129"
   id="25027"
   inkscape:label="Worcester, MA"
   inkscape:connector-curvature="0" />
  <path
   style="fill:#72b3dc;stroke:#c2dffb;stroke-width:1"
   d="m 19.149,3.308 0.358,0.861 0.919,0.617 1.045,0.622 0.748,0.951 -0.054,0.347 -0.216,0.486 -0.37,0.344 -0.387,0.247 0.049,1.014 -0.455,-0.356 -0.027,-0.018 -0.23,-0.022 -0.157,0.022 -0.501,0.338 0.118,0.185 0.22,0.288 0.127,0.271 -0.222,0.699 -0.463,0.414 -0.623,0.46 L 18.226,10.951 17.928,10.853 17.676,10.618 17.036,9.005 17.325,8.437 17.437,8.071 17.401,7.351 17.334,6.648 17.189,6.381 15.814,5.822 15.445,5.777 14.694,5.683 l -0.15,0.135 -0.465,0.108 -0.694,-0.707 -0.04,-0.09 2.28,-0.51 0.14,-0.031 0.04,-0.009 3.111,-0.717 0.233,-0.554"
   id="25017"
   inkscape:label="Middlesex, MA"
   inkscape:connector-curvature="0" />
  <path
   style="fill:#72b3dc;stroke:#c2dffb;stroke-width:1"
   d="m 34.762,18.357 0.085,-0.045 0.15,-0.172 0.108,-0.202 0.072,-0.262 -0.044,-0.261 -0.051,-0.09 -0.099,-0.091 -0.091,-0.072 -0.053,-0.045 -0.009,-0.049 0.167,0.036 0.198,0.175 0.856,0.97 0.051,0.18 -0.006,0.135 -0.004,0.027 -0.068,0.09 -0.221,0.167 -0.122,0.054 -0.765,0.176 -0.207,0.04 -0.533,-0.036 -0.906,-0.18 -0.121,-0.054 -0.086,-0.072 -0.05,-0.104 0.14,-0.036 0.122,0.027 0.054,0.018 0.473,-0.018 0.671,-0.175 0.289,-0.131"
   id="25019"
   inkscape:label="Nantucket, MA"
   inkscape:connector-curvature="0" />
  <path
   style="fill:#72b3dc;stroke:#c2dffb;stroke-width:1"
   d="m 28.863,13.075 0.063,0.067 0.19,0.135 0.274,0.153 0.248,0.1 0.605,0.063 0.363,-0.023 0.965,-0.099 1.303,-0.802 0.482,-0.325 0.316,-0.283 0.097,-0.212 0.02,-0.109 L 33.676,11.366 33.5,10.906 33.419,10.726 33.122,10.303 32.159,9.176 32.009,9.072 31.842,9.009 31.576,8.946 31.509,8.96 31.383,9.031 31.314,9.095 31.26,9.19 31.229,9.347 31.238,9.415 30.706,9.208 30.675,9.171 l 0.036,-0.13 0.095,-0.104 0.162,-0.09 0.157,-0.05 0.278,-0.027 0.447,0.023 0.353,0.077 0.269,0.117 0.312,0.216 0.297,0.297 0.374,0.433 0.298,0.428 0.446,0.771 0.213,0.424 0.306,0.833 0.178,0.618 0.032,0.284 -0.148,1.231 -0.09,0.089 -0.031,-0.856 -0.022,-0.072 -0.046,-0.081 -0.239,-0.113 -0.112,-0.027 -0.068,0.014 -2.867,1.279 -0.121,0.055 -2.088,1.807 -0.333,0.433 -0.351,-0.036 -0.208,-2.51 0.659,-1.429"
   id="25001"
   inkscape:label="Barnstable, MA"
   inkscape:connector-curvature="0" />
  <path
   style="fill:#72b3dc;stroke:#c2dffb;stroke-width:1"
   d="m 22.219,6.359 0.456,0.181 0.211,1.514 -1.645,0.743 -0.049,-1.014 0.387,-0.247 0.37,-0.344 0.216,-0.486 0.054,-0.347"
   id="25025"
   inkscape:label="Suffolk, MA"
   inkscape:connector-curvature="0" />
  <path
   style="fill:#72b3dc;stroke:#c2dffb;stroke-width:1"
   d="m 20.484,12.998 2.407,-2.127 0.725,1.581 0.808,1.47 0.959,0.374 0.428,0.297 1.005,1.547 -0.171,-0.01 -0.428,0.063 -0.175,0.23 -0.105,0.136 -0.017,0.031 0.031,0.419 0.044,0.153 0.145,0.298 -0.829,0.775 -0.785,0.235 -1.288,-2.042 -0.392,-0.365 -1.078,-0.6 -1.284,-2.465"
   id="25005"
   inkscape:label="Bristol, MA"
   inkscape:connector-curvature="0" />
  <path
   style="fill:#72b3dc;stroke:#c2dffb;stroke-width:1"
   d="m 23.784,8.374 0.878,-0.271 0.46,0.067 0.091,0.01 0.076,0.05 0.512,0.342 1.16,1.289 1.68,2.217 0.162,0.37 0.06,0.627 -0.659,1.429 -1.388,1.636 -1.005,-1.547 -0.428,-0.297 -0.959,-0.374 -0.808,-1.47 -0.725,-1.581 0.893,-2.497"
   id="25023"
   inkscape:label="Plymouth, MA"
   inkscape:connector-curvature="0" />
  <path
   style="fill:#72b3dc;stroke:#c2dffb;stroke-width:1"
   d="m 22.886,8.054 0.898,0.32 -0.893,2.497 -2.407,2.127 -1.182,-0.122 -0.274,-1.798 0.623,-0.46 0.463,-0.414 0.222,-0.699 -0.127,-0.271 -0.22,-0.288 -0.118,-0.185 0.501,-0.338 0.157,-0.022 0.23,0.022 0.027,0.018 0.455,0.356 1.645,-0.743"
   id="25021"
   inkscape:label="Norfolk, MA"
   inkscape:connector-curvature="0" />
  <path
   style="fill:#72b3dc;stroke:#c2dffb;stroke-width:1"
   d="m 22.675,0.5 0.067,0.27 0.347,0.829 0.54,1.037 0.559,0.248 -0.901,1.87 L 22.675,6.54 22.219,6.359 21.471,5.408 20.426,4.786 19.507,4.169 19.149,3.308 19.209,3.172 19.718,2.15 19.84,2.023 20.06,1.834 20.727,1.266 21.596,0.621 21.6,0.621 21.674,0.59 21.737,0.558 22.011,0.54 22.675,0.5"
   id="25009"
   inkscape:label="Essex, MA"
   inkscape:connector-curvature="0" />
  <path
   style="fill:#72b3dc;stroke:#c2dffb;stroke-width:1"
   d="m 11.893,11.745 -0.238,0.609 -0.004,0.098 0.044,0.163 0.658,0.139 0.604,-0.162 0.415,1.654 L 9.906,15.067 5.273,16.162 4.858,16.256 4.506,15.621 4.461,15.504 4.353,14.931 4.705,14.909 4.677,13.48 4.497,12.705 4.831,12.2 l 0.544,-0.09 0.123,0.077 0.252,0.838 -0.144,0.27 0.392,0.199 0.874,0.131 0.925,-0.014 0.77,-0.572 1.681,-0.695 1.645,-0.599"
   id="25013"
   inkscape:label="Hampden, MA"
   inkscape:connector-curvature="0" />
  <path
   style="fill:#72b3dc;stroke:#c2dffb;stroke-width:1"
   d="m 10.718,10.731 1.175,1.014 -1.645,0.599 -1.681,0.695 -0.77,0.572 L 6.872,13.625 5.998,13.494 5.606,13.295 5.75,13.025 5.498,12.187 5.375,12.11 4.831,12.2 4.497,12.705 4.466,12.813 4.263,12.822 3.871,12.642 3.659,12.002 3.659,11.889 4.186,11.88 4.146,10.731 4.083,9.766 3.969,9.582 l 1.187,0.667 1.571,0.04 1.616,-0.077 0.476,-0.207 1.096,-0.099 0.803,0.825"
   id="25015"
   inkscape:label="Hampshire, MA"
   inkscape:connector-curvature="0" />
  <path
   style="fill:#72b3dc;stroke:#c2dffb;stroke-width:1"
   d="m 0.725,7.842 2.235,-0.483 1.009,2.223 0.114,0.184 0.063,0.965 0.04,1.149 -0.527,0.009 0,0.113 0.212,0.64 0.392,0.18 0.203,-0.009 0.031,-0.108 0.18,0.775 0.028,1.429 -0.352,0.022 0.108,0.573 0.045,0.117 0.352,0.635 -4.052,0.857 -0.09,0.022 L 0.5,16.698 0.642,11.01 0.725,7.842"
   id="25003"
   inkscape:label="Berkshire, MA"
   inkscape:connector-curvature="0" />
  <path
   style="fill:#72b3dc;stroke:#c2dffb;stroke-width:1"
   d="m 8.175,6.246 1.623,-0.347 0.614,1.321 0.197,1.073 -0.112,0.671 0.054,1.104 0.167,0.663 L 9.915,9.906 8.819,10.005 8.343,10.212 6.727,10.289 5.156,10.249 3.969,9.582 2.96,7.359 3.817,7.179 8.175,6.246"
   id="25011"
   inkscape:label="Franklin, MA"
   inkscape:connector-curvature="0" />
  <path
   style="fill:#72b3dc;stroke:#c2dffb;stroke-width:1"
   id="25007"
   d="m 29.48,17.469 1.529,0.27 0.121,0.293 0.13,0.541 -0.009,0.077 -2.69,0.982 -0.28,-0.238 0.365,-1.145 0.1,-0.167 0.279,-0.343 0.35,-0.382 0.055,0.004 0.05,0.108 m -0.717,-0.419 -0.77,0.974 -0.226,0.256 -0.631,0.496 -0.329,0.104 -0.089,-0.018 0.436,-0.446 0.848,-0.933 0.41,-0.469 0.351,0.036"
   inkscape:label="Dukes, MA"
   inkscape:connector-curvature="0" />
  
  
  
  
  
  
  
  
  
  
  
  
  
  
  
  
  
  
  
  
  
  
  
  
  
  
  
  
  
  
  
  
  
  
  
  
  
  
  
  
  
  
  
  
  
  
  
  
  
  
  
  
  
  
  
  
  
  
  
  
  
  
  
  
  
  
  
  
  
  
  
  
  
  
  
  
  
  
  
  
  
  
  
  
  
  
  
  
  
  
  
  
  
  
  
  
  
  
  
  
  
  
  
  
  
  
  
  
  
  
  
  
  
  
  
  
  
  
  
  
  
  
  
  
  
  
  
  
  
  
  
  
  
  
  
  
  
  
  
  
  
  
  
  
  
  
  
  
  
  
  
  
  
  
  
  
  
  
  
  
  
  
  
  
  
  
  
  
  
  
  
  
  
  
  
  
  
  
  
  
  
  
  
  
  
  
  
  
  
  
  
  
  
  
  
  
  
  
  
  
  
  
  
  
  
  
  
  
  
  
  
  
  
  
  
  
  
  
  
  
  
  
  
  
  
  
  
  
  
  
  
  
  
  
  
  
  
  
  
  
  
  
  
  
  
  
  
  
  
  
  
  
  
  
  
  
  
  
  
  
  
  
  
  
  
  
  
  
  
  
  
  
  
  
  
  
  
  
  
  
  
  
  
  
  
  
  
  
  
  
  
  
  
  
  
  
  
  
  
  
  
  
  
  
  
  
  
  
  
  
  
  
  
  
  
  
  
  
  
  
  
  
  
  
  
  
  
  
  
  
  
  
  
  
  
  
  
  
  
  
  
  
  
  
  
  
  
  
  
  
  
  
  
  
  
  
  
  
  
  
  
  
  
  
  
  
  
  
  
  
  
  
  
  
  
  
  
  
  
  
  
  
  
  
  
  
  
  
  
  
  
  
  
  
  
  
  
  
  
  
  
  
  
  
  
  
  
  
  
  
  
  
  
  
  
  
  
  
  
  
  
  
  
  
  
  
  
  
  
  
  
  
  
  
  
  
  
  
  
  
  
  
  
  
  
  
  
  
  
  
  
  
  
  
  
  
  
  
  
  
  
  
  
  
  
  
  
  
  
  
  
  
  
  
  
  
  
  
  
  
  
  
  
  
  
  
  
  
  
  
  
  
  
  
  
  
  
  
  
  
  
  
  
  
  
  
  
  
  
  
  
  
  
  
  
  
  
  
  
  
  
  
  
  
  
  
  
  
  
  
  
  
  
  
  
  
  
  
  
  
  
  
  
  
  
  
  
  
  
  
  
  
  
  
  
  
  
  
  
  
  
  
  
  
  
  
  
  
  
  
  
  
  
  
  
  
  
  
  
  
  
  
  
  
  
  
  
  
  
  
  
  
  
  
  
  
  
  
  
  
  
  
  
  
  
  
  
  
  
  
  
  
  
  
  
  
  
  
  
  
  
  
  
  
  
  
  
  
  
  
  
  
  
  
  
  
  
  
  
  
  
  
  
  
  
  
  
  
  
  
  
  
  
  
  
  
  
  
  
  
  
  
  
  
  
  
  
  
  
  
  
  
  
  
  
  
  
  
  
  
  
  
  
  
  
  
  
  
  
  
  
  
  
  
  
  
  
  
  
  
  
  
  
  
  
  
  
  
  
  
  
  
  
  
  
  
  
  
  
  
  
  
  
  
  
  
  
  
  
  
  
  
  
  
  
  
  
  
  
  
  
  
  
  
  
  
  
  
  
  
  
  
  
  
  
  
  
  
  
  
  
  
  
  
  
  
  
  
  
  
  
  
  
  
  
  
  
  
  
  
  
  
  
  
  
  
  
  
  
  
  
  
  
  
  
  
  
  
  
  
  
  
  
  
  
  
  
  
  
  
  
  
  
  
  
  
  
  
  
  
  
  
  
  
  
  
  
  
  
  
  
  
  
  
  
  
  
  
  
  
  
  
  
  
  
  
  
  
  
  
  
  
  
  
  
  
  
  
  
  
  
  
  
  
  
  
  
  
  
  
  
  
  
  
  
  
  
  
  
  
  
  
  
  
  
  
  
  
  
  
  
  
  
  
  
  
  
  
  
  
  
  
  
  
  
  
  
  
  
  
  
  
  
  
  
  
  
  
  
  
  
  
  
  
  
  
  
  
  
  
  
  
  
  
  
  
  
  
  
  
  
  
  
  
  
  
  
  
  
  
  
  
  
  
  
  
  
  
  
  
  
  
  
  
  
  
  
  
  
  
  
  
  
  
  
  
  
  
  
  
  
  
  
  
  
  
  
  
  
  
  
  
  
  
  
  
  
  
  
  
  
  
  
  
  
  
  
  
  
  
  
  
  
  
  
  
  
  
  
  
  
  
  
  
  
  
  
  
  
  
  
  
  
  
  
  
  
  
  
  
  
  
  
  
  
  
  
  
  
  
  
  
  
  
  
  
  
  
  
  
  
  
  
  
  
  
  
  
  
  
  
  
  
  
  
  
  
  
  
  
  
  
  
  
  
  
  
  
  
  
  
  
  
  
  
  
  
  
  
  
  
  
  
  
  
  
  
  
  
  
  
  
  
  
  
  
  
  
  
  
  
  
  
  
  
  
  
  
  
  
  
  
  
  
  
  
  
  
  
  
  
  
  
  
  
  
  
  
  
  
  
  
  
  
  
  
  
  
  
  
  
  
  
  
  
  
  
  
  
  
  
  
  
  
  
  
  
  
  
  
  
  
  
  
  
  
  
  
  
  
  
  
  
  
  
  
  
  
  
  
  
  
  
  
  
  
  
  
  
  
  
  
  
  
  
  
  
  
  
  
  
  
  
  
  
  
  
  
  
  
  
  
  
  
  
  
  
  
  
  
  
  
  
  
  
  
  
  
  
  
  
  
  
  
  
  
  
  
  
  
  
  
  
  
  
  
  
  
  
  
  
  
  
  
  
  
  
  
  
  
  
  
  
  
  
  
  
  
  
  
  
  
  
  
  
  
  
  
  
  
  
  
  
  
  
  
  
  
  
  
  
  
  
  
  
  
  
  
  
  
  
  
  
  
  
  
  
  
  
  
  
  
  
  
  
  
  
  
  
  
  
  
  
  
  
  
  
  
  
  
  
  
  
  
  
  
  
  
  
  
  
  
  
  
  
  
  
  
  
  
  
  
  
  
  
  
  
  
  
  
  
  
  
  
  
  
  
  
  
  
  
  
  
  
  
  
  
  
  
  
  
  
  
  
  
  
  
  
  
  
  
  
  
  
  
  
  
  
  
  
  
  
  
  
  
  
  
  
  
  
  
  
  
  
  
  
  
  
  
  
  
  
  
  
  
  
  
  
  
  
  
  
  
  
  
  
  
  
  
  
  
  
  
  
  
  
  
  
  
  
  
  
  
  
  
  
  
  
  
  
  
  
  
  
  
  
  
  
  
  
  
  
  
  
  
  
  
  
  
  
  
  
  
  
  
  
  
  
  
  
  
  
  
  
  
  
  
  
  
  
  
  
  
  
  
  
  
  
  
  
  
  
  
  
  
  
  
  
  
  
  
  
  
  
  
  
  
  
  
  
  
  
  
  
  
  
  
  
  
  
  
  
  
  
  
  
  
  
  
  
  
  
  
  
  
  
  
  
  
  
  
  
  
  
  
  
  
  
  
  
  
  
  
  
  
  
  
  
  
  
  
  
  
  
  
  
  
  
  
  
  
  
  
  
  
  
  
  
  
  
  
  
  
  
  
  
  
  
  
  
  
  
  
  
  
  
  
  
  
  
  
  
  
  
  
  
  
  
  
  
  
  
  
  
  
  
  
  
  
  
  
  
  
  
  
  
  
  
  
  
  
  
  
  
  
  
  
  
  
  
  
  
  
  
  
  
  
  
  
  
  
  
  
  
  
  
  
  
  
  
  
  
  
  
  
  
  
  
  
  
  
  
  
  
  
  
  
  
  
  
  
  
  
  
  
  
  
  
  
  
  
  
  
  
  
  
  
  
  
  
  
  
  
  
  
  
  
  
  
  
  
  
  
  
  
  
  
  
  
  
  
  
  
  
  
  
  
  
  
  
  
  
  
  
  
  
  
  
  
  
  
  
  
  
  
  
  
  
  
  
  
  
  
  
  
  
  
  
  
  
  
  
  
  
  
  
  
  
  
  
  
  
  
  
  
  
  
  
  
  
  
  
  
  
  
  
  
  
  
  
  
  
  
  
  
  
  
  
  
  
  
  
  
  
  
  
  
  
  
  
  
  
  
  
  
  
  
  
  
  
  
  
  
  
  
  
  
  
  
  
  
  
  
  
  
  
  
  
  
  
  
  
  
  
  
  
  
  
  
  
  
  
  
  
  
  
  
  
  
  
  
  
  
  
  
  
  
  
  
  
  
  
  
  
  
  
  
  
  
  
  
  
  
  
  
  
  
  
  
  
  
  
  
  
  
  
  
  
  
  
  
  
  
  
  
  
  
  
  
  
  
  
  
  
  
</svg>