<?xml version="1.0" encoding="UTF-8" standalone="no"?>
<!--?xml version="1.0" encoding="UTF-8" standalone="no"?-->

<svg
   xmlns:dc="http://purl.org/dc/elements/1.1/"
   xmlns:cc="http://creativecommons.org/ns#"
   xmlns:rdf="http://www.w3.org/1999/02/22-rdf-syntax-ns#"
   xmlns:svg="http://www.w3.org/2000/svg"
   xmlns="http://www.w3.org/2000/svg"
   xmlns:sodipodi="http://sodipodi.sourceforge.net/DTD/sodipodi-0.dtd"
   xmlns:inkscape="http://www.inkscape.org/namespaces/inkscape"
   width="51.322536"
   height="26.474255"
   viewBox="0 0 47.441 24.183213"
   preserveAspectRatio="xMinYMin meet"
   xml:space="preserve"
   id="svg1351"
   version="1.1"
   inkscape:version="0.48.2 r9819"
   sodipodi:docname="MD.svg"><metadata
   id="metadata1381"><rdf:RDF><cc:Work
       rdf:about=""><dc:format>image/svg+xml</dc:format><dc:type
         rdf:resource="http://purl.org/dc/dcmitype/StillImage" /></cc:Work></rdf:RDF></metadata><defs
   id="defs1379" /><sodipodi:namedview
   pagecolor="#ffffff"
   bordercolor="#666666"
   borderopacity="1"
   objecttolerance="10"
   gridtolerance="10"
   guidetolerance="10"
   inkscape:pageopacity="0"
   inkscape:pageshadow="2"
   inkscape:window-width="640"
   inkscape:window-height="480"
   id="namedview1377"
   showgrid="false"
   inkscape:zoom="0.56730769"
   inkscape:cx="-194.71535"
   inkscape:cy="-39.661518"
   inkscape:window-x="0"
   inkscape:window-y="0"
   inkscape:window-maximized="0"
   inkscape:current-layer="svg1351" />
  
  
  
  
  
  
  
  
  
  
  
  
  
  
  
  
  
  
  
  
  
  
  
  
  
  
  
  
  
  
  
  
  
  
  
  
  
  
  
  
  
  
  
  
  
  
  
  
  
  
  
  
  
  
  
  
  
  
  
  
  
  
  
  
  
  
  
  
  
  
  
  
  
  
  
  
  
  
  
  
  
  
  
  
  
  
  
  
  
  
  
  
  
  
  
  
  
  
  
  
  
  
  
  
  
  
  
  
  
  
  
  
  
  
  
  
  
  
  
  
  
  
  
  
  
  
  
  
  
  
  
  
  
  
  
  
  
  
  
  
  
  
  
  
  
  
  
  
  
  
  
  
  
  
  
  
  
  
  
  
  
  
  
  
  
  
  
  
  
  
  
  
  
  
  
  
  
  
  
  
  
  
  
  
  
  
  
  
  
  
  
  
  
  
  
  
  
  
  
  
  
  
  
  
  
  
  
  
  
  
  
  
  
  
  
  
  
  
  
  
  
  
  
  
  
  
  
  
  
  
  
  
  
  
  
  
  
  
  
  
  
  
  
  
  
  
  
  
  
  
  
  
  
  
  
  
  
  
  
  
  
  
  
  
  
  
  
  
  
  
  
  
  
  
  
  
  
  
  
  
  
  
  
  
  
  
  
  
  
  
  
  
  
  
  
  
  
  
  
  
  
  
  
  
  
  
  
  
  
  
  
  
  
  
  
  
  
  
  
  
  
  
  
  
  
  
  
  
  
  
  
  
  
  
  
  
  
  
  
  
  
  
  
  
  
  
  
  
  
  
  
  
  
  
  
  
  
  
  
  
  
  
  
  
  
  
  
  
  
  
  
  
  
  
  
  
  
  
  
  
  
  
  
  
  
  
  
  
  
  
  
  
  
  
  
  
  
  
  
  
  
  
  
  
  
  
  
  
  
  
  
  
  
  
  
  
  
  
  
  
  
  
  
  
  
  
  
  
  
  
  
  
  
  
  
  
  
  
  
  
  
  
  
  
  
  
  
  
  
  
  
  
  
  
  
  
  
  
  
  
  
  
  
  
  
  
  
  
  
  
  
  
  
  
  
  
  
  
  
  
  
  
  
  
  
  
  
  
  
  
  
  
  
  
  
  
  
  
  
  
  
  
  
  
  
  
  
  
  
  
  
  
  
  
  
  
  
  
  
  
  
  
  
  
  
  
  
  
  
  
  
  
  
  
  
  
  
  
  
  
  
  
  
  
  
  
  
  
  
  
  
  
  
  
  
  
  
  
  
  
  
  
  
  
  
  
  
  
  
  
  
  
  
  
  
  
  
  
  
  
  
  
  
  
  
  
  
  
  
  
  
  
  
  
  
  
  
  
  
  
  
  
  
  
  
  
  
  
  
  
  
  
  
  
  
  
  
  
  
  
  
  
  
  
  
  
  
  
  
  
  
  
  
  
  
  
  
  
  
  
  
  
  
  
  
  
  
  
  
  
  
  
  
  
  
  
  
  
  
  
  
  
  
  
  
  
  
  
  
  
  
  
  
  
  
  
  
  
  
  
  
  
  
  
  
  
  
  
  
  
  
  
  
  
  
  
  
  
  
  
  
  
  
  
  
  
  
  
  
  
  
  
  
  
  
  
  
  
  
  
  
  
  
  
  
  
  
  
  
  
  
  
  
  
  
  
  
  
  
  
  
  
  
  
  
  
  
  
  
  
  
  
  
  
  
  
  
  
  
  
  
  
  
  
  
  
  
  
  
  
  
  
  
  
  
  
  
  
  
  
  
  
  
  
  
  
  
  
  
  
  
  
  
  
  
  
  
  
  
  
  
  
  
  
  
  
  
  
  
  
  
  
  
  
  
  
  
  
  
  
  
  
  
  
  
  
  
  
  
  
  
  
  
  
  
  
  
  
  
  
  
  
  
  
  
  
  
  
  
  
  
  
  
  
  
  
  
  
  
  
  
  
  
  
  
  
  
  
  
  
  
  
  
  
  
  
  
  
  
  
  
  
  
  
  
  
  
  
  
  
  
  
  
  
  
  
  
  
  
  
  
  
  
  
  
  
  
  
  
  
  
  
  
  
  
  
  
  
  
  
  
  
  
  
  
  
  
  
  
  
  
  
  
  
  
  
  
  
  
  
  
  
  
  
  
  
  
  
  
  
  
  
  
  
  
  
  
  
  
  
  
  
  
  
  
  
  
  
  
  
  
  
  
  
  
  
  
  
  
  
  
  
  
  
  
  
  
  
  
  
  
  
  
  
  
  
  
  
  
  
  
  
  
  
  
  
  
  
  
  
  
  
  
  
  
  
  
  
  
  
  
  
  
  
  
  
  
  
  
  
  
  
  
  
  
  
  
  
  
  
  
  
  
  
  
  
  
  
  
  
  
  
  
  
  
  
  
  
  
  
  
  
  
  
  
  
  
  
  
  
  
  
  
  
  
  
  
  
  
  
  
  
  
  
  
  
  
  
  
  
  
  
  
  
  
  
  
  
  
  
  
  
  
  
  
  
  
  
  
  
  
  
  
  
  
  
  
  
  
  
  
  
  
  
  
  
  
  
  
  
  
  
  
  
  
  
  
  
  
  
  
  
  
  
  
  
  
  
  
  
  
  
  
  
  
  
  
  
  
  
  
  
  
  
  
  
  
  
  
  
  
  
  
  
  
  
  
  
  
  
  
  
  
  
  
  
  
  
  <path
   style="fill:#72b3dc;stroke:#c2dffb;stroke-width:1"
   d="M 11.123,5.539 11.489,5.471 11.79,6.562 10.758,8.329 8.879,8.432 7.689,7.959 6.071,10.186 5.007,9.947 5.789,6.521 6.977,6.304 11.123,5.539"
   id="24001"
   inkscape:label="Allegany, MD"
   inkscape:connector-curvature="0" />
  <path
   style="fill:#72b3dc;stroke:#c2dffb;stroke-width:1"
   d="M 5.789,6.521 5.007,9.947 3.173,12.16 1.559,14.097 0.5,7.485 1.321,7.337 5.789,6.521"
   id="24023"
   inkscape:label="Garrett, MD"
   inkscape:connector-curvature="0" />
  <path
   style="fill:#72b3dc;stroke:#c2dffb;stroke-width:1"
   d="m 33.943,19.624 0.473,1.234 -0.527,1.149 -3.705,-0.748 -0.395,-0.532 -0.515,-0.896 0.004,-0.24 0.536,-1.644 0.087,-0.077 0.346,-0.049 0.185,-0.015 0.397,0.054 3.114,1.764"
   id="24037"
   inkscape:label="St. Mary's, MD"
   inkscape:connector-curvature="0" />
  <path
   style="fill:#72b3dc;stroke:#c2dffb;stroke-width:1"
   d="m 26.263,16.054 0.596,1.072 0.157,-0.338 0.026,-0.1 0.046,-0.058 0.13,-0.089 0.317,-0.149 1.027,-0.177 1.221,0.285 0.039,0.072 0.245,0.685 0.5,0.149 0.153,-0.005 0.109,0.459 -0.397,-0.054 -0.185,0.015 -0.346,0.049 -0.087,0.077 -0.536,1.644 -0.004,0.24 0.515,0.896 0.052,0.329 0,0.167 -0.022,0.1 -3.867,-0.618 -0.104,-0.023 -0.378,-0.184 -0.217,-0.374 -0.27,-0.838 0.026,-0.411 0.154,-0.554 0.406,-0.731 0.437,-0.541 0.257,-0.995"
   id="24017"
   inkscape:label="Charles, MD"
   inkscape:connector-curvature="0" />
  <path
   style="fill:#72b3dc;stroke:#c2dffb;stroke-width:1"
   d="m 44.026,15.673 2.861,-0.625 0.05,0.473 0.004,0.338 -0.009,0.461 -0.04,0.419 -0.393,2.957 -0.026,0.181 -0.032,0.125 -0.056,0.207 -0.033,0.149 -0.159,0.495 -3.672,1.249 0.558,-1.392 -0.316,-1.155 -0.918,-1.094 2.41,-0.681 0.302,-0.667 0.05,-0.303 -0.217,-0.607 -0.364,-0.53"
   id="24047"
   inkscape:label="Worcester, MD"
   inkscape:connector-curvature="0" />
  <path
   style="fill:#72b3dc;stroke:#c2dffb;stroke-width:1"
   d="m 40.195,15.067 0.135,0.486 0.108,0.369 0.116,0.407 0.303,-0.05 0.689,-0.117 0.036,-0.004 0.293,-0.055 0.586,-0.112 0.206,-0.041 0.502,-0.094 0.037,-0.006 0.137,-0.027 0.159,-0.03 0.379,-0.086 0.145,-0.034 0.364,0.53 0.217,0.607 -0.05,0.303 -0.302,0.667 -2.41,0.681 -2.362,1.049 -0.587,-0.203 0.019,-0.968 0.306,-2.001 0.063,-0.118 0.208,-0.117 0.233,-0.212 0.47,-0.824"
   id="24045"
   inkscape:label="Wicomico, MD"
   inkscape:connector-curvature="0" />
  <path
   style="fill:#72b3dc;stroke:#c2dffb;stroke-width:1"
   d="m 13.85,5.025 6.099,-1.154 -0.145,0.708 -0.148,0.4 -0.081,0.137 -0.353,0.228 -0.025,0.14 L 19.119,6.422 19.096,7.63 18.912,9.392 18.525,9.437 17.064,7.431 14.836,6.201 14.67,6.017 14.22,5.691 13.859,5.556 13.495,5.516 13.161,5.507 13.102,5.529 13.034,5.606 12.778,6.011 12.43,6.652 12.313,6.666 11.79,6.562 11.489,5.471 13.85,5.025"
   id="24043"
   inkscape:label="Washington, MD"
   inkscape:connector-curvature="0" />
  <path
   style="fill:#72b3dc;stroke:#c2dffb;stroke-width:1"
   d="m 33.943,19.624 -3.114,-1.764 -0.109,-0.459 -0.662,-2.682 0.049,-0.108 0.27,-0.234 0.248,-0.028 0.374,0.536 0.686,-0.03 0.004,0.171 0.059,0.27 0.513,1.745 0.046,0.126 0.157,0.289 0.19,0.252 0.446,0.324 0.834,0.672 0.036,0.067 0.045,0.267 -0.072,0.586"
   id="24009"
   inkscape:label="Calvert, MD"
   inkscape:connector-curvature="0" />
  <path
   style="fill:#72b3dc;stroke:#c2dffb;stroke-width:1"
   d="m 36.8,11.042 0.095,0.306 -0.12,1.839 -0.101,0.405 0.032,0.045 0.527,0.443 0.27,0.062 -1.906,0.951 0.031,-0.058 -0.139,-0.253 -1.019,-0.811 -0.167,0.019 -0.545,0.193 -0.032,0.023 -0.103,0.238 0,0.131 0.158,0.149 0.017,0.131 -0.153,0.139 -0.112,-0.171 -0.114,-0.852 0.009,-0.28 0.192,-0.747 0.021,-0.032 0.261,-0.311 0.699,-0.054 2.199,-1.505"
   id="24041"
   inkscape:label="Talbot, MD"
   inkscape:connector-curvature="0" />
  <path
   style="fill:#72b3dc;stroke:#c2dffb;stroke-width:1"
   d="m 36.8,11.042 1.343,-3.282 1.79,6.373 -2.43,0.009 -0.27,-0.062 -0.527,-0.443 -0.032,-0.045 0.101,-0.405 0.12,-1.839 -0.095,-0.306"
   id="24011"
   inkscape:label="Caroline, MD"
   inkscape:connector-curvature="0" />
  <path
   style="fill:#72b3dc;stroke:#c2dffb;stroke-width:1"
   d="m 35.047,5.377 2.272,-0.546 0.284,1.009 0.18,0.636 -1.289,0.22 L 35.673,6.927 35.344,7.071 34.961,7.557 34.289,9.243 33.871,9.442 33.564,9.433 32.978,8.834 32.964,8.572 33,8.365 33.415,6.435 33.528,6.242 34.001,5.606 35.047,5.377"
   id="24029"
   inkscape:label="Kent, MD"
   inkscape:connector-curvature="0" />
  <path
   style="fill:#72b3dc;stroke:#c2dffb;stroke-width:1"
   d="m 30.346,8.42 -0.91,-0.064 -0.767,-0.253 -0.188,-1.222 1.856,0 0.009,1.539"
   id="24510"
   inkscape:label="Baltimore City, MD"
   inkscape:connector-curvature="0" />
  <path
   style="fill:#72b3dc;stroke:#c2dffb;stroke-width:1"
   d="m 27.092,10.24 0.536,0.269 1.695,1.236 0.37,0.825 0.365,2.149 0.662,2.682 -0.153,0.005 -0.5,-0.149 -0.245,-0.685 -0.039,-0.072 -1.221,-0.285 -1.027,0.177 -0.317,0.149 -0.13,0.089 -0.046,0.058 -0.026,0.1 -0.157,0.338 -0.596,-1.072 0.243,-1.124 -0.005,-0.057 1.074,-1.686 -1.173,-0.604 0.69,-2.343"
   id="24033"
   inkscape:label="Prince George's, MD"
   inkscape:connector-curvature="0" />
  <path
   style="fill:#72b3dc;stroke:#c2dffb;stroke-width:1"
   d="m 30.346,8.42 0.019,0.002 1.198,1.141 0.586,1.077 0.067,0.14 -0.359,1.006 -0.249,0.797 -0.365,1.635 0.087,0.286 0.066,0.113 0.289,0.238 -0.686,0.03 -0.374,-0.536 -0.248,0.028 -0.27,0.234 -0.049,0.108 -0.365,-2.149 -0.37,-0.825 -1.695,-1.236 1.095,-1.694 0.713,-0.459 0.91,0.064"
   id="24003"
   inkscape:label="Anne Arundel, MD"
   inkscape:connector-curvature="0" />
  <path
   style="fill:#72b3dc;stroke:#c2dffb;stroke-width:1"
   d="m 26.579,7.445 2.144,1.37 -1.095,1.694 -0.536,-0.269 -0.162,0.121 -0.424,0.023 -0.113,-0.036 -2.068,-1.407 -0.474,-0.486 -0.198,-0.258 -0.009,-0.03 0.018,-0.069 0.123,-0.134 0.008,-0.009 2.786,-0.51"
   id="24027"
   inkscape:label="Howard, MD"
   inkscape:connector-curvature="0" />
  <path
   style="fill:#72b3dc;stroke:#c2dffb;stroke-width:1"
   d="m 23.785,7.964 -0.123,0.134 -0.018,0.069 0.009,0.03 0.198,0.258 0.474,0.486 2.068,1.407 0.113,0.036 0.424,-0.023 0.162,-0.121 -0.69,2.343 -0.513,-0.266 -0.551,0.897 -2.347,-1.176 -0.469,0.053 -0.483,0.023 -0.355,-0.023 -0.019,-0.008 -0.639,-0.429 -0.063,-0.045 -0.006,0 -0.057,-0.076 -0.069,-0.22 -0.003,-0.01 0.012,-0.117 0.024,-0.162 0.004,-0.059 0.041,-0.108 0.396,-0.626 2.48,-2.267"
   id="24031"
   inkscape:label="Montgomery, MD"
   inkscape:connector-curvature="0" />
  <path
   style="fill:#72b3dc;stroke:#c2dffb;stroke-width:1"
   d="m 36.8,11.042 -2.199,1.505 -0.312,-3.304 0.672,-1.686 0.383,-0.486 0.329,-0.144 0.821,-0.231 1.289,-0.22 0.36,1.284 -1.343,3.282"
   id="24035"
   inkscape:label="Queen Anne's, MD"
   inkscape:connector-curvature="0" />
  <path
   style="fill:#72b3dc;stroke:#c2dffb;stroke-width:1"
   d="M 32.816,1.216 36.161,0.5 37.319,4.831 35.047,5.377 33.878,3.362 31.874,1.42 32.816,1.216"
   id="24015"
   inkscape:label="Cecil, MD"
   inkscape:connector-curvature="0" />
  <path
   style="fill:#72b3dc;stroke:#c2dffb;stroke-width:1"
   d="M 31.811,1.433 31.874,1.42 33.878,3.362 34.263,4.489 34.277,4.547 33.312,5.682 32.933,6.13 32.527,6.575 32.261,6.4 32.027,6.232 31.978,6.116 31.094,5.065 30.504,4.619 29.922,4.443 29.72,4.484 29.458,4.277 29.053,3.672 28.958,3.447 28.633,2.099 31.811,1.433"
   id="24025"
   inkscape:label="Harford, MD"
   inkscape:connector-curvature="0" />
  <path
   style="fill:#72b3dc;stroke:#c2dffb;stroke-width:1"
   d="m 26.534,2.536 2.099,-0.437 0.325,1.348 0.095,0.225 0.405,0.605 0.262,0.207 0.202,-0.041 0.582,0.176 0.59,0.446 0.884,1.051 0.049,0.116 -0.049,0 -0.167,0.077 -0.234,0.78 -0.098,0.563 0.17,0.086 0.056,-0.019 -0.011,0.095 -0.031,0.105 -0.267,0.45 L 31.257,8.536 30.649,8.477 30.365,8.422 30.346,8.42 30.337,6.881 l -1.856,0 0.188,1.222 0.767,0.253 -0.713,0.459 -2.144,-1.37 -0.383,-1.343 0.157,-1.019 0.181,-2.547"
   id="24005"
   inkscape:label="Baltimore County, MD"
   inkscape:connector-curvature="0" />
  <path
   style="fill:#72b3dc;stroke:#c2dffb;stroke-width:1"
   d="M 26.534,2.536 26.353,5.083 26.196,6.102 26.579,7.445 23.793,7.955 23.996,6.476 24.032,6.08 24.023,6.053 22.815,5.17 21.998,4.429 22.385,3.388 24.482,2.964 26.534,2.536"
   id="24013"
   inkscape:label="Carroll, MD"
   inkscape:connector-curvature="0" />
  <path
   style="fill:#72b3dc;stroke:#c2dffb;stroke-width:1"
   d="m 20.043,3.852 2.342,-0.464 -0.387,1.041 0.817,0.741 1.208,0.883 0.009,0.027 -0.036,0.396 -0.203,1.479 -0.008,0.009 -2.48,2.267 -2.393,-0.839 0.184,-1.762 0.023,-1.208 0.078,-0.938 0.025,-0.14 0.353,-0.228 0.081,-0.137 0.148,-0.4 0.145,-0.708 0.094,-0.019"
   id="24021"
   inkscape:label="Frederick, MD"
   inkscape:connector-curvature="0" />
  <path
   style="fill:#72b3dc;stroke:#c2dffb;stroke-width:1"
   id="24039"
   d="m 39.483,19.51 2.362,-1.049 0.918,1.094 0.316,1.155 -0.558,1.392 -0.33,0.645 -1.186,-0.032 -0.874,-1.952 -0.648,-1.253 m -1.818,2.001 0.33,-0.116 0.126,-0.262 0.054,-0.256 0.14,0.328 0.143,0.424 0.073,0.23 -0.045,0.071 -0.109,0.045 -0.148,-0.045 -0.274,-0.197 -0.29,-0.222 m 0.8,2.001 -0.109,-0.374 -0.077,-0.4 -0.006,-0.14 0.028,-0.094 0.185,-0.131 0.077,-0.028 0.09,0.023 0.329,0.139 0.067,0.055 0.023,0.121 -0.131,0.06 -0.022,0.391 0.067,0.271 0.018,0.243 -0.027,0.247 -0.271,0.077 -0.179,-0.179 -0.062,-0.281"
   inkscape:label="Somerset, MD"
   inkscape:connector-curvature="0" />
  <path
   style="fill:#72b3dc;stroke:#c2dffb;stroke-width:1"
   id="24019"
   d="m 37.503,14.142 2.43,-0.009 0.262,0.934 -0.47,0.824 -0.233,0.212 -0.208,0.117 -0.063,0.118 -0.306,2.001 -0.019,0.968 -1.172,0.356 -1.366,0.204 -0.139,-0.045 -0.775,-0.473 -0.045,-0.033 -0.14,-0.252 -0.613,-1.204 -0.32,-0.707 0.083,-1.496 0.056,-0.095 0.222,-0.189 0.09,-0.05 0.82,-0.23 1.906,-0.951 m 0.162,7.369 -0.022,-0.018 -0.009,0.006 -0.086,-0.149 -0.072,-0.253 -0.072,-0.537 0.14,-0.171 0.221,-0.05 0.333,0.271 0.019,0.077 0.058,0.19 -0.054,0.256 -0.126,0.262 -0.33,0.116"
   inkscape:label="Dorchester, MD"
   inkscape:connector-curvature="0" />
  
  
  
  
  
  
  
  
  
  
  
  
  
  
  
  
  
  
  
  
  
  
  
  
  
  
  
  
  
  
  
  
  
  
  
  
  
  
  
  
  
  
  
  
  
  
  
  
  
  
  
  
  
  
  
  
  
  
  
  
  
  
  
  
  
  
  
  
  
  
  
  
  
  
  
  
  
  
  
  
  
  
  
  
  
  
  
  
  
  
  
  
  
  
  
  
  
  
  
  
  
  
  
  
  
  
  
  
  
  
  
  
  
  
  
  
  
  
  
  
  
  
  
  
  
  
  
  
  
  
  
  
  
  
  
  
  
  
  
  
  
  
  
  
  
  
  
  
  
  
  
  
  
  
  
  
  
  
  
  
  
  
  
  
  
  
  
  
  
  
  
  
  
  
  
  
  
  
  
  
  
  
  
  
  
  
  
  
  
  
  
  
  
  
  
  
  
  
  
  
  
  
  
  
  
  
  
  
  
  
  
  
  
  
  
  
  
  
  
  
  
  
  
  
  
  
  
  
  
  
  
  
  
  
  
  
  
  
  
  
  
  
  
  
  
  
  
  
  
  
  
  
  
  
  
  
  
  
  
  
  
  
  
  
  
  
  
  
  
  
  
  
  
  
  
  
  
  
  
  
  
  
  
  
  
  
  
  
  
  
  
  
  
  
  
  
  
  
  
  
  
  
  
  
  
  
  
  
  
  
  
  
  
  
  
  
  
  
  
  
  
  
  
  
  
  
  
  
  
  
  
  
  
  
  
  
  
  
  
  
  
  
  
  
  
  
  
  
  
  
  
  
  
  
  
  
  
  
  
  
  
  
  
  
  
  
  
  
  
  
  
  
  
  
  
  
  
  
  
  
  
  
  
  
  
  
  
  
  
  
  
  
  
  
  
  
  
  
  
  
  
  
  
  
  
  
  
  
  
  
  
  
  
  
  
  
  
  
  
  
  
  
  
  
  
  
  
  
  
  
  
  
  
  
  
  
  
  
  
  
  
  
  
  
  
  
  
  
  
  
  
  
  
  
  
  
  
  
  
  
  
  
  
  
  
  
  
  
  
  
  
  
  
  
  
  
  
  
  
  
  
  
  
  
  
  
  
  
  
  
  
  
  
  
  
  
  
  
  
  
  
  
  
  
  
  
  
  
  
  
  
  
  
  
  
  
  
  
  
  
  
  
  
  
  
  
  
  
  
  
  
  
  
  
  
  
  
  
  
  
  
  
  
  
  
  
  
  
  
  
  
  
  
  
  
  
  
  
  
  
  
  
  
  
  
  
  
  
  
  
  
  
  
  
  
  
  
  
  
  
  
  
  
  
  
  
  
  
  
  
  
  
  
  
  
  
  
  
  
  
  
  
  
  
  
  
  
  
  
  
  
  
  
  
  
  
  
  
  
  
  
  
  
  
  
  
  
  
  
  
  
  
  
  
  
  
  
  
  
  
  
  
  
  
  
  
  
  
  
  
  
  
  
  
  
  
  
  
  
  
  
  
  
  
  
  
  
  
  
  
  
  
  
  
  
  
  
  
  
  
  
  
  
  
  
  
  
  
  
  
  
  
  
  
  
  
  
  
  
  
  
  
  
  
  
  
  
  
  
  
  
  
  
  
  
  
  
  
  
  
  
  
  
  
  
  
  
  
  
  
  
  
  
  
  
  
  
  
  
  
  
  
  
  
  
  
  
  
  
  
  
  
  
  
  
  
  
  
  
  
  
  
  
  
  
  
  
  
  
  
  
  
  
  
  
  
  
  
  
  
  
  
  
  
  
  
  
  
  
  
  
  
  
  
  
  
  
  
  
  
  
  
  
  
  
  
  
  
  
  
  
  
  
  
  
  
  
  
  
  
  
  
  
  
  
  
  
  
  
  
  
  
  
  
  
  
  
  
  
  
  
  
  
  
  
  
  
  
  
  
  
  
  
  
  
  
  
  
  
  
  
  
  
  
  
  
  
  
  
  
  
  
  
  
  
  
  
  
  
  
  
  
  
  
  
  
  
  
  
  
  
  
  
  
  
  
  
  
  
  
  
  
  
  
  
  
  
  
  
  
  
  
  
  
  
  
  
  
  
  
  
  
  
  
  
  
  
  
  
  
  
  
  
  
  
  
  
  
  
  
  
  
  
  
  
  
  
  
  
  
  
  
  
  
  
  
  
  
  
  
  
  
  
  
  
  
  
  
  
  
  
  
  
  
  
  
  
  
  
  
  
  
  
  
  
  
  
  
  
  
  
  
  
  
  
  
  
  
  
  
  
  
  
  
  
  
  
  
  
  
  
  
  
  
  
  
  
  
  
  
  
  
  
  
  
  
  
  
  
  
  
  
  
  
  
  
  
  
  
  
  
  
  
  
  
  
  
  
  
  
  
  
  
  
  
  
  
  
  
  
  
  
  
  
  
  
  
  
  
  
  
  
  
  
  
  
  
  
  
  
  
  
  
  
  
  
  
  
  
  
  
  
  
  
  
  
  
  
  
  
  
  
  
  
  
  
  
  
  
  
  
  
  
  
  
  
  
  
  
  
  
  
  
  
  
  
  
  
  
  
  
  
  
  
  
  
  
  
  
  
  
  
  
  
  
  
  
  
  
  
  
  
  
  
  
  
  
  
  
  
  
  
  
  
  
  
  
  
  
  
  
  
  
  
  
  
  
  
  
  
  
  
  
  
  
  
  
  
  
  
  
  
  
  
  
  
  
  
  
  
  
  
  
  
  
  
  
  
  
  
  
  
  
  
  
  
  
  
  
  
  
  
  
  
  
  
  
  
  
  
  
  
  
  
  
  
  
  
  
  
  
  
  
  
  
  
  
  
  
  
  
  
  
  
  
  
  
  
  
  
  
  
  
  
  
  
  
  
  
  
  
  
  
  
  
  
  
  
  
  
  
  
  
  
  
  
  
  
  
  
  
  
  
  
  
  
  
  
  
  
  
  
  
  
  
  
  
  
  
  
  
  
  
  
  
  
  
  
  
  
  
  
  
  
  
  
  
  
  
  
  
  
  
  
  
  
  
  
  
  
  
  
  
  
  
  
  
  
  
  
  
  
  
  
  
  
  
  
  
  
  
  
  
  
  
  
  
  
  
  
  
  
  
  
  
  
  
  
  
  
  
  
  
  
  
  
  
  
  
  
  
  
  
  
  
  
  
  
  
  
  
  
  
  
  
  
  
  
  
  
  
  
  
  
  
  
  
  
  
  
  
  
  
  
  
  
  
  
  
  
  
  
  
  
  
  
  
  
  
  
  
  
  
  
  
  
  
  
  
  
  
  
  
  
  
  
  
  
  
  
  
  
  
  
  
  
  
  
  
  
  
  
  
  
  
  
  
  
  
  
  
  
  
  
  
  
  
  
  
  
  
  
  
  
  
  
  
  
  
  
  
  
  
  
  
  
  
  
  
  
  
  
  
  
  
  
  
  
  
  
  
  
  
  
  
  
  
  
  
  
  
  
  
  
  
  
  
  
  
  
  
  
  
  
  
  
  
  
  
  
  
  
  
  
  
  
  
  
  
  
  
  
  
  
  
  
  
  
  
  
  
  
  
  
  
  
  
  
  
  
  
  
  
  
  
  
  
  
  
  
  
  
  
  
  
  
  
  
  
  
  
  
  
  
  
  
  
  
  
  
  
  
  
  
  
  
  
  
  
  
  
  
  
  
  
  
  
  
  
  
  
  
  
  
  
  
  
  
  
  
  
  
  
  
  
  
  
  
  
  
  
  
  
  
  
  
  
  
  
  
  
  
  
  
  
  
  
  
  
  
  
  
  
  
  
  
  
  
  
  
  
  
  
  
  
  
  
  
  
  
  
  
  
  
  
  
  
  
  
  
  
  
  
  
  
  
  
  
  
  
  
  
  
  
  
  
  
  
  
  
  
  
  
  
  
  
  
  
  
  
  
  
  
  
  
  
  
  
  
  
  
  
  
  
  
  
  
  
  
  
  
  
  
  
  
  
  
  
  
  
  
  
  
  
  
  
  
  
  
  
  
  
  
  
  
  
  
  
  
  
  
  
  
  
  
  
  
  
  
  
  
  
  
  
  
  
  
  
  
  
  
  
  
  
  
  
  
  
  
  
  
  
  
  
  
  
  
  
  
  
  
  
  
  
  
  
  
  
  
  
  
  
  
  
  
  
  
  
  
  
  
  
  
  
  
  
  
  
  
  
  
  
  
  
  
  
  
  
  
  
  
  
  
  
  
  
  
  
  
  
  
  
  
  
  
  
  
  
  
  
  
  
  
  
  
  
  
  
  
  
  
  
  
  
  
  
  
  
  
  
  
  
  
  
  
  
  
  
  
  
  
  
  
  
  
  
  
  
  
  
  
  
  
  
  
  
  
  
  
  
  
</svg>