<?xml version="1.0" encoding="UTF-8" standalone="no"?>
<!--?xml version="1.0" encoding="UTF-8" standalone="no"?-->

<svg
   xmlns:dc="http://purl.org/dc/elements/1.1/"
   xmlns:cc="http://creativecommons.org/ns#"
   xmlns:rdf="http://www.w3.org/1999/02/22-rdf-syntax-ns#"
   xmlns:svg="http://www.w3.org/2000/svg"
   xmlns="http://www.w3.org/2000/svg"
   xmlns:sodipodi="http://sodipodi.sourceforge.net/DTD/sodipodi-0.dtd"
   xmlns:inkscape="http://www.inkscape.org/namespaces/inkscape"
   width="84.907585"
   height="89.075829"
   viewBox="0 0 78.486003 81.367343"
   preserveAspectRatio="xMinYMin meet"
   xml:space="preserve"
   id="svg1407"
   version="1.1"
   inkscape:version="0.48.2 r9819"
   sodipodi:docname="MI.svg"><metadata
   id="metadata1496"><rdf:RDF><cc:Work
       rdf:about=""><dc:format>image/svg+xml</dc:format><dc:type
         rdf:resource="http://purl.org/dc/dcmitype/StillImage" /></cc:Work></rdf:RDF></metadata><defs
   id="defs1494" /><sodipodi:namedview
   pagecolor="#ffffff"
   bordercolor="#666666"
   borderopacity="1"
   objecttolerance="10"
   gridtolerance="10"
   guidetolerance="10"
   inkscape:pageopacity="0"
   inkscape:pageshadow="2"
   inkscape:window-width="640"
   inkscape:window-height="480"
   id="namedview1492"
   showgrid="false"
   inkscape:zoom="0.56730769"
   inkscape:cx="-73.307224"
   inkscape:cy="-75.459964"
   inkscape:window-x="0"
   inkscape:window-y="0"
   inkscape:window-maximized="0"
   inkscape:current-layer="svg1407" />
  
  
  
  
  
  
  
  
  
  
  
  
  
  
  
  
  
  
  
  
  
  
  
  
  
  
  
  
  
  
  
  
  
  
  
  
  
  
  
  
  
  
  
  
  
  
  
  
  
  
  
  
  
  
  
  
  
  
  
  
  
  
  
  
  
  
  
  
  
  
  
  
  
  
  
  
  
  
  
  
  
  
  
  
  
  
  
  
  
  
  
  
  
  
  
  
  
  
  
  
  
  
  
  
  
  
  
  
  
  
  
  
  
  
  
  
  
  
  
  
  
  
  
  
  
  
  
  
  
  
  
  
  
  
  
  
  
  
  
  
  
  
  
  
  
  
  
  
  
  
  
  
  
  
  
  
  
  
  
  
  
  
  
  
  
  
  
  
  
  
  
  
  
  
  
  
  
  
  
  
  
  
  
  
  
  
  
  
  
  
  
  
  
  
  
  
  
  
  
  
  
  
  
  
  
  
  
  
  
  
  
  
  
  
  
  
  
  
  
  
  
  
  
  
  
  
  
  
  
  
  
  
  
  
  
  
  
  
  
  
  
  
  
  
  
  
  
  
  
  
  
  
  
  
  
  
  
  
  
  
  
  
  
  
  
  
  
  
  
  
  
  
  
  
  
  
  
  
  
  
  
  
  
  
  
  
  
  
  
  
  
  
  
  
  
  
  
  
  
  
  
  
  
  
  
  
  
  
  
  
  
  
  
  
  
  
  
  
  
  
  
  
  
  
  
  
  
  
  
  
  
  
  
  
  
  
  
  
  
  
  
  
  
  
  
  
  
  
  
  
  
  
  
  
  
  
  
  
  
  
  
  
  
  
  
  
  
  
  
  
  
  
  
  
  
  
  
  
  
  
  
  
  
  
  
  
  
  
  
  
  
  
  
  
  
  
  
  
  
  
  
  
  
  
  
  
  
  
  
  
  
  
  
  
  
  
  
  
  
  
  
  
  
  
  
  
  
  
  
  
  
  
  
  
  
  
  
  
  
  
  
  
  
  
  
  
  
  
  
  
  
  
  
  
  
  
  
  
  
  
  
  
  
  
  
  
  
  
  
  
  
  
  
  
  
  
  
  
  
  
  
  
  
  
  
  
  
  
  
  
  
  
  
  
  
  
  
  
  
  
  
  
  
  
  
  
  
  
  
  
  
  
  
  
  
  
  
  
  
  
  
  
  
  
  
  
  
  
  
  
  
  
  
  
  
  
  
  
  
  
  
  
  
  
  
  
  
  
  
  
  
  
  
  
  
  
  
  
  
  
  
  
  
  
  
  
  
  
  
  
  
  
  
  
  
  
  
  
  
  
  
  
  
  
  
  
  
  
  
  
  
  
  
  
  
  
  
  
  
  
  
  
  
  
  
  
  
  
  
  
  
  
  
  
  
  
  
  
  
  
  
  
  
  
  
  
  
  
  
  
  
  
  
  
  
  
  
  
  
  
  
  
  
  
  
  
  
  
  
  
  
  
  
  
  
  
  
  
  
  
  
  
  
  
  
  
  
  
  
  
  
  
  
  
  
  
  
  
  
  
  
  
  
  
  
  
  
  
  
  
  
  
  
  
  
  
  
  
  
  
  
  
  
  
  
  
  
  
  
  
  
  
  
  
  
  
  
  
  
  
  
  
  
  
  
  
  
  
  
  
  
  
  
  
  
  
  
  
  
  
  
  
  
  
  
  
  
  
  
  
  
  
  
  
  
  
  
  
  
  
  
  
  
  
  
  
  
  
  
  
  
  
  
  
  
  
  
  
  
  
  
  
  
  
  
  
  
  
  
  
  
  
  
  
  
  
  
  
  
  
  
  
  
  
  
  
  
  
  
  
  
  
  
  
  
  
  
  
  
  
  
  
  
  
  
  
  
  
  
  
  
  
  
  
  
  
  
  
  
  
  
  
  
  
  
  
  
  
  
  
  
  
  
  
  
  
  
  
  
  
  
  
  
  
  
  
  
  
  
  
  
  
  
  
  
  
  
  
  
  
  
  
  
  
  
  
  
  
  
  
  
  
  
  
  
  
  
  
  
  
  
  
  
  
  
  
  
  
  
  
  
  
  
  
  
  
  
  
  
  
  
  
  
  
  
  
  
  
  
  
  
  
  
  
  
  
  
  
  
  
  
  
  
  
  
  
  
  
  
  
  
  
  
  
  
  
  
  
  
  
  
  
  
  
  
  
  
  
  
  
  
  
  
  
  
  
  
  
  
  
  
  
  
  
  
  
  
  
  
  
  
  
  
  
  
  
  
  
  
  
  
  
  
  
  
  
  
  
  
  
  
  
  
  
  
  
  
  
  
  
  
  
  
  
  
  
  
  
  
  
  
  
  
  
  
  
  
  
  
  
  
  
  
  
  
  
  
  
  
  
  
  
  
  
  
  
  
  
  
  
  
  
  
  
  
  
  
  
  
  
  
  
  
  
  
  
  
  
  
  
  
  
  
  
  
  
  
  
  
  
  
  
  
  
  
  
  
  
  
  
  
  
  
  
  
  
  
  
  
  
  
  
  
  
  
  
  
  
  
  
  
  
  
  
  
  
  
  
  
  
  
  
  
  
  
  
  
  
  
  
  
  
  
  
  
  
  
  
  
  
  
  
  
  
  
  
  
  
  
  
  
  
  
  
  
  
  
  
  
  
  
  
  
  
  
  
  
  
  
  
  
  
  
  
  
  
  
  
  
  
  
  
  
  
  
  
  
  
  
  
  
  
  
  
  
  
  
  
  
  
  
  
  
  
  
  
  
  
  
  
  
  
  
  
  
  
  
  
  <path
   style="fill:#72b3dc;stroke:#c2dffb;stroke-width:1"
   d="m 5.042,19.651 0.235,-0.019 0.131,2.213 1.168,1.055 3.348,-0.234 0.158,2.213 3.345,-0.243 0.22,3.028 -0.635,-0.311 -0.613,-0.207 -0.38,-0.081 L 11.533,26.966 5.069,25.64 4.159,25.451 3.33,25.276 1.518,23.049 0.5,22.495 1.095,22.012 1.271,21.913 2.7,21.34 3.254,21.183 3.736,20.98 3.881,20.894 4.155,20.633 4.804,19.988 5.042,19.651"
   id="26053"
   inkscape:label="Gogebic, MI"
   inkscape:connector-curvature="0" />
  <path
   style="fill:#72b3dc;stroke:#c2dffb;stroke-width:1"
   d="m 13.273,15.644 0.261,3.421 0.608,-0.045 0.078,1.095 -1.108,0.072 0.089,1.456 0.14,1.884 0.086,1.109 -3.345,0.243 L 9.924,22.666 6.576,22.9 5.408,21.845 5.277,19.632 l -0.235,0.019 0.335,-0.415 0.144,-0.117 0.351,-0.207 0.617,-0.194 0.41,-0.064 0.118,0.018 0.166,0.063 1.808,-0.306 0.19,-0.067 0.369,-0.199 3.181,-2.006 0.542,-0.513"
   id="26131"
   inkscape:label="Ontonagon, MI"
   inkscape:connector-curvature="0" />
  <path
   style="fill:#72b3dc;stroke:#c2dffb;stroke-width:1"
   d="m 69.146,74.078 1.106,-0.248 1.185,-0.171 0.081,0.036 1.068,0.662 -1.073,1.367 -0.513,0.918 -0.406,0.739 -0.04,0.078 -0.014,0.058 0.017,0.996 -2.924,0.496 -0.699,-4.602 2.212,-0.329"
   id="26115"
   inkscape:label="Monroe, MI"
   inkscape:connector-curvature="0" />
  <path
   style="fill:#72b3dc;stroke:#c2dffb;stroke-width:1"
   d="m 66.934,74.407 0.699,4.602 -1.109,0.194 -4.544,0.744 -0.602,-4.719 2.194,-0.258 3.362,-0.563"
   id="26091"
   inkscape:label="Lenawee, MI"
   inkscape:connector-curvature="0" />
  <path
   style="fill:#72b3dc;stroke:#c2dffb;stroke-width:1"
   d="m 61.378,75.228 0.602,4.719 -0.364,0.058 -3.854,0.59 -0.279,-0.801 -0.487,-4.027 1.108,-0.102 3.274,-0.437"
   id="26059"
   inkscape:label="Hillsdale, MI"
   inkscape:connector-curvature="0" />
  <path
   style="fill:#72b3dc;stroke:#c2dffb;stroke-width:1"
   d="m 52.57,76.292 4.426,-0.525 0.487,4.027 -3.534,0.415 -0.91,0.098 -0.469,-4.015"
   id="26023"
   inkscape:label="Branch, MI"
   inkscape:connector-curvature="0" />
  <path
   style="fill:#72b3dc;stroke:#c2dffb;stroke-width:1"
   d="m 48.131,76.814 4.439,-0.522 0.469,4.015 -3.498,0.402 -1.253,0.134 -0.157,-4.029"
   id="26149"
   inkscape:label="St. Joseph, MI"
   inkscape:connector-curvature="0" />
  <path
   style="fill:#72b3dc;stroke:#c2dffb;stroke-width:1"
   d="m 43.764,77.247 4.367,-0.433 0.157,4.029 -2.582,0.262 -1.555,0.166 -0.387,-4.024"
   id="26027"
   inkscape:label="Cass, MI"
   inkscape:connector-curvature="0" />
  <path
   style="fill:#72b3dc;stroke:#c2dffb;stroke-width:1"
   d="m 42.19,75.173 1.574,2.074 0.387,4.024 -2.84,0.293 -2.866,0.275 0.004,-0.008 0.42,-0.352 0.526,-0.505 0.329,-0.365 0.506,-0.689 0.175,-0.334 0.117,-0.325 0.172,-0.771 0.491,-1.42 0.19,-0.4 0.815,-1.497"
   id="26021"
   inkscape:label="Berrien, MI"
   inkscape:connector-curvature="0" />
  <path
   style="fill:#72b3dc;stroke:#c2dffb;stroke-width:1"
   d="m 72.816,68.855 1.997,-0.32 -0.077,0.693 -0.035,0.122 -0.217,0.519 -0.31,0.207 -0.262,0.131 -0.239,0.064 -0.036,0.007 -0.411,0.212 -0.13,0.14 -0.127,0.257 -0.207,0.703 0.004,0.044 0,0.042 0.055,0.744 -0.068,1.176 -0.167,0.761 -1.068,-0.662 -0.081,-0.036 -1.185,0.171 -1.106,0.248 -0.71,-4.477 4.38,-0.746"
   id="26163"
   inkscape:label="Wayne, MI"
   inkscape:connector-curvature="0" />
  <path
   style="fill:#72b3dc;stroke:#c2dffb;stroke-width:1"
   d="m 68.436,69.601 0.71,4.477 -2.212,0.329 -3.362,0.563 -0.568,-4.533 4.382,-0.658 1.05,-0.178"
   id="26161"
   inkscape:label="Washtenaw, MI"
   inkscape:connector-curvature="0" />
  <path
   style="fill:#72b3dc;stroke:#c2dffb;stroke-width:1"
   d="m 62.914,70.445 0.09,-0.008 0.568,4.533 -2.194,0.258 -3.274,0.437 -0.626,-4.521 1.11,-0.127 4.326,-0.572"
   id="26075"
   inkscape:label="Jackson, MI"
   inkscape:connector-curvature="0" />
  <path
   style="fill:#72b3dc;stroke:#c2dffb;stroke-width:1"
   d="m 54.152,71.547 3.326,-0.403 0.626,4.521 -1.108,0.102 -4.426,0.525 -0.559,-4.477 2.141,-0.268"
   id="26025"
   inkscape:label="Calhoun, MI"
   inkscape:connector-curvature="0" />
  <path
   style="fill:#72b3dc;stroke:#c2dffb;stroke-width:1"
   d="m 49.708,72.048 2.303,-0.233 0.559,4.477 -4.439,0.522 -0.505,-4.529 2.082,-0.237"
   id="26077"
   inkscape:label="Kalamazoo, MI"
   inkscape:connector-curvature="0" />
  <path
   style="fill:#72b3dc;stroke:#c2dffb;stroke-width:1"
   d="m 42.822,72.807 4.804,-0.522 0.505,4.529 -4.367,0.433 -1.574,-2.074 0.632,-2.366"
   id="26159"
   inkscape:label="Van Buren, MI"
   inkscape:connector-curvature="0" />
  <path
   style="fill:#72b3dc;stroke:#c2dffb;stroke-width:1"
   d="m 46.968,67.822 2.226,-0.244 0.514,4.47 -2.082,0.237 -4.804,0.522 0.149,-4.553 3.997,-0.432"
   id="26005"
   inkscape:label="Allegan, MI"
   inkscape:connector-curvature="0" />
  <path
   style="fill:#72b3dc;stroke:#c2dffb;stroke-width:1"
   d="m 53.611,67.047 0.541,4.5 -2.141,0.268 -2.303,0.233 -0.514,-4.47 2.209,-0.27 2.208,-0.261"
   id="26015"
   inkscape:label="Barry, MI"
   inkscape:connector-curvature="0" />
  <path
   style="fill:#72b3dc;stroke:#c2dffb;stroke-width:1"
   d="m 55.833,66.789 2.195,-0.251 0.56,4.479 -1.11,0.127 -3.326,0.403 -0.541,-4.5 2.222,-0.258"
   id="26045"
   inkscape:label="Eaton, MI"
   inkscape:connector-curvature="0" />
  <path
   style="fill:#72b3dc;stroke:#c2dffb;stroke-width:1"
   d="m 60.26,66.186 1.923,-0.247 0.731,4.506 -4.326,0.572 -0.56,-4.479 2.232,-0.352"
   id="26065"
   inkscape:label="Ingham, MI"
   inkscape:connector-curvature="0" />
  <path
   style="fill:#72b3dc;stroke:#c2dffb;stroke-width:1"
   d="m 66.588,65.295 0.798,4.484 -4.382,0.658 -0.09,0.008 -0.731,-4.506 2.197,-0.334 2.208,-0.31"
   id="26093"
   inkscape:label="Livingston, MI"
   inkscape:connector-curvature="0" />
  <path
   style="fill:#72b3dc;stroke:#c2dffb;stroke-width:1"
   d="m 71.879,63.207 0.937,5.648 -4.38,0.746 -1.05,0.178 -0.798,-4.484 -0.176,-1.133 1.1,-0.17 1.094,-0.235 3.273,-0.55"
   id="26125"
   inkscape:label="Oakland, MI"
   inkscape:connector-curvature="0" />
  <path
   style="fill:#72b3dc;stroke:#c2dffb;stroke-width:1"
   d="m 72.96,62.991 2.28,-0.364 0.442,2.442 0.05,0.306 -0.919,3.16 -1.997,0.32 -0.937,-5.648 1.081,-0.216"
   id="26099"
   inkscape:label="Macomb, MI"
   inkscape:connector-curvature="0" />
  <path
   style="fill:#72b3dc;stroke:#c2dffb;stroke-width:1"
   d="m 72.384,59.665 4.56,-0.825 0.023,0.081 0.185,0.545 0.073,0.194 0.761,1.127 -0.063,3.605 -0.068,1.267 -0.041,0.315 -0.032,0.086 -0.473,0.766 -0.044,0.054 -0.159,0.046 -0.536,0.107 -0.517,-0.509 -0.034,-0.09 0.168,-0.405 0.176,-0.158 0.23,0.05 0.117,-0.164 0.036,-0.071 0.014,-0.112 -0.023,-0.122 -0.081,-0.095 -0.045,-0.022 -0.388,-0.095 -0.108,-0.023 -0.144,0.027 -0.225,0.123 -0.014,0.008 -0.05,-0.306 -0.442,-2.442 -2.28,0.364 -0.576,-3.326"
   id="26147"
   inkscape:label="St. Clair, MI"
   inkscape:connector-curvature="0" />
  <path
   style="fill:#72b3dc;stroke:#c2dffb;stroke-width:1"
   d="m 67.949,59.363 -0.018,-0.127 0.834,-1.28 2.163,-0.351 0.085,0.55 1.1,-0.163 0.271,1.673 0.576,3.326 -1.081,0.216 -3.273,0.55 -0.657,-4.394"
   id="26087"
   inkscape:label="Lapeer, MI"
   inkscape:connector-curvature="0" />
  <path
   style="fill:#72b3dc;stroke:#c2dffb;stroke-width:1"
   d="m 65.766,59.669 2.183,-0.306 0.657,4.394 -1.094,0.235 -1.1,0.17 0.176,1.133 -2.208,0.31 -0.636,-4.516 2.022,-1.42"
   id="26049"
   inkscape:label="Genesee, MI"
   inkscape:connector-curvature="0" />
  <path
   style="fill:#72b3dc;stroke:#c2dffb;stroke-width:1"
   d="m 63.744,61.089 0.636,4.516 -2.197,0.334 -1.923,0.247 -0.582,-4.394 -0.014,-0.13 4.08,-0.573"
   id="26155"
   inkscape:label="Shiawassee, MI"
   inkscape:connector-curvature="0" />
  <path
   style="fill:#72b3dc;stroke:#c2dffb;stroke-width:1"
   d="m 59.678,61.792 0.582,4.394 -2.232,0.352 -2.195,0.251 -0.527,-4.479 4.372,-0.518"
   id="26037"
   inkscape:label="Clinton, MI"
   inkscape:connector-curvature="0" />
  <path
   style="fill:#72b3dc;stroke:#c2dffb;stroke-width:1"
   d="m 50.871,62.82 4.435,-0.51 0.527,4.479 -2.222,0.258 -2.208,0.261 -0.532,-4.488"
   id="26067"
   inkscape:label="Ionia, MI"
   inkscape:connector-curvature="0" />
  <path
   style="fill:#72b3dc;stroke:#c2dffb;stroke-width:1"
   d="m 46.282,62.203 0.28,2.234 0.203,1.506 0.203,1.879 -3.997,0.432 -1.056,-4.457 1.371,-0.139 2.032,-0.231 -0.136,-1.117 1.1,-0.107"
   id="26139"
   inkscape:label="Ottawa, MI"
   inkscape:connector-curvature="0" />
  <path
   style="fill:#72b3dc;stroke:#c2dffb;stroke-width:1"
   d="m 39.676,59.412 3.934,-0.338 0.243,2.236 2.313,-0.239 0.116,1.132 -1.1,0.107 0.136,1.117 -2.032,0.231 -1.371,0.139 -0.108,-0.225 -0.41,-0.726 -0.901,-1.487 -0.14,-0.274 -0.329,-0.722 -0.171,-0.446 -0.18,-0.505"
   id="26121"
   inkscape:label="Muskegon, MI"
   inkscape:connector-curvature="0" />
  <path
   style="fill:#72b3dc;stroke:#c2dffb;stroke-width:1"
   d="m 46.166,61.071 2.118,-0.253 2.33,-0.256 0.257,2.258 0.532,4.488 -2.209,0.27 -2.226,0.244 -0.203,-1.879 -0.203,-1.506 -0.28,-2.234 -0.116,-1.132"
   id="26081"
   inkscape:label="Kent, MI"
   inkscape:connector-curvature="0" />
  <path
   style="fill:#72b3dc;stroke:#c2dffb;stroke-width:1"
   d="m 54.693,57.853 0.613,4.457 -4.435,0.51 -0.257,-2.258 -2.33,0.256 -0.243,-2.24 4.434,-0.469 2.218,-0.256"
   id="26117"
   inkscape:label="Montcalm, MI"
   inkscape:connector-curvature="0" />
  <path
   style="fill:#72b3dc;stroke:#c2dffb;stroke-width:1"
   d="m 56.906,57.591 2.203,-0.27 0.555,4.341 0.014,0.13 -4.372,0.518 -0.613,-4.457 2.213,-0.262"
   id="26057"
   inkscape:label="Gratiot, MI"
   inkscape:connector-curvature="0" />
  <path
   style="fill:#72b3dc;stroke:#c2dffb;stroke-width:1"
   d="m 65.307,56.37 0.459,3.299 -2.022,1.42 -4.08,0.573 -0.555,-4.341 -0.021,-0.203 1.843,-0.23 -0.114,-1.117 1.092,-0.118 0.37,0.334 0.676,0.112 1.185,-0.148 0.41,0.324 0.757,0.095"
   id="26145"
   inkscape:label="Saginaw, MI"
   inkscape:connector-curvature="0" />
  <path
   style="fill:#72b3dc;stroke:#c2dffb;stroke-width:1"
   d="m 70.343,53.13 4.69,-0.848 0.045,0.266 0.167,0.847 0.05,0.163 1.357,4.574 0.063,0.158 0.229,0.55 -4.56,0.825 -0.271,-1.673 -1.1,0.163 -0.085,-0.55 -0.585,-4.475"
   id="26151"
   inkscape:label="Sanilac, MI"
   inkscape:connector-curvature="0" />
  <path
   style="fill:#72b3dc;stroke:#c2dffb;stroke-width:1"
   d="m 67.024,52.877 0.114,0.789 3.205,-0.536 0.585,4.475 -2.163,0.351 -0.834,1.28 0.018,0.127 -2.183,0.306 -0.459,-3.299 -0.203,-1.514 1.92,-1.979"
   id="26157"
   inkscape:label="Tuscola, MI"
   inkscape:connector-curvature="0" />
  <path
   style="fill:#72b3dc;stroke:#c2dffb;stroke-width:1"
   d="m 70.343,53.13 -3.205,0.536 -0.114,-0.789 0.015,-0.063 0.102,-0.51 0.257,-0.82 1.109,-1.938 2.533,-1.613 0.464,-0.122 1.208,0.451 0.482,0.288 0.077,0.072 0.342,0.491 0.789,1.141 0.127,0.261 0.257,0.78 0.103,0.36 0.144,0.627 -4.69,0.848"
   id="26063"
   inkscape:label="Huron, MI"
   inkscape:connector-curvature="0" />
  <path
   style="fill:#72b3dc;stroke:#c2dffb;stroke-width:1"
   d="m 60.141,50.272 1.114,-0.144 0.149,1.1 1.226,-0.145 -0.068,1.97 1.402,1.348 1.14,0.455 0.203,1.514 -0.757,-0.095 -0.41,-0.324 -1.185,0.148 -0.676,-0.112 -0.37,-0.334 -1.092,0.118 -0.404,-3.3 -0.272,-2.199"
   id="26017"
   inkscape:label="Bay, MI"
   inkscape:connector-curvature="0" />
  <path
   style="fill:#72b3dc;stroke:#c2dffb;stroke-width:1"
   d="m 56.38,53.107 2.212,-0.257 -0.023,-0.189 1.844,-0.19 0.404,3.3 0.114,1.117 -1.843,0.23 0.021,0.203 -2.203,0.27 -0.526,-4.484"
   id="26111"
   inkscape:label="Midland, MI"
   inkscape:connector-curvature="0" />
  <path
   style="fill:#72b3dc;stroke:#c2dffb;stroke-width:1"
   d="m 56.38,53.107 0.526,4.484 -2.213,0.262 -2.218,0.256 -0.549,-4.461 4.454,-0.541"
   id="26073"
   inkscape:label="Isabella, MI"
   inkscape:connector-curvature="0" />
  <path
   style="fill:#72b3dc;stroke:#c2dffb;stroke-width:1"
   d="m 47.549,54.116 4.377,-0.468 0.549,4.461 -4.434,0.469 -0.492,-4.462"
   id="26107"
   inkscape:label="Mecosta, MI"
   inkscape:connector-curvature="0" />
  <path
   style="fill:#72b3dc;stroke:#c2dffb;stroke-width:1"
   d="m 47.549,54.116 0.492,4.462 0.243,2.24 -2.118,0.253 -2.313,0.239 -0.243,-2.236 -0.465,-4.485 4.404,-0.473"
   id="26123"
   inkscape:label="Newaygo, MI"
   inkscape:connector-curvature="0" />
  <path
   style="fill:#72b3dc;stroke:#c2dffb;stroke-width:1"
   d="m 39.513,54.919 3.632,-0.33 0.465,4.485 -3.934,0.338 -0.672,-1.289 -0.109,-0.207 -0.117,-0.302 -0.04,-0.198 -0.015,-0.149 0.006,-0.185 0.058,-0.257 0.149,-0.284 0.23,-0.365 0.163,-0.297 0.116,-0.338 0.05,-0.235 0.023,-0.347 -0.005,-0.04"
   id="26127"
   inkscape:label="Oceana, MI"
   inkscape:connector-curvature="0" />
  <path
   style="fill:#72b3dc;stroke:#c2dffb;stroke-width:1"
   d="m 65.388,47.419 0.027,0.482 0.005,0.329 -0.023,0.586 -0.779,0.919 -0.753,0.212 -0.221,0.027 -0.387,0 -0.162,0.122 -0.055,0.063 -0.18,0.257 -0.207,0.563 -0.023,0.104 -1.226,0.145 -0.149,-1.1 -1.114,0.144 -0.26,-2.119 2.584,-0.329 2.923,-0.405"
   id="26011"
   inkscape:label="Arenac, MI"
   inkscape:connector-curvature="0" />
  <path
   style="fill:#72b3dc;stroke:#c2dffb;stroke-width:1"
   d="m 59.881,48.153 0.532,4.318 -1.844,0.19 0.023,0.189 -2.212,0.257 -0.556,-4.44 2.204,-0.27 1.853,-0.244"
   id="26051"
   inkscape:label="Gladwin, MI"
   inkscape:connector-curvature="0" />
  <path
   style="fill:#72b3dc;stroke:#c2dffb;stroke-width:1"
   d="m 53.589,48.924 2.235,-0.257 0.556,4.44 -4.454,0.541 -0.504,-4.512 2.167,-0.212"
   id="26035"
   inkscape:label="Clare, MI"
   inkscape:connector-curvature="0" />
  <path
   style="fill:#72b3dc;stroke:#c2dffb;stroke-width:1"
   d="m 51.422,49.136 0.504,4.512 -4.377,0.468 -0.518,-4.489 2.113,-0.239 2.278,-0.252"
   id="26133"
   inkscape:label="Osceola, MI"
   inkscape:connector-curvature="0" />
  <path
   style="fill:#72b3dc;stroke:#c2dffb;stroke-width:1"
   d="m 47.031,49.627 0.518,4.489 -4.404,0.473 -0.508,-4.529 2.037,-0.172 2.357,-0.261"
   id="26085"
   inkscape:label="Lake, MI"
   inkscape:connector-curvature="0" />
  <path
   style="fill:#72b3dc;stroke:#c2dffb;stroke-width:1"
   d="m 39.455,50.25 3.182,-0.19 0.508,4.529 -3.632,0.33 -0.492,-1.925 0.114,-1.947 0.32,-0.797"
   id="26105"
   inkscape:label="Mason, MI"
   inkscape:connector-curvature="0" />
  <path
   style="fill:#72b3dc;stroke:#c2dffb;stroke-width:1"
   d="m 61.873,43.38 5.184,-0.716 0.048,0.324 0.059,0.92 -0.113,1.095 -0.752,0.87 -0.171,-0.05 -0.15,0.005 -0.189,0.068 -0.071,0.049 -0.122,0.171 -0.099,0.19 -0.068,0.279 -0.041,0.834 -2.923,0.405 -0.592,-4.444"
   id="26069"
   inkscape:label="Iosco, MI"
   inkscape:connector-curvature="0" />
  <path
   style="fill:#72b3dc;stroke:#c2dffb;stroke-width:1"
   d="m 61.873,43.38 0.592,4.444 -2.584,0.329 -1.853,0.244 -0.563,-4.444 4.408,-0.573"
   id="26129"
   inkscape:label="Ogemaw, MI"
   inkscape:connector-curvature="0" />
  <path
   style="fill:#72b3dc;stroke:#c2dffb;stroke-width:1"
   d="m 53.066,44.435 4.399,-0.482 0.563,4.444 -2.204,0.27 -2.235,0.257 -0.523,-4.489"
   id="26143"
   inkscape:label="Roscommon, MI"
   inkscape:connector-curvature="0" />
  <path
   style="fill:#72b3dc;stroke:#c2dffb;stroke-width:1"
   d="m 53.066,44.435 0.523,4.489 -2.167,0.212 -2.278,0.252 -0.496,-4.462 4.418,-0.491"
   id="26113"
   inkscape:label="Missaukee, MI"
   inkscape:connector-curvature="0" />
  <path
   style="fill:#72b3dc;stroke:#c2dffb;stroke-width:1"
   d="m 44.227,45.404 4.421,-0.478 0.496,4.462 -2.113,0.239 -2.357,0.261 -0.447,-4.484"
   id="26165"
   inkscape:label="Wexford, MI"
   inkscape:connector-curvature="0" />
  <path
   style="fill:#72b3dc;stroke:#c2dffb;stroke-width:1"
   d="m 44.227,45.404 0.447,4.484 -2.037,0.172 -3.182,0.19 0.865,-2.254 0.081,-0.735 0.009,-0.256 0.004,-1.263 3.813,-0.338"
   id="26101"
   inkscape:label="Manistee, MI"
   inkscape:connector-curvature="0" />
  <path
   style="fill:#72b3dc;stroke:#c2dffb;stroke-width:1"
   d="m 61.287,38.927 5.146,-0.707 0.235,0.347 0.446,1.451 0.01,0.32 -0.067,2.326 -5.184,0.716 -0.586,-4.453"
   id="26001"
   inkscape:label="Alcona, MI"
   inkscape:connector-curvature="0" />
  <path
   style="fill:#72b3dc;stroke:#c2dffb;stroke-width:1"
   d="m 56.902,39.5 4.385,-0.573 0.586,4.453 -4.408,0.573 -0.563,-4.453"
   id="26135"
   inkscape:label="Oscoda, MI"
   inkscape:connector-curvature="0" />
  <path
   style="fill:#72b3dc;stroke:#c2dffb;stroke-width:1"
   d="m 52.57,39.973 4.332,-0.473 0.563,4.453 -4.399,0.482 -0.496,-4.462"
   id="26039"
   inkscape:label="Crawford, MI"
   inkscape:connector-curvature="0" />
  <path
   style="fill:#72b3dc;stroke:#c2dffb;stroke-width:1"
   d="m 52.57,39.973 0.496,4.462 -4.418,0.491 -0.426,-3.858 0.026,-0.45 0.013,-0.064 0.271,-0.126 4.038,-0.455"
   id="26079"
   inkscape:label="Kalkaska, MI"
   inkscape:connector-curvature="0" />
  <path
   style="fill:#72b3dc;stroke:#c2dffb;stroke-width:1"
   d="m 47.207,40.46 1.015,0.608 0.426,3.858 -4.421,0.478 -0.337,-3.357 1.585,-0.19 1.732,-1.397"
   id="26055"
   inkscape:label="Grand Treverse, MI"
   inkscape:connector-curvature="0" />
  <path
   style="fill:#72b3dc;stroke:#c2dffb;stroke-width:1"
   d="m 43.89,42.047 0.337,3.357 -3.813,0.338 0.045,-0.41 0.01,-0.23 -0.081,-0.351 -0.081,-0.181 -0.252,-0.482 -0.069,-0.194 -0.009,-0.297 0.009,-0.072 0.05,-0.095 0.14,-0.108 0.527,-0.243 0.591,-0.195 0.139,-0.153 0.082,-0.225 0.022,-0.153 -0.005,-0.113 2.358,-0.193"
   id="26019"
   inkscape:label="Benzie, MI"
   inkscape:connector-curvature="0" />
  <path
   style="fill:#72b3dc;stroke:#c2dffb;stroke-width:1"
   d="m 45.475,41.857 -1.585,0.19 -2.358,0.193 -0.099,-1.117 0.307,-0.577 0.743,-0.686 1.469,-0.95 0.176,-0.487 0.97,-1.862 0.577,-0.374 0.094,-0.004 0.158,0.252 -0.483,3.511 -0.035,0.027 -0.131,0.5 -0.018,0.131 0.005,0.32 0.036,0.226 0.174,0.707"
   id="26089"
   inkscape:label="Leelanau, MI"
   inkscape:connector-curvature="0" />
  <path
   style="fill:#72b3dc;stroke:#c2dffb;stroke-width:1"
   d="m 65.235,33.848 0.735,0.807 0.671,1.352 -0.044,0.049 -0.155,-0.017 -0.5,-0.131 -0.171,-0.095 -0.108,-0.14 -0.303,-0.063 -0.287,0.203 -0.062,0.095 -0.078,0.216 -0.004,0.045 0.108,0.527 0.122,0.478 0.067,0.14 0.063,0.095 0.081,0.072 0.325,0.266 0.738,0.473 -5.146,0.707 -0.267,-1.983 0.005,-0.162 0.041,-0.09 -0.284,-2.195 4.453,-0.649"
   id="26007"
   inkscape:label="Alpena, MI"
   inkscape:connector-curvature="0" />
  <path
   style="fill:#72b3dc;stroke:#c2dffb;stroke-width:1"
   d="m 60.782,34.497 0.284,2.195 -0.041,0.09 -0.005,0.162 0.267,1.983 -4.385,0.573 -0.501,-4.412 1.086,-0.136 3.295,-0.455"
   id="26119"
   inkscape:label="Montmorency, MI"
   inkscape:connector-curvature="0" />
  <path
   style="fill:#72b3dc;stroke:#c2dffb;stroke-width:1"
   d="m 53.079,35.448 3.322,-0.36 0.501,4.412 -4.332,0.473 -0.472,-3.295 0.981,-1.23"
   id="26137"
   inkscape:label="Otsego, MI"
   inkscape:connector-curvature="0" />
  <path
   style="fill:#72b3dc;stroke:#c2dffb;stroke-width:1"
   d="m 47.162,36.061 0.107,-0.014 1.384,-0.13 0.099,0.928 0.357,0.158 1.69,-0.198 1.299,-0.127 0.472,3.295 -4.038,0.455 -0.271,0.126 -0.013,0.064 -0.026,0.45 -1.015,-0.608 0.071,-0.18 0.136,-0.406 0.068,-0.257 0.064,-0.883 0.003,-0.92 -0.072,-0.613 -0.315,-1.14"
   id="26009"
   inkscape:label="Antrim, MI"
   inkscape:connector-curvature="0" />
  <path
   style="fill:#72b3dc;stroke:#c2dffb;stroke-width:1"
   d="m 49.771,33.717 0.631,0.83 0.46,0.004 2.095,-0.221 0.122,1.118 -0.981,1.23 -1.299,0.127 -1.69,0.198 -0.357,-0.158 -0.099,-0.928 -1.384,0.13 -0.107,0.014 -0.055,-0.352 0.104,-0.477 0.131,-0.167 0.253,-0.298 0.134,-0.139 0.821,-0.663 0.112,-0.063 0.465,-0.176 0.644,-0.009"
   id="26029"
   inkscape:label="Charlevoix, MI"
   inkscape:connector-curvature="0" />
  <path
   style="fill:#72b3dc;stroke:#c2dffb;stroke-width:1"
   d="m 65.235,33.848 -4.453,0.649 -3.295,0.455 -0.378,-2.984 -0.347,-2.479 0.427,-0.063 0.83,0.996 3.083,1.208 1.979,0.609 0.266,0.036 0.504,-0.059 0.145,-0.162 0.071,0.013 0.465,0.528 0.703,1.253"
   id="26141"
   inkscape:label="Presque Isle, MI"
   inkscape:connector-curvature="0" />
  <path
   style="fill:#72b3dc;stroke:#c2dffb;stroke-width:1"
   d="m 52.957,34.33 -0.756,-6.382 0.18,0.262 2.456,1.176 0.762,-0.131 0.406,-0.167 1.072,0.253 0.112,0.085 -0.427,0.063 0.347,2.479 0.378,2.984 -1.086,0.136 -3.322,0.36 -0.122,-1.118"
   id="26031"
   inkscape:label="Cheboygan, MI"
   inkscape:connector-curvature="0" />
  <path
   style="fill:#72b3dc;stroke:#c2dffb;stroke-width:1"
   d="m 52.957,34.33 -2.095,0.221 -0.46,-0.004 -0.631,-0.83 0.454,-0.072 0.555,-0.184 0.365,-0.267 0.018,-0.126 -0.012,-0.09 -0.042,-0.099 -0.062,-0.045 -0.541,-0.037 -0.081,0.064 -0.468,-0.095 -0.295,-0.257 -0.192,-0.207 -0.258,-0.549 -0.08,-0.222 -0.082,-0.374 0,-0.081 0.046,-0.144 0.27,-0.595 0.104,-0.144 0.951,-1.028 1.239,-0.627 0.091,-0.076 0.45,-0.514 0.756,6.382"
   id="26047"
   inkscape:label="Emmet, MI"
   inkscape:connector-curvature="0" />
  <path
   style="fill:#72b3dc;stroke:#c2dffb;stroke-width:1"
   d="m 41.415,23.252 5.589,-0.631 1.109,-0.131 0.135,1.118 6.675,-0.793 1.05,0.996 0.32,0.996 1.136,0.031 -1.889,0.519 -1.893,-0.411 -1.744,0.988 -2.56,-0.541 -1.091,-0.329 -1.902,-0.388 -0.694,-0.036 -0.136,0.009 -0.643,0.135 -0.109,0.041 -0.077,0.054 -0.152,0.167 -0.496,0.693 -0.091,0.294 -0.283,0.482 -0.072,0.094 -0.289,0.118 -1.528,0.058 -0.365,-3.533"
   id="26097"
   inkscape:label="Mackinac, MI"
   inkscape:connector-curvature="0" />
  <path
   style="fill:#72b3dc;stroke:#c2dffb;stroke-width:1"
   id="26033"
   d="m 60.358,24.167 0.045,-0.045 0.076,-0.194 -0.017,-0.176 -0.113,-0.239 -0.211,-0.04 -0.167,-0.194 -0.154,-0.375 0.064,-0.071 0.032,-0.005 1.59,-0.144 0.086,0.009 0.415,0.112 1.053,1.073 0.074,0.09 0.013,0.05 -0.239,0.748 -0.05,0.081 -0.072,0.073 -0.31,0.121 -1.529,-0.004 -0.289,-0.208 -0.13,-0.171 -0.148,-0.167 -0.019,-0.189 0,-0.135 m -13.354,-1.546 -0.739,-6.517 0.558,-0.167 1.213,-0.099 0.302,0.383 -0.09,0.216 -0.041,0.198 -0.004,0.162 0.004,2.047 0.026,0.153 0.06,0.131 0.166,0.189 0.082,0.054 0.095,0.032 1.703,0.261 1.948,-0.396 1.393,-0.586 0.202,-0.18 1.947,-0.745 0.491,0.037 0.094,0.013 0.122,0.149 0.077,0.167 -0.031,1.713 0.014,2.464 1.09,1.087 0.392,0.374 0.379,0.239 0.852,0.329 0.206,0.031 0.109,0.356 -0.077,0.289 -1.222,-0.031 -0.662,-0.023 -0.144,-0.059 -0.09,-0.054 -1.136,-0.031 -0.32,-0.996 -1.05,-0.996 -6.675,0.793 -0.135,-1.118 -1.109,0.131"
   inkscape:label="Chippewa, MI"
   inkscape:connector-curvature="0" />
  <path
   style="fill:#72b3dc;stroke:#c2dffb;stroke-width:1"
   d="m 41.059,19.921 -0.238,-2.366 0.616,0.049 0.398,0.005 1.451,-0.122 0.396,-0.04 0.289,-0.054 0.24,-0.086 0.944,-0.536 1.11,-0.667 0.739,6.517 -5.589,0.631 -0.356,-3.331"
   id="26095"
   inkscape:label="Luce, MI"
   inkscape:connector-curvature="0" />
  <path
   style="fill:#72b3dc;stroke:#c2dffb;stroke-width:1"
   d="m 41.059,19.921 0.356,3.331 0.365,3.533 -0.477,0.311 -1.357,-0.076 -0.208,0.005 -0.906,0.139 -0.207,0.076 -0.495,0.271 -0.302,0.379 -0.063,0.121 -0.005,0.703 -0.099,0.708 -0.099,0.113 -0.645,0.446 -0.14,0.063 -0.036,-0.009 -0.171,-1.771 -0.298,-1.1 -0.32,-2.226 -1.122,0.099 -0.221,-2.232 2.232,-0.202 -0.221,-2.231 4.439,-0.451"
   id="26153"
   inkscape:label="Schoolcraft, MI"
   inkscape:connector-curvature="0" />
  <path
   style="fill:#72b3dc;stroke:#c2dffb;stroke-width:1"
   d="m 41.059,19.921 -4.439,0.451 0.221,2.231 -2.232,0.202 0.221,2.232 -4.471,0.432 -0.405,-4.308 0.324,-0.289 0.509,-0.284 0.077,0.004 0.288,0.05 0.126,0.117 0.195,0.397 0.612,0.496 0.082,0.049 0.229,0.018 2.308,-0.604 1.613,-1.451 1.677,-1.347 2.294,-0.636 0.533,-0.126 0.238,2.366"
   id="26003"
   inkscape:label="Alger, MI"
   inkscape:connector-curvature="0" />
  <path
   style="fill:#72b3dc;stroke:#c2dffb;stroke-width:1"
   d="m 30.359,25.469 4.471,-0.432 1.122,-0.099 0.32,2.226 0.298,1.1 0.171,1.771 -0.487,0.122 -0.261,-1.28 -2.227,0.978 -1.654,0.694 -0.103,-0.496 -0.086,-0.23 -0.176,-0.257 -0.131,-0.077 -0.112,0.032 -0.072,0.045 -0.094,0.167 -1.362,3.146 -0.216,0.496 -0.005,0.018 -0.572,0.054 -0.392,-4.467 -0.279,-0.351 -0.199,-0.726 1.118,-0.099 -0.194,-2.231 1.122,-0.104"
   id="26041"
   inkscape:label="Delta, MI"
   inkscape:connector-curvature="0" />
  <path
   style="fill:#72b3dc;stroke:#c2dffb;stroke-width:1"
   d="m 26.078,28.092 2.235,-0.189 0.199,0.726 0.279,0.351 0.392,4.467 0.572,-0.054 -0.166,0.649 -0.288,0.928 -0.826,1.871 -0.585,0.946 -0.56,1.722 -0.41,-0.064 -0.234,-0.04 -0.009,-0.004 -0.712,-0.753 -0.041,-0.068 -0.08,-0.265 -0.005,-0.009 -0.798,-3.836 -0.09,-2.326 -0.27,-0.333 -0.023,-0.022 -0.014,-0.01 -0.171,-0.139 1.18,-0.109 -0.192,-2.253 0.712,-0.064 -0.095,-1.122"
   id="26109"
   inkscape:label="Menominee, MI"
   inkscape:connector-curvature="0" />
  <path
   style="fill:#72b3dc;stroke:#c2dffb;stroke-width:1"
   d="m 21.313,25.136 4.476,-0.388 0.289,3.344 0.095,1.122 -0.712,0.064 0.192,2.253 -1.18,0.109 -2.131,-0.573 -0.122,0.018 -0.009,-0.004 -0.122,-0.032 -0.076,-0.018 -0.344,-0.279 -0.009,-0.005 -0.058,-0.113 0.013,-0.045 0.005,-0.009 0.158,-0.202 0.063,-0.05 0.144,-0.203 0.126,-0.216 -0.013,-0.045 -0.028,-0.041 -0.265,-0.379 -0.139,-0.089 -0.353,-4.219"
   id="26043"
   inkscape:label="Dickinson, MI"
   inkscape:connector-curvature="0" />
  <path
   style="fill:#72b3dc;stroke:#c2dffb;stroke-width:1"
   d="m 21.25,16.554 1.275,-0.072 0.795,0.208 0.283,0.081 1.393,0.753 0.369,0.342 0.077,0.378 0.094,0.284 1.957,2.484 0.076,0.085 0.145,0.117 0.143,0.068 0.37,0.081 0.469,0.005 1.159,-0.18 0.099,-0.027 0.405,4.308 -1.122,0.104 0.194,2.231 -1.118,0.099 -2.235,0.189 -0.289,-3.344 -4.476,0.388 -0.18,-2.218 -0.266,-3.317 1.101,-0.104 -0.091,-1.086 -0.022,-0.009 -0.451,0.032 -0.154,-1.88"
   id="26103"
   inkscape:label="Marquette, MI"
   inkscape:connector-curvature="0" />
  <path
   style="fill:#72b3dc;stroke:#c2dffb;stroke-width:1"
   d="m 16.117,23.315 5.016,-0.397 0.18,2.218 0.353,4.219 -0.212,-0.141 -0.343,-0.166 -0.224,-0.036 -0.02,-0.005 -2.623,-0.329 -1.577,0.167 -0.185,-0.329 -2.289,-0.586 -0.546,-0.266 -0.22,-3.028 -0.086,-1.109 2.776,-0.212"
   id="26071"
   inkscape:label="Iron, MI"
   inkscape:connector-curvature="0" />
  <path
   style="fill:#72b3dc;stroke:#c2dffb;stroke-width:1"
   id="26083"
   d="M 14.4,1.636 14.464,1.514 14.48,1.483 14.616,1.32 14.976,1.09 15.535,0.789 16.598,0.5 16.648,0.63 16.644,0.757 15.369,2.294 14.63,2.956 12.641,4.651 10.848,5.584 10.56,5.665 10.266,5.588 9.861,5.359 9.658,5.061 9.722,4.899 9.982,4.556 10.271,4.263 10.971,3.79 11.817,3.286 13.737,2.082 14.4,1.636 m 2.33,10.479 0.414,-0.731 0.326,-0.428 0.243,-0.189 1.441,-0.942 0.302,-0.139 1.226,-0.338 0.533,-0.091 0.436,-0.027 1.127,-0.027 0.405,0.127 0.24,0.13 0.139,0.104 0.086,0.428 -0.008,0.063 -0.889,0.289 -0.104,-0.009 -1.198,0.252 -1.321,1.848 -0.247,0.32 -0.555,0.257 -0.622,0.054 -0.095,-1.104 -1.879,0.153"
   inkscape:label="Keweenaw, MI"
   inkscape:connector-curvature="0" />
  <path
   style="fill:#72b3dc;stroke:#c2dffb;stroke-width:1"
   d="m 16.73,12.115 1.879,-0.153 0.095,1.104 0.622,-0.054 -1.686,3.389 -0.91,0.185 -1.033,1.199 0.42,5.53 -2.776,0.212 -0.14,-1.884 -0.089,-1.456 1.108,-0.072 -0.078,-1.095 -0.608,0.045 -0.261,-3.421 0.207,-0.712 0.117,-0.194 0.614,-0.572 0.955,-0.889 0.224,-0.202 1.34,-0.96"
   id="26061"
   inkscape:label="Houghton, MI"
   inkscape:connector-curvature="0" />
  <path
   style="fill:#72b3dc;stroke:#c2dffb;stroke-width:1"
   d="m 21.25,16.554 0.154,1.88 0.451,-0.032 0.022,0.009 0.091,1.086 -1.101,0.104 0.266,3.317 -5.016,0.397 -0.42,-5.53 1.033,-1.199 0.91,-0.185 -0.179,0.802 -0.015,0.699 0.015,0.072 0.102,0.248 0.118,0.243 0.211,-0.018 0.032,-0.09 0.149,-0.248 0.433,-0.604 0.956,-1.023 0.752,-0.518 0.099,-0.032 0.099,0.05 0.838,0.572"
   id="26013"
   inkscape:label="Baraga, MI"
   inkscape:connector-curvature="0" />
  
  
  
  
  
  
  
  
  
  
  
  
  
  
  
  
  
  
  
  
  
  
  
  
  
  
  
  
  
  
  
  
  
  
  
  
  
  
  
  
  
  
  
  
  
  
  
  
  
  
  
  
  
  
  
  
  
  
  
  
  
  
  
  
  
  
  
  
  
  
  
  
  
  
  
  
  
  
  
  
  
  
  
  
  
  
  
  
  
  
  
  
  
  
  
  
  
  
  
  
  
  
  
  
  
  
  
  
  
  
  
  
  
  
  
  
  
  
  
  
  
  
  
  
  
  
  
  
  
  
  
  
  
  
  
  
  
  
  
  
  
  
  
  
  
  
  
  
  
  
  
  
  
  
  
  
  
  
  
  
  
  
  
  
  
  
  
  
  
  
  
  
  
  
  
  
  
  
  
  
  
  
  
  
  
  
  
  
  
  
  
  
  
  
  
  
  
  
  
  
  
  
  
  
  
  
  
  
  
  
  
  
  
  
  
  
  
  
  
  
  
  
  
  
  
  
  
  
  
  
  
  
  
  
  
  
  
  
  
  
  
  
  
  
  
  
  
  
  
  
  
  
  
  
  
  
  
  
  
  
  
  
  
  
  
  
  
  
  
  
  
  
  
  
  
  
  
  
  
  
  
  
  
  
  
  
  
  
  
  
  
  
  
  
  
  
  
  
  
  
  
  
  
  
  
  
  
  
  
  
  
  
  
  
  
  
  
  
  
  
  
  
  
  
  
  
  
  
  
  
  
  
  
  
  
  
  
  
  
  
  
  
  
  
  
  
  
  
  
  
  
  
  
  
  
  
  
  
  
  
  
  
  
  
  
  
  
  
  
  
  
  
  
  
  
  
  
  
  
  
  
  
  
  
  
  
  
  
  
  
  
  
  
  
  
  
  
  
  
  
  
  
  
  
  
  
  
  
  
  
  
  
  
  
  
  
  
  
  
  
  
  
  
  
  
  
  
  
  
  
  
  
  
  
  
  
  
  
  
  
  
  
  
  
  
  
  
  
  
  
  
  
  
  
  
  
  
  
  
  
  
  
  
  
  
  
  
  
  
  
  
  
  
  
  
  
  
  
  
  
  
  
  
  
  
  
  
  
  
  
  
  
  
  
  
  
  
  
  
  
  
  
  
  
  
  
  
  
  
  
  
  
  
  
  
  
  
  
  
  
  
  
  
  
  
  
  
  
  
  
  
  
  
  
  
  
  
  
  
  
  
  
  
  
  
  
  
  
  
  
  
  
  
  
  
  
  
  
  
  
  
  
  
  
  
  
  
  
  
  
  
  
  
  
  
  
  
  
  
  
  
  
  
  
  
  
  
  
  
  
  
  
  
  
  
  
  
  
  
  
  
  
  
  
  
  
  
  
  
  
  
  
  
  
  
  
  
  
  
  
  
  
  
  
  
  
  
  
  
  
  
  
  
  
  
  
  
  
  
  
  
  
  
  
  
  
  
  
  
  
  
  
  
  
  
  
  
  
  
  
  
  
  
  
  
  
  
  
  
  
  
  
  
  
  
  
  
  
  
  
  
  
  
  
  
  
  
  
  
  
  
  
  
  
  
  
  
  
  
  
  
  
  
  
  
  
  
  
  
  
  
  
  
  
  
  
  
  
  
  
  
  
  
  
  
  
  
  
  
  
  
  
  
  
  
  
  
  
  
  
  
  
  
  
  
  
  
  
  
  
  
  
  
  
  
  
  
  
  
  
  
  
  
  
  
  
  
  
  
  
  
  
  
  
  
  
  
  
  
  
  
  
  
  
  
  
  
  
  
  
  
  
  
  
  
  
  
  
  
  
  
  
  
  
  
  
  
  
  
  
  
  
  
  
  
  
  
  
  
  
  
  
  
  
  
  
  
  
  
  
  
  
  
  
  
  
  
  
  
  
  
  
  
  
  
  
  
  
  
  
  
  
  
  
  
  
  
  
  
  
  
  
  
  
  
  
  
  
  
  
  
  
  
  
  
  
  
  
  
  
  
  
  
  
  
  
  
  
  
  
  
  
  
  
  
  
  
  
  
  
  
  
  
  
  
  
  
  
  
  
  
  
  
  
  
  
  
  
  
  
  
  
  
  
  
  
  
  
  
  
  
  
  
  
  
  
  
  
  
  
  
  
  
  
  
  
  
  
  
  
  
  
  
  
  
  
  
  
  
  
  
  
  
  
  
  
  
  
  
  
  
  
  
  
  
  
  
  
  
  
  
  
  
  
  
  
  
  
  
  
  
  
  
  
  
  
  
  
  
  
  
  
  
  
  
  
  
  
  
  
  
  
  
  
  
  
  
  
  
  
  
  
  
  
  
  
  
  
  
  
  
  
  
  
  
  
  
  
  
  
  
  
  
  
  
  
  
  
  
  
  
  
  
  
  
  
  
  
  
  
  
  
  
  
  
  
  
  
  
  
  
  
  
  
  
  
  
  
  
  
  
  
  
  
  
  
  
  
  
  
  
  
  
  
  
  
  
  
  
  
  
  
  
  
  
  
  
  
  
  
  
  
  
  
  
  
  
  
  
  
  
  
  
  
  
  
  
  
  
  
  
  
  
  
  
  
  
  
  
  
  
  
  
  
  
  
  
  
  
  
  
  
  
  
  
  
  
  
  
  
  
  
  
  
  
  
  
  
  
  
  
  
  
  
  
  
  
  
  
  
  
  
  
  
  
  
  
  
  
  
  
  
  
  
  
  
  
  
  
  
  
  
  
  
  
  
  
  
  
  
  
  
  
  
  
  
  
  
  
  
  
  
  
  
  
  
  
  
  
  
  
  
  
  
  
  
  
  
  
  
  
  
  
  
  
  
  
  
  
  
  
  
  
  
  
  
  
  
  
  
  
  
  
  
  
  
  
  
  
  
  
  
  
  
  
  
  
  
  
  
  
  
  
  
  
  
  
  
  
  
  
  
  
  
  
  
  
  
  
  
  
  
  
  
  
  
  
  
  
  
  
  
  
  
  
  
  
  
  
  
  
  
  
  
  
  
  
  
  
  
  
  
  
  
  
  
  
  
  
  
  
  
  
  
  
  
  
  
  
  
  
  
  
  
  
  
  
  
  
  
  
  
  
  
  
  
  
  
  
  
  
  
  
  
  
  
  
  
  
  
  
  
  
  
  
  
  
  
  
  
  
  
  
  
  
  
  
  
  
  
  
  
  
  
  
  
  
  
  
  
  
  
  
  
  
  
  
  
  
  
  
  
  
  
  
  
  
  
  
  
  
  
  
  
  
  
  
  
  
  
  
  
  
  
  
  
  
  
  
  
  
  
  
  
  
  
  
  
  
  
  
  
  
  
  
  
  
  
  
  
  
  
  
  
  
  
  
  
  
  
  
  
  
  
  
  
  
  
  
  
  
  
  
  
  
  
  
  
  
  
  
  
  
  
  
  
  
  
  
  
  
  
  
  
  
  
  
  
  
  
  
  
  
  
  
  
  
  
  
  
  
  
  
  
  
  
  
  
  
  
  
  
  
  
  
  
  
  
  
  
  
  
  
  
  
  
  
  
  
  
  
  
  
  
  
  
  
  
  
  
  
  
  
  
  
  
  
  
  
  
  
  
  
  
  
  
  
  
  
  
  
  
  
  
  
  
  
  
  
  
  
  
  
  
  
  
  
  
  
  
  
  
  
  
  
  
  
  
  
  
  
  
  
  
  
  
  
  
  
  
  
  
  
  
  
  
  
  
  
  
  
  
  
  
  
  
  
  
  
  
  
  
  
  
  
  
  
  
  
  
  
  
  
  
  
  
  
  
  
  
  
  
  
  
  
  
  
  
  
  
  
  
  
  
  
  
  
  
  
  
  
  
  
  
  
  
  
  
  
  
  
  
  
  
  
  
  
  
  
  
  
  
  
  
  
  
  
  
  
  
  
  
  
  
  
  
  
  
  
  
  
  
  
  
  
  
  
  
  
  
  
  
  
  
  
  
  
  
  
  
  
  
  
  
  
  
  
  
  
  
  
  
  
  
  
  
  
  
  
  
  
  
  
  
  
  
  
  
  
  
  
  
  
  
  
  
  
  
  
  
  
  
  
  
  
  
  
  
  
  
  
  
  
  
  
  
  
  
  
  
  
  
  
  
  
  
  
  
  
  
  
  
  
  
  
  
  
  
  
  
  
  
</svg>