<?xml version="1.0" encoding="UTF-8" standalone="no"?>
<!--?xml version="1.0" encoding="UTF-8" standalone="no"?-->

<svg
   xmlns:dc="http://purl.org/dc/elements/1.1/"
   xmlns:cc="http://creativecommons.org/ns#"
   xmlns:rdf="http://www.w3.org/1999/02/22-rdf-syntax-ns#"
   xmlns:svg="http://www.w3.org/2000/svg"
   xmlns="http://www.w3.org/2000/svg"
   xmlns:sodipodi="http://sodipodi.sourceforge.net/DTD/sodipodi-0.dtd"
   xmlns:inkscape="http://www.inkscape.org/namespaces/inkscape"
   width="74.020164"
   height="82.913788"
   viewBox="0 0 68.422001 75.738556"
   preserveAspectRatio="xMinYMin meet"
   xml:space="preserve"
   id="svg1498"
   version="1.1"
   inkscape:version="0.48.2 r9819"
   sodipodi:docname="MN.svg"><metadata
   id="metadata1591"><rdf:RDF><cc:Work
       rdf:about=""><dc:format>image/svg+xml</dc:format><dc:type
         rdf:resource="http://purl.org/dc/dcmitype/StillImage" /></cc:Work></rdf:RDF></metadata><defs
   id="defs1589" /><sodipodi:namedview
   pagecolor="#ffffff"
   bordercolor="#666666"
   borderopacity="1"
   objecttolerance="10"
   gridtolerance="10"
   guidetolerance="10"
   inkscape:pageopacity="0"
   inkscape:pageshadow="2"
   inkscape:window-width="640"
   inkscape:window-height="480"
   id="namedview1587"
   showgrid="false"
   inkscape:zoom="0.56730769"
   inkscape:cx="-7.9405238"
   inkscape:cy="-95.274545"
   inkscape:window-x="0"
   inkscape:window-y="0"
   inkscape:window-maximized="0"
   inkscape:current-layer="svg1498" />
  
  
  
  
  
  
  
  
  
  
  
  
  
  
  
  
  
  
  
  
  
  
  
  
  
  
  
  
  
  
  
  
  
  
  
  
  
  
  
  
  
  
  
  
  
  
  
  
  
  
  
  
  
  
  
  
  
  
  
  
  
  
  
  
  
  
  
  
  
  
  
  
  
  
  
  
  
  
  
  
  
  
  
  
  
  
  
  
  
  
  
  
  
  
  
  
  
  
  
  
  
  
  
  
  
  
  
  
  
  
  
  
  
  
  
  
  
  
  
  
  
  
  
  
  
  
  
  
  
  
  
  
  
  
  
  
  
  
  
  
  
  
  
  
  
  
  
  
  
  
  
  
  
  
  
  
  
  
  
  
  
  
  
  
  
  
  
  
  
  
  
  
  
  
  
  
  
  
  
  
  
  
  
  
  
  
  
  
  
  
  
  
  
  
  
  
  
  
  
  
  
  
  
  
  
  
  
  
  
  
  
  
  
  
  
  
  
  
  
  
  
  
  
  
  
  
  
  
  
  
  
  
  
  
  
  
  
  
  
  
  
  
  
  
  
  
  
  
  
  
  
  
  
  
  
  
  
  
  
  
  
  
  
  
  
  
  
  
  
  
  
  
  
  
  
  
  
  
  
  
  
  
  
  
  
  
  
  
  
  
  
  
  
  
  
  
  
  
  
  
  
  
  
  
  
  
  
  
  
  
  
  
  
  
  
  
  
  
  
  
  
  
  
  
  
  
  
  
  
  
  
  
  
  
  
  
  
  
  
  
  
  
  
  
  
  
  
  
  
  
  
  
  
  
  
  
  
  
  
  
  
  
  
  
  
  
  
  
  
  
  
  
  
  
  
  
  
  
  
  
  
  
  
  
  
  
  
  
  
  
  
  
  
  
  
  
  
  
  
  
  
  
  
  
  
  
  
  
  
  
  
  
  
  
  
  
  
  
  
  
  
  
  
  
  
  
  
  
  
  
  
  
  
  
  
  
  
  
  
  
  
  
  
  
  
  
  
  
  
  
  
  
  
  
  
  
  
  
  
  
  
  
  
  
  
  
  
  
  
  
  
  
  
  
  
  
  
  
  
  
  
  
  
  
  
  
  
  
  
  
  
  
  
  
  
  
  
  
  
  
  
  
  
  
  
  
  
  
  
  
  
  
  
  
  
  
  
  
  
  
  
  
  
  
  
  
  
  
  
  
  
  
  
  
  
  
  
  
  
  
  
  
  
  
  
  
  
  
  
  
  
  
  
  
  
  
  
  
  
  
  
  
  
  
  
  
  
  
  
  
  
  
  
  
  
  
  
  
  
  
  
  
  
  
  
  
  
  
  
  
  
  
  
  
  
  
  
  
  
  
  
  
  
  
  
  
  
  
  
  
  
  
  
  
  
  
  
  
  
  
  
  
  
  
  
  
  
  
  
  
  
  
  
  
  
  
  
  
  
  
  
  
  
  
  
  
  
  
  
  
  
  
  
  
  
  
  
  
  
  
  
  
  
  
  
  
  
  
  
  
  
  
  
  
  
  
  
  
  
  
  
  
  
  
  
  
  
  
  
  
  
  
  
  
  
  
  
  
  
  
  
  
  
  
  
  
  
  
  
  
  
  
  
  
  
  
  
  
  
  
  
  
  
  
  
  
  
  
  
  
  
  
  
  
  
  
  
  
  
  
  
  
  
  
  
  
  
  
  
  
  
  
  
  
  
  
  
  
  
  
  
  
  
  
  
  
  
  
  
  
  
  
  
  
  
  
  
  
  
  
  
  
  
  
  
  
  
  
  
  
  
  
  
  
  
  
  
  
  
  
  
  
  
  
  
  
  
  
  
  
  
  
  
  
  
  
  
  
  
  
  
  
  
  
  
  
  
  
  
  
  
  
  
  
  
  
  
  
  
  
  
  
  
  
  
  
  
  
  
  
  
  
  
  
  
  
  
  
  
  
  
  
  
  
  
  
  
  
  
  
  
  
  
  
  
  
  
  
  
  
  
  
  
  
  
  
  
  
  
  
  
  
  
  
  
  
  
  
  
  
  
  
  
  
  
  
  
  
  
  
  
  
  
  
  
  
  
  
  
  
  
  
  
  
  
  
  
  
  
  
  
  
  
  
  
  
  
  
  
  
  
  
  
  
  
  
  
  
  
  
  
  
  
  
  
  
  
  
  
  
  
  
  
  
  
  
  
  
  
  
  
  
  
  
  
  
  
  
  
  
  
  
  
  
  
  
  
  
  
  
  
  
  
  
  
  
  
  
  
  
  
  
  
  
  
  
  
  
  
  
  
  
  
  
  
  
  
  
  
  
  
  
  
  
  
  
  
  
  
  
  
  
  
  
  
  
  
  
  
  
  
  
  
  
  
  
  
  
  
  
  
  
  
  
  
  
  
  
  
  
  
  
  
  
  
  
  
  
  
  
  
  
  
  
  
  
  
  
  
  
  
  
  
  
  
  
  
  
  
  
  
  
  
  
  
  
  
  
  
  
  
  
  
  
  
  
  
  
  
  
  
  
  
  
  
  
  
  
  
  
  
  
  
  
  
  
  
  
  
  
  
  
  
  
  
  
  
  
  
  
  
  
  
  
  
  
  
  
  
  
  
  
  
  
  
  
  
  
  
  
  
  
  
  
  
  
  
  
  
  
  
  
  
  
  
  
  
  
  
  
  
  
  
  
  
  
  
  
  
  
  
  
  
  
  
  
  
  
  
  
  
  
  
  
  
  
  
  
  
  
  
  
  
  
  
  
  
  
  
  
  
  
  
  
  
  
  
  
  
  
  
  
  
  
  
  
  
  
  
  
  
  
  
  
  
  
  
  
  
  
  
  
  
  
  
  
  
  
  
  
  
  
  
  
  
  
  
  
  
  
  
  
  
  
  
  
  
  
  
  
  
  
  
  
  
  
  
  
  
  
  
  
  
  
  
  
  
  
  
  
  
  
  
  
  
  
  
  
  
  
  
  <path
   style="fill:#72b3dc;stroke:#c2dffb;stroke-width:1"
   d="m 54.946,70.563 0.226,1.559 0.617,2.889 -3.668,0.176 -1.113,0.05 -0.204,-4.476 4.142,-0.198"
   id="27055"
   inkscape:label="Houston, MN"
   inkscape:connector-curvature="0" />
  <path
   style="fill:#72b3dc;stroke:#c2dffb;stroke-width:1"
   d="m 47.568,70.896 3.236,-0.135 0.204,4.476 -3.264,0.139 -3.438,0.14 -0.163,-4.313 3.425,-0.307"
   id="27045"
   inkscape:label="Fillmore, MN"
   inkscape:connector-curvature="0" />
  <path
   style="fill:#72b3dc;stroke:#c2dffb;stroke-width:1"
   d="m 24.79,13.381 -0.086,-4.336 0.121,-0.049 0.235,-0.018 0.694,0.009 0.154,0.027 0.265,0.144 0.081,0.162 0.005,0.086 0.009,0.257 0,0.005 0.053,0.036 0.177,0.045 0.847,0.049 0.635,-0.009 1.834,0.158 0.055,0.045 0.108,0.198 0.144,0.402 0.018,0.116 -0.045,0.334 -0.058,0.099 0,0.059 0.031,0.045 0.181,0.131 0.329,0 0.815,-0.027 1.014,-0.194 0.663,-0.23 0.054,-0.063 0.031,-0.144 -0.003,-0.072 -0.042,-0.086 -0.045,-0.167 0.015,-0.059 1,-0.468 0.793,-0.23 0.41,-0.009 0.243,0.216 0.307,-0.009 0.018,0 0.464,-0.049 0.049,2.718 0.024,2.199 0.075,2.231 0.087,0.586 0.098,1.172 0.019,0.491 -6.072,0.072 0.014,0.672 -5.62,0.121 -0.198,-6.666"
   id="27071"
   inkscape:label="Koochiching, MN"
   inkscape:connector-curvature="0" />
  <path
   style="fill:#72b3dc;stroke:#c2dffb;stroke-width:1"
   d="M 16.969,5.417 18.425,5.404 18.408,3.038 18.399,2.208 18.39,0.879 18.385,0.514 l 0,-0.014 1.677,0.163 0.414,0.247 0.731,0.519 0.468,2.388 0.217,1.537 0.549,2.822 0.401,0.365 0.139,0.126 0.574,0.32 0.247,0.136 0.014,0.013 0.122,0.009 0.436,0.045 0.33,-0.145 0.086,4.336 -6.788,0.104 -0.027,-2.222 -1.132,0.005 -0.013,-2.205 2.181,-0.018 -0.04,-2.649 -0.212,0.22 -0.19,0.113 -0.085,0.036 -0.671,0.14 -0.099,0 L 17.569,6.869 17.172,6.625 16.983,6.26 16.947,5.638 16.969,5.417"
   id="27077"
   inkscape:label="Lake of the Woods, MN"
   inkscape:connector-curvature="0" />
  <path
   style="fill:#72b3dc;stroke:#c2dffb;stroke-width:1"
   d="m 16.969,5.417 -0.022,0.221 0.036,0.622 0.189,0.365 0.397,0.244 0.145,0.036 0.099,0 0.671,-0.14 0.085,-0.036 0.19,-0.113 0.212,-0.22 0.04,2.649 -2.181,0.018 0.013,2.205 -2.249,0.031 L 7.798,11.227 7.793,10.253 7.657,9.019 7.671,5.417 l 9.298,0"
   id="27135"
   inkscape:label="Roseau, MN"
   inkscape:connector-curvature="0" />
  <path
   style="fill:#72b3dc;stroke:#c2dffb;stroke-width:1"
   d="M 0.591,5.345 7.671,5.417 7.657,9.019 7.793,10.253 7.798,11.227 1.086,11.177 1.718,9.424 1.339,8.563 1.172,8.067 0.55,6.035 0.5,5.765 0.51,5.575 0.55,5.386 0.591,5.345"
   id="27069"
   inkscape:label="Kittson, MN"
   inkscape:connector-curvature="0" />
  <path
   style="fill:#72b3dc;stroke:#c2dffb;stroke-width:1"
   d="m 13.693,19.006 0.005,1.118 -1.118,1.126 -4.507,0 -1.136,-1.121 0,-1.483 6.751,-0.005 0.005,0.365"
   id="27125"
   inkscape:label="Red Lake, MN"
   inkscape:connector-curvature="0" />
  <path
   style="fill:#72b3dc;stroke:#c2dffb;stroke-width:1"
   d="m 14.689,15.968 0.104,1.952 0.009,1.104 -1.109,-0.018 -0.005,-0.365 -6.751,0.005 -0.145,-2.696 2.133,0.005 0.648,0.027 1.577,0.014 3.539,-0.028"
   id="27113"
   inkscape:label="Pennington, MN"
   inkscape:connector-curvature="0" />
  <path
   style="fill:#72b3dc;stroke:#c2dffb;stroke-width:1"
   d="m 1.086,11.177 6.712,0.05 6.796,0.072 0,1.659 0.014,0.55 0.076,0.004 0.005,2.456 L 11.15,15.996 9.573,15.982 8.925,15.955 6.792,15.95 1.163,15.915 1.168,15.653 1.452,14.558 1.397,11.484 1.195,11.236 1.127,11.2 1.086,11.177"
   id="27089"
   inkscape:label="Marshall, MN"
   inkscape:connector-curvature="0" />
  <path
   style="fill:#72b3dc;stroke:#c2dffb;stroke-width:1"
   d="m 6.792,15.95 0.145,2.696 0,1.483 1.136,1.121 4.507,0 1.118,-1.126 -0.005,-1.118 1.109,0.018 0.045,3.128 0.091,0.207 0.134,0 0,2.218 L 10.561,24.6 3.642,24.568 3.34,22.346 2.205,19.754 1.366,16.73 1.163,15.946 l 0,-0.031 5.629,0.035"
   id="27119"
   inkscape:label="Polk, MN"
   inkscape:connector-curvature="0" />
  <path
   style="fill:#72b3dc;stroke:#c2dffb;stroke-width:1"
   d="m 10.561,24.6 0,4.457 L 9.434,29.062 3.845,29.039 3.8,27.921 3.642,24.568 10.561,24.6"
   id="27107"
   inkscape:label="Norman, MN"
   inkscape:connector-curvature="0" />
  <path
   style="fill:#72b3dc;stroke:#c2dffb;stroke-width:1"
   d="m 15.072,24.577 0.05,4.471 -4.561,0.009 0,-4.457 4.511,-0.023"
   id="27087"
   inkscape:label="Mahnomen, MN"
   inkscape:connector-curvature="0" />
  <path
   style="fill:#72b3dc;stroke:#c2dffb;stroke-width:1"
   d="m 14.802,19.024 -0.009,-1.104 3.087,-0.014 0.325,1.885 0.099,2.55 0.04,3.336 0.154,3.335 -3.376,0.036 -0.05,-4.471 0,-2.218 -0.134,0 -0.091,-0.207 -0.045,-3.128"
   id="27029"
   inkscape:label="Clearwater, MN"
   inkscape:connector-curvature="0" />
  <path
   style="fill:#72b3dc;stroke:#c2dffb;stroke-width:1"
   d="m 16.843,11.268 1.132,-0.005 0.027,2.222 6.788,-0.104 0.198,6.666 0.032,2.074 0.067,1.613 0.005,1.447 -2.227,0.478 -4.521,0.018 -0.04,-3.336 -0.099,-2.55 -0.325,-1.885 -3.087,0.014 -0.104,-1.952 -0.005,-2.456 -0.076,-0.004 -0.014,-0.55 0,-1.659 2.249,-0.031"
   id="27007"
   inkscape:label="Beltrami, MN"
   inkscape:connector-curvature="0" />
  <path
   style="fill:#72b3dc;stroke:#c2dffb;stroke-width:1"
   d="m 54.365,14.612 0.46,-0.383 0.775,-0.379 0.334,0 0.031,0.009 0.041,0.05 0.347,0.77 0.148,0.424 0,0.009 0.279,0.564 0.091,0.085 1.573,-0.293 3.415,-0.27 0.353,-0.018 0.393,0.072 0.156,0.036 0.451,0.18 0.244,0.334 0.044,0.104 -0.018,0.175 0.041,0.09 0.226,0.163 0.64,0.306 0.211,0.014 0.216,-0.104 1.66,-0.306 1.446,-0.185 -0.013,0.121 -0.032,0.036 -0.496,0.388 -0.144,0.108 -1.861,1.095 -1.189,0.65 -0.677,0.369 -0.636,0.275 -0.779,0.261 -0.6,0.212 -1.654,0.694 -0.816,0.348 -1.686,1.103 -1.113,0.925 -1.298,1.248 -0.256,-5.242 -0.158,-2.416 -0.149,-1.622"
   id="27031"
   inkscape:label="Cook, MN"
   inkscape:connector-curvature="0" />
  <path
   style="fill:#72b3dc;stroke:#c2dffb;stroke-width:1"
   d="m 54.365,14.612 0.149,1.622 0.158,2.416 0.256,5.242 -0.194,0.117 -0.684,0.766 -0.238,0.28 -1.087,1.505 -1.412,1.695 -0.171,0.184 -0.356,0.24 -0.473,0.257 -1.109,1.14 -0.275,0.301 -0.483,0.578 -0.278,-7.437 -0.213,-2.713 -0.054,-1.091 -0.203,-4.89 0.489,-0.077 0.238,0.054 0.009,0.014 0.031,0.054 0.126,0.622 -0.063,0.28 -0.031,0.081 0.004,0.031 0.627,0.184 1.347,0.316 1.389,-0.099 0.332,-0.058 0.204,-0.073 0.134,-0.072 0.006,0 1.825,-1.469"
   id="27075"
   inkscape:label="Lake, MN"
   inkscape:connector-curvature="0" />
  <path
   style="fill:#72b3dc;stroke:#c2dffb;stroke-width:1"
   d="m 36.666,19.182 0.004,0.893 0.055,1.302 0.153,1.483 0.121,2.979 0.054,1.555 0.144,1.803 0.033,1.063 -6.37,0.122 -0.072,-3.52 -0.085,-0.045 -0.645,-0.122 -0.171,-0.013 -0.004,0.049 -0.216,0.189 -0.1,0.055 -0.238,-0.149 -0.758,-0.514 -0.103,-0.108 -0.072,-0.194 0,-0.32 0.017,-0.036 -0.023,-0.23 -0.342,-0.599 -0.135,-0.122 -0.203,-0.031 -1.568,0.744 -0.217,0.126 -0.546,-0.154 -0.287,-0.207 -0.005,-1.447 -0.067,-1.613 -0.032,-2.074 5.62,-0.121 -0.014,-0.672 6.072,-0.072"
   id="27061"
   inkscape:label="Itasca, MN"
   inkscape:connector-curvature="0" />
  <path
   style="fill:#72b3dc;stroke:#c2dffb;stroke-width:1"
   d="m 18.344,25.677 4.521,-0.018 0.073,1.136 0.107,4.421 0.018,2.227 -1.126,0.009 -3.34,0.022 -0.019,-2.226 -0.063,-0.149 -0.017,-0.924 0,-1.163 -0.154,-3.335"
   id="27057"
   inkscape:label="Hubbard, MN"
   inkscape:connector-curvature="0" />
  <path
   style="fill:#72b3dc;stroke:#c2dffb;stroke-width:1"
   d="m 22.865,25.659 2.227,-0.478 0.287,0.207 0.546,0.154 0.217,-0.126 1.568,-0.744 0.203,0.031 0.135,0.122 0.342,0.599 0.023,0.23 -0.017,0.036 0,0.32 0.072,0.194 0.103,0.108 0.758,0.514 0.238,0.149 0.1,-0.055 0.216,-0.189 0.004,-0.049 0.171,0.013 0.645,0.122 0.085,0.045 0.131,6.441 -5.034,0.068 -0.005,1.483 0.018,0.756 0.144,0.614 0.086,3.24 0.009,0.532 -0.045,0.135 -0.081,0.023 -0.022,-0.131 -0.059,-0.095 -0.69,-0.464 -0.302,0.022 -0.063,0.109 -0.175,0.112 -0.425,0.153 -0.089,-0.022 -0.726,-0.32 -0.253,-0.23 -0.703,-0.252 -0.433,-0.32 -0.098,-3.033 -0.036,-2.231 1.126,-0.009 -0.018,-2.227 -0.107,-4.421 -0.073,-1.136"
   id="27021"
   inkscape:label="Cass, MN"
   inkscape:connector-curvature="0" />
  <path
   style="fill:#72b3dc;stroke:#c2dffb;stroke-width:1"
   d="m 21.937,33.452 0.036,2.231 0.098,3.033 0.433,0.32 -3.795,0.041 -0.112,-4.481 0,-1.122 3.34,-0.022"
   id="27159"
   inkscape:label="Wadena, MN"
   inkscape:connector-curvature="0" />
  <path
   style="fill:#72b3dc;stroke:#c2dffb;stroke-width:1"
   d="m 18.498,29.012 0,1.163 0.017,0.924 0.063,0.149 0.019,2.226 0,1.122 -4.197,0.054 -4.799,-0.027 -0.167,-5.561 1.127,-0.005 4.561,-0.009 3.376,-0.036"
   id="27005"
   inkscape:label="Becker, MN"
   inkscape:connector-curvature="0" />
  <path
   style="fill:#72b3dc;stroke:#c2dffb;stroke-width:1"
   d="M 9.434,29.062 9.601,34.623 8.649,35.741 4.174,35.719 4.169,34.997 4.341,32.194 4.232,31.896 3.858,30.67 3.845,29.039 9.434,29.062"
   id="27027"
   inkscape:label="Clay, MN"
   inkscape:connector-curvature="0" />
  <path
   style="fill:#72b3dc;stroke:#c2dffb;stroke-width:1"
   d="m 4.174,35.719 4.475,0.022 -0.004,4.48 0.136,0 -0.01,2.24 L 8.762,43.579 5.959,43.561 6.126,43.092 6.148,43.011 6.166,42.75 6.139,42.524 5.796,39.82 4.557,36.836 4.174,35.723 l 0,-0.004"
   id="27167"
   inkscape:label="Wilkin, MN"
   inkscape:connector-curvature="0" />
  <path
   style="fill:#72b3dc;stroke:#c2dffb;stroke-width:1"
   d="m 9.601,34.623 4.799,0.027 4.197,-0.054 0.112,4.481 0.118,3.375 -5.608,0.018 -4.448,-0.009 0.01,-2.24 -0.136,0 0.004,-4.48 0.952,-1.118"
   id="27111"
   inkscape:label="Otter Tail, MN"
   inkscape:connector-curvature="0" />
  <path
   style="fill:#72b3dc;stroke:#c2dffb;stroke-width:1"
   d="m 36.314,9.785 0.933,0.004 6.116,3.385 0.225,-0.157 1.794,-0.131 0.23,0.419 0.393,0.82 0.04,0.063 0.072,0.1 1.581,0.536 0.203,4.89 0.054,1.091 0.213,2.713 0.278,7.437 -0.404,0.202 -0.361,0.266 -1.51,1.294 -0.23,0.212 -0.068,0.085 0.06,0.18 0.225,0.352 0.36,0.428 0.099,0.054 -0.046,0.032 -0.125,-0.054 -0.513,-0.501 -0.24,0.018 -0.63,0.429 -0.05,0.103 -0.009,0.095 0.031,0.081 0,0.009 0.045,0.05 0.009,0.009 0.009,0.144 -0.121,0.316 -0.041,0.04 -0.044,0.027 -0.267,0.018 -0.248,-0.022 -0.202,-0.14 -0.136,-1.289 -2.064,0.054 -4.692,0.149 L 37.23,30.26 37.197,29.197 37.053,27.394 36.999,25.839 36.878,22.86 36.725,21.377 36.67,20.075 36.666,19.182 36.647,18.691 36.549,17.519 36.462,16.933 36.387,14.702 36.363,12.503 36.314,9.785"
   id="27137"
   inkscape:label="St. Louis, MN"
   inkscape:connector-curvature="0" />
  <path
   style="fill:#72b3dc;stroke:#c2dffb;stroke-width:1"
   d="m 37.283,33.596 4.692,-0.149 2.064,-0.054 0.136,1.289 0.117,3.159 -6.811,0.217 -0.067,-1.934 -0.072,-0.302 -0.028,-0.477 -0.026,-0.636 -0.005,-1.113"
   id="27017"
   inkscape:label="Carlton, MN"
   inkscape:connector-curvature="0" />
  <path
   style="fill:#72b3dc;stroke:#c2dffb;stroke-width:1"
   d="m 37.481,38.058 6.811,-0.217 0.121,3.345 0.023,0.559 0.018,0.505 -1.312,0.819 -1.875,1.231 -0.003,0.005 -0.448,0.392 -0.113,0.149 -0.112,0.202 -0.905,1.812 -2.714,0.077 -0.109,-3.218 0.789,-0.032 -0.057,-2.276 -0.114,-3.353"
   id="27115"
   inkscape:label="Pine, MN"
   inkscape:connector-curvature="0" />
  <path
   style="fill:#72b3dc;stroke:#c2dffb;stroke-width:1"
   d="m 34.205,41.564 3.39,-0.153 0.057,2.276 -0.789,0.032 0.109,3.218 -3.362,0.049 -0.086,-1.812 -0.035,-1.374 0.4,-0.014 0.357,-0.374 -0.041,-1.848"
   id="27065"
   inkscape:label="Kanabec, MN"
   inkscape:connector-curvature="0" />
  <path
   style="fill:#72b3dc;stroke:#c2dffb;stroke-width:1"
   d="m 37.23,30.26 0.053,3.336 0.005,1.113 0.026,0.636 0.028,0.477 0.072,0.302 0.067,1.934 0.114,3.353 -3.39,0.153 0.009,-0.338 -0.027,-0.847 -0.929,0.014 L 30.91,40.5 30.807,40.433 30.779,40.406 30.775,40.375 30.672,36.12 30.946,35.178 30.919,33.303 30.86,30.382 37.23,30.26"
   id="27001"
   inkscape:label="Aitkin, MN"
   inkscape:connector-curvature="0" />
  <path
   style="fill:#72b3dc;stroke:#c2dffb;stroke-width:1"
   d="m 26.011,40.154 0.081,-0.023 0.045,-0.135 -0.009,-0.532 -0.086,-3.24 -0.144,-0.614 -0.018,-0.756 0.005,-1.483 5.034,-0.068 0.027,1.875 -0.274,0.942 0.103,4.255 0.004,0.031 0.028,0.027 0.103,0.067 -0.103,1.118 -5.062,0.095 -0.014,-0.428 0.009,-0.681 0.271,-0.45"
   id="27035"
   inkscape:label="Crow Wing, MN"
   inkscape:connector-curvature="0" />
  <path
   style="fill:#72b3dc;stroke:#c2dffb;stroke-width:1"
   d="m 23.207,39.288 0.253,0.23 0.726,0.32 0.089,0.022 0.425,-0.153 0.175,-0.112 0.063,-0.109 0.302,-0.022 0.69,0.464 0.059,0.095 0.022,0.131 -0.271,0.45 -0.009,0.681 0.014,0.428 5.062,-0.095 0.053,2.232 0.046,0 0.347,0.752 0.072,1.307 -2.222,0.027 -3.092,0.085 0.743,0.591 -3.357,0.068 -0.19,-7.392"
   id="27097"
   inkscape:label="Morrison, MN"
   inkscape:connector-curvature="0" />
  <path
   style="fill:#72b3dc;stroke:#c2dffb;stroke-width:1"
   d="m 22.504,39.036 0.703,0.252 0.19,7.392 -4.475,0.063 -0.095,-4.291 -0.118,-3.375 3.795,-0.041"
   id="27153"
   inkscape:label="Todd, MN"
   inkscape:connector-curvature="0" />
  <path
   style="fill:#72b3dc;stroke:#c2dffb;stroke-width:1"
   d="m 18.827,42.452 0.095,4.291 0,0.185 -5.59,0.018 -0.004,-2.236 -0.099,0 -0.01,-2.24 5.608,-0.018"
   id="27041"
   inkscape:label="Douglas, MN"
   inkscape:connector-curvature="0" />
  <path
   style="fill:#72b3dc;stroke:#c2dffb;stroke-width:1"
   d="m 8.771,42.461 4.448,0.009 0.01,2.24 0.099,0 0.004,2.236 -4.47,0.004 -0.1,-3.371 0.009,-1.118"
   id="27051"
   inkscape:label="Grant, MN"
   inkscape:connector-curvature="0" />
  <path
   style="fill:#72b3dc;stroke:#c2dffb;stroke-width:1"
   d="m 5.959,43.561 2.803,0.018 0.1,3.371 0,2.245 L 3.588,49.154 3.426,48.947 3.39,48.897 3.516,48.465 3.547,48.393 3.561,48.379 3.579,48.356 3.593,48.338 4.417,47.676 4.729,47.473 5.076,47.284 5.26,47.099 5.891,46.162 5.905,46.13 l 0.009,-0.018 0.009,-0.027 0.009,-0.064 0.022,-0.117 0.032,-0.279 0.04,-0.342 0.005,-0.014 0,-0.027 0.05,-0.563 -0.122,-1.118"
   id="27155"
   inkscape:label="Traverse, MN"
   inkscape:connector-curvature="0" />
  <path
   style="fill:#72b3dc;stroke:#c2dffb;stroke-width:1"
   d="m 3.588,49.154 5.274,0.041 0.107,0 -0.009,2.226 1.132,0.014 0.117,3.033 L 9.573,54.247 8.649,53.874 8.564,53.688 8.177,53.512 7.032,53.269 6.883,52.525 6.711,52.129 6.414,51.89 5.544,51.466 4.219,49.997 3.588,49.154"
   id="27011"
   inkscape:label="Big Stone, MN"
   inkscape:connector-curvature="0" />
  <path
   style="fill:#72b3dc;stroke:#c2dffb;stroke-width:1"
   d="m 13.444,51.426 4.473,-0.027 0.103,3.358 -7.202,0.027 -0.609,-0.316 -0.117,-3.033 3.352,-0.009"
   id="27151"
   inkscape:label="Swift, MN"
   inkscape:connector-curvature="0" />
  <path
   style="fill:#72b3dc;stroke:#c2dffb;stroke-width:1"
   d="m 13.332,46.946 0.009,2.249 0.095,0 0.008,2.231 -3.352,0.009 -1.132,-0.014 0.009,-2.226 -0.107,0 0,-2.245 4.47,-0.004"
   id="27149"
   inkscape:label="Stevens, MN"
   inkscape:connector-curvature="0" />
  <path
   style="fill:#72b3dc;stroke:#c2dffb;stroke-width:1"
   d="m 18.922,46.928 0.017,2.239 0.077,0 0.018,2.228 -1.117,0.004 -4.473,0.027 -0.008,-2.231 -0.095,0 -0.009,-2.249 5.59,-0.018"
   id="27121"
   inkscape:label="Pope, MN"
   inkscape:connector-curvature="0" />
  <path
   style="fill:#72b3dc;stroke:#c2dffb;stroke-width:1"
   d="m 23.397,46.68 3.357,-0.068 1.159,2.763 0.965,1.744 -1.907,1.821 -1.114,0.036 -0.527,-0.55 -0.861,0.01 -2.077,0.031 -0.015,-1.118 -3.343,0.046 -0.018,-2.228 -0.077,0 -0.017,-2.239 0,-0.185 4.475,-0.063"
   id="27145"
   inkscape:label="Stearns, MN"
   inkscape:connector-curvature="0" />
  <path
   style="fill:#72b3dc;stroke:#c2dffb;stroke-width:1"
   d="m 26.754,46.612 -0.743,-0.591 3.092,-0.085 2.222,-0.027 0.117,3.38 -3.529,0.086 -1.159,-2.763"
   id="27009"
   inkscape:label="Benton, MN"
   inkscape:connector-curvature="0" />
  <path
   style="fill:#72b3dc;stroke:#c2dffb;stroke-width:1"
   d="m 30.91,40.5 2.348,-0.107 0.929,-0.014 0.027,0.847 -0.009,0.338 0.041,1.848 -0.357,0.374 -0.4,0.014 0.035,1.374 0.086,1.812 0.085,2.258 -2.253,0.045 -0.117,-3.38 -0.072,-1.307 -0.347,-0.752 -0.046,0 -0.053,-2.232 0.103,-1.118"
   id="27095"
   inkscape:label="Mille Lacs, MN"
   inkscape:connector-curvature="0" />
  <path
   style="fill:#72b3dc;stroke:#c2dffb;stroke-width:1"
   d="m 36.972,46.937 0.063,2.227 1.091,0.161 0.081,1.686 -1.303,0.01 -2.605,0.08 -0.545,0 -0.059,-1.857 -0.085,-2.258 3.362,-0.049"
   id="27059"
   inkscape:label="Isanti, MN"
   inkscape:connector-curvature="0" />
  <path
   style="fill:#72b3dc;stroke:#c2dffb;stroke-width:1"
   d="m 39.686,46.86 -0.367,1.122 -0.012,0.204 0.004,0.085 0.023,0.342 0.031,0.253 0.122,0.094 0.433,0.073 0.18,-0.028 0.713,0.384 0.445,0.842 0.18,0.911 -0.342,0.874 -0.24,0.297 -0.012,0.01 -0.109,0.099 -2.478,0.072 -0.05,-1.483 -0.081,-1.686 -1.091,-0.161 -0.063,-2.227 2.714,-0.077"
   id="27025"
   inkscape:label="Chisago, MN"
   inkscape:connector-curvature="0" />
  <path
   style="fill:#72b3dc;stroke:#c2dffb;stroke-width:1"
   d="m 36.462,55.924 1.849,-1.199 0.104,3.006 -1.447,0.077 -0.506,-1.884"
   id="27123"
   inkscape:label="Ramsey, MN"
   inkscape:connector-curvature="0" />
  <path
   style="fill:#72b3dc;stroke:#c2dffb;stroke-width:1"
   d="m 33.754,51.101 0.545,0 2.605,-0.08 1.303,-0.01 0.05,1.483 0.054,2.231 -1.849,1.199 -2.672,-2.641 -0.036,-2.182"
   id="27003"
   inkscape:label="Anoka, MN"
   inkscape:connector-curvature="0" />
  <path
   style="fill:#72b3dc;stroke:#c2dffb;stroke-width:1"
   d="m 33.695,49.244 0.059,1.857 0.036,2.182 -0.085,-0.009 -0.559,-0.573 -0.803,-0.022 -0.766,0.027 -0.131,-0.032 -0.915,-0.523 -1.653,-1.032 -0.965,-1.744 3.529,-0.086 2.253,-0.045"
   id="27141"
   inkscape:label="Sherburne, MN"
   inkscape:connector-curvature="0" />
  <path
   style="fill:#72b3dc;stroke:#c2dffb;stroke-width:1"
   d="m 26.971,52.94 1.907,-1.821 1.653,1.032 0.915,0.523 0.131,0.032 0.766,-0.027 0.803,0.022 0.559,0.573 -1.087,0.554 -0.126,0.104 -0.816,1.554 -0.117,1.307 -2.245,0.041 -2.226,0.032 -0.117,-3.926"
   id="27171"
   inkscape:label="Wright, MN"
   inkscape:connector-curvature="0" />
  <path
   style="fill:#72b3dc;stroke:#c2dffb;stroke-width:1"
   d="m 22.392,52.467 2.077,-0.031 0.861,-0.01 0.527,0.55 1.114,-0.036 0.117,3.926 -2.235,1.167 -2.34,0.036 -0.121,-5.602"
   id="27093"
   inkscape:label="Meeker, MN"
   inkscape:connector-curvature="0" />
  <path
   style="fill:#72b3dc;stroke:#c2dffb;stroke-width:1"
   d="m 17.917,51.399 1.117,-0.004 3.343,-0.046 0.015,1.118 0.121,5.602 -4.484,0.055 -0.009,-3.367 -0.103,-3.358"
   id="27067"
   inkscape:label="Kandiyohi, MN"
   inkscape:connector-curvature="0" />
  <path
   style="fill:#72b3dc;stroke:#c2dffb;stroke-width:1"
   d="m 10.818,54.784 7.202,-0.027 0.009,3.367 -2.15,0.022 0.014,1.776 -2.336,-2.353 -2.739,-2.785"
   id="27023"
   inkscape:label="Chippewa, MN"
   inkscape:connector-curvature="0" />
  <path
   style="fill:#72b3dc;stroke:#c2dffb;stroke-width:1"
   d="m 38.257,52.494 2.478,-0.072 -0.139,1.122 -0.19,1.699 0.028,0.424 0.224,0.478 0.196,0.906 -0.07,0.973 -0.319,1.524 -2.05,-1.817 -0.104,-3.006 -0.054,-2.231"
   id="27163"
   inkscape:label="Washington, MN"
   inkscape:connector-curvature="0" />
  <path
   style="fill:#72b3dc;stroke:#c2dffb;stroke-width:1"
   d="m 36.968,57.808 1.447,-0.077 2.05,1.817 0.654,0.378 0.035,1.091 -0.508,1.127 -1.164,0.04 -1.09,0.406 0.013,0.558 -2.258,-0.865 -0.004,-1.122 -0.366,0.009 -0.121,-1.117 -0.041,-0.947 1.353,-1.298"
   id="27037"
   inkscape:label="Dakota, MN"
   inkscape:connector-curvature="0" />
  <path
   style="fill:#72b3dc;stroke:#c2dffb;stroke-width:1"
   d="m 33.79,53.283 2.672,2.641 0.506,1.884 -1.353,1.298 -1.753,-0.127 -0.027,-1.122 -2.258,0.059 -0.018,-1.123 0.117,-1.307 0.816,-1.554 0.126,-0.104 1.087,-0.554 0.085,0.009"
   id="27053"
   inkscape:label="Hennepin, MN"
   inkscape:connector-curvature="0" />
  <path
   style="fill:#72b3dc;stroke:#c2dffb;stroke-width:1"
   d="m 33.862,58.979 1.753,0.127 0.041,0.947 0.121,1.117 0.366,-0.009 0.004,1.122 -2.23,0.064 -3.552,0.09 1.28,-1.285 0.041,0.014 0.243,-0.1 0.771,-0.604 0.225,-0.302 -0.063,-0.117 0.009,-0.189 0.463,-0.734 0.339,-0.141 0.189,0"
   id="27139"
   inkscape:label="Scott, MN"
   inkscape:connector-curvature="0" />
  <path
   style="fill:#72b3dc;stroke:#c2dffb;stroke-width:1"
   d="m 29.314,56.834 2.245,-0.041 0.018,1.123 2.258,-0.059 0.027,1.122 -0.189,0 -0.339,0.141 -0.463,0.734 -0.009,0.189 0.063,0.117 -0.225,0.302 -0.771,0.604 -0.243,0.1 -0.041,-0.014 -2.245,-0.946 -0.086,-3.372"
   id="27019"
   inkscape:label="Carver, MN"
   inkscape:connector-curvature="0" />
  <path
   style="fill:#72b3dc;stroke:#c2dffb;stroke-width:1"
   d="m 27.088,56.866 2.226,-0.032 0.086,3.372 -1.117,0.022 -1.114,0.14 0.01,1.009 -1.898,0.037 -0.334,0.004 -0.018,-1.127 -0.076,-2.258 2.235,-1.167"
   id="27085"
   inkscape:label="McLeod, MN"
   inkscape:connector-curvature="0" />
  <path
   style="fill:#72b3dc;stroke:#c2dffb;stroke-width:1"
   d="m 29.4,60.206 2.245,0.946 -1.28,1.285 -0.149,1.122 -6.396,0.122 -0.063,-1.114 -0.036,-2.254 1.208,-0.022 0.018,1.127 0.334,-0.004 1.898,-0.037 -0.01,-1.009 1.114,-0.14 1.117,-0.022"
   id="27143"
   inkscape:label="Sibley, MN"
   inkscape:connector-curvature="0" />
  <path
   style="fill:#72b3dc;stroke:#c2dffb;stroke-width:1"
   d="m 24.853,58.033 0.076,2.258 -1.208,0.022 0.036,2.254 0.063,1.114 -1.443,0.013 -0.788,-0.527 -4.565,-2.542 -1.131,-0.703 -0.014,-1.776 2.15,-0.022 4.484,-0.055 2.34,-0.036"
   id="27129"
   inkscape:label="Renville, MN"
   inkscape:connector-curvature="0" />
  <path
   style="fill:#72b3dc;stroke:#c2dffb;stroke-width:1"
   d="m 10.209,54.468 0.609,0.316 2.739,2.785 0,0.577 -1.017,1.113 -5.522,-0.009 0.014,-5.981 1.145,0.243 0.387,0.176 0.085,0.186 0.924,0.373 0.636,0.221"
   id="27073"
   inkscape:label="Lac qui Parle, MN"
   inkscape:connector-curvature="0" />
  <path
   style="fill:#72b3dc;stroke:#c2dffb;stroke-width:1"
   d="m 7.018,59.25 5.522,0.009 1.017,-1.113 0,-0.577 2.336,2.353 1.131,0.703 0.009,2.023 -2.155,0.005 -0.085,-1.131 -4.494,0 -3.295,-0.018 0.014,-2.254"
   id="27173"
   inkscape:label="Yellow Medicine, MN"
   inkscape:connector-curvature="0" />
  <path
   style="fill:#72b3dc;stroke:#c2dffb;stroke-width:1"
   d="m 10.299,61.522 0.126,5.606 -3.457,-0.013 0.028,-4.48 0.008,-1.131 3.295,0.018"
   id="27081"
   inkscape:label="Lincoln, MN"
   inkscape:connector-curvature="0" />
  <path
   style="fill:#72b3dc;stroke:#c2dffb;stroke-width:1"
   d="m 14.909,67.133 -4.344,-0.005 -0.14,0 -0.126,-5.606 4.494,0 0.085,1.131 0.031,4.48"
   id="27083"
   inkscape:label="Lyon, MN"
   inkscape:connector-curvature="0" />
  <path
   style="fill:#72b3dc;stroke:#c2dffb;stroke-width:1"
   d="m 21.589,63.167 0.032,2.79 -2.226,0.031 -0.005,1.122 -3.268,0.01 -1.213,0.013 -0.031,-4.48 2.155,-0.005 -0.009,-2.023 4.565,2.542"
   id="27127"
   inkscape:label="Redwood, MN"
   inkscape:connector-curvature="0" />
  <path
   style="fill:#72b3dc;stroke:#c2dffb;stroke-width:1"
   d="m 22.377,63.694 0.295,0.09 0.391,0.194 1.952,0.987 0.108,0.077 0.221,0.216 0.843,0.866 0.059,2.014 -4.539,0.072 -2.317,-1.1 0.005,-1.122 2.226,-0.031 -0.032,-2.79 0.788,0.527"
   id="27015"
   inkscape:label="Brown, MN"
   inkscape:connector-curvature="0" />
  <path
   style="fill:#72b3dc;stroke:#c2dffb;stroke-width:1"
   d="m 30.216,63.559 -0.279,1.127 -0.442,1.32 0.022,0.379 0.104,0.82 -0.014,0.09 -0.388,0.189 -0.081,0.01 -0.269,-0.082 -0.276,-0.158 -0.113,-0.089 -1.915,-0.911 -0.378,-0.13 -0.843,-0.866 -0.221,-0.216 -0.108,-0.077 -1.952,-0.987 -0.391,-0.194 -0.295,-0.09 1.443,-0.013 6.396,-0.122"
   id="27103"
   inkscape:label="Nicollet, MN"
   inkscape:connector-curvature="0" />
  <path
   style="fill:#72b3dc;stroke:#c2dffb;stroke-width:1"
   d="m 30.365,62.437 3.552,-0.09 0.107,4.493 -2.244,0.054 -2.263,-0.509 -0.022,-0.379 0.442,-1.32 0.279,-1.127 0.149,-1.122"
   id="27079"
   inkscape:label="Le Sueur, MN"
   inkscape:connector-curvature="0" />
  <path
   style="fill:#72b3dc;stroke:#c2dffb;stroke-width:1"
   d="m 33.917,62.347 2.23,-0.064 2.258,0.865 0.095,3.557 -0.05,0 -3.33,0.099 -1.096,0.036 -0.107,-4.493"
   id="27131"
   inkscape:label="Rice, MN"
   inkscape:connector-curvature="0" />
  <path
   style="fill:#72b3dc;stroke:#c2dffb;stroke-width:1"
   d="m 41.119,59.926 0.95,0.807 0.099,0.126 0.023,0.126 0.667,0.663 0.145,0.067 0.392,0.046 1.239,0.049 0.158,0.036 0.104,0.05 0.089,0.077 0.032,0.049 0.731,1.091 -1.736,0.058 -1.064,1.159 0.076,2.249 -1.179,0.027 -3.345,0.099 -0.095,-3.557 -0.013,-0.558 1.09,-0.406 1.164,-0.04 0.508,-1.127 -0.035,-1.091"
   id="27049"
   inkscape:label="Goodhue, MN"
   inkscape:connector-curvature="0" />
  <path
   style="fill:#72b3dc;stroke:#c2dffb;stroke-width:1"
   d="m 45.748,63.113 1.478,0.563 2.154,2.668 -1.951,1.195 -2.218,0.086 -0.05,-1.127 -2.137,0.081 -0.076,-2.249 1.064,-1.159 1.736,-0.058"
   id="27157"
   inkscape:label="Wabasha, MN"
   inkscape:connector-curvature="0" />
  <path
   style="fill:#72b3dc;stroke:#c2dffb;stroke-width:1"
   d="m 49.38,66.344 2.907,2.055 1.312,0.451 1.347,1.713 -4.142,0.198 -3.236,0.135 -0.139,-3.357 1.951,-1.195"
   id="27169"
   inkscape:label="Winona, MN"
   inkscape:connector-curvature="0" />
  <path
   style="fill:#72b3dc;stroke:#c2dffb;stroke-width:1"
   d="m 41.845,66.606 1.179,-0.027 2.137,-0.081 0.05,1.127 2.218,-0.086 0.139,3.357 -3.425,0.307 -2.245,-0.108 -0.053,-4.489"
   id="27109"
   inkscape:label="Olmsted, MN"
   inkscape:connector-curvature="0" />
  <path
   style="fill:#72b3dc;stroke:#c2dffb;stroke-width:1"
   d="m 38.5,66.705 3.345,-0.099 0.053,4.489 -3.303,0.113 -0.145,-4.503 0.05,0"
   id="27039"
   inkscape:label="Dodge, MN"
   inkscape:connector-curvature="0" />
  <path
   style="fill:#72b3dc;stroke:#c2dffb;stroke-width:1"
   d="m 38.45,66.705 0.145,4.503 -0.035,0 -3.319,0.099 -0.121,-4.503 3.33,-0.099"
   id="27147"
   inkscape:label="Steele, MN"
   inkscape:connector-curvature="0" />
  <path
   style="fill:#72b3dc;stroke:#c2dffb;stroke-width:1"
   d="m 34.024,66.84 1.096,-0.036 0.121,4.503 -2.244,0.058 -1.109,0.027 -0.108,-4.498 2.244,-0.054"
   id="27161"
   inkscape:label="Waseca, MN"
   inkscape:connector-curvature="0" />
  <path
   style="fill:#72b3dc;stroke:#c2dffb;stroke-width:1"
   d="m 31.78,66.894 0.108,4.498 -4.453,0.1 -1.131,0.017 -0.058,-3.371 -0.059,-2.014 0.378,0.13 1.915,0.911 0.113,0.089 0.276,0.158 0.269,0.082 0.081,-0.01 0.388,-0.189 0.014,-0.09 -0.104,-0.82 2.263,0.509"
   id="27013"
   inkscape:label="Blue Earth, MN"
   inkscape:connector-curvature="0" />
  <path
   style="fill:#72b3dc;stroke:#c2dffb;stroke-width:1"
   d="m 21.707,68.21 4.539,-0.072 0.058,3.371 -4.507,0.063 -0.045,0 -0.045,-3.362"
   id="27165"
   inkscape:label="Watonwan, MN"
   inkscape:connector-curvature="0" />
  <path
   style="fill:#72b3dc;stroke:#c2dffb;stroke-width:1"
   d="m 16.122,67.12 3.268,-0.01 2.317,1.1 0.045,3.362 -5.513,0.054 -0.094,0 -0.023,-4.506"
   id="27033"
   inkscape:label="Cottonwood, MN"
   inkscape:connector-curvature="0" />
  <path
   style="fill:#72b3dc;stroke:#c2dffb;stroke-width:1"
   d="m 14.909,67.133 1.213,-0.013 0.023,4.506 -5.476,-0.004 -0.113,0 0.009,-4.494 4.344,0.005"
   id="27101"
   inkscape:label="Murray, MN"
   inkscape:connector-curvature="0" />
  <path
   style="fill:#72b3dc;stroke:#c2dffb;stroke-width:1"
   d="m 6.968,67.115 3.457,0.013 0.14,0 -0.009,4.494 -3.615,-0.018 0.027,-4.489"
   id="27117"
   inkscape:label="Pipestone, MN"
   inkscape:connector-curvature="0" />
  <path
   style="fill:#72b3dc;stroke:#c2dffb;stroke-width:1"
   d="m 6.941,71.604 3.615,0.018 0.113,0 -0.01,4.516 -3.736,-0.013 0.018,-4.521"
   id="27133"
   inkscape:label="Rock, MN"
   inkscape:connector-curvature="0" />
  <path
   style="fill:#72b3dc;stroke:#c2dffb;stroke-width:1"
   d="m 10.669,71.622 5.476,0.004 0.094,0 0.01,4.494 -3.8,0.023 -1.79,-0.005 0.01,-4.516"
   id="27105"
   inkscape:label="Nobles, MN"
   inkscape:connector-curvature="0" />
  <path
   style="fill:#72b3dc;stroke:#c2dffb;stroke-width:1"
   d="m 21.752,71.572 0.045,0 0.054,4.499 -0.568,0.009 -4.412,0.04 -0.622,0 -0.01,-4.494 5.513,-0.054"
   id="27063"
   inkscape:label="Jackson, MN"
   inkscape:connector-curvature="0" />
  <path
   style="fill:#72b3dc;stroke:#c2dffb;stroke-width:1"
   d="m 27.435,71.492 0.082,4.493 -1.826,0.031 -3.84,0.055 -0.054,-4.499 4.507,-0.063 1.131,-0.017"
   id="27091"
   inkscape:label="Martin, MN"
   inkscape:connector-curvature="0" />
  <path
   style="fill:#72b3dc;stroke:#c2dffb;stroke-width:1"
   d="m 32.997,71.365 0.108,4.511 -3.006,0.068 -2.582,0.041 -0.082,-4.493 4.453,-0.1 1.109,-0.027"
   id="27043"
   inkscape:label="Faribault, MN"
   inkscape:connector-curvature="0" />
  <path
   style="fill:#72b3dc;stroke:#c2dffb;stroke-width:1"
   d="m 38.56,71.208 0.143,4.511 -4.182,0.121 -1.416,0.036 -0.108,-4.511 2.244,-0.058 3.319,-0.099"
   id="27047"
   inkscape:label="Freeborn, MN"
   inkscape:connector-curvature="0" />
  <path
   style="fill:#72b3dc;stroke:#c2dffb;stroke-width:1"
   d="m 41.898,71.095 2.245,0.108 0.163,4.313 -0.974,0.036 -4.399,0.157 -0.23,0.01 -0.143,-4.511 0.035,0 3.303,-0.113"
   id="27099"
   inkscape:label="Mower, MN"
   inkscape:connector-curvature="0" />
  
  
  
  
  
  
  
  
  
  
  
  
  
  
  
  
  
  
  
  
  
  
  
  
  
  
  
  
  
  
  
  
  
  
  
  
  
  
  
  
  
  
  
  
  
  
  
  
  
  
  
  
  
  
  
  
  
  
  
  
  
  
  
  
  
  
  
  
  
  
  
  
  
  
  
  
  
  
  
  
  
  
  
  
  
  
  
  
  
  
  
  
  
  
  
  
  
  
  
  
  
  
  
  
  
  
  
  
  
  
  
  
  
  
  
  
  
  
  
  
  
  
  
  
  
  
  
  
  
  
  
  
  
  
  
  
  
  
  
  
  
  
  
  
  
  
  
  
  
  
  
  
  
  
  
  
  
  
  
  
  
  
  
  
  
  
  
  
  
  
  
  
  
  
  
  
  
  
  
  
  
  
  
  
  
  
  
  
  
  
  
  
  
  
  
  
  
  
  
  
  
  
  
  
  
  
  
  
  
  
  
  
  
  
  
  
  
  
  
  
  
  
  
  
  
  
  
  
  
  
  
  
  
  
  
  
  
  
  
  
  
  
  
  
  
  
  
  
  
  
  
  
  
  
  
  
  
  
  
  
  
  
  
  
  
  
  
  
  
  
  
  
  
  
  
  
  
  
  
  
  
  
  
  
  
  
  
  
  
  
  
  
  
  
  
  
  
  
  
  
  
  
  
  
  
  
  
  
  
  
  
  
  
  
  
  
  
  
  
  
  
  
  
  
  
  
  
  
  
  
  
  
  
  
  
  
  
  
  
  
  
  
  
  
  
  
  
  
  
  
  
  
  
  
  
  
  
  
  
  
  
  
  
  
  
  
  
  
  
  
  
  
  
  
  
  
  
  
  
  
  
  
  
  
  
  
  
  
  
  
  
  
  
  
  
  
  
  
  
  
  
  
  
  
  
  
  
  
  
  
  
  
  
  
  
  
  
  
  
  
  
  
  
  
  
  
  
  
  
  
  
  
  
  
  
  
  
  
  
  
  
  
  
  
  
  
  
  
  
  
  
  
  
  
  
  
  
  
  
  
  
  
  
  
  
  
  
  
  
  
  
  
  
  
  
  
  
  
  
  
  
  
  
  
  
  
  
  
  
  
  
  
  
  
  
  
  
  
  
  
  
  
  
  
  
  
  
  
  
  
  
  
  
  
  
  
  
  
  
  
  
  
  
  
  
  
  
  
  
  
  
  
  
  
  
  
  
  
  
  
  
  
  
  
  
  
  
  
  
  
  
  
  
  
  
  
  
  
  
  
  
  
  
  
  
  
  
  
  
  
  
  
  
  
  
  
  
  
  
  
  
  
  
  
  
  
  
  
  
  
  
  
  
  
  
  
  
  
  
  
  
  
  
  
  
  
  
  
  
  
  
  
  
  
  
  
  
  
  
  
  
  
  
  
  
  
  
  
  
  
  
  
  
  
  
  
  
  
  
  
  
  
  
  
  
  
  
  
  
  
  
  
  
  
  
  
  
  
  
  
  
  
  
  
  
  
  
  
  
  
  
  
  
  
  
  
  
  
  
  
  
  
  
  
  
  
  
  
  
  
  
  
  
  
  
  
  
  
  
  
  
  
  
  
  
  
  
  
  
  
  
  
  
  
  
  
  
  
  
  
  
  
  
  
  
  
  
  
  
  
  
  
  
  
  
  
  
  
  
  
  
  
  
  
  
  
  
  
  
  
  
  
  
  
  
  
  
  
  
  
  
  
  
  
  
  
  
  
  
  
  
  
  
  
  
  
  
  
  
  
  
  
  
  
  
  
  
  
  
  
  
  
  
  
  
  
  
  
  
  
  
  
  
  
  
  
  
  
  
  
  
  
  
  
  
  
  
  
  
  
  
  
  
  
  
  
  
  
  
  
  
  
  
  
  
  
  
  
  
  
  
  
  
  
  
  
  
  
  
  
  
  
  
  
  
  
  
  
  
  
  
  
  
  
  
  
  
  
  
  
  
  
  
  
  
  
  
  
  
  
  
  
  
  
  
  
  
  
  
  
  
  
  
  
  
  
  
  
  
  
  
  
  
  
  
  
  
  
  
  
  
  
  
  
  
  
  
  
  
  
  
  
  
  
  
  
  
  
  
  
  
  
  
  
  
  
  
  
  
  
  
  
  
  
  
  
  
  
  
  
  
  
  
  
  
  
  
  
  
  
  
  
  
  
  
  
  
  
  
  
  
  
  
  
  
  
  
  
  
  
  
  
  
  
  
  
  
  
  
  
  
  
  
  
  
  
  
  
  
  
  
  
  
  
  
  
  
  
  
  
  
  
  
  
  
  
  
  
  
  
  
  
  
  
  
  
  
  
  
  
  
  
  
  
  
  
  
  
  
  
  
  
  
  
  
  
  
  
  
  
  
  
  
  
  
  
  
  
  
  
  
  
  
  
  
  
  
  
  
  
  
  
  
  
  
  
  
  
  
  
  
  
  
  
  
  
  
  
  
  
  
  
  
  
  
  
  
  
  
  
  
  
  
  
  
  
  
  
  
  
  
  
  
  
  
  
  
  
  
  
  
  
  
  
  
  
  
  
  
  
  
  
  
  
  
  
  
  
  
  
  
  
  
  
  
  
  
  
  
  
  
  
  
  
  
  
  
  
  
  
  
  
  
  
  
  
  
  
  
  
  
  
  
  
  
  
  
  
  
  
  
  
  
  
  
  
  
  
  
  
  
  
  
  
  
  
  
  
  
  
  
  
  
  
  
  
  
  
  
  
  
  
  
  
  
  
  
  
  
  
  
  
  
  
  
  
  
  
  
  
  
  
  
  
  
  
  
  
  
  
  
  
  
  
  
  
  
  
  
  
  
  
  
  
  
  
  
  
  
  
  
  
  
  
  
  
  
  
  
  
  
  
  
  
  
  
  
  
  
  
  
  
  
  
  
  
  
  
  
  
  
  
  
  
  
  
  
  
  
  
  
  
  
  
  
  
  
  
  
  
  
  
  
  
  
  
  
  
  
  
  
  
  
  
  
  
  
  
  
  
  
  
  
  
  
  
  
  
  
  
  
  
  
  
  
  
  
  
  
  
  
  
  
  
  
  
  
  
  
  
  
  
  
  
  
  
  
  
  
  
  
  
  
  
  
  
  
  
  
  
  
  
  
  
  
  
  
  
  
  
  
  
  
  
  
  
  
  
  
  
  
  
  
  
  
  
  
  
  
  
  
  
  
  
  
  
  
  
  
  
  
  
  
  
  
  
  
  
  
  
  
  
  
  
  
  
  
  
  
  
  
  
  
  
  
  
  
  
  
  
  
  
  
  
  
  
  
  
  
  
  
  
  
  
  
  
  
  
  
  
  
  
  
  
  
  
  
  
  
  
  
  
  
  
  
  
  
  
  
  
  
  
  
  
  
  
  
  
  
  
  
  
  
  
  
  
  
  
  
  
  
  
  
  
  
  
  
  
  
  
  
  
  
  
  
  
  
  
  
  
  
  
  
  
  
  
  
  
  
  
  
  
  
  
  
  
  
  
  
  
  
  
  
  
  
  
  
  
  
  
  
  
  
  
  
  
  
  
  
  
  
  
  
  
  
  
  
  
  
  
  
  
  
  
  
  
  
  
  
  
  
  
  
  
  
  
  
  
  
  
  
  
  
  
  
  
  
  
  
  
  
  
  
  
  
  
  
  
  
  
  
  
  
  
  
  
  
  
  
  
  
  
  
  
  
  
  
  
  
  
  
  
  
  
  
  
  
  
  
  
  
  
  
  
  
  
  
  
  
  
  
  
  
  
  
  
  
  
  
  
  
  
  
  
  
  
  
  
  
  
  
  
  
  
  
  
  
  
  
  
  
  
  
  
  
  
  
  
  
  
  
  
  
  
  
  
  
  
  
  
  
  
  
  
  
  
  
  
  
  
  
  
  
  
  
  
  
  
  
  
  
  
  
  
  
  
  
  
  
  
  
  
  
  
  
</svg>