<?xml version="1.0" encoding="UTF-8" standalone="no"?>
<!--?xml version="1.0" encoding="UTF-8" standalone="no"?-->

<svg
   xmlns:dc="http://purl.org/dc/elements/1.1/"
   xmlns:cc="http://creativecommons.org/ns#"
   xmlns:rdf="http://www.w3.org/1999/02/22-rdf-syntax-ns#"
   xmlns:svg="http://www.w3.org/2000/svg"
   xmlns="http://www.w3.org/2000/svg"
   xmlns:sodipodi="http://sodipodi.sourceforge.net/DTD/sodipodi-0.dtd"
   xmlns:inkscape="http://www.inkscape.org/namespaces/inkscape"
   width="74.926727"
   height="64.946953"
   viewBox="0 0 69.26 59.326543"
   preserveAspectRatio="xMinYMin meet"
   xml:space="preserve"
   id="svg1593"
   version="1.1"
   inkscape:version="0.48.2 r9819"
   sodipodi:docname="MO.svg"><metadata
   id="metadata1714"><rdf:RDF><cc:Work
       rdf:about=""><dc:format>image/svg+xml</dc:format><dc:type
         rdf:resource="http://purl.org/dc/dcmitype/StillImage" /></cc:Work></rdf:RDF></metadata><defs
   id="defs1712" /><sodipodi:namedview
   pagecolor="#ffffff"
   bordercolor="#666666"
   borderopacity="1"
   objecttolerance="10"
   gridtolerance="10"
   guidetolerance="10"
   inkscape:pageopacity="0"
   inkscape:pageshadow="2"
   inkscape:window-width="640"
   inkscape:window-height="480"
   id="namedview1710"
   showgrid="false"
   inkscape:zoom="0.56730769"
   inkscape:cx="-21.934924"
   inkscape:cy="8.2879091"
   inkscape:window-x="0"
   inkscape:window-y="0"
   inkscape:window-maximized="0"
   inkscape:current-layer="svg1593" />
  
  
  
  
  
  
  
  
  
  
  
  
  
  
  
  
  
  
  
  
  
  
  
  
  
  
  
  
  
  
  
  
  
  
  
  
  
  
  
  
  
  
  
  
  
  
  
  
  
  
  
  
  
  
  
  
  
  
  
  
  
  
  
  
  
  
  
  
  
  
  
  
  
  
  
  
  
  
  
  
  
  
  
  
  
  
  
  
  
  
  
  
  
  
  
  
  
  
  
  
  
  
  
  
  
  
  
  
  
  
  
  
  
  
  
  
  
  
  
  
  
  
  
  
  
  
  
  
  
  
  
  
  
  
  
  
  
  
  
  
  
  
  
  
  
  
  
  
  
  
  
  
  
  
  
  
  
  
  
  
  
  
  
  
  
  
  
  
  
  
  
  
  
  
  
  
  
  
  
  
  
  
  
  
  
  
  
  
  
  
  
  
  
  
  
  
  
  
  
  
  
  
  
  
  
  
  
  
  
  
  
  
  
  
  
  
  
  
  
  
  
  
  
  
  
  
  
  
  
  
  
  
  
  
  
  
  
  
  
  
  
  
  
  
  
  
  
  
  
  
  
  
  
  
  
  
  
  
  
  
  
  
  
  
  
  
  
  
  
  
  
  
  
  
  
  
  
  
  
  
  
  
  
  
  
  
  
  
  
  
  
  
  
  
  
  
  
  
  
  
  
  
  
  
  
  
  
  
  
  
  
  
  
  
  
  
  
  
  
  
  
  
  
  
  
  
  
  
  
  
  
  
  
  
  
  
  
  
  
  
  
  
  
  
  
  
  
  
  
  
  
  
  
  
  
  
  
  
  
  
  
  
  
  
  
  
  
  
  
  
  
  
  
  
  
  
  
  
  
  
  
  
  
  
  
  
  
  
  
  
  
  
  
  
  
  
  
  
  
  
  
  
  
  
  
  
  
  
  
  
  
  
  
  
  
  
  
  
  
  
  
  
  
  
  
  
  
  
  
  
  
  
  
  
  
  
  
  
  
  
  
  
  
  
  
  
  
  
  
  
  
  
  
  
  
  
  
  
  
  
  
  
  
  
  
  
  
  
  
  
  
  
  
  
  
  
  
  
  
  
  
  
  
  
  
  
  
  
  
  
  
  
  
  
  
  
  
  
  
  
  
  
  
  
  
  
  
  
  
  
  
  
  
  
  
  
  
  
  
  
  
  
  
  
  
  
  
  
  
  
  
  
  
  
  
  
  
  
  
  
  
  
  
  
  
  
  
  
  
  
  
  
  
  
  
  
  
  
  
  
  
  
  
  
  
  
  
  
  
  
  
  
  
  
  
  
  
  
  
  
  
  
  
  
  
  
  
  
  
  
  
  
  
  
  
  
  
  
  
  
  
  
  
  
  
  
  
  
  
  
  
  
  
  
  
  
  
  
  
  
  
  
  
  
  
  
  
  
  
  
  
  
  
  
  
  
  
  
  
  
  
  
  
  
  
  
  
  
  
  
  
  
  
  
  
  
  
  
  
  
  
  
  
  
  
  
  
  
  
  
  
  
  
  
  
  
  
  
  
  
  
  
  
  
  
  
  
  
  
  
  
  
  
  
  
  
  
  
  
  
  
  
  
  
  
  
  
  
  
  
  
  
  
  
  
  
  
  
  
  
  
  
  
  
  
  
  
  
  
  
  
  
  
  
  
  
  
  
  
  
  
  
  
  
  
  
  
  
  
  
  
  
  
  
  
  
  
  
  
  
  
  
  
  
  
  
  
  
  
  
  
  
  
  
  
  
  
  
  
  
  
  
  
  
  
  
  
  
  
  
  
  
  
  
  
  
  
  
  
  
  
  
  
  
  
  
  
  
  
  
  
  
  
  
  
  
  
  
  
  
  
  
  
  
  
  
  
  
  
  
  
  
  
  
  
  
  
  
  
  
  
  
  
  
  
  
  
  
  
  
  
  
  
  
  
  
  
  
  
  
  
  
  
  
  
  
  
  
  
  
  
  
  
  
  
  
  
  
  
  
  
  
  
  
  
  
  
  
  
  
  
  
  
  
  
  
  
  
  
  
  
  
  
  
  
  
  
  
  
  
  
  
  
  
  
  
  
  
  
  
  
  
  
  
  
  
  
  
  
  
  
  
  
  
  
  
  
  
  
  
  
  
  
  
  
  
  
  
  
  
  
  
  
  
  
  
  
  
  
  
  
  
  
  
  
  
  
  
  
  
  
  
  
  
  
  
  
  
  
  
  
  
  
  
  
  
  
  
  
  
  
  
  
  
  
  
  
  
  
  
  
  
  
  
  
  
  
  
  
  
  
  
  
  
  
  
  
  
  
  
  
  
  
  
  
  
  
  
  
  
  
  
  
  
  
  
  
  
  
  
  
  
  
  
  
  
  
  
  
  
  
  
  
  
  
  
  
  
  
  
  
  
  
  
  
  
  
  
  
  
  
  
  
  
  
  
  
  
  
  
  
  
  
  
  
  
  
  
  
  
  
  
  
  
  
  
  
  
  
  
  
  
  
  
  
  
  
  
  
  
  
  
  
  
  
  
  
  
  
  
  
  
  
  
  
  
  
  
  
  
  
  
  
  
  
  
  
  
  
  
  
  
  
  
  
  
  
  
  
  
  
  
  
  
  
  
  
  
  
  
  
  
  
  
  
  
  
  
  
  
  
  
  
  
  
  
  
  
  
  
  
  
  
  
  
  
  
  
  
  
  
  
  
  
  
  
  
  
  
  
  
  
  
  
  
  
  
  
  
  
  
  
  
  
  
  
  
  
  
  
  
  
  
  
  
  
  
  
  
  
  
  
  
  
  
  
  
  
  
  
  
  
  
  
  
  
  
  
  
  
  
  
  
  
  
  
  
  
  
  
  
  
  
  
  
  
  
  
  
  
  
  
  
  
  
  
  
  
  
  
  
  
  
  
  
  
  
  
  
  
  
  
  
  
  
  
  
  
  
  
  
  
  
  
  
  
  
  
  
  
  
  
  
  
  
  
  
  
  
  
  
  
  
  
  
  
  
  
  
  
  
  
  
  
  
  
  
  
  
  
  
  
  
  
  
  
  
  
  
  
  
  
  
  
  
  
  
  
  
  
  
  
  
  
  
  
  
  
  
  
  
  
  
  
  
  
  
  
  
  
  
  
  
  
  
  
  
  
  
  
  
  
  
  
  
  
  
  
  <path
   style="fill:#72b3dc;stroke:#c2dffb;stroke-width:1"
   d="m 62.797,47.903 1.749,-0.248 2.181,2.938 -0.798,1.789 -0.698,0.069 0.101,-0.19 0.016,-0.032 0.013,-0.049 0.032,-0.127 0.009,-0.035 0,-0.055 -0.004,-0.022 0,-0.005 -0.032,-0.14 -0.063,-0.149 -0.006,-0.013 -0.066,-0.103 -0.014,-0.009 -0.022,-0.018 -0.027,-0.018 -0.158,-0.045 -0.288,-0.045 -0.189,0.026 -0.064,0.04 -0.118,0.158 -0.017,0.023 -0.013,0.049 -0.014,0.059 -0.01,0.045 0.01,0.041 0.01,0.054 0.004,0.009 0.112,0.239 0.014,0.014 0.229,0.328 0.082,2.096 -0.541,-0.833 -0.204,-0.086 -0.747,0.135 -0.758,0.292 -1.581,0.1 -0.496,0 -0.177,-3.118 2.651,-0.15 -0.238,-3.005 0.13,-0.009"
   id="29143"
   inkscape:label="New Madrid, MO"
   inkscape:connector-curvature="0" />
  <path
   style="fill:#72b3dc;stroke:#c2dffb;stroke-width:1"
   d="m 64.758,54.577 -0.736,2.019 -0.91,2.466 -2.339,0.176 -0.342,-5.053 0.496,0 1.581,-0.1 0.758,-0.292 0.747,-0.135 0.204,0.086 0.541,0.833"
   id="29155"
   inkscape:label="Pemiscot, MO"
   inkscape:connector-curvature="0" />
  <path
   style="fill:#72b3dc;stroke:#c2dffb;stroke-width:1"
   d="m 0.5,1.615 3.813,0.04 1.668,0.014 0.018,1.288 0.234,0 0.013,1.227 -0.017,1.6 L 2.596,5.77 2.606,5.536 2.606,5.518 2.609,5.495 2.583,5.428 1.902,4.765 1.267,3.169 1.213,2.94 1.325,2.836 1.537,2.457 1.172,2.133 1.045,2.408 0.5,1.615"
   id="29005"
   inkscape:label="Atchison, MO"
   inkscape:connector-curvature="0" />
  <path
   style="fill:#72b3dc;stroke:#c2dffb;stroke-width:1"
   d="M 6.229,5.784 7.156,5.787 7.364,6.189 7.338,6.238 7.288,6.635 7.419,7.286 7.477,7.384 7.595,7.478 8.112,10.457 7.774,10.84 7.766,10.849 7.708,10.903 7.635,10.93 7.26,10.966 7.215,10.97 7.179,10.957 6.99,10.885 6.747,10.795 6.265,10.485 5.075,9.408 5.012,9.317 5.007,9.196 2.596,5.806 l 0,-0.036 3.633,0.014"
   id="29087"
   inkscape:label="Holt, MO"
   inkscape:connector-curvature="0" />
  <path
   style="fill:#72b3dc;stroke:#c2dffb;stroke-width:1"
   d="m 7.081,15.244 4.952,-0.045 0.023,0.991 0.046,3.849 L 10.195,19.53 8.419,16.716 7.081,15.244"
   id="29165"
   inkscape:label="Platte, MO"
   inkscape:connector-curvature="0" />
  <path
   style="fill:#72b3dc;stroke:#c2dffb;stroke-width:1"
   d="m 11.966,11.462 0.018,0.943 0.049,2.794 -4.952,0.045 0.391,-1.176 0.117,-0.167 0.339,-0.495 0.04,-0.046 0.712,-0.63 0.208,-0.036 0.207,-0.461 -0.077,-0.356 -0.081,-0.383 3.029,-0.032"
   id="29021"
   inkscape:label="Buchanan, MO"
   inkscape:connector-curvature="0" />
  <path
   style="fill:#72b3dc;stroke:#c2dffb;stroke-width:1"
   d="m 11.877,7.478 0.021,1.132 0.068,2.852 -3.029,0.032 -0.825,-1.037 -0.517,-2.979 4.282,0"
   id="29003"
   inkscape:label="Andrew, MO"
   inkscape:connector-curvature="0" />
  <path
   style="fill:#72b3dc;stroke:#c2dffb;stroke-width:1"
   d="m 8.784,1.687 2.755,0.014 0.359,2.392 -0.021,3.385 -4.282,0 L 7.477,7.384 7.419,7.286 7.288,6.635 7.338,6.238 7.364,6.189 7.156,5.787 6.229,5.784 6.246,4.184 6.233,2.957 5.999,2.957 5.981,1.669 8.784,1.687"
   id="29147"
   inkscape:label="Nodaway, MO"
   inkscape:connector-curvature="0" />
  <path
   style="fill:#72b3dc;stroke:#c2dffb;stroke-width:1"
   d="m 13.102,1.682 2.326,-0.055 0.22,2.435 -3.75,0.031 -0.359,-2.392 1.563,-0.019"
   id="29227"
   inkscape:label="Worth, MO"
   inkscape:connector-curvature="0" />
  <path
   style="fill:#72b3dc;stroke:#c2dffb;stroke-width:1"
   d="m 11.898,4.093 3.75,-0.031 0.041,3.224 0,1.318 -3.791,0.006 -0.021,-1.132 0.021,-3.385"
   id="29075"
   inkscape:label="Gentry, MO"
   inkscape:connector-curvature="0" />
  <path
   style="fill:#72b3dc;stroke:#c2dffb;stroke-width:1"
   d="m 15.689,8.604 0.189,3.191 0.009,0.561 -3.903,0.049 -0.018,-0.943 -0.068,-2.852 3.791,-0.006"
   id="29063"
   inkscape:label="DeKalb, MO"
   inkscape:connector-curvature="0" />
  <path
   style="fill:#72b3dc;stroke:#c2dffb;stroke-width:1"
   d="m 15.887,12.356 0.028,2.843 0,0.942 -3.859,0.049 -0.023,-0.991 -0.049,-2.794 3.903,-0.049"
   id="29049"
   inkscape:label="Clinton, MO"
   inkscape:connector-curvature="0" />
  <path
   style="fill:#72b3dc;stroke:#c2dffb;stroke-width:1"
   d="m 12.056,16.19 3.859,-0.049 0.04,3.218 -0.289,-0.297 -0.054,-0.036 -0.099,-0.036 -0.343,-0.005 -0.116,0.058 -0.059,0.074 -0.076,0.147 -0.05,0.226 -0.132,0.193 -0.292,0.302 -1.001,0.496 -1.388,0.163 0.046,-0.605 -0.046,-3.849"
   id="29047"
   inkscape:label="Clay, MO"
   inkscape:connector-curvature="0" />
  <path
   style="fill:#72b3dc;stroke:#c2dffb;stroke-width:1"
   d="m 15.878,11.795 1.109,0.019 2,-0.049 1.29,-0.006 0.059,2.25 0.018,1.131 -4.439,0.059 -0.028,-2.843 -0.009,-0.561"
   id="29025"
   inkscape:label="Caldwell, MO"
   inkscape:connector-curvature="0" />
  <path
   style="fill:#72b3dc;stroke:#c2dffb;stroke-width:1"
   d="m 20.124,7.235 0.072,2.254 0.081,2.27 -1.29,0.006 -2,0.049 -1.109,-0.019 -0.189,-3.191 0,-1.318 4.435,-0.051"
   id="29061"
   inkscape:label="Daviess, MO"
   inkscape:connector-curvature="0" />
  <path
   style="fill:#72b3dc;stroke:#c2dffb;stroke-width:1"
   d="m 19.885,1.462 0.203,4.07 0.036,1.703 -4.435,0.051 -0.041,-3.224 -0.22,-2.435 2.109,-0.066 2.348,-0.099"
   id="29081"
   inkscape:label="Harrison, MO"
   inkscape:connector-curvature="0" />
  <path
   style="fill:#72b3dc;stroke:#c2dffb;stroke-width:1"
   d="m 21.999,1.375 1.78,-0.049 0.144,2.56 0.037,1.515 -3.872,0.131 -0.203,-4.07 2.114,-0.087"
   id="29129"
   inkscape:label="Mercer, MO"
   inkscape:connector-curvature="0" />
  <path
   style="fill:#72b3dc;stroke:#c2dffb;stroke-width:1"
   d="M 23.96,5.401 24.095,8.429 24.117,9.28 20.196,9.489 20.124,7.235 20.088,5.532 23.96,5.401"
   id="29079"
   inkscape:label="Grundy, MO"
   inkscape:connector-curvature="0" />
  <path
   style="fill:#72b3dc;stroke:#c2dffb;stroke-width:1"
   d="m 24.117,9.28 0.018,1.141 0.05,2.29 0.965,-0.027 -0.078,1.148 -4.736,0.177 -0.059,-2.25 -0.081,-2.27 3.921,-0.209"
   id="29117"
   inkscape:label="Livingston, MO"
   inkscape:connector-curvature="0" />
  <path
   style="fill:#72b3dc;stroke:#c2dffb;stroke-width:1"
   d="m 20.336,14.009 4.736,-0.177 1.803,2.963 -0.41,0.035 -0.422,0.163 -0.908,0.811 -0.563,0.947 -0.108,0.067 -0.396,0.099 -0.135,-0.023 -0.063,-0.058 -0.65,-0.757 -1.059,0.708 -0.663,-0.082 -1.036,0.559 -0.108,-4.124 -0.018,-1.131"
   id="29033"
   inkscape:label="Carroll, MO"
   inkscape:connector-curvature="0" />
  <path
   style="fill:#72b3dc;stroke:#c2dffb;stroke-width:1"
   d="m 20.354,15.14 0.108,4.124 -0.73,-0.09 -1.389,0.202 -0.549,0.443 0.026,0.049 0.019,0.14 -0.212,0.181 -0.108,0.071 -0.135,0.023 -0.14,-0.014 -0.203,-0.104 -1.086,-0.806 -0.04,-3.218 0,-0.942 4.439,-0.059"
   id="29177"
   inkscape:label="Ray, MO"
   inkscape:connector-curvature="0" />
  <path
   style="fill:#72b3dc;stroke:#c2dffb;stroke-width:1"
   d="m 20.462,19.264 1.036,-0.559 0.663,0.082 1.059,-0.708 -0.072,4.552 0,0.19 -3.366,-0.041 -0.006,0.379 -2.771,-0.05 0.036,-2.944 0.203,0.104 0.14,0.014 0.135,-0.023 0.108,-0.071 0.212,-0.181 -0.019,-0.14 -0.026,-0.049 0.549,-0.443 1.389,-0.202 0.73,0.09"
   id="29107"
   inkscape:label="Lafayette, MO"
   inkscape:connector-curvature="0" />
  <path
   style="fill:#72b3dc;stroke:#c2dffb;stroke-width:1"
   d="m 17.041,20.165 -0.036,2.944 -0.027,1.095 -4.876,-0.099 -0.032,-2.56 -0.014,-0.901 1.388,-0.163 1.001,-0.496 0.292,-0.302 0.132,-0.193 0.05,-0.226 0.076,-0.147 0.059,-0.074 0.116,-0.058 0.343,0.005 0.099,0.036 0.054,0.036 0.289,0.297 1.086,0.806"
   id="29095"
   inkscape:label="Jackson, MO"
   inkscape:connector-curvature="0" />
  <path
   style="fill:#72b3dc;stroke:#c2dffb;stroke-width:1"
   d="m 23.148,22.821 -0.014,4.841 -5.539,-0.015 -0.617,-3.443 0.027,-1.095 2.771,0.05 0.006,-0.379 3.366,0.041"
   id="29101"
   inkscape:label="Johnson, MO"
   inkscape:connector-curvature="0" />
  <path
   style="fill:#72b3dc;stroke:#c2dffb;stroke-width:1"
   d="m 23.134,27.662 0,0.567 -0.004,3.971 -5.295,0.036 -0.222,-3.025 -0.018,-1.564 5.539,0.015"
   id="29083"
   inkscape:label="Henry, MO"
   inkscape:connector-curvature="0" />
  <path
   style="fill:#72b3dc;stroke:#c2dffb;stroke-width:1"
   d="m 12.102,24.105 4.876,0.099 0.617,3.443 0.018,1.564 L 16.17,29.22 15.607,29.162 15.026,28.941 12.12,28.91 12.106,25.52 12.102,24.105"
   id="29037"
   inkscape:label="Cass, MO"
   inkscape:connector-curvature="0" />
  <path
   style="fill:#72b3dc;stroke:#c2dffb;stroke-width:1"
   d="m 17.835,32.236 5.295,-0.036 0.244,1.74 -0.027,2.072 -0.258,0 -0.32,0.564 -0.013,0.569 -0.559,-0.006 -1.852,-0.027 0.013,-0.752 -2.6,-0.05 0.04,-1.767 0.037,-2.307"
   id="29185"
   inkscape:label="St. Clair, MO"
   inkscape:connector-curvature="0" />
  <path
   style="fill:#72b3dc;stroke:#c2dffb;stroke-width:1"
   d="m 12.12,28.91 2.906,0.031 0.581,0.221 0.563,0.058 1.443,-0.009 0.222,3.025 -0.037,2.307 -0.761,-0.265 -0.676,0.057 -0.401,0.06 -3.773,-0.06 -0.054,-4.271 -0.013,-1.154"
   id="29013"
   inkscape:label="Bates, MO"
   inkscape:connector-curvature="0" />
  <path
   style="fill:#72b3dc;stroke:#c2dffb;stroke-width:1"
   d="m 17.758,36.31 2.6,0.05 -0.013,0.752 1.852,0.027 0.208,3.331 -4.66,-0.009 0,-0.757 0.013,-3.394"
   id="29039"
   inkscape:label="Cedar, MO"
   inkscape:connector-curvature="0" />
  <path
   style="fill:#72b3dc;stroke:#c2dffb;stroke-width:1"
   d="m 17.798,34.543 -0.04,1.767 -0.013,3.394 -5.518,-0.085 -0.004,-0.253 -0.031,-4.728 -0.005,-0.303 3.773,0.06 0.401,-0.06 0.676,-0.057 0.761,0.265"
   id="29217"
   inkscape:label="Vernon, MO"
   inkscape:connector-curvature="0" />
  <path
   style="fill:#72b3dc;stroke:#c2dffb;stroke-width:1"
   d="m 17.745,40.461 4.66,0.009 -0.005,1.889 0,1.892 -4.345,-0.005 -0.319,-0.765 0.009,-3.02"
   id="29057"
   inkscape:label="Dade, MO"
   inkscape:connector-curvature="0" />
  <path
   style="fill:#72b3dc;stroke:#c2dffb;stroke-width:1"
   d="m 17.745,39.704 0,0.757 -0.009,3.02 -5.45,-0.1 -0.059,-3.762 5.518,0.085"
   id="29011"
   inkscape:label="Barton, MO"
   inkscape:connector-curvature="0" />
  <path
   style="fill:#72b3dc;stroke:#c2dffb;stroke-width:1"
   d="m 17.736,43.481 0.319,0.765 -0.004,3.147 -5.712,-0.014 -0.049,-3.66 -0.004,-0.338 5.45,0.1"
   id="29097"
   inkscape:label="Jasper, MO"
   inkscape:connector-curvature="0" />
  <path
   style="fill:#72b3dc;stroke:#c2dffb;stroke-width:1"
   d="m 12.339,47.379 5.712,0.014 -0.023,3.898 -5.638,-0.144 -0.051,-3.768"
   id="29145"
   inkscape:label="Newton, MO"
   inkscape:connector-curvature="0" />
  <path
   style="fill:#72b3dc;stroke:#c2dffb;stroke-width:1"
   d="m 18.028,51.291 -0.018,3.241 -5.567,0.089 -0.031,-2.189 -0.022,-1.285 5.638,0.144"
   id="29119"
   inkscape:label="McDonald, MO"
   inkscape:connector-curvature="0" />
  <path
   style="fill:#72b3dc;stroke:#c2dffb;stroke-width:1"
   d="m 22.4,44.251 0.234,2.385 0.018,1.329 0.018,0.947 -4.628,-0.009 0.009,-1.51 0.004,-3.147 4.345,0.005"
   id="29109"
   inkscape:label="Lawrence, MO"
   inkscape:connector-curvature="0" />
  <path
   style="fill:#72b3dc;stroke:#c2dffb;stroke-width:1"
   d="m 18.042,48.903 4.628,0.009 0.014,1.33 0.401,0 -0.004,4.173 -2.903,0.072 -2.168,0.045 0.032,-5.629"
   id="29009"
   inkscape:label="Barry, MO"
   inkscape:connector-curvature="0" />
  <path
   style="fill:#72b3dc;stroke:#c2dffb;stroke-width:1"
   d="m 22.756,37.145 3.908,0.22 0.199,5.007 -4.463,-0.013 0.005,-1.889 -0.208,-3.331 0.559,0.006"
   id="29167"
   inkscape:label="Polk, MO"
   inkscape:connector-curvature="0" />
  <path
   style="fill:#72b3dc;stroke:#c2dffb;stroke-width:1"
   d="m 22.652,47.965 2.79,-0.031 0.018,2.275 0.388,-0.004 0.004,4.142 -2.771,0.068 0.004,-4.173 -0.401,0 -0.014,-1.33 -0.018,-0.947"
   id="29209"
   inkscape:label="Stone, MO"
   inkscape:connector-curvature="0" />
  <path
   style="fill:#72b3dc;stroke:#c2dffb;stroke-width:1"
   d="m 26.863,42.372 1.112,-0.004 0.024,1.883 0.152,0 0.036,2.353 -5.553,0.032 -0.234,-2.385 0,-1.892 4.463,0.013"
   id="29077"
   inkscape:label="Greene, MO"
   inkscape:connector-curvature="0" />
  <path
   style="fill:#72b3dc;stroke:#c2dffb;stroke-width:1"
   d="m 29.895,50.182 1.483,-0.008 0.059,4.007 -0.844,0.027 -4.542,0.135 -0.199,0.004 -0.004,-4.142 4.047,-0.023"
   id="29213"
   inkscape:label="Taney, MO"
   inkscape:connector-curvature="0" />
  <path
   style="fill:#72b3dc;stroke:#c2dffb;stroke-width:1"
   d="m 28.187,46.604 1.663,0.181 0.045,3.397 -4.047,0.023 -0.388,0.004 -0.018,-2.275 -2.79,0.031 -0.018,-1.329 5.553,-0.032"
   id="29043"
   inkscape:label="Christian, MO"
   inkscape:connector-curvature="0" />
  <path
   style="fill:#72b3dc;stroke:#c2dffb;stroke-width:1"
   d="m 30.179,41.399 1.696,-0.028 0.04,2.835 0.134,0 0.019,2.551 -2.218,0.028 -1.663,-0.181 -0.036,-2.353 -0.152,0 -0.024,-1.883 2.204,-0.969"
   id="29225"
   inkscape:label="Webster, MO"
   inkscape:connector-curvature="0" />
  <path
   style="fill:#72b3dc;stroke:#c2dffb;stroke-width:1"
   d="m 27.786,36.03 2.195,0.018 0.031,2.273 0.136,-0.005 0.031,3.083 -2.204,0.969 -1.112,0.004 -0.199,-5.007 1.122,-1.335"
   id="29059"
   inkscape:label="Dallas, MO"
   inkscape:connector-curvature="0" />
  <path
   style="fill:#72b3dc;stroke:#c2dffb;stroke-width:1"
   d="m 23.374,33.94 4.42,0.009 -0.008,2.081 -1.122,1.335 -3.908,-0.22 0.013,-0.569 0.32,-0.564 0.258,0 0.027,-2.072"
   id="29085"
   inkscape:label="Hickory, MO"
   inkscape:connector-curvature="0" />
  <path
   style="fill:#72b3dc;stroke:#c2dffb;stroke-width:1"
   d="m 23.134,28.229 2.213,0.022 0.005,-0.379 1.05,-0.012 1.186,0.012 0.004,3.507 0.202,2.57 -4.42,-0.009 -0.244,-1.74 0.004,-3.971"
   id="29015"
   inkscape:label="Benton, MO"
   inkscape:connector-curvature="0" />
  <path
   style="fill:#72b3dc;stroke:#c2dffb;stroke-width:1"
   d="m 23.148,22.631 1.942,0.04 2.056,0 0.451,0.024 0,3.059 -0.009,2.118 -1.186,-0.012 -1.05,0.012 -0.005,0.379 -2.213,-0.022 0,-0.567 0.014,-4.841 0,-0.19"
   id="29159"
   inkscape:label="Pettis, MO"
   inkscape:connector-curvature="0" />
  <path
   style="fill:#72b3dc;stroke:#c2dffb;stroke-width:1"
   d="m 26.875,16.795 2.597,1.969 -0.78,2.122 -1.095,1.809 -0.451,-0.024 -2.056,0 -1.942,-0.04 0.072,-4.552 0.65,0.757 0.063,0.058 0.135,0.023 0.396,-0.099 0.108,-0.067 0.563,-0.947 0.908,-0.811 0.422,-0.163 0.41,-0.035"
   id="29195"
   inkscape:label="Saline, MO"
   inkscape:connector-curvature="0" />
  <path
   style="fill:#72b3dc;stroke:#c2dffb;stroke-width:1"
   d="m 29.183,12.608 1.673,1.112 -0.023,3.751 -1.361,1.293 -2.597,-1.969 -1.803,-2.963 0.078,-1.148 4.033,-0.076"
   id="29041"
   inkscape:label="Chariton, MO"
   inkscape:connector-curvature="0" />
  <path
   style="fill:#72b3dc;stroke:#c2dffb;stroke-width:1"
   d="m 29.053,8.226 0.085,-0.003 0.045,4.385 -4.033,0.076 -0.965,0.027 -0.05,-2.29 L 24.117,9.28 24.095,8.429 29.053,8.226"
   id="29115"
   inkscape:label="Linn, MO"
   inkscape:connector-curvature="0" />
  <path
   style="fill:#72b3dc;stroke:#c2dffb;stroke-width:1"
   d="M 23.923,3.886 26.66,3.765 28.913,3.697 28.926,4.26 29.053,8.226 24.095,8.429 23.96,5.401 23.923,3.886"
   id="29211"
   inkscape:label="Sullivan, MO"
   inkscape:connector-curvature="0" />
  <path
   style="fill:#72b3dc;stroke:#c2dffb;stroke-width:1"
   d="M 30.197,1.006 30.374,1.642 30.31,2.872 30.603,4.193 28.926,4.26 28.913,3.697 26.66,3.765 23.923,3.886 23.779,1.326 26.474,1.201 30.197,1.006"
   id="29171"
   inkscape:label="Putnam, MO"
   inkscape:connector-curvature="0" />
  <path
   style="fill:#72b3dc;stroke:#c2dffb;stroke-width:1"
   d="M 33.731,0.776 33.861,4.03 30.603,4.193 30.31,2.872 30.374,1.642 30.197,1.006 30.941,0.965 33.731,0.776"
   id="29197"
   inkscape:label="Schuyler, MO"
   inkscape:connector-curvature="0" />
  <path
   style="fill:#72b3dc;stroke:#c2dffb;stroke-width:1"
   d="M 33.861,4.03 33.907,4.598 34.064,8.046 29.138,8.223 29.053,8.226 28.926,4.26 30.603,4.193 33.861,4.03"
   id="29001"
   inkscape:label="Adair, MO"
   inkscape:connector-curvature="0" />
  <path
   style="fill:#72b3dc;stroke:#c2dffb;stroke-width:1"
   d="m 34.064,8.046 0.605,1.081 0.063,4.513 -0.019,0 -3.857,0.08 -1.673,-1.112 -0.045,-4.385 4.926,-0.177"
   id="29121"
   inkscape:label="Macon, MO"
   inkscape:connector-curvature="0" />
  <path
   style="fill:#72b3dc;stroke:#c2dffb;stroke-width:1"
   d="m 34.713,13.64 0.04,3.348 0.009,1.317 -1.148,0.013 -2.781,-0.847 0.023,-3.751 3.857,-0.08"
   id="29175"
   inkscape:label="Randolph, MO"
   inkscape:connector-curvature="0" />
  <path
   style="fill:#72b3dc;stroke:#c2dffb;stroke-width:1"
   d="m 30.833,17.471 2.781,0.847 -1.132,3.66 -2.262,0.071 -0.618,-0.103 -0.107,-0.045 -0.501,-0.347 -0.081,-0.108 -0.221,-0.473 0,-0.087 0.78,-2.122 1.361,-1.293"
   id="29089"
   inkscape:label="Howard, MO"
   inkscape:connector-curvature="0" />
  <path
   style="fill:#72b3dc;stroke:#c2dffb;stroke-width:1"
   d="m 28.692,20.886 0,0.087 0.221,0.473 0.081,0.108 0.501,0.347 0.107,0.045 0.618,0.103 2.262,-0.071 0.613,0.613 -0.801,2.208 -0.195,0.577 -0.076,0.284 -1.275,0.117 -0.947,0.027 -2.204,-0.05 0,-3.059 1.095,-1.809"
   id="29053"
   inkscape:label="Cooper, MO"
   inkscape:connector-curvature="0" />
  <path
   style="fill:#72b3dc;stroke:#c2dffb;stroke-width:1"
   d="m 34.762,18.305 2.083,0.004 0.04,2.284 -0.148,0.006 -0.054,0.121 -0.193,1.88 -0.055,1.897 -0.509,0.892 0.076,0.717 -1.785,-1.181 -1.122,-2.334 -0.613,-0.613 1.132,-3.66 1.148,-0.013"
   id="29019"
   inkscape:label="Boone, MO"
   inkscape:connector-curvature="0" />
  <path
   style="fill:#72b3dc;stroke:#c2dffb;stroke-width:1"
   d="m 34.217,24.925 1.785,1.181 2.159,0.851 -1.735,3.134 -0.559,0.189 -1.59,-0.18 0.009,-1.091 -0.92,0 0.851,-4.084"
   id="29051"
   inkscape:label="Cole, MO"
   inkscape:connector-curvature="0" />
  <path
   style="fill:#72b3dc;stroke:#c2dffb;stroke-width:1"
   d="m 33.095,22.591 1.122,2.334 -0.851,4.084 -1.308,0.009 -2.244,-2.082 -0.013,-1.132 0.947,-0.027 1.275,-0.117 0.076,-0.284 0.195,-0.577 0.801,-2.208"
   id="29135"
   inkscape:label="Moniteau, MO"
   inkscape:connector-curvature="0" />
  <path
   style="fill:#72b3dc;stroke:#c2dffb;stroke-width:1"
   d="m 27.597,25.754 2.204,0.05 0.013,1.132 2.244,2.082 -0.612,2.735 -0.681,0.352 -1.997,0.063 -1.176,-0.789 -0.004,-3.507 0.009,-2.118"
   id="29141"
   inkscape:label="Morgan, MO"
   inkscape:connector-curvature="0" />
  <path
   style="fill:#72b3dc;stroke:#c2dffb;stroke-width:1"
   d="m 33.366,29.009 0.92,0 -0.009,1.091 1.59,0.18 0.559,-0.189 0.009,0.564 0.049,1.698 0.163,0 0.036,1.884 -2.227,0.023 -0.905,0.018 -0.582,-0.366 -0.189,-0.185 -0.283,-0.564 -0.015,-0.374 -0.095,-0.4 -0.379,-0.537 -0.562,-0.099 0.612,-2.735 1.308,-0.009"
   id="29131"
   inkscape:label="Miller, MO"
   inkscape:connector-curvature="0" />
  <path
   style="fill:#72b3dc;stroke:#c2dffb;stroke-width:1"
   d="m 31.446,31.753 0.562,0.099 0.379,0.537 0.095,0.4 0.015,0.374 0.283,0.564 0.189,0.185 0.582,0.366 0.905,-0.018 0.05,2.104 -0.59,0.437 -0.7,0.356 -0.093,0.023 -0.159,-0.062 -0.378,-0.438 -0.158,-0.302 -0.072,-0.294 0.019,-0.027 -0.014,-0.045 -2.38,0.036 -2.195,-0.018 0.008,-2.081 -0.202,-2.57 1.176,0.789 1.997,-0.063 0.681,-0.352"
   id="29029"
   inkscape:label="Camden, MO"
   inkscape:connector-curvature="0" />
  <path
   style="fill:#72b3dc;stroke:#c2dffb;stroke-width:1"
   d="m 36.683,34.237 1.658,0.005 0.14,5.304 -2.23,0.064 -0.019,-0.569 -1.698,-0.788 -0.028,-1.889 -0.05,-2.104 2.227,-0.023"
   id="29169"
   inkscape:label="Pulaski, MO"
   inkscape:connector-curvature="0" />
  <path
   style="fill:#72b3dc;stroke:#c2dffb;stroke-width:1"
   d="m 29.981,36.048 2.38,-0.036 0.014,0.045 -0.019,0.027 0.072,0.294 0.158,0.302 0.378,0.438 0.159,0.062 0.093,-0.023 0.7,-0.356 0.59,-0.437 0.028,1.889 1.698,0.788 0.019,0.569 0.04,1.712 -4.416,0.049 -1.696,0.028 -0.031,-3.083 -0.136,0.005 -0.031,-2.273"
   id="29105"
   inkscape:label="Laclede, MO"
   inkscape:connector-curvature="0" />
  <path
   style="fill:#72b3dc;stroke:#c2dffb;stroke-width:1"
   d="m 31.875,41.371 4.416,-0.049 0.103,2.831 0.068,0.473 0.049,2.064 -4.443,0.067 -0.019,-2.551 -0.134,0 -0.04,-2.835"
   id="29229"
   inkscape:label="Wright, MO"
   inkscape:connector-curvature="0" />
  <path
   style="fill:#72b3dc;stroke:#c2dffb;stroke-width:1"
   d="m 38.17,46.663 -0.098,3.416 -6.694,0.095 -1.483,0.008 -0.045,-3.397 2.218,-0.028 4.443,-0.067 1.659,-0.027"
   id="29067"
   inkscape:label="Douglas, MO"
   inkscape:connector-curvature="0" />
  <path
   style="fill:#72b3dc;stroke:#c2dffb;stroke-width:1"
   d="m 31.378,50.174 6.694,-0.095 0.071,3.836 -0.307,0.019 -3.898,0.161 -2.501,0.086 -0.059,-4.007"
   id="29153"
   inkscape:label="Ozark, MO"
   inkscape:connector-curvature="0" />
  <path
   style="fill:#72b3dc;stroke:#c2dffb;stroke-width:1"
   d="m 42.596,46.568 0.073,2.082 0.04,1.312 -0.018,2.371 0.062,1.375 -4.61,0.207 -0.071,-3.836 0.098,-3.416 1.105,-0.036 1.27,0.013 2.051,-0.072"
   id="29091"
   inkscape:label="Howell, MO"
   inkscape:connector-curvature="0" />
  <path
   style="fill:#72b3dc;stroke:#c2dffb;stroke-width:1"
   d="m 38.481,39.546 2.235,-0.05 0.551,-0.022 0.1,2.268 1.098,-0.033 0.131,4.859 -2.051,0.072 -1.27,-0.013 -1.105,0.036 -1.659,0.027 -0.049,-2.064 -0.068,-0.473 -0.103,-2.831 -0.04,-1.712 2.23,-0.064"
   id="29215"
   inkscape:label="Texas, MO"
   inkscape:connector-curvature="0" />
  <path
   style="fill:#72b3dc;stroke:#c2dffb;stroke-width:1"
   d="m 42.196,32.213 0.964,-0.032 0.278,4.72 -2.803,0.094 0.081,2.501 -2.235,0.05 -0.14,-5.304 0.816,-0.383 0.428,-0.199 1.212,-0.072 1.439,-0.041 -0.04,-1.334"
   id="29161"
   inkscape:label="Phelps, MO"
   inkscape:connector-curvature="0" />
  <path
   style="fill:#72b3dc;stroke:#c2dffb;stroke-width:1"
   d="m 41.97,30.463 0.226,1.75 0.04,1.334 -1.439,0.041 -1.212,0.072 -0.428,0.199 -0.816,0.383 -1.658,-0.005 -0.036,-1.884 -0.163,0 -0.049,-1.698 1.722,-0.024 1.41,-0.076 2.403,-0.092"
   id="29125"
   inkscape:label="Maries, MO"
   inkscape:connector-curvature="0" />
  <path
   style="fill:#72b3dc;stroke:#c2dffb;stroke-width:1"
   d="m 41.699,25.079 0.068,-0.009 0.203,5.393 -2.403,0.092 -1.41,0.076 -1.722,0.024 -0.009,-0.564 1.735,-3.134 0.397,-0.296 0.798,-0.757 0.072,-0.132 0.073,-0.081 0.089,-0.058 1.298,-0.554 0.325,-0.037 0.486,0.037"
   id="29151"
   inkscape:label="Osage, MO"
   inkscape:connector-curvature="0" />
  <path
   style="fill:#72b3dc;stroke:#c2dffb;stroke-width:1"
   d="m 36.885,20.593 4.733,-0.139 0.081,4.625 -0.486,-0.037 -0.325,0.037 -1.298,0.554 -0.089,0.058 -0.073,0.081 -0.072,0.132 -0.798,0.757 -0.397,0.296 -2.159,-0.851 -0.076,-0.717 0.509,-0.892 0.055,-1.897 0.193,-1.88 0.054,-0.121 0.148,-0.006"
   id="29027"
   inkscape:label="Callaway, MO"
   inkscape:connector-curvature="0" />
  <path
   style="fill:#72b3dc;stroke:#c2dffb;stroke-width:1"
   d="m 40.465,12.715 0.157,4.138 -5.869,0.135 -0.04,-3.348 0.019,0 1.113,-0.027 -0.018,-0.767 3.335,-0.081 1.303,-0.05"
   id="29137"
   inkscape:label="Monroe, MO"
   inkscape:connector-curvature="0" />
  <path
   style="fill:#72b3dc;stroke:#c2dffb;stroke-width:1"
   d="m 37.959,9.029 1.104,-0.032 0.099,3.768 -3.335,0.081 0.018,0.767 -1.113,0.027 -0.063,-4.513 3.29,-0.098"
   id="29205"
   inkscape:label="Shelby, MO"
   inkscape:connector-curvature="0" />
  <path
   style="fill:#72b3dc;stroke:#c2dffb;stroke-width:1"
   d="m 33.907,4.598 3.886,-0.13 0.017,0.568 0.149,3.993 -3.29,0.098 -0.605,-1.081 -0.157,-3.448"
   id="29103"
   inkscape:label="Knox, MO"
   inkscape:connector-curvature="0" />
  <path
   style="fill:#72b3dc;stroke:#c2dffb;stroke-width:1"
   d="M 37.688,0.506 37.793,4.468 33.907,4.598 33.861,4.03 33.731,0.776 35.389,0.668 37.688,0.506"
   id="29199"
   inkscape:label="Scotland, MO"
   inkscape:connector-curvature="0" />
  <path
   style="fill:#72b3dc;stroke:#c2dffb;stroke-width:1"
   d="m 39.896,0.5 0.203,0.127 0.771,0.582 0.023,0.085 -0.032,0.262 0.036,0.09 0.982,1.208 0.407,0.329 0.639,0.046 -0.72,1.717 L 37.81,5.036 37.793,4.468 37.688,0.506 39.896,0.5"
   id="29045"
   inkscape:label="Clark, MO"
   inkscape:connector-curvature="0" />
  <path
   style="fill:#72b3dc;stroke:#c2dffb;stroke-width:1"
   d="m 42.205,4.946 -0.06,0.631 0.69,3.286 -3.772,0.134 -1.104,0.032 -0.149,-3.993 4.395,-0.09"
   id="29111"
   inkscape:label="Lewis, MO"
   inkscape:connector-curvature="0" />
  <path
   style="fill:#72b3dc;stroke:#c2dffb;stroke-width:1"
   d="m 42.835,8.863 0.983,2.383 0.585,0.929 -3.938,0.54 -1.303,0.05 -0.099,-3.768 3.772,-0.134"
   id="29127"
   inkscape:label="Marion, MO"
   inkscape:connector-curvature="0" />
  <path
   style="fill:#72b3dc;stroke:#c2dffb;stroke-width:1"
   d="m 40.465,12.715 3.938,-0.54 1.39,1.058 -0.253,0.014 -2.44,2.041 0.299,1.705 -1.308,0.004 -1.469,0.049 0,-0.193 -0.157,-4.138"
   id="29173"
   inkscape:label="Ralls, MO"
   inkscape:connector-curvature="0" />
  <path
   style="fill:#72b3dc;stroke:#c2dffb;stroke-width:1"
   d="m 34.753,16.988 5.869,-0.135 0,0.193 1.469,-0.049 1.308,-0.004 0.401,2.271 -2.182,1.19 -4.733,0.139 -0.04,-2.284 -2.083,-0.004 -0.009,-1.317"
   id="29007"
   inkscape:label="Audrain, MO"
   inkscape:connector-curvature="0" />
  <path
   style="fill:#72b3dc;stroke:#c2dffb;stroke-width:1"
   d="m 45.278,19.229 0.054,1.91 0.089,1.934 -1.5,0.053 0.054,1.763 -2.208,0.181 -0.068,0.009 -0.081,-4.625 2.182,-1.19 1.478,-0.035"
   id="29139"
   inkscape:label="Montgomery, MO"
   inkscape:connector-curvature="0" />
  <path
   style="fill:#72b3dc;stroke:#c2dffb;stroke-width:1"
   d="m 45.793,13.233 2.375,2.466 2.419,2.15 -2.821,0.148 -1.781,0.055 0.036,1.15 -0.743,0.027 -1.478,0.035 -0.401,-2.271 -0.299,-1.705 2.44,-2.041 0.253,-0.014"
   id="29163"
   inkscape:label="Pike, MO"
   inkscape:connector-curvature="0" />
  <path
   style="fill:#72b3dc;stroke:#c2dffb;stroke-width:1"
   d="m 50.587,17.849 0.464,1.582 -0.008,0.162 -0.271,0.419 -0.01,0.041 0.025,0.09 0,0.005 0.536,1.437 -2.867,0.979 -1.05,0.031 -0.749,-0.735 -0.568,-0.739 -0.757,0.018 -0.054,-1.91 0.743,-0.027 -0.036,-1.15 1.781,-0.055 2.821,-0.148"
   id="29113"
   inkscape:label="Lincoln, MO"
   inkscape:connector-curvature="0" />
  <path
   style="fill:#72b3dc;stroke:#c2dffb;stroke-width:1"
   d="m 45.332,21.139 0.757,-0.018 0.568,0.739 0.749,0.735 1.05,-0.031 0.166,4.2 -2.691,-1.086 -0.063,-0.122 -0.838,-0.681 -0.112,-0.012 -0.442,0.139 -0.501,-0.113 -0.054,-1.763 1.5,-0.053 -0.089,-1.934"
   id="29219"
   inkscape:label="Warren, MO"
   inkscape:connector-curvature="0" />
  <path
   style="fill:#72b3dc;stroke:#c2dffb;stroke-width:1"
   d="m 44.476,25.002 0.126,2.464 0.144,2.309 0.059,1.582 -1.645,0.824 -0.964,0.032 -0.226,-1.75 -0.203,-5.393 2.208,-0.181 0.501,0.113"
   id="29073"
   inkscape:label="Gasconage, MO"
   inkscape:connector-curvature="0" />
  <path
   style="fill:#72b3dc;stroke:#c2dffb;stroke-width:1"
   d="m 44.805,31.357 2.732,-0.064 0.269,6.027 -0.512,0.58 -1.592,0.046 -0.032,-1.131 -2.232,0.086 -0.278,-4.72 1.645,-0.824"
   id="29055"
   inkscape:label="Crawford, MO"
   inkscape:connector-curvature="0" />
  <path
   style="fill:#72b3dc;stroke:#c2dffb;stroke-width:1"
   d="m 47.294,37.9 0.057,1.421 -1.6,0.018 0.042,1.14 1.044,-0.009 0.049,1.123 -4.421,0.116 -1.098,0.033 -0.1,-2.268 -0.551,0.022 -0.081,-2.501 2.803,-0.094 2.232,-0.086 0.032,1.131 1.592,-0.046"
   id="29065"
   inkscape:label="Dent, MO"
   inkscape:connector-curvature="0" />
  <path
   style="fill:#72b3dc;stroke:#c2dffb;stroke-width:1"
   d="m 42.465,41.709 4.421,-0.116 0.371,-0.009 1.077,3.064 0.744,0.992 -0.934,0.167 -1.095,0.063 0.072,2.627 -4.452,0.153 -0.073,-2.082 -0.131,-4.859"
   id="29203"
   inkscape:label="Shannon, MO"
   inkscape:connector-curvature="0" />
  <path
   style="fill:#72b3dc;stroke:#c2dffb;stroke-width:1"
   d="m 42.669,48.65 4.452,-0.153 1.136,0.726 0.109,4.237 -2.885,0.153 -0.441,0.013 -2.287,0.082 -0.062,-1.375 0.018,-2.371 -0.04,-1.312"
   id="29149"
   inkscape:label="Oregon, MO"
   inkscape:connector-curvature="0" />
  <path
   style="fill:#72b3dc;stroke:#c2dffb;stroke-width:1"
   d="m 48.257,49.223 0.74,-0.022 1.594,0.04 2.313,-0.108 1.118,4.012 -2.142,0.116 -3.514,0.199 -0.109,-4.237"
   id="29181"
   inkscape:label="Ripley, MO"
   inkscape:connector-curvature="0" />
  <path
   style="fill:#72b3dc;stroke:#c2dffb;stroke-width:1"
   d="m 49.078,45.64 2.461,0.46 1.117,1.55 0.248,1.483 -2.313,0.108 -1.594,-0.04 -0.74,0.022 -1.136,-0.726 -0.072,-2.627 1.095,-0.063 0.934,-0.167"
   id="29035"
   inkscape:label="Carter, MO"
   inkscape:connector-curvature="0" />
  <path
   style="fill:#72b3dc;stroke:#c2dffb;stroke-width:1"
   d="m 47.351,39.321 1.971,-0.307 1.932,-0.094 0.099,2.439 0.293,1.874 0.181,-0.023 0.045,0.569 0.013,0.788 -0.387,0.649 0.041,0.884 -2.461,-0.46 -0.744,-0.992 -1.077,-3.064 -0.371,0.009 -0.049,-1.123 -1.044,0.009 -0.042,-1.14 1.6,-0.018"
   id="29179"
   inkscape:label="Reynolds, MO"
   inkscape:connector-curvature="0" />
  <path
   style="fill:#72b3dc;stroke:#c2dffb;stroke-width:1"
   d="m 52.408,37.139 1.181,1.123 0.095,4.236 -1.857,0.712 -0.181,0.023 -0.293,-1.874 -0.099,-2.439 -1.932,0.094 -1.971,0.307 -0.057,-1.421 0.512,-0.58 4.602,-0.181"
   id="29093"
   inkscape:label="Iron, MO"
   inkscape:connector-curvature="0" />
  <path
   style="fill:#72b3dc;stroke:#c2dffb;stroke-width:1"
   d="m 50.709,31.122 1.501,1.578 0.198,4.439 -4.602,0.181 -0.269,-6.027 3.172,-0.171"
   id="29221"
   inkscape:label="Washington, MO"
   inkscape:connector-curvature="0" />
  <path
   style="fill:#72b3dc;stroke:#c2dffb;stroke-width:1"
   d="m 48.622,26.764 2.254,-1.315 0.085,2.243 -0.252,3.43 -3.172,0.171 -2.732,0.064 -0.059,-1.582 -0.144,-2.309 -0.126,-2.464 0.442,-0.139 0.112,0.012 0.838,0.681 0.063,0.122 2.691,1.086"
   id="29071"
   inkscape:label="Franklin, MO"
   inkscape:connector-curvature="0" />
  <path
   style="fill:#72b3dc;stroke:#c2dffb;stroke-width:1"
   d="M 56.154,23.815 56.36,24.853 55.699,26.565 55.284,26.35 55.157,25.663 55,24.65 l 0.248,-0.514 0.406,-0.306 0.5,-0.015"
   id="29510"
   inkscape:label="St. Louis, MO"
   inkscape:connector-curvature="0" />
  <path
   style="fill:#72b3dc;stroke:#c2dffb;stroke-width:1"
   d="m 53.436,21.027 1.775,0.432 0.257,0.078 0.252,0.121 0.19,0.112 0.978,0.591 0.041,0.072 0.009,0.076 -0.036,0.298 -0.022,0.122 -0.095,-0.189 -0.163,-0.105 -0.171,0.014 -0.243,0.163 -0.171,-0.064 -0.618,-0.37 -0.099,-0.103 -0.721,0.063 -0.017,0.154 -0.078,0.175 -0.063,0.1 -0.112,0.094 -0.149,0.013 -0.357,-0.067 -0.107,0 -0.073,0.032 -0.067,0.075 -0.235,0.429 -0.505,1.091 0.009,0.148 -0.066,0.126 -0.163,0.091 -0.15,0.014 -0.86,-0.051 -0.072,0.024 -0.131,0.099 -0.293,0.459 -0.234,0.105 -2.254,1.315 -0.166,-4.2 2.867,-0.979 2.113,-0.558"
   id="29183"
   inkscape:label="St. Charles, MO"
   inkscape:connector-curvature="0" />
  <path
   style="fill:#72b3dc;stroke:#c2dffb;stroke-width:1"
   d="m 56.88,22.929 -0.726,0.886 -0.5,0.015 -0.406,0.306 -0.248,0.514 0.157,1.013 0.127,0.687 0.415,0.215 -0.045,0.159 -0.695,1.807 -0.077,-0.293 -0.635,-1.185 -1.857,0.103 -1.316,0.329 -0.113,0.207 -0.085,-2.243 0.234,-0.105 0.293,-0.459 0.131,-0.099 0.072,-0.024 0.86,0.051 0.15,-0.014 0.163,-0.091 0.066,-0.126 -0.009,-0.148 0.505,-1.091 0.235,-0.429 0.067,-0.075 0.073,-0.032 0.107,0 0.357,0.067 0.149,-0.013 0.112,-0.094 0.063,-0.1 0.078,-0.175 0.017,-0.154 0.721,-0.063 0.099,0.103 0.618,0.37 0.171,0.064 0.243,-0.163 0.171,-0.014 0.163,0.105 0.095,0.189"
   id="29189"
   inkscape:label="St. Louis Co., MO"
   inkscape:connector-curvature="0" />
  <path
   style="fill:#72b3dc;stroke:#c2dffb;stroke-width:1"
   d="m 50.961,27.692 0.113,-0.207 1.316,-0.329 1.857,-0.103 0.635,1.185 0.077,0.293 -0.028,0.036 -0.045,0.09 -0.147,0.5 -0.019,0.054 -0.009,0.131 0.019,0.541 0.135,0.58 0.117,0.289 0.185,0.253 0.032,0.045 0.026,0.028 0.848,0.825 -1.582,1.112 -2.281,-0.315 -1.501,-1.578 0.252,-3.43"
   id="29099"
   inkscape:label="Jefferson, MO"
   inkscape:connector-curvature="0" />
  <path
   style="fill:#72b3dc;stroke:#c2dffb;stroke-width:1"
   d="m 52.21,32.7 2.281,0.315 0.982,0.73 -1.293,1.417 0.824,0.796 1.953,1.762 0.441,-0.418 0.463,0.343 -0.341,0.404 -3.931,0.213 L 52.408,37.139 52.21,32.7"
   id="29187"
   inkscape:label="St. Francois, MO"
   inkscape:connector-curvature="0" />
  <path
   style="fill:#72b3dc;stroke:#c2dffb;stroke-width:1"
   d="m 56.585,32.286 2.854,2.605 -1.578,2.754 -0.463,-0.343 -0.441,0.418 -1.953,-1.762 -0.824,-0.796 1.293,-1.417 -0.982,-0.73 1.582,-1.112 0.512,0.383"
   id="29186"
   inkscape:label="Sainte Genevieve, MO"
   inkscape:connector-curvature="0" />
  <path
   style="fill:#72b3dc;stroke:#c2dffb;stroke-width:1"
   d="m 57.52,38.049 0.036,0.578 0.13,0.721 0.108,2.98 -0.734,0.007 -3.376,0.163 -0.095,-4.236 3.931,-0.213"
   id="29123"
   inkscape:label="Madison, MO"
   inkscape:connector-curvature="0" />
  <path
   style="fill:#72b3dc;stroke:#c2dffb;stroke-width:1"
   d="m 53.684,42.498 3.376,-0.163 0.125,2.967 1.15,-0.063 0.027,0.582 -1.411,1.635 -4.295,0.194 -1.117,-1.55 -0.041,-0.884 0.387,-0.649 -0.013,-0.788 -0.045,-0.569 1.857,-0.712"
   id="29223"
   inkscape:label="Wayne, MO"
   inkscape:connector-curvature="0" />
  <path
   style="fill:#72b3dc;stroke:#c2dffb;stroke-width:1"
   d="m 56.951,47.456 0.501,1.321 0.355,0.784 0.069,0.027 0.094,0.068 0.333,0.639 0.127,0.46 -0.027,0.252 -0.091,0.158 -0.635,1.772 -3.655,0.208 -1.118,-4.012 -0.248,-1.483 4.295,-0.194"
   id="29023"
   inkscape:label="Butler, MO"
   inkscape:connector-curvature="0" />
  <path
   style="fill:#72b3dc;stroke:#c2dffb;stroke-width:1"
   d="m 60.254,51.067 0.177,3.118 0.342,5.053 -3.407,0.243 -0.823,0.054 1.593,-2.772 1.127,-0.991 0.072,-0.113 0.109,-0.297 -0.067,-1.024 -0.1,-0.134 -0.919,-1.298 -0.406,0.013 -0.275,0.018 0.635,-1.772 1.942,-0.098"
   id="29069"
   inkscape:label="Dunklin, MO"
   inkscape:connector-curvature="0" />
  <path
   style="fill:#72b3dc;stroke:#c2dffb;stroke-width:1"
   d="m 60.788,44.558 1.027,-0.063 0.197,1.195 0.207,0.278 0.163,0.262 0.221,0.537 0.158,0.441 0.036,0.695 -0.13,0.009 0.238,3.005 -2.651,0.15 -1.942,0.098 0.091,-0.158 0.027,-0.252 -0.127,-0.46 -0.333,-0.639 -0.094,-0.068 -0.069,-0.027 -0.355,-0.784 -0.501,-1.321 1.411,-1.635 0.946,-0.05 0.596,-0.222 -0.064,-0.946 0.948,-0.045"
   id="29207"
   inkscape:label="Stoddard, MO"
   inkscape:connector-curvature="0" />
  <path
   style="fill:#72b3dc;stroke:#c2dffb;stroke-width:1"
   d="m 60.445,38.419 0.343,6.139 -0.948,0.045 0.064,0.946 -0.596,0.222 -0.946,0.05 -0.027,-0.582 -1.15,0.063 -0.125,-2.967 0.734,-0.007 -0.108,-2.98 -0.13,-0.721 2.889,-0.208"
   id="29017"
   inkscape:label="Bollinger, MO"
   inkscape:connector-curvature="0" />
  <path
   style="fill:#72b3dc;stroke:#c2dffb;stroke-width:1"
   d="m 59.439,34.891 2.723,0.756 1.748,2.894 0,0.077 -3.465,-0.199 -2.889,0.208 -0.036,-0.578 0.341,-0.404 1.578,-2.754"
   id="29157"
   inkscape:label="Perry, MO"
   inkscape:connector-curvature="0" />
  <path
   style="fill:#72b3dc;stroke:#c2dffb;stroke-width:1"
   d="m 60.445,38.419 3.465,0.199 0.009,0.117 0.064,0.258 0.004,0.003 0.288,0.537 0.189,0.283 0.267,0.262 0.126,0.158 0.162,0.365 0.004,0.01 0.005,0.021 0.058,0.217 0.005,0.014 -0.005,0.017 -0.04,0.397 -0.041,0.122 -0.008,0.013 -0.01,0.009 -0.009,0.013 -0.117,0.06 -0.369,0.099 0.017,1.131 -2.694,1.771 -1.027,0.063 -0.343,-6.139"
   id="29031"
   inkscape:label="Cape Girardeau, MO"
   inkscape:connector-curvature="0" />
  <path
   style="fill:#72b3dc;stroke:#c2dffb;stroke-width:1"
   d="m 64.509,42.724 0.258,0.369 0.626,1.172 0.36,0.883 0.681,0.555 -1.888,1.952 -1.749,0.248 -0.036,-0.695 -0.158,-0.441 -0.221,-0.537 -0.163,-0.262 -0.207,-0.278 -0.197,-1.195 2.694,-1.771"
   id="29201"
   inkscape:label="Scott, MO"
   inkscape:connector-curvature="0" />
  <path
   style="fill:#72b3dc;stroke:#c2dffb;stroke-width:1"
   d="m 66.434,45.703 1.961,0.211 0.365,0.47 -0.386,1.289 -0.006,0.004 -0.284,0.162 -0.005,0.005 0,0.297 0.005,0.005 0.59,0.311 -0.396,1.788 -1.551,0.348 -2.181,-2.938 1.888,-1.952"
   id="29133"
   inkscape:label="Mississippi, MO"
   inkscape:connector-curvature="0" />
  
  
  
  
  
  
  
  
  
  
  
  
  
  
  
  
  
  
  
  
  
  
  
  
  
  
  
  
  
  
  
  
  
  
  
  
  
  
  
  
  
  
  
  
  
  
  
  
  
  
  
  
  
  
  
  
  
  
  
  
  
  
  
  
  
  
  
  
  
  
  
  
  
  
  
  
  
  
  
  
  
  
  
  
  
  
  
  
  
  
  
  
  
  
  
  
  
  
  
  
  
  
  
  
  
  
  
  
  
  
  
  
  
  
  
  
  
  
  
  
  
  
  
  
  
  
  
  
  
  
  
  
  
  
  
  
  
  
  
  
  
  
  
  
  
  
  
  
  
  
  
  
  
  
  
  
  
  
  
  
  
  
  
  
  
  
  
  
  
  
  
  
  
  
  
  
  
  
  
  
  
  
  
  
  
  
  
  
  
  
  
  
  
  
  
  
  
  
  
  
  
  
  
  
  
  
  
  
  
  
  
  
  
  
  
  
  
  
  
  
  
  
  
  
  
  
  
  
  
  
  
  
  
  
  
  
  
  
  
  
  
  
  
  
  
  
  
  
  
  
  
  
  
  
  
  
  
  
  
  
  
  
  
  
  
  
  
  
  
  
  
  
  
  
  
  
  
  
  
  
  
  
  
  
  
  
  
  
  
  
  
  
  
  
  
  
  
  
  
  
  
  
  
  
  
  
  
  
  
  
  
  
  
  
  
  
  
  
  
  
  
  
  
  
  
  
  
  
  
  
  
  
  
  
  
  
  
  
  
  
  
  
  
  
  
  
  
  
  
  
  
  
  
  
  
  
  
  
  
  
  
  
  
  
  
  
  
  
  
  
  
  
  
  
  
  
  
  
  
  
  
  
  
  
  
  
  
  
  
  
  
  
  
  
  
  
  
  
  
  
  
  
  
  
  
  
  
  
  
  
  
  
  
  
  
  
  
  
  
  
  
  
  
  
  
  
  
  
  
  
  
  
  
  
  
  
  
  
  
  
  
  
  
  
  
  
  
  
  
  
  
  
  
  
  
  
  
  
  
  
  
  
  
  
  
  
  
  
  
  
  
  
  
  
  
  
  
  
  
  
  
  
  
  
  
  
  
  
  
  
  
  
  
  
  
  
  
  
  
  
  
  
  
  
  
  
  
  
  
  
  
  
  
  
  
  
  
  
  
  
  
  
  
  
  
  
  
  
  
  
  
  
  
  
  
  
  
  
  
  
  
  
  
  
  
  
  
  
  
  
  
  
  
  
  
  
  
  
  
  
  
  
  
  
  
  
  
  
  
  
  
  
  
  
  
  
  
  
  
  
  
  
  
  
  
  
  
  
  
  
  
  
  
  
  
  
  
  
  
  
  
  
  
  
  
  
  
  
  
  
  
  
  
  
  
  
  
  
  
  
  
  
  
  
  
  
  
  
  
  
  
  
  
  
  
  
  
  
  
  
  
  
  
  
  
  
  
  
  
  
  
  
  
  
  
  
  
  
  
  
  
  
  
  
  
  
  
  
  
  
  
  
  
  
  
  
  
  
  
  
  
  
  
  
  
  
  
  
  
  
  
  
  
  
  
  
  
  
  
  
  
  
  
  
  
  
  
  
  
  
  
  
  
  
  
  
  
  
  
  
  
  
  
  
  
  
  
  
  
  
  
  
  
  
  
  
  
  
  
  
  
  
  
  
  
  
  
  
  
  
  
  
  
  
  
  
  
  
  
  
  
  
  
  
  
  
  
  
  
  
  
  
  
  
  
  
  
  
  
  
  
  
  
  
  
  
  
  
  
  
  
  
  
  
  
  
  
  
  
  
  
  
  
  
  
  
  
  
  
  
  
  
  
  
  
  
  
  
  
  
  
  
  
  
  
  
  
  
  
  
  
  
  
  
  
  
  
  
  
  
  
  
  
  
  
  
  
  
  
  
  
  
  
  
  
  
  
  
  
  
  
  
  
  
  
  
  
  
  
  
  
  
  
  
  
  
  
  
  
  
  
  
  
  
  
  
  
  
  
  
  
  
  
  
  
  
  
  
  
  
  
  
  
  
  
  
  
  
  
  
  
  
  
  
  
  
  
  
  
  
  
  
  
  
  
  
  
  
  
  
  
  
  
  
  
  
  
  
  
  
  
  
  
  
  
  
  
  
  
  
  
  
  
  
  
  
  
  
  
  
  
  
  
  
  
  
  
  
  
  
  
  
  
  
  
  
  
  
  
  
  
  
  
  
  
  
  
  
  
  
  
  
  
  
  
  
  
  
  
  
  
  
  
  
  
  
  
  
  
  
  
  
  
  
  
  
  
  
  
  
  
  
  
  
  
  
  
  
  
  
  
  
  
  
  
  
  
  
  
  
  
  
  
  
  
  
  
  
  
  
  
  
  
  
  
  
  
  
  
  
  
  
  
  
  
  
  
  
  
  
  
  
  
  
  
  
  
  
  
  
  
  
  
  
  
  
  
  
  
  
  
  
  
  
  
  
  
  
  
  
  
  
  
  
  
  
  
  
  
  
  
  
  
  
  
  
  
  
  
  
  
  
  
  
  
  
  
  
  
  
  
  
  
  
  
  
  
  
  
  
  
  
  
  
  
  
  
  
  
  
  
  
  
  
  
  
  
  
  
  
  
  
  
  
  
  
  
  
  
  
  
  
  
  
  
  
  
  
  
  
  
  
  
  
  
  
  
  
  
  
  
  
  
  
  
  
  
  
  
  
  
  
  
  
  
  
  
  
  
  
  
  
  
  
  
  
  
  
  
  
  
  
  
  
  
  
  
  
  
  
  
  
  
  
  
  
  
  
  
  
  
  
  
  
  
  
  
  
  
  
  
  
  
  
  
  
  
  
  
  
  
  
  
  
  
  
  
  
  
  
  
  
  
  
  
  
  
  
  
  
  
  
  
  
  
  
  
  
  
  
  
  
  
  
  
  
  
  
  
  
  
  
  
  
  
  
  
  
  
  
  
  
  
  
  
  
  
  
  
  
  
  
  
  
  
  
  
  
  
  
  
  
  
  
  
  
  
  
  
  
  
  
  
  
  
  
  
  
  
  
  
  
  
  
  
  
  
  
  
  
  
  
  
  
  
  
  
  
  
  
  
  
  
  
  
  
  
  
  
  
  
  
  
  
  
  
  
  
  
  
  
  
  
  
  
  
  
  
  
  
  
  
  
  
  
  
  
  
  
  
  
  
  
  
  
  
  
  
  
  
  
  
  
  
  
  
  
  
  
  
  
  
  
  
  
  
  
  
  
  
  
  
  
  
  
  
  
  
  
  
  
  
  
  
  
  
  
  
  
  
  
  
  
  
  
  
  
  
  
  
  
  
  
  
  
  
  
  
  
  
  
  
  
  
  
  
  
  
  
  
  
  
  
  
  
  
  
  
  
  
  
  
  
  
  
  
  
  
  
  
  
  
  
  
  
  
  
  
  
  
  
  
  
  
  
  
  
  
  
  
  
  
  
  
  
  
  
  
  
  
  
  
  
  
  
  
  
  
  
  
  
  
  
  
  
  
  
  
  
  
  
  
  
  
  
  
  
  
  
  
  
  
  
  
  
  
  
  
  
  
  
  
  
  
  
  
  
  
  
  
  
  
  
  
  
  
  
  
  
  
  
  
  
  
  
  
  
  
  
  
  
  
  
  
  
  
  
  
  
  
  
  
  
  
  
  
  
  
  
  
</svg>