<?xml version="1.0" encoding="UTF-8" standalone="no"?>
<!--?xml version="1.0" encoding="UTF-8" standalone="no"?-->

<svg
   xmlns:dc="http://purl.org/dc/elements/1.1/"
   xmlns:cc="http://creativecommons.org/ns#"
   xmlns:rdf="http://www.w3.org/1999/02/22-rdf-syntax-ns#"
   xmlns:svg="http://www.w3.org/2000/svg"
   xmlns="http://www.w3.org/2000/svg"
   xmlns:sodipodi="http://sodipodi.sourceforge.net/DTD/sodipodi-0.dtd"
   xmlns:inkscape="http://www.inkscape.org/namespaces/inkscape"
   width="40.440529"
   height="69.46138"
   viewBox="0 0 37.382001 63.450299"
   preserveAspectRatio="xMinYMin meet"
   xml:space="preserve"
   id="svg1716"
   version="1.1"
   inkscape:version="0.48.2 r9819"
   sodipodi:docname="MS.svg"><metadata
   id="metadata1804"><rdf:RDF><cc:Work
       rdf:about=""><dc:format>image/svg+xml</dc:format><dc:type
         rdf:resource="http://purl.org/dc/dcmitype/StillImage" /></cc:Work></rdf:RDF></metadata><defs
   id="defs1802" /><sodipodi:namedview
   pagecolor="#ffffff"
   bordercolor="#666666"
   borderopacity="1"
   objecttolerance="10"
   gridtolerance="10"
   guidetolerance="10"
   inkscape:pageopacity="0"
   inkscape:pageshadow="2"
   inkscape:window-width="640"
   inkscape:window-height="480"
   id="namedview1800"
   showgrid="false"
   inkscape:zoom="0.56730769"
   inkscape:cx="-71.575233"
   inkscape:cy="88.954764"
   inkscape:window-x="0"
   inkscape:window-y="0"
   inkscape:window-maximized="0"
   inkscape:current-layer="svg1716" />
  
  
  
  
  
  
  
  
  
  
  
  
  
  
  
  
  
  
  
  
  
  
  
  
  
  
  
  
  
  
  
  
  
  
  
  
  
  
  
  
  
  
  
  
  
  
  
  
  
  
  
  
  
  
  
  
  
  
  
  
  
  
  
  
  
  
  
  
  
  
  
  
  
  
  
  
  
  
  
  
  
  
  
  
  
  
  
  
  
  
  
  
  
  
  
  
  
  
  
  
  
  
  
  
  
  
  
  
  
  
  
  
  
  
  
  
  
  
  
  
  
  
  
  
  
  
  
  
  
  
  
  
  
  
  
  
  
  
  
  
  
  
  
  
  
  
  
  
  
  
  
  
  
  
  
  
  
  
  
  
  
  
  
  
  
  
  
  
  
  
  
  
  
  
  
  
  
  
  
  
  
  
  
  
  
  
  
  
  
  
  
  
  
  
  
  
  
  
  
  
  
  
  
  
  
  
  
  
  
  
  
  
  
  
  
  
  
  
  
  
  
  
  
  
  
  
  
  
  
  
  
  
  
  
  
  
  
  
  
  
  
  
  
  
  
  
  
  
  
  
  
  
  
  
  
  
  
  
  
  
  
  
  
  
  
  
  
  
  
  
  
  
  
  
  
  
  
  
  
  
  
  
  
  
  
  
  
  
  
  
  
  
  
  
  
  
  
  
  
  
  
  
  
  
  
  
  
  
  
  
  
  
  
  
  
  
  
  
  
  
  
  
  
  
  
  
  
  
  
  
  
  
  
  
  
  
  
  
  
  
  
  
  
  
  
  
  
  
  
  
  
  
  
  
  
  
  
  
  
  
  
  
  
  
  
  
  
  
  
  
  
  
  
  
  
  
  
  
  
  
  
  
  
  
  
  
  
  
  
  
  
  
  
  
  
  
  
  
  
  
  
  
  
  
  
  
  
  
  
  
  
  
  
  
  
  
  
  
  
  
  
  
  
  
  
  
  
  
  
  
  
  
  
  
  
  
  
  
  
  
  
  
  
  
  
  
  
  
  
  
  
  
  
  
  
  
  
  
  
  
  
  
  
  
  
  
  
  
  
  
  
  
  
  
  
  
  
  
  
  
  
  
  
  
  
  
  
  
  
  
  
  
  
  
  
  
  
  
  
  
  
  
  
  
  
  
  
  
  
  
  
  
  
  
  
  
  
  
  
  
  
  
  
  
  
  
  
  
  
  
  
  
  
  
  
  
  
  
  
  
  
  
  
  
  
  
  
  
  
  
  
  
  
  
  
  
  
  
  
  
  
  
  
  
  
  
  
  
  
  
  
  
  
  
  
  
  
  
  
  
  
  
  
  
  
  
  
  
  
  
  
  
  
  
  
  
  
  
  
  
  
  
  
  
  
  
  
  
  
  
  
  
  
  
  
  
  
  
  
  
  
  
  
  
  
  
  
  
  
  
  
  
  
  
  
  
  
  
  
  
  
  
  
  
  
  
  
  
  
  
  
  
  
  
  
  
  
  
  
  
  
  
  
  
  
  
  
  
  
  
  
  
  
  
  
  
  
  
  
  
  
  
  
  
  
  
  
  
  
  
  
  
  
  
  
  
  
  
  
  
  
  
  
  
  
  
  
  
  
  
  
  
  
  
  
  
  
  
  
  
  
  
  
  
  
  
  
  
  
  
  
  
  
  
  
  
  
  
  
  
  
  
  
  
  
  
  
  
  
  
  
  
  
  
  
  
  
  
  
  
  
  
  
  
  
  
  
  
  
  
  
  
  
  
  
  
  
  
  
  
  
  
  
  
  
  
  
  
  
  
  
  
  
  
  
  
  
  
  
  
  
  
  
  
  
  
  
  
  
  
  
  
  
  
  
  
  
  
  
  
  
  
  
  
  
  
  
  
  
  
  
  
  
  
  
  
  
  
  
  
  
  
  
  
  
  
  
  
  
  
  
  
  
  
  
  
  
  
  
  
  
  
  
  
  
  
  
  
  
  
  
  
  
  
  
  
  
  
  
  
  
  
  
  
  
  
  
  
  
  
  
  
  
  
  
  
  
  
  
  
  
  
  
  
  
  
  
  
  
  
  
  
  
  
  
  
  
  
  
  
  
  
  
  
  
  
  
  
  
  
  
  
  
  
  
  
  
  
  
  
  
  
  
  
  
  
  
  
  
  
  
  
  
  
  
  
  
  
  
  
  
  
  
  
  
  
  
  
  
  
  
  
  
  
  
  
  
  
  
  
  
  
  
  
  
  
  
  
  
  
  
  
  
  
  
  
  
  
  
  
  
  
  
  
  
  
  
  
  
  
  
  
  
  
  
  
  
  
  
  
  
  
  
  
  
  
  
  
  
  
  
  
  
  
  
  
  
  
  
  
  
  
  
  
  
  
  
  
  
  
  
  
  
  
  
  
  
  
  
  
  
  
  
  
  
  
  
  
  
  
  
  
  
  
  
  
  
  
  
  
  
  
  
  
  
  
  
  
  
  
  
  
  
  
  
  
  
  
  
  
  
  
  
  
  
  
  
  
  
  
  
  
  
  
  
  
  
  
  
  
  
  
  
  
  
  
  
  
  
  
  
  
  
  
  
  
  
  
  
  
  
  
  
  
  
  
  
  
  
  
  
  
  
  
  
  
  
  
  
  
  
  
  
  
  
  
  
  
  
  
  
  
  
  
  
  
  
  
  
  
  
  
  
  
  
  
  
  
  
  
  
  
  
  
  
  
  
  
  
  
  
  
  
  
  
  
  
  
  
  
  
  
  
  
  
  
  
  
  
  
  
  
  
  
  
  
  
  
  
  
  
  
  
  
  
  
  
  
  
  
  
  
  
  
  
  
  
  
  
  
  
  
  
  
  
  
  
  
  
  
  
  
  
  
  
  
  
  
  
  
  
  
  
  
  
  
  
  
  
  
  
  
  
  
  
  
  
  
  
  
  
  
  
  
  
  
  
  
  
  
  
  
  
  
  
  
  
  
  
  
  
  
  
  
  
  
  
  
  
  
  
  
  
  
  
  
  
  
  
  
  
  
  
  
  
  
  
  
  
  
  
  
  
  
  
  
  
  
  
  
  
  
  
  
  
  
  
  
  
  
  
  
  
  
  
  
  
  
  
  
  
  
  
  
  
  
  
  
  
  
  
  
  
  
  
  
  
  
  
  
  
  
  
  
  
  
  
  
  
  
  
  
  
  
  
  
  
  
  
  
  
  
  
  
  
  
  
  
  
  
  
  
  
  
  
  
  
  
  
  
  
  
  
  
  
  
  
  
  
  
  
  
  
  
  
  
  
  
  
  
  
  
  
  
  
  
  
  
  
  
  
  
  
  
  
  
  
  
  
  
  
  
  
  
  
  
  
  
  
  
  
  
  
  
  
  
  
  
  
  
  
  
  
  
  
  
  
  
  
  
  
  
  
  
  
  
  
  
  
  
  
  
  
  <path
   style="fill:#72b3dc;stroke:#c2dffb;stroke-width:1"
   d="m 31.154,56.78 0.694,3.466 -0.839,0.212 -1.767,0.458 -2.168,0.624 -0.694,-0.478 -0.257,-3.534 1.122,-0.077 0.051,-0.387 3.858,-0.284"
   id="28047"
   inkscape:label="Harrison, MS"
   inkscape:connector-curvature="0" />
  <path
   style="fill:#72b3dc;stroke:#c2dffb;stroke-width:1"
   d="m 31.094,56.031 5.216,-0.404 0.572,4.691 -0.009,0.189 -0.794,0.51 -0.089,0.032 -2.786,-0.099 -0.208,-0.046 -0.752,-0.424 -0.396,-0.234 -0.694,-3.466 -0.06,-0.749"
   id="28059"
   inkscape:label="Jackson, MS"
   inkscape:connector-curvature="0" />
  <path
   style="fill:#72b3dc;stroke:#c2dffb;stroke-width:1"
   d="m 16.97,16.026 1.667,-0.093 0.027,0.382 2.785,-0.184 0.171,2.452 -2.983,0.211 -3.642,0.23 -0.121,-0.572 -0.068,-1.136 1.15,-0.082 1.077,-0.247 -0.027,-0.374 -0.036,-0.587"
   id="28043"
   inkscape:label="Grenada, MS"
   inkscape:connector-curvature="0" />
  <path
   style="fill:#72b3dc;stroke:#c2dffb;stroke-width:1"
   d="m 21.161,12.322 0.288,3.809 -2.785,0.184 -0.027,-0.382 -1.667,0.093 -0.274,-3.438 2.203,-0.509 2.262,0.243"
   id="28161"
   inkscape:label="Yalobusha, MS"
   inkscape:connector-curvature="0" />
  <path
   style="fill:#72b3dc;stroke:#c2dffb;stroke-width:1"
   d="m 29.868,16.252 0.135,1.685 2.336,-0.175 0.064,0.077 -0.177,0.32 -1.532,1.992 -0.064,-0.761 -3.334,0.265 -0.365,0.05 -0.334,-2.276 3.271,-1.177"
   id="28025"
   inkscape:label="Clay, MS"
   inkscape:connector-curvature="0" />
  <path
   style="fill:#72b3dc;stroke:#c2dffb;stroke-width:1"
   d="m 24.921,17.56 1.676,-0.131 0.334,2.276 -0.713,0.429 -3.06,1.166 -1.338,0.1 -0.24,-3.39 3.341,-0.45"
   id="28155"
   inkscape:label="Webster, MS"
   inkscape:connector-curvature="0" />
  <path
   style="fill:#72b3dc;stroke:#c2dffb;stroke-width:1"
   d="m 28.502,12.927 1.118,-0.082 0.248,3.407 -3.271,1.177 -1.676,0.131 -0.051,-0.947 0.555,-0.046 -0.257,-3.384 3.334,-0.256"
   id="28017"
   inkscape:label="Chickasaw, MS"
   inkscape:connector-curvature="0" />
  <path
   style="fill:#72b3dc;stroke:#c2dffb;stroke-width:1"
   d="m 21.161,12.322 2.799,-0.184 1.208,1.045 0.257,3.384 -0.555,0.046 0.051,0.947 -3.341,0.45 -0.131,-1.879 -0.288,-3.809"
   id="28013"
   inkscape:label="Calhoun, MS"
   inkscape:connector-curvature="0" />
  <path
   style="fill:#72b3dc;stroke:#c2dffb;stroke-width:1"
   d="m 28.215,9.177 0.287,3.75 -3.334,0.256 -1.208,-1.045 -0.208,-2.827 4.463,-0.134"
   id="28115"
   inkscape:label="Pontotoc, MS"
   inkscape:connector-curvature="0" />
  <path
   style="fill:#72b3dc;stroke:#c2dffb;stroke-width:1"
   d="m 29.003,7.242 2.091,0.406 0.371,4.863 -1.845,0.334 -1.118,0.082 -0.287,-3.75 0.788,-1.935"
   id="28081"
   inkscape:label="Lee, MS"
   inkscape:connector-curvature="0" />
  <path
   style="fill:#72b3dc;stroke:#c2dffb;stroke-width:1"
   d="m 25.213,6.364 3.714,-0.258 0.076,1.136 -0.788,1.935 -4.463,0.134 -0.108,-1.5 -0.071,-1.132 1.64,-0.315"
   id="28145"
   inkscape:label="Union, MS"
   inkscape:connector-curvature="0" />
  <path
   style="fill:#72b3dc;stroke:#c2dffb;stroke-width:1"
   d="m 18.587,7.395 0.555,-0.035 1.092,-0.091 0.931,-0.044 1.371,0.316 1.108,0.27 0.108,1.5 0.208,2.827 -2.799,0.184 -2.262,-0.243 -0.312,-4.684"
   id="28071"
   inkscape:label="Lafayette, MS"
   inkscape:connector-curvature="0" />
  <path
   style="fill:#72b3dc;stroke:#c2dffb;stroke-width:1"
   d="m 13.401,5.516 1.027,-0.17 1.969,-0.645 1.979,-0.127 0.085,1.122 0.568,0.091 0.113,1.573 -0.555,0.035 -5.029,0.321 -0.157,-2.2"
   id="28137"
   inkscape:label="Tate, MS"
   inkscape:connector-curvature="0" />
  <path
   style="fill:#72b3dc;stroke:#c2dffb;stroke-width:1"
   d="m 13.558,7.716 5.029,-0.321 0.312,4.684 -2.203,0.509 -2.16,0.189 -0.077,-1.37 -0.672,-0.734 -0.198,-2.394 -0.031,-0.563"
   id="28107"
   inkscape:label="Panola, MS"
   inkscape:connector-curvature="0" />
  <path
   style="fill:#72b3dc;stroke:#c2dffb;stroke-width:1"
   d="m 13.589,8.279 0.198,2.394 0.672,0.734 0.077,1.37 0.068,1.127 -0.573,0.036 -2.772,0.166 -0.14,-2.451 0.551,-0.022 -0.132,-2.101 1.034,-0.072 -0.096,-1.1 1.113,-0.081"
   id="28119"
   inkscape:label="Quitman, MS"
   inkscape:connector-curvature="0" />
  <path
   style="fill:#72b3dc;stroke:#c2dffb;stroke-width:1"
   d="m 14.536,12.777 2.16,-0.189 0.274,3.438 0.036,0.587 0.027,0.374 -1.077,0.247 -1.15,0.082 0.068,1.136 -0.42,-0.838 -0.139,-0.266 -2.866,0.143 -0.123,-2.258 -0.067,-1.127 2.772,-0.166 0.573,-0.036 -0.068,-1.127"
   id="28135"
   inkscape:label="Tallahatchie, MS"
   inkscape:connector-curvature="0" />
  <path
   style="fill:#72b3dc;stroke:#c2dffb;stroke-width:1"
   d="m 11.449,17.491 2.866,-0.143 0.139,0.266 0.42,0.838 0.121,0.572 0.281,0.176 0.026,0.135 0.157,2.488 -0.355,0.572 -0.391,0.019 0.067,1.081 -1.66,0.496 -1.32,-0.266 -0.351,-6.234"
   id="28083"
   inkscape:label="Leflore, MS"
   inkscape:connector-curvature="0" />
  <path
   style="fill:#72b3dc;stroke:#c2dffb;stroke-width:1"
   d="m 11.326,15.233 0.123,2.258 0.351,6.234 -1.101,0.068 0.051,0.757 -1.726,0.103 -0.691,-3.326 -0.062,-1.122 1.118,-0.062 -0.253,-4.805 2.19,-0.105"
   id="28133"
   inkscape:label="Sunflower, MS"
   inkscape:connector-curvature="0" />
  <path
   style="fill:#72b3dc;stroke:#c2dffb;stroke-width:1"
   d="m 11.8,23.725 1.32,0.266 0.145,2.168 -0.347,0.64 -0.063,0.045 -0.122,-0.023 -0.288,-0.179 -0.135,-0.181 -0.046,0.013 -0.026,0.042 -0.038,0.215 0.05,0.428 0.024,0.068 0.522,0.433 0.203,0.129 -0.915,0.073 0.059,1.11 L 9.916,29.111 9.304,26.894 9.024,24.653 10.75,24.55 10.699,23.793 11.8,23.725"
   id="28053"
   inkscape:label="Humphreys, MS"
   inkscape:connector-curvature="0" />
  <path
   style="fill:#72b3dc;stroke:#c2dffb;stroke-width:1"
   d="m 13.12,23.991 1.66,-0.496 4.65,1.248 -2.046,4.477 -4.385,-1.431 -0.203,-0.129 -0.522,-0.433 -0.024,-0.068 -0.05,-0.428 0.038,-0.215 0.026,-0.042 0.046,-0.013 0.135,0.181 0.288,0.179 0.122,0.023 0.063,-0.045 0.347,-0.64 -0.145,-2.168"
   id="28051"
   inkscape:label="Holmes, MS"
   inkscape:connector-curvature="0" />
  <path
   style="fill:#72b3dc;stroke:#c2dffb;stroke-width:1"
   d="m 14.995,19.024 3.642,-0.23 0.239,3.367 0.758,0.135 0.738,-0.058 0.113,1.514 -1.055,0.991 -4.65,-1.248 -0.067,-1.081 0.391,-0.019 0.355,-0.572 -0.157,-2.488 -0.026,-0.135 -0.281,-0.176"
   id="28015"
   inkscape:label="Carroll, MS"
   inkscape:connector-curvature="0" />
  <path
   style="fill:#72b3dc;stroke:#c2dffb;stroke-width:1"
   d="m 21.62,18.583 0.2,2.817 1.338,-0.1 -0.622,2.307 -2.051,0.145 -0.113,-1.514 -0.738,0.058 -0.758,-0.135 -0.239,-3.367 2.983,-0.211"
   id="28097"
   inkscape:label="Montgomery, MS"
   inkscape:connector-curvature="0" />
  <path
   style="fill:#72b3dc;stroke:#c2dffb;stroke-width:1"
   d="m 26.218,20.134 0.231,3.194 -0.222,0.019 -1.035,1.22 0.076,1.137 -1.114,0.085 -1.618,-2.182 0.622,-2.307 3.06,-1.166"
   id="28019"
   inkscape:label="Choctaw, MS"
   inkscape:connector-curvature="0" />
  <path
   style="fill:#72b3dc;stroke:#c2dffb;stroke-width:1"
   d="m 26.931,19.705 0.365,-0.05 3.334,-0.265 0.064,0.761 0.245,2.826 -1.544,0.125 -2.946,0.226 -0.231,-3.194 0.713,-0.429"
   id="28105"
   inkscape:label="Oktibbeha, MS"
   inkscape:connector-curvature="0" />
  <path
   style="fill:#72b3dc;stroke:#c2dffb;stroke-width:1"
   d="m 32.226,18.159 2.726,-1.452 -0.057,2.745 -0.059,3.199 -3.897,0.326 -0.245,-2.826 1.532,-1.992"
   id="28087"
   inkscape:label="Lowndes, MS"
   inkscape:connector-curvature="0" />
  <path
   style="fill:#72b3dc;stroke:#c2dffb;stroke-width:1"
   d="m 35.066,12.255 -0.01,0.369 -0.104,4.083 -2.726,1.452 0.177,-0.32 -0.064,-0.077 -2.336,0.175 -0.135,-1.685 -0.248,-3.407 1.845,-0.334 3.601,-0.256"
   id="28095"
   inkscape:label="Monroe, MS"
   inkscape:connector-curvature="0" />
  <path
   style="fill:#72b3dc;stroke:#c2dffb;stroke-width:1"
   d="m 35.174,7.347 -0.108,4.908 -3.601,0.256 -0.371,-4.863 2.25,-0.158 1.83,-0.143"
   id="28057"
   inkscape:label="Itawamba, MS"
   inkscape:connector-curvature="0" />
  <path
   style="fill:#72b3dc;stroke:#c2dffb;stroke-width:1"
   d="M 32.65,3.745 33.344,7.49 31.094,7.648 29.003,7.242 28.927,6.106 28.949,4.02 32.65,3.745"
   id="28117"
   inkscape:label="Prentiss, MS"
   inkscape:connector-curvature="0" />
  <path
   style="fill:#72b3dc;stroke:#c2dffb;stroke-width:1"
   d="M 32.424,0.641 34.136,0.5 35.318,1.748 35.21,5.801 35.174,7.347 33.344,7.49 32.65,3.745 32.424,0.641"
   id="28141"
   inkscape:label="Tishomingo, MS"
   inkscape:connector-curvature="0" />
  <path
   style="fill:#72b3dc;stroke:#c2dffb;stroke-width:1"
   d="M 32.248,0.653 32.424,0.641 32.65,3.745 28.949,4.02 27.616,1.023 27.999,0.991 32.248,0.653"
   id="28003"
   inkscape:label="Alcorn, MS"
   inkscape:connector-curvature="0" />
  <path
   style="fill:#72b3dc;stroke:#c2dffb;stroke-width:1"
   d="M 25.582,1.181 27.616,1.023 28.949,4.02 28.927,6.106 25.213,6.364 25.01,3.556 25.564,3.516 25.709,2.938 25.582,1.181"
   id="28139"
   inkscape:label="Tippah, MS"
   inkscape:connector-curvature="0" />
  <path
   style="fill:#72b3dc;stroke:#c2dffb;stroke-width:1"
   d="m 23.69,1.32 1.892,-0.139 0.127,1.757 -0.145,0.578 -0.554,0.04 0.203,2.808 -1.64,0.315 L 23.018,6.72 22.766,3.335 22.347,2.718 22.072,1.434 23.69,1.32"
   id="28009"
   inkscape:label="Benton, MS"
   inkscape:connector-curvature="0" />
  <path
   style="fill:#72b3dc;stroke:#c2dffb;stroke-width:1"
   d="m 19.016,1.632 3.056,-0.198 0.275,1.284 0.419,0.617 0.252,3.385 0.555,-0.041 0.071,1.132 L 22.536,7.541 21.165,7.225 20.234,7.269 19.142,7.36 19.029,5.787 18.461,5.696 18.376,4.574 18.178,1.694 19.016,1.632"
   id="28093"
   inkscape:label="Marshall, MS"
   inkscape:connector-curvature="0" />
  <path
   style="fill:#72b3dc;stroke:#c2dffb;stroke-width:1"
   d="m 18.178,1.694 0.198,2.88 -1.979,0.127 -1.969,0.645 -1.027,0.17 -1.088,-1.707 -0.265,-1.74 6.13,-0.375"
   id="28033"
   inkscape:label="DeSoto, MS"
   inkscape:connector-curvature="0" />
  <path
   style="fill:#72b3dc;stroke:#c2dffb;stroke-width:1"
   d="m 12.313,3.809 1.088,1.707 0.157,2.2 0.031,0.563 -1.113,0.081 0.096,1.1 L 11.538,9.532 9.659,8.324 9.515,6.823 11.137,4.24 12.313,3.809"
   id="28143"
   inkscape:label="Tunica, MS"
   inkscape:connector-curvature="0" />
  <path
   style="fill:#72b3dc;stroke:#c2dffb;stroke-width:1"
   d="m 9.659,8.324 1.879,1.208 0.132,2.101 -0.551,0.022 0.14,2.451 0.067,1.127 -2.19,0.105 -0.121,-1.7 L 7.32,13.705 6.125,13.777 6.089,13.651 6.242,13.332 6.721,12.345 7.731,10.533 8.284,10.425 8.839,10.311 9.298,10.091 9.663,9.771 9.686,9.753 9.696,9.73 9.772,9.482 9.659,8.324"
   id="28027"
   inkscape:label="Coahoma, MS"
   inkscape:connector-curvature="0" />
  <path
   style="fill:#72b3dc;stroke:#c2dffb;stroke-width:1"
   d="m 6.125,13.777 1.195,-0.072 1.695,-0.067 0.121,1.7 0.253,4.805 -1.118,0.062 0.062,1.122 -4.831,0.257 -0.148,-0.409 0.788,-0.317 0.189,-0.162 0.028,-0.139 0,-0.013 L 4.057,20.3 3.738,20.061 3.674,19.947 3.66,19.921 3.719,19.628 4.575,15.941 6.658,14.892 6.721,14.459 6.608,14.179 6.13,13.796 6.125,13.777"
   id="28011"
   inkscape:label="Bolivar, MS"
   inkscape:connector-curvature="0" />
  <path
   style="fill:#72b3dc;stroke:#c2dffb;stroke-width:1"
   d="m 3.502,21.584 4.831,-0.257 0.691,3.326 0.28,2.241 -2.224,1.267 -2.617,0.089 0.315,-0.356 0.009,-0.009 0.338,-1.403 0,-0.011 L 5.094,25.491 4.814,25.194 4.449,24.532 3.908,22.985 4.463,22.823 4.593,22.566 4.508,22.265 4.062,21.964 3.516,21.592 3.502,21.584"
   id="28151"
   inkscape:label="Washington, MS"
   inkscape:connector-curvature="0" />
  <path
   style="fill:#72b3dc;stroke:#c2dffb;stroke-width:1"
   d="m 9.304,26.894 0.612,2.217 -1.05,1.185 0.018,0.28 0.203,0.05 0.293,0.233 0.292,0.293 0.338,1.019 L 9.997,32.338 9.893,32.446 9.389,32.514 6.775,32.649 6.667,30.381 6.73,30.192 6.784,30.184 6.86,30.126 6.91,30.043 7.094,29.039 7.08,28.161 9.304,26.894"
   id="28125"
   inkscape:label="Sharkey, MS"
   inkscape:connector-curvature="0" />
  <path
   style="fill:#72b3dc;stroke:#c2dffb;stroke-width:1"
   d="m 7.08,28.161 0.014,0.878 -0.184,1.004 -0.05,0.083 -0.076,0.058 -0.054,0.008 -0.063,0.189 0.108,2.268 2.614,-0.135 0.062,0.558 -0.485,0.6 -0.921,1.766 -1.09,0.339 L 6.842,33.776 5.409,33.834 5.066,33.727 5.039,33.704 4.936,33.614 4.913,33.596 4.901,33.572 4.867,33.532 4.855,33.51 4.791,33.356 3.926,29.436 3.908,29.332 4.021,28.922 4.376,28.349 4.463,28.25 7.08,28.161"
   id="28055"
   inkscape:label="Issaquena, MS"
   inkscape:connector-curvature="0" />
  <path
   style="fill:#72b3dc;stroke:#c2dffb;stroke-width:1"
   d="m 12.999,27.789 4.385,1.431 -0.685,1.757 -0.108,0.171 -0.617,0.442 -3.169,1.799 -0.401,0.094 -1.072,0.924 L 9.451,33.072 9.389,32.514 9.893,32.446 9.997,32.338 10.01,32.171 9.672,31.152 9.38,30.859 9.087,30.626 l -0.203,-0.05 -0.018,-0.28 1.05,-1.185 2.227,-0.139 -0.059,-1.11 0.915,-0.073"
   id="28163"
   inkscape:label="Yazoo, MS"
   inkscape:connector-curvature="0" />
  <path
   style="fill:#72b3dc;stroke:#c2dffb;stroke-width:1"
   d="m 22.536,23.607 1.618,2.182 0.144,2.29 -2.582,0.194 -1.835,0.13 0.04,0.586 -2.537,0.231 2.046,-4.477 1.055,-0.991 2.051,-0.145"
   id="28007"
   inkscape:label="Attala, MS"
   inkscape:connector-curvature="0" />
  <path
   style="fill:#72b3dc;stroke:#c2dffb;stroke-width:1"
   d="m 26.449,23.328 2.946,-0.226 0.357,4.653 -1.095,0.076 -4.359,0.248 -0.144,-2.29 1.114,-0.085 -0.076,-1.137 1.035,-1.22 0.222,-0.019"
   id="28159"
   inkscape:label="Winston, MS"
   inkscape:connector-curvature="0" />
  <path
   style="fill:#72b3dc;stroke:#c2dffb;stroke-width:1"
   d="m 30.939,22.977 3.897,-0.326 -0.076,3.868 -0.015,0.807 -4.993,0.429 -0.357,-4.653 1.544,-0.125"
   id="28103"
   inkscape:label="Noxubee, MS"
   inkscape:connector-curvature="0" />
  <path
   style="fill:#72b3dc;stroke:#c2dffb;stroke-width:1"
   d="m 29.752,27.755 4.993,-0.429 -0.076,4.561 -5.675,0.455 -0.337,-4.511 1.095,-0.076"
   id="28069"
   inkscape:label="Kemper, MS"
   inkscape:connector-curvature="0" />
  <path
   style="fill:#72b3dc;stroke:#c2dffb;stroke-width:1"
   d="m 24.298,28.079 4.359,-0.248 0.337,4.511 -4.353,0.32 -0.343,-4.583"
   id="28099"
   inkscape:label="Neshoba, MS"
   inkscape:connector-curvature="0" />
  <path
   style="fill:#72b3dc;stroke:#c2dffb;stroke-width:1"
   d="m 24.298,28.079 0.343,4.583 -0.055,0.006 -4.403,0.292 -0.054,-0.739 -0.208,-3.232 -0.04,-0.586 1.835,-0.13 2.582,-0.194"
   id="28079"
   inkscape:label="Leake, MS"
   inkscape:connector-curvature="0" />
  <path
   style="fill:#72b3dc;stroke:#c2dffb;stroke-width:1"
   d="m 17.384,29.22 2.537,-0.231 0.208,3.232 -0.541,0.654 -0.239,0.009 -0.563,0.067 -1.515,1.393 -0.59,0.657 -0.04,0.096 -0.005,0.166 0.063,0.221 -1.375,0.077 -0.558,-0.054 -0.063,-1.036 -0.398,0.021 -1.833,0.104 -0.068,-1.113 0.401,-0.094 3.169,-1.799 0.617,-0.442 0.108,-0.171 0.685,-1.757"
   id="28089"
   inkscape:label="Madison, MS"
   inkscape:connector-curvature="0" />
  <path
   style="fill:#72b3dc;stroke:#c2dffb;stroke-width:1"
   d="m 19.588,32.875 0.893,4.669 0.153,2.253 -5.445,0.312 -0.279,-0.798 0.392,-1.826 0.658,-0.951 0.739,-1.05 -0.063,-0.221 0.005,-0.166 0.04,-0.096 0.59,-0.657 1.515,-1.393 0.563,-0.067 0.239,-0.009"
   id="28121"
   inkscape:label="Rankin, MS"
   inkscape:connector-curvature="0" />
  <path
   style="fill:#72b3dc;stroke:#c2dffb;stroke-width:1"
   d="m 11.332,34.407 1.072,-0.924 0.068,1.113 1.833,-0.104 0.398,-0.021 0.063,1.036 0.558,0.054 1.375,-0.077 -0.739,1.05 -0.658,0.951 -0.392,1.826 0.279,0.798 -5.309,0.328 -0.237,-2.275 1.689,-3.755"
   id="28049"
   inkscape:label="Hinds, MS"
   inkscape:connector-curvature="0" />
  <path
   style="fill:#72b3dc;stroke:#c2dffb;stroke-width:1"
   d="m 5.409,33.834 1.433,-0.058 0.113,2.001 1.09,-0.339 0.921,-1.766 0.485,-0.6 1.881,1.335 -1.689,3.755 -0.263,0.315 -0.536,0.635 -1.132,1 L 7.414,40.072 6.468,39.778 5.368,38.493 6.625,38.337 6.549,36.476 5.346,35.196 5.337,35.173 5.291,35.101 5.26,35.056 5.26,35.042 5.241,34.835 5.486,34.01 5.409,33.834"
   id="28149"
   inkscape:label="Warren, MS"
   inkscape:connector-curvature="0" />
  <path
   style="fill:#72b3dc;stroke:#c2dffb;stroke-width:1"
   d="m 4.228,43.047 2.564,-0.031 1.894,0.356 0.027,0.152 0.004,0.145 0.086,0.225 1.068,-0.063 0.058,1.131 0.055,1.127 -4.556,0.258 -2.448,-1.65 1.248,-1.65"
   id="28063"
   inkscape:label="Jefferson, MS"
   inkscape:connector-curvature="0" />
  <path
   style="fill:#72b3dc;stroke:#c2dffb;stroke-width:1"
   d="M 9.643,38.162 9.88,40.437 9.871,43.831 8.803,43.894 8.717,43.669 8.713,43.524 8.686,43.372 6.792,43.016 l -2.564,0.031 2.24,-3.269 0.946,0.294 0.298,0.04 1.132,-1 0.536,-0.635 0.263,-0.315"
   id="28021"
   inkscape:label="Claiborne, MS"
   inkscape:connector-curvature="0" />
  <path
   style="fill:#72b3dc;stroke:#c2dffb;stroke-width:1"
   d="M 15.189,40.109 16.6,43.868 15.288,44.404 9.929,44.962 9.871,43.831 9.88,40.437 15.189,40.109"
   id="28029"
   inkscape:label="Copiah, MS"
   inkscape:connector-curvature="0" />
  <path
   style="fill:#72b3dc;stroke:#c2dffb;stroke-width:1"
   d="m 20.634,39.797 1.068,3.381 -1.109,0.153 -2.384,0.32 -1.609,0.217 -1.411,-3.759 5.445,-0.312"
   id="28127"
   inkscape:label="Simpson, MS"
   inkscape:connector-curvature="0" />
  <path
   style="fill:#72b3dc;stroke:#c2dffb;stroke-width:1"
   d="m 20.481,37.544 4.426,-0.319 0.446,5.425 -0.92,0.131 -2.731,0.397 -1.068,-3.381 -0.153,-2.253"
   id="28129"
   inkscape:label="Smith, MS"
   inkscape:connector-curvature="0" />
  <path
   style="fill:#72b3dc;stroke:#c2dffb;stroke-width:1"
   d="m 20.129,32.221 0.054,0.739 4.403,-0.292 0.321,4.557 -4.426,0.319 -0.893,-4.669 0.541,-0.654"
   id="28123"
   inkscape:label="Scott, MS"
   inkscape:connector-curvature="0" />
  <path
   style="fill:#72b3dc;stroke:#c2dffb;stroke-width:1"
   d="m 24.641,32.662 4.353,-0.32 0.347,4.549 -4.434,0.334 -0.321,-4.557 0.055,-0.006"
   id="28101"
   inkscape:label="Newton, MS"
   inkscape:connector-curvature="0" />
  <path
   style="fill:#72b3dc;stroke:#c2dffb;stroke-width:1"
   d="m 28.994,32.342 5.675,-0.455 -0.077,3.503 -0.026,1.054 -5.225,0.447 -0.347,-4.549"
   id="28075"
   inkscape:label="Lauderdale, MS"
   inkscape:connector-curvature="0" />
  <path
   style="fill:#72b3dc;stroke:#c2dffb;stroke-width:1"
   d="m 34.566,36.444 -0.073,4.323 -4.732,1.244 -0.42,-5.12 5.225,-0.447"
   id="28023"
   inkscape:label="Clarke, MS"
   inkscape:connector-curvature="0" />
  <path
   style="fill:#72b3dc;stroke:#c2dffb;stroke-width:1"
   d="m 29.341,36.891 0.42,5.12 -0.357,0.053 -4.051,0.586 -0.446,-5.425 4.434,-0.334"
   id="28061"
   inkscape:label="Jasper, MS"
   inkscape:connector-curvature="0" />
  <path
   style="fill:#72b3dc;stroke:#c2dffb;stroke-width:1"
   d="m 29.404,42.064 0.371,5.038 -2.217,0.155 -2.774,0.198 -0.351,-4.674 0.92,-0.131 4.051,-0.586"
   id="28067"
   inkscape:label="Jones, MS"
   inkscape:connector-curvature="0" />
  <path
   style="fill:#72b3dc;stroke:#c2dffb;stroke-width:1"
   d="m 24.433,42.781 0.351,4.674 -0.577,0.04 -1.482,0.105 -0.067,-1.028 -0.199,-0.316 -0.392,-0.23 -0.396,-0.05 -0.294,-0.144 -0.649,-0.374 -0.135,-2.127 1.109,-0.153 2.731,-0.397"
   id="28031"
   inkscape:label="Covington, MS"
   inkscape:connector-curvature="0" />
  <path
   style="fill:#72b3dc;stroke:#c2dffb;stroke-width:1"
   d="m 18.209,43.651 2.384,-0.32 0.135,2.127 0.649,0.374 0.294,0.144 0.396,0.05 0.392,0.23 0.199,0.316 0.067,1.028 -0.739,0.048 -1.865,0.119 0.049,0.567 -1.488,0.09 -0.108,-1.698 -0.261,-1.349 -0.104,-1.726"
   id="28065"
   inkscape:label="Jefferson Davis, MS"
   inkscape:connector-curvature="0" />
  <path
   style="fill:#72b3dc;stroke:#c2dffb;stroke-width:1"
   d="m 16.6,43.868 1.609,-0.217 0.104,1.726 0.261,1.349 0.108,1.698 -0.848,0.758 -2.244,-0.045 -0.302,-4.733 1.312,-0.536"
   id="28077"
   inkscape:label="Lawrence, MS"
   inkscape:connector-curvature="0" />
  <path
   style="fill:#72b3dc;stroke:#c2dffb;stroke-width:1"
   d="m 15.288,44.404 0.302,4.733 -0.184,0.012 -3.156,0.195 -0.937,0.058 -0.189,-3.381 -1.14,0.068 -0.055,-1.127 5.359,-0.558"
   id="28085"
   inkscape:label="Lincoln, MS"
   inkscape:connector-curvature="0" />
  <path
   style="fill:#72b3dc;stroke:#c2dffb;stroke-width:1"
   d="m 5.428,46.347 4.556,-0.258 1.14,-0.068 0.189,3.381 -3.84,0.217 -1.211,0.419 -0.709,-0.294 -0.125,-3.397"
   id="28037"
   inkscape:label="Franklin, MS"
   inkscape:connector-curvature="0" />
  <path
   style="fill:#72b3dc;stroke:#c2dffb;stroke-width:1"
   d="m 2.98,44.697 2.448,1.65 0.125,3.397 -0.054,-0.05 -0.775,-0.26 -0.45,0.081 -0.357,0.126 -1.478,0.609 -1.406,1.307 -0.104,0.229 -0.162,0.672 0.266,-1.389 0.41,-3.361 0.004,-0.009 0.041,-0.087 0.027,-0.053 1.176,-2.362 0.008,-0.01 0.173,-0.296 0.108,-0.194"
   id="28001"
   inkscape:label="Adams, MS"
   inkscape:connector-curvature="0" />
  <path
   style="fill:#72b3dc;stroke:#c2dffb;stroke-width:1"
   d="m 5.553,49.744 0.709,0.294 0.598,4.133 -1.281,0.063 -5.079,0.239 0.267,-2.015 0.162,-0.672 0.104,-0.229 1.406,-1.307 1.478,-0.609 0.357,-0.126 0.45,-0.081 0.775,0.26 0.054,0.05"
   id="28157"
   inkscape:label="Wilkinson, MS"
   inkscape:connector-curvature="0" />
  <path
   style="fill:#72b3dc;stroke:#c2dffb;stroke-width:1"
   d="m 12.25,49.344 0.262,4.508 -0.211,0.007 -2.858,0.167 -2.583,0.145 -0.598,-4.133 1.211,-0.419 3.84,-0.217 0.937,-0.058"
   id="28005"
   inkscape:label="Amite, MS"
   inkscape:connector-curvature="0" />
  <path
   style="fill:#72b3dc;stroke:#c2dffb;stroke-width:1"
   d="m 12.25,49.344 3.156,-0.195 0.284,4.503 -0.969,0.059 -2.209,0.141 -0.262,-4.508"
   id="28113"
   inkscape:label="Pike, MS"
   inkscape:connector-curvature="0" />
  <path
   style="fill:#72b3dc;stroke:#c2dffb;stroke-width:1"
   d="m 15.59,49.137 2.244,0.045 0.082,1.315 0.19,0.744 0.428,0.528 0.806,0.509 0.807,0.13 0.212,0.934 -4.669,0.31 -0.284,-4.503 0.184,-0.012"
   id="28147"
   inkscape:label="Walthall, MS"
   inkscape:connector-curvature="0" />
  <path
   style="fill:#72b3dc;stroke:#c2dffb;stroke-width:1"
   d="m 21.986,47.648 0.374,5.553 -0.816,0.06 -1.185,0.081 -0.212,-0.934 -0.807,-0.13 -0.806,-0.509 -0.428,-0.528 -0.19,-0.744 -0.082,-1.315 0.848,-0.758 1.488,-0.09 -0.049,-0.567 1.865,-0.119"
   id="28091"
   inkscape:label="Marion, MS"
   inkscape:connector-curvature="0" />
  <path
   style="fill:#72b3dc;stroke:#c2dffb;stroke-width:1"
   d="m 24.207,47.495 0.087,1.127 1.131,-0.081 0.289,4.327 -3.354,0.333 -0.374,-5.553 0.739,-0.048 1.482,-0.105"
   id="28073"
   inkscape:label="Lamar, MS"
   inkscape:connector-curvature="0" />
  <path
   style="fill:#72b3dc;stroke:#c2dffb;stroke-width:1"
   d="m 27.558,47.257 0.292,3.975 0.193,1.6 0.091,1.167 -2.24,0.156 -0.18,-1.287 -0.289,-4.327 -1.131,0.081 -0.087,-1.127 0.577,-0.04 2.774,-0.198"
   id="28035"
   inkscape:label="Forrest, MS"
   inkscape:connector-curvature="0" />
  <path
   style="fill:#72b3dc;stroke:#c2dffb;stroke-width:1"
   d="m 34.493,40.767 0.261,2.528 0.429,3.362 -4.29,0.361 -1.118,0.084 -0.371,-5.038 0.357,-0.053 4.732,-1.244"
   id="28153"
   inkscape:label="Wayne, MS"
   inkscape:connector-curvature="0" />
  <path
   style="fill:#72b3dc;stroke:#c2dffb;stroke-width:1"
   d="m 30.893,47.018 4.29,-0.361 0.522,4.118 0.191,1.489 -4.499,0.352 -0.504,-5.598"
   id="28041"
   inkscape:label="Greene, MS"
   inkscape:connector-curvature="0" />
  <path
   style="fill:#72b3dc;stroke:#c2dffb;stroke-width:1"
   d="m 29.775,47.102 1.118,-0.084 0.504,5.598 -0.478,1.162 -2.785,0.221 -0.091,-1.167 -0.193,-1.6 -0.292,-3.975 2.217,-0.155"
   id="28111"
   inkscape:label="Perry, MS"
   inkscape:connector-curvature="0" />
  <path
   style="fill:#72b3dc;stroke:#c2dffb;stroke-width:1"
   d="m 30.919,53.778 0.175,2.253 0.06,0.749 -3.858,0.284 -0.051,0.387 -1.122,0.077 -0.229,-3.373 2.24,-0.156 2.785,-0.221"
   id="28131"
   inkscape:label="Stone, MS"
   inkscape:connector-curvature="0" />
  <path
   style="fill:#72b3dc;stroke:#c2dffb;stroke-width:1"
   d="m 25.714,52.868 0.18,1.287 0.229,3.373 -1.532,0.104 -0.681,0.428 0.085,1.312 -1.09,0.815 -0.487,0.032 -1.852,-2.551 0.123,-0.921 0.134,-0.68 0.167,-0.824 0.145,-0.603 0.026,-0.028 0.09,-0.013 0.069,-0.009 0.111,-0.248 0.136,-0.681 -0.023,-0.4 0.816,-0.06 3.354,-0.333"
   id="28109"
   inkscape:label="Pearl River, MS"
   inkscape:connector-curvature="0" />
  <path
   style="fill:#72b3dc;stroke:#c2dffb;stroke-width:1"
   d="m 22.418,60.219 0.487,-0.032 1.09,-0.815 -0.085,-1.312 0.681,-0.428 1.532,-0.104 0.257,3.534 -1.87,2.61 -0.515,0.031 -0.021,0.005 -0.027,-0.019 -0.04,-0.027 -0.028,-0.018 -0.082,-0.095 -0.242,-0.283 -0.108,-0.208 -0.353,-0.67 -0.009,-0.069 0.028,-0.108 0.103,-0.261 -0.017,-0.239 -0.69,-1.402 -0.072,-0.073 -0.019,-0.017"
   id="28045"
   inkscape:label="Hancock, MS"
   inkscape:connector-curvature="0" />
  <path
   style="fill:#72b3dc;stroke:#c2dffb;stroke-width:1"
   d="m 31.397,52.616 4.499,-0.352 0.414,3.363 -5.216,0.404 -0.175,-2.253 0.478,-1.162"
   id="28039"
   inkscape:label="George, MS"
   inkscape:connector-curvature="0" />
  
  
  
  
  
  
  
  
  
  
  
  
  
  
  
  
  
  
  
  
  
  
  
  
  
  
  
  
  
  
  
  
  
  
  
  
  
  
  
  
  
  
  
  
  
  
  
  
  
  
  
  
  
  
  
  
  
  
  
  
  
  
  
  
  
  
  
  
  
  
  
  
  
  
  
  
  
  
  
  
  
  
  
  
  
  
  
  
  
  
  
  
  
  
  
  
  
  
  
  
  
  
  
  
  
  
  
  
  
  
  
  
  
  
  
  
  
  
  
  
  
  
  
  
  
  
  
  
  
  
  
  
  
  
  
  
  
  
  
  
  
  
  
  
  
  
  
  
  
  
  
  
  
  
  
  
  
  
  
  
  
  
  
  
  
  
  
  
  
  
  
  
  
  
  
  
  
  
  
  
  
  
  
  
  
  
  
  
  
  
  
  
  
  
  
  
  
  
  
  
  
  
  
  
  
  
  
  
  
  
  
  
  
  
  
  
  
  
  
  
  
  
  
  
  
  
  
  
  
  
  
  
  
  
  
  
  
  
  
  
  
  
  
  
  
  
  
  
  
  
  
  
  
  
  
  
  
  
  
  
  
  
  
  
  
  
  
  
  
  
  
  
  
  
  
  
  
  
  
  
  
  
  
  
  
  
  
  
  
  
  
  
  
  
  
  
  
  
  
  
  
  
  
  
  
  
  
  
  
  
  
  
  
  
  
  
  
  
  
  
  
  
  
  
  
  
  
  
  
  
  
  
  
  
  
  
  
  
  
  
  
  
  
  
  
  
  
  
  
  
  
  
  
  
  
  
  
  
  
  
  
  
  
  
  
  
  
  
  
  
  
  
  
  
  
  
  
  
  
  
  
  
  
  
  
  
  
  
  
  
  
  
  
  
  
  
  
  
  
  
  
  
  
  
  
  
  
  
  
  
  
  
  
  
  
  
  
  
  
  
  
  
  
  
  
  
  
  
  
  
  
  
  
  
  
  
  
  
  
  
  
  
  
  
  
  
  
  
  
  
  
  
  
  
  
  
  
  
  
  
  
  
  
  
  
  
  
  
  
  
  
  
  
  
  
  
  
  
  
  
  
  
  
  
  
  
  
  
  
  
  
  
  
  
  
  
  
  
  
  
  
  
  
  
  
  
  
  
  
  
  
  
  
  
  
  
  
  
  
  
  
  
  
  
  
  
  
  
  
  
  
  
  
  
  
  
  
  
  
  
  
  
  
  
  
  
  
  
  
  
  
  
  
  
  
  
  
  
  
  
  
  
  
  
  
  
  
  
  
  
  
  
  
  
  
  
  
  
  
  
  
  
  
  
  
  
  
  
  
  
  
  
  
  
  
  
  
  
  
  
  
  
  
  
  
  
  
  
  
  
  
  
  
  
  
  
  
  
  
  
  
  
  
  
  
  
  
  
  
  
  
  
  
  
  
  
  
  
  
  
  
  
  
  
  
  
  
  
  
  
  
  
  
  
  
  
  
  
  
  
  
  
  
  
  
  
  
  
  
  
  
  
  
  
  
  
  
  
  
  
  
  
  
  
  
  
  
  
  
  
  
  
  
  
  
  
  
  
  
  
  
  
  
  
  
  
  
  
  
  
  
  
  
  
  
  
  
  
  
  
  
  
  
  
  
  
  
  
  
  
  
  
  
  
  
  
  
  
  
  
  
  
  
  
  
  
  
  
  
  
  
  
  
  
  
  
  
  
  
  
  
  
  
  
  
  
  
  
  
  
  
  
  
  
  
  
  
  
  
  
  
  
  
  
  
  
  
  
  
  
  
  
  
  
  
  
  
  
  
  
  
  
  
  
  
  
  
  
  
  
  
  
  
  
  
  
  
  
  
  
  
  
  
  
  
  
  
  
  
  
  
  
  
  
  
  
  
  
  
  
  
  
  
  
  
  
  
  
  
  
  
  
  
  
  
  
  
  
  
  
  
  
  
  
  
  
  
  
  
  
  
  
  
  
  
  
  
  
  
  
  
  
  
  
  
  
  
  
  
  
  
  
  
  
  
  
  
  
  
  
  
  
  
  
  
  
  
  
  
  
  
  
  
  
  
  
  
  
  
  
  
  
  
  
  
  
  
  
  
  
  
  
  
  
  
  
  
  
  
  
  
  
  
  
  
  
  
  
  
  
  
  
  
  
  
  
  
  
  
  
  
  
  
  
  
  
  
  
  
  
  
  
  
  
  
  
  
  
  
  
  
  
  
  
  
  
  
  
  
  
  
  
  
  
  
  
  
  
  
  
  
  
  
  
  
  
  
  
  
  
  
  
  
  
  
  
  
  
  
  
  
  
  
  
  
  
  
  
  
  
  
  
  
  
  
  
  
  
  
  
  
  
  
  
  
  
  
  
  
  
  
  
  
  
  
  
  
  
  
  
  
  
  
  
  
  
  
  
  
  
  
  
  
  
  
  
  
  
  
  
  
  
  
  
  
  
  
  
  
  
  
  
  
  
  
  
  
  
  
  
  
  
  
  
  
  
  
  
  
  
  
  
  
  
  
  
  
  
  
  
  
  
  
  
  
  
  
  
  
  
  
  
  
  
  
  
  
  
  
  
  
  
  
  
  
  
  
  
  
  
  
  
  
  
  
  
  
  
  
  
  
  
  
  
  
  
  
  
  
  
  
  
  
  
  
  
  
  
  
  
  
  
  
  
  
  
  
  
  
  
  
  
  
  
  
  
  
  
  
  
  
  
  
  
  
  
  
  
  
  
  
  
  
  
  
  
  
  
  
  
  
  
  
  
  
  
  
  
  
  
  
  
  
  
  
  
  
  
  
  
  
  
  
  
  
  
  
  
  
  
  
  
  
  
  
  
  
  
  
  
  
  
  
  
  
  
  
  
  
  
  
  
  
  
  
  
  
  
  
  
  
  
  
  
  
  
  
  
  
  
  
  
  
  
  
  
  
  
  
  
  
  
  
  
  
  
  
  
  
  
  
  
  
  
  
  
  
  
  
  
  
  
  
  
  
  
  
  
  
  
  
  
  
  
  
  
  
  
  
  
  
  
  
  
  
  
  
  
  
  
  
  
  
  
  
  
  
  
  
  
  
  
  
  
  
  
  
  
  
  
  
  
  
  
  
  
  
  
  
  
  
  
  
  
  
  
  
  
  
  
  
  
  
  
  
  
  
  
  
  
  
  
  
  
  
  
  
  
  
  
  
  
  
  
  
  
  
  
  
  
  
  
  
  
  
  
  
  
  
  
  
  
  
  
  
  
  
  
  
  
  
  
  
  
  
  
  
  
  
  
  
  
  
  
  
  
  
  
  
  
  
  
  
  
  
  
  
  
  
  
  
  
  
  
  
  
  
  
  
  
  
  
  
  
  
  
  
  
  
  
  
  
  
  
  
  
  
  
  
  
  
  
  
  
  
  
  
  
  
  
  
  
  
  
  
  
  
  
  
  
  
  
  
  
  
  
  
  
  
  
  
  
  
  
  
  
  
  
  
  
  
  
  
  
  
  
  
  
</svg>