<?xml version="1.0" encoding="UTF-8" standalone="no"?>
<!--?xml version="1.0" encoding="UTF-8" standalone="no"?-->

<svg
   xmlns:dc="http://purl.org/dc/elements/1.1/"
   xmlns:cc="http://creativecommons.org/ns#"
   xmlns:rdf="http://www.w3.org/1999/02/22-rdf-syntax-ns#"
   xmlns:svg="http://www.w3.org/2000/svg"
   xmlns="http://www.w3.org/2000/svg"
   xmlns:sodipodi="http://sodipodi.sourceforge.net/DTD/sodipodi-0.dtd"
   xmlns:inkscape="http://www.inkscape.org/namespaces/inkscape"
   width="98.852219"
   height="44.198765"
   viewBox="0 0 91.376 40.373872"
   preserveAspectRatio="xMinYMin meet"
   xml:space="preserve"
   id="svg1870"
   version="1.1"
   inkscape:version="0.48.2 r9819"
   sodipodi:docname="NC.svg"><metadata
   id="metadata1976"><rdf:RDF><cc:Work
       rdf:about=""><dc:format>image/svg+xml</dc:format><dc:type
         rdf:resource="http://purl.org/dc/dcmitype/StillImage" /></cc:Work></rdf:RDF></metadata><defs
   id="defs1974" /><sodipodi:namedview
   pagecolor="#ffffff"
   bordercolor="#666666"
   borderopacity="1"
   objecttolerance="10"
   gridtolerance="10"
   guidetolerance="10"
   inkscape:pageopacity="0"
   inkscape:pageshadow="2"
   inkscape:window-width="640"
   inkscape:window-height="480"
   id="namedview1972"
   showgrid="false"
   inkscape:zoom="0.56730769"
   inkscape:cx="-151.75094"
   inkscape:cy="21.833355"
   inkscape:window-x="0"
   inkscape:window-y="0"
   inkscape:window-maximized="0"
   inkscape:current-layer="svg1870" />
  
  
  
  
  
  
  
  
  
  
  
  
  
  
  
  
  
  
  
  
  
  
  
  
  
  
  
  
  
  
  
  
  
  
  
  
  
  
  
  
  
  
  
  
  
  
  
  
  
  
  
  
  
  
  
  
  
  
  
  
  
  
  
  
  
  
  
  
  
  
  
  
  
  
  
  
  
  
  
  
  
  
  
  
  
  
  
  
  
  
  
  
  
  
  
  
  
  
  
  
  
  
  
  
  
  
  
  
  
  
  
  
  
  
  
  
  
  
  
  
  
  
  
  
  
  
  
  
  
  
  
  
  
  
  
  
  
  
  
  
  
  
  
  
  
  
  
  
  
  
  
  
  
  
  
  
  
  
  
  
  
  
  
  
  
  
  
  
  
  
  
  
  
  
  
  
  
  
  
  
  
  
  
  
  
  
  
  
  
  
  
  
  
  
  
  
  
  
  
  
  
  
  
  
  
  
  
  
  
  
  
  
  
  
  
  
  
  
  
  
  
  
  
  
  
  
  
  
  
  
  
  
  
  
  
  
  
  
  
  
  
  
  
  
  
  
  
  
  
  
  
  
  
  
  
  
  
  
  
  
  
  
  
  
  
  
  
  
  
  
  
  
  
  
  
  
  
  
  
  
  
  
  
  
  
  
  
  
  
  
  
  
  
  
  
  
  
  
  
  
  
  
  
  
  
  
  
  
  
  
  
  
  
  
  
  
  
  
  
  
  
  
  
  
  
  
  
  
  
  
  
  
  
  
  
  
  
  
  
  
  
  
  
  
  
  
  
  
  
  
  
  
  
  
  
  
  
  
  
  
  
  
  
  
  
  
  
  
  
  
  
  
  
  
  
  
  
  
  
  
  
  
  
  
  
  
  
  
  
  
  
  
  
  
  
  
  
  
  
  
  
  
  
  
  
  
  
  
  
  
  
  
  
  
  
  
  
  
  
  
  
  
  
  
  
  
  
  
  
  
  
  
  
  
  
  
  
  
  
  
  
  
  
  
  
  
  
  
  
  
  
  
  
  
  
  
  
  
  
  
  
  
  
  
  
  
  
  
  
  
  
  
  
  
  
  
  
  
  
  
  
  
  
  
  
  
  
  
  
  
  
  
  
  
  
  
  
  
  
  
  
  
  
  
  
  
  
  
  
  
  
  
  
  
  
  
  
  
  
  
  
  
  
  
  
  
  
  
  
  
  
  
  
  
  
  
  
  
  
  
  
  
  
  
  
  
  
  
  
  
  
  
  
  
  
  
  
  
  
  
  
  
  
  
  
  
  
  
  
  
  
  
  
  
  
  
  
  
  
  
  
  
  
  
  
  
  
  
  
  
  
  
  
  
  
  
  
  
  
  
  
  
  
  
  
  
  
  
  
  
  
  
  
  
  
  
  
  
  
  
  
  
  
  
  
  
  
  
  
  
  
  
  
  
  
  
  
  
  
  
  
  
  
  
  
  
  
  
  
  
  
  
  
  
  
  
  
  
  
  
  
  
  
  
  
  
  
  
  
  
  
  
  
  
  
  
  
  
  
  
  
  
  
  
  
  
  
  
  
  
  
  
  
  
  
  
  
  
  
  
  
  
  
  
  
  
  
  
  
  
  
  
  
  
  
  
  
  
  
  
  
  
  
  
  
  
  
  
  
  
  
  
  
  
  
  
  
  
  
  
  
  
  
  
  
  
  
  
  
  
  
  
  
  
  
  
  
  
  
  
  
  
  
  
  
  
  
  
  
  
  
  
  
  
  
  
  
  
  
  
  
  
  
  
  
  
  
  
  
  
  
  
  
  
  
  
  
  
  
  
  
  
  
  
  
  
  
  
  
  
  
  
  
  
  
  
  
  
  
  
  
  
  
  
  
  
  
  
  
  
  
  
  
  
  
  
  
  
  
  
  
  
  
  
  
  
  
  
  
  
  
  
  
  
  
  
  
  
  
  
  
  
  
  
  
  
  
  
  
  
  
  
  
  
  
  
  
  
  
  
  
  
  
  
  
  
  
  
  
  
  
  
  
  
  
  
  
  
  
  
  
  
  
  
  
  
  
  
  
  
  
  
  
  
  
  
  
  
  
  
  
  
  
  
  
  
  
  
  
  
  
  
  
  
  
  
  
  
  
  
  
  
  
  
  
  
  
  
  
  
  
  
  
  
  
  
  
  
  
  
  
  
  
  
  
  
  
  
  
  
  
  
  
  
  
  
  
  
  
  
  
  
  
  
  
  
  
  
  
  
  
  
  
  
  
  
  
  
  
  
  
  
  
  
  
  
  
  
  
  
  
  
  
  
  
  
  
  
  
  
  
  
  
  
  
  
  
  
  
  
  
  
  
  
  
  
  
  
  
  
  
  
  
  
  
  
  
  
  
  
  
  
  
  
  
  
  
  
  
  
  
  
  
  
  
  
  
  
  
  
  
  
  
  
  
  
  
  
  
  
  
  
  
  
  
  
  
  
  
  
  
  
  
  
  
  
  
  
  
  
  
  
  
  
  
  
  
  
  
  
  
  
  
  
  
  
  
  
  
  
  
  
  
  
  
  
  
  
  
  
  
  
  
  
  
  
  
  
  
  
  
  
  
  
  
  
  
  
  
  
  
  
  
  
  
  
  
  
  
  
  
  
  
  
  
  
  
  
  
  
  
  
  
  
  
  
  
  
  
  
  
  
  
  
  
  
  
  
  
  
  
  
  
  
  
  
  
  
  
  
  
  
  
  
  
  
  
  
  
  
  
  
  
  
  
  
  
  
  
  
  
  
  
  
  
  
  
  
  
  
  
  
  
  
  
  
  
  
  
  
  
  
  
  
  
  
  
  
  
  
  
  
  
  
  
  
  
  
  
  
  
  
  
  
  
  
  
  
  
  
  
  
  
  
  
  
  
  
  
  
  
  
  
  
  
  
  
  
  
  
  
  
  
  
  
  
  
  
  
  
  
  
  
  
  
  
  
  
  
  
  
  
  
  
  
  
  
  
  
  
  
  
  
  
  
  
  
  
  
  
  
  
  
  
  
  
  
  
  
  
  
  
  
  
  
  
  
  
  
  
  
  
  
  
  
  
  
  
  
  
  
  
  
  
  
  
  
  
  
  
  
  
  
  
  
  
  
  
  
  
  
  
  
  
  
  
  
  
  
  
  
  
  
  
  
  
  
  
  
  
  
  
  
  
  
  
  
  
  
  
  
  
  
  
  
  
  
  
  
  
  
  
  
  
  
  
  
  
  
  
  
  
  
  
  
  
  
  
  
  
  
  
  
  
  
  
  
  
  
  
  
  
  
  
  
  
  
  
  
  
  
  
  
  
  
  
  
  
  
  
  
  
  
  
  
  
  
  
  
  
  
  
  
  
  
  
  
  
  
  
  
  
  
  
  
  
  
  
  
  
  
  
  
  
  
  
  
  
  
  
  
  
  
  
  
  
  
  
  
  
  
  
  
  
  
  
  
  
  
  
  
  
  
  
  
  
  
  
  
  
  
  
  
  
  
  
  
  
  
  
  
  
  
  
  
  
  
  
  
  
  
  
  
  
  
  
  
  
  
  
  
  
  
  
  
  
  
  
  
  
  
  
  
  
  
  
  
  
  
  
  
  
  
  
  
  
  
  
  
  
  
  
  
  
  
  
  
  
  
  
  
  
  
  
  
  
  
  
  
  
  
  
  
  
  
  
  
  
  
  
  
  
  
  
  
  
  
  
  
  
  
  
  
  
  
  
  
  
  
  
  
  <path
   style="fill:#72b3dc;stroke:#c2dffb;stroke-width:1"
   d="M 6.34,32.194 9.261,33.933 8.579,34.042 4.556,34.628 3.838,34.722 6.34,32.194"
   id="37043"
   inkscape:label="Clay, NC"
   inkscape:connector-curvature="0" />
  <path
   style="fill:#72b3dc;stroke:#c2dffb;stroke-width:1"
   d="m 10.18,29.395 2.97,3.926 -3.889,0.612 -2.921,-1.739 0.216,-1.239 0.18,-0.429 0.073,-0.05 2.23,-0.689 1.141,-0.392"
   id="37113"
   inkscape:label="Macon, NC"
   inkscape:connector-curvature="0" />
  <path
   style="fill:#72b3dc;stroke:#c2dffb;stroke-width:1"
   d="m 16.171,27.371 1.351,1.203 0.288,0.33 0.117,0.369 0.068,0.473 0.249,0.753 0.076,0.127 0.135,0.071 -1.848,1.262 -1.356,0.347 -1.1,0.531 0.437,-3.528 1.583,-1.938"
   id="37175"
   inkscape:label="Transylvania, NC"
   inkscape:connector-curvature="0" />
  <path
   style="fill:#72b3dc;stroke:#c2dffb;stroke-width:1"
   d="m 11.451,26.821 3.137,2.488 -0.437,3.528 -1.001,0.484 -2.97,-3.926 1.271,-2.574"
   id="37099"
   inkscape:label="Jackson, NC"
   inkscape:connector-curvature="0" />
  <path
   style="fill:#72b3dc;stroke:#c2dffb;stroke-width:1"
   d="m 13.25,22.91 1.027,1.378 1.894,3.083 -1.583,1.938 -3.137,-2.488 -1.024,-2.239 -0.045,-0.245 2.868,-1.427"
   id="37087"
   inkscape:label="Haywood, NC"
   inkscape:connector-curvature="0" />
  <path
   style="fill:#72b3dc;stroke:#c2dffb;stroke-width:1"
   d="m 10.427,24.582 1.024,2.239 -1.271,2.574 -1.141,0.392 -2.23,0.689 -0.073,0.05 -0.189,-0.213 -0.004,-0.125 0.072,-0.23 0.055,-0.068 0.185,-0.112 0.242,-0.1 0.145,-0.081 0.216,-0.5 0.049,-0.32 -0.009,-0.14 -0.045,-0.239 -0.59,-0.04 -3.254,0.197 2.816,-1.784 0.05,0.005 0.189,0.004 1.473,-0.152 0.127,-0.082 1.789,-1.416 0.374,-0.548"
   id="37173"
   inkscape:label="Swain, NC"
   inkscape:connector-curvature="0" />
  <path
   style="fill:#72b3dc;stroke:#c2dffb;stroke-width:1"
   d="m 3.609,28.555 3.254,-0.197 0.59,0.04 0.045,0.239 0.009,0.14 -0.049,0.32 -0.216,0.5 -0.145,0.081 -0.242,0.1 -0.185,0.112 -0.055,0.068 -0.072,0.23 0.004,0.125 0.189,0.213 -0.18,0.429 -1.897,0.414 -0.712,0.333 -0.101,0 -0.378,-0.157 -0.368,-0.708 0.423,-2.312 0.086,0.03"
   id="37075"
   inkscape:label="Graham, NC"
   inkscape:connector-curvature="0" />
  <path
   style="fill:#72b3dc;stroke:#c2dffb;stroke-width:1"
   d="M 6.556,30.955 6.34,32.194 3.838,34.722 2.546,34.884 0.539,35.119 0.5,32.27 1.35,31.522 2.461,31.495 2.856,31.17 3.1,30.837 l 0.368,0.708 0.378,0.157 0.101,0 0.712,-0.333 1.897,-0.414"
   id="37039"
   inkscape:label="Cherokee, NC"
   inkscape:connector-curvature="0" />
  <path
   style="fill:#72b3dc;stroke:#c2dffb;stroke-width:1"
   d="m 21.737,17.608 1.388,2.345 -1.388,1.351 -0.294,-1.108 -0.108,-0.204 -0.578,-0.99 -0.048,-0.059 -1.708,-0.653 -0.64,0.243 1.839,-1.37 1.537,0.445"
   id="37121"
   inkscape:label="Mitchell, NC"
   inkscape:connector-curvature="0" />
  <path
   style="fill:#72b3dc;stroke:#c2dffb;stroke-width:1"
   d="m 18.361,18.533 0.64,-0.243 1.708,0.653 0.048,0.059 0.578,0.99 0.108,0.204 0.294,1.108 -1.235,1.753 -1.587,-1.262 -1.288,-1.919 0.734,-1.343"
   id="37199"
   inkscape:label="Yancey, NC"
   inkscape:connector-curvature="0" />
  <path
   style="fill:#72b3dc;stroke:#c2dffb;stroke-width:1"
   d="m 16.517,19.231 1.11,0.645 1.288,1.919 -0.969,0.352 -0.568,0.357 -0.333,0.238 -0.649,0.472 -1.316,0.858 -0.803,0.216 -1.027,-1.378 0.399,-2.033 0.466,-0.118 0.91,-0.852 0.648,-0.64 0.181,-0.131 0.262,-0.189 0.049,-0.008 0.155,0.098 0,0.005 0.197,0.189"
   id="37115"
   inkscape:label="Madison, NC"
   inkscape:connector-curvature="0" />
  <path
   style="fill:#72b3dc;stroke:#c2dffb;stroke-width:1"
   d="m 20.502,23.057 1.423,2.11 -0.883,0.92 -0.752,-0.316 -0.681,0.478 -0.861,0.464 -0.78,0.289 -0.478,-0.041 -0.324,-0.073 -0.109,-0.057 -0.202,-0.036 -0.319,0.125 -0.1,0.077 -0.265,0.374 -1.894,-3.083 0.803,-0.216 1.316,-0.858 0.649,-0.472 0.333,-0.238 0.568,-0.357 0.969,-0.352 1.587,1.262"
   id="37021"
   inkscape:label="Buncombe, NC"
   inkscape:connector-curvature="0" />
  <path
   style="fill:#72b3dc;stroke:#c2dffb;stroke-width:1"
   d="m 21.042,26.087 0.185,0.951 -0.625,2.532 -2.147,1.127 -0.135,-0.071 -0.076,-0.127 -0.249,-0.753 -0.068,-0.473 -0.117,-0.369 -0.288,-0.33 -1.351,-1.203 0.265,-0.374 0.1,-0.077 0.319,-0.125 0.202,0.036 0.109,0.057 0.324,0.073 0.478,0.041 0.78,-0.289 0.861,-0.464 0.681,-0.478 0.752,0.316"
   id="37089"
   inkscape:label="Henderson, NC"
   inkscape:connector-curvature="0" />
  <path
   style="fill:#72b3dc;stroke:#c2dffb;stroke-width:1"
   d="m 24.638,29.237 -2.578,0.266 -1.458,0.067 0.625,-2.532 0.617,-0.217 0.401,-0.144 0.095,0.013 0.325,0.141 0.153,0.101 1.648,1.39 0.105,0.171 0.067,0.744"
   id="37149"
   inkscape:label="Polk, NC"
   inkscape:connector-curvature="0" />
  <path
   style="fill:#72b3dc;stroke:#c2dffb;stroke-width:1"
   d="m 26.744,23.765 0.324,2.875 -0.324,1.822 -0.009,0.554 -1.109,0.113 -0.988,0.108 -0.067,-0.744 -0.105,-0.171 -1.648,-1.39 -0.153,-0.101 -0.325,-0.141 -0.095,-0.013 -0.401,0.144 -0.617,0.217 -0.185,-0.951 0.883,-0.92 3.466,-1.13 1.353,-0.272"
   id="37161"
   inkscape:label="Rutherford, NC"
   inkscape:connector-curvature="0" />
  <path
   style="fill:#72b3dc;stroke:#c2dffb;stroke-width:1"
   d="m 23.125,19.953 0.301,-0.672 0.073,0.041 0.077,0.098 0.229,0.37 0.058,0.122 0.087,0.288 -0.069,0.487 0.766,1.559 0.744,1.791 -3.466,1.13 -1.423,-2.11 1.235,-1.753 1.388,-1.351"
   id="37111"
   inkscape:label="McDowell, NC"
   inkscape:connector-curvature="0" />
  <path
   style="fill:#72b3dc;stroke:#c2dffb;stroke-width:1"
   d="m 22.949,15.341 0.108,-0.311 1.429,2.092 0.333,1.915 -1.393,0.244 -0.301,0.672 -1.388,-2.345 1.212,-2.267"
   id="37011"
   inkscape:label="Avery, NC"
   inkscape:connector-curvature="0" />
  <path
   style="fill:#72b3dc;stroke:#c2dffb;stroke-width:1"
   d="m 24.878,13.439 0.915,0.361 0.599,0.528 0.397,0.289 0.86,0.338 -0.45,1.679 -2.713,0.488 -1.429,-2.092 0.076,-0.207 0.474,-0.531 0.514,-0.352 0.013,-0.01 0.054,-0.031 0.064,0.148 0.27,0.086 0.161,-0.008 0.019,0 0.215,-0.072 -0.039,-0.614"
   id="37189"
   inkscape:label="Watauga, NC"
   inkscape:connector-curvature="0" />
  <path
   style="fill:#72b3dc;stroke:#c2dffb;stroke-width:1"
   d="m 32.622,16.73 -0.317,3.547 -2.307,0.143 -0.338,-2.578 0.559,-0.463 0.302,-0.118 0.464,-0.148 0.167,0.04 0.711,-0.17 0.573,-0.163 0.186,-0.09"
   id="37003"
   inkscape:label="Alexander, NC"
   inkscape:connector-curvature="0" />
  <path
   style="fill:#72b3dc;stroke:#c2dffb;stroke-width:1"
   d="m 24.927,10.795 3.322,-0.334 0.041,0.256 0.675,0.952 0.366,0.311 0.099,0.162 0.23,0.481 0.058,0.388 -2.069,1.944 -0.86,-0.338 -0.397,-0.289 -0.599,-0.528 -0.915,-0.361 0.049,-2.644"
   id="37009"
   inkscape:label="Ashe, NC"
   inkscape:connector-curvature="0" />
  <path
   style="fill:#72b3dc;stroke:#c2dffb;stroke-width:1"
   d="m 32.864,9.902 -0.338,2.163 -0.09,0.369 -0.474,0.076 -0.198,-0.219 -0.04,-0.221 -0.451,-0.226 -0.08,-0.013 -0.654,0.194 -0.821,0.986 L 29.66,12.623 29.43,12.142 29.331,11.98 28.965,11.669 28.29,10.717 28.249,10.461 32.864,9.902"
   id="37005"
   inkscape:label="Alleghany, NC"
   inkscape:connector-curvature="0" />
  <path
   style="fill:#72b3dc;stroke:#c2dffb;stroke-width:1"
   d="m 29.718,13.011 0.821,-0.986 0.654,-0.194 0.08,0.013 0.451,0.226 0.04,0.221 0.198,0.219 0.474,-0.076 0.09,-0.369 1.299,1.965 0.279,2.335 -1.482,0.365 -0.186,0.09 -0.573,0.163 -0.711,0.17 -0.167,-0.04 -0.464,0.148 -0.302,0.118 -0.559,0.463 -2.461,-1.208 0.45,-1.679 2.069,-1.944"
   id="37193"
   inkscape:label="Wilkes, NC"
   inkscape:connector-curvature="0" />
  <path
   style="fill:#72b3dc;stroke:#c2dffb;stroke-width:1"
   d="m 24.486,17.122 2.713,-0.488 2.461,1.208 0.338,2.578 -0.248,0.416 -0.121,0.158 -0.222,0.017 -1.65,0.005 -2.001,-1.212 -0.851,-0.65 -0.086,-0.117 -0.333,-1.915"
   id="37027"
   inkscape:label="Caldwell, NC"
   inkscape:connector-curvature="0" />
  <path
   style="fill:#72b3dc;stroke:#c2dffb;stroke-width:1"
   d="m 24.819,19.037 0.086,0.117 0.851,0.65 2.001,1.212 1.65,-0.005 0.222,-0.017 0.121,-0.158 -1.361,2.826 -0.023,0.062 -1.622,0.041 -1.353,0.272 -0.744,-1.791 -0.766,-1.559 0.069,-0.487 -0.087,-0.288 -0.058,-0.122 -0.229,-0.37 -0.077,-0.098 -0.073,-0.041 1.393,-0.244"
   id="37023"
   inkscape:label="Burke, NC"
   inkscape:connector-curvature="0" />
  <path
   style="fill:#72b3dc;stroke:#c2dffb;stroke-width:1"
   d="m 28.366,23.724 1.122,1.727 1.839,3.083 -0.406,0.04 -4.186,0.442 0.009,-0.554 0.324,-1.822 -0.324,-2.875 1.622,-0.041"
   id="37045"
   inkscape:label="Cleveland, NC"
   inkscape:connector-curvature="0" />
  <path
   style="fill:#72b3dc;stroke:#c2dffb;stroke-width:1"
   d="m 29.488,25.451 5.206,-0.572 -0.393,3.384 -2.974,0.271 -1.839,-3.083"
   id="37071"
   inkscape:label="Gaston, NC"
   inkscape:connector-curvature="0" />
  <path
   style="fill:#72b3dc;stroke:#c2dffb;stroke-width:1"
   d="m 34.348,23.004 0.256,0.748 0.09,1.127 -5.206,0.572 -1.122,-1.727 0.023,-0.062 5.959,-0.658"
   id="37109"
   inkscape:label="Lincoln, NC"
   inkscape:connector-curvature="0" />
  <path
   style="fill:#72b3dc;stroke:#c2dffb;stroke-width:1"
   d="m 29.998,20.42 2.307,-0.143 1.343,0.779 0.379,0.379 0.496,0.645 -0.175,0.924 -5.959,0.658 1.361,-2.826 0.248,-0.416"
   id="37035"
   inkscape:label="Catawba, NC"
   inkscape:connector-curvature="0" />
  <path
   style="fill:#72b3dc;stroke:#c2dffb;stroke-width:1"
   d="m 34.104,16.365 1.946,-0.257 0.258,2.569 -0.199,1.667 -0.085,0.717 0.595,1.623 0.067,0.243 0.041,0.23 -0.487,0.077 -1.636,0.518 -0.256,-0.748 0.175,-0.924 -0.496,-0.645 -0.379,-0.379 -1.343,-0.779 0.317,-3.547 1.482,-0.365"
   id="37097"
   inkscape:label="Iredell, NC"
   inkscape:connector-curvature="0" />
  <path
   style="fill:#72b3dc;stroke:#c2dffb;stroke-width:1"
   d="m 34.604,23.752 1.636,-0.518 -0.009,0.094 0.014,0.086 0.401,1.144 1.312,1.551 1.32,0.559 -2.574,3.141 -0.838,-0.856 -1.565,-0.69 0.393,-3.384 -0.09,-1.127"
   id="37119"
   inkscape:label="Mecklenburg, NC"
   inkscape:connector-curvature="0" />
  <path
   style="fill:#72b3dc;stroke:#c2dffb;stroke-width:1"
   d="m 36.308,18.677 2.785,0.992 1.348,0.089 1.573,1.565 0.423,0.929 -1.158,0.21 -4.552,0.695 -0.041,-0.23 -0.067,-0.243 -0.595,-1.623 0.085,-0.717 0.199,-1.667"
   id="37159"
   inkscape:label="Rowan, NC"
   inkscape:connector-curvature="0" />
  <path
   style="fill:#72b3dc;stroke:#c2dffb;stroke-width:1"
   d="m 36.05,16.108 2.017,-0.267 1.188,0.767 0.189,0.104 0.06,0.09 0.121,0.338 0.052,0.356 -0.092,0.761 -0.388,0.262 -0.104,1.15 -2.785,-0.992 -0.258,-2.569"
   id="37059"
   inkscape:label="Davie, NC"
   inkscape:connector-curvature="0" />
  <path
   style="fill:#72b3dc;stroke:#c2dffb;stroke-width:1"
   d="m 38.106,13.268 -0.039,2.573 -2.017,0.267 -1.946,0.257 -0.279,-2.335 0.883,-0.55 1.509,-0.514 0.61,-0.009 0.95,0.162 0.217,0.068 0.112,0.081"
   id="37197"
   inkscape:label="Yadkin, NC"
   inkscape:connector-curvature="0" />
  <path
   style="fill:#72b3dc;stroke:#c2dffb;stroke-width:1"
   d="m 35.813,9.473 1.762,-0.189 0.492,3.722 0.039,0.262 -0.112,-0.081 -0.217,-0.068 -0.95,-0.162 -0.61,0.009 -1.509,0.514 -0.883,0.55 -1.299,-1.965 0.338,-2.163 0.654,-0.068 2.295,-0.361"
   id="37171"
   inkscape:label="Surry, NC"
   inkscape:connector-curvature="0" />
  <path
   style="fill:#72b3dc;stroke:#c2dffb;stroke-width:1"
   d="m 41.779,8.685 0.537,3.668 -4.249,0.653 -0.492,-3.722 3.938,-0.554 0.266,-0.045"
   id="37169"
   inkscape:label="Stokes, NC"
   inkscape:connector-curvature="0" />
  <path
   style="fill:#72b3dc;stroke:#c2dffb;stroke-width:1"
   d="m 38.067,13.006 4.249,-0.653 0.459,3.174 -3.52,1.081 -1.188,-0.767 0.039,-2.573 -0.039,-0.262"
   id="37067"
   inkscape:label="Forsyth, NC"
   inkscape:connector-curvature="0" />
  <path
   style="fill:#72b3dc;stroke:#c2dffb;stroke-width:1"
   d="m 39.255,16.608 3.52,-1.081 0.153,1.158 0.7,5.345 -1.191,0.222 -0.423,-0.929 -1.573,-1.565 -1.348,-0.089 0.104,-1.15 0.388,-0.262 0.092,-0.761 -0.052,-0.356 -0.121,-0.338 -0.06,-0.09 -0.189,-0.104"
   id="37057"
   inkscape:label="Davidson, NC"
   inkscape:connector-curvature="0" />
  <path
   style="fill:#72b3dc;stroke:#c2dffb;stroke-width:1"
   d="m 41.279,22.462 1.158,-0.21 0.798,0.405 0.063,0.04 0.483,0.766 0.193,0.402 0.5,2.33 0.015,0.076 -0.019,0.117 -0.149,0.302 -2.198,-0.329 -2.332,0.527 1.488,-4.426"
   id="37167"
   inkscape:label="Stanly, NC"
   inkscape:connector-curvature="0" />
  <path
   style="fill:#72b3dc;stroke:#c2dffb;stroke-width:1"
   d="m 41.279,22.462 -1.488,4.426 -0.513,-0.22 -1.32,-0.559 -1.312,-1.551 -0.401,-1.144 -0.014,-0.086 0.009,-0.094 0.487,-0.077 4.552,-0.695"
   id="37025"
   inkscape:label="Cabarrus, NC"
   inkscape:connector-curvature="0" />
  <path
   style="fill:#72b3dc;stroke:#c2dffb;stroke-width:1"
   d="m 42.123,26.361 0.368,4.966 -2.509,0.372 -2.25,0.332 -0.212,-0.04 -0.005,-0.122 -0.072,-1.316 -0.739,-0.744 2.574,-3.141 0.513,0.22 2.332,-0.527"
   id="37179"
   inkscape:label="Union, NC"
   inkscape:connector-curvature="0" />
  <path
   style="fill:#72b3dc;stroke:#c2dffb;stroke-width:1"
   d="m 44.321,26.69 0.027,0.113 0.122,0.271 0.492,0.193 0.274,0.028 0.055,-0.009 0.063,-0.055 0.026,-0.036 0.032,-0.131 0.208,-0.221 0.134,-0.081 0.167,0 0.19,0.235 0.298,0.482 0.778,1.861 0,0.068 -0.102,0.244 -0.501,1.082 -4.093,0.593 -0.368,-4.966 2.198,0.329"
   id="37007"
   inkscape:label="Anson, NC"
   inkscape:connector-curvature="0" />
  <path
   style="fill:#72b3dc;stroke:#c2dffb;stroke-width:1"
   d="m 44.948,8.152 2.073,-0.347 0.438,3.759 0.012,0.108 -5.155,0.681 -0.537,-3.668 3.169,-0.533"
   id="37157"
   inkscape:label="Rockingham, NC"
   inkscape:connector-curvature="0" />
  <path
   style="fill:#72b3dc;stroke:#c2dffb;stroke-width:1"
   d="m 42.316,12.353 5.155,-0.681 0.668,4.391 -5.211,0.622 -0.153,-1.158 -0.459,-3.174"
   id="37081"
   inkscape:label="Guilford, NC"
   inkscape:connector-curvature="0" />
  <path
   style="fill:#72b3dc;stroke:#c2dffb;stroke-width:1"
   d="m 48.139,16.063 0.121,0.721 0.595,4.222 -2.185,0.429 -3.042,0.595 -0.7,-5.345 5.211,-0.622"
   id="37151"
   inkscape:label="Randolph, NC"
   inkscape:connector-curvature="0" />
  <path
   style="fill:#72b3dc;stroke:#c2dffb;stroke-width:1"
   d="m 46.67,21.435 1.086,2.759 0.031,0.162 0.153,0.247 0.591,0.691 0.244,0.198 0.266,0.117 -1.051,0.059 -1.447,0.112 -0.549,0.37 -1.077,0.473 -0.231,0.049 -0.365,0.018 0.149,-0.302 0.019,-0.117 -0.015,-0.076 -0.5,-2.33 -0.193,-0.402 -0.483,-0.766 -0.063,-0.04 -0.798,-0.405 1.191,-0.222 3.042,-0.595"
   id="37123"
   inkscape:label="Montgomery, NC"
   inkscape:connector-curvature="0" />
  <path
   style="fill:#72b3dc;stroke:#c2dffb;stroke-width:1"
   d="m 44.321,26.69 0.365,-0.018 0.231,-0.049 1.077,-0.473 0.549,-0.37 1.447,-0.112 1.051,-0.059 1.875,1.262 -0.51,0.315 -0.379,0.343 -0.172,0.184 -0.054,0.51 0.041,0.157 0.095,0.149 -0.148,0.749 -0.163,0.347 -0.549,0.703 -2.493,0.406 0.501,-1.082 0.102,-0.244 0,-0.068 -0.778,-1.861 -0.298,-0.482 -0.19,-0.235 -0.167,0 -0.134,0.081 -0.208,0.221 -0.032,0.131 -0.026,0.036 -0.063,0.055 -0.055,0.009 -0.274,-0.028 -0.492,-0.193 -0.122,-0.271 -0.027,-0.113"
   id="37153"
   inkscape:label="Richmond, NC"
   inkscape:connector-curvature="0" />
  <path
   style="fill:#72b3dc;stroke:#c2dffb;stroke-width:1"
   d="m 52.523,29.282 -0.71,2.867 -2.736,-1.821 0.549,-0.703 0.163,-0.347 0.148,-0.749 -0.095,-0.149 -0.041,-0.157 0.054,-0.51 0.172,-0.184 0.379,-0.343 0.51,-0.315 1.607,2.411"
   id="37165"
   inkscape:label="Scotland, NC"
   inkscape:connector-curvature="0" />
  <path
   style="fill:#72b3dc;stroke:#c2dffb;stroke-width:1"
   d="M 50.793,7.125 51.32,10.983 50.266,11.15 47.459,11.564 47.021,7.805 47.431,7.729 48.72,7.5 49.978,7.269 50.793,7.125"
   id="37033"
   inkscape:label="Caswell, NC"
   inkscape:connector-curvature="0" />
  <path
   style="fill:#72b3dc;stroke:#c2dffb;stroke-width:1"
   d="m 47.459,11.564 2.807,-0.414 0.915,4.679 -2.921,0.955 -0.121,-0.721 -0.668,-4.391 -0.012,-0.108"
   id="37001"
   inkscape:label="Alamance, NC"
   inkscape:connector-curvature="0" />
  <path
   style="fill:#72b3dc;stroke:#c2dffb;stroke-width:1"
   d="m 50.964,20.601 2.195,2.389 1.159,1.306 0.027,0.236 -1.627,-0.203 -0.352,0.306 -0.495,0.59 -0.645,1.082 -0.31,0.564 -1.875,-1.262 -0.266,-0.117 -0.244,-0.198 -0.591,-0.691 -0.153,-0.247 -0.031,-0.162 -1.086,-2.759 2.185,-0.429 2.109,-0.405"
   id="37125"
   inkscape:label="Moore, NC"
   inkscape:connector-curvature="0" />
  <path
   style="fill:#72b3dc;stroke:#c2dffb;stroke-width:1"
   d="m 50.916,26.871 0.31,-0.564 0.645,-1.082 0.495,-0.59 0.352,-0.306 1.627,0.203 1.159,2.699 -1.2,1.618 -0.567,0.261 -1.214,0.172 -1.607,-2.411"
   id="37093"
   inkscape:label="Hoke, NC"
   inkscape:connector-curvature="0" />
  <path
   style="fill:#72b3dc;stroke:#c2dffb;stroke-width:1"
   d="m 55.504,27.231 1.654,1.267 1.329,1.676 0.04,0.19 -0.103,2.299 -0.139,0.275 -0.496,0.485 -0.627,1.348 -0.532,0.883 -4.674,-3.406 -0.143,-0.099 0.71,-2.867 1.214,-0.172 0.567,-0.261 1.2,-1.618"
   id="37155"
   inkscape:label="Robeson, NC"
   inkscape:connector-curvature="0" />
  <path
   style="fill:#72b3dc;stroke:#c2dffb;stroke-width:1"
   d="m 64.878,32.806 1.082,0.358 -0.622,1.977 -1.262,0.712 -1.127,0.388 -0.121,0.01 -0.081,0.03 -0.266,0.325 -0.482,1.772 -0.15,1.004 -5.219,-3.728 0.532,-0.883 0.627,-1.348 0.496,-0.485 0.441,0.175 0.09,0 0.221,-0.04 1.149,-0.298 1.307,0.279 1.465,0.414 1.158,-0.085 0.762,-0.577"
   id="37047"
   inkscape:label="Columbus, NC"
   inkscape:connector-curvature="0" />
  <path
   style="fill:#72b3dc;stroke:#c2dffb;stroke-width:1"
   d="m 65.96,33.164 1.436,0.062 0.858,1.014 0.622,1.46 0.216,0.803 0.05,0.278 0.207,1.385 -0.753,0.685 -0.846,-0.072 -0.452,0.004 -0.428,0.054 -1.028,0.216 -1.063,0.334 -0.036,0.013 -0.004,0 -1.222,0.708 -0.303,0.248 -1.365,-0.974 0.15,-1.004 0.482,-1.772 0.266,-0.325 0.081,-0.03 0.121,-0.01 1.127,-0.388 1.262,-0.712 0.622,-1.977"
   id="37019"
   inkscape:label="Brunswick, NC"
   inkscape:connector-curvature="0" />
  <path
   style="fill:#72b3dc;stroke:#c2dffb;stroke-width:1"
   d="m 70.751,33.104 -0.194,0.292 -0.18,0.393 -0.478,1.185 -0.077,0.307 -0.18,0.891 -0.017,0.109 -0.276,1.885 -0.207,-1.385 -0.05,-0.278 -0.216,-0.803 -0.622,-1.46 -0.858,-1.014 1.002,-0.614 0.812,-0.387 0.419,-0.005 -0.082,0.127 0.045,0.099 0.167,0.162 0.726,0.496 0.266,0"
   id="37129"
   inkscape:label="New Hanover, NC"
   inkscape:connector-curvature="0" />
  <path
   style="fill:#72b3dc;stroke:#c2dffb;stroke-width:1"
   d="m 61.312,27.448 3.21,3.389 -0.14,0.239 0.028,0.062 0.257,0.321 0.184,0.113 0.316,0.04 0.382,0.203 -0.671,0.991 -0.762,0.577 -1.158,0.085 -1.465,-0.414 -1.307,-0.279 -1.149,0.298 -0.221,0.04 -0.09,0 -0.441,-0.175 0.139,-0.275 0.103,-2.299 -0.04,-0.19 -1.329,-1.676 0.576,-0.271 0.434,-0.112 2.757,-0.528 0.288,-0.072 0.099,-0.067"
   id="37017"
   inkscape:label="Bladen, NC"
   inkscape:connector-curvature="0" />
  <path
   style="fill:#72b3dc;stroke:#c2dffb;stroke-width:1"
   d="m 59.127,22.715 -0.19,2.055 0,0.095 0.253,0.555 0.334,0.622 0.076,0.117 1.712,1.289 -0.099,0.067 -0.288,0.072 -2.757,0.528 -0.434,0.112 -0.576,0.271 -1.654,-1.267 -1.159,-2.699 -0.027,-0.236 0.32,-0.143 1.857,-0.852 0.915,-0.492 0.311,-0.071 1.406,-0.023"
   id="37051"
   inkscape:label="Cumberland, NC"
   inkscape:connector-curvature="0" />
  <path
   style="fill:#72b3dc;stroke:#c2dffb;stroke-width:1"
   d="m 54.711,15.31 0.021,0.329 -0.342,3.128 0.888,0.194 -0.429,0.888 -1.008,-0.794 -0.2,-0.131 -0.107,-0.048 -0.28,-0.078 -0.208,0.018 -0.185,0.06 -0.436,0.67 -0.465,0.407 -0.739,0.522 -0.257,0.126 -2.109,0.405 -0.595,-4.222 2.921,-0.955 2.411,-0.257 1.119,-0.262"
   id="37037"
   inkscape:label="Chatham, NC"
   inkscape:connector-curvature="0" />
  <path
   style="fill:#72b3dc;stroke:#c2dffb;stroke-width:1"
   d="m 55.278,18.961 2.267,0.437 2.2,2.284 -0.618,1.033 -1.406,0.023 -0.311,0.071 -0.915,0.492 -1.857,0.852 -0.32,0.143 -1.159,-1.306 1.69,-3.141 0.429,-0.888"
   id="37085"
   inkscape:label="Harnett, NC"
   inkscape:connector-curvature="0" />
  <path
   style="fill:#72b3dc;stroke:#c2dffb;stroke-width:1"
   d="m 50.964,20.601 0.257,-0.126 0.739,-0.522 0.465,-0.407 0.436,-0.67 0.185,-0.06 0.208,-0.018 0.28,0.078 0.107,0.048 0.2,0.131 1.008,0.794 -1.69,3.141 -2.195,-2.389"
   id="37105"
   inkscape:label="Lee, NC"
   inkscape:connector-curvature="0" />
  <path
   style="fill:#72b3dc;stroke:#c2dffb;stroke-width:1"
   d="m 51.32,10.983 2.071,-0.333 0.201,4.922 -2.411,0.257 -0.915,-4.679 1.054,-0.167"
   id="37135"
   inkscape:label="Orange, NC"
   inkscape:connector-curvature="0" />
  <path
   style="fill:#72b3dc;stroke:#c2dffb;stroke-width:1"
   d="m 50.793,7.125 3.462,-0.626 0.658,3.916 -1.522,0.235 -2.071,0.333 -0.527,-3.858"
   id="37145"
   inkscape:label="Person, NC"
   inkscape:connector-curvature="0" />
  <path
   style="fill:#72b3dc;stroke:#c2dffb;stroke-width:1"
   d="m 54.913,10.415 0.924,2.005 0.644,0.65 -0.045,0.595 -0.116,0.329 -0.232,0.401 -0.603,0.784 -0.774,0.131 -1.119,0.262 -0.201,-4.922 1.522,-0.235"
   id="37063"
   inkscape:label="Durham, NC"
   inkscape:connector-curvature="0" />
  <path
   style="fill:#72b3dc;stroke:#c2dffb;stroke-width:1"
   d="m 65.586,28.417 4.475,-0.843 2.385,3.235 -1.695,2.295 -0.266,0 -0.726,-0.496 -0.167,-0.162 -0.045,-0.099 0.082,-0.127 -0.419,0.005 -0.812,0.387 -1.002,0.614 -1.436,-0.062 -1.082,-0.358 0.671,-0.991 -0.382,-0.203 -0.316,-0.04 -0.184,-0.113 -0.257,-0.321 -0.028,-0.062 0.14,-0.239 1.064,-2.42"
   id="37141"
   inkscape:label="Pender, NC"
   inkscape:connector-curvature="0" />
  <path
   style="fill:#72b3dc;stroke:#c2dffb;stroke-width:1"
   d="m 59.745,21.682 2.501,-0.085 1.685,0.96 0.307,1.393 0.558,2.23 -0.153,2.214 0.749,0.225 0.064,-0.036 0.13,-0.166 -1.064,2.42 -3.21,-3.389 -1.712,-1.289 -0.076,-0.117 -0.334,-0.622 -0.253,-0.555 0,-0.095 0.19,-2.055 0.618,-1.033"
   id="37163"
   inkscape:label="Sampson, NC"
   inkscape:connector-curvature="0" />
  <path
   style="fill:#72b3dc;stroke:#c2dffb;stroke-width:1"
   d="m 63.986,17.315 2.496,-0.314 0.681,2.55 0.185,2.506 -3.417,0.5 -1.685,-0.96 0.405,-0.591 0.816,-1.374 0.519,-2.317"
   id="37191"
   inkscape:label="Wayne, NC"
   inkscape:connector-curvature="0" />
  <path
   style="fill:#72b3dc;stroke:#c2dffb;stroke-width:1"
   d="m 62.326,15.711 0.447,0.477 0.546,1.02 0.667,0.107 -0.519,2.317 -0.816,1.374 -0.405,0.591 -2.501,0.085 -2.2,-2.284 1.419,-1.987 1.446,-1.61 1.065,-1.082 0.851,0.992"
   id="37101"
   inkscape:label="Johnston, NC"
   inkscape:connector-curvature="0" />
  <path
   style="fill:#72b3dc;stroke:#c2dffb;stroke-width:1"
   d="m 55.837,12.42 2.177,0.253 0.59,0.14 0.743,0.231 1.402,0.788 0.361,0.301 0.338,0.456 0.027,0.13 -1.065,1.082 -1.446,1.61 -1.419,1.987 -2.267,-0.437 -0.888,-0.194 0.342,-3.128 -0.021,-0.329 0.774,-0.131 0.603,-0.784 0.232,-0.401 0.116,-0.329 0.045,-0.595 -0.644,-0.65"
   id="37183"
   inkscape:label="Wake, NC"
   inkscape:connector-curvature="0" />
  <path
   style="fill:#72b3dc;stroke:#c2dffb;stroke-width:1"
   d="m 54.881,6.377 2.804,-0.523 -0.343,0.438 -0.027,0.253 0.086,0.837 0.365,1.956 0.252,1.204 0.14,0.076 -0.144,2.055 -2.177,-0.253 -0.924,-2.005 -0.658,-3.916 0.626,-0.122"
   id="37077"
   inkscape:label="Granville, NC"
   inkscape:connector-curvature="0" />
  <path
   style="fill:#72b3dc;stroke:#c2dffb;stroke-width:1"
   d="m 57.685,5.854 1.343,-0.27 0.838,3.511 -1.708,1.523 -0.14,-0.076 L 57.766,9.338 57.401,7.382 57.315,6.545 57.342,6.292 57.685,5.854"
   id="37181"
   inkscape:label="Vance, NC"
   inkscape:connector-curvature="0" />
  <path
   style="fill:#72b3dc;stroke:#c2dffb;stroke-width:1"
   d="M 61.831,5.047 63.31,4.754 63.422,5.237 63.071,9.325 59.866,9.095 59.028,5.584 61.831,5.047"
   id="37185"
   inkscape:label="Warren, NC"
   inkscape:connector-curvature="0" />
  <path
   style="fill:#72b3dc;stroke:#c2dffb;stroke-width:1"
   d="m 63.071,9.325 -1.596,5.394 -0.027,-0.13 -0.338,-0.456 -0.361,-0.301 -1.402,-0.788 -0.743,-0.231 -0.59,-0.14 0.144,-2.055 1.708,-1.523 3.205,0.23"
   id="37069"
   inkscape:label="Franklin, NC"
   inkscape:connector-curvature="0" />
  <path
   style="fill:#72b3dc;stroke:#c2dffb;stroke-width:1"
   d="m 66.325,9.356 -0.028,0.626 -0.422,2.128 -0.172,1.149 -3.377,2.452 -0.851,-0.992 1.596,-5.394 3.254,0.031"
   id="37127"
   inkscape:label="Nash, NC"
   inkscape:connector-curvature="0" />
  <path
   style="fill:#72b3dc;stroke:#c2dffb;stroke-width:1"
   d="m 70.728,3.271 0.929,0.803 -0.41,1.461 -0.199,1.644 -0.643,1.168 -0.06,0.058 L 70.241,8.386 69.363,8.013 67.1,6.481 66.916,5.665 65.892,5.115 63.467,5.156 63.422,5.237 63.31,4.754 64.648,4.498 69.403,3.56 70.728,3.271"
   id="37131"
   inkscape:label="Northampton, NC"
   inkscape:connector-curvature="0" />
  <path
   style="fill:#72b3dc;stroke:#c2dffb;stroke-width:1"
   d="m 63.422,5.237 0.045,-0.081 2.425,-0.041 1.024,0.55 0.184,0.816 2.263,1.532 0.878,0.373 0.104,0.019 0.06,-0.058 -0.123,1.267 -0.585,1.04 -0.213,0.059 -1.041,-0.24 L 68.264,10.087 67.709,9.789 66.325,9.356 63.071,9.325 63.422,5.237"
   id="37083"
   inkscape:label="Halifax, NC"
   inkscape:connector-curvature="0" />
  <path
   style="fill:#72b3dc;stroke:#c2dffb;stroke-width:1"
   d="m 69.697,10.654 0.995,2.258 -0.437,-0.094 -0.757,0.572 -0.216,0.369 -0.298,0.384 -1.105,1.203 -0.729,-0.559 -0.47,-0.947 -0.977,-0.581 0.172,-1.149 0.422,-2.128 0.028,-0.626 1.384,0.433 0.555,0.298 0.179,0.386 1.041,0.24 0.213,-0.059"
   id="37065"
   inkscape:label="Edgecombe, NC"
   inkscape:connector-curvature="0" />
  <path
   style="fill:#72b3dc;stroke:#c2dffb;stroke-width:1"
   d="m 65.703,13.259 0.977,0.581 0.47,0.947 0.729,0.559 -0.337,0.397 -1.06,1.258 -2.496,0.314 -0.667,-0.107 -0.546,-1.02 -0.447,-0.477 3.377,-2.452"
   id="37195"
   inkscape:label="Wilson, NC"
   inkscape:connector-curvature="0" />
  <path
   style="fill:#72b3dc;stroke:#c2dffb;stroke-width:1"
   d="m 67.542,15.743 2.863,2.425 -0.831,0.739 -0.645,0.505 -0.338,0.152 -0.093,0.019 -0.19,-0.216 -1.145,0.184 -0.681,-2.55 1.06,-1.258"
   id="37079"
   inkscape:label="Greene, NC"
   inkscape:connector-curvature="0" />
  <path
   style="fill:#72b3dc;stroke:#c2dffb;stroke-width:1"
   d="m 71.495,19.096 -0.574,1.591 -0.567,-0.077 0.343,0.893 -0.005,0.085 -0.689,1.361 -1.167,1.069 -1.488,-1.961 -0.185,-2.506 1.145,-0.184 0.19,0.216 0.093,-0.019 0.338,-0.152 0.645,-0.505 0.831,-0.739 1.09,0.928"
   id="37107"
   inkscape:label="Lenoir, NC"
   inkscape:connector-curvature="0" />
  <path
   style="fill:#72b3dc;stroke:#c2dffb;stroke-width:1"
   d="m 70.921,20.687 0.109,0.014 3.155,1.257 0.32,0.171 0.392,-0.239 0.117,0.023 0.064,0.077 0.189,0.585 0.392,2.426 0.293,0.314 -0.735,0.384 -0.784,-1.072 -0.05,-0.061 -0.577,-0.444 -0.325,-0.04 -2.955,0 -1.069,0.278 -0.621,-0.342 1.167,-1.069 0.689,-1.361 0.005,-0.085 -0.343,-0.893 0.567,0.077"
   id="37103"
   inkscape:label="Jones, NC"
   inkscape:connector-curvature="0" />
  <path
   style="fill:#72b3dc;stroke:#c2dffb;stroke-width:1"
   d="m 63.931,22.557 3.417,-0.5 1.488,1.961 0.621,0.342 0.406,0.563 0.108,2.42 0.009,0.081 0.081,0.15 -4.475,0.843 -0.13,0.166 -0.064,0.036 -0.749,-0.225 0.153,-2.214 -0.558,-2.23 -0.307,-1.393"
   id="37061"
   inkscape:label="Duplin, NC"
   inkscape:connector-curvature="0" />
  <path
   style="fill:#72b3dc;stroke:#c2dffb;stroke-width:1"
   d="m 69.457,24.36 1.069,-0.278 2.955,0 0.325,0.04 0.577,0.444 0.05,0.061 0.784,1.072 0.924,1.744 -3.695,3.366 -2.385,-3.235 -0.081,-0.15 -0.009,-0.081 -0.108,-2.42 -0.406,-0.563"
   id="37133"
   inkscape:label="Onslow, NC"
   inkscape:connector-curvature="0" />
  <path
   style="fill:#72b3dc;stroke:#c2dffb;stroke-width:1"
   d="m 79.983,21.62 0.044,0.086 0.185,0.197 0.423,-0.044 1.988,-0.216 0.306,1.541 2.105,-2.24 -0.519,1.244 -2.041,3.659 -0.527,0.324 -0.354,-0.121 -1.084,-0.211 -0.533,0.063 -0.444,0.09 -0.479,0.139 -0.892,0.326 -0.834,0.346 -0.091,0.04 -0.037,0.018 -0.27,0.132 -0.229,0.131 -0.392,0.225 -0.167,0.094 -0.924,-1.744 0.735,-0.384 1.366,-0.383 1.951,-0.869 0.609,-0.424 0.194,-0.617 0.049,-0.293 -0.073,-0.067 -0.653,-0.42 0.588,-0.622"
   id="37031"
   inkscape:label="Carteret, NC"
   inkscape:connector-curvature="0" />
  <path
   style="fill:#72b3dc;stroke:#c2dffb;stroke-width:1"
   d="m 79.521,17.483 1.141,-0.009 0.207,0.063 0.153,0.22 0.096,0.221 0.04,0.199 -0.149,0.671 -0.294,1.252 -0.161,0.38 -0.571,1.14 -0.588,0.622 -0.45,0.465 -0.181,0.085 -0.401,0.054 -0.928,-0.229 -0.582,-0.325 -0.243,-0.257 -0.474,-1.429 0.114,-0.614 0.135,-0.32 0.411,-0.495 0.607,0.374 2.137,-0.694 0.089,-0.487 0,-0.117 -0.108,-0.77"
   id="37137"
   inkscape:label="Pamlico, NC"
   inkscape:connector-curvature="0" />
  <path
   style="fill:#72b3dc;stroke:#c2dffb;stroke-width:1"
   d="m 73.347,17.685 3.449,1.492 -0.411,0.495 -0.135,0.32 -0.114,0.614 0.474,1.429 0.243,0.257 0.582,0.325 0.928,0.229 0.401,-0.054 0.181,-0.085 0.45,-0.465 0.653,0.42 0.073,0.067 -0.049,0.293 -0.194,0.617 -0.609,0.424 -1.951,0.869 -1.366,0.383 -0.293,-0.314 -0.392,-2.426 -0.189,-0.585 -0.064,-0.077 -0.117,-0.023 -0.392,0.239 -0.32,-0.171 -3.155,-1.257 -0.109,-0.014 0.574,-1.591 1.852,-1.411"
   id="37049"
   inkscape:label="Craven, NC"
   inkscape:connector-curvature="0" />
  <path
   style="fill:#72b3dc;stroke:#c2dffb;stroke-width:1"
   d="m 70.692,12.912 2.023,0.74 0.632,4.033 -1.852,1.411 -1.09,-0.928 -2.863,-2.425 0.337,-0.397 1.105,-1.203 0.298,-0.384 0.216,-0.369 0.757,-0.572 0.437,0.094"
   id="37147"
   inkscape:label="Pitt, NC"
   inkscape:connector-curvature="0" />
  <path
   style="fill:#72b3dc;stroke:#c2dffb;stroke-width:1"
   d="m 70.282,9.614 0.014,0.071 0.094,0.145 1.541,1.243 0.123,0.072 1.653,0.605 0.118,0.031 2.01,-0.248 0.744,-0.415 -0.443,2.204 -0.986,0.686 -0.325,0.206 -0.914,-0.284 -1.196,-0.278 -2.023,-0.74 -0.995,-2.258 0.585,-1.04"
   id="37117"
   inkscape:label="Martin, NC"
   inkscape:connector-curvature="0" />
  <path
   style="fill:#72b3dc;stroke:#c2dffb;stroke-width:1"
   d="m 76.1,5.499 1.244,-0.99 -0.012,1.499 0.509,1.59 0.04,0.041 0.118,0.059 0.229,0.035 0.419,0.032 0.918,-0.054 -2.459,1.23 L 76.136,6.183 76.1,5.499"
   id="37041"
   inkscape:label="Chowan, NC"
   inkscape:connector-curvature="0" />
  <path
   style="fill:#72b3dc;stroke:#c2dffb;stroke-width:1"
   d="m 73.243,2.798 0.194,0.289 -0.014,0.126 -0.175,0.509 -0.167,0.077 0.174,0.699 0.038,0.046 0.158,0.107 0.288,0.085 0.92,0.153 0.279,0 1.162,0.61 0.036,0.684 -1.951,0.41 -1.095,0.271 -1.771,0.315 -0.271,0 0.199,-1.644 0.41,-1.461 -0.929,-0.803 2.497,-0.469 0.018,-0.004"
   id="37091"
   inkscape:label="Hertford, NC"
   inkscape:connector-curvature="0" />
  <path
   style="fill:#72b3dc;stroke:#c2dffb;stroke-width:1"
   d="m 76.136,6.183 0.97,2.758 -0.041,1.011 -0.486,1.166 -0.744,0.415 -2.01,0.248 L 73.707,11.75 72.054,11.145 71.931,11.073 70.39,9.83 70.296,9.685 70.282,9.614 l 0.123,-1.267 0.643,-1.168 0.271,0 1.771,-0.315 1.095,-0.271 1.951,-0.41"
   id="37015"
   inkscape:label="Bertie, NC"
   inkscape:connector-curvature="0" />
  <path
   style="fill:#72b3dc;stroke:#c2dffb;stroke-width:1"
   d="m 76.998,1.942 0.608,0.401 0.734,1.604 -0.996,0.562 -1.244,0.99 -1.162,-0.61 -0.279,0 L 73.739,4.736 73.451,4.651 73.293,4.544 73.255,4.498 73.081,3.799 73.248,3.722 73.423,3.213 73.437,3.087 73.243,2.798 76.998,1.942"
   id="37073"
   inkscape:label="Gates, NC"
   inkscape:connector-curvature="0" />
  <path
   style="fill:#72b3dc;stroke:#c2dffb;stroke-width:1"
   d="m 77.504,1.834 1.792,-0.379 1.893,1.253 1.226,0.671 0.05,-0.044 0.139,0.013 0.23,0.09 0.762,0.577 1.039,1.456 0.007,0.032 L 82.983,5.547 82.671,5.196 81.887,4.646 80.36,3.717 78.3,2.771 77.606,2.343 76.998,1.942 77.504,1.834"
   id="37029"
   inkscape:label="Camden, NC"
   inkscape:connector-curvature="0" />
  <path
   style="fill:#72b3dc;stroke:#c2dffb;stroke-width:1"
   d="m 77.606,2.343 0.694,0.428 2.06,0.946 1.527,0.929 0.784,0.55 0.312,0.351 L 81.721,6.678 80.703,6.016 79.449,5.295 78.445,4.124 78.34,3.947 77.606,2.343"
   id="37139"
   inkscape:label="Pasquotank, NC"
   inkscape:connector-curvature="0" />
  <path
   style="fill:#72b3dc;stroke:#c2dffb;stroke-width:1"
   d="m 78.34,3.947 0.105,0.177 1.004,1.171 1.254,0.721 1.018,0.662 L 79.565,7.711 78.647,7.765 78.228,7.733 77.999,7.698 77.881,7.639 77.841,7.598 77.332,6.008 77.344,4.509 78.34,3.947"
   id="37143"
   inkscape:label="Perquimans, NC"
   inkscape:connector-curvature="0" />
  <path
   style="fill:#72b3dc;stroke:#c2dffb;stroke-width:1"
   d="m 78.246,12.893 1.849,1.375 -0.844,0.83 -0.117,0.068 -0.032,0.054 0,0.054 0.041,0.153 0.329,0.61 0.357,0.472 0.175,0.203 -0.483,0.771 0.108,0.77 0,0.117 -0.089,0.487 -2.137,0.694 -0.607,-0.374 -3.449,-1.492 -0.632,-4.033 1.196,0.278 0.914,0.284 0.325,-0.206 0.986,-0.686 2.11,-0.429"
   id="37013"
   inkscape:label="Beaufort, NC"
   inkscape:connector-curvature="0" />
  <path
   style="fill:#72b3dc;stroke:#c2dffb;stroke-width:1"
   d="m 77.065,9.952 0.009,0.008 0.208,0.085 0.067,0.005 0.595,-0.162 0.987,-0.384 0.312,-0.21 0.107,-0.15 0.596,-0.307 0.099,0.038 0.103,0.089 0.307,0.324 0.167,1.362 -0.208,0.685 0.325,1.14 -2.493,0.418 -2.11,0.429 0.443,-2.204 0.486,-1.166"
   id="37187"
   inkscape:label="Washington, NC"
   inkscape:connector-curvature="0" />
  <path
   style="fill:#72b3dc;stroke:#c2dffb;stroke-width:1"
   d="m 84.561,12.046 -3.822,0.429 -0.325,-1.14 0.208,-0.685 -0.167,-1.362 0.8,-0.573 0.551,-0.319 0.365,-0.144 1.164,-0.243 0.442,0.198 0.126,0.113 0.252,0.68 -0.023,0.167 -0.004,0.365 0.104,0.708 0.185,0.725 0.17,0.852 -0.026,0.229"
   id="37177"
   inkscape:label="Tyrrell, NC"
   inkscape:connector-curvature="0" />
  <path
   style="fill:#72b3dc;stroke:#c2dffb;stroke-width:1"
   id="37055"
   d="M 84.561,12.046 84.587,11.817 84.417,10.965 84.232,10.24 84.128,9.532 84.132,9.167 84.155,9 l 0.432,-0.821 0.077,-0.085 0.361,-0.238 0.198,-0.063 0.194,-0.037 0.112,0.004 0.455,0.126 0.361,0.334 0.73,1.029 0.119,0.193 0.484,1.541 0.011,0.059 0.018,0.901 -0.334,0.69 -0.207,0.113 -0.402,0.13 -0.355,-0.081 -1.848,-0.749 m 2.866,-4.069 0.185,0.085 0.184,0.145 0.24,0.248 L 88.22,8.77 88.36,9.279 88.315,9.375 88.274,9.383 87.791,9.297 87.702,9.23 86.945,8.126 86.89,8.031 86.885,8.004 86.962,7.936 87.093,7.91 l 0.154,0 0.18,0.067 m 1.208,9.429 0.189,-0.104 0.149,-0.099 0.816,-0.564 0.874,-0.648 0.024,-0.207 -0.047,-1.308 -0.062,-0.874 -0.109,-1.294 -0.131,-0.586 -0.094,-0.293 -0.135,-0.305 -0.162,-0.204 -0.128,-0.162 -0.522,-1.123 0.038,-0.045 0.057,0.009 0.019,0.005 0.021,0.027 0.267,0.325 0.103,0.167 0.311,0.594 0.184,0.428 0.253,0.568 0.081,0.555 0.019,0.166 0.094,0.789 0.089,1.154 0.043,0.942 -0.006,1.145 -0.054,0.118 -0.121,-0.005 -0.167,-0.014 -0.203,0.059 -0.297,0.112 -0.239,0.149 -1.069,0.694 -0.085,-0.171 m -3.029,-13.058 0.564,0.906 0.003,0.004 0.312,0.47 0.315,0.41 0.546,0.64 0.581,0.784 0.753,1.015 0.495,0.765 -0.048,0.149 -1.019,-1.135 -1.735,-2.097 -0.969,-1.811 0.202,-0.1"
   inkscape:label="Dare, NC"
   inkscape:connector-curvature="0" />
  <path
   style="fill:#72b3dc;stroke:#c2dffb;stroke-width:1"
   d="m 81.215,1.05 2.571,-0.55 1.82,3.848 -0.202,0.1 L 84.313,2.18 83.641,1.442 83.56,1.41 82.533,1.361 l -0.151,0.066 -0.033,0.046 -0.043,0.095 0.006,0.153 0.184,0.28 0.108,0.126 0.1,0.053 0.486,0.222 0.649,0.722 1.817,2.794 0.171,0.369 0.009,0.139 -0.063,0 L 85.349,6.251 85.206,6.156 84.934,5.881 84.642,5.503 84.635,5.471 83.596,4.015 82.834,3.438 82.604,3.348 82.465,3.335 82.415,3.379 81.189,2.708 79.296,1.455 81.215,1.05"
   id="37053"
   inkscape:label="Currituck, NC"
   inkscape:connector-curvature="0" />
  <path
   style="fill:#72b3dc;stroke:#c2dffb;stroke-width:1"
   id="37095"
   d="m 84.561,12.046 1.848,0.749 -0.239,0.18 -0.447,0.658 -0.031,0.064 -0.279,0.739 0.04,0.148 -0.005,0.135 -0.057,0.415 -0.014,0.086 -0.05,0.094 -0.383,0.609 -0.64,0.699 -0.063,0.04 -2.614,0.253 -0.095,0.005 -0.848,-0.105 -0.68,-0.103 -0.175,-0.203 -0.357,-0.472 -0.329,-0.61 -0.041,-0.153 0,-0.054 0.032,-0.054 0.117,-0.068 0.844,-0.83 -1.849,-1.375 2.493,-0.418 3.822,-0.429 m 4.074,5.36 0.085,0.171 -0.193,0.108 -0.186,0.149 -0.463,0.374 -0.654,0.563 -0.288,0.253 -0.325,0.383 -0.153,0.225 -0.104,0.095 -0.031,-0.04 0.01,-0.051 0.161,-0.459 0.185,-0.265 0.654,-0.573 0.991,-0.794 0.311,-0.139"
   inkscape:label="Hyde, NC"
   inkscape:connector-curvature="0" />
  
  
  
  
  
  
  
  
  
  
  
  
  
  
  
  
  
  
  
  
  
  
  
  
  
  
  
  
  
  
  
  
  
  
  
  
  
  
  
  
  
  
  
  
  
  
  
  
  
  
  
  
  
  
  
  
  
  
  
  
  
  
  
  
  
  
  
  
  
  
  
  
  
  
  
  
  
  
  
  
  
  
  
  
  
  
  
  
  
  
  
  
  
  
  
  
  
  
  
  
  
  
  
  
  
  
  
  
  
  
  
  
  
  
  
  
  
  
  
  
  
  
  
  
  
  
  
  
  
  
  
  
  
  
  
  
  
  
  
  
  
  
  
  
  
  
  
  
  
  
  
  
  
  
  
  
  
  
  
  
  
  
  
  
  
  
  
  
  
  
  
  
  
  
  
  
  
  
  
  
  
  
  
  
  
  
  
  
  
  
  
  
  
  
  
  
  
  
  
  
  
  
  
  
  
  
  
  
  
  
  
  
  
  
  
  
  
  
  
  
  
  
  
  
  
  
  
  
  
  
  
  
  
  
  
  
  
  
  
  
  
  
  
  
  
  
  
  
  
  
  
  
  
  
  
  
  
  
  
  
  
  
  
  
  
  
  
  
  
  
  
  
  
  
  
  
  
  
  
  
  
  
  
  
  
  
  
  
  
  
  
  
  
  
  
  
  
  
  
  
  
  
  
  
  
  
  
  
  
  
  
  
  
  
  
  
  
  
  
  
  
  
  
  
  
  
  
  
  
  
  
  
  
  
  
  
  
  
  
  
  
  
  
  
  
  
  
  
  
  
  
  
  
  
  
  
  
  
  
  
  
  
  
  
  
  
  
  
  
  
  
  
  
  
  
  
  
  
  
  
  
  
  
  
  
  
  
  
  
  
  
  
  
  
  
  
  
  
  
  
  
  
  
  
  
  
  
  
  
  
  
  
  
  
  
  
  
  
  
  
  
  
  
  
  
  
  
  
  
  
  
  
  
  
  
  
  
  
  
  
  
  
  
  
  
  
  
  
  
  
  
  
  
  
  
  
  
  
  
  
  
  
  
  
  
  
  
  
  
  
  
  
  
  
  
  
  
  
  
  
  
  
  
  
  
  
  
  
  
  
  
  
  
  
  
  
  
  
  
  
  
  
  
  
  
  
  
  
  
  
  
  
  
  
  
  
  
  
  
  
  
  
  
  
  
  
  
  
  
  
  
  
  
  
  
  
  
  
  
  
  
  
  
  
  
  
  
  
  
  
  
  
  
  
  
  
  
  
  
  
  
  
  
  
  
  
  
  
  
  
  
  
  
  
  
  
  
  
  
  
  
  
  
  
  
  
  
  
  
  
  
  
  
  
  
  
  
  
  
  
  
  
  
  
  
  
  
  
  
  
  
  
  
  
  
  
  
  
  
  
  
  
  
  
  
  
  
  
  
  
  
  
  
  
  
  
  
  
  
  
  
  
  
  
  
  
  
  
  
  
  
  
  
  
  
  
  
  
  
  
  
  
  
  
  
  
  
  
  
  
  
  
  
  
  
  
  
  
  
  
  
  
  
  
  
  
  
  
  
  
  
  
  
  
  
  
  
  
  
  
  
  
  
  
  
  
  
  
  
  
  
  
  
  
  
  
  
  
  
  
  
  
  
  
  
  
  
  
  
  
  
  
  
  
  
  
  
  
  
  
  
  
  
  
  
  
  
  
  
  
  
  
  
  
  
  
  
  
  
  
  
  
  
  
  
  
  
  
  
  
  
  
  
  
  
  
  
  
  
  
  
  
  
  
  
  
  
  
  
  
  
  
  
  
  
  
  
  
  
  
  
  
  
  
  
  
  
  
  
  
  
  
  
  
  
  
  
  
  
  
  
  
  
  
  
  
  
  
  
  
  
  
  
  
  
  
  
  
  
  
  
  
  
  
  
  
  
  
  
  
  
  
  
  
  
  
  
  
  
  
  
  
  
  
  
  
  
  
  
  
  
  
  
  
  
  
  
  
  
  
  
  
  
  
  
  
  
  
  
  
  
  
  
  
  
  
  
  
  
  
  
  
  
  
  
  
  
  
  
  
  
  
  
  
  
  
  
  
  
  
  
  
  
  
  
  
  
  
  
  
  
  
  
  
  
  
  
  
  
  
  
  
  
  
  
  
  
  
  
  
  
  
  
  
  
  
  
  
  
  
  
  
  
  
  
  
  
  
  
  
  
  
  
  
  
  
  
  
  
  
  
  
  
  
  
  
  
  
  
  
  
  
  
  
  
  
  
  
  
  
  
  
  
  
  
  
  
  
  
  
  
  
  
  
  
  
  
  
  
  
  
  
  
  
  
  
  
  
  
  
  
  
  
  
  
  
  
  
  
  
  
  
  
  
  
  
  
  
  
  
  
  
  
  
  
  
  
  
  
  
  
  
  
  
  
  
  
  
  
  
  
  
  
  
  
  
  
  
  
  
  
  
  
  
  
  
  
  
  
  
  
  
  
  
  
  
  
  
  
  
  
  
  
  
  
  
  
  
  
  
  
  
  
  
  
  
  
  
  
  
  
  
  
  
  
  
  
  
  
  
  
  
  
  
  
  
  
  
  
  
  
  
  
  
  
  
  
  
  
  
  
  
  
  
  
  
  
  
  
  
  
  
  
  
  
  
  
  
  
  
  
  
  
  
  
  
  
  
  
  
  
  
  
  
  
  
  
  
  
  
  
  
  
  
  
  
  
  
  
  
  
  
  
  
  
  
  
  
  
  
  
  
  
  
  
  
  
  
  
  
  
  
  
  
  
  
  
  
  
  
  
  
  
  
  
  
  
  
  
  
  
  
  
  
  
  
  
  
  
  
  
  
  
  
  
  
  
  
  
  
  
  
  
  
  
  
  
  
  
  
  
  
  
  
  
  
  
  
  
  
  
  
  
  
  
  
  
  
  
  
  
  
  
  
  
  
  
  
  
  
  
  
  
  
  
  
  
  
  
  
  
  
  
  
  
  
  
  
  
  
  
  
  
  
  
  
  
  
  
  
  
  
  
  
  
  
  
  
  
  
  
  
  
  
  
  
  
  
  
  
  
  
  
  
  
  
  
  
  
  
  
  
  
  
  
  
  
  
  
  
  
  
  
  
  
  
  
  
  
  
  
  
  
  
  
  
  
  
  
  
  
  
</svg>