<?xml version="1.0" encoding="UTF-8" standalone="no"?>
<!--?xml version="1.0" encoding="UTF-8" standalone="no"?-->

<svg
   xmlns:dc="http://purl.org/dc/elements/1.1/"
   xmlns:cc="http://creativecommons.org/ns#"
   xmlns:rdf="http://www.w3.org/1999/02/22-rdf-syntax-ns#"
   xmlns:svg="http://www.w3.org/2000/svg"
   xmlns="http://www.w3.org/2000/svg"
   xmlns:sodipodi="http://sodipodi.sourceforge.net/DTD/sodipodi-0.dtd"
   xmlns:inkscape="http://www.inkscape.org/namespaces/inkscape"
   width="73.970398"
   height="46.715073"
   viewBox="0 0 68.375998 42.672422"
   preserveAspectRatio="xMinYMin meet"
   xml:space="preserve"
   id="svg1978"
   version="1.1"
   inkscape:version="0.48.2 r9819"
   sodipodi:docname="ND.svg"><metadata
   id="metadata2037"><rdf:RDF><cc:Work
       rdf:about=""><dc:format>image/svg+xml</dc:format><dc:type
         rdf:resource="http://purl.org/dc/dcmitype/StillImage" /></cc:Work></rdf:RDF></metadata><defs
   id="defs2035" /><sodipodi:namedview
   pagecolor="#ffffff"
   bordercolor="#666666"
   borderopacity="1"
   objecttolerance="10"
   gridtolerance="10"
   guidetolerance="10"
   inkscape:pageopacity="0"
   inkscape:pageshadow="2"
   inkscape:window-width="640"
   inkscape:window-height="480"
   id="namedview2033"
   showgrid="false"
   inkscape:zoom="0.56730769"
   inkscape:cx="58.818476"
   inkscape:cy="-129.31287"
   inkscape:window-x="0"
   inkscape:window-y="0"
   inkscape:window-maximized="0"
   inkscape:current-layer="svg1978" />
  
  
  
  
  
  
  
  
  
  
  
  
  
  
  
  
  
  
  
  
  
  
  
  
  
  
  
  
  
  
  
  
  
  
  
  
  
  
  
  
  
  
  
  
  
  
  
  
  
  
  
  
  
  
  
  
  
  
  
  
  
  
  
  
  
  
  
  
  
  
  
  
  
  
  
  
  
  
  
  
  
  
  
  
  
  
  
  
  
  
  
  
  
  
  
  
  
  
  
  
  
  
  
  
  
  
  
  
  
  
  
  
  
  
  
  
  
  
  
  
  
  
  
  
  
  
  
  
  
  
  
  
  
  
  
  
  
  
  
  
  
  
  
  
  
  
  
  
  
  
  
  
  
  
  
  
  
  
  
  
  
  
  
  
  
  
  
  
  
  
  
  
  
  
  
  
  
  
  
  
  
  
  
  
  
  
  
  
  
  
  
  
  
  
  
  
  
  
  
  
  
  
  
  
  
  
  
  
  
  
  
  
  
  
  
  
  
  
  
  
  
  
  
  
  
  
  
  
  
  
  
  
  
  
  
  
  
  
  
  
  
  
  
  
  
  
  
  
  
  
  
  
  
  
  
  
  
  
  
  
  
  
  
  
  
  
  
  
  
  
  
  
  
  
  
  
  
  
  
  
  
  
  
  
  
  
  
  
  
  
  
  
  
  
  
  
  
  
  
  
  
  
  
  
  
  
  
  
  
  
  
  
  
  
  
  
  
  
  
  
  
  
  
  
  
  
  
  
  
  
  
  
  
  
  
  
  
  
  
  
  
  
  
  
  
  
  
  
  
  
  
  
  
  
  
  
  
  
  
  
  
  
  
  
  
  
  
  
  
  
  
  
  
  
  
  
  
  
  
  
  
  
  
  
  
  
  
  
  
  
  
  
  
  
  
  
  
  
  
  
  
  
  
  
  
  
  
  
  
  
  
  
  
  
  
  
  
  
  
  
  
  
  
  
  
  
  
  
  
  
  
  
  
  
  
  
  
  
  
  
  
  
  
  
  
  
  
  
  
  
  
  
  
  
  
  
  
  
  
  
  
  
  
  
  
  
  
  
  
  
  
  
  
  
  
  
  
  
  
  
  
  
  
  
  
  
  
  
  
  
  
  
  
  
  
  
  
  
  
  
  
  
  
  
  
  
  
  
  
  
  
  
  
  
  
  
  
  
  
  
  
  
  
  
  
  
  
  
  
  
  
  
  
  
  
  
  
  
  
  
  
  
  
  
  
  
  
  
  
  
  
  
  
  
  
  
  
  
  
  
  
  
  
  
  
  
  
  
  
  
  
  
  
  
  
  
  
  
  
  
  
  
  
  
  
  
  
  
  
  
  
  
  
  
  
  
  
  
  
  
  
  
  
  
  
  
  
  
  
  
  
  
  
  
  
  
  
  
  
  
  
  
  
  
  
  
  
  
  
  
  
  
  
  
  
  
  
  
  
  
  
  
  
  
  
  
  
  
  
  
  
  
  
  
  
  
  
  
  
  
  
  
  
  
  
  
  
  
  
  
  
  
  
  
  
  
  
  
  
  
  
  
  
  
  
  
  
  
  
  
  
  
  
  
  
  
  
  
  
  
  
  
  
  
  
  
  
  
  
  
  
  
  
  
  
  
  
  
  
  
  
  
  
  
  
  
  
  
  
  
  
  
  
  
  
  
  
  
  
  
  
  
  
  
  
  
  
  
  
  
  
  
  
  
  
  
  
  
  
  
  
  
  
  
  
  
  
  
  
  
  
  
  
  
  
  
  
  
  
  
  
  
  
  
  
  
  
  
  
  
  
  
  
  
  
  
  
  
  
  
  
  
  
  
  
  
  
  
  
  
  
  
  
  
  
  
  
  
  
  
  
  
  
  
  
  
  
  
  
  
  
  
  
  
  
  
  
  
  
  
  
  
  
  
  
  
  
  
  
  
  
  
  
  
  
  
  
  
  
  
  
  
  
  
  
  
  
  
  
  
  
  
  
  
  
  
  
  
  
  
  
  
  
  
  
  
  
  
  
  
  
  
  
  
  
  
  
  
  
  
  
  
  
  
  
  
  
  
  
  
  
  
  
  
  
  
  
  
  
  
  
  
  
  
  
  
  
  
  
  
  
  
  
  
  
  
  
  
  
  
  
  
  
  
  
  
  
  
  
  
  
  
  
  
  
  
  
  
  
  
  
  
  
  
  
  
  
  
  
  
  
  
  
  
  
  
  
  
  
  
  
  
  
  
  
  
  
  
  
  
  
  
  
  
  
  
  
  
  
  
  
  
  
  
  
  
  
  
  
  
  
  
  
  
  
  
  
  
  
  
  
  
  
  
  
  
  
  
  
  
  
  
  
  
  
  
  
  
  
  
  
  
  
  
  
  
  
  
  
  
  
  
  
  
  
  
  
  
  
  
  
  
  
  
  
  
  
  
  
  
  
  
  
  
  
  
  
  
  
  
  
  
  
  
  
  
  
  
  
  
  
  
  
  
  
  
  
  
  
  
  
  
  
  
  
  
  
  
  
  
  
  
  
  
  
  
  
  
  
  
  
  
  
  
  
  
  
  
  
  
  
  
  
  
  
  
  
  
  
  
  
  
  
  
  
  
  
  
  
  
  
  
  
  
  
  
  
  
  
  
  
  
  
  
  
  
  
  
  
  
  
  
  
  
  
  
  
  
  
  
  
  
  
  
  
  
  
  
  
  
  
  
  
  
  
  
  
  
  
  
  
  
  
  
  
  
  
  
  
  
  
  
  
  
  
  
  
  
  
  
  
  
  
  
  
  
  
  
  
  
  
  
  
  
  
  
  
  
  
  
  
  
  
  
  
  
  
  
  
  
  
  
  
  
  
  
  
  
  
  
  
  
  
  
  
  
  
  
  
  
  
  
  
  
  
  
  
  
  
  
  
  
  
  
  
  
  
  
  
  
  
  
  
  
  
  
  
  
  
  
  
  
  
  
  
  
  
  
  
  
  
  
  
  
  
  
  
  
  
  
  
  
  
  
  
  
  
  
  
  
  
  
  
  
  
  
  
  
  
  
  
  
  
  
  
  
  
  
  
  
  
  
  
  
  
  
  
  
  
  
  
  
  
  
  
  
  
  
  
  
  
  
  
  
  
  
  
  
  
  
  
  
  
  
  
  
  
  
  
  
  
  
  
  
  
  
  
  
  
  
  
  
  
  
  
  
  
  
  
  
  
  
  
  
  
  
  
  
  
  
  
  
  
  
  
  
  
  
  
  
  
  
  
  
  
  
  
  
  
  
  
  
  
  
  
  
  
  
  
  
  
  
  
  
  
  
  
  
  
  
  
  
  
  
  
  
  
  
  
  
  
  
  
  
  
  
  
  
  
  
  
  
  
  
  
  
  
  
  
  
  
  
  
  
  
  
  
  
  
  
  
  
  
  
  
  
  
  
  
  
  
  
  
  
  
  
  
  
  
  
  
  
  
  
  
  
  
  
  
  
  
  
  
  
  
  
  
  
  
  
  
  
  
  
  
  
  
  
  
  
  
  
  
  
  
  
  
  
  
  
  
  
  
  
  
  
  
  
  
  
  
  
  
  
  
  
  
  
  
  
  
  
  
  
  
  
  
  
  
  
  
  
  
  
  
  
  
  
  
  
  
  
  
  
  
  
  
  
  
  
  
  
  
  
  
  
  
  
  
  
  
  
  
  
  
  
  
  
  
  
  
  
  
  
  
  
  
  
  
  
  
  
  
  
  
  
  
  
  
  
  
  
  
  
  
  
  
  
  
  
  
  
  
  
  
  
  
  
  
  
  
  
  
  
  
  
  
  
  
  
  
  
  
  
  
  
  
  
  
  
  
  
  
  
  
  
  
  
  
  
  
  
  
  
  
  
  
  
  
  
  
  
  
  
  
  
  
  
  
  
  
  
  
  
  
  
  
  
  
  
  
  
  
  
  
  
  
  
  
  
  
  
  
  
  
  
  
  
  
  
  
  <path
   style="fill:#72b3dc;stroke:#c2dffb;stroke-width:1"
   d="m 60.047,25.838 5.463,0.086 0.045,1.118 0.013,1.631 0.374,1.226 0.109,0.298 -0.172,2.803 0.005,0.722 0,0.004 -4.43,-0.036 -3.579,-0.063 0.081,-4.48 -0.189,-1.303 0.031,-2.055 2.249,0.049"
   id="38017"
   inkscape:label="Cass, ND"
   inkscape:connector-curvature="0" />
  <path
   style="fill:#72b3dc;stroke:#c2dffb;stroke-width:1"
   d="m 65.884,33.726 0.383,1.113 1.239,2.984 0.343,2.704 0.027,0.226 -0.018,0.261 -0.022,0.081 -0.167,0.469 0.122,1.118 -5.991,-0.059 -0.189,-0.78 -0.072,-0.798 0.041,-2.888 -0.19,-0.005 0.064,-4.462 4.43,0.036"
   id="38077"
   inkscape:label="Richland, ND"
   inkscape:connector-curvature="0" />
  <path
   style="fill:#72b3dc;stroke:#c2dffb;stroke-width:1"
   d="M 20.993,4.245 19.876,4.169 19.1,5.232 18.952,7.45 13.322,7.053 13.403,5.949 13.484,4.836 13.016,4.804 l 0.27,-3.543 7.87,0.541 -0.163,2.443"
   id="38013"
   inkscape:label="Burke, ND"
   inkscape:connector-curvature="0" />
  <path
   style="fill:#72b3dc;stroke:#c2dffb;stroke-width:1"
   d="m 3.781,0.5 9.505,0.761 -0.27,3.543 0.468,0.032 L 13.403,5.949 3.393,5.151 3.781,0.5"
   id="38023"
   inkscape:label="Divide, ND"
   inkscape:connector-curvature="0" />
  <path
   style="fill:#72b3dc;stroke:#c2dffb;stroke-width:1"
   d="m 3.393,5.151 10.01,0.798 -0.081,1.104 -0.153,2.213 0.496,0.031 -0.234,3.178 -0.366,-0.194 -1.982,-0.27 -0.884,0.076 -0.108,0.077 -0.226,0.235 -0.157,0.216 -0.005,0.022 0.018,0.028 0.131,0.058 L 9.924,12.8 9.928,12.854 9.91,12.926 9.843,12.998 9.437,13.147 8.842,13.309 7.58,13.543 7.468,13.534 7.013,13.133 6.818,12.809 6.796,12.412 6.643,12.119 6.075,11.93 l -0.18,0.036 -0.176,0.09 -0.27,0.207 -0.005,0.059 0.027,0.058 0.18,0.176 -0.252,0.37 -0.766,0.586 -0.55,0.302 -0.307,0.063 -1.041,-0.604 0.401,-5.012 0.257,-3.11"
   id="38105"
   inkscape:label="Williams, ND"
   inkscape:connector-curvature="0" />
  <path
   style="fill:#72b3dc;stroke:#c2dffb;stroke-width:1"
   d="m 18.952,7.45 2.254,0.126 0.301,2.258 -0.279,4.453 0.248,0.766 0.054,1.501 -4.489,-0.288 -0.077,1.144 -2.181,-0.991 -0.036,-0.041 -0.018,-0.063 -0.037,-0.378 0.023,-0.181 0.086,-0.338 0.031,-0.063 0.311,-0.374 0.19,-0.117 0.144,-0.131 0.13,-0.176 0.113,-0.229 0.005,-0.068 -0.028,-0.041 -1.243,-1.216 -0.65,-0.479 -0.373,-0.049 0.234,-3.178 -0.496,-0.031 0.153,-2.213 5.63,0.397"
   id="38061"
   inkscape:label="Mountrail, ND"
   inkscape:connector-curvature="0" />
  <path
   style="fill:#72b3dc;stroke:#c2dffb;stroke-width:1"
   d="m 13.431,12.475 0.373,0.049 0.65,0.479 1.243,1.216 0.028,0.041 -0.005,0.068 -0.113,0.229 -0.13,0.176 -0.144,0.131 -0.19,0.117 -0.311,0.374 -0.031,0.063 -0.086,0.338 -0.023,0.181 0.037,0.378 0.018,0.063 0.036,0.041 -0.14,1.911 -3.998,-0.298 -0.324,4.418 -4.99,-0.393 -3.326,-0.288 0.077,-0.861 0.653,-7.635 1.041,0.604 0.307,-0.063 0.55,-0.302 0.766,-0.586 0.252,-0.37 -0.18,-0.176 -0.027,-0.058 0.005,-0.059 0.27,-0.207 0.176,-0.09 0.18,-0.036 0.568,0.189 0.153,0.293 0.022,0.397 0.195,0.324 0.455,0.401 L 7.58,13.543 8.842,13.309 9.437,13.147 9.843,12.998 9.91,12.926 9.928,12.854 9.924,12.8 9.852,12.723 9.721,12.665 9.703,12.637 l 0.005,-0.022 0.157,-0.216 0.226,-0.235 0.108,-0.077 0.884,-0.076 1.982,0.27 0.366,0.194"
   id="38053"
   inkscape:label="McKenzie, ND"
   inkscape:connector-curvature="0" />
  <path
   style="fill:#72b3dc;stroke:#c2dffb;stroke-width:1"
   d="m 16.964,17.41 0.288,-0.428 0.063,-0.059 0.064,-0.031 0.126,0.023 0.477,0.212 0.091,0.058 0.022,0.068 -0.004,0.081 -0.036,0.094 -0.149,1.781 0.018,0.063 0.036,0.054 0.429,0.532 -0.208,3.155 0.536,0.031 -0.266,4.07 -3.366,-0.225 -0.023,0.369 -4.489,-0.306 0.333,-4.458 -0.585,-0.044 0.324,-4.418 3.998,0.298 0.14,-1.911 2.181,0.991"
   id="38025"
   inkscape:label="Dunn, ND"
   inkscape:connector-curvature="0" />
  <path
   style="fill:#72b3dc;stroke:#c2dffb;stroke-width:1"
   d="m 18.451,27.114 0.402,0.401 -0.212,3.376 L 18.564,32 11.172,31.508 8.473,31.306 8.82,26.821 l 1.753,0.131 4.489,0.306 0.023,-0.369 3.366,0.225"
   id="38089"
   inkscape:label="Stark, ND"
   inkscape:connector-curvature="0" />
  <path
   style="fill:#72b3dc;stroke:#c2dffb;stroke-width:1"
   d="m 5.331,22.057 -0.365,4.467 0.51,0.041 -0.356,4.483 -1.704,-0.139 -0.095,1.14 -2.172,-0.184 0.108,-1.29 0.748,-8.806 3.326,0.288"
   id="38033"
   inkscape:label="Golden Valley, ND"
   inkscape:connector-curvature="0" />
  <path
   style="fill:#72b3dc;stroke:#c2dffb;stroke-width:1"
   d="m 5.331,22.057 4.99,0.393 0.585,0.044 -0.333,4.458 L 8.82,26.821 8.473,31.306 5.12,31.048 5.476,26.565 4.966,26.524 5.331,22.057"
   id="38007"
   inkscape:label="Billings, ND"
   inkscape:connector-curvature="0" />
  <path
   style="fill:#72b3dc;stroke:#c2dffb;stroke-width:1"
   d="M 10.244,35.943 9.924,40.248 0.5,39.5 l 0.36,-4.295 9.384,0.738"
   id="38011"
   inkscape:label="Bowman, ND"
   inkscape:connector-curvature="0" />
  <path
   style="fill:#72b3dc;stroke:#c2dffb;stroke-width:1"
   d="m 5.12,31.048 3.353,0.258 2.699,0.202 -0.297,4.472 -0.631,-0.037 -9.384,-0.738 0.289,-3.34 2.172,0.184 0.095,-1.14 1.704,0.139"
   id="38087"
   inkscape:label="Slope, ND"
   inkscape:connector-curvature="0" />
  <path
   style="fill:#72b3dc;stroke:#c2dffb;stroke-width:1"
   d="m 18.564,32 0.406,0.031 -0.018,3.007 0.207,1.555 -0.063,0.928 -4.471,-0.302 0.072,-0.991 -3.822,-0.248 0.297,-4.472 7.392,0.492"
   id="38041"
   inkscape:label="Hettinger, ND"
   inkscape:connector-curvature="0" />
  <path
   style="fill:#72b3dc;stroke:#c2dffb;stroke-width:1"
   d="m 10.244,35.943 0.631,0.037 3.822,0.248 -0.072,0.991 4.471,0.302 -0.216,3.349 -0.018,0 -8.456,-0.586 -0.482,-0.036 0.32,-4.305"
   id="38001"
   inkscape:label="Adams, ND"
   inkscape:connector-curvature="0" />
  <path
   style="fill:#72b3dc;stroke:#c2dffb;stroke-width:1"
   d="m 18.389,19.858 0.193,0.099 2.497,0.964 0.572,0.171 0.126,-0.022 0.204,-0.103 0.437,-0.271 0.306,-0.099 2.24,-0.189 0.158,0 0.072,0.032 0.487,0.504 -0.018,0.077 -0.073,0.081 -0.328,0.167 -0.082,0.072 -0.153,0.175 -0.031,0.095 0.013,0.09 0.699,1.947 0.775,0.676 -0.023,0.302 -4.466,-0.261 -0.203,3.331 -2.938,-0.181 -0.402,-0.401 0.266,-4.07 -0.536,-0.031 0.208,-3.155"
   id="38057"
   inkscape:label="Mercer, ND"
   inkscape:connector-curvature="0" />
  <path
   style="fill:#72b3dc;stroke:#c2dffb;stroke-width:1"
   d="m 18.641,30.891 3.358,0.203 -0.068,1.117 3.732,0.226 -0.189,3.322 2.239,0.121 0.145,1.132 -0.857,0.856 -0.915,0.713 -0.842,0.594 -1.921,0.874 -0.712,0.212 -0.026,-0.004 -0.893,-0.185 -1.335,-0.469 -0.589,-0.198 -0.798,0.068 0.126,-1.952 0.063,-0.928 L 18.952,35.038 18.97,32.031 18.564,32 18.641,30.891"
   id="38037"
   inkscape:label="Grant, ND"
   inkscape:connector-curvature="0" />
  <path
   style="fill:#72b3dc;stroke:#c2dffb;stroke-width:1"
   d="m 27.858,37.012 0.103,-0.46 0.92,-0.852 0.378,-0.126 0.126,0.113 0.352,0.072 0.911,0.058 0.225,-0.071 0.969,-0.38 0.077,0.154 0.171,0.451 0.063,0.239 0.005,0.387 -0.14,1.177 -0.037,0.121 -0.139,0.284 -0.167,0.171 -0.248,0.37 -0.108,0.257 -0.004,0.149 0.09,0.802 0.036,0.13 0.807,1.565 -2.046,-0.104 -0.203,-0.009 -0.073,-0.005 -1.081,-0.054 -0.816,-0.045 -2.614,-0.144 -0.919,-0.05 -0.523,-0.031 -1.127,-0.063 -1.362,-0.086 -1.293,-0.076 -1.086,-0.068 -0.145,-0.009 -0.022,-0.004 -0.058,-0.005 0.09,-1.397 0.798,-0.068 0.589,0.198 1.335,0.469 0.893,0.185 0.026,0.004 0.712,-0.212 1.921,-0.874 0.842,-0.594 0.915,-0.713 0.857,-0.856"
   id="38085"
   inkscape:label="Sioux, ND"
   inkscape:connector-curvature="0" />
  <path
   style="fill:#72b3dc;stroke:#c2dffb;stroke-width:1"
   d="m 18.853,27.515 2.938,0.181 7.333,0.392 0.014,0.239 0.203,0.842 0.54,1.988 0.392,0.775 0.438,0.433 0.622,0.315 0.518,0.424 0.172,0.302 0.247,0.55 -0.275,0.415 -0.081,0.162 -0.135,0.572 0.009,0.113 0.054,0.148 -0.969,0.38 -0.225,0.071 -0.911,-0.058 -0.352,-0.072 -0.126,-0.113 -0.378,0.126 -0.92,0.852 -0.103,0.46 -0.145,-1.132 -2.239,-0.121 0.189,-3.322 -3.732,-0.226 0.068,-1.117 -3.358,-0.203 0.212,-3.376"
   id="38059"
   inkscape:label="Morton, ND"
   inkscape:connector-curvature="0" />
  <path
   style="fill:#72b3dc;stroke:#c2dffb;stroke-width:1"
   d="m 28.984,25.848 0.14,2.24 -7.333,-0.392 0.203,-3.331 4.466,0.261 0.023,-0.302 1.208,-0.297 0.311,-0.027 0.252,0.067 0.203,0.086 0.293,0.225 0.153,0.199 0.032,0.072 0.049,1.199"
   id="38065"
   inkscape:label="Oliver, ND"
   inkscape:connector-curvature="0" />
  <path
   style="fill:#72b3dc;stroke:#c2dffb;stroke-width:1"
   d="M 20.993,4.245 21.156,1.802 25.653,2.068 25.446,5.625 25.708,7.86 29.093,8.058 29.034,9.163 22.269,8.766 22.467,5.444 20.926,5.349 20.993,4.245"
   id="38075"
   inkscape:label="Renville, ND"
   inkscape:connector-curvature="0" />
  <path
   style="fill:#72b3dc;stroke:#c2dffb;stroke-width:1"
   d="m 18.952,7.45 0.148,-2.218 0.776,-1.063 1.117,0.076 -0.067,1.104 1.541,0.095 -0.198,3.322 6.765,0.397 -0.059,1.112 0.203,1.168 0.005,2.312 0.225,1.01 0.108,0.005 -0.121,2.221 L 21.53,16.554 21.476,15.053 21.228,14.287 21.507,9.834 21.206,7.576 18.952,7.45"
   id="38101"
   inkscape:label="Ward, ND"
   inkscape:connector-curvature="0" />
  <path
   style="fill:#72b3dc;stroke:#c2dffb;stroke-width:1"
   d="m 29.395,16.991 3.371,0.185 -0.103,2.218 -0.767,-0.037 -0.045,0.654 -0.184,3.782 -0.668,-0.037 -0.113,2.182 -1.902,-0.09 L 28.935,24.649 28.903,24.577 28.75,24.378 28.457,24.153 28.254,24.067 28.002,24 l -0.311,0.027 -1.208,0.297 -0.775,-0.676 -0.699,-1.947 -0.013,-0.09 0.031,-0.095 0.153,-0.175 0.082,-0.072 0.328,-0.167 0.073,-0.081 0.018,-0.077 -0.487,-0.504 -0.072,-0.032 -0.158,0 -2.24,0.189 -0.306,0.099 -0.437,0.271 -0.204,0.103 -0.126,0.022 -0.572,-0.171 -2.497,-0.964 -0.193,-0.099 -0.429,-0.532 -0.036,-0.054 -0.018,-0.063 0.149,-1.781 0.036,-0.094 0.004,-0.081 -0.022,-0.068 -0.091,-0.058 -0.477,-0.212 -0.126,-0.023 -0.064,0.031 -0.063,0.059 -0.288,0.428 0.077,-1.144 4.489,0.288 7.865,0.437"
   id="38055"
   inkscape:label="McLean, ND"
   inkscape:connector-curvature="0" />
  <path
   style="fill:#72b3dc;stroke:#c2dffb;stroke-width:1"
   d="m 25.653,2.068 11.278,0.577 -0.158,3.57 0.32,0.014 -0.1,2.212 L 35.862,8.4 34.74,8.351 34.79,7.233 31.418,7.062 29.151,6.949 29.093,8.058 25.708,7.86 25.446,5.625 25.653,2.068"
   id="38009"
   inkscape:label="Bottineau, ND"
   inkscape:connector-curvature="0" />
  <path
   style="fill:#72b3dc;stroke:#c2dffb;stroke-width:1"
   d="m 35.862,8.4 -0.094,2.209 0.157,1.501 -0.018,2.979 0.199,0.753 0.044,1.487 -3.384,-0.153 -3.371,-0.185 0.121,-2.221 -0.108,-0.005 -0.225,-1.01 -0.005,-2.312 -0.203,-1.168 0.118,-2.217 0.058,-1.109 2.267,0.113 3.372,0.171 -0.05,1.118 1.122,0.049"
   id="38049"
   inkscape:label="McHenry, ND"
   inkscape:connector-curvature="0" />
  <path
   style="fill:#72b3dc;stroke:#c2dffb;stroke-width:1"
   d="m 36.15,17.329 1.127,0.054 -0.099,2.222 0.32,0.014 -0.189,4.435 -0.708,-0.027 -4.934,-0.234 0.184,-3.782 0.045,-0.654 0.767,0.037 0.103,-2.218 3.384,0.153"
   id="38083"
   inkscape:label="Sheridan, ND"
   inkscape:connector-curvature="0" />
  <path
   style="fill:#72b3dc;stroke:#c2dffb;stroke-width:1"
   d="m 36.601,24.027 -0.202,4.426 0.351,0.013 -0.248,4.467 -5.169,-0.253 -0.622,-0.315 -0.438,-0.433 -0.392,-0.775 -0.54,-1.988 -0.203,-0.842 -0.014,-0.239 -0.14,-2.24 1.902,0.09 0.113,-2.182 0.668,0.037 4.934,0.234"
   id="38015"
   inkscape:label="Burleigh, ND"
   inkscape:connector-curvature="0" />
  <path
   style="fill:#72b3dc;stroke:#c2dffb;stroke-width:1"
   d="m 36.502,32.933 1.474,0.067 0.149,4.512 -0.198,4.386 -5.567,-0.271 -0.112,-0.004 -0.807,-1.565 -0.036,-0.13 -0.09,-0.802 0.004,-0.149 0.108,-0.257 0.248,-0.37 0.167,-0.171 0.139,-0.284 0.037,-0.121 0.14,-1.177 -0.005,-0.387 -0.063,-0.239 -0.171,-0.451 -0.077,-0.154 -0.054,-0.148 -0.009,-0.113 0.135,-0.572 0.081,-0.162 0.275,-0.415 -0.247,-0.55 -0.172,-0.302 -0.518,-0.424 5.169,0.253"
   id="38029"
   inkscape:label="Emmons, ND"
   inkscape:connector-curvature="0" />
  <path
   style="fill:#72b3dc;stroke:#c2dffb;stroke-width:1"
   d="m 38.125,37.512 7.531,0.27 0.307,0.014 -0.163,4.413 -6.413,-0.244 -1.46,-0.067 0.198,-4.386"
   id="38051"
   inkscape:label="McIntosh, ND"
   inkscape:connector-curvature="0" />
  <path
   style="fill:#72b3dc;stroke:#c2dffb;stroke-width:1"
   d="m 37.976,33 4.151,0.176 3.678,0.144 -0.149,4.462 -7.531,-0.27 L 37.976,33"
   id="38047"
   inkscape:label="Logan, ND"
   inkscape:connector-curvature="0" />
  <path
   style="fill:#72b3dc;stroke:#c2dffb;stroke-width:1"
   d="m 36.601,24.027 0.708,0.027 4.868,0.194 -0.167,4.439 0.306,0.009 -0.189,4.48 L 37.976,33 36.502,32.933 36.75,28.466 36.399,28.453 36.601,24.027"
   id="38043"
   inkscape:label="Kidder, ND"
   inkscape:connector-curvature="0" />
  <path
   style="fill:#72b3dc;stroke:#c2dffb;stroke-width:1"
   d="m 37.277,17.383 2.249,0.091 4.494,0.175 -0.072,2.227 0.27,0.013 -0.036,1.091 -0.117,3.335 -1.888,-0.067 -4.868,-0.194 0.189,-4.435 -0.32,-0.014 0.099,-2.222"
   id="38103"
   inkscape:label="Wells, ND"
   inkscape:connector-curvature="0" />
  <path
   style="fill:#72b3dc;stroke:#c2dffb;stroke-width:1"
   d="m 36.993,8.441 5.644,0.234 -0.077,2.218 -3.07,-0.121 -0.193,4.466 0.315,0.014 -0.086,2.222 -2.249,-0.091 -1.127,-0.054 -0.044,-1.487 -0.199,-0.753 0.018,-2.979 -0.157,-1.501 0.094,-2.209 1.131,0.041"
   id="38069"
   inkscape:label="Pierce, ND"
   inkscape:connector-curvature="0" />
  <path
   style="fill:#72b3dc;stroke:#c2dffb;stroke-width:1"
   d="m 36.993,8.441 0.1,-2.212 -0.32,-0.014 0.158,-3.57 5.642,0.226 -0.139,3.583 0.288,0.008 -0.085,2.213 -5.644,-0.234"
   id="38079"
   inkscape:label="Rolette, ND"
   inkscape:connector-curvature="0" />
  <path
   style="fill:#72b3dc;stroke:#c2dffb;stroke-width:1"
   d="m 42.573,2.871 4.516,0.153 -0.086,2.294 -0.026,1.293 0.252,0.01 -0.067,2.217 -0.077,2.217 -1.988,-0.067 -2.537,-0.095 0.077,-2.218 0.085,-2.213 -0.288,-0.008 0.139,-3.583"
   id="38095"
   inkscape:label="Towner, ND"
   inkscape:connector-curvature="0" />
  <path
   style="fill:#72b3dc;stroke:#c2dffb;stroke-width:1"
   d="m 42.56,10.893 2.537,0.095 -0.09,2.749 0.063,0.086 1.785,2.005 0.307,-0.067 1.681,0.184 1.081,1.001 0.866,0.041 -0.018,0.878 -6.752,-0.216 -4.494,-0.175 0.086,-2.222 -0.315,-0.014 0.193,-4.466 3.07,0.121"
   id="38005"
   inkscape:label="Benson, ND"
   inkscape:connector-curvature="0" />
  <path
   style="fill:#72b3dc;stroke:#c2dffb;stroke-width:1"
   d="m 44.02,17.649 6.752,0.216 0.162,2.231 -0.027,1.091 -6.725,-0.207 0.036,-1.091 -0.27,-0.013 0.072,-2.227"
   id="38027"
   inkscape:label="Eddy, ND"
   inkscape:connector-curvature="0" />
  <path
   style="fill:#72b3dc;stroke:#c2dffb;stroke-width:1"
   d="m 44.182,20.98 6.725,0.207 -0.081,3.34 -6.761,-0.212 0.117,-3.335"
   id="38031"
   inkscape:label="Foster, ND"
   inkscape:connector-curvature="0" />
  <path
   style="fill:#72b3dc;stroke:#c2dffb;stroke-width:1"
   d="m 42.177,24.248 1.888,0.067 6.761,0.212 0.252,1.109 -0.085,3.349 0.247,0.004 -0.112,4.475 -5.323,-0.144 -3.678,-0.144 0.189,-4.48 -0.306,-0.009 0.167,-4.439"
   id="38093"
   inkscape:label="Stutsman, ND"
   inkscape:connector-curvature="0" />
  <path
   style="fill:#72b3dc;stroke:#c2dffb;stroke-width:1"
   d="m 51.128,33.464 3.61,0.091 -0.104,4.475 -8.671,-0.234 -0.307,-0.014 0.149,-4.462 5.323,0.144"
   id="38045"
   inkscape:label="LaMoure, ND"
   inkscape:connector-curvature="0" />
  <path
   style="fill:#72b3dc;stroke:#c2dffb;stroke-width:1"
   d="m 45.963,37.796 8.671,0.234 0.257,0.005 -0.113,4.457 -6.449,-0.193 -2.529,-0.09 0.163,-4.413"
   id="38021"
   inkscape:label="Dickey, ND"
   inkscape:connector-curvature="0" />
  <path
   style="fill:#72b3dc;stroke:#c2dffb;stroke-width:1"
   d="m 54.891,38.035 6.499,0.117 0.19,0.005 -0.041,2.888 0.072,0.798 0.189,0.78 -6.756,-0.122 -0.266,-0.009 0.113,-4.457"
   id="38081"
   inkscape:label="Sargent, ND"
   inkscape:connector-curvature="0" />
  <path
   style="fill:#72b3dc;stroke:#c2dffb;stroke-width:1"
   d="m 54.738,33.555 3.137,0.072 3.579,0.063 -0.064,4.462 -6.499,-0.117 -0.257,-0.005 0.104,-4.475"
   id="38073"
   inkscape:label="Ransom, ND"
   inkscape:connector-curvature="0" />
  <path
   style="fill:#72b3dc;stroke:#c2dffb;stroke-width:1"
   d="m 55.549,25.74 2.249,0.049 -0.031,2.055 0.189,1.303 -0.081,4.48 -3.137,-0.072 -3.61,-0.091 0.112,-4.475 -0.247,-0.004 0.085,-3.349 4.471,0.104"
   id="38003"
   inkscape:label="Barnes, ND"
   inkscape:connector-curvature="0" />
  <path
   style="fill:#72b3dc;stroke:#c2dffb;stroke-width:1"
   d="m 55.455,20.205 0.094,5.535 -4.471,-0.104 -0.252,-1.109 0.108,-4.431 4.521,0.109"
   id="38039"
   inkscape:label="Griggs, ND"
   inkscape:connector-curvature="0" />
  <path
   style="fill:#72b3dc;stroke:#c2dffb;stroke-width:1"
   d="m 55.455,20.205 0.897,0.018 3.591,0.068 0.104,5.547 -2.249,-0.049 -2.249,-0.049 -0.094,-5.535"
   id="38091"
   inkscape:label="Steele, ND"
   inkscape:connector-curvature="0" />
  <path
   style="fill:#72b3dc;stroke:#c2dffb;stroke-width:1"
   d="m 52.917,13.458 3.385,0.076 -0.045,2.227 0.184,0.005 0,0.018 -0.089,4.439 -0.897,-0.018 -4.521,-0.109 -0.162,-2.231 0.018,-0.878 0.04,-1.357 0.897,0.023 0.063,-2.218 1.127,0.023"
   id="38063"
   inkscape:label="Nelson, ND"
   inkscape:connector-curvature="0" />
  <path
   style="fill:#72b3dc;stroke:#c2dffb;stroke-width:1"
   d="m 52.804,9 -0.04,1.497 0.212,0.73 -0.059,2.231 -1.127,-0.023 -0.063,2.218 -0.897,-0.023 -0.04,1.357 -0.866,-0.041 -1.081,-1.001 -1.681,-0.184 -0.307,0.067 -1.785,-2.005 -0.063,-0.086 0.09,-2.749 1.988,0.067 L 47.162,8.838 52.804,9"
   id="38071"
   inkscape:label="Ramsey, ND"
   inkscape:connector-curvature="0" />
  <path
   style="fill:#72b3dc;stroke:#c2dffb;stroke-width:1"
   d="M 47.089,3.024 56.104,3.249 56.036,6.85 56.23,6.855 56.185,9.086 52.804,9 47.162,8.838 47.229,6.621 46.977,6.611 47.003,5.318 47.089,3.024"
   id="38019"
   inkscape:label="Cavalier, ND"
   inkscape:connector-curvature="0" />
  <path
   style="fill:#72b3dc;stroke:#c2dffb;stroke-width:1"
   d="m 56.104,3.249 6.197,0.099 -0.041,0.041 -0.04,0.189 -0.01,0.19 0.05,0.27 0.622,2.032 0.167,0.496 0.379,0.861 L 62.796,9.18 62.837,9.203 56.185,9.086 56.23,6.855 56.036,6.85 56.104,3.249"
   id="38067"
   inkscape:label="Pembina, ND"
   inkscape:connector-curvature="0" />
  <path
   style="fill:#72b3dc;stroke:#c2dffb;stroke-width:1"
   d="m 52.804,9 3.381,0.086 6.652,0.117 0.068,0.036 0.202,0.248 0.055,3.074 -0.284,1.095 -6.576,-0.122 -3.385,-0.076 0.059,-2.231 -0.212,-0.73 L 52.804,9"
   id="38099"
   inkscape:label="Walsh, ND"
   inkscape:connector-curvature="0" />
  <path
   style="fill:#72b3dc;stroke:#c2dffb;stroke-width:1"
   d="m 62.878,13.656 -0.005,0.262 0,0.031 0.203,0.784 0.839,3.024 1.135,2.592 -5.107,-0.058 -3.591,-0.068 0.089,-4.439 0,-0.018 -0.184,-0.005 0.045,-2.227 6.576,0.122"
   id="38035"
   inkscape:label="Grand Forks, ND"
   inkscape:connector-curvature="0" />
  <path
   style="fill:#72b3dc;stroke:#c2dffb;stroke-width:1"
   d="m 59.943,20.291 5.107,0.058 0.302,2.222 0.158,3.353 -5.463,-0.086 -0.104,-5.547"
   id="38097"
   inkscape:label="Traill, ND"
   inkscape:connector-curvature="0" />
  
  
  
  
  
  
  
  
  
  
  
  
  
  
  
  
  
  
  
  
  
  
  
  
  
  
  
  
  
  
  
  
  
  
  
  
  
  
  
  
  
  
  
  
  
  
  
  
  
  
  
  
  
  
  
  
  
  
  
  
  
  
  
  
  
  
  
  
  
  
  
  
  
  
  
  
  
  
  
  
  
  
  
  
  
  
  
  
  
  
  
  
  
  
  
  
  
  
  
  
  
  
  
  
  
  
  
  
  
  
  
  
  
  
  
  
  
  
  
  
  
  
  
  
  
  
  
  
  
  
  
  
  
  
  
  
  
  
  
  
  
  
  
  
  
  
  
  
  
  
  
  
  
  
  
  
  
  
  
  
  
  
  
  
  
  
  
  
  
  
  
  
  
  
  
  
  
  
  
  
  
  
  
  
  
  
  
  
  
  
  
  
  
  
  
  
  
  
  
  
  
  
  
  
  
  
  
  
  
  
  
  
  
  
  
  
  
  
  
  
  
  
  
  
  
  
  
  
  
  
  
  
  
  
  
  
  
  
  
  
  
  
  
  
  
  
  
  
  
  
  
  
  
  
  
  
  
  
  
  
  
  
  
  
  
  
  
  
  
  
  
  
  
  
  
  
  
  
  
  
  
  
  
  
  
  
  
  
  
  
  
  
  
  
  
  
  
  
  
  
  
  
  
  
  
  
  
  
  
  
  
  
  
  
  
  
  
  
  
  
  
  
  
  
  
  
  
  
  
  
  
  
  
  
  
  
  
  
  
  
  
  
  
  
  
  
  
  
  
  
  
  
  
  
  
  
  
  
  
  
  
  
  
  
  
  
  
  
  
  
  
  
  
  
  
  
  
  
  
  
  
  
  
  
  
  
  
  
  
  
  
  
  
  
  
  
  
  
  
  
  
  
  
  
  
  
  
  
  
  
  
  
  
  
  
  
  
  
  
  
  
  
  
  
  
  
  
  
  
  
  
  
  
  
  
  
  
  
  
  
  
  
  
  
  
  
  
  
  
  
  
  
  
  
  
  
  
  
  
  
  
  
  
  
  
  
  
  
  
  
  
  
  
  
  
  
  
  
  
  
  
  
  
  
  
  
  
  
  
  
  
  
  
  
  
  
  
  
  
  
  
  
  
  
  
  
  
  
  
  
  
  
  
  
  
  
  
  
  
  
  
  
  
  
  
  
  
  
  
  
  
  
  
  
  
  
  
  
  
  
  
  
  
  
  
  
  
  
  
  
  
  
  
  
  
  
  
  
  
  
  
  
  
  
  
  
  
  
  
  
  
  
  
  
  
  
  
  
  
  
  
  
  
  
  
  
  
  
  
  
  
  
  
  
  
  
  
  
  
  
  
  
  
  
  
  
  
  
  
  
  
  
  
  
  
  
  
  
  
  
  
  
  
  
  
  
  
  
  
  
  
  
  
  
  
  
  
  
  
  
  
  
  
  
  
  
  
  
  
  
  
  
  
  
  
  
  
  
  
  
  
  
  
  
  
  
  
  
  
  
  
  
  
  
  
  
  
  
  
  
  
  
  
  
  
  
  
  
  
  
  
  
  
  
  
  
  
  
  
  
  
  
  
  
  
  
  
  
  
  
  
  
  
  
  
  
  
  
  
  
  
  
  
  
  
  
  
  
  
  
  
  
  
  
  
  
  
  
  
  
  
  
  
  
  
  
  
  
  
  
  
  
  
  
  
  
  
  
  
  
  
  
  
  
  
  
  
  
  
  
  
  
  
  
  
  
  
  
  
  
  
  
  
  
  
  
  
  
  
  
  
  
  
  
  
  
  
  
  
  
  
  
  
  
  
  
  
  
  
  
  
  
  
  
  
  
  
  
  
  
  
  
  
  
  
  
  
  
  
  
  
  
  
  
  
  
  
  
  
  
  
  
  
  
  
  
  
  
  
  
  
  
  
  
  
  
  
  
  
  
  
  
  
  
  
  
  
  
  
  
  
  
  
  
  
  
  
  
  
  
  
  
  
  
  
  
  
  
  
  
  
  
  
  
  
  
  
  
  
  
  
  
  
  
  
  
  
  
  
  
  
  
  
  
  
  
  
  
  
  
  
  
  
  
  
  
  
  
  
  
  
  
  
  
  
  
  
  
  
  
  
  
  
  
  
  
  
  
  
  
  
  
  
  
  
  
  
  
  
  
  
  
  
  
  
  
  
  
  
  
  
  
  
  
  
  
  
  
  
  
  
  
  
  
  
  
  
  
  
  
  
  
  
  
  
  
  
  
  
  
  
  
  
  
  
  
  
  
  
  
  
  
  
  
  
  
  
  
  
  
  
  
  
  
  
  
  
  
  
  
  
  
  
  
  
  
  
  
  
  
  
  
  
  
  
  
  
  
  
  
  
  
  
  
  
  
  
  
  
  
  
  
  
  
  
  
  
  
  
  
  
  
  
  
  
  
  
  
  
  
  
  
  
  
  
  
  
  
  
  
  
  
  
  
  
  
  
  
  
  
  
  
  
  
  
  
  
  
  
  
  
  
  
  
  
  
  
  
  
  
  
  
  
  
  
  
  
  
  
  
  
  
  
  
  
  
  
  
  
  
  
  
  
  
  
  
  
  
  
  
  
  
  
  
  
  
  
  
  
  
  
  
  
  
  
  
  
  
  
  
  
  
  
  
  
  
  
  
  
  
  
  
  
  
  
  
  
  
  
  
  
  
  
  
  
  
  
  
  
  
  
  
  
  
  
  
  
  
  
  
  
  
  
  
  
  
  
  
  
  
  
  
  
  
  
  
  
  
  
  
  
  
  
  
  
  
  
  
  
  
  
  
  
  
  
  
  
  
  
  
  
  
  
  
  
  
  
  
  
  
  
  
  
  
  
  
  
  
  
  
  
  
  
  
  
  
  
  
  
  
  
  
  
  
  
  
  
  
  
  
  
  
  
  
  
  
  
  
  
  
  
  
  
  
  
  
  
  
  
  
  
  
  
  
  
  
  
  
  
  
  
  
  
  
  
  
  
  
  
  
  
  
  
  
  
  
  
  
  
</svg>