<?xml version="1.0" encoding="UTF-8" standalone="no"?>
<!--?xml version="1.0" encoding="UTF-8" standalone="no"?-->

<svg
   xmlns:dc="http://purl.org/dc/elements/1.1/"
   xmlns:cc="http://creativecommons.org/ns#"
   xmlns:rdf="http://www.w3.org/1999/02/22-rdf-syntax-ns#"
   xmlns:svg="http://www.w3.org/2000/svg"
   xmlns="http://www.w3.org/2000/svg"
   xmlns:sodipodi="http://sodipodi.sourceforge.net/DTD/sodipodi-0.dtd"
   xmlns:inkscape="http://www.inkscape.org/namespaces/inkscape"
   width="92.644745"
   height="46.680454"
   viewBox="0 0 85.637999 42.6408"
   preserveAspectRatio="xMinYMin meet"
   xml:space="preserve"
   id="svg2039"
   version="1.1"
   inkscape:version="0.48.2 r9819"
   sodipodi:docname="NE.svg"><metadata
   id="metadata2138"><rdf:RDF><cc:Work
       rdf:about=""><dc:format>image/svg+xml</dc:format><dc:type
         rdf:resource="http://purl.org/dc/dcmitype/StillImage" /></cc:Work></rdf:RDF></metadata><defs
   id="defs2136" /><sodipodi:namedview
   pagecolor="#ffffff"
   bordercolor="#666666"
   borderopacity="1"
   objecttolerance="10"
   gridtolerance="10"
   guidetolerance="10"
   inkscape:pageopacity="0"
   inkscape:pageshadow="2"
   inkscape:window-width="640"
   inkscape:window-height="480"
   id="namedview2134"
   showgrid="false"
   inkscape:zoom="0.56730769"
   inkscape:cx="64.752249"
   inkscape:cy="-46.151345"
   inkscape:window-x="0"
   inkscape:window-y="0"
   inkscape:window-maximized="0"
   inkscape:current-layer="svg2039" />
  
  
  
  
  
  
  
  
  
  
  
  
  
  
  
  
  
  
  
  
  
  
  
  
  
  
  
  
  
  
  
  
  
  
  
  
  
  
  
  
  
  
  
  
  
  
  
  
  
  
  
  
  
  
  
  
  
  
  
  
  
  
  
  
  
  
  
  
  
  
  
  
  
  
  
  
  
  
  
  
  
  
  
  
  
  
  
  
  
  
  
  
  
  
  
  
  
  
  
  
  
  
  
  
  
  
  
  
  
  
  
  
  
  
  
  
  
  
  
  
  
  
  
  
  
  
  
  
  
  
  
  
  
  
  
  
  
  
  
  
  
  
  
  
  
  
  
  
  
  
  
  
  
  
  
  
  
  
  
  
  
  
  
  
  
  
  
  
  
  
  
  
  
  
  
  
  
  
  
  
  
  
  
  
  
  
  
  
  
  
  
  
  
  
  
  
  
  
  
  
  
  
  
  
  
  
  
  
  
  
  
  
  
  
  
  
  
  
  
  
  
  
  
  
  
  
  
  
  
  
  
  
  
  
  
  
  
  
  
  
  
  
  
  
  
  
  
  
  
  
  
  
  
  
  
  
  
  
  
  
  
  
  
  
  
  
  
  
  
  
  
  
  
  
  
  
  
  
  
  
  
  
  
  
  
  
  
  
  
  
  
  
  
  
  
  
  
  
  
  
  
  
  
  
  
  
  
  
  
  
  
  
  
  
  
  
  
  
  
  
  
  
  
  
  
  
  
  
  
  
  
  
  
  
  
  
  
  
  
  
  
  
  
  
  
  
  
  
  
  
  
  
  
  
  
  
  
  
  
  
  
  
  
  
  
  
  
  
  
  
  
  
  
  
  
  
  
  
  
  
  
  
  
  
  
  
  
  
  
  
  
  
  
  
  
  
  
  
  
  
  
  
  
  
  
  
  
  
  
  
  
  
  
  
  
  
  
  
  
  
  
  
  
  
  
  
  
  
  
  
  
  
  
  
  
  
  
  
  
  
  
  
  
  
  
  
  
  
  
  
  
  
  
  
  
  
  
  
  
  
  
  
  
  
  
  
  
  
  
  
  
  
  
  
  
  
  
  
  
  
  
  
  
  
  
  
  
  
  
  
  
  
  
  
  
  
  
  
  
  
  
  
  
  
  
  
  
  
  
  
  
  
  
  
  
  
  
  
  
  
  
  
  
  
  
  
  
  
  
  
  
  
  
  
  
  
  
  
  
  
  
  
  
  
  
  
  
  
  
  
  
  
  
  
  
  
  
  
  
  
  
  
  
  
  
  
  
  
  
  
  
  
  
  
  
  
  
  
  
  
  
  
  
  
  
  
  
  
  
  
  
  
  
  
  
  
  
  
  
  
  
  
  
  
  
  
  
  
  
  
  
  
  
  
  
  
  
  
  
  
  
  
  
  
  
  
  
  
  
  
  
  
  
  
  
  
  
  
  
  
  
  
  
  
  
  
  
  
  
  
  
  
  
  
  
  
  
  
  
  
  
  
  
  
  
  
  
  
  
  
  
  
  
  
  
  
  
  
  
  
  
  
  
  
  
  
  
  
  
  
  
  
  
  
  
  
  
  
  
  
  
  
  
  
  
  
  
  
  
  
  
  
  
  
  
  
  
  
  
  
  
  
  
  
  
  
  
  
  
  
  
  
  
  
  
  
  
  
  
  
  
  
  
  
  
  
  
  
  
  
  
  
  
  
  
  
  
  
  
  
  
  
  
  
  
  
  
  
  
  
  
  
  
  
  
  
  
  
  
  
  
  
  
  
  
  
  
  
  
  
  
  
  
  
  
  
  
  
  
  
  
  
  
  
  
  
  
  
  
  
  
  
  
  
  
  
  
  
  
  
  
  
  
  
  
  
  
  
  
  
  
  
  
  
  
  
  
  
  
  
  
  
  
  
  
  
  
  
  
  
  
  
  
  
  
  
  
  
  
  
  
  
  
  
  
  
  
  
  
  
  
  
  
  
  
  
  
  
  
  
  
  
  
  
  
  
  
  
  
  
  
  
  
  
  
  
  
  
  
  
  
  
  
  
  
  
  
  
  
  
  
  
  
  
  
  
  
  
  
  
  
  
  
  
  
  
  
  
  
  
  
  
  
  
  
  
  
  
  
  
  
  
  
  
  
  
  
  
  
  
  
  
  
  
  
  
  
  
  
  
  
  
  
  
  
  
  
  
  
  
  
  
  
  
  
  
  
  
  
  
  
  
  
  
  
  
  
  
  
  
  
  
  
  
  
  
  
  
  
  
  
  
  
  
  
  
  
  
  
  
  
  
  
  
  
  
  
  
  
  
  
  
  
  
  
  
  
  
  
  
  
  
  
  
  
  
  
  
  
  
  
  
  
  
  
  
  
  
  
  
  
  
  
  
  
  
  
  
  
  
  
  
  
  
  
  
  
  
  
  
  
  
  
  
  
  
  
  
  
  
  
  
  
  
  
  
  
  
  
  
  
  
  
  
  
  
  
  
  
  
  
  
  
  
  
  
  
  
  
  
  
  
  
  
  
  
  
  
  
  
  
  
  
  
  
  
  
  
  
  
  
  
  
  
  
  
  
  
  
  
  
  
  
  
  
  
  
  
  
  
  
  
  
  
  
  
  
  
  
  
  
  
  
  
  
  
  
  
  
  
  
  
  
  
  
  
  
  
  
  
  
  
  
  
  
  
  
  
  
  
  
  
  
  
  
  
  
  
  
  
  
  
  
  
  
  
  
  
  
  
  
  
  
  
  
  
  
  
  
  
  
  
  
  
  
  
  
  
  
  
  
  
  
  
  
  
  
  
  
  
  
  
  
  
  
  
  
  
  
  
  
  
  
  
  
  
  
  
  
  
  
  
  
  
  
  
  
  
  
  
  
  
  
  
  
  
  
  
  
  
  
  
  
  
  
  
  
  
  
  
  
  
  
  
  
  
  
  
  
  
  
  
  
  
  
  
  
  
  
  
  
  
  
  
  
  
  
  
  
  
  
  
  
  
  
  
  
  
  
  
  
  
  
  
  
  
  
  
  
  
  
  
  
  
  
  
  
  
  
  
  
  
  
  
  
  
  
  
  
  
  
  
  
  
  
  
  
  
  
  
  
  
  
  
  
  
  
  
  
  
  
  
  
  
  
  
  
  
  
  
  
  
  
  
  
  
  
  
  
  
  
  
  
  
  
  
  
  
  
  
  
  
  
  
  
  
  
  
  
  
  
  
  
  
  
  
  
  
  
  
  
  
  
  
  
  
  
  
  
  
  
  
  
  
  
  
  
  
  
  
  
  
  
  
  
  
  
  
  
  
  
  
  
  
  
  
  
  
  
  
  
  
  
  
  
  
  
  
  
  
  
  
  
  
  
  
  
  
  
  
  
  
  
  
  
  
  
  
  
  
  
  
  
  
  
  
  
  
  
  
  
  
  
  
  
  
  
  
  
  
  
  
  
  
  
  
  
  
  
  
  
  
  
  
  
  
  
  
  
  
  
  
  
  
  
  
  
  
  
  
  
  
  
  
  
  
  
  
  
  
  
  
  
  
  
  
  
  
  
  
  
  
  
  
  
  
  
  
  
  
  
  
  
  
  
  
  
  
  
  
  
  
  
  
  
  
  
  
  
  
  
  
  
  
  
  
  
  
  
  
  
  
  
  
  
  
  
  
  
  
  
  
  
  
  
  
  
  
  
  
  
  
  
  
  
  
  
  
  
  
  
  
  
  
  
  
  
  
  
  
  
  
  
  
  
  
  
  
  
  
  
  
  
  
  
  
  
  
  
  
  
  
  
  
  
  
  
  
  
  
  
  
  
  
  
  
  
  
  
  
  
  
  
  
  
  
  
  
  
  
  
  
  
  
  
  
  
  
  
  
  
  
  
  
  
  
  
  
  
  
  
  
  
  
  
  
  
  
  
  
  
  
  
  
  
  
  
  
  
  
  
  
  
  
  
  
  
  
  
  
  
  
  
  
  
  
  
  
  
  
  
  
  
  
  
  
  
  
  
  
  
  
  
  
  
  
  
  
  
  
  
  
  
  
  
  
  
  
  
  
  
  
  
  
  
  
  
  
  
  
  
  
  
  
  <path
   style="fill:#72b3dc;stroke:#c2dffb;stroke-width:1"
   d="M 7.832,0.92 12.56,1.285 14.516,1.434 14.314,4.209 14.44,4.963 14.178,8.689 7.828,8.248 7.494,8.221 7.841,3.727 7.76,3.223 7.738,2.23 7.832,0.92"
   id="31045"
   inkscape:label="Dawes, NE"
   inkscape:connector-curvature="0" />
  <path
   style="fill:#72b3dc;stroke:#c2dffb;stroke-width:1"
   d="M 7.832,0.92 7.738,2.23 7.76,3.223 7.841,3.727 7.494,8.221 7.828,8.248 7.481,12.728 7.882,12.764 7.796,13.887 1.604,13.408 2.695,0.5 7.832,0.92"
   id="31165"
   inkscape:label="Sioux, NE"
   inkscape:connector-curvature="0" />
  <path
   style="fill:#72b3dc;stroke:#c2dffb;stroke-width:1"
   d="m 78.247,39.261 4.48,-0.018 2.411,3.39 -0.311,0 -4.399,0.017 -2.186,0 0.005,-3.389"
   id="31147"
   inkscape:label="Richardson, NE"
   inkscape:connector-curvature="0" />
  <path
   style="fill:#72b3dc;stroke:#c2dffb;stroke-width:1"
   d="m 73.816,39.239 3.881,0.013 0.55,0.009 -0.005,3.389 -2.24,-0.004 -2.203,-0.013 0.017,-3.394"
   id="31133"
   inkscape:label="Pawnee, NE"
   inkscape:connector-curvature="0" />
  <path
   style="fill:#72b3dc;stroke:#c2dffb;stroke-width:1"
   d="m 77.697,35.858 3.479,-0.013 0.127,-0.275 0.365,0.324 -0.212,0.379 -0.112,0.104 0.054,0.229 0.635,1.596 0.681,0.663 0.026,0.067 -0.003,0.023 0,0.018 -0.01,0.234 0,0.036 -4.48,0.018 -0.55,-0.009 0,-3.394"
   id="31127"
   inkscape:label="Nemaha, NE"
   inkscape:connector-curvature="0" />
  <path
   style="fill:#72b3dc;stroke:#c2dffb;stroke-width:1"
   d="m 77.697,35.858 0,3.394 -3.881,-0.013 0.014,-3.386 3.867,0.005"
   id="31097"
   inkscape:label="Johnson, NE"
   inkscape:connector-curvature="0" />
  <path
   style="fill:#72b3dc;stroke:#c2dffb;stroke-width:1"
   d="m 79.761,32.473 0.87,2.579 0.545,0.793 -3.479,0.013 -3.867,-0.005 0.013,-3.393 5.918,0.013"
   id="31131"
   inkscape:label="Otoe, NE"
   inkscape:connector-curvature="0" />
  <path
   style="fill:#72b3dc;stroke:#c2dffb;stroke-width:1"
   d="m 75.263,29.075 0.072,0.112 0.14,0.127 0.712,0.406 0.086,0.013 0.261,-0.099 0.288,-0.144 0.149,-0.117 0.1,-0.135 0.216,-0.204 0.095,-0.062 0.423,-0.158 0.217,-0.005 1.324,0.082 0.073,0.012 0.216,0.154 0.429,1.884 -0.303,1.532 -5.918,-0.013 0.018,-3.015 1.402,-0.37"
   id="31025"
   inkscape:label="Cass, NE"
   inkscape:connector-curvature="0" />
  <path
   style="fill:#72b3dc;stroke:#c2dffb;stroke-width:1"
   d="m 75.187,27.191 3.903,-0.009 0.676,0.406 -0.131,1.469 -0.216,-0.154 -0.073,-0.012 -1.324,-0.082 -0.217,0.005 -0.423,0.158 -0.095,0.062 -0.216,0.204 -0.1,0.135 -0.149,0.117 -0.288,0.144 -0.261,0.099 -0.086,-0.013 -0.712,-0.406 -0.14,-0.127 -0.072,-0.112 -0.076,-1.884"
   id="31153"
   inkscape:label="Sarpy, NE"
   inkscape:connector-curvature="0" />
  <path
   style="fill:#72b3dc;stroke:#c2dffb;stroke-width:1"
   d="m 73.816,24.546 1.366,0.009 3.764,0.004 0.144,2.623 -3.903,0.009 -1.371,-2.645"
   id="31055"
   inkscape:label="Douglas, NE"
   inkscape:connector-curvature="0" />
  <path
   style="fill:#72b3dc;stroke:#c2dffb;stroke-width:1"
   d="m 74.087,20.778 3.096,0.023 1.344,2.28 0.419,1.478 -3.764,-0.004 -0.924,-1.159 -0.09,-0.234 -0.086,-0.311 0.005,-2.073"
   id="31177"
   inkscape:label="Washington, NE"
   inkscape:connector-curvature="0" />
  <path
   style="fill:#72b3dc;stroke:#c2dffb;stroke-width:1"
   d="m 75.745,16.068 1.267,2.353 0.171,2.38 -3.096,-0.023 -1.055,-0.762 0.022,-3.556 2.691,-0.392"
   id="31021"
   inkscape:label="Burt, NE"
   inkscape:connector-curvature="0" />
  <path
   style="fill:#72b3dc;stroke:#c2dffb;stroke-width:1"
   d="m 71.441,13.049 3.633,0.04 -0.118,0.798 0.789,2.181 -2.691,0.392 -2.559,-0.983 0.035,-2.258 0.911,-0.17"
   id="31173"
   inkscape:label="Thurston, NE"
   inkscape:connector-curvature="0" />
  <path
   style="fill:#72b3dc;stroke:#c2dffb;stroke-width:1"
   d="m 72.325,9.861 1.821,0.465 0.324,0.023 0.126,0.049 0.1,0.139 0.04,0.149 0.004,0.199 -0.067,0.179 0.112,1.484 0.289,0.541 -3.633,-0.04 0.884,-3.188"
   id="31043"
   inkscape:label="Dakota, NE"
   inkscape:connector-curvature="0" />
  <path
   style="fill:#72b3dc;stroke:#c2dffb;stroke-width:1"
   d="m 68.759,6.793 1.975,0.738 0.77,0.487 0.104,0.235 0.054,0.216 -0.036,0.152 -0.005,0.118 0.028,0.117 0.676,1.005 -0.884,3.188 -0.911,0.17 -1.843,-1.144 0.072,-5.282"
   id="31051"
   inkscape:label="Dixon, NE"
   inkscape:connector-curvature="0" />
  <path
   style="fill:#72b3dc;stroke:#c2dffb;stroke-width:1"
   d="m 65.365,12.025 3.322,0.05 1.843,1.144 -0.035,2.258 -1.862,-0.022 -3.326,-0.046 0.058,-3.384"
   id="31179"
   inkscape:label="Wayne, NE"
   inkscape:connector-curvature="0" />
  <path
   style="fill:#72b3dc;stroke:#c2dffb;stroke-width:1"
   d="m 60.867,15.351 0.086,-4.515 3.313,0.049 1.099,1.14 -0.058,3.384 -4.44,-0.058"
   id="31139"
   inkscape:label="Pierce, NE"
   inkscape:connector-curvature="0" />
  <path
   style="fill:#72b3dc;stroke:#c2dffb;stroke-width:1"
   d="m 64.351,5.49 0.586,-0.077 0.893,0.036 0.671,0.081 1.091,0.929 1.167,0.334 -0.072,5.282 -3.322,-0.05 -1.099,-1.14 0.085,-5.395"
   id="31027"
   inkscape:label="Cedar, NE"
   inkscape:connector-curvature="0" />
  <path
   style="fill:#72b3dc;stroke:#c2dffb;stroke-width:1"
   d="m 56.591,4.989 1.324,0.6 1.028,0.887 0.203,0.09 0.167,0.027 L 59.47,6.585 59.948,6.513 60.074,6.435 60.34,6.193 60.538,5.909 61.625,5.508 62.449,5.615 64.351,5.49 64.266,10.885 60.953,10.836 56.541,10.75 56.595,6.548 56.591,4.989"
   id="31107"
   inkscape:label="Knox, NE"
   inkscape:connector-curvature="0" />
  <path
   style="fill:#72b3dc;stroke:#c2dffb;stroke-width:1"
   d="m 73.032,20.016 1.055,0.762 -0.005,2.073 0.086,0.311 0.09,0.234 0.924,1.159 -1.366,-0.009 -4.178,-0.812 0,-0.013 0.032,-3.742 3.362,0.037"
   id="31053"
   inkscape:label="Dodge, NE"
   inkscape:connector-curvature="0" />
  <path
   style="fill:#72b3dc;stroke:#c2dffb;stroke-width:1"
   d="m 68.579,19.966 1.091,0.013 -0.032,3.742 -0.139,-0.004 -0.131,0.036 -1.443,0.698 -1.009,0.23 -0.636,-0.004 0.073,-4.738 2.226,0.027"
   id="31037"
   inkscape:label="Colfax, NE"
   inkscape:connector-curvature="0" />
  <path
   style="fill:#72b3dc;stroke:#c2dffb;stroke-width:1"
   d="m 68.633,15.455 1.862,0.022 2.559,0.983 -0.022,3.556 -3.362,-0.037 -1.091,-0.013 0.054,-4.511"
   id="31039"
   inkscape:label="Cuming, NE"
   inkscape:connector-curvature="0" />
  <path
   style="fill:#72b3dc;stroke:#c2dffb;stroke-width:1"
   d="m 68.633,15.455 -0.054,4.511 -2.226,-0.027 -1.109,-0.017 0.063,-4.513 3.326,0.046"
   id="31167"
   inkscape:label="Stanton, NE"
   inkscape:connector-curvature="0" />
  <path
   style="fill:#72b3dc;stroke:#c2dffb;stroke-width:1"
   d="m 60.867,15.351 4.44,0.058 -0.063,4.513 -4.43,-0.064 0.022,-2.259 0.031,-2.248"
   id="31119"
   inkscape:label="Madison, NE"
   inkscape:connector-curvature="0" />
  <path
   style="fill:#72b3dc;stroke:#c2dffb;stroke-width:1"
   d="m 60.867,15.351 -0.031,2.248 -4.417,-0.076 0.009,-2.257 0.113,-4.516 4.412,0.086 -0.086,4.515"
   id="31003"
   inkscape:label="Antelope, NE"
   inkscape:connector-curvature="0" />
  <path
   style="fill:#72b3dc;stroke:#c2dffb;stroke-width:1"
   d="m 56.419,17.523 4.417,0.076 -0.022,2.259 -0.046,2.803 -0.531,-0.004 -1.614,0.357 -0.455,0.184 -1.844,-0.041 0.041,-3.384 0.054,-2.25"
   id="31011"
   inkscape:label="Boone, NE"
   inkscape:connector-curvature="0" />
  <path
   style="fill:#72b3dc;stroke:#c2dffb;stroke-width:1"
   d="m 65.244,19.922 1.109,0.017 -0.073,4.738 -1.099,-0.235 -2.232,0.771 -1,-0.825 -1.181,-1.727 0.046,-2.803 4.43,0.064"
   id="31141"
   inkscape:label="Platte, NE"
   inkscape:connector-curvature="0" />
  <path
   style="fill:#72b3dc;stroke:#c2dffb;stroke-width:1"
   d="m 69.638,23.734 4.178,0.812 1.371,2.645 0.076,1.884 -1.402,0.37 0.005,-0.375 -4.305,-0.045 0.077,-5.291"
   id="31155"
   inkscape:label="Saunders, NE"
   inkscape:connector-curvature="0" />
  <path
   style="fill:#72b3dc;stroke:#c2dffb;stroke-width:1"
   d="m 69.539,29.025 -0.067,4.522 -4.422,-0.06 0.063,-4.524 4.426,0.062"
   id="31159"
   inkscape:label="Seward, NE"
   inkscape:connector-curvature="0" />
  <path
   style="fill:#72b3dc;stroke:#c2dffb;stroke-width:1"
   d="m 65.113,28.963 0.068,-4.521 1.099,0.235 0.636,0.004 1.009,-0.23 1.443,-0.698 0.131,-0.036 0.139,0.004 0,0.013 -0.077,5.291 -0.022,0 -4.426,-0.062"
   id="31023"
   inkscape:label="Butler, NE"
   inkscape:connector-curvature="0" />
  <path
   style="fill:#72b3dc;stroke:#c2dffb;stroke-width:1"
   d="m 62.949,25.213 2.232,-0.771 -0.068,4.521 -4.43,-0.072 0.013,-1.651 2.253,-2.027"
   id="31143"
   inkscape:label="Polk, NE"
   inkscape:connector-curvature="0" />
  <path
   style="fill:#72b3dc;stroke:#c2dffb;stroke-width:1"
   d="m 65.113,28.963 -0.063,4.524 -4.435,-0.081 -0.014,0 0.082,-4.515 4.43,0.072"
   id="31185"
   inkscape:label="York, NE"
   inkscape:connector-curvature="0" />
  <path
   style="fill:#72b3dc;stroke:#c2dffb;stroke-width:1"
   d="m 60.683,28.891 -0.082,4.515 -4.394,-0.09 -0.045,0 0.054,-2.258 0.478,-0.563 1.018,-1.015 1.204,-0.961 0.365,-0.254 0.054,0.084 0.014,0 0.211,-0.076 0.501,-0.239 0.121,-0.095 0.154,-0.174 0.279,-0.375 0.081,-0.15 -0.013,1.651"
   id="31081"
   inkscape:label="Hamilton, NE"
   inkscape:connector-curvature="0" />
  <path
   style="fill:#72b3dc;stroke:#c2dffb;stroke-width:1"
   d="m 56.324,23.157 1.844,0.041 0.455,-0.184 1.614,-0.357 0.531,0.004 1.181,1.727 -0.036,1.113 -1.375,-0.009 -1.469,0.153 -0.852,0.18 -0.415,0.173 -1.193,-0.024 -0.199,-0.004 0.054,-1.681 -0.122,-0.006 -0.049,0 0.031,-1.126"
   id="31125"
   inkscape:label="Nance, NE"
   inkscape:connector-curvature="0" />
  <path
   style="fill:#72b3dc;stroke:#c2dffb;stroke-width:1"
   d="m 56.342,24.283 0.122,0.006 -0.054,1.681 0.199,0.004 1.193,0.024 0.415,-0.173 0.852,-0.18 1.469,-0.153 1.375,0.009 0.036,-1.113 1,0.825 -2.253,2.027 -0.081,0.15 -0.279,0.375 -0.154,0.174 -0.121,0.095 -0.501,0.239 -0.211,0.076 -0.014,0 -0.054,-0.084 -0.365,0.254 -1.204,0.961 -1.018,1.015 -0.478,0.563 0.014,-2.262 0.112,-4.513"
   id="31121"
   inkscape:label="Merrick, NE"
   inkscape:connector-curvature="0" />
  <path
   style="fill:#72b3dc;stroke:#c2dffb;stroke-width:1"
   d="m 52.025,28.683 4.205,0.113 -0.014,2.262 -0.054,2.258 -4.263,-0.121 0.126,-4.512"
   id="31079"
   inkscape:label="Hall, NE"
   inkscape:connector-curvature="0" />
  <path
   style="fill:#72b3dc;stroke:#c2dffb;stroke-width:1"
   d="m 51.939,24.162 4.354,0.121 0.049,0 -0.112,4.513 -4.205,-0.113 -0.257,-0.009 0.171,-4.512"
   id="31093"
   inkscape:label="Howard, NE"
   inkscape:connector-curvature="0" />
  <path
   style="fill:#72b3dc;stroke:#c2dffb;stroke-width:1"
   d="m 51.867,24.162 0.072,0 -0.171,4.512 -4.44,-0.145 0.194,-4.502 4.345,0.135"
   id="31163"
   inkscape:label="Sherman, NE"
   inkscape:connector-curvature="0" />
  <path
   style="fill:#72b3dc;stroke:#c2dffb;stroke-width:1"
   d="M 47.743,3.219 54.85,3.427 56.591,4.989 56.595,6.548 55.108,6.444 54.093,6.255 52.552,5.733 51.705,5.44 50.749,4.891 50.519,4.656 50.406,4.619 50.258,4.615 50.15,4.641 48.523,5.317 47.707,5.666 47.635,5.724 47.743,3.219"
   id="31015"
   inkscape:label="Boyd, NE"
   inkscape:connector-curvature="0" />
  <path
   style="fill:#72b3dc;stroke:#c2dffb;stroke-width:1"
   d="m 47.635,5.724 0.072,-0.058 0.816,-0.349 1.627,-0.676 0.108,-0.026 0.148,0.004 0.113,0.037 0.23,0.235 0.956,0.549 0.847,0.293 1.541,0.522 1.015,0.189 1.487,0.104 -0.054,4.202 -0.113,4.516 -4.39,-0.114 -4.399,-0.131 -0.112,-0.004 0.144,-4.132 0.04,-4.453 -0.076,-0.708"
   id="31089"
   inkscape:label="Holt, NE"
   inkscape:connector-curvature="0" />
  <path
   style="fill:#72b3dc;stroke:#c2dffb;stroke-width:1"
   d="m 47.59,19.529 4.335,0.14 0.068,0 -0.126,4.493 -4.345,-0.135 0.068,-4.498"
   id="31175"
   inkscape:label="Valley, NE"
   inkscape:connector-curvature="0" />
  <path
   style="fill:#72b3dc;stroke:#c2dffb;stroke-width:1"
   d="m 56.365,19.773 -0.041,3.384 -0.031,1.126 -4.354,-0.121 -0.072,0 0.126,-4.493 4.372,0.104"
   id="31077"
   inkscape:label="Greeley, NE"
   inkscape:connector-curvature="0" />
  <path
   style="fill:#72b3dc;stroke:#c2dffb;stroke-width:1"
   d="m 56.428,15.266 -0.009,2.257 -0.054,2.25 -4.372,-0.104 -0.068,0 0.113,-4.517 4.39,0.114"
   id="31183"
   inkscape:label="Wheeler, NE"
   inkscape:connector-curvature="0" />
  <path
   style="fill:#72b3dc;stroke:#c2dffb;stroke-width:1"
   d="m 47.495,19.524 0.144,-4.503 4.399,0.131 -0.113,4.517 -4.335,-0.14 -0.095,-0.005"
   id="31071"
   inkscape:label="Garfield, NE"
   inkscape:connector-curvature="0" />
  <path
   style="fill:#72b3dc;stroke:#c2dffb;stroke-width:1"
   d="m 47.527,15.017 0.112,0.004 -0.144,4.503 -4.448,-0.157 0.171,-4.484 0.234,0.012 4.075,0.122"
   id="31115"
   inkscape:label="Loup, NE"
   inkscape:connector-curvature="0" />
  <path
   style="fill:#72b3dc;stroke:#c2dffb;stroke-width:1"
   d="m 47.527,15.017 -4.075,-0.122 0.162,-4.52 -0.117,0 0.136,-3.844 0.711,0.152 0.523,0.059 0.19,-0.026 0.333,-0.123 2.069,-0.751 0.081,-0.037 0.095,-0.081 0.076,0.708 -0.04,4.453 -0.144,4.132"
   id="31149"
   inkscape:label="Rock, NE"
   inkscape:connector-curvature="0" />
  <path
   style="fill:#72b3dc;stroke:#c2dffb;stroke-width:1"
   d="m 38.873,2.863 6.242,0.262 2.628,0.094 -0.108,2.505 -0.095,0.081 -0.081,0.037 -2.069,0.751 -0.333,0.123 -0.19,0.026 -0.523,-0.059 -0.711,-0.152 -0.082,0.031 -0.175,0 L 42.681,6.44 40.09,5.683 39.549,5.463 39.369,5.359 38.782,4.836 38.873,2.863"
   id="31103"
   inkscape:label="Keya Paha, NE"
   inkscape:connector-curvature="0" />
  <path
   style="fill:#72b3dc;stroke:#c2dffb;stroke-width:1"
   d="m 43.633,6.531 -0.136,3.844 0.117,0 -0.162,4.52 -0.234,-0.012 -4.575,-0.186 0.198,-4.502 -0.059,-5.359 0.587,0.523 0.18,0.104 0.541,0.22 2.591,0.757 0.695,0.122 0.175,0 0.082,-0.031"
   id="31017"
   inkscape:label="Brown, NE"
   inkscape:connector-curvature="0" />
  <path
   style="fill:#72b3dc;stroke:#c2dffb;stroke-width:1"
   d="m 37.692,14.652 0.951,0.045 4.575,0.186 -0.171,4.484 -5.4,-0.217 -0.139,-0.009 0.184,-4.489"
   id="31009"
   inkscape:label="Blaine, NE"
   inkscape:connector-curvature="0" />
  <path
   style="fill:#72b3dc;stroke:#c2dffb;stroke-width:1"
   d="m 43.047,19.367 4.448,0.157 0.095,0.005 -0.068,4.498 -0.194,4.502 -2.109,-0.066 -7.716,-0.312 -0.136,-0.004 0.077,-1.506 0.086,-1.297 0.054,-1.641 -0.14,-0.059 0.203,-4.494 5.4,0.217"
   id="31041"
   inkscape:label="Custer, NE"
   inkscape:connector-curvature="0" />
  <path
   style="fill:#72b3dc;stroke:#c2dffb;stroke-width:1"
   d="m 45.219,28.463 2.109,0.066 4.44,0.145 0.257,0.009 -0.126,4.512 -0.032,0.121 -0.307,0.036 -0.703,0.14 -0.373,0.176 -0.397,0.076 -1.186,-0.04 -1.383,-0.117 -0.082,-0.031 -2.307,-0.212 0.09,-4.881"
   id="31019"
   inkscape:label="Buffalo, NE"
   inkscape:connector-curvature="0" />
  <path
   style="fill:#72b3dc;stroke:#c2dffb;stroke-width:1"
   d="m 37.503,28.151 7.716,0.312 -0.09,4.881 -2.191,-0.266 -3.277,-0.325 -2.348,-0.108 0.19,-4.494"
   id="31047"
   inkscape:label="Dawson, NE"
   inkscape:connector-curvature="0" />
  <path
   style="fill:#72b3dc;stroke:#c2dffb;stroke-width:1"
   d="m 42.938,33.078 2.191,0.266 2.307,0.212 -0.135,4.024 -4.408,-0.162 -0.113,-0.005 0.158,-4.335"
   id="31137"
   inkscape:label="Phelps, NE"
   inkscape:connector-curvature="0" />
  <path
   style="fill:#72b3dc;stroke:#c2dffb;stroke-width:1"
   d="m 51.867,33.316 -0.117,4.408 -0.032,-0.004 -4.417,-0.14 0.135,-4.024 0.082,0.031 1.383,0.117 1.186,0.04 0.397,-0.076 0.373,-0.176 0.703,-0.14 0.307,-0.036"
   id="31099"
   inkscape:label="Kearney, NE"
   inkscape:connector-curvature="0" />
  <path
   style="fill:#72b3dc;stroke:#c2dffb;stroke-width:1"
   d="m 51.867,33.316 0.032,-0.121 4.263,0.121 0.045,0 -0.108,4.522 -4.349,-0.114 0.117,-4.408"
   id="31001"
   inkscape:label="Adams, NE"
   inkscape:connector-curvature="0" />
  <path
   style="fill:#72b3dc;stroke:#c2dffb;stroke-width:1"
   d="m 60.601,33.406 0.014,0 -0.081,4.526 -4.39,-0.094 -0.045,0 0.108,-4.522 4.394,0.09"
   id="31035"
   inkscape:label="Clay, NE"
   inkscape:connector-curvature="0" />
  <path
   style="fill:#72b3dc;stroke:#c2dffb;stroke-width:1"
   d="m 65.05,33.487 -0.067,4.521 -4.418,-0.076 -0.031,0 0.081,-4.526 4.435,0.081"
   id="31059"
   inkscape:label="Fillmore, NE"
   inkscape:connector-curvature="0" />
  <path
   style="fill:#72b3dc;stroke:#c2dffb;stroke-width:1"
   d="m 65.05,33.487 4.422,0.06 -0.018,2.266 -0.054,2.258 -4.417,-0.063 0.067,-4.521"
   id="31151"
   inkscape:label="Saline, NE"
   inkscape:connector-curvature="0" />
  <path
   style="fill:#72b3dc;stroke:#c2dffb;stroke-width:1"
   d="m 69.561,29.025 4.305,0.045 -0.005,0.375 -0.018,3.015 -0.013,3.393 -4.376,-0.04 0.018,-2.266 0.067,-4.522 0.022,0"
   id="31109"
   inkscape:label="Lancaster, NE"
   inkscape:connector-curvature="0" />
  <path
   style="fill:#72b3dc;stroke:#c2dffb;stroke-width:1"
   d="m 73.83,35.853 -0.014,3.386 -0.017,3.394 -3.354,-0.028 -1.086,-0.013 0.041,-4.521 0.054,-2.258 4.376,0.04"
   id="31067"
   inkscape:label="Gage, NE"
   inkscape:connector-curvature="0" />
  <path
   style="fill:#72b3dc;stroke:#c2dffb;stroke-width:1"
   d="m 64.983,38.008 4.417,0.063 -0.041,4.521 -4.449,-0.059 0.073,-4.525"
   id="31095"
   inkscape:label="Jefferson, NE"
   inkscape:connector-curvature="0" />
  <path
   style="fill:#72b3dc;stroke:#c2dffb;stroke-width:1"
   d="m 64.983,38.008 -0.073,4.525 -4.439,-0.071 0.094,-4.53 4.418,0.076"
   id="31169"
   inkscape:label="Thayer, NE"
   inkscape:connector-curvature="0" />
  <path
   style="fill:#72b3dc;stroke:#c2dffb;stroke-width:1"
   d="m 60.534,37.932 0.031,0 -0.094,4.53 -1.082,-0.024 -3.358,-0.081 0.113,-4.519 4.39,0.094"
   id="31129"
   inkscape:label="Nuckolls, NE"
   inkscape:connector-curvature="0" />
  <path
   style="fill:#72b3dc;stroke:#c2dffb;stroke-width:1"
   d="m 51.75,37.724 4.349,0.114 0.045,0 -0.113,4.519 -2.262,-0.053 -2.177,-0.059 0.126,-4.525 0.032,0.004"
   id="31181"
   inkscape:label="Webster, NE"
   inkscape:connector-curvature="0" />
  <path
   style="fill:#72b3dc;stroke:#c2dffb;stroke-width:1"
   d="m 51.718,37.72 -0.126,4.525 -3.34,-0.104 -1.099,-0.031 0.148,-4.53 4.417,0.14"
   id="31061"
   inkscape:label="Franklin, NE"
   inkscape:connector-curvature="0" />
  <path
   style="fill:#72b3dc;stroke:#c2dffb;stroke-width:1"
   d="m 42.893,37.418 4.408,0.162 -0.148,4.53 -4.386,-0.158 -0.023,0 0.149,-4.534"
   id="31083"
   inkscape:label="Harlan, NE"
   inkscape:connector-curvature="0" />
  <path
   style="fill:#72b3dc;stroke:#c2dffb;stroke-width:1"
   d="m 42.938,33.078 -0.158,4.335 -4.417,-0.181 0.046,-1.134 1.113,0.053 0.139,-3.398 3.277,0.325"
   id="31073"
   inkscape:label="Gosper, NE"
   inkscape:connector-curvature="0" />
  <path
   style="fill:#72b3dc;stroke:#c2dffb;stroke-width:1"
   d="m 37.359,37.202 1.004,0.03 4.417,0.181 0.113,0.005 -0.149,4.534 -5.39,-0.216 -0.153,-0.01 0.158,-4.524"
   id="31065"
   inkscape:label="Furnas, NE"
   inkscape:connector-curvature="0" />
  <path
   style="fill:#72b3dc;stroke:#c2dffb;stroke-width:1"
   d="m 31.887,36.949 5.472,0.253 -0.158,4.524 -5.345,-0.256 -0.195,-0.014 0.226,-4.507"
   id="31145"
   inkscape:label="Red Willow, NE"
   inkscape:connector-curvature="0" />
  <path
   style="fill:#72b3dc;stroke:#c2dffb;stroke-width:1"
   d="m 26.379,36.647 5.328,0.298 0.18,0.004 -0.226,4.507 -5.543,-0.297 0.261,-4.512"
   id="31087"
   inkscape:label="Hitchcock, NE"
   inkscape:connector-curvature="0" />
  <path
   style="fill:#72b3dc;stroke:#c2dffb;stroke-width:1"
   d="m 26.19,36.639 0.189,0.008 -0.261,4.512 -0.852,-0.045 -6.274,-0.389 0.284,-4.488 6.914,0.402"
   id="31057"
   inkscape:label="Dundy, NE"
   inkscape:connector-curvature="0" />
  <path
   style="fill:#72b3dc;stroke:#c2dffb;stroke-width:1"
   d="m 31.927,32.391 5.386,0.254 2.348,0.108 -0.139,3.398 -1.113,-0.053 -0.046,1.134 -1.004,-0.03 -5.472,-0.253 -0.18,-0.004 0.22,-4.554"
   id="31063"
   inkscape:label="Frontier, NE"
   inkscape:connector-curvature="0" />
  <path
   style="fill:#72b3dc;stroke:#c2dffb;stroke-width:1"
   d="m 31.927,32.391 -0.22,4.554 -5.328,-0.298 -0.189,-0.008 0.23,-4.513 0.946,0.055 4.561,0.21"
   id="31085"
   inkscape:label="Hayes, NE"
   inkscape:connector-curvature="0" />
  <path
   style="fill:#72b3dc;stroke:#c2dffb;stroke-width:1"
   d="m 19.569,31.721 6.851,0.405 -0.23,4.513 -6.914,-0.402 0.293,-4.516"
   id="31029"
   inkscape:label="Chase, NE"
   inkscape:connector-curvature="0" />
  <path
   style="fill:#72b3dc;stroke:#c2dffb;stroke-width:1"
   d="m 19.817,27.767 0.004,-0.017 7.744,0.46 -0.199,3.971 -0.946,-0.055 -6.851,-0.405 0.045,-0.677 0.203,-3.277"
   id="31135"
   inkscape:label="Perkins, NE"
   inkscape:connector-curvature="0" />
  <path
   style="fill:#72b3dc;stroke:#c2dffb;stroke-width:1"
   d="m 33,23.428 4.444,0.216 0.14,0.059 -0.054,1.641 -0.086,1.297 -0.077,1.506 0.136,0.004 -0.19,4.494 -5.386,-0.254 -4.561,-0.21 0.199,-3.971 0.09,-5.079 5.345,0.297"
   id="31111"
   inkscape:label="Lincoln, NE"
   inkscape:connector-curvature="0" />
  <path
   style="fill:#72b3dc;stroke:#c2dffb;stroke-width:1"
   d="m 20.786,22.724 5.548,0.326 1.321,0.081 -0.09,5.079 -7.744,-0.46 0.14,-2.821 0.825,-2.205"
   id="31101"
   inkscape:label="Keith, NE"
   inkscape:connector-curvature="0" />
  <path
   style="fill:#72b3dc;stroke:#c2dffb;stroke-width:1"
   d="m 33.239,18.943 4.269,0.198 0.139,0.009 -0.203,4.494 L 33,23.428 33.239,18.943"
   id="31113"
   inkscape:label="Logan, NE"
   inkscape:connector-curvature="0" />
  <path
   style="fill:#72b3dc;stroke:#c2dffb;stroke-width:1"
   d="m 26.596,18.542 2.456,0.149 1.685,0.117 1.254,0.063 1.248,0.072 L 33,23.428 27.655,23.131 26.334,23.05 26.596,18.542"
   id="31117"
   inkscape:label="McPherson, NE"
   inkscape:connector-curvature="0" />
  <path
   style="fill:#72b3dc;stroke:#c2dffb;stroke-width:1"
   d="m 21.061,18.223 5.35,0.31 0.185,0.009 -0.262,4.508 -5.548,-0.326 0.275,-4.501"
   id="31005"
   inkscape:label="Arthur, NE"
   inkscape:connector-curvature="0" />
  <path
   style="fill:#72b3dc;stroke:#c2dffb;stroke-width:1"
   d="m 32.184,14.359 5.508,0.293 -0.184,4.489 -4.269,-0.198 -1.248,-0.072 0.193,-4.512"
   id="31171"
   inkscape:label="Thomas, NE"
   inkscape:connector-curvature="0" />
  <path
   style="fill:#72b3dc;stroke:#c2dffb;stroke-width:1"
   d="m 26.663,14.013 5.521,0.346 -0.193,4.512 -1.254,-0.063 -1.685,-0.117 -2.456,-0.149 -0.185,-0.009 0.252,-4.52"
   id="31091"
   inkscape:label="Hooker, NE"
   inkscape:connector-curvature="0" />
  <path
   style="fill:#72b3dc;stroke:#c2dffb;stroke-width:1"
   d="m 20.507,14.716 0.648,-1.091 5.508,0.388 -0.252,4.52 -5.35,-0.31 -0.789,-0.046 0.235,-3.461"
   id="31075"
   inkscape:label="Grant, NE"
   inkscape:connector-curvature="0" />
  <path
   style="fill:#72b3dc;stroke:#c2dffb;stroke-width:1"
   d="m 14.62,24.568 5.341,0.361 -0.14,2.821 -0.004,0.017 -5.498,-0.368 0.301,-2.831"
   id="31049"
   inkscape:label="Deuel, NE"
   inkscape:connector-curvature="0" />
  <path
   style="fill:#72b3dc;stroke:#c2dffb;stroke-width:1"
   d="m 20.507,14.716 -0.235,3.461 0.789,0.046 -0.275,4.501 -0.825,2.205 -5.341,-0.361 -0.058,-2.835 0.22,-3.209 -0.212,-0.749 -0.062,-0.377 -0.014,-0.231 0.032,-0.689 0.162,-2.1 5.819,0.338"
   id="31069"
   inkscape:label="Garden, NE"
   inkscape:connector-curvature="0" />
  <path
   style="fill:#72b3dc;stroke:#c2dffb;stroke-width:1"
   d="m 14.562,21.733 0.058,2.835 -0.301,2.831 -0.312,-0.018 -7.04,-0.515 0.446,-5.079 0.127,-0.555 7.022,0.501"
   id="31033"
   inkscape:label="Cheyenne, NE"
   inkscape:connector-curvature="0" />
  <path
   style="fill:#72b3dc;stroke:#c2dffb;stroke-width:1"
   d="m 14.494,14.368 0.194,0.01 -0.162,2.1 -0.032,0.689 0.014,0.231 0.062,0.377 0.212,0.749 -0.22,3.209 -7.022,-0.501 0.247,-3.383 0.375,-3.926 6.332,0.445"
   id="31123"
   inkscape:label="Morrill, NE"
   inkscape:connector-curvature="0" />
  <path
   style="fill:#72b3dc;stroke:#c2dffb;stroke-width:1"
   d="M 7.413,21.787 6.967,26.866 5.115,26.723 0.5,26.345 0.937,21.278 7.413,21.787"
   id="31105"
   inkscape:label="Kimball, NE"
   inkscape:connector-curvature="0" />
  <path
   style="fill:#72b3dc;stroke:#c2dffb;stroke-width:1"
   d="M 7.787,17.849 7.54,21.232 7.413,21.787 0.937,21.278 1.266,17.335 7.787,17.849"
   id="31007"
   inkscape:label="Banner, NE"
   inkscape:connector-curvature="0" />
  <path
   style="fill:#72b3dc;stroke:#c2dffb;stroke-width:1"
   d="m 7.796,13.887 0.366,0.036 -0.375,3.926 -6.521,-0.514 0.338,-3.927 6.192,0.479"
   id="31157"
   inkscape:label="Scotts Bluff, NE"
   inkscape:connector-curvature="0" />
  <path
   style="fill:#72b3dc;stroke:#c2dffb;stroke-width:1"
   d="M 14.494,14.368 8.162,13.923 7.796,13.887 7.882,12.764 7.481,12.728 l 0.347,-4.48 6.35,0.441 0.226,0.014 -0.252,4.502 0.238,0.398 0.104,0.765"
   id="31013"
   inkscape:label="Box Butte, NE"
   inkscape:connector-curvature="0" />
  <path
   style="fill:#72b3dc;stroke:#c2dffb;stroke-width:1"
   d="m 21.178,1.892 0,0 1.942,0.127 2.344,0.18 3.736,0.194 3.016,0.158 3.407,0.158 1.83,0.086 0.672,0.031 0.748,0.037 -0.091,1.973 0.059,5.359 -0.198,4.502 L 37.692,14.652 32.184,14.359 26.663,14.013 21.155,13.625 20.831,13.598 21.137,9.113 21.048,7.626 21.146,4.67 21.101,3.74 21.178,1.892"
   id="31031"
   inkscape:label="Cherry, NE"
   inkscape:connector-curvature="0" />
  <path
   style="fill:#72b3dc;stroke:#c2dffb;stroke-width:1"
   d="m 21.178,1.892 -0.077,1.848 0.045,0.93 -0.098,2.956 0.089,1.487 -0.306,4.485 0.324,0.027 -0.648,1.091 -5.819,-0.338 -0.194,-0.01 L 14.39,13.603 14.152,13.205 14.404,8.703 14.178,8.689 14.44,4.963 14.314,4.209 14.516,1.434 21.178,1.892"
   id="31161"
   inkscape:label="Sheridan, NE"
   inkscape:connector-curvature="0" />
  
  
  
  
  
  
  
  
  
  
  
  
  
  
  
  
  
  
  
  
  
  
  
  
  
  
  
  
  
  
  
  
  
  
  
  
  
  
  
  
  
  
  
  
  
  
  
  
  
  
  
  
  
  
  
  
  
  
  
  
  
  
  
  
  
  
  
  
  
  
  
  
  
  
  
  
  
  
  
  
  
  
  
  
  
  
  
  
  
  
  
  
  
  
  
  
  
  
  
  
  
  
  
  
  
  
  
  
  
  
  
  
  
  
  
  
  
  
  
  
  
  
  
  
  
  
  
  
  
  
  
  
  
  
  
  
  
  
  
  
  
  
  
  
  
  
  
  
  
  
  
  
  
  
  
  
  
  
  
  
  
  
  
  
  
  
  
  
  
  
  
  
  
  
  
  
  
  
  
  
  
  
  
  
  
  
  
  
  
  
  
  
  
  
  
  
  
  
  
  
  
  
  
  
  
  
  
  
  
  
  
  
  
  
  
  
  
  
  
  
  
  
  
  
  
  
  
  
  
  
  
  
  
  
  
  
  
  
  
  
  
  
  
  
  
  
  
  
  
  
  
  
  
  
  
  
  
  
  
  
  
  
  
  
  
  
  
  
  
  
  
  
  
  
  
  
  
  
  
  
  
  
  
  
  
  
  
  
  
  
  
  
  
  
  
  
  
  
  
  
  
  
  
  
  
  
  
  
  
  
  
  
  
  
  
  
  
  
  
  
  
  
  
  
  
  
  
  
  
  
  
  
  
  
  
  
  
  
  
  
  
  
  
  
  
  
  
  
  
  
  
  
  
  
  
  
  
  
  
  
  
  
  
  
  
  
  
  
  
  
  
  
  
  
  
  
  
  
  
  
  
  
  
  
  
  
  
  
  
  
  
  
  
  
  
  
  
  
  
  
  
  
  
  
  
  
  
  
  
  
  
  
  
  
  
  
  
  
  
  
  
  
  
  
  
  
  
  
  
  
  
  
  
  
  
  
  
  
  
  
  
  
  
  
  
  
  
  
  
  
  
  
  
  
  
  
  
  
  
  
  
  
  
  
  
  
  
  
  
  
  
  
  
  
  
  
  
  
  
  
  
  
  
  
  
  
  
  
  
  
  
  
  
  
  
  
  
  
  
  
  
  
  
  
  
  
  
  
  
  
  
  
  
  
  
  
  
  
  
  
  
  
  
  
  
  
  
  
  
  
  
  
  
  
  
  
  
  
  
  
  
  
  
  
  
  
  
  
  
  
  
  
  
  
  
  
  
  
  
  
  
  
  
  
  
  
  
  
  
  
  
  
  
  
  
  
  
  
  
  
  
  
  
  
  
  
  
  
  
  
  
  
  
  
  
  
  
  
  
  
  
  
  
  
  
  
  
  
  
  
  
  
  
  
  
  
  
  
  
  
  
  
  
  
  
  
  
  
  
  
  
  
  
  
  
  
  
  
  
  
  
  
  
  
  
  
  
  
  
  
  
  
  
  
  
  
  
  
  
  
  
  
  
  
  
  
  
  
  
  
  
  
  
  
  
  
  
  
  
  
  
  
  
  
  
  
  
  
  
  
  
  
  
  
  
  
  
  
  
  
  
  
  
  
  
  
  
  
  
  
  
  
  
  
  
  
  
  
  
  
  
  
  
  
  
  
  
  
  
  
  
  
  
  
  
  
  
  
  
  
  
  
  
  
  
  
  
  
  
  
  
  
  
  
  
  
  
  
  
  
  
  
  
  
  
  
  
  
  
  
  
  
  
  
  
  
  
  
  
  
  
  
  
  
  
  
  
  
  
  
  
  
  
  
  
  
  
  
  
  
  
  
  
  
  
  
  
  
  
  
  
  
  
  
  
  
  
  
  
  
  
  
  
  
  
  
  
  
  
  
  
  
  
  
  
  
  
  
  
  
  
  
  
  
  
  
  
  
  
  
  
  
  
  
  
  
  
  
  
  
  
  
  
  
  
  
  
  
  
  
  
  
  
  
  
  
  
  
  
  
  
  
  
  
  
  
  
  
  
  
  
  
  
  
  
  
  
  
  
  
  
  
  
  
  
  
  
  
  
  
  
  
  
  
  
  
  
  
  
  
  
  
  
  
  
  
  
  
  
  
  
  
  
  
  
  
  
  
  
  
  
  
  
  
  
  
  
  
  
  
  
  
  
  
  
  
  
  
  
  
  
  
  
  
  
  
  
  
  
  
  
  
  
  
  
  
  
  
  
  
  
  
  
  
  
  
  
  
  
  
  
  
  
  
  
  
  
  
  
  
  
  
  
  
  
  
  
  
  
  
  
  
  
  
  
  
  
  
  
  
  
  
  
  
  
  
  
  
  
  
  
  
  
  
  
  
  
  
  
  
  
  
  
  
  
  
  
  
  
  
  
  
  
  
  
  
  
  
  
  
  
  
  
  
  
  
  
  
  
  
  
  
  
  
  
  
  
  
  
  
  
  
  
  
  
  
  
  
  
  
  
  
  
  
  
  
  
  
  
  
  
  
  
  
  
  
  
  
  
  
  
  
  
  
  
  
  
  
  
  
  
  
  
  
  
  
  
  
  
  
  
  
  
  
  
  
  
  
  
  
  
  
  
  
  
  
  
  
  
  
  
  
  
  
  
  
  
  
  
  
  
  
  
  
  
  
  
  
  
  
  
  
  
  
  
  
  
  
  
  
  
  
  
  
  
  
  
  
  
  
  
  
  
  
  
  
  
  
  
  
  
  
  
  
  
  
  
  
  
  
  
  
  
  
  
  
  
  
  
  
  
  
  
  
  
  
  
  
  
  
  
  
  
  
  
  
  
  
  
  
  
  
  
  
  
  
</svg>