<?xml version="1.0" encoding="UTF-8" standalone="no"?>
<!--?xml version="1.0" encoding="UTF-8" standalone="no"?-->

<svg
   xmlns:dc="http://purl.org/dc/elements/1.1/"
   xmlns:cc="http://creativecommons.org/ns#"
   xmlns:rdf="http://www.w3.org/1999/02/22-rdf-syntax-ns#"
   xmlns:svg="http://www.w3.org/2000/svg"
   xmlns="http://www.w3.org/2000/svg"
   xmlns:sodipodi="http://sodipodi.sourceforge.net/DTD/sodipodi-0.dtd"
   xmlns:inkscape="http://www.inkscape.org/namespaces/inkscape"
   width="19.306128"
   height="39.463646"
   viewBox="0 0 17.846 36.048523"
   preserveAspectRatio="xMinYMin meet"
   xml:space="preserve"
   id="svg2140"
   version="1.1"
   inkscape:version="0.48.2 r9819"
   sodipodi:docname="NH.svg"><metadata
   id="metadata2156"><rdf:RDF><cc:Work
       rdf:about=""><dc:format>image/svg+xml</dc:format><dc:type
         rdf:resource="http://purl.org/dc/dcmitype/StillImage" /></cc:Work></rdf:RDF></metadata><defs
   id="defs2154" /><sodipodi:namedview
   pagecolor="#ffffff"
   bordercolor="#666666"
   borderopacity="1"
   objecttolerance="10"
   gridtolerance="10"
   guidetolerance="10"
   inkscape:pageopacity="0"
   inkscape:pageshadow="2"
   inkscape:window-width="640"
   inkscape:window-height="480"
   id="namedview2152"
   showgrid="false"
   inkscape:zoom="0.56730769"
   inkscape:cx="-255.38588"
   inkscape:cy="-114.07655"
   inkscape:window-x="0"
   inkscape:window-y="0"
   inkscape:window-maximized="0"
   inkscape:current-layer="svg2140" />
  
  
  
  
  
  
  
  
  
  
  
  
  
  
  
  
  
  
  
  
  
  
  
  
  
  
  
  
  
  
  
  
  
  
  
  
  
  
  
  
  
  
  
  
  
  
  
  
  
  
  
  
  
  
  
  
  
  
  
  
  
  
  
  
  
  
  
  
  
  
  
  
  
  
  
  
  
  
  
  
  
  
  
  
  
  
  
  
  
  
  
  
  
  
  
  
  
  
  
  
  
  
  
  
  
  
  
  
  
  
  
  
  
  
  
  
  
  
  
  
  
  
  
  
  
  
  
  
  
  
  
  
  
  
  
  
  
  
  
  
  
  
  
  
  
  
  
  
  
  
  
  
  
  
  
  
  
  
  
  
  
  
  
  
  
  
  
  
  
  
  
  
  
  
  
  
  
  
  
  
  
  
  
  
  
  
  
  
  
  
  
  
  
  
  
  
  
  
  
  
  
  
  
  
  
  
  
  
  
  
  
  
  
  
  
  
  
  
  
  
  
  
  
  
  
  
  
  
  
  
  
  
  
  
  
  
  
  
  
  
  
  
  
  
  
  
  
  
  
  
  
  
  
  
  
  
  
  
  
  
  
  
  
  
  
  
  
  
  
  
  
  
  
  
  
  
  
  
  
  
  
  
  
  
  
  
  
  
  
  
  
  
  
  
  
  
  
  
  
  
  
  
  
  
  
  
  
  
  
  
  
  
  
  
  
  
  
  
  
  
  
  
  
  
  
  
  
  
  
  
  
  
  
  
  
  
  
  
  
  
  
  
  
  
  
  
  
  
  
  
  
  
  
  
  
  
  
  
  
  
  
  
  
  
  
  
  
  
  
  
  
  
  
  
  
  
  
  
  
  
  
  
  
  
  
  
  
  
  
  
  
  
  
  
  
  
  
  
  
  
  
  
  
  
  
  
  
  
  
  
  
  
  
  
  
  
  
  
  
  
  
  
  
  
  
  
  
  
  
  
  
  
  
  
  
  
  
  
  
  
  
  
  
  
  
  
  
  
  
  
  
  
  
  
  
  
  
  
  
  
  
  
  
  
  
  
  
  
  
  
  
  
  
  
  
  
  
  
  
  
  
  
  
  
  
  
  
  
  
  
  
  
  
  
  
  
  
  
  
  
  
  
  
  
  
  
  
  
  
  
  
  
  
  
  
  
  
  
  
  
  
  
  
  
  
  
  
  
  
  
  
  
  
  
  
  
  
  
  
  
  
  
  
  
  
  
  
  
  
  
  
  
  
  
  
  
  
  
  
  
  
  
  
  
  
  
  
  
  
  
  
  
  
  
  
  
  
  
  
  
  
  
  
  
  
  
  
  
  
  
  
  
  
  
  
  
  
  
  
  
  
  
  
  
  
  
  
  
  
  
  
  
  
  
  
  
  
  
  
  
  
  
  
  
  
  
  
  
  
  
  
  
  
  
  
  
  
  
  
  
  
  
  
  
  
  
  
  
  
  
  
  
  
  
  
  
  
  
  
  
  
  
  
  
  
  
  
  
  
  
  
  
  
  
  
  
  
  
  
  
  
  
  
  
  
  
  
  
  
  
  
  
  
  
  
  
  
  
  
  
  
  
  
  
  
  
  
  
  
  
  
  
  
  
  
  
  
  
  
  
  
  
  
  
  
  
  
  
  
  
  
  
  
  
  
  
  
  
  
  
  
  
  
  
  
  
  
  
  
  
  
  
  
  
  
  
  
  
  
  
  
  
  
  
  
  
  
  
  
  
  
  
  
  
  
  
  
  
  
  
  
  
  
  
  
  
  
  
  
  
  
  
  
  
  
  
  
  
  
  
  
  
  
  
  
  
  
  
  
  
  
  
  
  
  
  
  
  
  
  
  
  
  
  
  
  
  
  
  
  
  
  
  
  
  
  
  
  
  
  
  
  
  
  
  
  
  
  
  
  
  
  
  
  
  
  
  
  
  
  
  
  
  
  
  
  
  
  
  
  
  
  
  
  
  
  
  
  
  
  
  
  
  
  
  
  
  
  
  
  
  
  
  
  
  
  
  
  
  
  
  
  
  
  
  
  
  
  
  
  
  
  
  
  
  
  
  
  
  
  
  
  
  
  
  
  
  
  
  
  
  
  
  
  
  
  
  
  
  
  
  
  
  
  
  
  
  
  
  
  
  
  
  
  
  
  
  
  
  
  
  
  
  
  
  
  
  
  
  
  
  
  
  
  
  
  
  
  
  
  
  
  
  
  
  
  
  
  
  
  
  
  
  
  
  
  
  
  
  
  
  
  
  
  
  
  
  
  
  
  
  
  
  
  
  
  
  
  
  
  
  
  
  
  
  
  
  
  
  
  
  
  
  
  
  
  
  
  
  
  
  
  
  
  
  
  
  
  
  
  
  
  
  
  
  
  
  
  
  
  
  
  
  
  
  
  
  
  
  
  
  
  
  
  
  
  
  
  
  
  
  
  
  
  
  
  
  
  
  
  
  
  
  
  
  
  
  
  
  
  
  
  
  
  
  
  
  
  
  
  
  
  
  
  
  
  
  
  
  
  
  
  
  
  
  
  
  
  
  
  
  
  
  
  
  
  
  
  
  
  
  
  
  
  
  
  
  
  
  
  
  
  
  
  
  
  
  
  
  
  
  
  
  
  
  
  
  
  
  
  
  
  
  
  
  
  
  
  
  
  
  
  
  
  
  
  
  
  
  
  
  
  
  
  
  
  
  
  
  
  
  
  
  
  
  
  
  
  
  
  
  
  
  
  
  
  
  
  
  
  
  
  
  
  
  
  
  
  
  
  
  
  
  
  
  
  
  
  
  
  
  
  
  
  
  
  
  
  
  
  
  
  
  
  
  
  
  
  
  
  
  
  
  
  
  
  
  
  
  
  
  
  
  
  
  
  
  
  
  
  
  
  
  
  
  
  
  
  
  
  
  
  
  
  
  
  
  
  
  
  
  
  
  
  
  
  
  
  
  
  
  
  
  
  
  
  
  
  
  
  
  
  
  
  
  
  
  
  
  
  
  
  
  
  
  
  
  
  
  
  
  
  
  
  
  
  
  
  
  
  
  
  
  
  
  
  
  
  
  
  
  
  
  
  
  
  
  
  
  
  
  
  
  
  
  
  
  
  
  
  
  
  
  
  
  
  
  
  
  
  
  
  
  
  
  
  
  
  
  
  
  
  
  
  
  
  
  
  
  
  
  
  
  
  
  
  
  
  
  
  
  
  
  
  
  
  
  
  
  
  
  
  
  
  
  
  
  
  
  
  
  
  
  
  
  
  
  
  
  
  
  
  
  
  
  
  
  
  
  
  
  
  
  
  
  
  
  
  
  
  
  
  
  
  
  
  
  
  
  
  
  
  
  
  
  
  
  
  
  
  
  
  
  
  
  
  
  
  
  
  
  
  
  
  
  
  
  
  
  
  
  
  
  
  
  
  
  
  
  
  
  
  
  
  
  
  
  
  
  
  
  
  
  
  
  
  
  
  
  
  
  
  
  
  
  
  
  
  
  
  
  
  
  
  
  
  
  
  
  
  
  
  
  
  
  
  
  
  
  
  
  
  
  
  
  
  
  
  
  
  
  
  
  
  
  
  
  
  
  
  
  
  
  
  
  
  
  
  
  
  
  
  
  
  
  
  
  
  
  
  
  
  
  
  
  
  
  
  
  
  
  
  
  
  
  
  
  
  
  
  
  
  
  
  
  
  
  
  
  
  
  
  
  
  
  
  
  
  
  
  
  
  
  
  
  
  
  
  
  
  
  
  
  
  
  
  
  
  
  
  
  
  
  
  
  
  
  
  
  
  
  
  
  
  
  
  
  
  
  
  
  
  
  
  
  
  
  
  
  
  
  
  
  
  
  
  
  
  
  
  
  
  
  
  
  
  
  
  
  
  
  
  
  
  
  
  
  
  
  
  
  
  
  
  
  
  
  
  
  
  
  
  
  
  
  
  
  
  
  
  
  
  
  
  
  
  
  
  
  
  
  
  
  
  
  
  
  
  
  
  
  
  
  
  
  
  
  
  
  
  
  
  
  
  
  
  
  
  
  
  
  
  
  
  
  
  
  
  
  
  
  
  
  
  
  
  
  
  
  
  
  
  
  
  
  
  
  
  
  
  
  
  
  
  
  
  
  
  
  
  
  
  
  
  
  
  
  
  
  
  
  
  
  
  
  
  
  
  
  
  
  
  
  
  
  
  
  
  
  
  
  
  
  
  
  
  
  
  
  
  
  
  
  
  
  
  
  
  
  
  
  
  
  
  
  
  
  
  
  
  
  
  
  
  
  
  
  
  <path
   style="fill:#72b3dc;stroke:#c2dffb;stroke-width:1"
   d="m 6.368,0.5 0.347,0.991 1.907,5.751 0.135,0.433 1.691,5.377 -0.132,0.662 -2.573,1.65 L 7.067,14.923 6.702,14.526 6.431,14.454 5.233,14.17 4.243,14.003 3.317,13.313 3.51,13.331 3.799,13.119 3.822,13.084 3.948,12.921 4.001,12.844 4.038,12.786 4.484,12.002 4.529,11.925 4.529,11.921 4.633,11.632 4.754,10.51 4.52,10.132 4.48,10.068 4.254,9.788 3.84,9.279 3.501,8.945 3.425,8.73 3.438,5.565 3.655,5.119 3.579,4.353 3.795,2.023 4.52,1.076 4.62,1.005 4.813,1.104 4.894,1.265 4.935,1.311 5.224,1.455 5.697,1.487 6.093,1.405 6.152,1.356 6.368,0.5"
   id="33007"
   inkscape:label="Coos, NH"
   inkscape:connector-curvature="0" />
  <path
   style="fill:#72b3dc;stroke:#c2dffb;stroke-width:1"
   d="m 2.713,14.097 0.604,-0.784 0.926,0.69 0.99,0.167 1.198,0.284 0.271,0.072 0.365,0.397 0.443,0.639 0.648,0.987 0.374,1.956 -1.744,0.757 0.508,1.163 0.203,0.365 0.316,0.825 L 6.738,22.382 6.4,23.774 5.881,23.941 5.147,23.459 4.881,24.022 4.642,24.702 4.05,24.748 3.015,24.788 1.965,24.626 0.847,24.716 1.419,22.287 1.667,17.086 1.514,16.964 1.346,16.738 1.05,15.706 l 0,-0.081 0.031,-0.131 0.302,-0.545 0.028,-0.022 0.047,-0.045 0.624,-0.388 0.631,-0.397"
   id="33009"
   inkscape:label="Grafton, NH"
   inkscape:connector-curvature="0" />
  <path
   style="fill:#72b3dc;stroke:#c2dffb;stroke-width:1"
   d="m 11.57,22.733 0.211,-0.51 0.365,0.789 1.027,-0.315 0.253,-0.586 0.157,1.758 0.069,0.288 0.085,0.181 0.262,0.364 0.166,0.086 0.452,0.225 1.09,0.65 0.028,0.031 0.35,1.406 -0.284,0.555 -0.081,0.117 -1.798,0.465 0.23,-0.817 -2.452,-1.167 0.068,-0.162 0.446,-1.073 -0.446,-1.001 -0.365,-0.879 0.167,-0.405"
   id="33017"
   inkscape:label="Strafford, NH"
   inkscape:connector-curvature="0" />
  <path
   style="fill:#72b3dc;stroke:#c2dffb;stroke-width:1"
   d="m 17.346,27.605 -0.39,2.628 -0.664,0.04 -0.274,0.018 -0.063,0.032 -0.074,0.031 -0.004,0 -0.869,0.645 -0.667,0.568 -0.22,0.189 -0.122,0.127 -0.509,1.022 -1.064,-0.117 -0.897,-0.55 -0.316,-0.703 -0.225,-0.491 0.28,-1.122 0.432,-3.669 2.452,1.167 -0.23,0.817 1.798,-0.465 0.081,-0.117 0.284,-0.555 1.261,0.505"
   id="33015"
   inkscape:label="Rockingham, NH"
   inkscape:connector-curvature="0" />
  <path
   style="fill:#72b3dc;stroke:#c2dffb;stroke-width:1"
   d="m 1.135,30.508 0.267,0.274 0.554,-0.094 0.027,-0.329 0.239,-0.149 1.532,-0.649 -0.046,0.451 0.01,0.229 1.284,-0.288 0.171,1.425 L 5.376,32.32 5.89,32.198 6.955,34.001 7.35,34.924 4.079,35.632 2.456,35.979 1.425,35.15 1.158,34.577 1.117,34.447 1.704,32.437 1.458,31.058 1.438,30.981 1.135,30.508"
   id="33005"
   inkscape:label="Cheshire, NH"
   inkscape:connector-curvature="0" />
  <path
   style="fill:#72b3dc;stroke:#c2dffb;stroke-width:1"
   d="m 0.847,24.716 1.118,-0.09 1.05,0.162 1.035,-0.04 0.592,-0.046 -0.625,1.74 -0.109,1.204 0.441,0.788 0.32,0.347 0.406,0.366 L 5.002,29.953 3.718,30.241 3.708,30.012 3.754,29.561 2.222,30.21 1.983,30.359 1.956,30.688 1.402,30.782 1.135,30.508 1.099,29.557 1.14,28.43 0.947,27.925 0.5,25.87 0.847,24.716"
   id="33019"
   inkscape:label="Sullivan, NH"
   inkscape:connector-curvature="0" />
  <path
   style="fill:#72b3dc;stroke:#c2dffb;stroke-width:1"
   d="m 5.075,29.147 0.806,-0.469 2.407,0.103 1.753,0.938 1.227,0.203 -0.28,1.122 0.225,0.491 0.316,0.703 0.897,0.55 1.064,0.117 -0.06,0.136 -0.233,0.554 -3.111,0.717 -0.04,0.009 -0.14,0.031 -2.28,0.51 L 7.35,34.924 6.955,34.001 5.89,32.198 5.376,32.32 5.173,31.378 5.002,29.953 5.075,29.147"
   id="33011"
   inkscape:label="Hillsborough, NH"
   inkscape:connector-curvature="0" />
  <path
   style="fill:#72b3dc;stroke:#c2dffb;stroke-width:1"
   d="m 7.499,20.79 0.793,0.496 2.29,1.271 0.988,0.176 -0.167,0.405 0.365,0.879 0.446,1.001 -0.446,1.073 L 10.555,25.586 8.396,24.738 7.973,25.086 7.856,25.072 7.053,24.432 6.895,24.283 6.4,23.774 6.738,22.382 7.815,21.615 7.499,20.79"
   id="33001"
   inkscape:label="Belknap, NH"
   inkscape:connector-curvature="0" />
  <path
   style="fill:#72b3dc;stroke:#c2dffb;stroke-width:1"
   d="m 6.4,23.774 0.495,0.509 0.158,0.149 0.803,0.64 0.117,0.014 0.423,-0.348 2.159,0.848 1.213,0.505 L 11.7,26.253 11.268,29.922 10.041,29.719 8.288,28.781 5.881,28.678 5.075,29.147 4.669,28.781 4.349,28.434 3.908,27.646 4.017,26.442 4.642,24.702 4.881,24.022 5.147,23.459 5.881,23.941 6.4,23.774"
   id="33013"
   inkscape:label="Merrimack, NH"
   inkscape:connector-curvature="0" />
  <path
   style="fill:#72b3dc;stroke:#c2dffb;stroke-width:1"
   d="m 10.448,13.052 1.842,6.098 1.136,2.961 -0.253,0.586 -1.027,0.315 -0.365,-0.789 -0.211,0.51 L 10.582,22.557 8.292,21.286 7.499,20.79 7.296,20.425 6.788,19.262 8.532,18.505 8.158,16.549 7.51,15.562 7.067,14.923 l 0.676,0.441 2.573,-1.65 0.132,-0.662"
   id="33003"
   inkscape:label="Carroll, NH"
   inkscape:connector-curvature="0" />
  
  
  
  
  
  
  
  
  
  
  
  
  
  
  
  
  
  
  
  
  
  
  
  
  
  
  
  
  
  
  
  
  
  
  
  
  
  
  
  
  
  
  
  
  
  
  
  
  
  
  
  
  
  
  
  
  
  
  
  
  
  
  
  
  
  
  
  
  
  
  
  
  
  
  
  
  
  
  
  
  
  
  
  
  
  
  
  
  
  
  
  
  
  
  
  
  
  
  
  
  
  
  
  
  
  
  
  
  
  
  
  
  
  
  
  
  
  
  
  
  
  
  
  
  
  
  
  
  
  
  
  
  
  
  
  
  
  
  
  
  
  
  
  
  
  
  
  
  
  
  
  
  
  
  
  
  
  
  
  
  
  
  
  
  
  
  
  
  
  
  
  
  
  
  
  
  
  
  
  
  
  
  
  
  
  
  
  
  
  
  
  
  
  
  
  
  
  
  
  
  
  
  
  
  
  
  
  
  
  
  
  
  
  
  
  
  
  
  
  
  
  
  
  
  
  
  
  
  
  
  
  
  
  
  
  
  
  
  
  
  
  
  
  
  
  
  
  
  
  
  
  
  
  
  
  
  
  
  
  
  
  
  
  
  
  
  
  
  
  
  
  
  
  
  
  
  
  
  
  
  
  
  
  
  
  
  
  
  
  
  
  
  
  
  
  
  
  
  
  
  
  
  
  
  
  
  
  
  
  
  
  
  
  
  
  
  
  
  
  
  
  
  
  
  
  
  
  
  
  
  
  
  
  
  
  
  
  
  
  
  
  
  
  
  
  
  
  
  
  
  
  
  
  
  
  
  
  
  
  
  
  
  
  
  
  
  
  
  
  
  
  
  
  
  
  
  
  
  
  
  
  
  
  
  
  
  
  
  
  
  
  
  
  
  
  
  
  
  
  
  
  
  
  
  
  
  
  
  
  
  
  
  
  
  
  
  
  
  
  
  
  
  
  
  
  
  
  
  
  
  
  
  
  
  
  
  
  
  
  
  
  
  
  
  
  
  
  
  
  
  
  
  
  
  
  
  
  
  
  
  
  
  
  
  
  
  
  
  
  
  
  
  
  
  
  
  
  
  
  
  
  
  
  
  
  
  
  
  
  
  
  
  
  
  
  
  
  
  
  
  
  
  
  
  
  
  
  
  
  
  
  
  
  
  
  
  
  
  
  
  
  
  
  
  
  
  
  
  
  
  
  
  
  
  
  
  
  
  
  
  
  
  
  
  
  
  
  
  
  
  
  
  
  
  
  
  
  
  
  
  
  
  
  
  
  
  
  
  
  
  
  
  
  
  
  
  
  
  
  
  
  
  
  
  
  
  
  
  
  
  
  
  
  
  
  
  
  
  
  
  
  
  
  
  
  
  
  
  
  
  
  
  
  
  
  
  
  
  
  
  
  
  
  
  
  
  
  
  
  
  
  
  
  
  
  
  
  
  
  
  
  
  
  
  
  
  
  
  
  
  
  
  
  
  
  
  
  
  
  
  
  
  
  
  
  
  
  
  
  
  
  
  
  
  
  
  
  
  
  
  
  
  
  
  
  
  
  
  
  
  
  
  
  
  
  
  
  
  
  
  
  
  
  
  
  
  
  
  
  
  
  
  
  
  
  
  
  
  
  
  
  
  
  
  
  
  
  
  
  
  
  
  
  
  
  
  
  
  
  
  
  
  
  
  
  
  
  
  
  
  
  
  
  
  
  
  
  
  
  
  
  
  
  
  
  
  
  
  
  
  
  
  
  
  
  
  
  
  
  
  
  
  
  
  
  
  
  
  
  
  
  
  
  
  
  
  
  
  
  
  
  
  
  
  
  
  
  
  
  
  
  
  
  
  
  
  
  
  
  
  
  
  
  
  
  
  
  
  
  
  
  
  
  
  
  
  
  
  
  
  
  
  
  
  
  
  
  
  
  
  
  
  
  
  
  
  
  
  
  
  
  
  
  
  
  
  
  
  
  
  
  
  
  
  
  
  
  
  
  
  
  
  
  
  
  
  
  
  
  
  
  
  
  
  
  
  
  
  
  
  
  
  
  
  
  
  
  
  
  
  
  
  
  
  
  
  
  
  
  
  
  
  
  
  
  
  
  
  
  
  
  
  
  
  
  
  
  
  
  
  
  
  
  
  
  
  
  
  
  
  
  
  
  
  
  
  
  
  
  
  
  
  
  
  
  
  
  
  
  
  
  
  
  
  
  
  
  
  
  
  
  
  
  
  
  
  
  
  
  
  
  
  
  
  
  
  
  
  
  
  
  
  
  
  
  
  
  
  
  
  
  
  
  
  
  
  
  
  
  
  
  
  
  
  
  
  
  
  
  
  
  
  
  
  
  
  
  
  
  
  
  
  
  
  
  
  
  
  
  
  
  
  
  
  
  
  
  
  
  
  
  
  
  
  
  
  
  
  
  
  
  
  
  
  
  
  
  
  
  
  
  
  
  
  
  
  
  
  
  
  
  
  
  
  
  
  
  
  
  
  
  
  
  
  
  
  
  
  
  
  
  
  
  
  
  
  
  
  
  
  
  
  
  
  
  
  
  
  
  
  
  
  
  
  
  
  
  
  
  
  
  
  
  
  
  
  
  
  
  
  
  
  
  
  
  
  
  
  
  
  
  
  
  
  
  
  
  
  
  
  
  
  
  
  
  
  
  
  
  
  
  
  
  
  
  
  
  
  
  
  
  
  
  
  
  
  
  
  
  
  
  
  
  
  
  
  
  
  
  
  
  
  
  
  
  
  
  
  
  
  
  
  
  
  
  
  
  
  
  
  
  
  
  
  
  
</svg>