<?xml version="1.0" encoding="UTF-8" standalone="no"?>
<!--?xml version="1.0" encoding="UTF-8" standalone="no"?-->

<svg
   xmlns:dc="http://purl.org/dc/elements/1.1/"
   xmlns:cc="http://creativecommons.org/ns#"
   xmlns:rdf="http://www.w3.org/1999/02/22-rdf-syntax-ns#"
   xmlns:svg="http://www.w3.org/2000/svg"
   xmlns="http://www.w3.org/2000/svg"
   xmlns:sodipodi="http://sodipodi.sourceforge.net/DTD/sodipodi-0.dtd"
   xmlns:inkscape="http://www.inkscape.org/namespaces/inkscape"
   width="15.8746"
   height="34.974098"
   viewBox="0 0 14.674 31.947494"
   preserveAspectRatio="xMinYMin meet"
   xml:space="preserve"
   id="svg2158"
   version="1.1"
   inkscape:version="0.48.2 r9819"
   sodipodi:docname="NJ.svg"><metadata
   id="metadata2185"><rdf:RDF><cc:Work
       rdf:about=""><dc:format>image/svg+xml</dc:format><dc:type
         rdf:resource="http://purl.org/dc/dcmitype/StillImage" /></cc:Work></rdf:RDF></metadata><defs
   id="defs2183" /><sodipodi:namedview
   pagecolor="#ffffff"
   bordercolor="#666666"
   borderopacity="1"
   objecttolerance="10"
   gridtolerance="10"
   guidetolerance="10"
   inkscape:pageopacity="0"
   inkscape:pageshadow="2"
   inkscape:window-width="640"
   inkscape:window-height="480"
   id="namedview2181"
   showgrid="false"
   inkscape:zoom="0.56730769"
   inkscape:cx="-235.95642"
   inkscape:cy="-56.101909"
   inkscape:window-x="0"
   inkscape:window-y="0"
   inkscape:window-maximized="0"
   inkscape:current-layer="svg2158" />
  
  
  
  
  
  
  
  
  
  
  
  
  
  
  
  
  
  
  
  
  
  
  
  
  
  
  
  
  
  
  
  
  
  
  
  
  
  
  
  
  
  
  
  
  
  
  
  
  
  
  
  
  
  
  
  
  
  
  
  
  
  
  
  
  
  
  
  
  
  
  
  
  
  
  
  
  
  
  
  
  
  
  
  
  
  
  
  
  
  
  
  
  
  
  
  
  
  
  
  
  
  
  
  
  
  
  
  
  
  
  
  
  
  
  
  
  
  
  
  
  
  
  
  
  
  
  
  
  
  
  
  
  
  
  
  
  
  
  
  
  
  
  
  
  
  
  
  
  
  
  
  
  
  
  
  
  
  
  
  
  
  
  
  
  
  
  
  
  
  
  
  
  
  
  
  
  
  
  
  
  
  
  
  
  
  
  
  
  
  
  
  
  
  
  
  
  
  
  
  
  
  
  
  
  
  
  
  
  
  
  
  
  
  
  
  
  
  
  
  
  
  
  
  
  
  
  
  
  
  
  
  
  
  
  
  
  
  
  
  
  
  
  
  
  
  
  
  
  
  
  
  
  
  
  
  
  
  
  
  
  
  
  
  
  
  
  
  
  
  
  
  
  
  
  
  
  
  
  
  
  
  
  
  
  
  
  
  
  
  
  
  
  
  
  
  
  
  
  
  
  
  
  
  
  
  
  
  
  
  
  
  
  
  
  
  
  
  
  
  
  
  
  
  
  
  
  
  
  
  
  
  
  
  
  
  
  
  
  
  
  
  
  
  
  
  
  
  
  
  
  
  
  
  
  
  
  
  
  
  
  
  
  
  
  
  
  
  
  
  
  
  
  
  
  
  
  
  
  
  
  
  
  
  
  
  
  
  
  
  
  
  
  
  
  
  
  
  
  
  
  
  
  
  
  
  
  
  
  
  
  
  
  
  
  
  
  
  
  
  
  
  
  
  
  
  
  
  
  
  
  
  
  
  
  
  
  
  
  
  
  
  
  
  
  
  
  
  
  
  
  
  
  
  
  
  
  
  
  
  
  
  
  
  
  
  
  
  
  
  
  
  
  
  
  
  
  
  
  
  
  
  
  
  
  
  
  
  
  
  
  
  
  
  
  
  
  
  
  
  
  
  
  
  
  
  
  
  
  
  
  
  
  
  
  
  
  
  
  
  
  
  
  
  
  
  
  
  
  
  
  
  
  
  
  
  
  
  
  
  
  
  
  
  
  
  
  
  
  
  
  
  
  
  
  
  
  
  
  
  
  
  
  
  
  
  
  
  
  
  
  
  
  
  
  
  
  
  
  
  
  
  
  
  
  
  
  
  
  
  
  
  
  
  
  
  
  
  
  
  
  
  
  
  
  
  
  
  
  
  
  
  
  
  
  
  
  
  
  
  
  
  
  
  
  
  
  
  
  
  
  
  
  
  
  
  
  
  
  
  
  
  
  
  
  
  
  
  
  
  
  
  
  
  
  
  
  
  
  
  
  
  
  
  
  
  
  
  
  
  
  
  
  
  
  
  
  
  
  
  
  
  
  
  
  
  
  
  
  
  
  
  
  
  
  
  
  
  
  
  
  
  
  
  
  
  
  
  
  
  
  
  
  
  
  
  
  
  
  
  
  
  
  
  
  
  
  
  
  
  
  
  
  
  
  
  
  
  
  
  
  
  
  
  
  
  
  
  
  
  
  
  
  
  
  
  
  
  
  
  
  
  
  
  
  
  
  
  
  
  
  
  
  
  
  
  
  
  
  
  
  
  
  
  
  
  
  
  
  
  
  
  
  
  
  
  
  
  
  
  
  
  
  
  
  
  
  
  
  
  
  
  
  
  
  
  
  
  
  
  
  
  
  
  
  
  
  
  
  
  
  
  
  
  
  
  
  
  
  
  
  
  
  
  
  
  
  
  
  
  
  
  
  
  
  
  
  
  
  
  
  
  
  
  
  
  
  
  
  
  
  
  
  
  
  
  
  
  
  
  
  
  
  
  
  
  
  
  
  
  
  
  
  
  
  
  
  
  
  
  
  
  
  
  
  
  
  
  
  
  
  
  
  
  
  
  
  
  
  
  
  
  
  
  
  
  
  
  
  
  
  
  
  
  
  
  
  
  
  
  
  
  
  
  
  
  
  
  
  
  
  
  
  
  
  
  
  
  
  
  
  
  
  
  
  
  
  
  
  
  
  
  
  
  
  
  
  
  
  
  
  
  
  
  
  
  
  
  
  
  
  
  
  
  
  
  
  
  
  
  
  
  
  
  
  
  
  
  
  
  
  
  
  
  
  
  
  
  
  
  
  
  
  
  
  
  
  
  
  
  
  
  
  
  
  
  
  
  
  
  
  
  
  
  
  
  
  
  
  
  
  
  
  
  
  
  
  
  
  
  
  
  
  
  
  
  
  
  
  
  
  
  
  
  
  
  
  
  
  
  
  
  
  
  
  
  
  
  
  
  
  
  
  
  
  
  
  
  
  
  
  
  
  
  
  
  
  
  
  
  
  
  
  
  
  
  
  
  
  
  
  
  
  
  
  
  
  
  
  
  
  
  
  
  
  
  
  
  
  
  
  
  
  
  
  
  
  
  
  
  
  
  
  
  
  
  
  
  
  
  
  
  
  
  
  
  
  
  
  
  
  
  
  
  
  
  
  
  
  
  
  
  
  
  
  
  
  
  
  
  
  
  
  
  
  
  
  
  
  
  
  
  
  
  
  
  
  
  
  
  
  
  
  
  
  
  
  
  
  
  
  
  
  
  
  
  
  
  
  
  
  
  
  
  
  
  
  
  
  
  
  
  
  
  
  
  
  
  
  
  
  
  
  
  
  
  
  
  
  
  
  
  
  
  
  
  
  
  
  
  
  
  
  
  
  
  
  
  
  
  
  
  
  
  
  
  
  
  
  
  
  
  
  
  
  
  
  
  
  
  
  
  
  
  
  
  
  
  
  
  
  
  
  
  
  
  
  
  
  
  
  
  
  
  
  
  
  
  
  
  
  
  
  
  
  
  
  
  
  
  
  
  
  
  
  
  
  
  
  
  
  
  
  
  
  
  
  
  
  
  
  
  
  
  
  
  
  
  
  
  
  
  
  
  
  
  
  
  
  
  
  
  
  
  
  
  
  
  
  
  
  
  
  
  
  
  
  
  
  
  
  
  
  
  
  
  
  
  
  
  
  
  
  
  
  
  
  
  
  
  
  
  
  
  
  
  
  
  
  
  
  
  
  
  
  
  
  
  
  
  
  
  
  
  
  
  
  
  
  
  
  
  
  
  
  
  
  
  
  
  
  
  
  
  
  
  
  
  
  
  
  
  
  
  
  
  
  
  
  
  
  
  
  
  
  
  
  
  
  
  
  
  
  
  
  
  
  
  
  
  
  
  
  
  
  
  
  
  
  
  
  
  
  
  
  
  
  
  
  
  
  
  
  
  
  
  
  
  
  
  
  
  
  
  
  
  
  
  
  
  
  
  
  
  
  
  
  
  
  
  
  
  
  
  
  
  
  
  
  
  
  
  
  
  
  
  
  
  
  
  
  
  
  
  
  
  
  
  
  
  
  
  
  
  
  
  
  
  
  
  
  
  
  
  
  
  
  
  
  
  
  
  
  
  
  
  
  
  
  
  
  
  
  
  
  
  
  
  
  
  
  
  
  
  
  
  
  
  
  
  
  
  
  
  
  
  
  
  
  
  
  
  
  
  
  
  
  
  
  
  
  
  
  
  
  
  
  
  
  
  
  
  
  
  
  
  
  
  
  
  
  
  
  
  
  
  
  
  
  
  
  
  
  
  
  
  
  
  
  
  
  
  
  
  
  
  
  
  
  
  
  
  
  
  
  
  
  
  
  
  
  
  
  
  
  
  
  
  
  
  
  
  
  
  
  
  
  
  
  
  
  
  
  
  
  
  
  
  
  
  
  
  
  
  
  
  
  
  
  
  
  
  
  
  
  
  
  
  
  
  
  
  
  
  
  
  
  
  
  
  
  
  
  
  
  
  
  
  
  
  
  
  
  
  
  
  
  
  
  
  
  
  
  
  
  
  
  
  
  
  
  
  
  
  
  
  
  
  
  
  
  
  
  
  
  
  
  
  
  
  
  
  
  
  
  
  
  
  
  
  
  
  
  
  
  
  
  
  
  
  
  
  
  
  
  
  
  
  
  
  
  
  
  
  
  
  
  
  
  
  
  
  
  
  
  
  
  
  
  
  
  
  
  
  
  
  
  
  
  
  
  
  
  
  
  
  
  
  
  
  
  
  
  
  
  
  
  
  
  
  
  
  
  
  
  
  
  
  <path
   style="fill:#72b3dc;stroke:#c2dffb;stroke-width:1"
   d="m 10.79,10.889 1.589,-0.054 0.443,-0.618 -0.009,-0.027 0.031,-0.037 0.068,0 0.13,0.06 0.249,0.32 0.268,0.852 0.073,0.3 0.006,0.024 0.081,0.603 0.022,0.262 0.014,0.555 0.027,1.844 -1.281,0.197 -0.324,0.009 -0.802,-0.573 -1.371,0.271 -1.126,1.501 -0.501,-0.671 -0.373,-0.505 0.5,-0.37 0.58,-0.685 0,-0.032 -0.053,-0.094 1.759,-3.132"
   id="34025"
   inkscape:label="Monmouth, NJ"
   inkscape:connector-curvature="0" />
  <path
   style="fill:#72b3dc;stroke:#c2dffb;stroke-width:1"
   d="m 8.878,16.378 1.126,-1.501 1.371,-0.271 0.802,0.573 0.324,-0.009 1.281,-0.197 -0.005,0.239 0.055,1.054 0.017,0.293 0.076,0.892 0.199,1.433 0.05,0.482 -0.008,0.051 -0.205,0.981 -0.547,1.924 -0.237,0.601 -0.294,0.306 -1.197,-0.542 0.135,-0.233 0.032,-0.315 L 11.334,19.89 9.067,16.635 8.878,16.378"
   id="34029"
   inkscape:label="Ocean, NJ"
   inkscape:connector-curvature="0" />
  
  <path
   style="fill:#72b3dc;stroke:#c2dffb;stroke-width:1"
   d="M 9.157,5.403 10.726,6.07 10.658,6.535 11.095,7.918 8.674,7.621 9.157,5.403"
   id="34013"
   inkscape:label="Essex, NJ"
   inkscape:connector-curvature="0" />
  <path
   style="fill:#72b3dc;stroke:#c2dffb;stroke-width:1"
   d="M 8.674,7.621 11.095,7.918 10.951,8.365 10.757,8.378 10.712,8.393 10.69,8.428 10.6,8.617 10.667,9.1 10.262,9.113 10.154,9.108 9.708,9.121 8.472,9.563 8.224,9.6 8.026,8.639 8.674,7.621"
   id="34039"
   inkscape:label="Union, NJ"
   inkscape:connector-curvature="0" />
  <path
   style="fill:#72b3dc;stroke:#c2dffb;stroke-width:1"
   d="M 12.141,6.021 12.05,7.233 11.92,7.603 10.951,8.365 11.095,7.918 10.658,6.535 12.141,6.021"
   id="34017"
   inkscape:label="Hudson, NJ"
   inkscape:connector-curvature="0" />
  <path
   style="fill:#72b3dc;stroke:#c2dffb;stroke-width:1"
   d="m 9.013,2.285 3.411,1.02 0.015,1.057 L 12.399,4.85 12.141,6.021 10.658,6.535 10.726,6.07 10.771,6.025 10.83,5.548 10.816,5.48 10.424,4.791 10.194,4.482 9.775,4.187 8.801,3.821 9.013,2.285"
   id="34003"
   inkscape:label="Bergen, NJ"
   inkscape:connector-curvature="0" />
  <path
   style="fill:#72b3dc;stroke:#c2dffb;stroke-width:1"
   d="m 10.667,9.1 0.009,0.072 0.023,0.153 -0.009,0.211 -0.023,0.054 -0.063,0 -0.067,0.006 -0.136,0.157 -0.004,0.099 0.112,0.256 -0.138,0.312 -0.006,0.014 -0.013,0.144 0.099,0.202 0.077,0.077 0.257,0.032 0.005,0 L 9.031,14.021 7.386,12.772 7.445,12.755 7.562,12.62 8.45,11.068 8.432,10.75 8.243,10.685 7.999,10.487 7.747,10.217 7.733,10.123 7.796,9.937 7.855,9.865 8.224,9.6 8.472,9.563 9.708,9.121 10.154,9.108 10.262,9.113 10.667,9.1"
   id="34023"
   inkscape:label="Middlesex, NJ"
   inkscape:connector-curvature="0" />
  <path
   style="fill:#72b3dc;stroke:#c2dffb;stroke-width:1"
   d="M 8.026,8.639 8.224,9.6 7.855,9.865 7.796,9.937 7.733,10.123 7.747,10.217 7.999,10.487 8.243,10.685 8.432,10.75 8.45,11.068 7.562,12.62 7.445,12.755 7.386,12.772 7.329,12.665 7.04,12.633 6.408,12.994 6.021,12.431 5.961,12.35 5.539,11.475 5.701,10.785 5.768,10.678 5.876,9.84 5.515,8.82 5.443,8.685 5.38,8.639 6.881,7.787 6.912,7.806 6.98,7.918 6.999,8 7.503,9.095 8.026,8.639"
   id="34035"
   inkscape:label="Somerset, NJ"
   inkscape:connector-curvature="0" />
  <path
   style="fill:#72b3dc;stroke:#c2dffb;stroke-width:1"
   d="M 6.427,3.519 7.341,4.105 7.959,4.137 8.581,4.133 9.157,5.403 8.674,7.621 8.026,8.639 7.503,9.095 6.999,8 6.98,7.918 6.912,7.806 6.881,7.787 5.38,8.639 3.631,8.131 4.429,6.296 6.427,3.519"
   id="34027"
   inkscape:label="Morris, NJ"
   inkscape:connector-curvature="0" />
  <path
   style="fill:#72b3dc;stroke:#c2dffb;stroke-width:1"
   d="M 8.788,2.217 9.013,2.285 8.801,3.821 9.775,4.187 10.194,4.482 10.424,4.791 10.816,5.48 10.83,5.548 10.771,6.025 10.726,6.07 9.157,5.403 8.581,4.133 7.959,4.137 7.341,4.105 6.427,3.519 7.377,1.739 8.788,2.217"
   id="34031"
   inkscape:label="Passaic, NJ"
   inkscape:connector-curvature="0" />
  <path
   style="fill:#72b3dc;stroke:#c2dffb;stroke-width:1"
   d="M 7.377,1.739 6.427,3.519 4.429,6.296 1.986,4.371 1.932,4.304 2.316,3.764 2.582,3.137 2.64,2.749 2.622,2.537 2.582,2.496 2.6,2.32 2.717,1.82 2.766,1.676 2.996,1.203 3.266,0.91 3.835,0.5 7.377,1.739"
   id="34037"
   inkscape:label="Sussex, NJ"
   inkscape:connector-curvature="0" />
  <path
   style="fill:#72b3dc;stroke:#c2dffb;stroke-width:1"
   d="M 1.986,4.371 4.429,6.296 3.631,8.131 3.538,8.378 3.118,9.185 3.041,9.289 2.492,9.84 1.545,10.897 1.334,11.258 1.229,11.055 1.165,10.938 0.927,10.018 0.827,9.24 0.991,8.855 1.067,8.834 1.211,8.848 1.357,8.828 1.554,8.555 1.878,7.562 1.883,7.486 1.851,7.41 0.936,6.332 1.986,4.371"
   id="34041"
   inkscape:label="Warren, NJ"
   inkscape:connector-curvature="0" />
  <path
   style="fill:#72b3dc;stroke:#c2dffb;stroke-width:1"
   d="m 3.631,8.131 1.749,0.508 0.063,0.046 0.072,0.135 0.361,1.02 -0.108,0.838 -0.067,0.107 -0.162,0.69 0.422,0.875 0.06,0.081 -0.515,0.324 -0.285,0.896 -0.679,0.244 -0.094,0 L 4.384,13.859 3.447,13.291 2.717,11.822 1.334,11.258 1.545,10.897 2.492,9.84 3.041,9.289 3.118,9.185 3.538,8.378 3.631,8.131"
   id="34019"
   inkscape:label="Hunterdon, NJ"
   inkscape:connector-curvature="0" />
  <path
   style="fill:#72b3dc;stroke:#c2dffb;stroke-width:1"
   d="m 6.021,12.431 0.387,0.563 0.632,-0.361 0.289,0.032 0.057,0.107 1.645,1.249 0.053,0.094 0,0.032 -0.58,0.685 -0.5,0.37 0.373,0.505 -1.329,0.185 -2.6,-1.997 0.094,0 0.679,-0.244 0.285,-0.896 0.515,-0.324"
   id="34021"
   inkscape:label="Mercer, NJ"
   inkscape:connector-curvature="0" />
  <path
   style="fill:#72b3dc;stroke:#c2dffb;stroke-width:1"
   d="M 3.578,19.952 4.312,18.587 8.138,21.205 7.128,23.049 5.88,22.066 4.479,20.529 3.952,20.145 3.578,19.952"
   id="34007"
   inkscape:label="Camden, NJ"
   inkscape:connector-curvature="0" />
  <path
   style="fill:#72b3dc;stroke:#c2dffb;stroke-width:1"
   d="m 3.193,20.502 0.385,-0.55 0.374,0.193 0.527,0.384 1.401,1.537 1.248,0.983 L 6.359,24.474 5.466,23.955 1.171,22.174 1.41,21.75 3.193,20.502"
   id="34015"
   inkscape:label="Gloucester, NJ"
   inkscape:connector-curvature="0" />
  <path
   style="fill:#72b3dc;stroke:#c2dffb;stroke-width:1"
   d="m 1.171,22.174 4.295,1.781 0.118,1.126 0,0.267 L 5.57,25.411 3.781,24.46 2.825,26.041 2.672,27.069 0.598,24.536 0.5,24.238 0.819,23.423 1.171,22.174"
   id="34033"
   inkscape:label="Salem, NJ"
   inkscape:connector-curvature="0" />
  <path
   style="fill:#72b3dc;stroke:#c2dffb;stroke-width:1"
   d="M 8.102,26.628 8.004,28.597 6.039,28.587 5.362,28.431 4.061,27.983 2.892,27.331 2.834,27.268 2.672,27.069 2.825,26.041 3.781,24.46 l 1.789,0.951 0.014,-0.063 0,-0.267 -0.118,-1.126 0.893,0.519 1.743,2.154"
   id="34011"
   inkscape:label="Cumberland, NJ"
   inkscape:connector-curvature="0" />
  <path
   style="fill:#72b3dc;stroke:#c2dffb;stroke-width:1"
   d="m 8.102,26.628 3.143,-0.393 -0.411,0.636 -0.122,0.217 -0.139,0.346 -0.221,0.599 -0.243,0.858 0,0.04 0.004,0.008 0.013,0.014 L 9.761,30.256 9.496,30.9 9.157,31.482 8.657,31.761 8.531,31.797 8.234,31.829 8.188,31.806 8.125,31.729 8.111,30.923 8.129,30.724 8.179,30.454 8.369,29.715 8.391,29.558 8.4,29.363 8.377,28.962 8.324,28.772 8.102,28.61 8.004,28.597 8.102,26.628"
   id="34009"
   inkscape:label="Cape May, NJ"
   inkscape:connector-curvature="0" />
  <path
   style="fill:#72b3dc;stroke:#c2dffb;stroke-width:1"
   d="m 12.883,23.229 -1.638,3.006 -3.143,0.393 -1.743,-2.154 0.769,-1.425 1.01,-1.844 0.136,0.072 0.553,0.284 0.714,0.704 0.892,0.414 0.239,0.072 0.432,0.086 0.582,-0.15 1.197,0.542"
   id="34001"
   inkscape:label="Atlantic, NJ"
   inkscape:connector-curvature="0" />
  <path
   style="fill:#72b3dc;stroke:#c2dffb;stroke-width:1"
   d="m 7.048,15.892 1.329,-0.185 0.501,0.671 0.189,0.257 2.267,3.255 0.519,2.249 -0.032,0.315 -0.135,0.233 -0.582,0.15 L 10.672,22.751 10.433,22.679 9.541,22.265 8.827,21.561 8.274,21.277 8.138,21.205 4.312,18.587 4.934,17.681 7.048,15.892"
   id="34005"
   inkscape:label="Burlington, NJ"
   inkscape:connector-curvature="0" />
  
  
  
  
  
  
  
  
  
  
  
  
  
  
  
  
  
  
  
  
  
  
  
  
  
  
  
  
  
  
  
  
  
  
  
  
  
  
  
  
  
  
  
  
  
  
  
  
  
  
  
  
  
  
  
  
  
  
  
  
  
  
  
  
  
  
  
  
  
  
  
  
  
  
  
  
  
  
  
  
  
  
  
  
  
  
  
  
  
  
  
  
  
  
  
  
  
  
  
  
  
  
  
  
  
  
  
  
  
  
  
  
  
  
  
  
  
  
  
  
  
  
  
  
  
  
  
  
  
  
  
  
  
  
  
  
  
  
  
  
  
  
  
  
  
  
  
  
  
  
  
  
  
  
  
  
  
  
  
  
  
  
  
  
  
  
  
  
  
  
  
  
  
  
  
  
  
  
  
  
  
  
  
  
  
  
  
  
  
  
  
  
  
  
  
  
  
  
  
  
  
  
  
  
  
  
  
  
  
  
  
  
  
  
  
  
  
  
  
  
  
  
  
  
  
  
  
  
  
  
  
  
  
  
  
  
  
  
  
  
  
  
  
  
  
  
  
  
  
  
  
  
  
  
  
  
  
  
  
  
  
  
  
  
  
  
  
  
  
  
  
  
  
  
  
  
  
  
  
  
  
  
  
  
  
  
  
  
  
  
  
  
  
  
  
  
  
  
  
  
  
  
  
  
  
  
  
  
  
  
  
  
  
  
  
  
  
  
  
  
  
  
  
  
  
  
  
  
  
  
  
  
  
  
  
  
  
  
  
  
  
  
  
  
  
  
  
  
  
  
  
  
  
  
  
  
  
  
  
  
  
  
  
  
  
  
  
  
  
  
  
  
  
  
  
  
  
  
  
  
  
  
  
  
  
  
  
  
  
  
  
  
  
  
  
  
  
  
  
  
  
  
  
  
  
  
  
  
  
  
  
  
  
  
  
  
  
  
  
  
  
  
  
  
  
  
  
  
  
  
  
  
  
  
  
  
  
  
  
  
  
  
  
  
  
  
  
  
  
  
  
  
  
  
  
  
  
  
  
  
  
  
  
  
  
  
  
  
  
  
  
  
  
  
  
  
  
  
  
  
  
  
  
  
  
  
  
  
  
  
  
  
  
  
  
  
  
  
  
  
  
  
  
  
  
  
  
  
  
  
  
  
  
  
  
  
  
  
  
  
  
  
  
  
  
  
  
  
  
  
  
  
  
  
  
  
  
  
  
  
  
  
  
  
  
  
  
  
  
  
  
  
  
  
  
  
  
  
  
  
  
  
  
  
  
  
  
  
  
  
  
  
  
  
  
  
  
  
  
  
  
  
  
  
  
  
  
  
  
  
  
  
  
  
  
  
  
  
  
  
  
  
  
  
  
  
  
  
  
  
  
  
  
  
  
  
  
  
  
  
  
  
  
  
  
  
  
  
  
  
  
  
  
  
  
  
  
  
  
  
  
  
  
  
  
  
  
  
  
  
  
  
  
  
  
  
  
  
  
  
  
  
  
  
  
  
  
  
  
  
  
  
  
  
  
  
  
  
  
  
  
  
  
  
  
  
  
  
  
  
  
  
  
  
  
  
  
  
  
  
  
  
  
  
  
  
  
  
  
  
  
  
  
  
  
  
  
  
  
  
  
  
  
  
  
  
  
  
  
  
  
  
  
  
  
  
  
  
  
  
  
  
  
  
  
  
  
  
  
  
  
  
  
  
  
  
  
  
  
  
  
  
  
  
  
  
  
  
  
  
  
  
  
  
  
  
  
  
  
  
  
  
  
  
  
  
  
  
  
  
  
  
  
  
  
  
  
  
  
  
  
  
  
  
  
  
  
  
  
  
  
  
  
  
  
  
  
  
  
  
  
  
  
  
  
  
  
  
  
  
  
  
  
  
  
  
  
  
  
  
  
  
  
  
  
  
  
  
  
  
  
  
  
  
  
  
  
  
  
  
  
  
  
  
  
  
  
  
  
  
  
  
  
  
  
  
  
  
  
  
  
  
  
  
  
  
  
  
  
  
  
  
  
  
  
  
  
  
  
  
  
  
  
  
  
  
  
  
  
  
  
  
  
  
  
  
  
  
  
  
  
  
  
  
  
  
  
  
  
  
  
  
  
  
  
  
  
  
  
  
  
  
  
  
  
  
  
  
  
  
  
  
  
  
  
  
  
  
  
  
  
  
  
  
  
  
  
  
  
  
  
  
  
  
  
  
  
  
  
  
  
  
  
  
  
  
  
  
  
  
  
  
  
  
  
  
  
  
  
  
  
  
  
  
  
  
  
  
  
  
  
  
  
  
  
  
  
  
  
  
  
  
  
  
  
  
  
  
  
  
  
  
  
  
  
  
  
  
  
  
  
  
  
  
  
  
  
  
  
  
  
  
  
  
  
  
  
  
  
  
  
  
  
  
  
  
  
  
  
  
  
  
  
  
  
  
  
  
  
  
  
  
  
  
  
  
  
  
  
  
  
  
  
  
  
  
  
  
  
  
  
  
  
  
  
  
  
  
  
  
  
  
  
  
  
  
  
  
  
  
  
  
  
  
  
  
  
  
  
  
  
  
  
  
  
  
  
  
  
  
  
  
  
  
  
  
  
  
  
  
  
  
  
  
  
  
  
  
  
  
  
  
  
  
  
  
  
  
  
  
  
  
  
  
  
  
  
  
  
  
  
  
  
  
  
  
  
  
  
  
  
  
  
  
  
  
  
  
  
  
  
  
  
  
  
  
  
  
  
  
  
  
  
  
</svg>