<?xml version="1.0" encoding="UTF-8" standalone="no"?>
<!--?xml version="1.0" encoding="UTF-8" standalone="no"?-->

<svg
   xmlns:dc="http://purl.org/dc/elements/1.1/"
   xmlns:cc="http://creativecommons.org/ns#"
   xmlns:rdf="http://www.w3.org/1999/02/22-rdf-syntax-ns#"
   xmlns:svg="http://www.w3.org/2000/svg"
   xmlns="http://www.w3.org/2000/svg"
   xmlns:sodipodi="http://sodipodi.sourceforge.net/DTD/sodipodi-0.dtd"
   xmlns:inkscape="http://www.inkscape.org/namespaces/inkscape"
   width="78.480499"
   height="81.09417"
   viewBox="0 0 72.544999 74.076405"
   preserveAspectRatio="xMinYMin meet"
   xml:space="preserve"
   id="svg2187"
   version="1.1"
   inkscape:version="0.48.2 r9819"
   sodipodi:docname="NM.svg"><metadata
   id="metadata2226"><rdf:RDF><cc:Work
       rdf:about=""><dc:format>image/svg+xml</dc:format><dc:type
         rdf:resource="http://purl.org/dc/dcmitype/StillImage" /></cc:Work></rdf:RDF></metadata><defs
   id="defs2224" /><sodipodi:namedview
   pagecolor="#ffffff"
   bordercolor="#666666"
   borderopacity="1"
   objecttolerance="10"
   gridtolerance="10"
   guidetolerance="10"
   inkscape:pageopacity="0"
   inkscape:pageshadow="2"
   inkscape:window-width="640"
   inkscape:window-height="480"
   id="namedview2222"
   showgrid="false"
   inkscape:zoom="0.56730769"
   inkscape:cx="135.32574"
   inkscape:cy="66.183573"
   inkscape:window-x="0"
   inkscape:window-y="0"
   inkscape:window-maximized="0"
   inkscape:current-layer="svg2187" />
  
  
  
  
  
  
  
  
  
  
  
  
  
  
  
  
  
  
  
  
  
  
  
  
  
  
  
  
  
  
  
  
  
  
  
  
  
  
  
  
  
  
  
  
  
  
  
  
  
  
  
  
  
  
  
  
  
  
  
  
  
  
  
  
  
  
  
  
  
  
  
  
  
  
  
  
  
  
  
  
  
  
  
  
  
  
  
  
  
  
  
  
  
  
  
  
  
  
  
  
  
  
  
  
  
  
  
  
  
  
  
  
  
  
  
  
  
  
  
  
  
  
  
  
  
  
  
  
  
  
  
  
  
  
  
  
  
  
  
  
  
  
  
  
  
  
  
  
  
  
  
  
  
  
  
  
  
  
  
  
  
  
  
  
  
  
  
  
  
  
  
  
  
  
  
  
  
  
  
  
  
  
  
  
  
  
  
  
  
  
  
  
  
  
  
  
  
  
  
  
  
  
  
  
  
  
  
  
  
  
  
  
  
  
  
  
  
  
  
  
  
  
  
  
  
  
  
  
  
  
  
  
  
  
  
  
  
  
  
  
  
  
  
  
  
  
  
  
  
  
  
  
  
  
  
  
  
  
  
  
  
  
  
  
  
  
  
  
  
  
  
  
  
  
  
  
  
  
  
  
  
  
  
  
  
  
  
  
  
  
  
  
  
  
  
  
  
  
  
  
  
  
  
  
  
  
  
  
  
  
  
  
  
  
  
  
  
  
  
  
  
  
  
  
  
  
  
  
  
  
  
  
  
  
  
  
  
  
  
  
  
  
  
  
  
  
  
  
  
  
  
  
  
  
  
  
  
  
  
  
  
  
  
  
  
  
  
  
  
  
  
  
  
  
  
  
  
  
  
  
  
  
  
  
  
  
  
  
  
  
  
  
  
  
  
  
  
  
  
  
  
  
  
  
  
  
  
  
  
  
  
  
  
  
  
  
  
  
  
  
  
  
  
  
  
  
  
  
  
  
  
  
  
  
  
  
  
  
  
  
  
  
  
  
  
  
  
  
  
  
  
  
  
  
  
  
  
  
  
  
  
  
  
  
  
  
  
  
  
  
  
  
  
  
  
  
  
  
  
  
  
  
  
  
  
  
  
  
  
  
  
  
  
  
  
  
  
  
  
  
  
  
  
  
  
  
  
  
  
  
  
  
  
  
  
  
  
  
  
  
  
  
  
  
  
  
  
  
  
  
  
  
  
  
  
  
  
  
  
  
  
  
  
  
  
  
  
  
  
  
  
  
  
  
  
  
  
  
  
  
  
  
  
  
  
  
  
  
  
  
  
  
  
  
  
  
  
  
  
  
  
  
  
  
  
  
  
  
  
  
  
  
  
  
  
  
  
  
  
  
  
  
  
  
  
  
  
  
  
  
  
  
  
  
  
  
  
  
  
  
  
  
  
  
  
  
  
  
  
  
  
  
  
  
  
  
  
  
  
  
  
  
  
  
  
  
  
  
  
  
  
  
  
  
  
  
  
  
  
  
  
  
  
  
  
  
  
  
  
  
  
  
  
  
  
  
  
  
  
  
  
  
  
  
  
  
  
  
  
  
  
  
  
  
  
  
  
  
  
  
  
  
  
  
  
  
  
  
  
  
  
  
  
  
  
  
  
  
  
  
  
  
  
  
  
  
  
  
  
  
  
  
  
  
  
  
  
  
  
  
  
  
  
  
  
  
  
  
  
  
  
  
  
  
  
  
  
  
  
  
  
  
  
  
  
  
  
  
  
  
  
  
  
  
  
  
  
  
  
  
  
  
  
  
  
  
  
  
  
  
  
  
  
  
  
  
  
  
  
  
  
  
  
  
  
  
  
  
  
  
  
  
  
  
  
  
  
  
  
  
  
  
  
  
  
  
  
  
  
  
  
  
  
  
  
  
  
  
  
  
  
  
  
  
  
  
  
  
  
  
  
  
  
  
  
  
  
  
  
  
  
  
  
  
  
  
  
  
  
  
  
  
  
  
  
  
  
  
  
  
  
  
  
  
  
  
  
  
  
  
  
  
  
  
  
  
  
  
  
  
  
  
  
  
  
  
  
  
  
  
  
  
  
  
  
  
  
  
  
  
  
  
  
  
  
  
  
  
  
  
  
  
  
  
  
  
  
  
  
  
  
  
  
  
  
  
  
  
  
  
  
  
  
  
  
  
  
  
  
  
  
  
  
  
  
  
  
  
  
  
  
  
  
  
  
  
  
  
  
  
  
  
  
  
  
  
  
  
  
  
  
  
  
  
  
  
  
  
  
  
  
  
  
  
  
  
  
  
  
  
  
  
  
  
  
  
  
  
  
  
  
  
  
  
  
  
  
  
  
  
  
  
  
  
  
  
  
  
  
  
  
  
  
  
  
  
  
  
  
  
  
  
  
  
  
  
  
  
  
  
  
  
  
  
  
  
  
  
  
  
  
  
  
  
  
  
  
  
  
  
  
  
  
  
  
  
  
  
  
  
  
  
  
  
  
  
  
  
  
  
  
  
  
  
  
  
  
  
  
  
  
  
  
  
  
  
  
  
  
  
  
  
  
  
  
  
  
  
  
  
  
  
  
  
  
  
  
  
  
  
  
  
  
  
  
  
  
  
  
  
  
  
  
  
  
  
  
  
  
  
  
  
  
  
  
  
  
  
  
  
  
  
  
  
  
  
  
  
  
  
  
  
  
  
  
  
  
  
  
  
  
  
  
  
  
  
  
  
  
  
  
  
  
  
  
  
  
  
  
  
  
  
  
  
  
  
  
  
  
  
  
  
  
  
  
  
  
  
  
  
  
  
  
  
  
  
  
  
  
  
  
  
  
  
  
  
  
  
  
  
  
  
  
  
  
  
  
  
  
  
  
  
  
  
  
  
  
  
  
  
  
  
  
  
  
  
  
  
  
  
  
  
  
  
  
  
  
  
  
  
  
  
  
  
  
  
  
  
  
  
  
  
  
  
  
  
  
  
  
  
  
  
  
  
  
  
  
  
  
  
  
  
  
  
  
  
  
  
  
  
  
  
  
  
  
  
  
  
  
  
  
  
  
  
  
  
  
  
  
  
  
  
  
  
  
  
  
  
  
  
  
  
  
  
  
  
  
  
  
  
  
  
  
  
  
  
  
  
  
  
  
  
  
  
  
  
  
  
  
  
  
  
  
  
  
  
  
  
  
  
  
  
  
  
  
  
  
  
  
  
  
  
  
  
  
  
  
  
  
  
  
  
  
  
  
  
  
  
  
  
  
  
  
  
  
  
  
  
  
  
  
  
  
  
  
  
  
  
  
  
  
  
  
  
  
  
  
  
  
  
  
  
  
  
  
  
  
  
  
  
  
  
  
  
  
  
  
  
  
  
  
  
  
  
  
  
  
  
  
  
  
  
  
  
  
  
  
  
  
  
  
  
  
  
  
  
  
  
  
  
  
  
  
  
  
  
  
  
  
  
  
  
  
  
  
  
  
  
  
  
  
  
  
  
  
  
  
  
  
  
  
  
  
  
  
  
  
  
  
  
  
  
  
  
  
  
  
  
  
  
  
  
  
  
  
  
  
  
  
  
  
  
  
  
  
  
  
  
  
  
  
  
  
  
  
  
  
  
  
  
  
  
  
  
  
  
  
  
  
  
  
  
  
  
  
  
  
  
  
  
  
  
  
  
  
  
  
  
  
  
  
  
  
  
  
  
  
  
  
  
  
  
  
  
  
  
  
  
  
  
  
  
  
  
  
  
  
  
  
  
  
  
  
  
  
  
  
  
  
  
  
  
  
  
  
  
  
  
  
  
  
  
  
  
  
  
  
  
  
  
  
  
  
  
  
  
  
  
  
  
  
  
  
  
  
  
  
  
  
  
  
  
  
  
  
  
  
  
  
  
  
  
  
  
  
  
  
  
  
  
  
  
  
  
  
  
  
  
  
  
  
  
  
  
  
  
  
  
  
  
  
  
  
  
  
  
  
  
  
  
  
  
  
  
  
  
  
  
  
  
  
  
  
  
  
  
  
  
  
  
  
  
  
  
  
  
  
  
  
  
  
  
  
  
  
  
  
  
  
  
  
  
  
  
  
  
  
  
  
  
  
  
  
  
  
  
  
  
  
  
  
  
  
  
  
  
  
  
  
  
  
  
  
  
  
  
  
  
  
  
  
  
  
  
  
  
  
  
  
  
  
  
  
  
  
  
  
  
  
  
  
  
  
  
  
  
  
  
  
  
  
  
  
  
  
  
  
  
  
  
  
  
  
  
  
  
  
  
  
  
  
  
  
  
  
  
  
  
  
  
  
  
  
  
  
  
  
  
  
  
  
  
  
  
  
  
  
  
  
  
  
  
  
  
  
  
  
  
  
  
  
  
  
  
  
  
  
  
  
  <path
   style="fill:#72b3dc;stroke:#c2dffb;stroke-width:1"
   d="m 68.233,51.34 -0.221,2.353 -0.496,5.535 -0.834,11.249 -0.085,1.118 -0.267,-0.019 -0.612,-0.049 -0.767,-0.059 -0.563,-0.039 -0.64,-0.051 -4.314,-0.338 0.551,-6.733 -0.983,-0.076 0.46,-5.711 0.518,0.041 0.455,-5.554 0.672,-2.208 2.244,0.172 4.882,0.369"
   id="35025"
   inkscape:label="Lea, NM"
   inkscape:connector-curvature="0" />
  <path
   style="fill:#72b3dc;stroke:#c2dffb;stroke-width:1"
   d="m 47.797,63.27 0.104,0.006 0.541,-5.703 11.02,0.947 -0.46,5.711 0.983,0.076 -0.551,6.733 -2.794,-0.229 -0.482,-0.041 -8.946,-0.802 0.306,-3.25 -0.041,-0.004 0.32,-3.444"
   id="35015"
   inkscape:label="Eddy, NM"
   inkscape:connector-curvature="0" />
  <path
   style="fill:#72b3dc;stroke:#c2dffb;stroke-width:1"
   d="m 37.548,17.333 -0.022,0.461 -0.136,0.969 -0.297,-0.027 0.253,0.207 0.022,0.032 -0.117,1.082 -0.149,-0.33 -0.153,-0.18 -0.419,-0.243 -0.316,-0.153 -0.063,0.058 -0.212,0.018 -0.189,-0.014 -0.104,-0.054 -0.068,-0.126 0.348,-1.325 0.175,-0.351 0.911,-0.095 0.374,0.014 0.162,0.057"
   id="35028"
   inkscape:label="Los Alamos, NM"
   inkscape:connector-curvature="0" />
  <path
   style="fill:#72b3dc;stroke:#c2dffb;stroke-width:1"
   d="m 27.078,2.618 4.269,0.505 1.315,0.253 2.57,0.283 1.433,0.154 4.777,0.491 0.113,0.892 -0.095,1.397 -0.126,2.777 0.059,0.766 0.036,0.807 -0.009,0.261 -0.288,1.258 -0.086,0.18 -0.135,0.109 -0.325,0.13 -0.257,0.014 -0.13,0.031 -0.208,0.248 -0.036,0.099 1.978,1.078 0.839,1.379 0.104,0.216 0.131,0.216 2,1.343 -1.973,0.248 0.04,-0.307 -3.628,-0.374 0.013,0.167 0.099,0.014 0.014,0.05 -0.072,0.707 -1.974,-0.216 0.022,-0.461 0.023,-0.089 0.036,-0.361 -6.576,-0.702 0.167,-1.537 0.157,-1.272 -3.619,-0.419 -3.961,-0.522 0.351,-3.043 0.131,-0.996 0.491,-3.363 0.27,-0.491 1.637,-1.352 0.423,-0.568"
   id="35039"
   inkscape:label="Rio Arriba, NM"
   inkscape:connector-curvature="0" />
  <path
   style="fill:#72b3dc;stroke:#c2dffb;stroke-width:1"
   d="m 17.352,1.402 9.109,1.14 0.617,0.076 -0.423,0.568 -1.637,1.352 -0.27,0.491 -0.491,3.363 -0.131,0.996 -0.351,3.043 -0.37,2.825 L 18.65,14.629 8.825,13.326 10.605,0.5 17.352,1.402"
   id="35045"
   inkscape:label="San Juan, NM"
   inkscape:connector-curvature="0" />
  <path
   style="fill:#72b3dc;stroke:#c2dffb;stroke-width:1"
   d="m 8.825,13.326 9.825,1.303 4.755,0.627 3.272,0.419 -1.086,8.938 -2.434,-0.27 -0.874,-0.126 -1.095,-0.136 -7.617,-1.001 -0.023,0.181 -0.573,4.296 -6.003,-0.821 1.853,-13.41"
   id="35031"
   inkscape:label="McKinely, NM"
   inkscape:connector-curvature="0" />
  <path
   style="fill:#72b3dc;stroke:#c2dffb;stroke-width:1"
   d="m 26.641,25.862 2.425,0.292 2.078,0.244 1.708,0.198 2.488,0.279 1.19,0.163 -0.235,2.258 -0.121,1.118 0.982,0.103 -0.113,1.077 -0.833,-0.076 -1.898,-0.221 -0.005,-0.289 -0.081,-0.13 -0.085,-0.032 -2.65,-0.333 -0.33,0.302 -0.085,0.122 -3.178,-0.366 -0.306,-1.171 -0.951,-3.538"
   id="35001"
   inkscape:label="Bernalillo, NM"
   inkscape:connector-curvature="0" />
  <path
   style="fill:#72b3dc;stroke:#c2dffb;stroke-width:1"
   d="m 27.592,29.4 0.306,1.171 3.178,0.366 0.085,-0.122 0.33,-0.302 2.65,0.333 0.085,0.032 0.081,0.13 0.005,0.289 -0.645,0.726 -0.356,2.573 -0.112,1.136 0.55,0.054 -0.109,1.055 -0.842,-0.289 -2.763,-1.333 -1.082,-0.731 -0.292,-0.045 -3.084,-0.338 0.595,-4.886 1.42,0.181"
   id="35061"
   inkscape:label="Valencia, NM"
   inkscape:connector-curvature="0" />
  <path
   style="fill:#72b3dc;stroke:#c2dffb;stroke-width:1"
   d="m 26.641,25.862 0.951,3.538 -1.42,-0.181 -0.595,4.886 -5.453,-0.654 -0.713,-0.103 -3.483,-0.461 -2.506,-0.297 -7.126,-0.964 0.676,-4.89 6.003,0.821 0.573,-4.296 0.023,-0.181 7.617,1.001 1.095,0.136 0.874,0.126 2.434,0.27 1.05,1.249"
   id="35006"
   inkscape:label="Cibola, NM"
   inkscape:connector-curvature="0" />
  <path
   style="fill:#72b3dc;stroke:#c2dffb;stroke-width:1"
   d="m 18.492,47.635 7.008,0.825 1.177,0.167 3.376,0.397 1.528,0.161 1.163,0.073 0.167,1.181 -0.419,4.358 -6.198,2.299 -0.063,0.558 -4.413,-0.527 -0.27,2.245 -3.317,-0.401 -1.145,-0.365 -0.171,-0.142 0.027,-0.138 0.117,-0.225 0.194,-0.757 0.054,-0.546 -0.018,-0.193 -0.636,-5.284 -0.018,-0.102 -0.131,-0.231 -0.09,-0.027 -1.428,-0.171 0.451,-3.552 3.055,0.397"
   id="35051"
   inkscape:label="Sierra, NM"
   inkscape:connector-curvature="0" />
  <path
   style="fill:#72b3dc;stroke:#c2dffb;stroke-width:1"
   d="m 25.577,34.105 3.084,0.338 0.292,0.045 1.082,0.731 2.763,1.333 0.842,0.289 -0.243,2.321 5.183,0.554 -0.369,3.349 -0.226,2.254 -1.356,-0.15 -0.243,2.264 -1.033,-0.109 -0.09,-0.041 -1.154,-0.224 -1.117,-0.127 -0.248,2.326 -1.163,-0.073 -1.528,-0.161 -3.376,-0.397 -1.177,-0.167 -7.008,-0.825 0.266,-2.109 0.947,-7.964 -0.099,-0.014 0.373,-3.092 0.145,-1.005 5.453,0.654"
   id="35053"
   inkscape:label="Socorro, NM"
   inkscape:connector-curvature="0" />
  <path
   style="fill:#72b3dc;stroke:#c2dffb;stroke-width:1"
   d="m 20.124,33.451 -0.145,1.005 -0.373,3.092 0.099,0.014 -0.947,7.964 -0.266,2.109 L 15.437,47.238 14.986,50.79 10.2,50.177 9.212,49.956 8.117,49.788 3.853,49.217 6.296,31.626 l 7.126,0.964 2.506,0.297 3.483,0.461 0.713,0.103"
   id="35003"
   inkscape:label="Catron, NM"
   inkscape:connector-curvature="0" />
  <path
   style="fill:#72b3dc;stroke:#c2dffb;stroke-width:1"
   d="m 3.853,49.217 4.264,0.571 1.095,0.168 0.988,0.221 4.786,0.613 1.428,0.171 0.09,0.027 0.131,0.231 0.018,0.102 0.636,5.284 0.018,0.193 -0.054,0.546 -0.194,0.757 -0.117,0.225 -0.027,0.138 0.171,0.142 1.145,0.365 -3.389,-0.41 -0.14,1.117 -3.291,-0.414 -0.73,5.601 0.005,0.686 -0.126,1.356 -0.099,0.745 L 7.13,67.219 7.531,63.167 8.103,58.83 7.08,57.563 4.863,57.262 5.151,55.035 3.087,54.746 3.853,49.217"
   id="35017"
   inkscape:label="Grant, NM"
   inkscape:connector-curvature="0" />
  <path
   style="fill:#72b3dc;stroke:#c2dffb;stroke-width:1"
   d="m 3.087,54.746 2.064,0.289 -0.288,2.227 2.217,0.301 1.023,1.267 -0.572,4.337 -0.401,4.052 3.331,0.433 -0.036,1.041 L 9.951,72.33 9.677,74.461 2.668,73.546 2.56,73.529 1.695,73.411 0.5,73.244 2.461,59.245 3.087,54.746"
   id="35023"
   inkscape:label="Hidalgo, NM"
   inkscape:connector-curvature="0" />
  <path
   style="fill:#72b3dc;stroke:#c2dffb;stroke-width:1"
   d="m 21.548,59.372 -1.231,10.551 -9.892,-1.23 0.036,-1.041 0.099,-0.745 0.126,-1.356 -0.005,-0.686 0.73,-5.601 3.291,0.414 0.14,-1.117 3.389,0.41 3.317,0.401"
   id="35029"
   inkscape:label="Luna, NM"
   inkscape:connector-curvature="0" />
  <path
   style="fill:#72b3dc;stroke:#c2dffb;stroke-width:1"
   d="m 32.492,54.797 -0.136,1.217 -0.383,-0.041 -1.352,12.295 -2.371,-0.251 -0.036,-0.005 -0.004,0 0,0.005 -0.235,0.554 -0.027,0.094 -0.252,1.113 0.018,0.059 0.104,0.14 0.847,0.906 -8.348,-0.96 1.231,-10.551 0.27,-2.245 4.413,0.527 0.063,-0.558 6.198,-2.299"
   id="35013"
   inkscape:label="Dona Ana, NM"
   inkscape:connector-curvature="0" />
  <path
   style="fill:#72b3dc;stroke:#c2dffb;stroke-width:1"
   d="m 44.372,4.606 5.066,0.513 -0.041,0.794 -0.315,2.051 -0.645,0.608 -0.36,0.135 -0.325,0.15 -0.238,0.171 -0.136,0.941 -0.023,0.699 0.082,1.298 -0.158,2.51 -2.272,3.029 -2,-1.343 -0.131,-0.216 -0.104,-0.216 -0.839,-1.379 -1.978,-1.078 0.036,-0.099 0.208,-0.248 0.13,-0.031 0.257,-0.014 0.325,-0.13 0.135,-0.109 0.086,-0.18 0.288,-1.258 0.009,-0.261 -0.036,-0.807 -0.059,-0.766 0.126,-2.777 0.095,-1.397 -0.113,-0.892 2.93,0.302"
   id="35055"
   inkscape:label="Taos, NM"
   inkscape:connector-curvature="0" />
  <path
   style="fill:#72b3dc;stroke:#c2dffb;stroke-width:1"
   d="m 37.526,17.794 1.974,0.216 0.072,-0.707 -0.014,-0.05 -0.099,-0.014 -0.013,-0.167 3.628,0.374 -0.04,0.307 -0.172,1.388 -1.036,10.719 -5.531,-0.564 0.235,-2.258 0.721,-6.981 0.139,-1.294 0.136,-0.969"
   id="35049"
   inkscape:label="Santa Fe, NM"
   inkscape:connector-curvature="0" />
  <path
   style="fill:#72b3dc;stroke:#c2dffb;stroke-width:1"
   d="m 32.911,50.439 3.677,0.409 2.912,0.293 -0.095,1.105 4.345,0.432 -0.198,2.231 -0.203,1.455 -0.203,0.723 -0.302,1.1 -0.469,4.583 2.209,0.217 0.419,0.018 2.794,0.265 -0.32,3.444 0.041,0.004 -0.306,3.25 -0.767,-0.072 -11.714,-1.195 -4.11,-0.433 1.352,-12.295 0.383,0.041 0.136,-1.217 0.419,-4.358"
   id="35035"
   inkscape:label="Otero, NM"
   inkscape:connector-curvature="0" />
  <path
   style="fill:#72b3dc;stroke:#c2dffb;stroke-width:1"
   d="m 41.826,29.86 4.421,0.436 -0.541,5.611 -0.239,-0.017 -0.333,3.362 -0.113,1.117 -6.441,-0.653 -5.183,-0.554 0.243,-2.321 0.109,-1.055 -0.55,-0.054 0.112,-1.136 0.356,-2.573 0.645,-0.726 1.898,0.221 0.833,0.076 0.113,-1.077 -0.982,-0.103 0.121,-1.118 5.531,0.564"
   id="35057"
   inkscape:label="Torrance, NM"
   inkscape:connector-curvature="0" />
  <path
   style="fill:#72b3dc;stroke:#c2dffb;stroke-width:1"
   d="m 45.134,39.252 4.439,0.423 -0.329,3.336 -0.333,3.407 0.022,0 0.009,0.031 -0.46,4.788 -0.523,4.015 -1.086,-0.045 -3.321,-0.298 0.198,-2.231 -4.345,-0.432 0.095,-1.105 -2.912,-0.293 -3.677,-0.409 -0.167,-1.181 0.248,-2.326 1.117,0.127 1.154,0.224 0.09,0.041 1.033,0.109 0.243,-2.264 1.356,0.15 0.226,-2.254 0.369,-3.349 6.441,0.653 0.113,-1.117"
   id="35027"
   inkscape:label="Lincoln, NM"
   inkscape:connector-curvature="0" />
  <path
   style="fill:#72b3dc;stroke:#c2dffb;stroke-width:1"
   d="m 50.105,5.183 1.573,0.177 2.732,0.251 7.382,0.617 -0.865,10.074 -4.399,-0.388 -4.417,-0.396 0.058,-0.555 -4.89,-0.487 0.158,-2.51 -0.082,-1.298 0.023,-0.699 0.136,-0.941 0.238,-0.171 0.325,-0.15 0.36,-0.135 0.645,-0.608 0.315,-2.051 0.041,-0.794 0.667,0.064"
   id="35007"
   inkscape:label="Colfax, NM"
   inkscape:connector-curvature="0" />
  <path
   style="fill:#72b3dc;stroke:#c2dffb;stroke-width:1"
   d="m 47.279,14.476 4.89,0.487 -0.058,0.555 4.417,0.396 0.212,5.72 -3.972,-0.312 -2.649,-0.167 -1.023,-0.558 -2.367,-1.055 -3.867,-0.401 0.172,-1.388 1.973,-0.248 2.272,-3.029"
   id="35033"
   inkscape:label="Mora, NM"
   inkscape:connector-curvature="0" />
  <path
   style="fill:#72b3dc;stroke:#c2dffb;stroke-width:1"
   d="m 71.189,6.927 0.856,0.063 -0.477,6.477 -0.424,0.252 -0.157,2.078 -0.244,3.407 -0.307,4.093 -3.461,-0.275 0.262,-3.349 0.121,-0.229 0.068,-0.897 -4.431,-0.348 0.099,-1.14 -2.213,-0.194 0.046,-0.563 0.865,-10.074 9.397,0.699"
   id="35059"
   inkscape:label="Union, NM"
   inkscape:connector-curvature="0" />
  <path
   style="fill:#72b3dc;stroke:#c2dffb;stroke-width:1"
   d="m 56.528,15.914 4.399,0.388 -0.046,0.563 2.213,0.194 -0.099,1.14 4.431,0.348 -0.068,0.897 -0.121,0.229 -0.262,3.349 -0.131,1.132 -0.266,3.294 -0.112,0.094 -2.574,-0.202 0.037,-0.415 -0.911,-0.077 -2.213,-5.129 -1.56,0.126 -2.505,-0.211 -0.212,-5.72"
   id="35021"
   inkscape:label="Harding, NM"
   inkscape:connector-curvature="0" />
  <path
   style="fill:#72b3dc;stroke:#c2dffb;stroke-width:1"
   d="m 42.862,19.141 3.867,0.401 2.367,1.055 1.023,0.558 2.649,0.167 3.972,0.312 2.505,0.211 1.56,-0.126 2.213,5.129 0.911,0.077 -0.037,0.415 -0.153,1.929 -2.299,-0.207 0.023,-0.284 -2.921,1.342 0.073,-0.952 -12.152,-1.126 -0.216,2.254 -4.421,-0.436 1.036,-10.719"
   id="35047"
   inkscape:label="San Miguel, NM"
   inkscape:connector-curvature="0" />
  <path
   style="fill:#72b3dc;stroke:#c2dffb;stroke-width:1"
   d="m 66.975,23.022 3.461,0.275 -0.117,1.511 -0.428,5.687 -0.225,2.965 -2.091,-0.157 -2.646,2.077 -2.479,0.924 -0.437,1.104 -2.213,-0.184 -1.893,-0.162 0.185,-2.253 0.103,-1.182 0.239,-2.294 0.108,-1.213 2.921,-1.342 -0.023,0.284 2.299,0.207 0.153,-1.929 2.574,0.202 0.112,-0.094 0.266,-3.294 0.131,-1.132"
   id="35037"
   inkscape:label="Quay, NM"
   inkscape:connector-curvature="0" />
  <path
   style="fill:#72b3dc;stroke:#c2dffb;stroke-width:1"
   d="m 58.542,30.12 -0.108,1.213 -0.239,2.294 -0.103,1.182 -2.209,-0.187 -0.482,1.088 -0.821,1.063 -4.696,-0.423 -0.311,3.325 -4.439,-0.423 0.333,-3.362 0.239,0.017 0.757,-7.865 12.152,1.126 -0.073,0.952"
   id="35019"
   inkscape:label="Guadelupe, NM"
   inkscape:connector-curvature="0" />
  <path
   style="fill:#72b3dc;stroke:#c2dffb;stroke-width:1"
   d="m 58.092,34.809 -0.185,2.253 1.893,0.162 -0.32,3.767 -0.028,0.695 -0.189,2.289 -2.222,-0.198 -0.104,1.136 -2.32,-0.208 -4.346,-0.446 0.104,-1.136 -1.131,-0.112 0.329,-3.336 0.311,-3.325 4.696,0.423 0.821,-1.063 0.482,-1.088 2.209,0.187"
   id="35011"
   inkscape:label="De Baca, NM"
   inkscape:connector-curvature="0" />
  <path
   style="fill:#72b3dc;stroke:#c2dffb;stroke-width:1"
   d="m 69.666,33.46 -0.198,2.673 -0.433,5.621 -0.009,0.135 -7.351,-0.581 0.338,-3.9 0.437,-1.104 2.479,-0.924 2.646,-2.077 2.091,0.157"
   id="35009"
   inkscape:label="Curry, NM"
   inkscape:connector-curvature="0" />
  <path
   style="fill:#72b3dc;stroke:#c2dffb;stroke-width:1"
   d="m 62.013,37.408 -0.338,3.9 7.351,0.581 -0.496,6.175 -0.297,3.276 -4.882,-0.369 0.095,-1.123 -2.222,-0.162 0.189,-2.106 -1.329,-0.112 0.284,-3.39 -1.105,-0.103 0.189,-2.289 0.028,-0.695 0.32,-3.767 2.213,0.184"
   id="35041"
   inkscape:label="Roosevelt, NM"
   inkscape:connector-curvature="0" />
  <path
   style="fill:#72b3dc;stroke:#c2dffb;stroke-width:1"
   d="m 59.263,43.975 1.105,0.103 -0.284,3.39 1.329,0.112 -0.189,2.106 2.222,0.162 -0.095,1.123 -2.244,-0.172 -0.672,2.208 -0.455,5.554 -0.518,-0.041 -11.02,-0.947 -0.541,5.703 -0.104,-0.006 -2.794,-0.265 -0.419,-0.018 -2.209,-0.217 0.469,-4.583 0.302,-1.1 0.203,-0.723 0.203,-1.455 3.321,0.298 1.086,0.045 0.523,-4.015 0.46,-4.788 -0.009,-0.031 -0.022,0 0.333,-3.407 1.131,0.112 -0.104,1.136 4.346,0.446 2.32,0.208 0.104,-1.136 2.222,0.198"
   id="35005"
   inkscape:label="Chaves, NM"
   inkscape:connector-curvature="0" />
  <path
   style="fill:#72b3dc;stroke:#c2dffb;stroke-width:1"
   id="35043"
   d="m 23.775,12.431 3.961,0.522 3.619,0.419 -0.157,1.272 -0.167,1.537 6.576,0.702 -0.036,0.361 -0.023,0.089 -0.162,-0.057 -0.374,-0.014 -0.911,0.095 -0.175,0.351 -0.348,1.325 0.068,0.126 0.104,0.054 0.189,0.014 0.212,-0.018 0.063,-0.058 0.316,0.153 0.419,0.243 0.153,0.18 0.149,0.33 -0.721,6.981 -1.19,-0.163 -2.488,-0.279 -1.708,-0.198 -2.078,-0.244 -2.425,-0.292 -1.05,-1.249 1.086,-8.938 -3.272,-0.419 0.37,-2.825 m 13.593,6.544 -0.022,-0.032 -0.253,-0.207 0.297,0.027 -0.022,0.212"
   inkscape:label="Sandoval, NM"
   inkscape:connector-curvature="0" />
  
  
  
  
  
  
  
  
  
  
  
  
  
  
  
  
  
  
  
  
  
  
  
  
  
  
  
  
  
  
  
  
  
  
  
  
  
  
  
  
  
  
  
  
  
  
  
  
  
  
  
  
  
  
  
  
  
  
  
  
  
  
  
  
  
  
  
  
  
  
  
  
  
  
  
  
  
  
  
  
  
  
  
  
  
  
  
  
  
  
  
  
  
  
  
  
  
  
  
  
  
  
  
  
  
  
  
  
  
  
  
  
  
  
  
  
  
  
  
  
  
  
  
  
  
  
  
  
  
  
  
  
  
  
  
  
  
  
  
  
  
  
  
  
  
  
  
  
  
  
  
  
  
  
  
  
  
  
  
  
  
  
  
  
  
  
  
  
  
  
  
  
  
  
  
  
  
  
  
  
  
  
  
  
  
  
  
  
  
  
  
  
  
  
  
  
  
  
  
  
  
  
  
  
  
  
  
  
  
  
  
  
  
  
  
  
  
  
  
  
  
  
  
  
  
  
  
  
  
  
  
  
  
  
  
  
  
  
  
  
  
  
  
  
  
  
  
  
  
  
  
  
  
  
  
  
  
  
  
  
  
  
  
  
  
  
  
  
  
  
  
  
  
  
  
  
  
  
  
  
  
  
  
  
  
  
  
  
  
  
  
  
  
  
  
  
  
  
  
  
  
  
  
  
  
  
  
  
  
  
  
  
  
  
  
  
  
  
  
  
  
  
  
  
  
  
  
  
  
  
  
  
  
  
  
  
  
  
  
  
  
  
  
  
  
  
  
  
  
  
  
  
  
  
  
  
  
  
  
  
  
  
  
  
  
  
  
  
  
  
  
  
  
  
  
  
  
  
  
  
  
  
  
  
  
  
  
  
  
  
  
  
  
  
  
  
  
  
  
  
  
  
  
  
  
  
  
  
  
  
  
  
  
  
  
  
  
  
  
  
  
  
  
  
  
  
  
  
  
  
  
  
  
  
  
  
  
  
  
  
  
  
  
  
  
  
  
  
  
  
  
  
  
  
  
  
  
  
  
  
  
  
  
  
  
  
  
  
  
  
  
  
  
  
  
  
  
  
  
  
  
  
  
  
  
  
  
  
  
  
  
  
  
  
  
  
  
  
  
  
  
  
  
  
  
  
  
  
  
  
  
  
  
  
  
  
  
  
  
  
  
  
  
  
  
  
  
  
  
  
  
  
  
  
  
  
  
  
  
  
  
  
  
  
  
  
  
  
  
  
  
  
  
  
  
  
  
  
  
  
  
  
  
  
  
  
  
  
  
  
  
  
  
  
  
  
  
  
  
  
  
  
  
  
  
  
  
  
  
  
  
  
  
  
  
  
  
  
  
  
  
  
  
  
  
  
  
  
  
  
  
  
  
  
  
  
  
  
  
  
  
  
  
  
  
  
  
  
  
  
  
  
  
  
  
  
  
  
  
  
  
  
  
  
  
  
  
  
  
  
  
  
  
  
  
  
  
  
  
  
  
  
  
  
  
  
  
  
  
  
  
  
  
  
  
  
  
  
  
  
  
  
  
  
  
  
  
  
  
  
  
  
  
  
  
  
  
  
  
  
  
  
  
  
  
  
  
  
  
  
  
  
  
  
  
  
  
  
  
  
  
  
  
  
  
  
  
  
  
  
  
  
  
  
  
  
  
  
  
  
  
  
  
  
  
  
  
  
  
  
  
  
  
  
  
  
  
  
  
  
  
  
  
  
  
  
  
  
  
  
  
  
  
  
  
  
  
  
  
  
  
  
  
  
  
  
  
  
  
  
  
  
  
  
  
  
  
  
  
  
  
  
  
  
  
  
  
  
  
  
  
  
  
  
  
  
  
  
  
  
  
  
  
  
  
  
  
  
  
  
  
  
  
  
  
  
  
  
  
  
  
  
  
  
  
  
  
  
  
  
  
  
  
  
  
  
  
  
  
  
  
  
  
  
  
  
  
  
  
  
  
  
  
  
  
  
  
  
  
  
  
  
  
  
  
  
  
  
  
  
  
  
  
  
  
  
  
  
  
  
  
  
  
  
  
  
  
  
  
  
  
  
  
  
  
  
  
  
  
  
  
  
  
  
  
  
  
  
  
  
  
  
  
  
  
  
  
  
  
  
  
  
  
  
  
  
  
  
  
  
  
  
  
  
  
  
  
  
  
  
  
  
  
  
  
  
  
  
  
  
  
  
  
  
  
  
  
  
  
  
  
  
  
  
  
  
  
  
  
  
  
  
  
  
  
  
  
  
  
  
  
  
  
  
  
  
  
  
  
  
  
  
  
  
  
  
  
  
  
  
  
  
  
  
  
  
  
  
  
  
  
  
  
  
  
  
  
  
  
  
  
  
  
  
  
  
  
  
  
  
  
  
  
  
  
  
  
  
  
  
  
  
  
  
  
  
  
  
  
  
  
  
  
  
  
  
  
  
  
  
  
  
  
  
  
  
  
  
  
  
  
  
  
  
  
  
  
  
  
  
  
  
  
  
  
  
  
  
  
  
  
  
  
  
  
  
  
  
  
  
  
  
  
  
  
  
  
  
  
  
  
  
  
  
  
  
  
  
  
  
  
  
  
  
  
  
  
  
  
  
  
  
  
  
  
  
  
  
  
  
  
  
  
  
  
  
  
  
  
  
  
  
  
  
  
  
  
  
  
  
  
</svg>