<?xml version="1.0" encoding="UTF-8" standalone="no"?>
<!--?xml version="1.0" encoding="UTF-8" standalone="no"?-->

<svg
   xmlns:dc="http://purl.org/dc/elements/1.1/"
   xmlns:cc="http://creativecommons.org/ns#"
   xmlns:rdf="http://www.w3.org/1999/02/22-rdf-syntax-ns#"
   xmlns:svg="http://www.w3.org/2000/svg"
   xmlns="http://www.w3.org/2000/svg"
   xmlns:sodipodi="http://sodipodi.sourceforge.net/DTD/sodipodi-0.dtd"
   xmlns:inkscape="http://www.inkscape.org/namespaces/inkscape"
   width="71.381607"
   height="109.80238"
   viewBox="0 0 65.982998 100.30025"
   preserveAspectRatio="xMinYMin meet"
   xml:space="preserve"
   id="svg2228"
   version="1.1"
   inkscape:version="0.48.2 r9819"
   sodipodi:docname="NV.svg"><metadata
   id="metadata2251"><rdf:RDF><cc:Work
       rdf:about=""><dc:format>image/svg+xml</dc:format><dc:type
         rdf:resource="http://purl.org/dc/dcmitype/StillImage" /></cc:Work></rdf:RDF></metadata><defs
   id="defs2249" /><sodipodi:namedview
   pagecolor="#ffffff"
   bordercolor="#666666"
   borderopacity="1"
   objecttolerance="10"
   gridtolerance="10"
   guidetolerance="10"
   inkscape:pageopacity="0"
   inkscape:pageshadow="2"
   inkscape:window-width="640"
   inkscape:window-height="480"
   id="namedview2247"
   showgrid="false"
   inkscape:zoom="0.56730769"
   inkscape:cx="235.9781"
   inkscape:cy="3.4359545"
   inkscape:window-x="0"
   inkscape:window-y="0"
   inkscape:window-maximized="0"
   inkscape:current-layer="svg2228" />
  
  
  
  
  
  
  
  
  
  
  
  
  
  
  
  
  
  
  
  
  
  
  
  
  
  
  
  
  
  
  
  
  
  
  
  
  
  
  
  
  
  
  
  
  
  
  
  
  
  
  
  
  
  
  
  
  
  
  
  
  
  
  
  
  
  
  
  
  
  
  
  
  
  
  
  
  
  
  
  
  
  
  
  
  
  
  
  
  
  
  
  
  
  
  
  
  
  
  
  
  
  
  
  
  
  
  
  
  
  
  
  
  
  
  
  
  
  
  
  
  
  
  
  
  
  
  
  
  
  
  
  
  
  
  
  
  
  
  
  
  
  
  
  
  
  
  
  
  
  
  
  
  
  
  
  
  
  
  
  
  
  
  
  
  
  
  
  
  
  
  
  
  
  
  
  
  
  
  
  
  
  
  
  
  
  
  
  
  
  
  
  
  
  
  
  
  
  
  
  
  
  
  
  
  
  
  
  
  
  
  
  
  
  
  
  
  
  
  
  
  
  
  
  
  
  
  
  
  
  
  
  
  
  
  
  
  
  
  
  
  
  
  
  
  
  
  
  
  
  
  
  
  
  
  
  
  
  
  
  
  
  
  
  
  
  
  
  
  
  
  
  
  
  
  
  
  
  
  
  
  
  
  
  
  
  
  
  
  
  
  
  
  
  
  
  
  
  
  
  
  
  
  
  
  
  
  
  
  
  
  
  
  
  
  
  
  
  
  
  
  
  
  
  
  
  
  
  
  
  
  
  
  
  
  
  
  
  
  
  
  
  
  
  
  
  
  
  
  
  
  
  
  
  
  
  
  
  
  
  
  
  
  
  
  
  
  
  
  
  
  
  
  
  
  
  
  
  
  
  
  
  
  
  
  
  
  
  
  
  
  
  
  
  
  
  
  
  
  
  
  
  
  
  
  
  
  
  
  
  
  
  
  
  
  
  
  
  
  
  
  
  
  
  
  
  
  
  
  
  
  
  
  
  
  
  
  
  
  
  
  
  
  
  
  
  
  
  
  
  
  
  
  
  
  
  
  
  
  
  
  
  
  
  
  
  
  
  
  
  
  
  
  
  
  
  
  
  
  
  
  
  
  
  
  
  
  
  
  
  
  
  
  
  
  
  
  
  
  
  
  
  
  
  
  
  
  
  
  
  
  
  
  
  
  
  
  
  
  
  
  
  
  
  
  
  
  
  
  
  
  
  
  
  
  
  
  
  
  
  
  
  
  
  
  
  
  
  
  
  
  
  
  
  
  
  
  
  
  
  
  
  
  
  
  
  
  
  
  
  
  
  
  
  
  
  
  
  
  
  
  
  
  
  
  
  
  
  
  
  
  
  
  
  
  
  
  
  
  
  
  
  
  
  
  
  
  
  
  
  
  
  
  
  
  
  
  
  
  
  
  
  
  
  
  
  
  
  
  
  
  
  
  
  
  
  
  
  
  
  
  
  
  
  
  
  
  
  
  
  
  
  
  
  
  
  
  
  
  
  
  
  
  
  
  
  
  
  
  
  
  
  
  
  
  
  
  
  
  
  
  
  
  
  
  
  
  
  
  
  
  
  
  
  
  
  
  
  
  
  
  
  
  
  
  
  
  
  
  
  
  
  
  
  
  
  
  
  
  
  
  
  
  
  
  
  
  
  
  
  
  
  
  
  
  
  
  
  
  
  
  
  
  
  
  
  
  
  
  
  
  
  
  
  
  
  
  
  
  
  
  
  
  
  
  
  
  
  
  
  
  
  
  
  
  
  
  
  
  
  
  
  
  
  
  
  
  
  
  
  
  
  
  
  
  
  
  
  
  
  
  
  
  
  
  
  
  
  
  
  
  
  
  
  
  
  
  
  
  
  
  
  
  
  
  
  
  
  
  
  
  
  
  
  
  
  
  
  
  
  
  
  
  
  
  
  
  
  
  
  
  
  
  
  
  
  
  
  
  
  
  
  
  
  
  
  
  
  
  
  
  
  
  
  
  
  
  
  
  
  
  
  
  
  
  
  
  
  
  
  
  
  
  
  
  
  
  
  
  
  
  
  
  
  
  
  
  
  
  
  
  
  
  
  
  
  
  
  
  
  
  
  
  
  
  
  
  
  
  
  
  
  
  
  
  
  
  
  
  
  
  
  
  
  
  
  
  
  
  
  
  
  
  
  
  
  
  
  
  
  
  
  
  
  
  
  
  
  
  
  
  
  
  
  
  
  
  
  
  
  
  
  
  
  
  
  
  
  
  
  
  
  
  
  
  
  
  
  
  
  
  
  
  
  
  
  
  
  
  
  
  
  
  
  
  
  
  
  
  
  
  
  
  
  
  
  
  
  
  
  
  
  
  
  
  
  
  
  
  
  
  
  
  
  
  
  
  
  
  
  
  
  
  
  
  
  
  
  
  
  
  
  
  
  
  
  
  
  
  
  
  
  
  
  
  
  
  
  
  
  
  
  
  
  
  
  
  
  
  
  
  
  
  
  
  
  
  
  
  
  
  
  
  
  
  
  
  
  
  
  
  
  
  
  
  
  
  
  
  
  
  
  
  
  
  
  
  
  
  
  
  
  
  
  
  
  
  
  
  
  
  
  
  
  
  
  
  
  
  
  
  
  
  
  
  
  
  
  
  
  
  
  
  
  
  
  
  
  
  
  
  
  
  
  
  
  
  
  
  
  
  
  
  
  
  
  
  
  
  
  
  
  
  
  
  
  
  
  
  
  
  
  
  
  
  
  
  
  
  
  
  
  
  
  
  
  
  
  
  
  
  
  
  
  
  
  
  
  
  
  
  
  
  
  
  
  
  
  
  
  
  
  
  
  
  
  
  
  
  
  
  
  
  
  
  
  
  
  
  
  
  
  
  
  
  
  
  
  
  
  
  
  
  
  
  
  
  
  
  
  
  
  
  
  
  
  
  
  
  
  
  
  
  
  
  
  
  
  
  
  
  
  
  
  
  
  
  
  
  
  
  
  
  
  
  
  
  
  
  
  
  
  
  
  
  
  
  
  
  
  
  
  
  
  
  
  
  
  
  
  
  
  
  
  
  
  
  
  
  
  
  
  
  
  
  
  
  
  
  
  
  
  
  
  
  
  
  
  
  
  
  
  
  
  
  
  
  
  
  
  
  
  
  
  
  
  
  
  
  
  
  
  
  
  
  
  
  
  
  
  
  
  
  
  
  
  
  
  
  
  
  
  
  
  
  
  
  
  
  
  
  
  
  
  
  
  
  
  
  
  
  
  
  
  
  
  
  
  
  
  
  
  
  
  
  
  
  
  
  
  
  
  
  
  
  
  
  
  
  
  
  
  
  
  
  
  
  
  
  
  
  
  
  
  
  
  
  
  
  
  
  
  
  
  
  
  
  
  
  
  
  
  
  
  
  
  
  
  
  
  
  
  
  
  
  
  
  
  
  
  
  
  
  
  
  
  
  
  
  
  
  
  
  
  
  
  
  
  
  
  
  
  
  
  
  
  
  
  
  
  
  
  
  
  
  
  
  
  
  
  
  
  
  
  
  
  
  
  
  
  
  
  
  
  
  
  
  
  
  
  
  
  
  
  
  
  
  
  
  
  
  
  
  
  
  
  
  
  
  
  
  
  
  
  
  
  
  
  
  
  
  
  
  
  
  
  
  
  
  
  
  
  
  
  
  
  
  
  
  
  
  
  
  
  
  
  
  
  
  
  
  
  
  
  
  
  
  
  
  
  
  
  
  
  
  
  
  
  
  
  
  
  
  
  
  
  
  
  
  
  
  
  
  
  
  
  
  
  
  
  
  
  
  
  
  
  
  
  
  
  
  
  
  
  
  
  
  
  
  
  
  
  
  
  
  
  
  
  
  
  
  
  
  
  
  
  
  
  
  
  
  
  
  
  
  
  
  
  
  
  
  
  
  
  
  
  
  
  
  
  
  
  
  
  
  
  
  
  
  
  
  
  
  
  
  
  
  
  
  
  
  
  
  
  
  
  
  
  
  
  
  
  
  
  
  
  
  
  
  
  
  
  
  
  
  
  
  
  
  
  
  
  
  
  
  
  
  
  
  
  
  
  
  
  
  
  
  
  
  
  
  
  
  
  
  
  
  
  
  
  
  
  
  
  
  
  
  
  
  
  
  
  
  
  
  
  
  
  
  
  
  
  
  
  
  
  
  
  
  
  
  
  
  
  
  
  
  
  
  
  
  
  
  
  
  
  
  
  
  
  
  
  
  
  
  
  
  
  
  
  
  
  
  
  
  
  
  
  
  
  
  
  
  
  
  
  
  
  
  
  
  
  
  
  
  
  
  
  
  
  
  
  
  
  
  
  
  
  
  
  
  
  
  
  
  
  
  
  
  
  
  
  
  
  
  
  
  
  
  
  
  
  
  
  
  
  
  
  
  
  
  
  
  
  
  
  
  
  
  
  
  
  
  
  
  
  
  
  
  
  
  
  
  <path
   style="fill:#72b3dc;stroke:#c2dffb;stroke-width:1"
   d="m 56.163,11.11 1.167,0.184 1.411,0.284 2.47,0.559 2.028,0.401 2.244,0.442 -2.438,12.67 -2.204,11.257 -1.974,-0.378 -5.905,-1.245 -2.172,-0.441 -2.194,-0.473 -1.902,-0.442 -3.002,-0.63 -1.592,-0.329 -0.031,-5.685 0.005,-1.252 0.026,-0.36 0.879,-4.11 -4.051,-0.889 -4.079,-0.904 2.848,-12.658 3.642,0.834 1.082,0.248 13.742,2.917"
   id="32007"
   inkscape:label="Elko, NV"
   inkscape:connector-curvature="0" />
  <path
   style="fill:#72b3dc;stroke:#c2dffb;stroke-width:1"
   d="m 43.692,33.298 3.002,0.63 1.902,0.442 2.194,0.473 2.172,0.441 5.905,1.245 1.974,0.378 -0.523,2.692 -0.897,4.633 -2.145,11.046 -9.33,-1.843 -7.558,-8 0.739,-3.484 0.094,-0.279 0.402,-0.297 0.239,-0.231 0.248,-0.293 0.351,-0.716 0.879,-3.273 0.365,-3.249 -0.013,-0.315"
   id="32033"
   inkscape:label="White Pine, NV"
   inkscape:connector-curvature="0" />
  <path
   style="fill:#72b3dc;stroke:#c2dffb;stroke-width:1"
   d="m 34.249,74.943 1.312,0.292 0.279,-0.088 7.442,1.536 1.622,0.329 0.739,0.275 7.121,1.406 -0.405,2.124 -0.05,0.259 -0.41,2.34 -0.248,1.299 -0.437,2.267 -1.307,1.766 -0.14,0.158 -0.018,0.012 -0.036,0.02 -0.009,0.005 -0.626,-0.014 -0.203,-0.023 -0.054,-0.013 -0.131,-0.1 -0.09,-0.094 -0.239,-0.379 -0.072,-0.216 -0.009,-0.108 -0.005,-0.027 -0.018,-0.099 -0.126,-0.316 -0.306,-0.433 -0.14,-0.131 -1.312,-0.387 -0.594,-0.122 -0.632,0 -1.154,0.271 -0.103,0.054 -0.14,0.126 -0.009,0.082 -0.131,1.262 -0.279,3.695 -0.126,2.259 0.135,1.595 0.094,0.756 0.014,0.379 -0.072,1.573 -0.013,0.288 -0.055,0.257 -0.094,0.307 -0.965,1.613 -1.41,-2.099 -3.823,-5.72 -0.265,-0.393 -0.713,-1.063 -2.068,-3.106 -2.028,-3.019 2.307,-10.655"
   id="32003"
   inkscape:label="Clark, NV"
   inkscape:connector-curvature="0" />
  <path
   style="fill:#72b3dc;stroke:#c2dffb;stroke-width:1"
   d="m 47.946,53.435 9.33,1.843 -0.262,1.335 -1.036,5.417 -1.361,6.937 -1.465,7.716 -0.388,2.01 -7.121,-1.406 -0.739,-0.275 -1.622,-0.329 -7.442,-1.536 -0.279,0.088 -1.312,-0.292 0.189,-1.004 0.577,-2.714 2.498,-11.633 8.815,1.83 1.618,-7.987"
   id="32017"
   inkscape:label="Lincoln, NV"
   inkscape:connector-curvature="0" />
  <path
   style="fill:#72b3dc;stroke:#c2dffb;stroke-width:1"
   d="m 21.071,50.304 3.781,7.161 -2.965,13.07 -5.184,-7.783 -4.593,-6.856 0.135,0.068 0.627,0.148 3.655,-2.609 4.544,-3.199"
   id="32009"
   inkscape:label="Esmeralda, NV"
   inkscape:connector-curvature="0" />
  <path
   style="fill:#72b3dc;stroke:#c2dffb;stroke-width:1"
   d="m 21.152,42.313 0.924,-0.051 2.794,0.036 1.708,0.072 7.076,1.61 6.734,1.455 7.558,8 -1.618,7.987 -8.815,-1.83 -2.498,11.633 -0.577,2.714 -0.189,1.004 -2.307,10.655 -0.117,-0.172 -1.479,-2.217 -0.356,-0.532 -2.758,-4.142 -3.403,-5.093 -0.645,-0.978 -1.104,-1.641 -0.193,-0.288 2.965,-13.07 -7.369,-13.955 0.243,-1.023 3.426,-0.174"
   id="32023"
   inkscape:label="Nye, NV"
   inkscape:connector-curvature="0" />
  <path
   style="fill:#72b3dc;stroke:#c2dffb;stroke-width:1"
   d="m 38.928,20.673 4.051,0.889 -0.879,4.11 -0.026,0.36 -0.005,1.252 0.031,5.685 1.592,0.329 0.013,0.315 -0.365,3.249 -0.879,3.273 -0.351,0.716 -0.248,0.293 -0.239,0.231 -0.402,0.297 -0.094,0.279 -0.739,3.484 -6.734,-1.455 0.185,-0.672 0.554,-2.312 0.969,-4.291 0.938,-4.263 -0.058,-0.023 -0.027,-0.018 0.96,-4.093 1.505,-6.973 0.248,-0.662"
   id="32011"
   inkscape:label="Eureka, NV"
   inkscape:connector-curvature="0" />
  <path
   style="fill:#72b3dc;stroke:#c2dffb;stroke-width:1"
   d="m 34.849,19.769 4.079,0.904 -0.248,0.662 -1.505,6.973 -0.96,4.093 0.027,0.018 0.058,0.023 -0.938,4.263 -0.969,4.291 -0.554,2.312 -0.185,0.672 -7.076,-1.61 -1.708,-0.072 -2.794,-0.036 -0.095,-0.342 0.054,-0.356 0.929,-2.555 0.08,-0.198 0.131,-0.15 1.28,-0.87 0.658,-0.31 0.82,-0.16 0.073,0.019 0.068,-0.022 0.13,-0.126 0.095,-0.203 0.284,-1.132 0.757,-3.732 -0.347,-0.833 3.822,-6.121 0.847,-1.361 2.168,0.482 1.019,-4.523"
   id="32015"
   inkscape:label="Lander, NV"
   inkscape:connector-curvature="0" />
  <path
   style="fill:#72b3dc;stroke:#c2dffb;stroke-width:1"
   d="m 12.561,40.242 8.591,2.071 -3.426,0.174 -0.243,1.023 3.588,6.794 -4.544,3.199 -3.655,2.609 -0.627,-0.148 -0.135,-0.068 -5.507,-8.285 2.433,0.601 0.316,-1.253 0.771,-3.169 0.076,-1.139 -0.851,-0.208 0.284,-1.159 0.554,-0.671 0.671,-0.776 1.704,0.405"
   id="32021"
   inkscape:label="Mineral, NV"
   inkscape:connector-curvature="0" />
  <path
   style="fill:#72b3dc;stroke:#c2dffb;stroke-width:1"
   d="m 0.636,36.741 1.176,0.297 1.127,0.47 0.027,0.202 1.938,0.483 2.303,0.608 -0.284,1.173 -0.384,0 -0.518,-0.127 -0.275,0.315 -0.414,0.868 -0.095,0.372 0.05,1.18 0.09,0.415 0.207,0.757 L 5.472,45.002 5.309,45.684 3.385,42.804 1.01,39.242 0.5,37.309 0.636,36.741"
   id="32005"
   inkscape:label="Douglas, NV"
   inkscape:connector-curvature="0" />
  <path
   style="fill:#72b3dc;stroke:#c2dffb;stroke-width:1"
   d="m 0.798,36.069 3.078,-0.351 0.162,0.595 0.275,0.261 0.834,0.208 0.005,0.067 -0.208,1.294 -0.04,0.05 L 2.966,37.71 2.939,37.508 1.812,37.038 0.636,36.741 0.798,36.069"
   id="32510"
   inkscape:label="Carson City, NV"
   inkscape:connector-curvature="0" />
  <path
   style="fill:#72b3dc;stroke:#c2dffb;stroke-width:1"
   d="m 10.082,32.189 1.082,-0.681 0.266,-0.104 -0.347,0.952 -0.645,1.421 -0.41,1.639 0.924,1.604 0.577,0.92 0.455,0.671 0.69,1.159 -0.113,0.472 -1.704,-0.405 -0.671,0.776 -0.554,0.671 -0.284,1.159 0.851,0.208 -0.076,1.139 -0.771,3.169 -0.316,1.253 -2.433,-0.601 -1.294,-1.927 0.163,-0.682 0.112,-1.248 -0.207,-0.757 -0.09,-0.415 -0.05,-1.18 0.095,-0.372 0.414,-0.868 0.275,-0.315 0.518,0.127 0.384,0 0.284,-1.173 -2.303,-0.608 0.04,-0.05 L 5.152,36.849 5.147,36.782 4.313,36.574 4.038,36.313 3.876,35.718 4.557,35.678 6.4,35.195 l 2.772,-3.109 0.91,0.103"
   id="32019"
   inkscape:label="Lyon, NV"
   inkscape:connector-curvature="0" />
  <path
   style="fill:#72b3dc;stroke:#c2dffb;stroke-width:1"
   d="m 26.993,31.292 0.347,0.833 -0.757,3.732 -0.284,1.132 -0.095,0.203 -0.13,0.126 -0.068,0.022 -0.073,-0.019 -0.82,0.16 -0.658,0.31 -1.28,0.87 -0.131,0.15 -0.08,0.198 -0.929,2.555 -0.054,0.356 0.095,0.342 -0.924,0.051 -8.591,-2.071 0.113,-0.472 -0.69,-1.159 -0.455,-0.671 -0.577,-0.92 -0.924,-1.604 0.41,-1.639 0.645,-1.421 0.347,-0.952 -0.266,0.104 -1.082,0.681 0.244,-0.6 0.293,-1.356 -0.086,-0.464 0.257,-1.768 0.131,-0.545 5.899,1.47 3.399,0.761 2.916,0.685 3.858,0.92"
   id="32001"
   inkscape:label="Churchill, NV"
   inkscape:connector-curvature="0" />
  <path
   style="fill:#72b3dc;stroke:#c2dffb;stroke-width:1"
   d="m 30.815,25.171 -3.822,6.121 -3.858,-0.92 -2.916,-0.685 -3.399,-0.761 -5.899,-1.47 -1.091,-0.262 1.649,-6.539 0.244,0.054 1.424,-5.566 4.917,1.212 -0.324,1.326 10.785,2.541 -0.509,2.195 3.168,0.74 0.077,0.032 -0.004,0.08 -0.442,1.902"
   id="32027"
   inkscape:label="Pershing, NV"
   inkscape:connector-curvature="0" />
  <path
   style="fill:#72b3dc;stroke:#c2dffb;stroke-width:1"
   d="m 9.172,32.086 -2.772,3.109 -1.843,0.483 -0.681,0.04 0.78,-0.884 0.405,-1.456 -0.122,-0.355 0.036,-0.635 1.506,-0.186 0.744,0.076 1,0.028 0.465,-0.072 0.482,-0.148"
   id="32029"
   inkscape:label="Storey, NV"
   inkscape:connector-curvature="0" />
  <path
   style="fill:#72b3dc;stroke:#c2dffb;stroke-width:1"
   d="m 15.941,2.005 0.33,0.085 -0.456,1.722 -0.843,3.358 -0.342,2.263 -0.343,1.37 -0.239,0.577 -0.234,0.252 -0.617,2.457 -0.239,1.009 0.189,0.045 -1.424,5.566 -0.244,-0.054 -1.649,6.539 1.091,0.262 -0.131,0.545 -0.257,1.768 0.086,0.464 -0.293,1.356 -0.244,0.6 -0.91,-0.103 -0.482,0.148 -0.465,0.072 -1,-0.028 -0.744,-0.076 -1.506,0.186 -0.036,0.635 0.122,0.355 -0.405,1.456 -0.78,0.884 L 0.798,36.069 1.28,34.172 1.717,32.554 2.637,29.07 2.835,28.335 3.808,24.685 4.439,22.286 4.444,22.273 4.629,21.547 5.21,19.299 6.368,14.688 7.396,10.686 10.033,0.5 15.941,2.005"
   id="32031"
   inkscape:label="Washoe, NV"
   inkscape:connector-curvature="0" />
  <path
   style="fill:#72b3dc;stroke:#c2dffb;stroke-width:1"
   d="m 16.271,2.09 5.061,1.276 5.395,1.24 10.898,2.478 0.072,0.027 -3.867,17.181 -2.168,-0.482 -0.847,1.361 0.442,-1.902 0.004,-0.08 -0.077,-0.032 -3.168,-0.74 0.509,-2.195 -10.785,-2.541 0.324,-1.326 -4.917,-1.212 -0.189,-0.045 0.239,-1.009 0.617,-2.457 0.234,-0.252 0.239,-0.577 0.343,-1.37 0.342,-2.263 0.843,-3.358 0.456,-1.722"
   id="32013"
   inkscape:label="Humboldt, NV"
   inkscape:connector-curvature="0" />
  
  
  
  
  
  
  
  
  
  
  
  
  
  
  
  
  
  
  
  
  
  
  
  
  
  
  
  
  
  
  
  
  
  
  
  
  
  
  
  
  
  
  
  
  
  
  
  
  
  
  
  
  
  
  
  
  
  
  
  
  
  
  
  
  
  
  
  
  
  
  
  
  
  
  
  
  
  
  
  
  
  
  
  
  
  
  
  
  
  
  
  
  
  
  
  
  
  
  
  
  
  
  
  
  
  
  
  
  
  
  
  
  
  
  
  
  
  
  
  
  
  
  
  
  
  
  
  
  
  
  
  
  
  
  
  
  
  
  
  
  
  
  
  
  
  
  
  
  
  
  
  
  
  
  
  
  
  
  
  
  
  
  
  
  
  
  
  
  
  
  
  
  
  
  
  
  
  
  
  
  
  
  
  
  
  
  
  
  
  
  
  
  
  
  
  
  
  
  
  
  
  
  
  
  
  
  
  
  
  
  
  
  
  
  
  
  
  
  
  
  
  
  
  
  
  
  
  
  
  
  
  
  
  
  
  
  
  
  
  
  
  
  
  
  
  
  
  
  
  
  
  
  
  
  
  
  
  
  
  
  
  
  
  
  
  
  
  
  
  
  
  
  
  
  
  
  
  
  
  
  
  
  
  
  
  
  
  
  
  
  
  
  
  
  
  
  
  
  
  
  
  
  
  
  
  
  
  
  
  
  
  
  
  
  
  
  
  
  
  
  
  
  
  
  
  
  
  
  
  
  
  
  
  
  
  
  
  
  
  
  
  
  
  
  
  
  
  
  
  
  
  
  
  
  
  
  
  
  
  
  
  
  
  
  
  
  
  
  
  
  
  
  
  
  
  
  
  
  
  
  
  
  
  
  
  
  
  
  
  
  
  
  
  
  
  
  
  
  
  
  
  
  
  
  
  
  
  
  
  
  
  
  
  
  
  
  
  
  
  
  
  
  
  
  
  
  
  
  
  
  
  
  
  
  
  
  
  
  
  
  
  
  
  
  
  
  
  
  
  
  
  
  
  
  
  
  
  
  
  
  
  
  
  
  
  
  
  
  
  
  
  
  
  
  
  
  
  
  
  
  
  
  
  
  
  
  
  
  
  
  
  
  
  
  
  
  
  
  
  
  
  
  
  
  
  
  
  
  
  
  
  
  
  
  
  
  
  
  
  
  
  
  
  
  
  
  
  
  
  
  
  
  
  
  
  
  
  
  
  
  
  
  
  
  
  
  
  
  
  
  
  
  
  
  
  
  
  
  
  
  
  
  
  
  
  
  
  
  
  
  
  
  
  
  
  
  
  
  
  
  
  
  
  
  
  
  
  
  
  
  
  
  
  
  
  
  
  
  
  
  
  
  
  
  
  
  
  
  
  
  
  
  
  
  
  
  
  
  
  
  
  
  
  
  
  
  
  
  
  
  
  
  
  
  
  
  
  
  
  
  
  
  
  
  
  
  
  
  
  
  
  
  
  
  
  
  
  
  
  
  
  
  
  
  
  
  
  
  
  
  
  
  
  
  
  
  
  
  
  
  
  
  
  
  
  
  
  
  
  
  
  
  
  
  
  
  
  
  
  
  
  
  
  
  
  
  
  
  
  
  
  
  
  
  
  
  
  
  
  
  
  
  
  
  
  
  
  
  
  
  
  
  
  
  
  
  
  
  
  
  
  
  
  
  
  
  
  
  
  
  
  
  
  
  
  
  
  
  
  
  
  
  
  
  
  
  
  
  
  
  
  
  
  
  
  
  
  
  
  
  
  
  
  
  
  
  
  
  
  
  
  
  
  
  
  
  
  
  
  
  
  
  
  
  
  
  
  
  
  
  
  
  
  
  
  
  
  
  
  
  
  
  
  
  
  
  
  
  
  
  
  
  
  
  
  
  
  
  
  
  
  
  
  
  
  
  
  
  
  
  
  
  
  
  
  
  
  
  
  
  
  
  
  
  
  
  
  
  
  
  
  
  
  
  
  
  
  
  
  
  
  
  
  
  
  
  
  
  
  
  
  
  
  
  
  
  
  
  
  
  
  
  
  
  
  
  
  
  
  
  
  
  
  
  
  
  
  
  
  
  
  
  
  
  
  
  
  
  
  
  
  
  
  
  
  
  
  
  
  
  
  
  
  
  
  
  
  
  
  
  
  
  
  
  
  
  
  
  
  
  
  
  
  
  
  
  
  
  
  
  
  
  
  
  
  
  
  
  
  
  
  
  
  
  
  
  
  
  
  
  
  
  
  
  
  
  
  
  
  
  
  
  
  
  
  
  
  
  
  
  
  
  
  
  
  
  
  
  
  
  
  
  
  
  
  
  
  
  
  
  
  
  
  
  
  
  
  
  
  
  
  
  
  
  
  
  
  
  
  
  
  
  
  
  
  
  
  
  
  
  
  
  
  
  
  
  
  
  
  
  
  
  
  
  
  
  
  
  
  
  
  
  
  
  
  
  
  
  
  
  
  
  
  
  
  
  
  
  
  
  
  
  
  
  
  
  
  
  
  
  
  
  
  
  
  
  
  
  
  
  
  
  
  
  
  
  
  
  
  
  
  
  
  
  
  
  
  
  
  
  
  
  
  
  
  
  
  
  
  
  
  
  
  
  
  
  
  
  
  
  
  
  
  
</svg>