<?xml version="1.0" encoding="UTF-8" standalone="no"?>
<!--?xml version="1.0" encoding="UTF-8" standalone="no"?-->

<svg
   xmlns:dc="http://purl.org/dc/elements/1.1/"
   xmlns:cc="http://creativecommons.org/ns#"
   xmlns:rdf="http://www.w3.org/1999/02/22-rdf-syntax-ns#"
   xmlns:svg="http://www.w3.org/2000/svg"
   xmlns="http://www.w3.org/2000/svg"
   xmlns:sodipodi="http://sodipodi.sourceforge.net/DTD/sodipodi-0.dtd"
   xmlns:inkscape="http://www.inkscape.org/namespaces/inkscape"
   width="82.611961"
   height="64.736"
   viewBox="0 0 76.363998 59.133846"
   preserveAspectRatio="xMinYMin meet"
   xml:space="preserve"
   id="svg2253"
   version="1.1"
   inkscape:version="0.48.2 r9819"
   sodipodi:docname="NY.svg"><metadata
   id="metadata2321"><rdf:RDF><cc:Work
       rdf:about=""><dc:format>image/svg+xml</dc:format><dc:type
         rdf:resource="http://purl.org/dc/dcmitype/StillImage" /></cc:Work></rdf:RDF></metadata><defs
   id="defs2319" /><sodipodi:namedview
   pagecolor="#ffffff"
   bordercolor="#666666"
   borderopacity="1"
   objecttolerance="10"
   gridtolerance="10"
   guidetolerance="10"
   inkscape:pageopacity="0"
   inkscape:pageshadow="2"
   inkscape:window-width="640"
   inkscape:window-height="480"
   id="namedview2317"
   showgrid="false"
   inkscape:zoom="0.56730769"
   inkscape:cx="-185.63132"
   inkscape:cy="-79.306909"
   inkscape:window-x="0"
   inkscape:window-y="0"
   inkscape:window-maximized="0"
   inkscape:current-layer="svg2253" />
  
  
  
  
  
  
  
  
  
  
  
  
  
  
  
  
  
  
  
  
  
  
  
  
  
  
  
  
  
  
  
  
  
  
  
  
  
  
  
  
  
  
  
  
  
  
  
  
  
  
  
  
  
  
  
  
  
  
  
  
  
  
  
  
  
  
  
  
  
  
  
  
  
  
  
  
  
  
  
  
  
  
  
  
  
  
  
  
  
  
  
  
  
  
  
  
  
  
  
  
  
  
  
  
  
  
  
  
  
  
  
  
  
  
  
  
  
  
  
  
  
  
  
  
  
  
  
  
  
  
  
  
  
  
  
  
  
  
  
  
  
  
  
  
  
  
  
  
  
  
  
  
  
  
  
  
  
  
  
  
  
  
  
  
  
  
  
  
  
  
  
  
  
  
  
  
  
  
  
  
  
  
  
  
  
  
  
  
  
  
  
  
  
  
  
  
  
  
  
  
  
  
  
  
  
  
  
  
  
  
  
  
  
  
  
  
  
  
  
  
  
  
  
  
  
  
  
  
  
  
  
  
  
  
  
  
  
  
  
  
  
  
  
  
  
  
  
  
  
  
  
  
  
  
  
  
  
  
  
  
  
  
  
  
  
  
  
  
  
  
  
  
  
  
  
  
  
  
  
  
  
  
  
  
  
  
  
  
  
  
  
  
  
  
  
  
  
  
  
  
  
  
  
  
  
  
  
  
  
  
  
  
  
  
  
  
  
  
  
  
  
  
  
  
  
  
  
  
  
  
  
  
  
  
  
  
  
  
  
  
  
  
  
  
  
  
  
  
  
  
  
  
  
  
  
  
  
  
  
  
  
  
  
  
  
  
  
  
  
  
  
  
  
  
  
  
  
  
  
  
  
  
  
  
  
  
  
  
  
  
  
  
  
  
  
  
  
  
  
  
  
  
  
  
  
  
  
  
  
  
  
  
  
  
  
  
  
  
  
  
  
  
  
  
  
  
  
  
  
  
  
  
  
  
  
  
  
  
  
  
  
  
  
  
  
  
  
  
  
  
  
  
  
  
  
  
  
  
  
  
  
  
  
  
  
  
  
  
  
  
  
  
  
  
  
  
  
  
  
  
  
  
  
  
  
  
  
  
  
  
  
  
  
  
  
  
  
  
  
  
  
  
  
  
  
  
  
  
  
  
  
  
  
  
  
  
  
  
  
  
  
  
  
  
  
  
  
  
  
  
  
  
  
  
  
  
  
  
  
  
  
  
  
  
  
  
  
  
  
  
  
  
  
  
  
  
  
  
  
  
  
  
  
  
  
  
  
  
  
  
  
  
  
  
  
  
  
  
  
  
  
  
  
  
  
  
  
  
  
  
  
  
  
  
  
  
  
  
  
  
  
  
  
  
  
  
  
  
  
  
  
  
  
  
  
  
  
  
  
  
  
  
  
  
  
  
  
  
  
  
  
  
  
  
  
  
  
  
  
  
  
  
  
  
  
  
  
  
  
  
  
  
  
  
  
  
  
  
  
  
  
  
  
  
  
  
  
  
  
  
  
  
  
  
  
  
  
  
  
  
  
  
  
  
  
  
  
  
  
  
  
  
  
  
  
  
  
  
  
  
  
  
  
  
  
  
  
  
  
  
  
  
  
  
  
  
  
  
  
  
  
  
  
  
  
  
  
  
  
  
  
  
  
  
  
  
  
  
  
  
  
  
  
  
  
  
  
  
  
  
  
  
  
  
  
  
  
  
  
  
  
  
  
  
  
  
  
  
  
  
  
  
  
  
  
  
  
  
  
  
  
  
  
  
  
  
  
  
  
  
  
  
  
  
  
  
  
  
  
  
  
  
  
  
  
  
  
  
  
  
  
  
  
  
  
  
  
  
  
  
  
  
  
  
  
  
  
  
  
  
  
  
  
  
  
  
  
  
  
  
  
  
  
  
  
  
  
  
  
  
  
  
  
  
  
  
  
  
  
  
  
  
  
  
  
  
  
  
  
  
  
  
  
  
  
  
  
  
  
  
  
  
  
  
  
  
  
  
  
  
  
  
  
  
  
  
  
  
  
  
  
  
  
  
  
  
  
  
  
  
  
  
  
  
  
  
  
  
  
  
  
  
  
  
  
  
  
  
  
  
  
  
  
  
  
  
  
  
  
  
  
  
  
  
  
  
  
  
  
  
  
  
  
  
  
  
  
  
  
  
  
  
  
  
  
  
  
  
  
  
  
  
  
  
  
  
  
  
  
  
  
  
  
  
  
  
  
  
  
  
  
  
  
  
  
  
  
  
  
  
  
  
  
  
  
  
  
  
  
  
  
  
  
  
  
  
  
  
  
  
  
  
  
  
  
  
  
  
  
  
  
  
  
  
  
  
  
  
  
  
  
  
  
  
  
  
  
  
  
  
  
  
  
  
  
  
  
  
  
  
  
  
  
  
  
  
  
  
  
  
  
  
  
  
  
  
  
  
  
  
  
  
  
  
  
  
  
  
  
  
  
  
  
  
  
  
  
  
  
  
  
  
  
  
  
  
  
  
  
  
  
  
  
  
  
  
  
  
  
  
  
  
  
  
  
  
  
  
  
  
  
  
  
  
  
  
  
  
  
  
  
  
  
  
  
  
  
  
  
  
  
  
  
  
  
  
  
  
  
  
  
  
  
  
  
  
  
  
  
  
  
  
  
  
  
  
  
  
  
  
  
  
  
  
  
  
  
  
  
  
  
  
  
  
  
  
  
  
  
  
  
  
  
  
  
  
  
  
  
  
  
  
  
  
  
  
  
  
  
  
  
  
  
  
  
  
  
  
  
  
  
  
  
  
  
  
  
  
  
  
  
  
  
  
  
  
  
  
  
  
  
  
  
  
  
  
  
  
  
  
  
  
  
  
  
  
  
  
  
  
  
  
  
  
  
  
  
  
  
  
  
  
  
  
  
  
  
  
  
  
  
  
  
  
  
  
  
  
  
  
  
  
  
  
  
  
  
  
  
  
  
  
  
  
  
  
  
  
  
  
  
  
  
  
  
  
  
  
  
  
  
  
  
  
  
  
  
  
  
  
  
  
  
  
  
  
  
  
  
  
  
  
  
  
  
  
  
  
  
  
  
  
  
  
  
  
  
  
  
  
  
  
  
  
  
  
  
  
  
  
  
  
  
  
  
  
  
  
  
  
  
  
  
  
  
  
  
  
  
  
  
  
  
  
  
  
  
  
  
  
  
  
  
  
  
  
  
  
  
  
  
  
  
  
  
  
  
  
  
  
  
  
  
  
  
  
  
  
  
  
  
  
  
  
  
  
  
  
  
  
  
  
  
  
  
  
  
  
  
  
  
  
  
  
  
  
  
  
  
  
  
  
  
  
  
  
  
  
  
  
  
  
  
  
  
  
  
  
  
  
  
  
  
  
  
  
  
  
  
  
  
  
  
  
  
  
  
  
  
  
  
  
  
  
  
  
  
  
  
  
  
  
  
  
  
  
  
  
  
  
  
  
  
  
  
  
  
  
  
  
  
  
  
  
  
  
  
  
  
  
  
  
  
  
  
  
  
  
  
  
  
  
  
  
  
  
  
  
  
  
  
  
  
  
  
  
  
  
  
  
  
  
  
  
  
  
  
  
  
  
  
  
  
  
  
  
  
  
  
  
  
  
  
  
  
  
  
  
  
  
  
  
  
  
  
  
  
  
  
  
  
  
  
  
  
  
  
  
  
  
  
  
  
  
  
  
  
  
  
  
  
  
  
  
  
  
  
  
  
  
  
  
  
  
  
  
  
  
  
  
  
  
  
  
  
  
  
  
  
  
  
  
  
  
  
  
  
  
  
  
  
  
  
  
  
  
  
  
  
  
  
  
  
  
  
  
  
  
  
  
  
  
  
  
  
  
  
  
  
  
  
  
  
  
  
  
  
  
  
  
  
  
  
  
  
  
  
  
  
  
  
  
  
  
  
  
  
  
  
  
  
  
  
  
  
  
  
  
  
  
  
  
  
  
  
  
  
  
  
  
  
  
  
  
  
  
  
  
  
  
  
  
  
  
  
  
  
  
  
  
  
  
  
  
  
  
  
  
  
  
  
  
  
  
  
  
  
  
  
  
  
  
  
  
  
  
  
  
  
  
  
  
  
  
  
  
  
  
  
  
  
  
  
  
  
  
  
  
  
  
  
  
  
  
  
  
  
  
  
  
  
  
  
  
  
  
  
  
  
  
  
  
  
  
  
  
  
  
  
  
  
  
  
  
  
  
  
  
  
  
  
  
  
  
  
  
  
  
  
  
  
  
  
  
  
  
  
  
  
  
  
  
  
  
  
  
  
  
  
  
  
  
  
  
  
  
  
  
  
  <path
   style="fill:#72b3dc;stroke:#c2dffb;stroke-width:1"
   d="m 57.952,58.664 -0.04,0.018 -0.091,0.127 -0.142,0.126 -0.041,-0.004 -0.145,0.153 -0.091,0.055 -0.067,0.107 -0.231,0.094 -0.053,-0.036 -0.019,-0.063 0.019,-0.072 0.053,-0.105 -0.012,-0.152 0.023,-0.117 0.194,-0.226 0.044,-0.202 -0.032,-0.248 0.028,-0.117 -0.008,-0.127 0.053,-0.198 0.084,-0.185 0.136,-0.103 0.248,-0.131 0.301,-0.158 0.105,-0.018 0.077,0.077 0.072,0.212 0.197,0.225 -0.026,0.14 -0.36,0.707 -0.231,0.231 -0.045,-0.01"
   id="36085"
   inkscape:label="Richmond, NY"
   inkscape:connector-curvature="0" />
  
  
  
  
  
  
  
  
  
  
  
  
  
  
  
  
  
  
  
  
  
  
  
  
  
  
  
  
  
  
  
  
  
  
  
  
  
  
  
  
  
  
  
  
  
  
  
  
  
  
  
  
  
  
  
  
  
  
  
  
  
  
  
  
  
  
  
  
  
  <path
   style="fill:#72b3dc;stroke:#c2dffb;stroke-width:1"
   d="m 51.85,0.5 -0.014,0.221 0.33,2.114 0.459,2.691 0.27,0.505 0.149,0.126 0.262,0.153 -1.086,0.387 0.035,0.24 -0.17,0.473 -0.627,0.442 -0.802,0.5 L 49.957,8.5 48.546,9.01 48.23,8.09 47.901,7.216 47.212,5.616 46.04,2.745 45.815,2.141 47.158,1.753 49.371,1.19 51.85,0.5"
   id="36019"
   inkscape:label="Clinton, NY"
   inkscape:connector-curvature="0" />
  <path
   style="fill:#72b3dc;stroke:#c2dffb;stroke-width:1"
   d="m 48.546,9.01 1.411,-0.51 0.699,-0.148 0.802,-0.5 0.627,-0.442 0.17,-0.473 -0.035,-0.24 1.086,-0.387 0.429,0.518 0.129,0.28 0.167,0.451 0.005,0.008 0.014,0.14 -0.05,0.541 0.302,1.568 -0.378,1.078 -0.005,1.067 0,0.42 0.022,0.429 0,0.004 0.02,0.044 1.075,2.538 0.157,0.284 -0.517,0.19 -5.422,2.077 -0.009,-0.487 -0.054,-0.189 -1.024,-0.198 -0.332,0.149 -0.108,0.071 -0.087,0.149 -1.451,-1.181 0.6,-0.729 -0.672,-1.848 1.647,-0.609 -1.228,-3.295 2.01,-0.77"
   id="36031"
   inkscape:label="Essex, NY"
   inkscape:connector-curvature="0" />
  <path
   style="fill:#72b3dc;stroke:#c2dffb;stroke-width:1"
   d="m 14.892,33.37 -0.614,0.14 -3.195,0.614 -0.5,0.121 -0.555,-3.097 4.323,-0.734 0.541,2.956"
   id="36073"
   inkscape:label="Orleans, NY"
   inkscape:connector-curvature="0" />
  <path
   style="fill:#72b3dc;stroke:#c2dffb;stroke-width:1"
   d="m 14.892,33.37 1.163,1.695 -0.109,1.672 -4.732,0.829 -0.522,-2.812 -0.109,-0.509 0.5,-0.121 3.195,-0.614 0.614,-0.14"
   id="36037"
   inkscape:label="Genesee, NY"
   inkscape:connector-curvature="0" />
  <path
   style="fill:#72b3dc;stroke:#c2dffb;stroke-width:1"
   d="m 11.214,37.566 4.732,-0.829 0.465,2.479 -0.172,0.667 -0.346,0.302 -0.078,0.438 -0.058,0.463 0.013,0.041 0.231,0.108 -2.511,0.478 -1.482,0.077 -0.573,-3.115 -0.235,0.041 -0.189,-1.113 0.203,-0.037"
   id="36121"
   inkscape:label="Wyoming, NY"
   inkscape:connector-curvature="0" />
  <path
   style="fill:#72b3dc;stroke:#c2dffb;stroke-width:1"
   d="m 16.055,35.065 1.653,-0.329 0.108,0.09 0.045,0.081 -0.053,0.356 -0.009,0.028 -0.239,0.054 -0.014,0.018 0.023,0.031 1.123,-0.211 0.513,-0.154 0.145,0.117 0.085,0.135 0.144,0.334 0.112,0.487 0,0.018 -0.329,0.067 0.006,1.199 0.347,1.136 0.923,-0.162 0.208,0.559 0.117,0.608 -1.902,1.776 -1.1,0.167 -0.108,-0.55 -1.852,0.315 -0.231,-0.108 -0.013,-0.041 0.058,-0.463 0.078,-0.438 0.346,-0.302 0.172,-0.667 -0.465,-2.479 0.109,-1.672"
   id="36051"
   inkscape:label="Livingston, NY"
   inkscape:connector-curvature="0" />
  <path
   style="fill:#72b3dc;stroke:#c2dffb;stroke-width:1"
   d="m 51.26,27.971 0.355,-0.054 1.244,0.342 0.414,0.298 0.109,0.306 0.825,0.699 0.063,0.031 0.122,-0.009 -3.263,1.42 -0.965,-0.662 -0.018,-0.036 0.032,-0.172 1.338,-1.451 -0.256,-0.712"
   id="36093"
   inkscape:label="Schenectady, NY"
   inkscape:connector-curvature="0" />
  <path
   style="fill:#72b3dc;stroke:#c2dffb;stroke-width:1"
   d="m 51.144,27.633 0.116,0.338 0.256,0.712 -1.338,1.451 -0.032,0.172 0.018,0.036 -0.649,0.342 -1.037,0.365 -1.099,-0.275 -0.843,-0.031 -1.154,-0.185 -0.5,-2.335 2.177,0.325 0.491,-0.108 3.594,-0.807"
   id="36057"
   inkscape:label="Montgomery, NY"
   inkscape:connector-curvature="0" />
  <path
   style="fill:#72b3dc;stroke:#c2dffb;stroke-width:1"
   d="m 44.63,25.109 1.794,0.361 2.776,-0.911 0.748,-0.252 1.196,3.326 -3.594,0.807 -0.491,0.108 -2.177,-0.325 -0.252,-3.114"
   id="36035"
   inkscape:label="Fulton, NY"
   inkscape:connector-curvature="0" />
  <path
   style="fill:#72b3dc;stroke:#c2dffb;stroke-width:1"
   d="m 26.993,32.406 -0.058,0.843 0.433,2.186 0.054,0.243 0.202,0.613 0.046,0.095 0.07,0.099 0.74,0.915 -0.081,1.032 -1.83,0.446 -1.289,-2.686 -0.338,-1.249 0.014,-0.063 0.022,-0.027 0.109,-0.054 -0.365,-1.784 2.271,-0.609"
   id="36099"
   inkscape:label="Seneca, NY"
   inkscape:connector-curvature="0" />
  <path
   style="fill:#72b3dc;stroke:#c2dffb;stroke-width:1"
   d="m 24.722,33.015 0.365,1.784 -0.109,0.054 -0.022,0.027 -0.014,0.063 0.338,1.249 -3.141,0.671 -0.158,0.41 -0.045,0.267 -0.063,0.612 0.239,1.159 -1.149,0.216 -0.117,-0.608 -0.208,-0.559 -0.923,0.162 -0.347,-1.136 -0.006,-1.199 0.329,-0.067 0,-0.018 -0.112,-0.487 -0.144,-0.334 -0.085,-0.135 -0.145,-0.117 0.905,-0.167 -0.252,-1.158 1.051,-0.207 1.136,-0.293 1.036,-0.212 0.077,0.347 1.564,-0.324"
   id="36069"
   inkscape:label="Ontario, NY"
   inkscape:connector-curvature="0" />
  <path
   style="fill:#72b3dc;stroke:#c2dffb;stroke-width:1"
   d="m 25.28,36.192 1.289,2.686 -1.816,1.131 L 24.384,39.937 24.32,39.879 24.203,39.297 24.172,39 l 0.005,-0.108 -2.065,0.419 -0.239,-1.159 0.063,-0.612 0.045,-0.267 0.158,-0.41 3.141,-0.671"
   id="36123"
   inkscape:label="Yates, NY"
   inkscape:connector-curvature="0" />
  <path
   style="fill:#72b3dc;stroke:#c2dffb;stroke-width:1"
   d="m 26.569,38.878 1.83,-0.446 0.221,0.865 0.284,1.1 0.009,0.226 0.222,1.131 0.676,-0.117 0.089,0.432 -0.172,0.235 -0.414,0.031 -0.481,-0.116 -0.118,-0.501 -0.987,0.202 -1.145,0.316 0.022,0.113 -1.139,0.315 -0.1,0.018 -0.347,-1.478 -0.266,-1.195 1.816,-1.131"
   id="36097"
   inkscape:label="Schuyler, NY"
   inkscape:connector-curvature="0" />
  <path
   style="fill:#72b3dc;stroke:#c2dffb;stroke-width:1"
   d="m 28.48,37.4 1.903,-0.442 0.036,0.104 1.771,-0.437 0.694,2.717 -2.317,2.15 -0.756,0.145 -0.676,0.117 -0.222,-1.131 -0.009,-0.226 -0.284,-1.1 -0.221,-0.865 0.081,-1.032"
   id="36109"
   inkscape:label="Tompkins, NY"
   inkscape:connector-curvature="0" />
  <path
   style="fill:#72b3dc;stroke:#c2dffb;stroke-width:1"
   d="m 26.835,27.223 0.41,1.478 0.483,0.5 0.792,-0.189 0.096,0.365 0.266,0.997 0.126,0.545 -0.014,0.013 -0.167,0.005 -0.049,0.058 -0.005,0.068 0.316,1.163 0.803,1.938 0.851,-0.226 0.65,0.419 0.288,0.298 0.031,0.113 0.478,1.857 -1.771,0.437 -0.036,-0.104 -1.903,0.442 -0.74,-0.915 -0.07,-0.099 -0.046,-0.095 -0.202,-0.613 -0.054,-0.243 -0.433,-2.186 0.058,-0.843 -0.91,-4.038 0.752,-1.145"
   id="36011"
   inkscape:label="Cayuga, NY"
   inkscape:connector-curvature="0" />
  <path
   style="fill:#72b3dc;stroke:#c2dffb;stroke-width:1"
   d="m 33.195,28.994 0.179,0.176 0.664,0.897 0.441,1.226 0.676,2.483 -3.443,0.992 -0.031,-0.113 -0.288,-0.298 -0.65,-0.419 -0.851,0.226 -0.803,-1.938 -0.316,-1.163 0.005,-0.068 0.049,-0.058 0.167,-0.005 0.014,-0.013 -0.126,-0.545 -0.266,-0.997 1.41,-0.356 1.203,-0.604 1.159,0.333 0.807,0.244"
   id="36067"
   inkscape:label="Onodaga, NY"
   inkscape:connector-curvature="0" />
  <path
   style="fill:#72b3dc;stroke:#c2dffb;stroke-width:1"
   d="m 35.155,33.776 0.239,0.839 1.078,3.853 -2.452,0.595 -1.136,0.279 -0.694,-2.717 -0.478,-1.857 3.443,-0.992"
   id="36023"
   inkscape:label="Cortland, NY"
   inkscape:connector-curvature="0" />
  <path
   style="fill:#72b3dc;stroke:#c2dffb;stroke-width:1"
   d="m 35.394,34.615 3.597,-1.024 0.627,-0.085 1.203,-0.343 0.094,5.688 0.303,1.515 -1.064,0.229 -0.969,0.208 -0.672,-0.325 -1.18,0.022 -0.136,0.091 -0.113,-0.185 -0.612,-1.938 -1.078,-3.853"
   id="36017"
   inkscape:label="Chenango, NY"
   inkscape:connector-curvature="0" />
  <path
   style="fill:#72b3dc;stroke:#c2dffb;stroke-width:1"
   d="m 33.195,28.994 1.076,0.14 0.953,-0.424 0.463,0.05 0.221,0.117 0.577,0.329 1.15,0.762 0.338,1.144 0.036,0.181 1.176,0.648 1.717,-0.486 -0.081,1.708 -1.203,0.343 -0.627,0.085 -3.597,1.024 -0.239,-0.839 -0.676,-2.483 -0.441,-1.226 -0.664,-0.897 -0.179,-0.176"
   id="36053"
   inkscape:label="Madison, NY"
   inkscape:connector-curvature="0" />
  <path
   style="fill:#72b3dc;stroke:#c2dffb;stroke-width:1"
   d="m 40.068,21.77 1.109,3.528 0.361,1.289 -0.51,1.573 -0.37,0.946 0.551,2.169 -0.307,0.18 -1.717,0.486 -1.176,-0.648 -0.036,-0.181 -0.338,-1.144 -1.15,-0.762 -0.577,-0.329 -0.221,-0.117 -0.463,-0.05 -0.953,0.424 -0.251,-2.114 -0.235,-0.027 0.232,-2.15 0.566,0.054 2.171,0.199 3.314,-3.326"
   id="36065"
   inkscape:label="Oneida, NY"
   inkscape:connector-curvature="0" />
  <path
   style="fill:#72b3dc;stroke:#c2dffb;stroke-width:1"
   d="m 35.336,14.837 2.83,0.969 1.902,5.964 -3.314,3.326 -2.171,-0.199 -0.767,-2.731 -0.382,-1.23 0.013,-1.204 1.708,-1.55 0.258,-0.609 -0.041,-0.793 -0.618,-0.298 0.582,-1.645"
   id="36049"
   inkscape:label="Lewis, NY"
   inkscape:connector-curvature="0" />
  <path
   style="fill:#72b3dc;stroke:#c2dffb;stroke-width:1"
   d="m 38.166,15.806 2.93,-0.302 2.385,7.203 -0.42,2.046 1.569,0.356 0.252,3.114 0.5,2.335 -1.163,-0.203 0.063,0.852 -0.112,0.131 -2.02,-0.654 -0.22,0.694 -0.645,0.189 -0.076,-0.292 -0.551,-2.169 0.37,-0.946 0.51,-1.573 -0.361,-1.289 -1.109,-3.528 -1.902,-5.964"
   id="36043"
   inkscape:label="Herkimer, NY"
   inkscape:connector-curvature="0" />
  <path
   style="fill:#72b3dc;stroke:#c2dffb;stroke-width:1"
   d="m 46.536,30.743 -0.05,0.509 0.054,0.356 0.045,0.172 0.578,1.18 0.121,0.307 -0.203,0.861 -0.229,0.684 -1.208,0.348 -1.623,1.46 -0.821,0.775 -0.387,0.451 -0.916,0.694 -0.238,0.095 -0.744,0.216 -0.094,-5.688 0.081,-1.708 0.307,-0.18 0.076,0.292 0.645,-0.189 0.22,-0.694 2.02,0.654 0.112,-0.131 -0.063,-0.852 1.163,0.203 1.154,0.185"
   id="36077"
   inkscape:label="Otsego, NY"
   inkscape:connector-curvature="0" />
  <path
   style="fill:#72b3dc;stroke:#c2dffb;stroke-width:1"
   d="m 50.164,30.342 0.965,0.662 0.18,0.126 0.099,0.64 -0.072,0.663 -0.064,1.212 -0.008,1.457 0.049,0.157 0.081,-0.031 -1.594,1.077 -2.948,-1.493 0.229,-0.684 0.203,-0.861 -0.121,-0.307 -0.578,-1.18 -0.045,-0.172 -0.054,-0.356 0.05,-0.509 0.843,0.031 1.099,0.275 1.037,-0.365 0.649,-0.342"
   id="36095"
   inkscape:label="Schoharie, NY"
   inkscape:connector-curvature="0" />
  <path
   style="fill:#72b3dc;stroke:#c2dffb;stroke-width:1"
   d="m 54.392,29.584 1.203,-0.347 -0.023,4.26 -4.178,1.731 -0.081,0.031 -0.049,-0.157 0.008,-1.457 0.064,-1.212 0.072,-0.663 -0.099,-0.64 -0.18,-0.126 3.263,-1.42"
   id="36001"
   inkscape:label="Albany, NY"
   inkscape:connector-curvature="0" />
  <path
   style="fill:#72b3dc;stroke:#c2dffb;stroke-width:1"
   d="m 49.421,22.869 2.442,-0.924 0.117,0.149 0.578,0.897 0.184,0.698 0.092,0.05 0.611,0.166 0.766,-0.739 0.551,-0.694 0.072,0.113 0.743,2.416 0.041,0.243 0.04,0.884 -0.045,0.455 -0.117,0.572 0.099,2.082 -1.203,0.347 -0.122,0.009 -0.063,-0.031 -0.825,-0.699 -0.109,-0.306 -0.414,-0.298 -1.244,-0.342 -0.355,0.054 -0.116,-0.338 -1.196,-3.326 -0.527,-1.438"
   id="36091"
   inkscape:label="Saratoga, NY"
   inkscape:connector-curvature="0" />
  <path
   style="fill:#72b3dc;stroke:#c2dffb;stroke-width:1"
   d="m 49.254,17.947 5.422,-2.077 -0.023,1.049 -0.058,0.78 -0.518,1.262 -0.168,0.447 -0.098,0.468 -0.01,0.086 0.027,0.18 0.934,2.33 -0.551,0.694 -0.766,0.739 -0.611,-0.166 -0.092,-0.05 -0.184,-0.698 -0.578,-0.897 -0.117,-0.149 -2.442,0.924 -1.545,-4.39 1.378,-0.532"
   id="36113"
   inkscape:label="Warren, NY"
   inkscape:connector-curvature="0" />
  <path
   style="fill:#72b3dc;stroke:#c2dffb;stroke-width:1"
   d="m 46.117,13.684 0.672,1.848 -0.6,0.729 1.451,1.181 0.087,-0.149 0.108,-0.071 0.332,-0.149 1.024,0.198 0.054,0.189 0.009,0.487 -1.378,0.532 1.545,4.39 0.527,1.438 -0.748,0.252 -2.776,0.911 -1.794,-0.361 -1.569,-0.356 0.42,-2.046 -2.385,-7.203 2.799,-1.023 2.222,-0.797"
   id="36041"
   inkscape:label="Hamilton, NY"
   inkscape:connector-curvature="0" />
  <path
   style="fill:#72b3dc;stroke:#c2dffb;stroke-width:1"
   d="m 48.546,9.01 -2.01,0.77 1.228,3.295 -1.647,0.609 -2.222,0.797 -0.123,-0.919 -0.328,-0.978 -1.825,-5.224 -1.146,-3.407 -0.698,0.157 -0.22,-0.658 0.238,-0.013 3.688,-0.703 1.288,-0.289 0.942,-0.275 0.104,-0.031 0.225,0.604 1.172,2.871 0.689,1.6 0.329,0.874 0.316,0.92"
   id="36033"
   inkscape:label="Franklin, NY"
   inkscape:connector-curvature="0" />
  <path
   style="fill:#72b3dc;stroke:#c2dffb;stroke-width:1"
   d="m 39.555,3.452 0.22,0.658 0.698,-0.157 1.146,3.407 1.825,5.224 0.328,0.978 0.123,0.919 -2.799,1.023 -2.93,0.302 -2.83,-0.969 -0.672,-0.256 -1.974,-0.677 -1.595,-0.603 0.283,-0.965 0.262,-0.645 0.478,-0.784 L 33.56,8.671 33.979,8.09 37.273,4.349 37.44,4.232 38.648,3.534 38.874,3.498 39.555,3.452"
   id="36089"
   inkscape:label="St. Lawrence, NY"
   inkscape:connector-curvature="0" />
  <path
   style="fill:#72b3dc;stroke:#c2dffb;stroke-width:1"
   d="m 31.095,13.301 1.595,0.603 1.974,0.677 0.672,0.256 -0.582,1.645 0.618,0.298 0.041,0.793 -0.258,0.609 -1.708,1.55 -0.013,1.204 0.382,1.23 -1.875,0.216 -0.414,0.189 0.086,0.343 -1.649,0.203 -0.596,-1.524 0.636,-1.311 0.041,-0.072 -0.019,-0.194 -0.198,-0.514 -0.063,-0.081 -0.073,-0.023 -0.788,-0.067 -0.558,-0.235 -0.875,-0.63 -0.139,-0.361 -0.006,-0.148 0.019,-0.29 0.216,-0.914 2.061,-2.191 1.473,-1.261"
   id="36045"
   inkscape:label="Jefferson, NY"
   inkscape:connector-curvature="0" />
  <path
   style="fill:#72b3dc;stroke:#c2dffb;stroke-width:1"
   d="m 29.964,23.117 1.649,-0.203 -0.086,-0.343 0.414,-0.189 1.875,-0.216 0.767,2.731 -0.566,-0.054 -0.232,2.15 0.235,0.027 0.251,2.114 -1.076,-0.14 -0.807,-0.244 -1.159,-0.333 -1.203,0.604 -1.41,0.356 -0.096,-0.365 -0.792,0.189 -0.483,-0.5 -0.41,-1.478 0.434,-0.487 1.135,-1.199 0.059,-0.036 0.374,-0.117 0.247,0.113 0.136,-0.009 0.306,-0.077 0.519,-0.325 0.054,-0.063 0.067,-0.171 0.032,-0.207 0.018,-0.199 -0.027,-0.333 -0.108,-0.627 -0.117,-0.369"
   id="36075"
   inkscape:label="Oswego, NY"
   inkscape:connector-curvature="0" />
  <path
   style="fill:#72b3dc;stroke:#c2dffb;stroke-width:1"
   d="m 26.083,28.368 0.91,4.038 -2.271,0.609 -1.564,0.324 -0.077,-0.347 -1.036,0.212 -1.136,0.293 -0.645,-3.083 0.546,-0.153 1.554,-0.397 0.289,-0.063 0.428,0.005 0.329,0.063 0.699,-0.127 0.054,-0.018 1.343,-0.788 0.217,-0.163 0.36,-0.405"
   id="36117"
   inkscape:label="Wayne, NY"
   inkscape:connector-curvature="0" />
  <path
   style="fill:#72b3dc;stroke:#c2dffb;stroke-width:1"
   d="m 14.892,33.37 -0.541,-2.956 0.387,-0.054 1.488,0.027 0.96,0.23 0.441,0.248 0.068,0.031 0.793,0.325 0.262,0.045 0.157,-0.014 1.357,-0.838 0.645,3.083 -1.051,0.207 0.252,1.158 -0.905,0.167 -0.513,0.154 -1.123,0.211 -0.023,-0.031 0.014,-0.018 0.239,-0.054 0.009,-0.028 0.053,-0.356 -0.045,-0.081 -0.108,-0.09 -1.653,0.329 -1.163,-1.695"
   id="36055"
   inkscape:label="Monroe, NY"
   inkscape:connector-curvature="0" />
  <path
   style="fill:#72b3dc;stroke:#c2dffb;stroke-width:1"
   d="m 10.583,34.245 0.109,0.509 -0.213,0.113 -0.978,0.32 -3.203,0.658 -0.768,0.144 -0.298,-0.058 -0.107,-0.19 -0.433,-2.177 2.05,-1.1 1.745,-0.847 0.771,-0.302 0.527,-0.167 0.059,-0.004 0.184,0.004 0.555,3.097"
   id="36063"
   inkscape:label="Niagara, NY"
   inkscape:connector-curvature="0" />
  <path
   style="fill:#72b3dc;stroke:#c2dffb;stroke-width:1"
   d="m 10.692,34.754 0.522,2.812 -0.203,0.037 0.189,1.113 0.235,-0.041 0.573,3.115 -1.203,0.55 L 9.768,42.895 8.689,43.611 8.46,43.705 8.23,43.764 7.676,43.48 6.444,42.786 5.666,42.511 5.684,42.24 5.801,41.906 6.206,40.839 6.459,40.627 7.081,40.113 7.312,40.005 7.698,39.5 7.807,39.297 7.807,39.194 7.469,38.446 6.941,37.49 6.819,37.332 6.676,37.242 6.278,37.17 5.873,36.999 5.774,36.891 5.697,36.611 5.53,35.989 l 0.768,-0.144 3.203,-0.658 0.978,-0.32 0.213,-0.113"
   id="36029"
   inkscape:label="Erie, NY"
   inkscape:connector-curvature="0" />
  <path
   style="fill:#72b3dc;stroke:#c2dffb;stroke-width:1"
   d="M 6.444,42.786 7.68,49.664 2.524,50.578 2.38,50.605 1.1,50.826 0.803,49.137 0.555,47.707 0.5,47.365 0.879,47.104 1.487,46.59 2.308,45.818 3.07,45.058 3.259,44.796 3.421,44.439 3.84,43.898 4.765,43.169 5.666,42.511 6.444,42.786"
   id="36013"
   inkscape:label="Chautauqua, NY"
   inkscape:connector-curvature="0" />
  <path
   style="fill:#72b3dc;stroke:#c2dffb;stroke-width:1"
   d="m 12.008,41.79 1.482,-0.077 1.259,6.648 -2.711,0.499 -2.604,0.506 -0.415,0.072 -1.339,0.226 -1.236,-6.878 1.232,0.694 0.554,0.284 0.23,-0.059 0.229,-0.094 1.079,-0.716 1.037,-0.555 1.203,-0.55"
   id="36009"
   inkscape:label="Cattaraugus, NY"
   inkscape:connector-curvature="0" />
  <path
   style="fill:#72b3dc;stroke:#c2dffb;stroke-width:1"
   d="m 16.001,41.235 1.852,-0.315 0.108,0.55 1.1,-0.167 0.919,6.062 -4.282,0.808 -0.949,0.188 -1.259,-6.648 2.511,-0.478"
   id="36003"
   inkscape:label="Allegany, NY"
   inkscape:connector-curvature="0" />
  <path
   style="fill:#72b3dc;stroke:#c2dffb;stroke-width:1"
   d="m 20.963,39.527 1.149,-0.216 2.065,-0.419 -0.005,0.108 0.031,0.297 0.117,0.582 0.064,0.058 0.369,0.072 0.266,1.195 0.347,1.478 0.1,-0.018 1.139,-0.315 0.708,3.528 -6.021,1.223 -1.312,0.265 -0.919,-6.062 1.902,-1.776"
   id="36101"
   inkscape:label="Steuben, NY"
   inkscape:connector-curvature="0" />
  <path
   style="fill:#72b3dc;stroke:#c2dffb;stroke-width:1"
   d="m 30.567,41.492 0.56,3.615 -3.453,0.69 -0.361,0.08 -0.708,-3.528 -0.022,-0.113 1.145,-0.316 0.987,-0.202 0.118,0.501 0.481,0.116 0.414,-0.031 0.172,-0.235 -0.089,-0.432 0.756,-0.145"
   id="36015"
   inkscape:label="Chemung, NY"
   inkscape:connector-curvature="0" />
  <path
   style="fill:#72b3dc;stroke:#c2dffb;stroke-width:1"
   d="m 34.02,39.063 0.073,0.095 0.774,1.658 0.023,0.081 0.104,0.505 0.026,0.414 -0.266,0.073 0.599,2.348 -0.382,0.081 -3.844,0.789 -0.56,-3.615 2.317,-2.15 1.136,-0.279"
   id="36107"
   inkscape:label="Tioga, NY"
   inkscape:connector-curvature="0" />
  <path
   style="fill:#72b3dc;stroke:#c2dffb;stroke-width:1"
   d="m 36.472,38.468 0.612,1.938 0.113,0.185 0.136,-0.091 1.18,-0.022 0.672,0.325 0.969,-0.208 1.064,-0.229 1.094,2.357 -1.153,0.256 -5.806,1.258 -0.599,-2.348 0.266,-0.073 -0.026,-0.414 -0.104,-0.505 -0.023,-0.081 -0.774,-1.658 -0.073,-0.095 2.452,-0.595"
   id="36007"
   inkscape:label="Broome, NY"
   inkscape:connector-curvature="0" />
  <path
   style="fill:#72b3dc;stroke:#c2dffb;stroke-width:1"
   d="m 46.852,34.812 2.948,1.493 0.161,0.04 -0.581,2.101 0.888,0.225 -2.614,2.632 -2.939,2.862 -1.181,-0.194 -0.302,-0.645 -0.171,-0.162 -0.568,-0.4 -0.181,-0.041 -1.094,-2.357 -0.303,-1.515 0.744,-0.216 0.238,-0.095 0.916,-0.694 0.387,-0.451 0.821,-0.775 1.623,-1.46 1.208,-0.348"
   id="36025"
   inkscape:label="Delaware, NY"
   inkscape:connector-curvature="0" />
  <path
   style="fill:#72b3dc;stroke:#c2dffb;stroke-width:1"
   d="m 44.715,44.165 2.939,-2.862 1.321,0.401 2.131,0.681 -0.194,0.581 -0.369,0.847 -0.189,0.482 0.923,0.429 1.046,0.455 0.419,0.622 -0.329,0.293 -0.18,0.388 -0.248,0.649 -2.564,0.725 -0.068,0.054 -0.009,0.031 0.117,0.488 0.126,0.282 -0.423,0.047 -0.758,0.041 -0.167,-0.077 -1.027,-0.533 -0.293,-0.279 -0.414,-0.405 -0.258,-0.591 -1.532,-2.749"
   id="36105"
   inkscape:label="Sullivan, NY"
   inkscape:connector-curvature="0" />
  <path
   style="fill:#72b3dc;stroke:#c2dffb;stroke-width:1"
   d="m 55.572,33.497 0.05,0 0.032,0.022 0.073,0.212 0.355,1.794 0.036,0.324 -0.023,0.176 -0.365,0.915 -0.284,0.897 -0.04,0.189 -0.928,-0.392 -0.419,0.136 -0.081,1.004 -1.482,0.19 -0.727,0.09 -1.501,-0.383 -0.888,-0.225 0.581,-2.101 -0.161,-0.04 1.594,-1.077 4.178,-1.731"
   id="36039"
   inkscape:label="Greene, NY"
   inkscape:connector-curvature="0" />
  <path
   style="fill:#72b3dc;stroke:#c2dffb;stroke-width:1"
   d="m 59.639,54.779 0.017,0.086 -0.175,0.869 -0.145,0.127 -0.698,0.622 -0.069,-0.289 0.091,-1.212 0.258,-1.171 0.603,0.301 0.118,0.667"
   id="36061"
   inkscape:label="New York, NY"
   inkscape:connector-curvature="0" />
  <path
   style="fill:#72b3dc;stroke:#c2dffb;stroke-width:1"
   d="m 55.374,38.68 0.186,2.209 0.531,1.73 0.203,0.414 0.319,1.875 -0.91,0.338 -0.684,0.136 -0.586,-0.019 -0.695,-0.252 -0.996,0.69 -0.419,-0.622 -1.046,-0.455 -0.923,-0.429 0.189,-0.482 0.369,-0.847 0.194,-0.581 -2.131,-0.681 -1.321,-0.401 2.614,-2.632 1.501,0.383 0.727,-0.09 1.482,-0.19 0.081,-1.004 0.419,-0.136 0.928,0.392 -0.032,0.654"
   id="36111"
   inkscape:label="Ulster, NY"
   inkscape:connector-curvature="0" />
  <path
   style="fill:#72b3dc;stroke:#c2dffb;stroke-width:1"
   d="m 58.958,53.323 1.374,0.163 0.185,0.983 -0.878,0.31 -0.118,-0.667 -0.603,-0.301 0.04,-0.488"
   id="36005"
   inkscape:label="Bronx, NY"
   inkscape:connector-curvature="0" />
  <path
   style="fill:#72b3dc;stroke:#c2dffb;stroke-width:1"
   d="m 58.638,56.483 0.698,-0.622 0.243,0.063 0.325,0.735 -0.094,1.153 -0.618,-0.036 -0.423,-0.635 -0.131,-0.658"
   id="36047"
   inkscape:label="Kings, NY"
   inkscape:connector-curvature="0" />
  <path
   style="fill:#72b3dc;stroke:#c2dffb;stroke-width:1"
   d="m 57.141,48.361 0.312,0.654 0.576,0.789 0.514,0.581 0.059,0.148 0.341,1.733 -3.411,-1.02 -0.225,-0.068 1.834,-2.856 0,0.039"
   id="36087"
   inkscape:label="Rockland, NY"
   inkscape:connector-curvature="0" />
  <path
   style="fill:#72b3dc;stroke:#c2dffb;stroke-width:1"
   d="m 64.546,56.1 -3.051,1.045 -0.77,-2.704 2.181,-2.136 1.64,3.795"
   id="36059"
   inkscape:label="Nassau, NY"
   inkscape:connector-curvature="0" />
  <path
   style="fill:#72b3dc;stroke:#c2dffb;stroke-width:1"
   d="m 56.613,44.908 0.19,1.971 0.338,1.443 -1.834,2.856 -1.411,-0.478 -3.542,-1.239 -0.767,-0.75 -0.126,-0.282 -0.117,-0.488 0.009,-0.031 0.068,-0.054 2.564,-0.725 0.248,-0.649 0.18,-0.388 0.329,-0.293 0.996,-0.69 0.695,0.252 0.586,0.019 0.684,-0.136 0.91,-0.338"
   id="36071"
   inkscape:label="Orange, NY"
   inkscape:connector-curvature="0" />
  <path
   style="fill:#72b3dc;stroke:#c2dffb;stroke-width:1"
   d="m 59.639,54.779 0.878,-0.31 0.208,-0.028 0.77,2.704 -1.685,0.667 0.094,-1.153 -0.325,-0.735 -0.243,-0.063 0.145,-0.127 0.175,-0.869 -0.017,-0.086"
   id="36081"
   inkscape:label="Queens, NY"
   inkscape:connector-curvature="0" />
  <path
   style="fill:#72b3dc;stroke:#c2dffb;stroke-width:1"
   d="m 64.546,56.1 -1.64,-3.795 -0.011,-0.248 0.051,-0.073 0.771,-0.288 1.766,0.226 5.765,-2.668 1.45,-1.687 0.547,-0.284 2.619,0.884 -0.117,0.289 -2.304,2.001 -0.622,0.478 -4.957,3.596 -0.785,0.473 -0.555,0.33 -0.274,0.145 -0.203,0.097 -1.501,0.524"
   id="36103"
   inkscape:label="Suffolk, NY"
   inkscape:connector-curvature="0" />
  <path
   style="fill:#72b3dc;stroke:#c2dffb;stroke-width:1"
   d="m 57.141,48.361 3.966,-1.541 0.158,0.91 -0.306,2.082 -0.06,0.059 -0.702,0.717 1.008,1.297 -0.873,1.601 -1.374,-0.163 -0.015,-1.057 -0.341,-1.733 -0.059,-0.148 -0.514,-0.581 -0.576,-0.789 -0.312,-0.654"
   id="36119"
   inkscape:label="Westchester, NY"
   inkscape:connector-curvature="0" />
  <path
   style="fill:#72b3dc;stroke:#c2dffb;stroke-width:1"
   d="m 60.755,44.756 0.352,2.064 -3.966,1.541 0,-0.039 -0.338,-1.443 0.298,-0.731 3.2,-1.271 0.454,-0.121"
   id="36079"
   inkscape:label="Putnam, NY"
   inkscape:connector-curvature="0" />
  <path
   style="fill:#72b3dc;stroke:#c2dffb;stroke-width:1"
   d="m 59.566,38.067 0.883,4.904 0.306,1.785 -0.454,0.121 -3.2,1.271 -0.298,0.731 -0.19,-1.971 -0.319,-1.875 -0.203,-0.414 -0.531,-1.73 -0.186,-2.209 0.127,-0.055 0.121,0.005 1.526,0.365 0.475,0.131 1.79,-0.063 0.063,-0.974 0.09,-0.022"
   id="36027"
   inkscape:label="Dutchess, NY"
   inkscape:connector-curvature="0" />
  <path
   style="fill:#72b3dc;stroke:#c2dffb;stroke-width:1"
   d="m 55.572,33.497 3.83,-1.533 -0.142,5.688 0.216,0.437 -0.063,0.974 -1.79,0.063 -0.475,-0.131 -1.526,-0.365 -0.121,-0.005 -0.127,0.055 0.032,-0.654 0.04,-0.189 0.284,-0.897 0.365,-0.915 0.023,-0.176 -0.036,-0.324 -0.355,-1.794 -0.073,-0.212 -0.032,-0.022 -0.05,0"
   id="36021"
   inkscape:label="Columbia, NY"
   inkscape:connector-curvature="0" />
  <path
   style="fill:#72b3dc;stroke:#c2dffb;stroke-width:1"
   d="m 55.496,27.155 3.299,-0.829 0.69,2.47 -0.083,3.168 -3.83,1.533 0.023,-4.26 -0.099,-2.082"
   id="36083"
   inkscape:label="Rensselaer, NY"
   inkscape:connector-curvature="0" />
  <path
   style="fill:#72b3dc;stroke:#c2dffb;stroke-width:1"
   d="m 55.193,15.68 0.334,0.649 -0.174,0.956 -0.051,0.523 0.091,0.753 0.036,0.048 0.306,0.127 1.55,0.342 0.546,2.538 0.964,4.71 -3.299,0.829 0.117,-0.572 0.045,-0.455 -0.04,-0.884 -0.041,-0.243 -0.743,-2.416 -0.072,-0.113 -0.934,-2.33 -0.027,-0.18 0.01,-0.086 0.098,-0.468 0.168,-0.447 0.518,-1.262 0.058,-0.78 0.023,-1.049 0.517,-0.19"
   id="36115"
   inkscape:label="Washington, NY"
   inkscape:connector-curvature="0" />
  
  
  
  
  
  
  
  
  
  
  
  
  
  
  
  
  
  
  
  
  
  
  
  
  
  
  
  
  
  
  
  
  
  
  
  
  
  
  
  
  
  
  
  
  
  
  
  
  
  
  
  
  
  
  
  
  
  
  
  
  
  
  
  
  
  
  
  
  
  
  
  
  
  
  
  
  
  
  
  
  
  
  
  
  
  
  
  
  
  
  
  
  
  
  
  
  
  
  
  
  
  
  
  
  
  
  
  
  
  
  
  
  
  
  
  
  
  
  
  
  
  
  
  
  
  
  
  
  
  
  
  
  
  
  
  
  
  
  
  
  
  
  
  
  
  
  
  
  
  
  
  
  
  
  
  
  
  
  
  
  
  
  
  
  
  
  
  
  
  
  
  
  
  
  
  
  
  
  
  
  
  
  
  
  
  
  
  
  
  
  
  
  
  
  
  
  
  
  
  
  
  
  
  
  
  
  
  
  
  
  
  
  
  
  
  
  
  
  
  
  
  
  
  
  
  
  
  
  
  
  
  
  
  
  
  
  
  
  
  
  
  
  
  
  
  
  
  
  
  
  
  
  
  
  
  
  
  
  
  
  
  
  
  
  
  
  
  
  
  
  
  
  
  
  
  
  
  
  
  
  
  
  
  
  
  
  
  
  
  
  
  
  
  
  
  
  
  
  
  
  
  
  
  
  
  
  
  
  
  
  
  
  
  
  
  
  
  
  
  
  
  
  
  
  
  
  
  
  
  
  
  
  
  
  
  
  
  
  
  
  
  
  
  
  
  
  
  
  
  
  
  
  
  
  
  
  
  
  
  
  
  
  
  
  
  
  
  
  
  
  
  
  
  
  
  
  
  
  
  
  
  
  
  
  
  
  
  
  
  
  
  
  
  
  
  
  
  
  
  
  
  
  
  
  
  
  
  
  
  
  
  
  
  
  
  
  
  
  
  
  
  
  
  
  
  
  
  
  
  
  
  
  
  
  
  
  
  
  
  
  
  
  
  
  
  
  
  
  
  
  
  
  
  
  
  
  
  
  
  
  
  
  
  
  
  
  
  
  
  
  
  
  
  
  
  
  
  
  
  
  
  
  
  
  
  
  
  
  
  
  
  
  
  
  
  
  
  
  
  
  
  
  
  
  
  
  
  
  
  
  
  
  
  
  
  
  
  
  
  
  
  
  
  
  
  
  
  
  
  
  
  
  
  
  
  
  
  
  
  
  
  
  
  
  
  
  
  
  
  
  
  
  
  
  
  
  
  
  
  
  
  
  
  
  
  
  
  
  
  
  
  
  
  
  
  
  
  
  
  
  
  
  
  
  
  
  
  
  
  
  
  
  
  
  
  
  
  
  
  
  
  
  
  
  
  
  
  
  
  
  
  
  
  
  
  
  
  
  
  
  
  
  
  
  
  
  
  
  
  
  
  
  
  
  
  
  
  
  
  
  
  
  
  
  
  
  
  
  
  
  
  
  
  
  
  
  
  
  
  
  
  
  
  
  
  
  
  
  
  
  
  
  
  
  
  
  
  
  
  
  
  
  
  
  
  
  
  
  
  
  
  
  
  
  
  
  
  
  
  
  
  
  
  
  
  
  
  
  
  
  
  
  
  
  
  
  
  
  
  
  
  
  
  
  
  
  
  
  
  
  
  
  
  
  
  
  
  
  
  
  
  
  
  
  
  
  
  
  
  
  
  
  
  
  
  
  
  
  
  
  
  
  
  
  
  
  
  
  
  
  
  
  
  
  
  
  
  
  
  
  
  
  
  
  
  
  
  
  
  
  
  
  
  
  
  
  
  
  
  
  
  
  
  
  
  
  
  
  
  
  
  
  
  
  
  
  
  
  
  
  
  
  
  
  
  
  
  
  
  
  
  
  
  
  
  
  
  
  
  
  
  
  
  
  
  
  
  
  
  
  
  
  
  
  
  
  
  
  
  
  
  
  
  
  
  
  
  
  
  
  
  
  
  
  
  
  
  
  
  
  
  
  
  
  
  
  
  
  
  
  
  
  
  
  
  
  
  
  
  
  
  
  
  
  
  
  
  
  
  
  
  
  
  
  
  
  
  
  
  
  
  
  
  
  
  
  
  
  
  
  
  
  
  
  
  
  
  
  
  
  
  
  
  
  
  
  
  
  
  
  
  
  
  
  
  
  
  
  
  
  
  
  
  
  
  
  
  
  
  
  
  
  
  
  
  
  
  
  
  
  
  
  
  
  
  
  
  
  
  
  
  
  
  
  
  
  
  
  
  
  
  
  
  
  
  
  
  
  
  
  
  
  
  
  
  
  
  
  
  
  
  
  
  
  
  
  
  
  
  
  
  
  
  
  
  
  
  
  
  
  
  
  
  
  
  
  
  
  
  
  
  
  
  
  
  
  
  
  
  
  
  
  
  
  
  
  
  
  
  
  
  
  
  
  
  
  
  
  
  
  
  
  
  
  
  
  
  
  
  
  
  
  
  
  
  
  
  
  
  
  
  
  
</svg>