<?xml version="1.0" encoding="UTF-8" standalone="no"?>
<!--?xml version="1.0" encoding="UTF-8" standalone="no"?-->

<svg
   xmlns:dc="http://purl.org/dc/elements/1.1/"
   xmlns:cc="http://creativecommons.org/ns#"
   xmlns:rdf="http://www.w3.org/1999/02/22-rdf-syntax-ns#"
   xmlns:svg="http://www.w3.org/2000/svg"
   xmlns="http://www.w3.org/2000/svg"
   xmlns:sodipodi="http://sodipodi.sourceforge.net/DTD/sodipodi-0.dtd"
   xmlns:inkscape="http://www.inkscape.org/namespaces/inkscape"
   width="47.496147"
   height="53.833435"
   viewBox="0 0 43.904002 49.174772"
   preserveAspectRatio="xMinYMin meet"
   xml:space="preserve"
   id="svg2323"
   version="1.1"
   inkscape:version="0.48.2 r9819"
   sodipodi:docname="OH.svg"><metadata
   id="metadata2417"><rdf:RDF><cc:Work
       rdf:about=""><dc:format>image/svg+xml</dc:format><dc:type
         rdf:resource="http://purl.org/dc/dcmitype/StillImage" /></cc:Work></rdf:RDF></metadata><defs
   id="defs2415" /><sodipodi:namedview
   pagecolor="#ffffff"
   bordercolor="#666666"
   borderopacity="1"
   objecttolerance="10"
   gridtolerance="10"
   guidetolerance="10"
   inkscape:pageopacity="0"
   inkscape:pageshadow="2"
   inkscape:window-width="640"
   inkscape:window-height="480"
   id="namedview2413"
   showgrid="false"
   inkscape:zoom="0.56730769"
   inkscape:cx="-135.2543"
   inkscape:cy="-34.165882"
   inkscape:window-x="0"
   inkscape:window-y="0"
   inkscape:window-maximized="0"
   inkscape:current-layer="svg2323" />
  
  
  
  
  
  
  
  
  
  
  
  
  
  
  
  
  
  
  
  
  
  
  
  
  
  
  
  
  
  
  
  
  
  
  
  
  
  
  
  
  
  
  
  
  
  
  
  
  
  
  
  
  
  
  
  
  
  
  
  
  
  
  
  
  
  
  
  
  
  
  
  
  
  
  
  
  
  
  
  
  
  
  
  
  
  
  
  
  
  
  
  
  
  
  
  
  
  
  
  
  
  
  
  
  
  
  
  
  
  
  
  
  
  
  
  
  
  
  
  
  
  
  
  
  
  
  
  
  
  
  
  
  
  
  
  
  
  
  
  
  
  
  
  
  
  
  
  
  
  
  
  
  
  
  
  
  
  
  
  
  
  
  
  
  
  
  
  
  
  
  
  
  
  
  
  
  
  
  
  
  
  
  
  
  
  
  
  
  
  
  
  
  
  
  
  
  
  
  
  
  
  
  
  
  
  
  
  
  
  
  
  
  
  
  
  
  
  
  
  
  
  
  
  
  
  
  
  
  
  
  
  
  
  
  
  
  
  
  
  
  
  
  
  
  
  
  
  
  
  
  
  
  
  
  
  
  
  
  
  
  
  
  
  
  
  
  
  
  
  
  
  
  
  
  
  
  
  
  
  
  
  
  
  
  
  
  
  
  
  
  
  
  
  
  
  
  
  
  
  
  
  
  
  
  
  
  
  
  
  
  
  
  
  
  
  
  
  
  
  
  
  
  
  
  
  
  
  
  
  
  
  
  
  
  
  
  
  
  
  
  
  
  
  
  
  
  
  
  
  
  
  
  
  
  
  
  
  
  
  
  
  
  
  
  
  
  
  
  
  
  
  
  
  
  
  
  
  
  
  
  
  
  
  
  
  
  
  
  
  
  
  
  
  
  
  
  
  
  
  
  
  
  
  
  
  
  
  
  
  
  
  
  
  
  
  
  
  
  
  
  
  
  
  
  
  
  
  
  
  
  
  
  
  
  
  
  
  
  
  
  
  
  
  
  
  
  
  
  
  
  
  
  
  
  
  
  
  
  
  
  
  
  
  
  
  
  
  
  
  
  
  
  
  
  
  
  
  
  
  
  
  
  
  
  
  
  
  
  
  
  
  
  
  
  
  
  
  
  
  
  
  
  
  
  
  
  
  
  
  
  
  
  
  
  
  
  
  
  
  
  
  
  
  
  
  
  
  
  
  
  
  
  
  
  
  
  
  
  
  
  
  
  
  
  
  
  
  
  
  
  
  
  
  
  
  
  
  
  
  
  
  
  
  
  
  
  
  
  
  
  
  
  
  
  
  
  
  
  
  
  
  
  
  
  
  
  
  
  
  
  
  
  
  
  
  
  
  
  
  
  
  
  
  
  
  
  
  
  
  
  
  
  
  
  
  
  
  
  
  
  
  
  
  
  
  
  
  
  
  
  
  
  
  
  
  
  
  
  
  
  
  
  
  
  
  
  
  
  
  
  
  
  
  
  
  
  
  
  
  
  
  
  
  
  
  
  
  
  
  
  
  
  
  
  
  
  
  
  
  
  
  
  
  
  
  
  
  
  
  
  
  
  
  
  
  
  
  
  
  
  
  
  
  
  
  
  
  
  
  
  
  
  
  
  
  
  
  
  
  
  
  
  
  
  
  
  
  
  
  
  
  
  
  
  
  
  
  
  
  
  
  
  
  
  
  
  
  
  
  
  
  
  
  
  
  
  
  
  
  
  
  
  
  
  
  
  
  
  
  
  
  
  
  
  
  
  
  
  
  
  
  
  
  
  
  
  
  
  
  
  
  
  
  
  
  
  
  
  
  
  
  
  
  
  
  
  
  
  
  
  
  
  
  
  
  
  
  
  
  
  
  
  
  
  
  
  
  
  
  
  
  
  
  
  
  
  
  
  
  
  
  
  
  
  
  
  
  
  
  
  
  
  
  
  
  
  
  
  
  
  
  
  
  
  
  
  
  
  
  
  
  
  
  
  
  
  
  
  
  
  
  
  
  
  
  
  
  
  
  
  
  
  
  
  
  
  
  
  
  
  
  
  
  
  
  
  
  
  
  
  
  
  
  
  
  
  
  
  
  
  
  
  
  
  
  
  
  
  
  
  
  
  
  
  
  
  
  
  
  
  
  
  
  
  
  
  
  
  
  
  
  
  
  
  
  
  
  
  
  
  
  
  
  
  
  
  
  
  
  
  
  
  
  
  
  
  
  
  
  
  
  
  
  
  
  
  
  
  
  
  
  
  
  
  
  
  
  
  
  
  
  
  
  
  
  
  
  
  
  
  
  
  
  
  
  
  
  
  
  
  
  
  
  
  
  
  
  
  
  
  
  
  
  
  
  
  
  
  
  
  
  
  
  
  
  
  
  
  
  
  
  
  
  
  
  
  
  
  
  
  
  
  
  
  
  
  
  
  
  
  
  
  
  
  
  
  
  
  
  
  
  
  
  
  
  
  
  
  
  
  
  
  
  
  
  
  
  
  
  
  
  
  
  
  
  
  
  
  
  
  
  
  
  
  
  
  
  
  
  
  
  
  
  
  
  
  
  
  
  
  
  
  
  
  
  
  
  
  
  
  
  
  
  
  
  
  
  
  
  
  
  
  
  
  
  
  
  
  
  
  
  
  
  
  
  
  
  
  
  
  
  
  
  
  
  
  
  
  
  
  
  
  
  
  
  
  
  
  
  
  
  
  
  
  
  
  
  
  
  
  
  
  
  
  
  
  
  
  
  
  
  
  
  
  
  
  
  
  
  
  
  
  
  
  
  
  
  
  
  
  
  
  
  
  
  
  
  
  
  
  
  
  
  
  
  
  
  
  
  
  
  
  
  
  
  
  
  
  
  
  
  
  
  
  
  
  
  
  
  
  
  
  
  
  
  
  
  
  
  
  
  
  
  
  
  
  
  
  
  
  
  
  
  
  
  
  
  
  
  
  
  
  
  
  
  
  
  
  
  
  
  
  
  
  
  
  
  
  
  
  
  
  
  
  
  
  
  
  
  
  
  
  
  
  
  
  
  
  
  
  
  
  
  
  
  
  
  
  
  
  
  
  
  
  
  
  
  
  
  
  
  
  
  
  
  
  
  
  
  
  
  
  
  
  
  
  
  
  
  
  
  
  
  
  
  
  
  
  
  
  
  
  
  
  
  
  
  
  
  
  
  
  
  
  
  
  
  
  
  
  
  
  
  
  
  
  
  
  
  
  
  
  
  
  
  
  
  
  
  
  
  
  
  
  
  
  
  
  
  
  
  
  
  
  
  
  
  
  
  
  
  
  
  
  
  
  
  
  
  
  
  
  
  
  
  
  
  
  
  
  
  
  
  
  
  
  
  
  
  
  
  
  
  
  
  
  
  
  
  
  
  
  
  
  
  
  
  
  
  
  
  
  
  
  
  
  
  
  
  
  
  
  
  
  
  
  
  
  
  
  
  
  
  
  
  
  
  
  
  
  
  
  
  
  
  
  
  
  
  
  
  
  
  
  
  
  
  
  
  
  
  
  
  
  
  
  
  
  
  
  
  
  
  
  
  
  
  
  
  
  
  
  
  
  
  
  
  
  
  
  
  
  
  
  
  
  
  
  
  
  
  
  
  
  
  
  
  
  
  
  
  
  
  
  
  
  
  
  
  
  
  
  
  
  
  
  
  
  
  
  
  
  
  
  
  
  
  
  
  
  
  
  
  
  
  
  
  
  
  
  
  
  
  
  
  
  
  
  
  
  
  
  
  
  
  
  
  
  
  
  
  
  
  
  
  
  
  
  
  
  
  
  
  
  
  
  
  
  
  
  
  
  
  
  
  
  
  
  
  
  
  
  
  
  
  
  
  
  
  
  
  
  
  
  
  
  
  
  
  
  
  
  
  
  
  
  
  
  
  
  
  
  
  
  
  
  
  
  
  
  
  
  
  
  
  
  
  
  
  
  
  
  
  
  
  
  
  
  
  
  
  
  
  
  
  
  
  
  
  
  
  
  
  
  
  
  
  
  
  
  
  
  
  
  
  
  
  
  
  
  
  
  
  
  
  
  
  
  
  
  
  
  
  
  
  
  
  
  
  
  
  
  
  
  
  
  
  
  
  
  
  
  
  
  
  
  
  
  
  
  
  
  
  
  
  
  
  
  
  
  
  
  
  
  
  
  
  
  
  
  
  
  
  
  
  
  
  
  
  
  
  
  
  
  
  
  
  
  
  
  
  
  
  
  
  
  
  
  
  
  
  
  
  
  
  
  
  
  
  
  
  
  
  
  
  
  
  
  
  
  
  
  
  
  
  
  
  
  
  
  
  
  
  
  
  
  
  
  
  
  
  
  
  
  
  
  
  
  
  
  
  
  
  
  
  
  
  
  
  
  
  
  
  
  
  
  
  
  
  
  
  
  
  
  
  
  
  
  
  
  
  
  
  
  
  
  
  
  
  
  
  
  
  
  
  
  
  
  
  
  
  
  
  
  
  
  
  
  
  
  
  
  
  
  
  
  
  
  
  
  
  
  
  
  
  
  
  
  
  
  
  
  
  
  
  
  
  
  
  
  
  
  
  
  
  
  
  
  
  
  
  
  
  
  
  
  
  
  
  
  
  
  
  
  
  
  
  
  
  
  <path
   style="fill:#72b3dc;stroke:#c2dffb;stroke-width:1"
   d="m 41.586,6.616 0.024,0.14 0.752,4.556 -4.588,0.736 -0.45,-2.742 -0.334,-1.969 4.596,-0.721"
   id="39155"
   inkscape:label="Trumbull, OH"
   inkscape:connector-curvature="0" />
  <path
   style="fill:#72b3dc;stroke:#c2dffb;stroke-width:1"
   d="M 40.852,2.136 41.586,6.616 36.99,7.337 36.552,4.601 36.273,2.808 40.584,0.5 40.852,2.136"
   id="39007"
   inkscape:label="Ashtabula, OH"
   inkscape:connector-curvature="0" />
  <path
   style="fill:#72b3dc;stroke:#c2dffb;stroke-width:1"
   d="m 26.169,43.812 0.744,-0.045 0.048,0.853 1.212,0.324 1.248,0.879 0.082,0.982 0.748,-0.076 -0.004,0.564 -0.004,0.027 -0.045,0.924 -0.018,0.094 -0.018,0.086 -0.028,0.076 -0.053,0.068 -0.099,0.064 -1.592,0.63 -0.884,-0.027 -0.87,-0.978 -1.608,-0.626 0.612,-0.392 0.587,-2.107 0.009,-0.192 -0.067,-1.128"
   id="39087"
   inkscape:label="Lawrence, OH"
   inkscape:connector-curvature="0" />
  <path
   style="fill:#72b3dc;stroke:#c2dffb;stroke-width:1"
   d="m 19.746,42.51 0.644,0.619 0.036,0.021 2.095,-0.234 1.916,-0.159 0.537,-0.04 0.045,0.649 0.231,0.51 0.919,-0.064 0.067,1.128 -0.009,0.192 -0.587,2.107 -0.612,0.392 -0.045,-0.023 -0.216,-0.144 -0.01,-0.014 -0.081,-0.095 -0.067,-0.143 -0.023,-0.05 -0.28,-0.843 -0.095,-0.406 0.01,-0.156 -0.005,-0.006 0,-0.013 -0.008,-0.091 -0.019,-0.077 -0.004,-0.018 -0.005,-0.018 -0.017,-0.031 -0.027,-0.04 -0.013,-0.023 -0.046,-0.05 -0.103,-0.045 -0.051,0 -0.012,0.003 -0.272,0.119 -0.834,0.378 -0.179,0.081 0,0.005 -2.277,1.915 -0.603,-5.336"
   id="39145"
   inkscape:label="Scioto, OH"
   inkscape:connector-curvature="0" />
  <path
   style="fill:#72b3dc;stroke:#c2dffb;stroke-width:1"
   d="m 19.746,42.51 0.603,5.336 -0.571,-0.428 -0.024,-0.008 -0.337,-0.158 -0.027,-0.013 -1.074,-0.258 -0.404,-0.099 -0.014,0 -0.085,-0.009 -0.123,0.027 -0.784,0.343 -0.104,0.072 -0.077,0.126 -0.054,0.455 -0.576,0.068 -0.325,-4.985 2.776,-0.82 1.2,0.351"
   id="39001"
   inkscape:label="Adams, OH"
   inkscape:connector-curvature="0" />
  <path
   style="fill:#72b3dc;stroke:#c2dffb;stroke-width:1"
   d="m 18.619,40.278 5.63,-0.391 0.188,2.87 -1.916,0.159 -2.095,0.234 -0.036,-0.021 -0.644,-0.619 -1.2,-0.351 0.073,-1.881"
   id="39131"
   inkscape:label="Pike, OH"
   inkscape:connector-curvature="0" />
  <path
   style="fill:#72b3dc;stroke:#c2dffb;stroke-width:1"
   d="m 24.406,39.351 1.118,-0.081 1.154,0.116 1.181,0.393 0.085,1.339 -1.031,2.649 -0.744,0.045 -0.919,0.064 -0.231,-0.51 -0.045,-0.649 -0.537,0.04 -0.188,-2.87 0.157,-0.536"
   id="39079"
   inkscape:label="Jackson, OH"
   inkscape:connector-curvature="0" />
  <path
   style="fill:#72b3dc;stroke:#c2dffb;stroke-width:1"
   d="m 29.066,41.054 0.015,0.19 2.27,-0.198 0.05,0.585 -0.226,1.235 -0.13,2.083 0.003,0.004 0.258,1.051 0.014,0.09 0,0.018 -0.005,0.045 -0.005,0.076 -0.013,0.063 -0.041,0.067 -0.025,0.027 -0.056,0.045 -0.022,0.024 -0.059,0.012 -0.189,0.041 -0.654,0.217 -0.748,0.076 -0.082,-0.982 -1.248,-0.879 -1.212,-0.324 -0.048,-0.853 1.031,-2.649 1.122,-0.064"
   id="39053"
   inkscape:label="Gallia, OH"
   inkscape:connector-curvature="0" />
  <path
   style="fill:#72b3dc;stroke:#c2dffb;stroke-width:1"
   d="m 29.27,38.711 5.142,-0.446 0.184,1.081 -0.612,0.266 0,0.112 0.049,0.176 0.108,0.141 0.112,0.082 0.226,0.151 0.108,0.126 0.24,1.038 -0.024,0.108 -1.045,0.744 -0.329,0.086 0,-0.676 -0.036,-0.1 -0.247,-0.37 -0.195,-0.242 -0.73,-0.398 -0.005,0 -0.153,-0.008 -0.171,0.09 -0.46,0.779 -0.031,0.18 -0.05,-0.585 -2.27,0.198 -0.015,-0.19 0.204,-2.343"
   id="39105"
   inkscape:label="Meigs, OH"
   inkscape:connector-curvature="0" />
  <path
   style="fill:#72b3dc;stroke:#c2dffb;stroke-width:1"
   d="m 24.257,37.269 1.119,-0.073 1.144,-0.265 -0.018,-0.343 2.226,-0.166 0.077,1.162 0.378,-0.032 0.087,1.159 -0.204,2.343 -1.122,0.064 -0.085,-1.339 -1.181,-0.393 -1.154,-0.116 -1.118,0.081 -0.149,-2.082"
   id="39163"
   inkscape:label="Vinton, OH"
   inkscape:connector-curvature="0" />
  <path
   style="fill:#72b3dc;stroke:#c2dffb;stroke-width:1"
   d="m 38.134,32.09 0.406,0.289 2.064,-0.235 0.045,0.41 -0.869,1.357 -1.981,1.699 -0.435,-0.536 -0.072,-0.077 -0.253,-0.14 -0.113,-0.009 -0.09,0.028 -0.103,0.089 -0.627,0.766 -1.289,1.641 -0.23,0.506 -0.076,-0.808 -0.951,0.108 -0.432,-0.536 -0.173,-1.708 2.241,-2.141 2.938,-0.703"
   id="39167"
   inkscape:label="Washington, OH"
   inkscape:connector-curvature="0" />
  <path
   style="fill:#72b3dc;stroke:#c2dffb;stroke-width:1"
   d="m 29.679,34.019 1.105,-0.085 2.171,1 0.173,1.708 0.432,0.536 0.951,-0.108 0.076,0.808 -0.175,0.387 -5.142,0.446 -0.087,-1.159 -0.378,0.032 -0.153,-2.312 1.118,-0.081 -0.091,-1.172"
   id="39009"
   inkscape:label="Athens, OH"
   inkscape:connector-curvature="0" />
  <path
   style="fill:#72b3dc;stroke:#c2dffb;stroke-width:1"
   d="m 27.39,33.059 2.289,0.96 0.091,1.172 -1.118,0.081 0.076,1.15 -2.226,0.166 0.018,0.343 -1.144,0.265 -1.119,0.073 -0.103,-1.299 -0.068,-1.122 0.167,-0.198 0.852,-0.658 1.145,-0.861 1.14,-0.072"
   id="39073"
   inkscape:label="Hocking, OH"
   inkscape:connector-curvature="0" />
  <path
   style="fill:#72b3dc;stroke:#c2dffb;stroke-width:1"
   d="m 18.916,36.06 2.545,-0.22 0.222,0.175 0.126,0.136 2.345,-0.181 0.103,1.299 0.149,2.082 -0.157,0.536 -5.63,0.391 -0.501,-2.288 0.798,-1.93"
   id="39141"
   inkscape:label="Ross, OH"
   inkscape:connector-curvature="0" />
  <path
   style="fill:#72b3dc;stroke:#c2dffb;stroke-width:1"
   d="m 15.974,38.256 2.144,-0.266 0.501,2.288 -0.073,1.881 -2.776,0.82 -1.965,0.243 -0.31,-2.921 2.479,-2.045"
   id="39071"
   inkscape:label="Highland, OH"
   inkscape:connector-curvature="0" />
  <path
   style="fill:#72b3dc;stroke:#c2dffb;stroke-width:1"
   d="m 12.228,40.374 1.267,-0.073 0.31,2.921 1.965,-0.243 0.325,4.985 -0.78,-0.387 -0.879,-0.91 -0.063,-0.051 -0.122,-0.045 -0.342,-0.045 -1.479,0.158 -0.202,-6.31"
   id="39015"
   inkscape:label="Brown, OH"
   inkscape:connector-curvature="0" />
  <path
   style="fill:#72b3dc;stroke:#c2dffb;stroke-width:1"
   d="m 12.092,40.374 0.136,0 0.202,6.31 -1.852,-0.527 -0.095,-0.591 -1.095,-1.794 -0.04,-1.992 -0.159,-0.433 0.393,-0.856 2.51,-0.117"
   id="39025"
   inkscape:label="Clermont, OH"
   inkscape:connector-curvature="0" />
  <path
   style="fill:#72b3dc;stroke:#c2dffb;stroke-width:1"
   d="m 8.626,40.329 0.956,0.162 -0.393,0.856 0.159,0.433 0.04,1.992 -1.956,-0.721 -1.127,0.411 -1.992,-0.171 -0.297,-2.579 1.627,-0.189 0.726,-0.132 1.876,-0.085 0.381,0.023"
   id="39061"
   inkscape:label="Hamilton, OH"
   inkscape:connector-curvature="0" />
  <path
   style="fill:#72b3dc;stroke:#c2dffb;stroke-width:1"
   d="m 14.91,36.146 1.064,2.11 -2.479,2.045 -1.267,0.073 -0.136,0 -0.22,-4.082 3.038,-0.146"
   id="39027"
   inkscape:label="Clinton, OH"
   inkscape:connector-curvature="0" />
  <path
   style="fill:#72b3dc;stroke:#c2dffb;stroke-width:1"
   d="m 10.515,36.344 1.357,-0.052 0.22,4.082 -2.51,0.117 -0.956,-0.162 -0.59,-3.826 2.479,-0.159"
   id="39165"
   inkscape:label="Warren, OH"
   inkscape:connector-curvature="0" />
  <path
   style="fill:#72b3dc;stroke:#c2dffb;stroke-width:1"
   d="M 6.922,36.632 8.036,36.503 8.626,40.329 8.245,40.306 6.369,40.391 5.643,40.523 4.016,40.712 3.728,37.908 3.66,37.323 6.922,36.632"
   id="39017"
   inkscape:label="Butler, OH"
   inkscape:connector-curvature="0" />
  <path
   style="fill:#72b3dc;stroke:#c2dffb;stroke-width:1"
   d="M 6.337,32.406 6.922,36.632 3.66,37.323 3.425,35.267 3.151,32.807 6.337,32.406"
   id="39135"
   inkscape:label="Preble, OH"
   inkscape:connector-curvature="0" />
  <path
   style="fill:#72b3dc;stroke:#c2dffb;stroke-width:1"
   d="m 6.919,32.319 2.618,-0.369 -0.081,0.158 0.058,0.203 0.073,0.122 1.049,-0.054 0.024,0.378 -0.145,3.587 -2.479,0.159 -1.114,0.129 -0.585,-4.226 0.582,-0.087"
   id="39113"
   inkscape:label="Montgomery, OH"
   inkscape:connector-curvature="0" />
  <path
   style="fill:#72b3dc;stroke:#c2dffb;stroke-width:1"
   d="m 14.756,33.244 0.037,0.734 0.117,2.168 -3.038,0.146 -1.357,0.052 0.145,-3.587 0.697,-0.032 0.424,0.013 1.137,0.096 0.017,0.324 1.821,0.086"
   id="39057"
   inkscape:label="Greene, OH"
   inkscape:connector-curvature="0" />
  <path
   style="fill:#72b3dc;stroke:#c2dffb;stroke-width:1"
   d="m 14.793,33.978 3.952,-0.243 0.171,2.325 -0.798,1.93 -2.144,0.266 -1.064,-2.11 -0.117,-2.168"
   id="39047"
   inkscape:label="Fayette, OH"
   inkscape:connector-curvature="0" />
  <path
   style="fill:#72b3dc;stroke:#c2dffb;stroke-width:1"
   d="m 18.628,32.202 4.119,-0.323 0.086,1.288 0.149,1.745 1.104,-0.064 0.068,1.122 -2.345,0.181 -0.126,-0.136 -0.222,-0.175 -2.545,0.22 -0.171,-2.325 -0.117,-1.533"
   id="39129"
   inkscape:label="Pickaway, OH"
   inkscape:connector-curvature="0" />
  <path
   style="fill:#72b3dc;stroke:#c2dffb;stroke-width:1"
   d="m 22.896,29.958 3.124,-0.32 0.08,1.212 0.51,-0.031 0.703,1.1 0.077,1.14 -1.14,0.072 -1.145,0.861 -0.852,0.658 -0.167,0.198 -1.104,0.064 -0.149,-1.745 -0.086,-1.288 0.149,-1.921"
   id="39045"
   inkscape:label="Fairfield, OH"
   inkscape:connector-curvature="0" />
  <path
   style="fill:#72b3dc;stroke:#c2dffb;stroke-width:1"
   d="m 26.02,29.638 2.258,-0.104 1.803,1.609 0.703,2.791 -1.105,0.085 -2.289,-0.96 -0.077,-1.14 -0.703,-1.1 -0.51,0.031 -0.08,-1.212"
   id="39127"
   inkscape:label="Perry, OH"
   inkscape:connector-curvature="0" />
  <path
   style="fill:#72b3dc;stroke:#c2dffb;stroke-width:1"
   d="m 38.053,28.656 1.077,-0.131 2.29,-0.203 0.712,-0.081 0.086,-0.063 0.108,1.735 -0.888,1.64 -0.789,1.001 -0.045,-0.41 -2.064,0.235 -0.406,-0.289 -0.184,-1.302 -0.369,0.053 -0.272,-2.09 0.744,-0.095"
   id="39111"
   inkscape:label="Monroe, OH"
   inkscape:connector-curvature="0" />
  <path
   style="fill:#72b3dc;stroke:#c2dffb;stroke-width:1"
   d="m 37.919,27.579 0.134,1.077 -0.744,0.095 0.272,2.09 0.369,-0.053 0.184,1.302 -2.938,0.703 -1.398,-2.005 -0.134,-1.122 1.113,-0.126 -0.054,-0.41 0.311,-0.384 1.41,-0.929 0.365,-0.095 1.11,-0.143"
   id="39121"
   inkscape:label="Noble, OH"
   inkscape:connector-curvature="0" />
  <path
   style="fill:#72b3dc;stroke:#c2dffb;stroke-width:1"
   d="m 30.081,31.143 3.717,-0.355 1.398,2.005 -2.241,2.141 -2.171,-1 -0.703,-2.791"
   id="39115"
   inkscape:label="Morgan, OH"
   inkscape:connector-curvature="0" />
  <path
   style="fill:#72b3dc;stroke:#c2dffb;stroke-width:1"
   d="m 28.255,26.209 4.593,-0.492 0.307,2.852 0.364,-0.044 0.145,1.141 0.134,1.122 -3.717,0.355 -1.803,-1.609 -0.023,-3.325"
   id="39119"
   inkscape:label="Muskingum, OH"
   inkscape:connector-curvature="0" />
  <path
   style="fill:#72b3dc;stroke:#c2dffb;stroke-width:1"
   d="m 40.897,24.365 1.744,-0.253 -0.026,1.641 -0.397,2.425 -0.086,0.063 -0.712,0.081 -2.29,0.203 -1.077,0.131 -0.134,-1.077 -0.362,-2.822 3.34,-0.392"
   id="39013"
   inkscape:label="Belmont, OH"
   inkscape:connector-curvature="0" />
  <path
   style="fill:#72b3dc;stroke:#c2dffb;stroke-width:1"
   d="m 39.784,21.056 0.739,-0.094 0.072,0.559 -0.031,0.081 0.333,2.763 -3.34,0.392 -1.176,-0.396 -0.144,-1.164 0.361,-0.05 0.198,-0.142 -0.194,-1.565 3.182,-0.384"
   id="39067"
   inkscape:label="Harrison, OH"
   inkscape:connector-curvature="0" />
  <path
   style="fill:#72b3dc;stroke:#c2dffb;stroke-width:1"
   d="m 33.619,24.694 2.762,-0.333 1.176,0.396 0.362,2.822 -1.11,0.143 -0.365,0.095 -1.41,0.929 -0.311,0.384 0.054,0.41 -1.113,0.126 -0.145,-1.141 -0.364,0.044 -0.307,-2.852 0.351,-0.042 0.081,-0.053 -0.085,-0.784 0.424,-0.144"
   id="39059"
   inkscape:label="Guernsey, OH"
   inkscape:connector-curvature="0" />
  <path
   style="fill:#72b3dc;stroke:#c2dffb;stroke-width:1"
   d="m 27.738,22.485 4.61,-0.536 0.113,0.956 0.932,-0.108 0.226,1.897 -0.424,0.144 0.085,0.784 -0.081,0.053 -0.351,0.042 -4.593,0.492 -0.221,-0.916 -0.296,-2.808"
   id="39031"
   inkscape:label="Coshocton, OH"
   inkscape:connector-curvature="0" />
  <path
   style="fill:#72b3dc;stroke:#c2dffb;stroke-width:1"
   d="m 22.576,25.577 2.7,-0.221 0.022,0.244 1.105,-0.095 1.631,-0.212 0.221,0.916 0.023,3.325 -2.258,0.104 -3.124,0.32 -0.14,-2.425 -0.18,-1.956"
   id="39089"
   inkscape:label="Licking, OH"
   inkscape:connector-curvature="0" />
  <path
   style="fill:#72b3dc;stroke:#c2dffb;stroke-width:1"
   d="m 17.483,24.09 2.218,-0.171 2.82,0.716 0.055,0.942 0.18,1.956 -3.989,0.325 -0.198,-1.293 -0.73,0.089 -0.249,-1.676 -0.107,-0.888"
   id="39041"
   inkscape:label="Delaware, OH"
   inkscape:connector-curvature="0" />
  <path
   style="fill:#72b3dc;stroke:#c2dffb;stroke-width:1"
   d="m 22.756,27.533 0.14,2.425 -0.149,1.921 -4.119,0.323 -0.149,-3.84 0.288,-0.504 3.989,-0.325"
   id="39049"
   inkscape:label="Franklin, OH"
   inkscape:connector-curvature="0" />
  <path
   style="fill:#72b3dc;stroke:#c2dffb;stroke-width:1"
   d="m 15.582,28.706 2.897,-0.344 0.149,3.84 0.117,1.533 -3.952,0.243 -0.037,-0.734 0.888,-3.237 -0.062,-1.301"
   id="39097"
   inkscape:label="Madison, OH"
   inkscape:connector-curvature="0" />
  <path
   style="fill:#72b3dc;stroke:#c2dffb;stroke-width:1"
   d="m 10.519,30.291 5.125,-0.284 -0.888,3.237 -1.821,-0.086 -0.017,-0.324 -1.137,-0.096 -0.424,-0.013 -0.697,0.032 -0.024,-0.378 -0.117,-2.088"
   id="39023"
   inkscape:label="Clark, OH"
   inkscape:connector-curvature="0" />
  <path
   style="fill:#72b3dc;stroke:#c2dffb;stroke-width:1"
   d="m 14.919,27.245 0.663,1.461 0.062,1.301 -5.125,0.284 -0.167,-3.033 2.259,-0.118 0.582,0.168 1.726,-0.063"
   id="39021"
   inkscape:label="Champaign, OH"
   inkscape:connector-curvature="0" />
  <path
   style="fill:#72b3dc;stroke:#c2dffb;stroke-width:1"
   d="m 6.414,28.746 4.002,-0.324 0.103,1.869 0.117,2.088 L 9.587,32.433 9.514,32.311 9.456,32.108 9.537,31.95 6.919,32.319 6.414,28.746"
   id="39109"
   inkscape:label="Miami, OH"
   inkscape:connector-curvature="0" />
  <path
   style="fill:#72b3dc;stroke:#c2dffb;stroke-width:1"
   d="m 6.152,26.717 0.107,-0.324 0.615,-1.425 0.215,-0.026 3.038,-0.405 0.225,2.721 0.064,1.164 -4.002,0.324 -0.267,-2.024 0.005,-0.005"
   id="39149"
   inkscape:label="Shelby, OH"
   inkscape:connector-curvature="0" />
  <path
   style="fill:#72b3dc;stroke:#c2dffb;stroke-width:1"
   d="M 6.147,26.722 6.414,28.746 6.919,32.319 6.337,32.406 3.151,32.807 3.034,31.666 2.636,27.722 2.569,27.174 6.147,26.722"
   id="39037"
   inkscape:label="Darke, OH"
   inkscape:connector-curvature="0" />
  <path
   style="fill:#72b3dc;stroke:#c2dffb;stroke-width:1"
   d="M 5.421,22.485 6.152,26.717 6.147,26.722 2.569,27.174 2.25,24.338 2.014,22.328 5.421,22.485"
   id="39107"
   inkscape:label="Mercer, OH"
   inkscape:connector-curvature="0" />
  <path
   style="fill:#72b3dc;stroke:#c2dffb;stroke-width:1"
   d="m 5.991,22.414 1.676,-0.222 0.048,0.375 1.863,-0.068 1.465,-0.194 0.174,1.367 -1.09,0.865 -3.038,0.405 -0.215,0.026 -0.615,1.425 -0.107,0.324 -0.731,-4.232 0.57,-0.071"
   id="39011"
   inkscape:label="Auglaize, OH"
   inkscape:connector-curvature="0" />
  <path
   style="fill:#72b3dc;stroke:#c2dffb;stroke-width:1"
   d="m 11.217,23.672 0.409,0.066 3.108,-0.14 0.022,0.068 0.163,3.579 -1.726,0.063 -0.582,-0.168 -2.259,0.118 -0.225,-2.721 1.09,-0.865"
   id="39091"
   inkscape:label="Logan, OH"
   inkscape:connector-curvature="0" />
  <path
   style="fill:#72b3dc;stroke:#c2dffb;stroke-width:1"
   d="m 14.756,23.666 0.978,-0.149 1.749,0.573 0.107,0.888 0.249,1.676 0.73,-0.089 0.198,1.293 -0.288,0.504 -2.897,0.344 -0.663,-1.461 -0.163,-3.579"
   id="39159"
   inkscape:label="Union, OH"
   inkscape:connector-curvature="0" />
  <path
   style="fill:#72b3dc;stroke:#c2dffb;stroke-width:1"
   d="m 20.786,20.214 0.091,0.753 -0.942,0.148 -0.284,2.145 0.05,0.659 -2.218,0.171 -1.749,-0.573 -0.323,-2.334 2.941,-0.608 2.434,-0.361"
   id="39101"
   inkscape:label="Marion, OH"
   inkscape:connector-curvature="0" />
  <path
   style="fill:#72b3dc;stroke:#c2dffb;stroke-width:1"
   d="m 20.786,20.214 1.249,-0.257 1.294,1.933 -0.023,0.659 0.171,2.009 -0.956,0.077 -2.82,-0.716 -0.05,-0.659 0.284,-2.145 0.942,-0.148 -0.091,-0.753"
   id="39117"
   inkscape:label="Morrow, OH"
   inkscape:connector-curvature="0" />
  <path
   style="fill:#72b3dc;stroke:#c2dffb;stroke-width:1"
   d="m 27.182,21.097 0.556,1.388 0.296,2.808 -1.631,0.212 -1.105,0.095 -0.022,-0.244 -2.7,0.221 -0.055,-0.942 0.956,-0.077 -0.171,-2.009 0.023,-0.659 2.754,-0.459 1.099,-0.334"
   id="39083"
   inkscape:label="Knox, OH"
   inkscape:connector-curvature="0" />
  <path
   style="fill:#72b3dc;stroke:#c2dffb;stroke-width:1"
   d="m 32.483,18.992 0.063,0.429 -0.109,0.108 0.289,2.375 -0.378,0.045 -4.61,0.536 -0.556,-1.388 0.717,-1.42 4.584,-0.685"
   id="39075"
   inkscape:label="Holmes, OH"
   inkscape:connector-curvature="0" />
  <path
   style="fill:#72b3dc;stroke:#c2dffb;stroke-width:1"
   d="m 35.705,18.714 0.131,1.093 0.554,-0.062 0.406,3.26 -0.198,0.142 -0.361,0.05 0.144,1.164 -2.762,0.333 -0.226,-1.897 -0.932,0.108 -0.113,-0.956 0.378,-0.045 -0.289,-2.375 0.109,-0.108 3.159,-0.707"
   id="39157"
   inkscape:label="Tuscarawas, OH"
   inkscape:connector-curvature="0" />
  <path
   style="fill:#72b3dc;stroke:#c2dffb;stroke-width:1"
   d="m 37.766,17.388 2.424,1.302 -0.406,2.366 -3.182,0.384 -0.212,-1.695 -0.554,0.062 -0.131,-1.093 0.739,-0.1 -0.094,-0.82 0.342,-0.253 1.074,-0.153"
   id="39019"
   inkscape:label="Carroll, OH"
   inkscape:connector-curvature="0" />
  <path
   style="fill:#72b3dc;stroke:#c2dffb;stroke-width:1"
   d="m 40.19,18.69 1.902,-0.086 0.878,2.336 -0.225,2.767 -0.104,0.405 -1.744,0.253 -0.333,-2.763 0.031,-0.081 -0.072,-0.559 -0.739,0.094 0.406,-2.366"
   id="39081"
   inkscape:label="Jefferson, OH"
   inkscape:connector-curvature="0" />
  <path
   style="fill:#72b3dc;stroke:#c2dffb;stroke-width:1"
   d="m 42.844,14.305 0.114,0.62 0.446,2.724 -1.312,0.955 -1.902,0.086 -2.424,-1.302 -0.352,-2.25 5.43,-0.833"
   id="39029"
   inkscape:label="Columbiana, OH"
   inkscape:connector-curvature="0" />
  <path
   style="fill:#72b3dc;stroke:#c2dffb;stroke-width:1"
   d="m 34.306,14.504 2.937,-0.455 0.523,3.339 -1.074,0.153 -0.342,0.253 0.094,0.82 -0.739,0.1 -3.159,0.707 -0.527,-3.593 2.287,-1.324"
   id="39151"
   inkscape:label="Stark, OH"
   inkscape:connector-curvature="0" />
  <path
   style="fill:#72b3dc;stroke:#c2dffb;stroke-width:1"
   d="m 31.486,14.932 0.533,0.896 0.464,3.164 -4.584,0.685 -0.646,-4.16 4.233,-0.585"
   id="39169"
   inkscape:label="Wayne, OH"
   inkscape:connector-curvature="0" />
  <path
   style="fill:#72b3dc;stroke:#c2dffb;stroke-width:1"
   d="m 26.717,14.661 0.536,0.856 0.646,4.16 -0.717,1.42 -1.099,0.334 -0.343,-2.209 -0.627,-0.977 -0.392,-0.88 -0.229,-1.455 -0.144,0.017 0.788,-1.068 1.581,-0.198"
   id="39005"
   inkscape:label="Ashland, OH"
   inkscape:connector-curvature="0" />
  <path
   style="fill:#72b3dc;stroke:#c2dffb;stroke-width:1"
   d="m 21.545,16.293 2.803,-0.366 0.144,-0.017 0.229,1.455 0.392,0.88 0.627,0.977 0.343,2.209 -2.754,0.459 -1.294,-1.933 -0.49,-3.664"
   id="39139"
   inkscape:label="Richland, OH"
   inkscape:connector-curvature="0" />
  <path
   style="fill:#72b3dc;stroke:#c2dffb;stroke-width:1"
   d="m 21.545,16.293 0.49,3.664 -1.249,0.257 -2.434,0.361 -0.521,-3.737 2.708,-0.419 1.006,-0.126"
   id="39033"
   inkscape:label="Crawford, OH"
   inkscape:connector-curvature="0" />
  <path
   style="fill:#72b3dc;stroke:#c2dffb;stroke-width:1"
   d="m 14.883,17.253 2.948,-0.415 0.521,3.737 -2.941,0.608 -0.2,0.018 -0.558,-0.108 -0.203,-1.502 -0.191,0.024 0.624,-2.362"
   id="39175"
   inkscape:label="Wyandot, OH"
   inkscape:connector-curvature="0" />
  <path
   style="fill:#72b3dc;stroke:#c2dffb;stroke-width:1"
   d="m 10.753,20.048 3.506,-0.433 0.191,-0.024 0.203,1.502 0.558,0.108 0.2,-0.018 0.323,2.334 -0.978,0.149 -0.022,-0.068 -3.108,0.14 -0.409,-0.066 -0.464,-3.624"
   id="39065"
   inkscape:label="Hardin, OH"
   inkscape:connector-curvature="0" />
  <path
   style="fill:#72b3dc;stroke:#c2dffb;stroke-width:1"
   d="m 10.583,18.754 0.17,1.294 0.29,2.257 -1.465,0.194 -1.863,0.068 -0.048,-0.375 -1.676,0.222 0.265,-2.313 1.118,-0.153 1.077,-0.333 -0.05,-0.379 1.083,-0.333 1.099,-0.149"
   id="39003"
   inkscape:label="Allen, OH"
   inkscape:connector-curvature="0" />
  <path
   style="fill:#72b3dc;stroke:#c2dffb;stroke-width:1"
   d="m 10.169,15.567 4.407,-0.559 0.307,2.245 -0.624,2.362 -3.506,0.433 -0.17,-1.294 -0.414,-3.187"
   id="39063"
   inkscape:label="Hancock, OH"
   inkscape:connector-curvature="0" />
  <path
   style="fill:#72b3dc;stroke:#c2dffb;stroke-width:1"
   d="m 10.169,15.567 0.414,3.187 -1.099,0.149 -1.083,0.333 0.05,0.379 -1.077,0.333 -1.118,0.153 -0.771,-1.623 0.281,-2.325 1.081,-0.141 3.322,-0.445"
   id="39137"
   inkscape:label="Putnam, OH"
   inkscape:connector-curvature="0" />
  <path
   style="fill:#72b3dc;stroke:#c2dffb;stroke-width:1"
   d="m 1.605,18.961 3.88,-0.483 0.771,1.623 -0.265,2.313 -0.57,0.071 L 2.014,22.328 1.71,19.822 1.605,18.961"
   id="39161"
   inkscape:label="Van Wert, OH"
   inkscape:connector-curvature="0" />
  <path
   style="fill:#72b3dc;stroke:#c2dffb;stroke-width:1"
   d="m 42.379,11.416 0.465,2.889 -5.43,0.833 -0.171,-1.089 0.531,-2.001 4.588,-0.736 0.017,0.104"
   id="39099"
   inkscape:label="Mahoning, OH"
   inkscape:connector-curvature="0" />
  <path
   style="fill:#72b3dc;stroke:#c2dffb;stroke-width:1"
   d="m 33.614,9.879 3.71,-0.573 0.45,2.742 -0.531,2.001 -2.937,0.455 -0.696,-4.625 0.004,0"
   id="39133"
   inkscape:label="Portage, OH"
   inkscape:connector-curvature="0" />
  <path
   style="fill:#72b3dc;stroke:#c2dffb;stroke-width:1"
   d="m 33.61,9.879 0.696,4.625 -2.287,1.324 -0.533,-0.896 -0.531,-3.71 1.14,-0.18 -0.293,-0.528 -0.163,-0.364 1.971,-0.271"
   id="39153"
   inkscape:label="Summit, OH"
   inkscape:connector-curvature="0" />
  <path
   style="fill:#72b3dc;stroke:#c2dffb;stroke-width:1"
   d="m 30.955,11.222 0.531,3.71 -4.233,0.585 -0.536,-0.856 -0.121,-0.946 1.646,-1.862 0.878,-0.324 1.835,-0.307"
   id="39103"
   inkscape:label="Medina, OH"
   inkscape:connector-curvature="0" />
  <path
   style="fill:#72b3dc;stroke:#c2dffb;stroke-width:1"
   d="m 19.899,12.664 4.772,-0.595 0.465,2.79 -0.788,1.068 -2.803,0.366 -1.006,0.126 -0.64,-3.755"
   id="39077"
   inkscape:label="Huron, OH"
   inkscape:connector-curvature="0" />
  <path
   style="fill:#72b3dc;stroke:#c2dffb;stroke-width:1"
   d="m 19.975,13.111 0.564,3.308 -2.708,0.419 -2.948,0.415 -0.307,-2.245 -0.14,-1.126 5.539,-0.771"
   id="39147"
   inkscape:label="Seneca, OH"
   inkscape:connector-curvature="0" />
  <path
   style="fill:#72b3dc;stroke:#c2dffb;stroke-width:1"
   d="m 14.067,10.704 0.717,-0.109 0.085,0.564 2.579,-0.347 1.085,-0.162 0.054,0.365 1.004,-0.146 0.384,2.242 -5.539,0.771 -0.369,-3.178"
   id="39143"
   inkscape:label="Sandusky, OH"
   inkscape:connector-curvature="0" />
  <path
   style="fill:#72b3dc;stroke:#c2dffb;stroke-width:1"
   d="m 13.855,9.179 0.212,1.525 0.369,3.178 0.14,1.126 -4.407,0.559 -0.429,-3.173 0.279,-0.036 0.934,-0.798 0.261,-0.486 1.171,-1.678 1.47,-0.217"
   id="39173"
   inkscape:label="Wood, OH"
   inkscape:connector-curvature="0" />
  <path
   style="fill:#72b3dc;stroke:#c2dffb;stroke-width:1"
   d="M 9.623,11.452 9.74,12.394 10.169,15.567 6.847,16.012 6.422,12.637 5.34,12.772 5.246,12.03 9.623,11.452"
   id="39069"
   inkscape:label="Henry, OH"
   inkscape:connector-curvature="0" />
  <path
   style="fill:#72b3dc;stroke:#c2dffb;stroke-width:1"
   d="m 5.766,16.153 -0.281,2.325 -3.88,0.483 -0.406,-3.399 3.312,-0.41 1.182,0.438 0.073,0.563"
   id="39125"
   inkscape:label="Paulding, OH"
   inkscape:connector-curvature="0" />
  <path
   style="fill:#72b3dc;stroke:#c2dffb;stroke-width:1"
   d="M 5.34,12.772 6.422,12.637 6.847,16.012 5.766,16.153 5.693,15.59 4.511,15.152 1.199,15.562 1.171,15.324 0.928,13.327 5.34,12.772"
   id="39039"
   inkscape:label="Defiance, OH"
   inkscape:connector-curvature="0" />
  <path
   style="fill:#72b3dc;stroke:#c2dffb;stroke-width:1"
   d="M 33.176,7.039 34.078,6.896 33.943,5.984 35.584,5.728 35.633,4.84 36.552,4.601 36.99,7.337 37.324,9.306 33.614,9.879 33.176,7.039"
   id="39055"
   inkscape:label="Geauga, OH"
   inkscape:connector-curvature="0" />
  <path
   style="fill:#72b3dc;stroke:#c2dffb;stroke-width:1"
   d="M 36.273,2.808 36.552,4.601 35.633,4.84 35.584,5.728 33.943,5.984 34.078,6.896 33.176,7.039 32.127,6.396 32.483,5.787 32.924,5.273 33.217,4.957 33.78,4.443 35.844,3.078 36.273,2.808"
   id="39085"
   inkscape:label="Lake, OH"
   inkscape:connector-curvature="0" />
  <path
   style="fill:#72b3dc;stroke:#c2dffb;stroke-width:1"
   d="m 32.127,6.396 1.049,0.643 0.438,2.84 -0.004,0 -1.971,0.271 0.163,0.364 0.293,0.528 -1.14,0.18 -1.835,0.307 -0.135,-0.975 -0.901,0.127 -0.27,-1.996 0.066,0.059 0.046,0.027 0.207,0.063 0.591,0.017 1.252,-0.239 0.055,-0.026 0.239,-0.207 0.662,-0.61 0.279,-0.305 0.821,-0.953 0.095,-0.115"
   id="39035"
   inkscape:label="Cuyahoga, OH"
   inkscape:connector-curvature="0" />
  <path
   style="fill:#72b3dc;stroke:#c2dffb;stroke-width:1"
   d="m 27.814,8.685 0.27,1.996 0.901,-0.127 0.135,0.975 -0.878,0.324 -1.646,1.862 0.121,0.946 -1.581,0.198 -0.465,-2.79 -0.32,-1.853 3.463,-1.531"
   id="39093"
   inkscape:label="Lorain, OH"
   inkscape:connector-curvature="0" />
  <path
   style="fill:#72b3dc;stroke:#c2dffb;stroke-width:1"
   d="m 20.935,9.847 0.857,0.735 0.613,0.287 0.451,0.141 0.144,0.018 0.171,-0.022 0.185,-0.094 0.262,-0.176 0.733,-0.52 0.32,1.853 -4.772,0.595 -0.308,-1.795 -1.004,0.146 -0.054,-0.365 2.402,-0.803"
   id="39043"
   inkscape:label="Erie, OH"
   inkscape:connector-curvature="0" />
  <path
   style="fill:#72b3dc;stroke:#c2dffb;stroke-width:1"
   d="m 16.18,8.793 1.033,0.244 2.065,0.121 0.319,-0.131 1.064,0.645 0.274,0.175 -2.402,0.803 -1.085,0.162 -2.579,0.347 -0.085,-0.564 -0.717,0.109 -0.212,-1.525 2.325,-0.386"
   id="39123"
   inkscape:label="Ottawa, OH"
   inkscape:connector-curvature="0" />
  <path
   style="fill:#72b3dc;stroke:#c2dffb;stroke-width:1"
   d="m 10.371,8.261 2.924,-0.496 2.885,1.028 -2.325,0.386 -1.47,0.217 -1.171,1.678 -0.261,0.486 -0.934,0.798 L 9.74,12.394 9.623,11.452 9.262,8.455 10.371,8.261"
   id="39095"
   inkscape:label="Lucas, OH"
   inkscape:connector-curvature="0" />
  <path
   style="fill:#72b3dc;stroke:#c2dffb;stroke-width:1"
   d="M 4.718,9.199 9.262,8.455 9.623,11.452 5.246,12.03 4.354,9.257 4.718,9.199"
   id="39051"
   inkscape:label="Fulton, OH"
   inkscape:connector-curvature="0" />
  <path
   style="fill:#72b3dc;stroke:#c2dffb;stroke-width:1"
   d="M 0.5,9.847 4.354,9.257 5.246,12.03 5.34,12.772 0.928,13.327 0.766,11.984 0.5,9.847"
   id="39171"
   inkscape:label="Williams, OH"
   inkscape:connector-curvature="0" />
  
  
  
  
  
  
  
  
  
  
  
  
  
  
  
  
  
  
  
  
  
  
  
  
  
  
  
  
  
  
  
  
  
  
  
  
  
  
  
  
  
  
  
  
  
  
  
  
  
  
  
  
  
  
  
  
  
  
  
  
  
  
  
  
  
  
  
  
  
  
  
  
  
  
  
  
  
  
  
  
  
  
  
  
  
  
  
  
  
  
  
  
  
  
  
  
  
  
  
  
  
  
  
  
  
  
  
  
  
  
  
  
  
  
  
  
  
  
  
  
  
  
  
  
  
  
  
  
  
  
  
  
  
  
  
  
  
  
  
  
  
  
  
  
  
  
  
  
  
  
  
  
  
  
  
  
  
  
  
  
  
  
  
  
  
  
  
  
  
  
  
  
  
  
  
  
  
  
  
  
  
  
  
  
  
  
  
  
  
  
  
  
  
  
  
  
  
  
  
  
  
  
  
  
  
  
  
  
  
  
  
  
  
  
  
  
  
  
  
  
  
  
  
  
  
  
  
  
  
  
  
  
  
  
  
  
  
  
  
  
  
  
  
  
  
  
  
  
  
  
  
  
  
  
  
  
  
  
  
  
  
  
  
  
  
  
  
  
  
  
  
  
  
  
  
  
  
  
  
  
  
  
  
  
  
  
  
  
  
  
  
  
  
  
  
  
  
  
  
  
  
  
  
  
  
  
  
  
  
  
  
  
  
  
  
  
  
  
  
  
  
  
  
  
  
  
  
  
  
  
  
  
  
  
  
  
  
  
  
  
  
  
  
  
  
  
  
  
  
  
  
  
  
  
  
  
  
  
  
  
  
  
  
  
  
  
  
  
  
  
  
  
  
  
  
  
  
  
  
  
  
  
  
  
  
  
  
  
  
  
  
  
  
  
  
  
  
  
  
  
  
  
  
  
  
  
  
  
  
  
  
  
  
  
  
  
  
  
  
  
  
  
  
  
  
  
  
  
  
  
  
  
  
  
  
  
  
  
  
  
  
  
  
  
  
  
  
  
  
  
  
  
  
  
  
  
  
  
  
  
  
  
  
  
  
  
  
  
  
  
  
  
  
  
  
  
  
  
  
  
  
  
  
  
  
  
  
  
  
  
  
  
  
  
  
  
  
  
  
  
  
  
  
  
  
  
  
  
  
  
  
  
  
  
  
  
  
  
  
  
  
  
  
  
  
  
  
  
  
  
  
  
  
  
  
  
  
  
  
  
  
  
  
  
  
  
  
  
  
  
  
  
  
  
  
  
  
  
  
  
  
  
  
  
  
  
  
  
  
  
  
  
  
  
  
  
  
  
  
  
  
  
  
  
  
  
  
  
  
  
  
  
  
  
  
  
  
  
  
  
  
  
  
  
  
  
  
  
  
  
  
  
  
  
  
  
  
  
  
  
  
  
  
  
  
  
  
  
  
  
  
  
  
  
  
  
  
  
  
  
  
  
  
  
  
  
  
  
  
  
  
  
  
  
  
  
  
  
  
  
  
  
  
  
  
  
  
  
  
  
  
  
  
  
  
  
  
  
  
  
  
  
  
  
  
  
  
  
  
  
  
  
  
  
  
  
  
  
  
  
  
  
  
  
  
  
  
  
  
  
  
  
  
  
  
  
  
  
  
  
  
  
  
  
  
  
  
  
  
  
  
  
  
  
  
  
  
  
  
  
  
  
  
  
  
  
  
  
  
  
  
  
  
  
  
  
  
  
  
  
  
  
  
  
  
  
  
  
  
  
  
  
  
  
  
  
  
  
  
  
  
  
  
  
  
  
  
  
  
  
  
  
  
  
  
  
  
  
  
  
  
  
  
  
  
  
  
  
  
  
  
  
  
  
  
  
  
  
  
  
  
  
  
  
  
  
  
  
  
  
  
  
  
  
  
  
  
  
  
  
  
  
  
  
  
  
  
  
  
  
  
  
  
  
  
  
  
  
  
  
  
  
  
  
  
  
  
  
  
  
  
  
  
  
  
  
  
  
  
  
  
  
  
  
  
  
  
  
  
  
  
  
  
  
  
  
  
  
  
  
  
  
  
  
  
  
  
  
  
  
  
  
  
  
  
  
  
  
  
  
  
  
  
  
  
  
  
  
  
  
  
  
  
  
  
  
  
  
  
  
  
  
  
  
  
  
  
  
  
  
  
  
  
  
  
  
  
  
  
  
  
  
  
  
  
  
  
  
  
  
  
  
  
  
  
  
  
  
  
  
  
  
  
  
  
  
  
  
  
  
  
  
  
  
  
  
  
  
  
  
  
  
  
  
  
  
  
  
  
  
  
  
  
  
  
</svg>