<?xml version="1.0" encoding="UTF-8" standalone="no"?>
<!--?xml version="1.0" encoding="UTF-8" standalone="no"?-->

<svg
   xmlns:dc="http://purl.org/dc/elements/1.1/"
   xmlns:cc="http://creativecommons.org/ns#"
   xmlns:rdf="http://www.w3.org/1999/02/22-rdf-syntax-ns#"
   xmlns:svg="http://www.w3.org/2000/svg"
   xmlns="http://www.w3.org/2000/svg"
   xmlns:sodipodi="http://sodipodi.sourceforge.net/DTD/sodipodi-0.dtd"
   xmlns:inkscape="http://www.inkscape.org/namespaces/inkscape"
   width="96.705894"
   height="51.006645"
   viewBox="0 0 89.392003 46.592609"
   preserveAspectRatio="xMinYMin meet"
   xml:space="preserve"
   id="svg2419"
   version="1.1"
   inkscape:version="0.48.2 r9819"
   sodipodi:docname="OK.svg"><metadata
   id="metadata2502"><rdf:RDF><cc:Work
       rdf:about=""><dc:format>image/svg+xml</dc:format><dc:type
         rdf:resource="http://purl.org/dc/dcmitype/StillImage" /></cc:Work></rdf:RDF></metadata><defs
   id="defs2500" /><sodipodi:namedview
   pagecolor="#ffffff"
   bordercolor="#666666"
   borderopacity="1"
   objecttolerance="10"
   gridtolerance="10"
   guidetolerance="10"
   inkscape:pageopacity="0"
   inkscape:pageshadow="2"
   inkscape:window-width="640"
   inkscape:window-height="480"
   id="namedview2498"
   showgrid="false"
   inkscape:zoom="0.56730769"
   inkscape:cx="58.443085"
   inkscape:cy="43.117045"
   inkscape:window-x="0"
   inkscape:window-y="0"
   inkscape:window-maximized="0"
   inkscape:current-layer="svg2419" />
  
  
  
  
  
  
  
  
  
  
  
  
  
  
  
  
  
  
  
  
  
  
  
  
  
  
  
  
  
  
  
  
  
  
  
  
  
  
  
  
  
  
  
  
  
  
  
  
  
  
  
  
  
  
  
  
  
  
  
  
  
  
  
  
  
  
  
  
  
  
  
  
  
  
  
  
  
  
  
  
  
  
  
  
  
  
  
  
  
  
  
  
  
  
  
  
  
  
  
  
  
  
  
  
  
  
  
  
  
  
  
  
  
  
  
  
  
  
  
  
  
  
  
  
  
  
  
  
  
  
  
  
  
  
  
  
  
  
  
  
  
  
  
  
  
  
  
  
  
  
  
  
  
  
  
  
  
  
  
  
  
  
  
  
  
  
  
  
  
  
  
  
  
  
  
  
  
  
  
  
  
  
  
  
  
  
  
  
  
  
  
  
  
  
  
  
  
  
  
  
  
  
  
  
  
  
  
  
  
  
  
  
  
  
  
  
  
  
  
  
  
  
  
  
  
  
  
  
  
  
  
  
  
  
  
  
  
  
  
  
  
  
  
  
  
  
  
  
  
  
  
  
  
  
  
  
  
  
  
  
  
  
  
  
  
  
  
  
  
  
  
  
  
  
  
  
  
  
  
  
  
  
  
  
  
  
  
  
  
  
  
  
  
  
  
  
  
  
  
  
  
  
  
  
  
  
  
  
  
  
  
  
  
  
  
  
  
  
  
  
  
  
  
  
  
  
  
  
  
  
  
  
  
  
  
  
  
  
  
  
  
  
  
  
  
  
  
  
  
  
  
  
  
  
  
  
  
  
  
  
  
  
  
  
  
  
  
  
  
  
  
  
  
  
  
  
  
  
  
  
  
  
  
  
  
  
  
  
  
  
  
  
  
  
  
  
  
  
  
  
  
  
  
  
  
  
  
  
  
  
  
  
  
  
  
  
  
  
  
  
  
  
  
  
  
  
  
  
  
  
  
  
  
  
  
  
  
  
  
  
  
  
  
  
  
  
  
  
  
  
  
  
  
  
  
  
  
  
  
  
  
  
  
  
  
  
  
  
  
  
  
  
  
  
  
  
  
  
  
  
  
  
  
  
  
  
  
  
  
  
  
  
  
  
  
  
  
  
  
  
  
  
  
  
  
  
  
  
  
  
  
  
  
  
  
  
  
  
  
  
  
  
  
  
  
  
  
  
  
  
  
  
  
  
  
  
  
  
  
  
  
  
  
  
  
  
  
  
  
  
  
  
  
  
  
  
  
  
  
  
  
  
  
  
  
  
  
  
  
  
  
  
  
  
  
  
  
  
  
  
  
  
  
  
  
  
  
  
  
  
  
  
  
  
  
  
  
  
  
  
  
  
  
  
  
  
  
  
  
  
  
  
  
  
  
  
  
  
  
  
  
  
  
  
  
  
  
  
  
  
  
  
  
  
  
  
  
  
  
  
  
  
  
  
  
  
  
  
  
  
  
  
  
  
  
  
  
  
  
  
  
  
  
  
  
  
  
  
  
  
  
  
  
  
  
  
  
  
  
  
  
  
  
  
  
  
  
  
  
  
  
  
  
  
  
  
  
  
  
  
  
  
  
  
  
  
  
  
  
  
  
  
  
  
  
  
  
  
  
  
  
  
  
  
  
  
  
  
  
  
  
  
  
  
  
  
  
  
  
  
  
  
  
  
  
  
  
  
  
  
  
  
  
  
  
  
  
  
  
  
  
  
  
  
  
  
  
  
  
  
  
  
  
  
  
  
  
  
  
  
  
  
  
  
  
  
  
  
  
  
  
  
  
  
  
  
  
  
  
  
  
  
  
  
  
  
  
  
  
  
  
  
  
  
  
  
  
  
  
  
  
  
  
  
  
  
  
  
  
  
  
  
  
  
  
  
  
  
  
  
  
  
  
  
  
  
  
  
  
  
  
  
  
  
  
  
  
  
  
  
  
  
  
  
  
  
  
  
  
  
  
  
  
  
  
  
  
  
  
  
  
  
  
  
  
  
  
  
  
  
  
  
  
  
  
  
  
  
  
  
  
  
  
  
  
  
  
  
  
  
  
  
  
  
  
  
  
  
  
  
  
  
  
  
  
  
  
  
  
  
  
  
  
  
  
  
  
  
  
  
  
  
  
  
  
  
  
  
  
  
  
  
  
  
  
  
  
  
  
  
  
  
  
  
  
  
  
  
  
  
  
  
  
  
  
  
  
  
  
  
  
  
  
  
  
  
  
  
  
  
  
  
  
  
  
  
  
  
  
  
  
  
  
  
  
  
  
  
  
  
  
  
  
  
  
  
  
  
  
  
  
  
  
  
  
  
  
  
  
  
  
  
  
  
  
  
  
  
  
  
  
  
  
  
  
  
  
  
  
  
  
  
  
  
  
  
  
  
  
  
  
  
  
  
  
  
  
  
  
  
  
  
  
  
  
  
  
  
  
  
  
  
  
  
  
  
  
  
  
  
  
  
  
  
  
  
  
  
  
  
  
  
  
  
  
  
  
  
  
  
  
  
  
  
  
  
  
  
  
  
  
  
  
  
  
  
  
  
  
  
  
  
  
  
  
  
  
  
  
  
  
  
  
  
  
  
  
  
  
  
  
  
  
  
  
  
  
  
  
  
  
  
  
  
  
  
  
  
  
  
  
  
  
  
  
  
  
  
  
  
  
  
  
  
  
  
  
  
  
  
  
  
  
  
  
  
  
  
  
  
  
  
  
  
  
  
  
  
  
  
  
  
  
  
  
  
  
  
  
  
  
  
  
  
  
  
  
  
  
  
  
  
  
  
  
  
  
  
  
  
  
  
  
  
  
  
  
  
  
  
  
  
  
  
  
  
  
  
  
  
  
  
  
  
  
  
  
  
  
  
  
  
  
  
  
  
  
  
  
  
  
  
  
  
  
  
  
  
  
  
  
  
  
  
  
  
  
  
  
  
  
  
  
  
  
  
  
  
  
  
  
  
  
  
  
  
  
  
  
  
  
  
  
  
  
  
  
  
  
  
  
  
  
  
  
  
  
  
  
  
  
  
  
  
  
  
  
  
  
  
  
  
  
  
  
  
  
  
  
  
  
  
  
  
  
  
  
  
  
  
  
  
  
  
  
  
  
  
  
  
  
  
  
  
  
  
  
  
  
  
  
  
  
  
  
  
  
  
  
  
  
  
  
  
  
  
  
  
  
  
  
  
  
  
  
  
  
  
  
  
  
  
  
  
  
  
  
  
  
  
  
  
  
  
  
  
  
  
  
  
  
  
  
  
  
  
  
  
  
  
  
  
  
  
  
  
  
  
  
  
  
  
  
  
  
  
  
  
  
  
  
  
  
  
  
  
  
  
  
  
  
  
  
  
  
  
  
  
  
  
  
  
  
  
  
  
  
  
  
  
  
  
  
  
  
  
  
  
  
  
  
  
  
  
  
  
  
  
  
  
  
  
  
  
  
  
  
  
  
  
  
  
  
  
  
  
  
  
  
  
  
  
  
  
  
  
  
  
  
  
  
  
  
  
  
  
  
  
  
  
  
  
  
  
  
  
  
  
  
  
  
  
  
  
  
  
  
  
  
  
  
  
  
  
  
  
  
  
  
  
  
  
  
  
  
  
  
  
  
  
  
  
  
  
  
  
  
  
  
  
  
  
  
  
  
  
  
  
  
  
  
  
  
  
  
  
  
  
  
  
  
  
  
  
  
  
  
  
  
  
  
  
  
  
  
  
  
  
  
  
  
  
  
  
  
  
  
  
  
  
  
  
  
  
  
  
  
  
  
  
  
  
  
  
  
  
  
  
  
  
  
  
  
  
  
  
  
  
  
  
  
  
  
  
  
  
  
  
  
  
  
  
  
  
  
  
  
  
  
  
  
  
  
  
  
  
  
  
  
  
  
  
  
  
  
  
  
  
  
  
  
  
  
  
  
  
  
  
  
  
  
  
  
  
  
  
  
  
  
  
  
  
  
  
  
  
  
  
  
  
  
  
  
  
  
  
  
  
  
  
  
  
  
  
  
  
  
  
  
  
  
  
  
  
  
  
  
  
  
  
  
  
  
  
  
  
  
  
  
  
  
  
  
  
  
  
  
  
  
  
  
  
  
  
  
  
  
  
  
  
  
  
  
  
  
  
  
  
  
  
  
  
  
  
  
  
  
  
  
  
  
  
  
  
  
  
  
  
  
  
  
  
  
  
  
  
  
  
  
  
  
  
  
  
  
  
  
  
  
  
  
  
  
  
  
  
  
  
  
  
  
  
  
  
  
  
  
  
  
  
  
  
  
  
  
  
  
  
  
  
  
  
  
  
  
  
  
  
  
  
  
  
  
  
  
  
  
  
  
  
  
  
  
  
  
  
  
  
  
  
  
  
  
  
  
  
  
  
  
  
  
  
  
  
  
  
  
  
  
  
  
  
  
  
  
  
  
  
  
  
  
  
  
  
  
  
  
  
  
  
  
  
  
  
  
  
  
  
  
  
  
  
  
  
  
  
  
  
  
  
  
  
  
  
  
  
  
  
  
  
  
  
  
  
  
  
  
  
  
  
  
  
  
  
  
  
  
  
  
  
  
  
  
  
  
  
  
  
  
  
  
  
  
  
  
  
  
  
  
  
  
  
  
  
  
  
  
  
  
  
  
  
  
  
  
  
  
  
  
  
  
  
  
  
  
  
  
  
  
  
  
  
  
  
  
  
  
  
  
  
  
  
  
  
  
  
  
  
  
  
  
  
  
  
  
  
  
  
  
  
  
  
  
  
  
  
  
  
  
  
  
  
  
  
  
  
  
  
  
  
  
  
  
  
  
  
  
  
  <path
   style="fill:#72b3dc;stroke:#c2dffb;stroke-width:1"
   d="m 15.738,1.537 4.99,0.248 1.239,0.063 -0.104,1.938 -0.085,0.003 -0.239,4.522 -1.348,-0.067 -5.535,-0.316 -4.195,-0.265 0.45,-6.392 4.827,0.266"
   id="40139"
   inkscape:label="Texas, OK"
   inkscape:connector-curvature="0" />
  <path
   style="fill:#72b3dc;stroke:#c2dffb;stroke-width:1"
   d="m 0.977,0.5 1.294,0.1 5.301,0.437 3.195,0.225 0.144,0.009 -0.45,6.392 L 9.122,7.576 0.5,6.977 0.977,0.5"
   id="40025"
   inkscape:label="Cimarron, OK"
   inkscape:connector-curvature="0" />
  <path
   style="fill:#72b3dc;stroke:#c2dffb;stroke-width:1"
   d="M 86.648,3.06 86.689,6.066 86.711,7.351 82.79,7.365 82.664,3.092 86.648,3.06"
   id="40115"
   inkscape:label="Ottawa, OK"
   inkscape:connector-curvature="0" />
  <path
   style="fill:#72b3dc;stroke:#c2dffb;stroke-width:1"
   d="M 81.992,3.096 82.664,3.092 82.79,7.365 82.75,9.456 79.432,9.478 78.36,8.352 78.572,3.128 81.992,3.096"
   id="40035"
   inkscape:label="Craig, OK"
   inkscape:connector-curvature="0" />
  <path
   style="fill:#72b3dc;stroke:#c2dffb;stroke-width:1"
   d="m 82.75,9.456 -0.01,4.521 -1.108,0.013 0.014,1.131 -0.929,0.004 -2.407,0.01 -0.009,-2.26 0.028,-3.388 1.103,-0.009 3.318,-0.022"
   id="40097"
   inkscape:label="Mayes, OK"
   inkscape:connector-curvature="0" />
  <path
   style="fill:#72b3dc;stroke:#c2dffb;stroke-width:1"
   d="m 86.711,7.351 0.031,2.189 0.636,4.377 -2.424,0.037 -2.214,0.023 0.01,-4.521 0.04,-2.091 3.921,-0.014"
   id="40041"
   inkscape:label="Delaware, OK"
   inkscape:connector-curvature="0" />
  <path
   style="fill:#72b3dc;stroke:#c2dffb;stroke-width:1"
   d="m 84.954,13.954 2.424,-0.037 0.122,0.772 0.92,6.007 -3.484,0.051 -0.046,-3.409 0.087,-1.392 -0.023,-1.992"
   id="40001"
   inkscape:label="Adair, OK"
   inkscape:connector-curvature="0" />
  <path
   style="fill:#72b3dc;stroke:#c2dffb;stroke-width:1"
   d="m 82.74,13.977 2.214,-0.023 0.023,1.992 -0.087,1.392 0.046,3.409 -3.336,0.031 -1.455,-2.249 -0.023,-0.036 -0.167,-1.19 0.041,-0.735 0.063,-0.121 0.207,-0.185 0.144,-0.007 0.041,-0.044 0.27,-0.634 -0.004,-0.452 0.929,-0.004 -0.014,-1.131 1.108,-0.013"
   id="40021"
   inkscape:label="Cherokee, OK"
   inkscape:connector-curvature="0" />
  <path
   style="fill:#72b3dc;stroke:#c2dffb;stroke-width:1"
   d="m 88.42,20.696 0.472,3.115 -0.004,0.226 -0.644,0.662 -1.979,0.072 -0.478,-0.315 -0.212,-0.059 -0.202,0.022 -0.058,0.028 -0.397,0.391 -0.996,-0.96 -0.343,0.005 -0.514,-0.135 -0.154,-0.055 -0.161,-0.148 -0.321,-0.437 -0.829,-2.33 3.336,-0.031 3.484,-0.051"
   id="40135"
   inkscape:label="Sequoyah, OK"
   inkscape:connector-curvature="0" />
  <path
   style="fill:#72b3dc;stroke:#c2dffb;stroke-width:1"
   d="m 82.429,23.108 0.321,0.437 0.161,0.148 0.154,0.055 0.514,0.135 0.343,-0.005 0.996,0.96 0.008,1.293 -0.784,0.285 -0.402,0.004 0.023,1.875 -4.42,0.041 -0.01,-1.325 -1.104,0.004 -0.01,-0.55 0.038,-1.208 1.112,0.028 0.753,0.134 1.001,-0.593 0.332,-0.66 0.804,-0.946 0.17,-0.112"
   id="40061"
   inkscape:label="Haskell, OK"
   inkscape:connector-curvature="0" />
  <path
   style="fill:#72b3dc;stroke:#c2dffb;stroke-width:1"
   d="m 88.888,24.037 -0.063,5.8 -0.027,2.663 -0.022,2.872 -5.036,0.076 -1.311,-2.24 -0.022,-2.263 0.64,-0.942 0.734,-0.202 -0.041,-3.381 0.402,-0.004 0.784,-0.285 -0.008,-1.293 0.397,-0.391 0.058,-0.028 0.202,-0.022 0.212,0.059 0.478,0.315 1.979,-0.072 0.644,-0.662"
   id="40079"
   inkscape:label="Le Flore, OK"
   inkscape:connector-curvature="0" />
  <path
   style="fill:#72b3dc;stroke:#c2dffb;stroke-width:1"
   d="m 83.763,28.295 0.018,1.506 -0.734,0.202 -0.64,0.942 0.022,2.263 -4.795,0.032 0,-1.168 0.049,-3.349 1.389,-0.013 0.271,-0.374 4.42,-0.041"
   id="40077"
   inkscape:label="Latimer, OK"
   inkscape:connector-curvature="0" />
  <path
   style="fill:#72b3dc;stroke:#c2dffb;stroke-width:1"
   d="m 78.257,25.257 -0.038,1.208 0.01,0.55 1.104,-0.004 0.01,1.325 -0.271,0.374 -1.389,0.013 -0.049,3.349 0,1.168 -1.654,1.14 -2.222,0.009 0,-1.132 -2.213,0 0,-1.126 0.041,-3.665 0.292,-0.541 0.509,-0.694 0.091,-0.054 0.207,-0.031 0.379,0.018 2.078,-0.437 0.388,-0.177 2.027,-1.126 0.7,-0.167"
   id="40121"
   inkscape:label="Pittsburg, OK"
   inkscape:connector-curvature="0" />
  <path
   style="fill:#72b3dc;stroke:#c2dffb;stroke-width:1"
   d="m 71.545,32.131 0,3.389 -0.563,1.137 -2.777,-0.01 -1.118,-1.131 0.032,-2.263 1.113,0 0.005,-1.13 3.308,0.008"
   id="40029"
   inkscape:label="Coal, OK"
   inkscape:connector-curvature="0" />
  <path
   style="fill:#72b3dc;stroke:#c2dffb;stroke-width:1"
   d="m 71.545,33.257 2.213,0 0,1.132 2.222,-0.009 0.005,1.127 -1.132,0.089 0.005,4.454 -2.254,0 -4.412,-0.013 0.013,-3.39 2.777,0.01 0.563,-1.137 0,-2.263"
   id="40005"
   inkscape:label="Atoka, OK"
   inkscape:connector-curvature="0" />
  <path
   style="fill:#72b3dc;stroke:#c2dffb;stroke-width:1"
   d="m 77.634,33.24 4.795,-0.032 1.311,2.24 -1.152,0.008 0.036,3.417 -0.659,0.005 -0.451,0.244 -0.045,0.887 -6.611,0.041 -0.005,-4.454 1.132,-0.089 -0.005,-1.127 1.654,-1.14"
   id="40127"
   inkscape:label="Pushmataha, OK"
   inkscape:connector-curvature="0" />
  <path
   style="fill:#72b3dc;stroke:#c2dffb;stroke-width:1"
   d="m 83.74,35.448 5.036,-0.076 -0.032,4.119 -0.049,7.158 -2.79,-0.803 -1.325,-0.541 -1.83,-1.465 -1.249,-1.068 -0.032,-2.763 0.045,-0.887 0.451,-0.244 0.659,-0.005 -0.036,-3.417 1.152,-0.008"
   id="40089"
   inkscape:label="McCurtain, OK"
   inkscape:connector-curvature="0" />
  <path
   style="fill:#72b3dc;stroke:#c2dffb;stroke-width:1"
   d="m 81.469,40.009 0.032,2.763 -0.676,-0.226 -0.076,-0.003 -0.036,0.018 -0.009,0.004 -0.006,0 -0.229,0.347 -0.005,0.018 0,0.023 -0.004,0.013 0.004,0.009 0.041,0.086 0,0.019 0.018,0.112 -0.018,0.13 -0.058,0.131 -0.06,0.058 -0.284,0.185 -0.084,0.009 -0.158,0.018 -0.311,0.041 -0.005,0 -0.722,0.036 -0.4,-0.032 -1.055,-0.14 -0.04,-0.036 -0.042,-0.072 0,-0.009 -0.003,-0.066 0.032,-0.091 0.003,-0.086 -0.113,-0.288 -0.081,-0.032 -0.346,-0.018 -0.78,0.405 -0.893,0.465 -0.004,0.004 -0.888,-0.09 -0.829,-0.653 -0.185,-0.234 -0.023,-0.073 -0.004,-2.298 -0.568,-0.406 2.254,0 6.611,-0.041"
   id="40023"
   inkscape:label="Choctaw, OK"
   inkscape:connector-curvature="0" />
  <path
   style="fill:#72b3dc;stroke:#c2dffb;stroke-width:1"
   d="m 72.604,40.05 0.568,0.406 0.004,2.298 0.023,0.073 0.185,0.234 0.829,0.653 0.888,0.09 -0.915,0.343 -0.518,-0.095 -0.617,-0.122 -0.145,0.015 -0.23,0.017 -1.199,0.1 -0.541,0.125 -0.09,0.316 -0.067,0.311 -0.005,0.032 -0.009,0.036 -0.031,0.099 -0.027,0.086 -0.005,0.009 -0.013,0.017 -0.1,0.104 -0.013,0.016 -0.194,0.083 -0.221,0.059 -1.591,0.393 -0.103,-0.141 -0.464,-0.631 0,-0.004 -0.14,-0.045 -0.126,-0.014 -0.546,0.104 -0.014,0 -0.099,-0.068 -1.095,-0.735 -0.009,-0.031 -0.009,-0.062 -0.009,-0.159 0.036,-0.207 0.307,-3.174 1.893,-0.544 4.412,0.013"
   id="40013"
   inkscape:label="Bryan, OK"
   inkscape:connector-curvature="0" />
  <path
   style="fill:#72b3dc;stroke:#c2dffb;stroke-width:1"
   d="m 62.608,39.797 2.762,0.028 0.559,0.138 0.406,0.479 0,0.081 -0.036,0.058 -0.307,3.174 -1.068,0.482 -0.009,0.004 -0.518,0.087 -1.006,-0.308 -0.108,-0.075 -0.175,-0.196 -0.541,-1.112 -0.356,-1.523 0.397,-1.317"
   id="40095"
   inkscape:label="Marshall, OK"
   inkscape:connector-curvature="0" />
  <path
   style="fill:#72b3dc;stroke:#c2dffb;stroke-width:1"
   d="m 63.775,35.484 3.312,0.032 1.118,1.131 -0.013,3.39 -1.893,0.544 0.036,-0.058 0,-0.081 -0.406,-0.479 -0.559,-0.138 -2.762,-0.028 0.022,-2.073 0.554,0 0.028,-2.244 0.563,0.004"
   id="40069"
   inkscape:label="Johnston, OK"
   inkscape:connector-curvature="0" />
  <path
   style="fill:#72b3dc;stroke:#c2dffb;stroke-width:1"
   d="m 67.358,30.261 0.879,1.862 -0.005,1.13 -1.113,0 -0.032,2.263 -3.312,-0.032 0.008,-1.131 -1.108,-0.009 0.005,-0.563 0.027,-2.826 0.036,-1.424 1.618,0.846 2.997,-0.116"
   id="40123"
   inkscape:label="Pontotoc, OK"
   inkscape:connector-curvature="0" />
  <path
   style="fill:#72b3dc;stroke:#c2dffb;stroke-width:1"
   d="m 62.707,30.955 -0.027,2.826 -2.218,-0.027 -0.545,0.175 -0.027,0.032 -0.018,0.131 0.08,0.18 0.167,0.136 0.14,0.405 0.126,0.559 -0.397,0.067 -1.757,-0.027 -2.222,-0.036 -1.082,-2.28 0.045,-2.254 7.735,0.113"
   id="40049"
   inkscape:label="Garvin, OK"
   inkscape:connector-curvature="0" />
  <path
   style="fill:#72b3dc;stroke:#c2dffb;stroke-width:1"
   d="m 58.231,35.412 1.757,0.027 0.397,-0.067 -0.126,-0.559 -0.14,-0.405 -0.167,-0.136 -0.08,-0.18 0.018,-0.131 0.027,-0.032 0.545,-0.175 2.218,0.027 -0.005,0.563 1.108,0.009 -0.008,1.131 -0.563,-0.004 -0.028,2.244 -0.554,0 -1.01,-0.009 -0.112,-0.067 -0.032,-0.063 0,-0.027 0.122,-0.086 -0.023,-0.284 -0.031,-0.031 -3.34,-0.05 0.027,-1.695"
   id="40099"
   inkscape:label="Murray, OK"
   inkscape:connector-curvature="0" />
  <path
   style="fill:#72b3dc;stroke:#c2dffb;stroke-width:1"
   d="m 55.932,41.028 6.279,0.086 0.356,1.523 -0.104,0.058 -1.604,2.782 -0.05,0.067 -0.108,0.086 -0.153,0.049 -0.171,-0.022 -0.149,-0.05 -3.106,-1.357 -0.094,-0.063 -0.063,-0.076 0,-0.005 -0.009,-0.023 -0.028,-0.067 -0.211,-0.964 -0.821,0.221 0.036,-2.245"
   id="40085"
   inkscape:label="Love, OK"
   inkscape:connector-curvature="0" />
  <path
   style="fill:#72b3dc;stroke:#c2dffb;stroke-width:1"
   d="m 56.009,35.376 2.222,0.036 -0.027,1.695 3.34,0.05 0.031,0.031 0.023,0.284 -0.122,0.086 0,0.027 0.032,0.063 0.112,0.067 1.01,0.009 -0.022,2.073 -0.397,1.317 -6.279,-0.086 0.028,-2.825 0.049,-2.827"
   id="40019"
   inkscape:label="Carter, OK"
   inkscape:connector-curvature="0" />
  <path
   style="fill:#72b3dc;stroke:#c2dffb;stroke-width:1"
   d="m 49.852,38.071 6.108,0.132 -0.028,2.825 -0.036,2.245 -0.383,-0.267 -1.086,-0.725 -0.365,0.46 -0.559,0.581 -0.532,0.419 -0.333,0.099 -0.127,-0.012 -0.941,-0.429 -0.118,-0.109 0.275,-0.595 0.095,-0.689 -0.004,-0.005 -0.397,-0.157 -0.37,0.09 -0.013,0.004 -0.23,0 -0.451,-0.135 -0.018,-0.004 -0.027,-0.027 -0.185,-0.37 -0.275,-3.331"
   id="40067"
   inkscape:label="Jefferson, OK"
   inkscape:connector-curvature="0" />
  <path
   style="fill:#72b3dc;stroke:#c2dffb;stroke-width:1"
   d="m 54.927,33.096 1.082,2.28 -0.049,2.827 -6.108,-0.132 0.032,-2.817 0.608,-2.244 4.435,0.086"
   id="40137"
   inkscape:label="Stephens, OK"
   inkscape:connector-curvature="0" />
  <path
   style="fill:#72b3dc;stroke:#c2dffb;stroke-width:1"
   d="m 44.354,36.426 0.558,0.014 1.109,-0.157 2.222,-0.317 0.559,-0.476 0.374,-0.249 0.708,0.013 -0.032,2.817 0.275,3.331 -0.644,-1.059 -1.65,-0.518 -0.406,-0.091 -0.207,0.117 -0.428,0.541 -0.568,0.51 -0.009,0.009 -0.004,-0.004 -0.303,-0.109 -0.504,-0.811 -0.243,-0.207 -0.235,-0.155 -0.108,-0.008 0.067,-2.24 -0.554,-0.009 0.023,-0.942"
   id="40033"
   inkscape:label="Cotton, OK"
   inkscape:connector-curvature="0" />
  <path
   style="fill:#72b3dc;stroke:#c2dffb;stroke-width:1"
   d="m 44.962,30.617 5.544,0.139 -0.014,2.254 -0.608,2.244 -0.708,-0.013 -0.374,0.249 -0.559,0.476 -2.222,0.317 -1.109,0.157 -0.558,-0.014 0.031,-0.981 -0.613,-0.349 -1.113,-0.031 0.032,-1.131 0.099,-3.385 2.172,0.068"
   id="40031"
   inkscape:label="Comanche, OK"
   inkscape:connector-curvature="0" />
  <path
   style="fill:#72b3dc;stroke:#c2dffb;stroke-width:1"
   d="m 42.691,33.934 -0.032,1.131 1.113,0.031 0.613,0.349 -0.031,0.981 -0.023,0.942 0.554,0.009 -0.067,2.24 -0.965,0.297 -0.694,-0.026 -0.978,-0.239 -0.982,-0.587 -0.149,-0.075 -0.014,0 -0.978,-0.077 -0.428,0.008 -0.198,0.009 -0.397,-0.09 -0.216,-0.067 -0.135,-0.04 -0.005,-0.006 0,-0.004 -0.184,-1 0.009,-0.28 0.013,-0.298 0.167,-0.049 0.036,-0.071 0,-0.105 -0.158,-0.446 -0.067,-0.054 -0.145,0.019 -0.058,-0.195 -0.018,-0.251 0.198,-0.871 0.424,-0.883 0.238,-0.334 0.235,-0.049 0.446,0.031 0.05,0.054 0.076,-0.009 0.041,-0.027 0.022,-0.306 -0.08,-0.153 -0.136,-0.167 0.712,0.027 0.352,0.433 -0.005,0.143 1.844,0.055"
   id="40141"
   inkscape:label="Tillman, OK"
   inkscape:connector-curvature="0" />
  <path
   style="fill:#72b3dc;stroke:#c2dffb;stroke-width:1"
   d="m 38.359,30.837 0.595,-0.446 0.099,-0.014 0.041,0.014 0.221,0.149 0.049,0.082 0.906,1.847 -0.482,0.807 0.136,0.167 0.08,0.153 -0.022,0.306 -0.041,0.027 -0.076,0.009 -0.05,-0.054 -0.446,-0.031 -0.235,0.049 -0.238,0.334 -0.424,0.883 -0.198,0.871 0.018,0.251 0.058,0.195 0.145,-0.019 0.067,0.054 0.158,0.446 0,0.105 -0.036,0.071 -0.167,0.049 0,-0.013 -0.5,-0.87 -0.528,-0.284 -0.464,-0.252 -0.455,0.815 -0.004,0.01 -0.014,0.023 -0.009,0 -0.081,0.035 -0.356,-0.031 -0.347,-0.329 -0.262,-0.153 -0.162,-0.068 -0.505,-0.059 -0.117,-0.017 -0.058,0.022 -0.411,0.519 -0.41,0.004 -0.09,0 -0.325,-0.077 -0.739,-0.703 -0.266,-0.315 -0.55,-0.713 1.92,0.077 0.104,-2.821 1.465,0.049 1.001,-0.036 -0.05,-0.117 -0.014,-0.284 0.036,-0.099 0.352,-0.559 1.636,0.063 0.045,-0.122"
   id="40065"
   inkscape:label="Jackson, OK"
   inkscape:connector-curvature="0" />
  <path
   style="fill:#72b3dc;stroke:#c2dffb;stroke-width:1"
   d="m 36.781,26.988 0.519,-0.008 5.35,0.176 1.848,0.03 0.536,0.284 -0.072,3.147 -2.172,-0.068 -0.099,3.385 -1.844,-0.055 0.005,-0.143 -0.352,-0.433 -0.712,-0.027 0.482,-0.807 -0.906,-1.847 -0.049,-0.082 -0.221,-0.149 -0.041,-0.014 -0.099,0.014 -0.595,0.446 -0.644,-0.554 -0.077,-0.108 -0.135,-1.524 0.099,-0.351 0.045,-0.293 -0.446,-0.658 -0.42,-0.361"
   id="40075"
   inkscape:label="Kiowa, OK"
   inkscape:connector-curvature="0" />
  <path
   style="fill:#72b3dc;stroke:#c2dffb;stroke-width:1"
   d="m 31.716,27.885 1.108,0.05 0.045,-1.127 3.467,0.136 0.445,0.044 0.42,0.361 0.446,0.658 -0.045,0.293 -0.099,0.351 0.135,1.524 0.077,0.108 0.644,0.554 -0.045,0.122 -1.636,-0.063 -0.352,0.559 -0.036,0.099 0.014,0.284 0.05,0.117 -1.001,0.036 -1.465,-0.049 -0.564,-2.871 -1.653,-0.064 0.045,-1.122"
   id="40055"
   inkscape:label="Greer, OK"
   inkscape:connector-curvature="0" />
  <path
   style="fill:#72b3dc;stroke:#c2dffb;stroke-width:1"
   d="m 30.544,27.836 1.172,0.049 -0.045,1.122 1.653,0.064 0.564,2.871 -0.104,2.821 -1.92,-0.077 -1.545,-0.77 0.072,-2.398 0.153,-3.682"
   id="40057"
   inkscape:label="Harmon, OK"
   inkscape:connector-curvature="0" />
  <path
   style="fill:#72b3dc;stroke:#c2dffb;stroke-width:1"
   d="m 74.943,17.992 1.204,-0.009 1.798,0.676 1.605,-0.13 0.595,0 1.455,2.249 0.829,2.33 -0.17,0.112 -0.804,0.946 -0.332,0.66 -1.001,0.593 -0.753,-0.134 -0.026,-3.362 -3.836,0.022 -0.005,-2.258 -0.554,0.005 -0.005,-1.7"
   id="40101"
   inkscape:label="Muskogee, OK"
   inkscape:connector-curvature="0" />
  <path
   style="fill:#72b3dc;stroke:#c2dffb;stroke-width:1"
   d="m 75.507,21.945 3.836,-0.022 0.026,3.362 -1.112,-0.028 -0.7,0.167 -2.027,1.126 -0.388,0.177 -2.078,0.437 -0.379,-0.018 0.028,-1.793 0,-1.132 1.103,0.005 0,-0.361 0.153,-0.77 0.397,-1.145 1.141,-0.005"
   id="40091"
   inkscape:label="McIntosh, OK"
   inkscape:connector-curvature="0" />
  <path
   style="fill:#72b3dc;stroke:#c2dffb;stroke-width:1"
   d="m 67.899,25.338 4.814,0.015 -0.028,1.793 -0.207,0.031 -0.091,0.054 -0.509,0.694 -0.292,0.541 -0.041,3.665 -3.308,-0.008 -0.879,-1.862 0.018,-2.665 0.514,0.006 0.009,-2.264"
   id="40063"
   inkscape:label="Hughes, OK"
   inkscape:connector-curvature="0" />
  <path
   style="fill:#72b3dc;stroke:#c2dffb;stroke-width:1"
   d="m 66.001,23.888 0.068,0.067 0.063,0.018 0.78,0.05 0.018,-0.014 0.014,-0.067 -0.037,-0.162 0.086,-0.443 0.613,-0.224 0.306,-0.081 -0.013,2.306 -0.009,2.264 -0.514,-0.006 -0.018,2.665 -2.997,0.116 0.044,-6.633 0.546,-0.176 1.05,0.32"
   id="40133"
   inkscape:label="Seminole, OK"
   inkscape:connector-curvature="0" />
  <path
   style="fill:#72b3dc;stroke:#c2dffb;stroke-width:1"
   d="m 60.606,23.016 5.391,0.069 0.004,0.803 -1.05,-0.32 -0.546,0.176 -0.044,6.633 -1.618,-0.846 -2.232,0.395 0.077,-5.772 0.018,-1.138"
   id="40125"
   inkscape:label="Pottawatomie, OK"
   inkscape:connector-curvature="0" />
  <path
   style="fill:#72b3dc;stroke:#c2dffb;stroke-width:1"
   d="m 55.058,24.064 5.53,0.09 -0.077,5.772 -0.572,0.036 -1.325,-0.355 -0.135,-0.081 -0.054,-0.05 -0.068,-0.207 -0.085,-0.73 -0.159,-0.631 -0.495,-0.835 -2.114,-2.113 -0.459,-0.374 0.013,-0.522"
   id="40027"
   inkscape:label="Cleveland, OK"
   inkscape:connector-curvature="0" />
  <path
   style="fill:#72b3dc;stroke:#c2dffb;stroke-width:1"
   d="m 55.045,24.586 0.459,0.374 2.114,2.113 0.495,0.835 0.159,0.631 0.085,0.73 0.068,0.207 0.054,0.05 0.135,0.081 1.325,0.355 0.572,-0.036 2.232,-0.395 -0.036,1.424 -7.735,-0.113 0.073,-6.242 0,-0.014"
   id="40087"
   inkscape:label="McClain, OK"
   inkscape:connector-curvature="0" />
  <path
   style="fill:#72b3dc;stroke:#c2dffb;stroke-width:1"
   d="m 50.618,23.969 1.411,0.423 1.227,0.203 1.117,0.145 0.306,-0.005 0.366,-0.135 -0.073,6.242 -0.045,2.254 -4.435,-0.086 0.014,-2.254 0.112,-6.787"
   id="40051"
   inkscape:label="Grady, OK"
   inkscape:connector-curvature="0" />
  <path
   style="fill:#72b3dc;stroke:#c2dffb;stroke-width:1"
   d="m 48.405,21.661 0.055,0 0.009,0.139 -0.045,2.128 2.194,0.041 -0.112,6.787 -5.544,-0.139 0.072,-3.147 0.037,-0.053 0.036,-1.331 -0.018,-1.334 0.054,-2.046 0.035,-1.13 3.227,0.085"
   id="40015"
   inkscape:label="Caddo, OK"
   inkscape:connector-curvature="0" />
  <path
   style="fill:#72b3dc;stroke:#c2dffb;stroke-width:1"
   d="m 49.564,19.434 5.544,0.105 -0.05,4.525 -0.013,0.522 0,0.014 -0.366,0.135 -0.306,0.005 -1.117,-0.145 -1.227,-0.203 -1.411,-0.423 -2.194,-0.041 0.045,-2.128 -0.009,-0.139 -0.055,0 1.159,-2.227"
   id="40017"
   inkscape:label="Canadian, OK"
   inkscape:connector-curvature="0" />
  <path
   style="fill:#72b3dc;stroke:#c2dffb;stroke-width:1"
   d="m 55.108,19.539 5.544,0.097 -0.046,3.38 -0.018,1.138 -5.53,-0.09 0.05,-4.525"
   id="40109"
   inkscape:label="Oklahoma, OK"
   inkscape:connector-curvature="0" />
  <path
   style="fill:#72b3dc;stroke:#c2dffb;stroke-width:1"
   d="m 66.073,16.871 -0.018,3.925 -0.058,2.289 -5.391,-0.069 0.046,-3.38 0.035,-2.82 5.386,0.055"
   id="40081"
   inkscape:label="Lincoln, OK"
   inkscape:connector-curvature="0" />
  <path
   style="fill:#72b3dc;stroke:#c2dffb;stroke-width:1"
   d="m 70.513,20.814 -0.005,1.136 1.091,-0.005 0.004,2.276 1.11,0 0,1.132 -4.814,-0.015 0.013,-2.306 -0.306,0.081 -0.613,0.224 -0.086,0.443 0.037,0.162 -0.014,0.067 -0.018,0.014 -0.78,-0.05 -0.063,-0.018 -0.068,-0.067 -0.004,-0.803 0.058,-2.289 4.458,0.018"
   id="40107"
   inkscape:label="Okfuskee, OK"
   inkscape:connector-curvature="0" />
  <path
   style="fill:#72b3dc;stroke:#c2dffb;stroke-width:1"
   d="m 74.943,17.992 0.005,1.7 0.554,-0.005 0.005,2.258 -1.141,0.005 -0.397,1.145 -0.153,0.77 0,0.361 -1.103,-0.005 -1.11,0 -0.004,-2.276 -1.091,0.005 0.005,-1.136 0.004,-2.826 1.655,0.004 2.213,0.009 0.558,-0.009"
   id="40111"
   inkscape:label="Okmulgee, OK"
   inkscape:connector-curvature="0" />
  <path
   style="fill:#72b3dc;stroke:#c2dffb;stroke-width:1"
   d="m 78.31,15.135 2.407,-0.01 0.004,0.452 -0.27,0.634 -0.041,0.044 -0.144,0.007 -0.207,0.185 -0.063,0.121 -0.041,0.735 0.167,1.19 0.023,0.036 -0.595,0 -1.605,0.13 -1.798,-0.676 -1.204,0.009 -0.558,0.009 0.599,-3.984 1.479,-0.009 0.495,0.636 0.113,0.202 -0.045,0.177 -0.162,0.021 0.026,0.059 0.064,0.041 1.356,-0.009"
   id="40145"
   inkscape:label="Wagoner, OK"
   inkscape:connector-curvature="0" />
  <path
   style="fill:#72b3dc;stroke:#c2dffb;stroke-width:1"
   d="m 74.475,8.365 3.885,-0.013 1.072,1.126 -1.103,0.009 -0.028,3.388 0.009,2.26 -1.356,0.009 -0.064,-0.041 -0.026,-0.059 0.162,-0.021 0.045,-0.177 -0.113,-0.202 -0.495,-0.636 -1.479,0.009 -0.532,-3.389 0.023,-2.263"
   id="40131"
   inkscape:label="Rogers, OK"
   inkscape:connector-curvature="0" />
  <path
   style="fill:#72b3dc;stroke:#c2dffb;stroke-width:1"
   d="M 77.399,3.132 78.572,3.128 78.36,8.352 74.475,8.365 74.695,3.146 77.399,3.132"
   id="40105"
   inkscape:label="Nowata, OK"
   inkscape:connector-curvature="0" />
  <path
   style="fill:#72b3dc;stroke:#c2dffb;stroke-width:1"
   d="m 72.883,3.151 1.812,-0.005 -0.22,5.219 -0.023,2.263 -1.947,0 0.005,-7.477 0.373,0"
   id="40147"
   inkscape:label="Washington, OK"
   inkscape:connector-curvature="0" />
  <path
   style="fill:#72b3dc;stroke:#c2dffb;stroke-width:1"
   d="m 72.505,10.628 1.947,0 0.532,3.389 -0.599,3.984 -2.213,-0.009 0.041,-0.577 -0.006,-2.262 -2.771,-0.014 0,-1.122 0.306,0.005 2.763,0.021 0,-3.415"
   id="40143"
   inkscape:label="Tulsa, OK"
   inkscape:connector-curvature="0" />
  <path
   style="fill:#72b3dc;stroke:#c2dffb;stroke-width:1"
   d="m 66.092,14.031 3.344,-0.014 0,1.122 2.771,0.014 0.006,2.262 -0.041,0.577 -1.655,-0.004 -0.004,2.826 -4.458,-0.018 0.018,-3.925 0.019,-2.84"
   id="40037"
   inkscape:label="Creek, OK"
   inkscape:connector-curvature="0" />
  <path
   style="fill:#72b3dc;stroke:#c2dffb;stroke-width:1"
   d="m 62.959,12.881 1.1,0.009 -0.014,1.141 2.047,0 -0.019,2.84 -5.386,-0.055 -2.204,-0.59 0.032,-2.264 2.204,0.028 0.014,-1.131 2.226,0.022"
   id="40119"
   inkscape:label="Payne, OK"
   inkscape:connector-curvature="0" />
  <path
   style="fill:#72b3dc;stroke:#c2dffb;stroke-width:1"
   d="m 55.189,13.836 2.222,0.041 1.104,0.085 -0.032,2.264 2.204,0.59 -0.035,2.82 -5.544,-0.097 0.081,-5.703"
   id="40083"
   inkscape:label="Logan, OK"
   inkscape:connector-curvature="0" />
  <path
   style="fill:#72b3dc;stroke:#c2dffb;stroke-width:1"
   d="m 49.663,13.724 1.1,0.023 4.426,0.089 -0.081,5.703 -5.544,-0.105 0.054,-2.253 0.014,-1.88 0.031,-1.577"
   id="40073"
   inkscape:label="Kingfisher, OK"
   inkscape:connector-curvature="0" />
  <path
   style="fill:#72b3dc;stroke:#c2dffb;stroke-width:1"
   d="m 45.255,13.612 4.408,0.112 -0.031,1.577 -0.014,1.88 -0.054,2.253 -1.159,2.227 -3.227,-0.085 0,-3.385 0.077,-4.579"
   id="40011"
   inkscape:label="Blaine, OK"
   inkscape:connector-curvature="0" />
  <path
   style="fill:#72b3dc;stroke:#c2dffb;stroke-width:1"
   d="m 45.143,22.706 -0.054,2.046 0.018,1.334 -0.036,1.331 -0.037,0.053 -0.536,-0.284 -1.848,-0.03 -5.35,-0.176 0.117,-4.53 7.726,0.256"
   id="40149"
   inkscape:label="Washita, OK"
   inkscape:connector-curvature="0" />
  <path
   style="fill:#72b3dc;stroke:#c2dffb;stroke-width:1"
   d="m 37.435,21.886 -0.018,0.564 -0.117,4.53 -0.519,0.008 -0.445,-0.044 -3.467,-0.136 -0.045,1.127 -1.108,-0.05 -1.172,-0.049 0.086,-1.974 0.13,-3.111 4.431,0.186 0.04,-1.132 2.204,0.081"
   id="40009"
   inkscape:label="Beckham, OK"
   inkscape:connector-curvature="0" />
  <path
   style="fill:#72b3dc;stroke:#c2dffb;stroke-width:1"
   d="m 37.453,17.946 7.725,0.245 0,3.385 -0.035,1.13 -7.726,-0.256 0.018,-0.564 0.018,-3.94"
   id="40039"
   inkscape:label="Custer, OK"
   inkscape:connector-curvature="0" />
  <path
   style="fill:#72b3dc;stroke:#c2dffb;stroke-width:1"
   d="m 41.956,13.558 3.299,0.054 -0.077,4.579 -7.725,-0.245 0.041,-2.609 0.058,-1.965 4.404,0.186"
   id="40043"
   inkscape:label="Dewey, OK"
   inkscape:connector-curvature="0" />
  <path
   style="fill:#72b3dc;stroke:#c2dffb;stroke-width:1"
   d="m 37.494,15.337 -0.041,2.609 -0.018,3.94 -2.204,-0.081 -0.04,1.132 -4.431,-0.186 0.109,-2.55 0.139,-3.399 0.982,-0.572 1.101,0.27 0.247,0.307 0.09,0.072 0.51,0.32 0.324,0.117 0.518,0.131 0.158,0.018 0.609,-0.253 0.036,-0.031 0.496,-0.784 0.175,-0.591 0.027,-0.054 0.1,-0.089 0.256,-0.185 0.176,-0.087 0.253,-0.054 0.428,0"
   id="40129"
   inkscape:label="Roger Mills, OK"
   inkscape:connector-curvature="0" />
  <path
   style="fill:#72b3dc;stroke:#c2dffb;stroke-width:1"
   d="m 35.457,7.726 -0.167,4.493 0.054,1.077 2.208,0.076 -0.058,1.965 -0.428,0 -0.253,0.054 -0.176,0.087 -0.256,0.185 -0.1,0.089 -0.027,0.054 -0.175,0.591 -0.496,0.784 -0.036,0.031 -0.609,0.253 -0.158,-0.018 -0.518,-0.131 -0.324,-0.117 -0.51,-0.32 -0.09,-0.072 -0.247,-0.307 -1.101,-0.27 -0.982,0.572 0.095,-2.266 0.212,-5.765 0.058,-1.213 4.084,0.168"
   id="40045"
   inkscape:label="Ellis, OK"
   inkscape:connector-curvature="0" />
  <path
   style="fill:#72b3dc;stroke:#c2dffb;stroke-width:1"
   d="m 35.457,7.726 3.186,0.085 0.104,-2.912 0.009,0.185 0.234,0.207 0.171,0.063 0.902,-0.036 0.135,0.045 0.149,0.087 1.726,2.423 -0.022,1.2 -0.095,4.485 -4.404,-0.186 -2.208,-0.076 -0.054,-1.077 0.167,-4.493"
   id="40153"
   inkscape:label="Woodward, OK"
   inkscape:connector-curvature="0" />
  <path
   style="fill:#72b3dc;stroke:#c2dffb;stroke-width:1"
   d="m 50.844,9.874 -0.081,3.873 -1.1,-0.023 -4.408,-0.112 -3.299,-0.054 0.095,-4.485 1.199,0.045 0.234,0.464 0.117,0.135 0.153,0.104 0.947,0.509 0.563,0.262 0.189,0.064 0.235,0.03 0.717,-0.067 0.022,-0.857 4.417,0.112"
   id="40093"
   inkscape:label="Major, OK"
   inkscape:connector-curvature="0" />
  <path
   style="fill:#72b3dc;stroke:#c2dffb;stroke-width:1"
   d="m 57.483,8.307 0.005,0 -0.077,5.57 -2.222,-0.041 -4.426,-0.089 0.081,-3.873 0.04,-1.694 6.599,0.127"
   id="40047"
   inkscape:label="Garfield, OK"
   inkscape:connector-curvature="0" />
  <path
   style="fill:#72b3dc;stroke:#c2dffb;stroke-width:1"
   d="m 61.643,8.356 0.478,1.136 -0.23,-0.005 -0.023,2.254 1.104,0.013 -0.013,1.127 -2.226,-0.022 -0.014,1.131 -2.204,-0.028 -1.104,-0.085 0.077,-5.57 4.155,0.049"
   id="40103"
   inkscape:label="Noble, OK"
   inkscape:connector-curvature="0" />
  <path
   style="fill:#72b3dc;stroke:#c2dffb;stroke-width:1"
   d="m 62.959,12.881 0.013,-1.127 -1.104,-0.013 0.023,-2.254 0.23,0.005 0.045,0.27 0.239,0.262 0.139,0.076 0.298,0.067 2.569,0.429 3.628,2.556 0.703,0.87 -0.306,-0.005 -3.344,0.014 -2.047,0 0.014,-1.141 -1.1,-0.009"
   id="40117"
   inkscape:label="Pawnee, OK"
   inkscape:connector-curvature="0" />
  <path
   style="fill:#72b3dc;stroke:#c2dffb;stroke-width:1"
   d="m 64.847,3.119 2.294,0.013 5.369,0.019 -0.005,7.477 0,3.415 -2.763,-0.021 -0.703,-0.87 -3.628,-2.556 -2.569,-0.429 -0.298,-0.067 -0.139,-0.076 -0.239,-0.262 -0.045,-0.27 -0.478,-1.136 0.054,-0.649 0.55,-0.595 1.51,-0.716 0.203,0.04 0.076,-0.027 0.762,-0.468 0.049,-2.822"
   id="40113"
   inkscape:label="Osage, OK"
   inkscape:connector-curvature="0" />
  <path
   style="fill:#72b3dc;stroke:#c2dffb;stroke-width:1"
   d="m 57.564,3.039 3.218,0.04 4.065,0.04 -0.049,2.822 -0.762,0.468 -0.076,0.027 -0.203,-0.04 -1.51,0.716 -0.55,0.595 -0.054,0.649 -4.155,-0.049 -0.005,0 0.081,-5.268"
   id="40071"
   inkscape:label="Kay, OK"
   inkscape:connector-curvature="0" />
  <path
   style="fill:#72b3dc;stroke:#c2dffb;stroke-width:1"
   d="M 54.089,2.979 57.564,3.039 57.483,8.307 50.884,8.18 50.831,8.176 50.929,3.651 50.92,2.92 54.089,2.979"
   id="40053"
   inkscape:label="Grant, OK"
   inkscape:connector-curvature="0" />
  <path
   style="fill:#72b3dc;stroke:#c2dffb;stroke-width:1"
   d="m 48.518,2.867 2.402,0.053 0.009,0.731 -0.098,4.525 0.053,0.004 -0.04,1.694 -4.417,-0.112 0.068,-6.959 2.023,0.064"
   id="40003"
   inkscape:label="Alfalfa, OK"
   inkscape:connector-curvature="0" />
  <path
   style="fill:#72b3dc;stroke:#c2dffb;stroke-width:1"
   d="m 37.183,2.501 4.652,0.158 4.66,0.144 -0.068,6.959 -0.022,0.857 -0.717,0.067 -0.235,-0.03 L 45.264,10.592 44.701,10.33 43.754,9.821 43.601,9.717 43.484,9.582 43.25,9.118 42.051,9.073 42.073,7.873 40.347,5.45 40.198,5.363 40.063,5.318 39.161,5.354 38.99,5.291 38.756,5.084 38.747,4.899 37.183,2.501"
   id="40151"
   inkscape:label="Woods, OK"
   inkscape:connector-curvature="0" />
  <path
   style="fill:#72b3dc;stroke:#c2dffb;stroke-width:1"
   d="m 31.598,2.253 4.715,0.216 0.87,0.032 1.564,2.398 -0.104,2.912 -3.186,-0.085 -4.084,-0.168 0.225,-5.305"
   id="40059"
   inkscape:label="Harper, OK"
   inkscape:connector-curvature="0" />
  <path
   style="fill:#72b3dc;stroke:#c2dffb;stroke-width:1"
   d="m 21.967,1.848 3.187,0.135 5.557,0.229 0.887,0.041 -0.225,5.305 -0.058,1.213 -5.58,-0.249 -4.196,-0.211 0.239,-4.522 0.085,-0.003 0.104,-1.938"
   id="40007"
   inkscape:label="Beaver, OK"
   inkscape:connector-curvature="0" />
  
  
  
  
  
  
  
  
  
  
  
  
  
  
  
  
  
  
  
  
  
  
  
  
  
  
  
  
  
  
  
  
  
  
  
  
  
  
  
  
  
  
  
  
  
  
  
  
  
  
  
  
  
  
  
  
  
  
  
  
  
  
  
  
  
  
  
  
  
  
  
  
  
  
  
  
  
  
  
  
  
  
  
  
  
  
  
  
  
  
  
  
  
  
  
  
  
  
  
  
  
  
  
  
  
  
  
  
  
  
  
  
  
  
  
  
  
  
  
  
  
  
  
  
  
  
  
  
  
  
  
  
  
  
  
  
  
  
  
  
  
  
  
  
  
  
  
  
  
  
  
  
  
  
  
  
  
  
  
  
  
  
  
  
  
  
  
  
  
  
  
  
  
  
  
  
  
  
  
  
  
  
  
  
  
  
  
  
  
  
  
  
  
  
  
  
  
  
  
  
  
  
  
  
  
  
  
  
  
  
  
  
  
  
  
  
  
  
  
  
  
  
  
  
  
  
  
  
  
  
  
  
  
  
  
  
  
  
  
  
  
  
  
  
  
  
  
  
  
  
  
  
  
  
  
  
  
  
  
  
  
  
  
  
  
  
  
  
  
  
  
  
  
  
  
  
  
  
  
  
  
  
  
  
  
  
  
  
  
  
  
  
  
  
  
  
  
  
  
  
  
  
  
  
  
  
  
  
  
  
  
  
  
  
  
  
  
  
  
  
  
  
  
  
  
  
  
  
  
  
  
  
  
  
  
  
  
  
  
  
  
  
  
  
  
  
  
  
  
  
  
  
  
  
  
  
  
  
  
  
  
  
  
  
  
  
  
  
  
  
  
  
  
  
  
  
  
  
  
  
  
  
  
  
  
  
  
  
  
  
  
  
  
  
  
  
  
  
  
  
  
  
  
  
  
  
  
  
  
  
  
  
  
  
  
  
  
  
  
  
  
  
  
  
  
  
  
  
  
  
  
  
  
  
  
  
  
  
  
  
  
  
  
  
  
  
  
  
  
  
  
  
  
  
  
  
  
  
  
  
  
  
  
  
  
  
  
  
  
  
  
  
  
  
  
  
  
  
  
  
  
  
  
  
  
  
  
  
  
  
  
  
  
  
  
  
  
  
  
  
  
  
  
  
  
  
  
  
  
  
  
  
  
  
  
  
  
  
  
  
  
  
  
  
  
  
  
  
  
  
  
  
  
  
  
  
  
  
  
  
  
  
  
  
  
  
  
  
  
  
  
  
  
  
  
  
  
  
  
  
  
  
  
  
  
  
  
  
  
  
  
  
  
  
  
  
  
  
  
  
  
  
  
  
  
  
  
  
  
  
  
  
  
  
  
  
  
  
  
  
  
  
  
  
  
  
  
  
  
  
  
  
  
  
  
  
  
  
  
  
  
  
  
  
  
  
  
  
  
  
  
  
  
  
  
  
  
  
  
  
  
  
  
  
  
  
  
  
  
  
  
  
  
  
  
  
  
  
  
  
  
  
  
  
  
  
  
  
  
  
  
  
  
  
  
  
  
  
  
  
  
  
  
  
  
  
  
  
  
  
  
  
  
  
  
  
  
  
  
  
  
  
  
  
  
  
  
  
  
  
  
  
  
  
  
  
  
  
  
  
  
  
  
  
  
  
  
  
  
  
  
  
  
  
  
  
  
  
  
  
  
  
  
  
  
  
  
  
  
  
  
  
  
  
  
  
  
  
  
  
  
  
  
  
  
  
  
  
  
  
  
  
  
  
  
  
  
  
  
  
  
  
  
  
  
  
  
  
  
  
  
  
  
  
  
  
  
  
  
  
  
  
  
  
  
  
  
  
  
  
  
  
  
  
  
  
  
  
  
  
  
  
  
  
  
  
  
  
  
  
  
  
  
  
  
  
  
  
  
  
  
  
  
  
  
  
  
  
  
  
  
  
  
  
  
  
  
  
  
  
  
  
  
  
  
  
  
  
  
  
  
  
  
  
  
  
  
  
  
  
  
  
  
  
  
  
  
  
  
  
  
  
  
  
  
  
  
  
  
  
  
  
  
  
  
  
  
  
  
  
  
  
  
  
  
  
  
  
  
  
  
  
  
  
  
  
  
  
  
  
  
  
  
  
  
  
  
  
</svg>