<?xml version="1.0" encoding="UTF-8" standalone="no"?>
<!--?xml version="1.0" encoding="UTF-8" standalone="no"?-->

<svg
   xmlns:dc="http://purl.org/dc/elements/1.1/"
   xmlns:cc="http://creativecommons.org/ns#"
   xmlns:rdf="http://www.w3.org/1999/02/22-rdf-syntax-ns#"
   xmlns:svg="http://www.w3.org/2000/svg"
   xmlns="http://www.w3.org/2000/svg"
   xmlns:sodipodi="http://sodipodi.sourceforge.net/DTD/sodipodi-0.dtd"
   xmlns:inkscape="http://www.inkscape.org/namespaces/inkscape"
   width="90.090576"
   height="75.170135"
   viewBox="0 0 83.277003 68.665028"
   preserveAspectRatio="xMinYMin meet"
   xml:space="preserve"
   id="svg2504"
   version="1.1"
   inkscape:version="0.48.2 r9819"
   sodipodi:docname="OR.svg"><metadata
   id="metadata2546"><rdf:RDF><cc:Work
       rdf:about=""><dc:format>image/svg+xml</dc:format><dc:type
         rdf:resource="http://purl.org/dc/dcmitype/StillImage" /></cc:Work></rdf:RDF></metadata><defs
   id="defs2544" /><sodipodi:namedview
   pagecolor="#ffffff"
   bordercolor="#666666"
   borderopacity="1"
   objecttolerance="10"
   gridtolerance="10"
   guidetolerance="10"
   inkscape:pageopacity="0"
   inkscape:pageshadow="2"
   inkscape:window-width="640"
   inkscape:window-height="480"
   id="namedview2542"
   showgrid="false"
   inkscape:zoom="0.56730769"
   inkscape:cx="268.34394"
   inkscape:cy="-98.161918"
   inkscape:window-x="0"
   inkscape:window-y="0"
   inkscape:window-maximized="0"
   inkscape:current-layer="svg2504" />
  
  
  
  
  
  
  
  
  
  
  
  
  
  
  
  
  
  
  
  
  
  
  
  
  
  
  
  
  
  
  
  
  
  
  
  
  
  
  
  
  
  
  
  
  
  
  
  
  
  
  
  
  
  
  
  
  
  
  
  
  
  
  
  
  
  
  
  
  
  
  
  
  
  
  
  
  
  
  
  
  
  
  
  
  
  
  
  
  
  
  
  
  
  
  
  
  
  
  
  
  
  
  
  
  
  
  
  
  
  
  
  
  
  
  
  
  
  
  
  
  
  
  
  
  
  
  
  
  
  
  
  
  
  
  
  
  
  
  
  
  
  
  
  
  
  
  
  
  
  
  
  
  
  
  
  
  
  
  
  
  
  
  
  
  
  
  
  
  
  
  
  
  
  
  
  
  
  
  
  
  
  
  
  
  
  
  
  
  
  
  
  
  
  
  
  
  
  
  
  
  
  
  
  
  
  
  
  
  
  
  
  
  
  
  
  
  
  
  
  
  
  
  
  
  
  
  
  
  
  
  
  
  
  
  
  
  
  
  
  
  
  
  
  
  
  
  
  
  
  
  
  
  
  
  
  
  
  
  
  
  
  
  
  
  
  
  
  
  
  
  
  
  
  
  
  
  
  
  
  
  
  
  
  
  
  
  
  
  
  
  
  
  
  
  
  
  
  
  
  
  
  
  
  
  
  
  
  
  
  
  
  
  
  
  
  
  
  
  
  
  
  
  
  
  
  
  
  
  
  
  
  
  
  
  
  
  
  
  
  
  
  
  
  
  
  
  
  
  
  
  
  
  
  
  
  
  
  
  
  
  
  
  
  
  
  
  
  
  
  
  
  
  
  
  
  
  
  
  
  
  
  
  
  
  
  
  
  
  
  
  
  
  
  
  
  
  
  
  
  
  
  
  
  
  
  
  
  
  
  
  
  
  
  
  
  
  
  
  
  
  
  
  
  
  
  
  
  
  
  
  
  
  
  
  
  
  
  
  
  
  
  
  
  
  
  
  
  
  
  
  
  
  
  
  
  
  
  
  
  
  
  
  
  
  
  
  
  
  
  
  
  
  
  
  
  
  
  
  
  
  
  
  
  
  
  
  
  
  
  
  
  
  
  
  
  
  
  
  
  
  
  
  
  
  
  
  
  
  
  
  
  
  
  
  
  
  
  
  
  
  
  
  
  
  
  
  
  
  
  
  
  
  
  
  
  
  
  
  
  
  
  
  
  
  
  
  
  
  
  
  
  
  
  
  
  
  
  
  
  
  
  
  
  
  
  
  
  
  
  
  
  
  
  
  
  
  
  
  
  
  
  
  
  
  
  
  
  
  
  
  
  
  
  
  
  
  
  
  
  
  
  
  
  
  
  
  
  
  
  
  
  
  
  
  
  
  
  
  
  
  
  
  
  
  
  
  
  
  
  
  
  
  
  
  
  
  
  
  
  
  
  
  
  
  
  
  
  
  
  
  
  
  
  
  
  
  
  
  
  
  
  
  
  
  
  
  
  
  
  
  
  
  
  
  
  
  
  
  
  
  
  
  
  
  
  
  
  
  
  
  
  
  
  
  
  
  
  
  
  
  
  
  
  
  
  
  
  
  
  
  
  
  
  
  
  
  
  
  
  
  
  
  
  
  
  
  
  
  
  
  
  
  
  
  
  
  
  
  
  
  
  
  
  
  
  
  
  
  
  
  
  
  
  
  
  
  
  
  
  
  
  
  
  
  
  
  
  
  
  
  
  
  
  
  
  
  
  
  
  
  
  
  
  
  
  
  
  
  
  
  
  
  
  
  
  
  
  
  
  
  
  
  
  
  
  
  
  
  
  
  
  
  
  
  
  
  
  
  
  
  
  
  
  
  
  
  
  
  
  
  
  
  
  
  
  
  
  
  
  
  
  
  
  
  
  
  
  
  
  
  
  
  
  
  
  
  
  
  
  
  
  
  
  
  
  
  
  
  
  
  
  
  
  
  
  
  
  
  
  
  
  
  
  
  
  
  
  
  
  
  
  
  
  
  
  
  
  
  
  
  
  
  
  
  
  
  
  
  
  
  
  
  
  
  
  
  
  
  
  
  
  
  
  
  
  
  
  
  
  
  
  
  
  
  
  
  
  
  
  
  
  
  
  
  
  
  
  
  
  
  
  
  
  
  
  
  
  
  
  
  
  
  
  
  
  
  
  
  
  
  
  
  
  
  
  
  
  
  
  
  
  
  
  
  
  
  
  
  
  
  
  
  
  
  
  
  
  
  
  
  
  
  
  
  
  
  
  
  
  
  
  
  
  
  
  
  
  
  
  
  
  
  
  
  
  
  
  
  
  
  
  
  
  
  
  
  
  
  
  
  
  
  
  
  
  
  
  
  
  
  
  
  
  
  
  
  
  
  
  
  
  
  
  
  
  
  
  
  
  
  
  
  
  
  
  
  
  
  
  
  
  
  
  
  
  
  
  
  
  
  
  
  
  
  
  
  
  
  
  
  
  
  
  
  
  
  
  
  
  
  
  
  
  
  
  
  
  
  
  
  
  
  
  
  
  
  
  
  
  
  
  
  
  
  
  
  
  
  
  
  
  
  
  
  
  
  
  
  
  
  
  
  
  
  
  
  
  
  
  
  
  
  
  
  
  
  
  
  
  
  
  
  
  
  
  
  
  
  
  
  
  
  
  
  
  
  
  
  
  
  
  
  
  
  
  
  
  
  
  
  
  
  
  
  
  
  
  
  
  
  
  
  
  
  
  
  
  
  
  
  
  
  
  
  
  
  
  
  
  
  
  
  
  
  
  
  
  
  
  
  
  
  
  
  
  
  
  
  
  
  
  
  
  
  
  
  
  
  
  
  
  
  
  
  
  
  
  
  
  
  
  
  
  
  
  
  
  
  
  
  
  
  
  
  
  
  
  
  
  
  
  
  
  
  
  
  
  
  
  
  
  
  
  
  
  
  
  
  
  
  
  
  
  
  
  
  
  
  
  
  
  
  
  
  
  
  
  
  
  
  
  
  
  
  
  
  
  
  
  
  
  
  
  
  
  
  
  
  
  
  
  
  
  
  
  
  
  
  
  
  
  
  
  
  
  
  
  
  
  
  
  
  
  
  
  
  
  
  
  
  
  
  
  
  
  
  
  
  
  
  
  
  
  
  
  
  
  
  
  
  
  
  
  
  
  
  
  
  
  
  
  
  
  
  
  
  
  
  
  
  
  
  
  
  
  
  
  
  
  
  
  
  
  
  
  
  
  
  
  
  
  
  
  
  
  
  
  
  
  
  
  
  
  
  
  
  
  
  
  
  
  
  
  
  
  
  
  
  
  
  
  
  
  
  
  
  
  
  
  
  
  
  
  
  
  
  
  
  
  
  
  
  
  
  
  
  
  
  
  
  
  
  
  
  
  
  
  
  
  
  
  
  
  
  
  
  
  
  
  
  
  
  
  
  
  
  
  
  
  
  
  
  
  
  
  
  
  
  
  
  
  
  
  
  
  
  
  
  
  
  
  
  
  
  
  
  
  
  
  
  
  
  
  
  
  
  
  
  
  
  
  
  
  
  
  
  
  
  
  
  
  
  
  
  
  
  
  
  
  
  
  
  
  
  
  
  
  
  
  
  
  
  
  
  
  
  
  
  
  
  
  
  
  
  
  
  
  
  
  
  
  
  
  
  
  
  
  
  
  
  
  
  
  
  
  
  
  
  
  
  
  
  
  
  
  
  
  
  
  
  
  
  
  
  
  
  
  
  
  
  
  
  
  
  
  
  
  
  
  
  
  
  
  
  
  
  
  
  
  
  
  
  
  
  
  
  
  
  
  
  
  
  
  
  
  
  
  
  
  
  
  
  
  
  
  
  
  
  
  
  
  
  
  
  
  
  
  
  
  
  
  
  
  
  
  
  
  
  
  
  
  
  
  
  
  
  
  
  
  
  
  
  
  
  
  
  
  
  
  
  
  
  
  
  
  
  
  
  
  
  
  
  
  
  
  
  
  
  
  
  
  
  
  
  
  
  
  
  
  
  
  
  
  
  
  
  
  
  
  
  
  
  
  
  
  
  
  
  
  
  
  
  
  
  
  
  
  
  
  
  
  
  
  
  
  
  
  
  
  
  
  
  
  
  
  
  
  
  
  
  
  
  
  
  
  
  
  
  
  
  
  
  
  
  
  
  
  
  
  
  
  
  
  
  
  
  
  
  
  
  
  
  
  
  
  
  
  
  
  
  
  
  
  
  
  
  
  
  
  
  
  
  
  
  
  
  
  
  
  
  
  
  
  
  
  
  
  
  
  
  
  
  
  
  
  
  
  
  
  
  
  
  
  
  
  
  
  
  
  
  
  
  
  
  
  
  
  
  
  
  
  
  
  
  
  
  
  
  
  
  
  
  
  
  
  
  
  
  
  
  
  
  
  
  
  
  
  
  
  
  
  
  
  
  
  
  
  
  
  
  
  
  
  
  
  
  
  
  
  
  
  
  
  
  
  
  
  
  
  
  
  
  
  
  
  
  
  
  
  
  
  
  
  
  
  
  
  
  
  
  
  
  
  
  
  
  
  
  
  
  
  
  
  
  
  
  
  
  
  
  
  
  
  
  
  
  
  
  
  
  
  
  
  
  
  
  
  
  
  
  
  
  
  
  
  
  
  
  
  
  
  
  
  
  
  
  
  
  
  
  
  
  
  
  
  
  
  
  
  
  
  
  
  
  
  
  
  
  
  
  
  
  
  
  
  
  
  
  
  
  
  
  
  
  
  
  
  
  
  
  
  
  
  
  
  
  
  
  
  
  
  
  
  
  
  
  
  
  
  
  
  
  
  
  
  
  
  
  
  
  
  
  
  
  
  
  
  
  
  
  
  
  
  
  
  
  
  
  
  
  
  
  
  
  
  
  
  
  
  
  
  
  
  
  
  
  
  
  
  
  
  
  
  
  
  
  
  
  
  
  
  
  
  
  
  
  
  
  
  
  
  
  
  
  
  <path
   style="fill:#72b3dc;stroke:#c2dffb;stroke-width:1"
   d="M 24.253,2.362 22.936,6.896 21.846,6.63 19.84,6.062 19.813,6.049 19.822,5.918 17.686,5.273 18.889,2.592 18.997,2.19 19.074,1.812 19.11,1.343 19.115,1.258 22.639,0.775 23.04,0.631 23.085,0.5 l 0.581,0.032 0.05,0.031 0.027,0.014 0.036,0.059 0.131,0.234 0.094,0.302 -0.197,0.577 0.378,0.59 0.068,0.023"
   id="41007"
   inkscape:label="Clatsop, OR"
   inkscape:connector-curvature="0" />
  <path
   style="fill:#72b3dc;stroke:#c2dffb;stroke-width:1"
   d="m 25.645,2.42 0.46,-0.085 0.424,0.176 1.455,1.784 0.086,0.339 0.252,1.405 L 28.241,7.265 28.174,7.477 27.939,9.05 26.47,8.703 25.789,7.739 22.936,6.896 24.253,2.362 25.645,2.42"
   id="41009"
   inkscape:label="Columbia, OR"
   inkscape:connector-curvature="0" />
  <path
   style="fill:#72b3dc;stroke:#c2dffb;stroke-width:1"
   d="m 7.883,42.737 0.842,0.328 -0.04,0.014 -0.167,0.126 -1.401,1.424 -0.005,0.063 0.054,0.14 0,0.05 -0.04,0.067 L 6.274,45.995 6.089,46.107 5.738,46.085 5.246,45.9 5.205,45.868 l -0.148,1.867 0.383,0.23 0.351,0.513 0.09,1.077 -0.049,0.33 -0.23,0.36 -0.216,0.307 -0.626,1.32 0.013,0.352 0.054,0.342 L 1.275,51.448 0.919,50.7 0.5,49.429 0.595,46.675 0.915,45.612 1.181,44.9 1.248,44.746 1.392,41.24 l 0.005,-1.181 1.1,-1.213 1.996,0.618 0.027,0.058 0.406,1.06 -0.045,0.721 -0.081,0.122 -0.099,0.347 -0.149,0.626 -0.068,0.915 0.036,0.068 1.303,0.135 0.698,-0.37 0.141,-0.103 0.144,-0.437 0.739,0.031 0.338,0.1"
   id="41015"
   inkscape:label="Curry, OR"
   inkscape:connector-curvature="0" />
  <path
   style="fill:#72b3dc;stroke:#c2dffb;stroke-width:1"
   d="M 7.883,42.737 7.545,42.637 6.806,42.606 6.662,43.043 6.521,43.146 5.823,43.516 4.52,43.381 4.484,43.313 4.552,42.398 4.701,41.772 4.8,41.425 4.881,41.303 4.926,40.582 4.52,39.522 4.493,39.464 2.497,38.846 7.319,31.45 l 1.713,0.528 1.343,0.432 0.338,2.479 -0.108,2.326 -0.617,2.123 -0.74,0.527 -0.514,0.333 -0.157,-0.049 -0.636,2.132 -0.058,0.456"
   id="41011"
   inkscape:label="Coos, OR"
   inkscape:connector-curvature="0" />
  <path
   style="fill:#72b3dc;stroke:#c2dffb;stroke-width:1"
   d="m 12.827,45.386 -2.569,8.69 -2.641,-0.739 -2.79,-0.771 -0.054,-0.342 -0.013,-0.352 0.626,-1.32 0.216,-0.307 0.23,-0.36 0.049,-0.33 -0.09,-1.077 -0.351,-0.513 -0.383,-0.23 0.148,-1.867 0.041,0.032 0.492,0.185 0.351,0.022 0.185,-0.112 0.852,-1.046 0.04,-0.067 0,-0.05 -0.054,-0.14 0.005,-0.063 1.401,-1.424 0.167,-0.126 0.04,-0.014 -0.152,0.55 1.455,0.834 0.41,0.226 0.334,0.148 0.505,-0.05 0.076,-0.121 0.351,0 0.834,0.252 0.194,0.153 0.095,0.329"
   id="41033"
   inkscape:label="Josephine, OR"
   inkscape:connector-curvature="0" />
  <path
   style="fill:#72b3dc;stroke:#c2dffb;stroke-width:1"
   d="m 22.472,44.206 -1.785,6.187 -0.248,0.758 -1.541,5.368 -0.514,-0.158 -0.293,-0.095 -1.131,-0.306 -1.239,-0.307 -3.124,-0.883 -0.239,-0.068 -0.405,-0.121 -0.983,-0.357 -0.689,-0.143 -0.023,-0.005 2.569,-8.69 0.027,-0.094 0.879,-0.365 0.356,0.112 0.947,0.225 2.014,0.316 1.379,-0.78 1.321,-0.599 1.65,-0.297 1.072,0.302"
   id="41029"
   inkscape:label="Jackson, OR"
   inkscape:connector-curvature="0" />
  <path
   style="fill:#72b3dc;stroke:#c2dffb;stroke-width:1"
   d="m 25.388,39.058 0.167,0.077 0.158,0.212 0.383,0.992 0.049,0.238 -0.004,1.046 -1.609,1.92 -1.812,-0.221 -0.248,0.884 -1.072,-0.302 -1.65,0.297 -1.321,0.599 -1.379,0.78 -2.014,-0.316 -0.947,-0.225 -0.356,-0.112 -0.879,0.365 -0.027,0.094 -0.095,-0.329 -0.194,-0.153 -0.834,-0.252 -0.351,0 -0.076,0.121 -0.505,0.05 -0.334,-0.148 -0.41,-0.226 -1.455,-0.834 0.152,-0.55 -0.842,-0.328 0.058,-0.456 0.636,-2.132 0.157,0.049 0.514,-0.333 0.74,-0.527 0.617,-2.123 0.108,-2.326 -0.338,-2.479 -1.343,-0.432 -1.713,-0.528 1.497,-2.965 0.829,0.27 0.969,0.288 0.279,0.041 1.167,-0.717 1.101,0.338 0.364,0.226 0.235,0.5 -0.045,0.153 0.577,1.001 0.446,0.401 0.983,0.699 1.875,0.559 -0.632,2.159 0.028,0.897 0.946,0.288 0.122,0.027 0.018,-0.022 1,0.252 1.204,0.351 -0.374,1.339 2.176,0.572 3.304,0.951"
   id="41019"
   inkscape:label="Douglas, OR"
   inkscape:connector-curvature="0" />
  <path
   style="fill:#72b3dc;stroke:#c2dffb;stroke-width:1"
   d="m 27.164,37.206 6.021,1.65 -0.883,3.249 -0.216,0.514 -0.365,1.046 -1.078,3.84 -0.581,2.176 3.029,0.83 1.213,0.356 -2.484,9.406 -5.219,-1.46 -7.703,-2.294 1.541,-5.368 0.248,-0.758 1.785,-6.187 0.248,-0.884 1.812,0.221 1.609,-1.92 0.004,-1.046 -0.049,-0.238 -0.383,-0.992 -0.158,-0.212 -0.167,-0.077 1.776,-1.852"
   id="41035"
   inkscape:label="Klamath, OR"
   inkscape:connector-curvature="0" />
  <path
   style="fill:#72b3dc;stroke:#c2dffb;stroke-width:1"
   d="m 33.185,38.856 3.092,0.824 0.135,0.037 5.792,1.618 3.903,1.027 -0.067,0.329 -0.992,3.358 -0.658,1.64 -0.942,3.259 -0.558,2.141 1.451,0.365 0.73,0.162 3.123,0.785 -1.528,6.147 -0.352,1.564 -0.455,1.794 -5.908,-1.505 -2.66,-0.672 -0.365,-0.094 -3.38,-0.897 -0.013,-0.005 -1.713,-0.46 2.484,-9.406 -1.213,-0.356 -3.029,-0.83 0.581,-2.176 1.078,-3.84 0.365,-1.046 0.216,-0.514 0.883,-3.249"
   id="41037"
   inkscape:label="Lake, OR"
   inkscape:connector-curvature="0" />
  <path
   style="fill:#72b3dc;stroke:#c2dffb;stroke-width:1"
   d="m 49.38,38.54 7.567,1.875 0.275,-1.1 1.37,0.37 0.672,0.23 3.235,0.78 -0.784,3.281 -0.139,0.423 -0.365,1.51 -0.825,3.471 -1.276,5.485 -0.558,2.704 -1.231,5.381 0.068,0.248 -0.05,0.46 -0.694,2.849 -5.395,-1.24 -5.061,-1.276 -0.33,-0.085 0.455,-1.794 0.352,-1.564 1.528,-6.147 -3.123,-0.785 -0.73,-0.162 -1.451,-0.365 0.558,-2.141 0.942,-3.259 0.658,-1.64 0.992,-3.358 0.067,-0.329 0.271,-1.108 1.086,0.283 0.852,-3.267 1.064,0.27"
   id="41025"
   inkscape:label="Harney, OR"
   inkscape:connector-curvature="0" />
  <path
   style="fill:#72b3dc;stroke:#c2dffb;stroke-width:1"
   d="m 63.103,37.963 0.352,0.086 0.41,-0.099 0.712,-0.6 0.726,-0.64 0.077,-0.32 0.225,-0.14 0.397,-0.085 3.416,0.78 0.469,0.491 0.297,0.437 -0.238,1.091 2.6,0.594 -0.023,0.068 -0.013,0.109 0.018,0.185 0.135,0.229 1.122,0.455 0.086,-0.04 0.049,0 0.357,0.126 0.094,0.059 0.478,0.946 0.009,0.018 0.031,0.099 -0.013,0.131 0,0.013 -0.005,0.005 -0.018,0.036 -0.013,0.027 -0.013,0.023 -0.456,0.559 -0.351,1.433 -0.438,0.829 -0.27,0.451 -0.996,2.416 -4.773,21.25 -10.898,-2.478 0.694,-2.849 0.05,-0.46 -0.068,-0.248 1.231,-5.381 0.558,-2.704 1.276,-5.485 0.825,-3.471 0.365,-1.51 0.139,-0.423 0.784,-3.281 0.604,-2.732"
   id="41045"
   inkscape:label="Malheur, OR"
   inkscape:connector-curvature="0" />
  <path
   style="fill:#72b3dc;stroke:#c2dffb;stroke-width:1"
   d="m 65.096,29.115 0.365,-0.346 0.829,-0.455 0.181,-0.023 0.405,0.505 0.464,0.36 0.086,0.032 1.92,0.478 1.911,0.437 0.257,-1.091 2.641,0.59 4.291,0.988 -0.437,0.396 -0.285,0.262 -0.225,0.469 0.009,0.261 0.032,0.126 0.054,0.126 0.013,0.104 -0.009,0.009 -0.302,0.522 -0.211,0.226 -0.271,0.288 -0.491,0.528 -0.861,0.293 -0.221,0.049 -0.063,0.027 -0.212,0.19 -1.996,2.744 -0.113,0.226 -0.311,2.122 -2.6,-0.594 0.238,-1.091 -0.297,-0.437 -0.469,-0.491 -3.416,-0.78 -0.397,0.085 -0.225,0.14 -0.077,0.32 -0.726,0.64 -0.712,0.6 -0.41,0.099 -0.352,-0.086 -2.379,-0.554 0.059,-0.294 0.031,-0.08 1.162,-1.83 0.095,-0.126 0.541,-0.473 0.69,-0.771 0.139,-0.212 1.587,-3.425 0.086,-0.519 0.023,-0.311 -0.041,-0.253"
   id="41001"
   inkscape:label="Baker, OR"
   inkscape:connector-curvature="0" />
  <path
   style="fill:#72b3dc;stroke:#c2dffb;stroke-width:1"
   d="m 70.549,16.595 3.277,0.789 1.077,0.261 4.945,1.154 0.635,1.979 0.04,0.076 0.027,0.05 0.41,0.378 0.785,0.722 0.329,0.144 0.004,0.004 0.154,0.198 0.175,0.222 0,0.004 0.059,0.248 0.311,1.631 -0.036,0.163 -0.217,0.247 -0.865,0.884 -1.56,2.001 -0.306,0.645 -1.347,2.195 -4.291,-0.988 0.239,-1.072 -1.866,-0.419 -0.104,-1.38 -0.094,-0.396 -0.244,-0.618 -0.347,-0.081 -0.117,-0.352 -0.163,-0.901 -0.134,-1.176 -0.019,-2.317 0.239,-1.059 0.325,-0.306 0.293,-0.703 -1.983,-0.46 0.369,-1.767"
   id="41063"
   inkscape:label="Wallowa, OR"
   inkscape:connector-curvature="0" />
  <path
   style="fill:#72b3dc;stroke:#c2dffb;stroke-width:1"
   d="m 70.18,18.362 1.983,0.46 -0.293,0.703 -0.325,0.306 -0.239,1.059 0.019,2.317 0.134,1.176 0.163,0.901 0.117,0.352 0.347,0.081 0.244,0.618 0.094,0.396 0.104,1.38 1.866,0.419 -0.239,1.072 -2.641,-0.59 -0.257,1.091 -1.911,-0.437 -1.92,-0.478 -0.086,-0.032 -0.464,-0.36 -0.405,-0.505 -0.181,0.023 -0.829,0.455 -0.365,0.346 -2.321,-1.059 0.261,-1.063 0.099,-1.519 -0.964,-0.23 -0.177,-0.852 0.258,-1.099 0.775,0.058 1.636,0.392 2.249,-0.415 0.712,-0.405 0.252,-0.523 0.528,-2.181 1.014,-1.46 0.762,-0.397"
   id="41061"
   inkscape:label="Union, OR"
   inkscape:connector-curvature="0" />
  <path
   style="fill:#72b3dc;stroke:#c2dffb;stroke-width:1"
   d="m 52.548,25.542 4.503,1.113 5.724,1.401 2.321,1.059 0.041,0.253 -0.023,0.311 -0.086,0.519 -1.587,3.425 -0.139,0.212 -0.69,0.771 -0.541,0.473 -0.095,0.126 -1.162,1.83 -0.031,0.08 -0.059,0.294 2.379,0.554 -0.604,2.732 -3.235,-0.78 -0.672,-0.23 -1.37,-0.37 -0.275,1.1 -7.567,-1.875 1.122,-4.354 1.677,-6.459 0.049,-0.914 0.32,-1.271"
   id="41023"
   inkscape:label="Grant, OR"
   inkscape:connector-curvature="0" />
  <path
   style="fill:#72b3dc;stroke:#c2dffb;stroke-width:1"
   d="m 45.513,22.729 6.219,1.627 0.816,1.186 -0.32,1.271 -0.049,0.914 -1.677,6.459 -1.965,-0.505 0.041,-1.027 -0.925,-0.956 -3.245,-0.829 0.113,-0.486 0.306,-1.096 0.964,-3.186 -0.278,-3.372"
   id="41069"
   inkscape:label="Wheeler, OR"
   inkscape:connector-curvature="0" />
  <path
   style="fill:#72b3dc;stroke:#c2dffb;stroke-width:1"
   d="m 44.827,29.287 -0.306,1.096 -0.113,0.486 3.245,0.829 0.925,0.956 -0.041,1.027 1.965,0.505 -1.122,4.354 -1.064,-0.27 -0.852,3.267 -1.086,-0.283 -3.051,-0.776 -0.194,-0.068 0.283,-1.081 -0.802,-1.37 -3.317,-0.87 0.257,-1.082 -0.879,-0.239 -1.217,-0.369 0.577,-2.163 -1.019,-0.33 0.221,-1.019 0.591,-2.145 1.055,0.293 0.288,-1.081 1.433,0.383 0.293,-1.073 3.93,1.023"
   id="41013"
   inkscape:label="Crook, OR"
   inkscape:connector-curvature="0" />
  <path
   style="fill:#72b3dc;stroke:#c2dffb;stroke-width:1"
   d="m 31.302,27.926 6.526,1.816 -0.591,2.145 -0.221,1.019 1.019,0.33 -0.577,2.163 1.217,0.369 0.879,0.239 -0.257,1.082 3.317,0.87 0.802,1.37 -0.283,1.081 0.194,0.068 3.051,0.776 -0.271,1.108 -3.903,-1.027 -5.792,-1.618 -0.135,-0.037 -3.092,-0.824 -6.021,-1.65 0.275,-0.446 0.302,-0.649 0.441,-1.217 1.245,-1.199 1.456,-1.839 0.121,-0.284 0.076,-0.595 0.141,-1.276 0.081,-1.775"
   id="41017"
   inkscape:label="Deschutes, OR"
   inkscape:connector-curvature="0" />
  <path
   style="fill:#72b3dc;stroke:#c2dffb;stroke-width:1"
   d="m 33.537,22.739 5.895,1.622 0.979,0.288 5.38,1.452 -0.964,3.186 -3.93,-1.023 -0.293,1.073 -1.433,-0.383 -0.288,1.081 -1.055,-0.293 -6.526,-1.816 1.437,-3.511 0.798,-1.676"
   id="41031"
   inkscape:label="Jefferson, OR"
   inkscape:connector-curvature="0" />
  <path
   style="fill:#72b3dc;stroke:#c2dffb;stroke-width:1"
   d="m 21.075,20.196 0.847,0.41 1.163,0.248 1.068,-0.153 1.384,0.36 2.763,1.109 0.329,0.167 1.036,0.757 0.974,0.703 0.613,0.199 1.487,0.419 -1.437,3.511 -0.081,1.775 -2.042,-0.563 -2.664,-0.694 -0.081,0.108 -0.005,0.05 0.032,0.045 -0.05,0.076 -0.415,0.167 -0.125,-0.036 -1.046,-0.473 -0.618,-0.374 -0.337,-0.27 -0.33,-0.356 -0.207,-0.19 -0.536,-0.315 -0.938,-0.235 -0.441,0.262 -0.095,0.266 -0.14,0.455 -1.956,-0.568 -0.338,-0.135 0.127,-0.374 0.058,-0.564 -0.014,-0.063 -0.054,-0.068 -0.121,-0.027 -0.028,-0.022 -0.013,-0.054 -0.059,-0.698 0.83,-2.466 1.731,-1.023 -0.429,-1.014 0.158,-0.352"
   id="41043"
   inkscape:label="Linn, OR"
   inkscape:connector-curvature="0" />
  <path
   style="fill:#72b3dc;stroke:#c2dffb;stroke-width:1"
   d="m 10.754,23.491 3.033,0.82 1.591,0.545 1.988,0.528 1.519,0.441 0.121,0.027 0.054,0.068 0.014,0.063 -0.058,0.564 -0.127,0.374 0.338,0.135 1.956,0.568 0.14,-0.455 0.095,-0.266 0.441,-0.262 0.938,0.235 0.536,0.315 0.207,0.19 0.33,0.356 0.337,0.27 0.618,0.374 1.046,0.473 0.125,0.036 0.415,-0.167 0.05,-0.076 -0.032,-0.045 0.005,-0.05 0.081,-0.108 2.664,0.694 2.042,0.563 -0.141,1.276 -0.076,0.595 -0.121,0.284 -1.456,1.839 -1.245,1.199 -0.441,1.217 -0.302,0.649 -0.275,0.446 -1.776,1.852 -3.304,-0.951 -2.176,-0.572 0.374,-1.339 -1.204,-0.351 -1,-0.252 -0.018,0.022 -0.122,-0.027 -0.946,-0.288 -0.028,-0.897 0.632,-2.159 -1.875,-0.559 -0.983,-0.699 -0.446,-0.401 -0.577,-1.001 0.045,-0.153 -0.235,-0.5 -0.364,-0.226 -1.101,-0.338 -1.167,0.717 -0.279,-0.041 -0.969,-0.288 -0.829,-0.27 1.938,-4.994"
   id="41039"
   inkscape:label="Lane, OR"
   inkscape:connector-curvature="0" />
  <path
   style="fill:#72b3dc;stroke:#c2dffb;stroke-width:1"
   d="m 20.917,20.548 0.429,1.014 -1.731,1.023 -0.83,2.466 0.059,0.698 0.013,0.054 0.028,0.022 -1.519,-0.441 -1.988,-0.528 -1.591,-0.545 0.032,-0.428 0.121,-0.347 1.407,-0.779 0.567,0.179 0.785,-2.622 0.234,-0.961 3.984,1.195"
   id="41003"
   inkscape:label="Benton, OR"
   inkscape:connector-curvature="0" />
  <path
   style="fill:#72b3dc;stroke:#c2dffb;stroke-width:1"
   d="m 17.055,15.04 -1.132,3.768 0.117,0.279 0.893,0.266 -0.234,0.961 -0.785,2.622 -0.567,-0.179 -1.407,0.779 -0.121,0.347 -0.032,0.428 -3.033,-0.82 0.342,-0.645 0.505,-1.032 0.054,-0.135 0.776,-2.159 1.406,-3.524 0.779,-1.704 2.439,0.748"
   id="41041"
   inkscape:label="Lincoln, OR"
   inkscape:connector-curvature="0" />
  <path
   style="fill:#72b3dc;stroke:#c2dffb;stroke-width:1"
   d="m 17.055,15.04 0.13,-0.396 5.716,1.712 -0.118,0.433 -0.744,1.258 -0.044,0.013 -0.469,0.55 -0.271,0.554 -0.198,0.951 0.018,0.081 -0.158,0.352 -3.984,-1.195 -0.893,-0.266 -0.117,-0.279 1.132,-3.768"
   id="41053"
   inkscape:label="Polk, OR"
   inkscape:connector-curvature="0" />
  <path
   style="fill:#72b3dc;stroke:#c2dffb;stroke-width:1"
   d="m 20.764,10.898 2.866,0.857 0.528,0.536 0.504,0.59 0.551,0.794 0.328,0.193 -0.045,0.762 -0.748,-0.329 -0.996,0.784 0.005,0.185 -0.14,0.477 -0.203,0.407 -0.513,0.202 -5.716,-1.712 -0.531,-0.163 0.523,-1.721 2.803,0.834 0.365,-1.204 0.419,-1.492"
   id="41071"
   inkscape:label="Yamhill, OR"
   inkscape:connector-curvature="0" />
  <path
   style="fill:#72b3dc;stroke:#c2dffb;stroke-width:1"
   d="m 25.496,14.63 0.181,-0.14 0.437,0.126 0.324,0.293 -0.306,0.775 -0.108,0.172 -0.136,0.162 -0.08,0.027 -0.14,0.185 -0.099,0.167 0.468,1.082 1.23,2.221 0.862,0.717 3.492,0.947 2.349,0.657 -0.433,0.718 -0.798,1.676 -1.487,-0.419 -0.613,-0.199 -0.974,-0.703 -1.036,-0.757 -0.329,-0.167 -2.763,-1.109 -1.384,-0.36 -1.068,0.153 -1.163,-0.248 -0.847,-0.41 -0.018,-0.081 0.198,-0.951 0.271,-0.554 0.469,-0.55 0.044,-0.013 0.744,-1.258 0.118,-0.433 0.513,-0.202 0.203,-0.407 0.14,-0.477 -0.005,-0.185 0.996,-0.784 0.748,0.329"
   id="41047"
   inkscape:label="Marion, OR"
   inkscape:connector-curvature="0" />
  <path
   style="fill:#72b3dc;stroke:#c2dffb;stroke-width:1"
   d="m 27.042,12.746 0.829,0.248 -0.018,-0.338 0.181,0.004 7.166,2.024 0.379,2.83 -0.618,0.519 -0.049,0.09 -1.123,2.177 -0.022,0.054 -0.185,0.888 0.014,0.036 0.374,0.743 -2.349,-0.657 -3.492,-0.947 -0.862,-0.717 -1.23,-2.221 -0.468,-1.082 0.099,-0.167 0.14,-0.185 0.08,-0.027 0.136,-0.162 0.108,-0.172 0.306,-0.775 -0.324,-0.293 -0.437,-0.126 -0.181,0.14 0.045,-0.762 1.501,-1.122"
   id="41005"
   inkscape:label="Clackamas, OR"
   inkscape:connector-curvature="0" />
  <path
   style="fill:#72b3dc;stroke:#c2dffb;stroke-width:1"
   d="m 61.72,14.477 8.663,2.077 0.166,0.041 -0.369,1.767 -0.762,0.397 -1.014,1.46 -0.528,2.181 -0.252,0.523 -0.712,0.405 -2.249,0.415 -1.636,-0.392 -0.775,-0.058 -0.258,1.099 0.177,0.852 0.964,0.23 -0.099,1.519 -0.261,1.063 -5.724,-1.401 0.428,-1.05 1.356,-5.422 -0.64,-1.298 -1.631,-0.419 0.825,-3.272 0.175,-0.609 0.51,0.031 1.352,0.185 0.248,0.127 0.23,0.058 0.392,0.027 0.32,-0.049 0.658,-0.19 0.193,-0.085 0.253,-0.212"
   id="41059"
   inkscape:label="Umatilla, OR"
   inkscape:connector-curvature="0" />
  <path
   style="fill:#72b3dc;stroke:#c2dffb;stroke-width:1"
   d="m 52.282,14.59 1.226,0 0.861,0.09 0.937,0.089 1.749,-0.216 0.509,0.032 -0.175,0.609 -0.825,3.272 1.631,0.419 0.64,1.298 -1.356,5.422 -0.428,1.05 -4.503,-1.113 -0.816,-1.186 0.306,-0.099 0.28,-1.081 -0.869,-1.082 -1.015,-0.6 0.856,-3.24 0.348,-1.217 0.644,-2.447"
   id="41049"
   inkscape:label="Morrow, OR"
   inkscape:connector-curvature="0" />
  <path
   style="fill:#72b3dc;stroke:#c2dffb;stroke-width:1"
   d="m 46.328,14.026 0.189,-0.063 0.384,0.094 0.252,0.177 0.234,0.441 0.109,0.158 0.184,0.121 0.703,0.122 1.776,0.108 0.469,-0.356 0.288,-0.072 1.352,-0.166 0.014,0 -0.644,2.447 -0.348,1.217 -0.856,3.24 1.015,0.6 0.869,1.082 -0.28,1.081 -0.306,0.099 -6.219,-1.627 -0.028,-0.198 0.311,-0.289 0.154,-1.117 -0.32,-0.829 0.423,-0.889 0.483,-0.941 1.082,-0.586 0.328,-0.167 0.109,-0.023 0.085,-0.135 -0.158,-1.199 -0.635,-1.095 -0.767,-0.956 -0.252,-0.279"
   id="41021"
   inkscape:label="Gilliam, OR"
   inkscape:connector-curvature="0" />
  <path
   style="fill:#72b3dc;stroke:#c2dffb;stroke-width:1"
   d="m 43.714,14.612 0.469,-0.144 0.793,-0.122 0.964,-0.135 0.388,-0.185 0.252,0.279 0.767,0.956 0.635,1.095 0.158,1.199 -0.085,0.135 -0.109,0.023 -0.328,0.167 -1.082,0.586 -0.483,0.941 -0.423,0.889 0.32,0.829 -0.154,1.117 -0.311,0.289 -1.397,-0.379 -0.428,-0.423 -1.253,-1.623 0.005,-1.708 0.915,-0.685 0.527,-0.933 0.162,-0.325 0.018,-0.085 -0.32,-1.758"
   id="41055"
   inkscape:label="Sherman, OR"
   inkscape:connector-curvature="0" />
  <path
   style="fill:#72b3dc;stroke:#c2dffb;stroke-width:1"
   d="m 39.32,12.669 0.617,0.091 0.311,0.063 3.272,1.532 0.194,0.257 0.32,1.758 -0.018,0.085 -0.162,0.325 -0.527,0.933 -0.915,0.685 -0.005,1.708 1.253,1.623 0.428,0.423 1.397,0.379 0.028,0.198 0.278,3.372 -5.38,-1.452 -0.979,-0.288 -5.895,-1.622 0.433,-0.718 -0.374,-0.743 -0.014,-0.036 0.185,-0.888 0.022,-0.054 1.123,-2.177 0.049,-0.09 0.618,-0.519 1.893,0.519 0.112,-0.388 0.771,-2.866 0.442,-0.667 0.523,-1.443"
   id="41065"
   inkscape:label="Wasco, OR"
   inkscape:connector-curvature="0" />
  <path
   style="fill:#72b3dc;stroke:#c2dffb;stroke-width:1"
   d="m 34.961,12.115 0.253,-0.226 0.383,-0.198 0.532,-0.031 0.621,0.342 0.244,0.059 0.744,0.058 0.968,0.018 0.614,0.532 -0.523,1.443 -0.442,0.667 -0.771,2.866 -0.112,0.388 -1.893,-0.519 -0.379,-2.83 -0.239,-2.569"
   id="41027"
   inkscape:label="Hood River, OR"
   inkscape:connector-curvature="0" />
  <path
   style="fill:#72b3dc;stroke:#c2dffb;stroke-width:1"
   d="m 27.939,9.05 -0.193,0.325 -0.086,0.234 0.009,0.316 0.176,0.225 0.459,0.482 0.239,0.181 2.501,1.541 0.294,0.144 0.008,0.005 0.248,0.063 0.018,0 0.149,-0.005 3.2,-0.446 0.239,2.569 -7.166,-2.024 -0.181,-0.004 0.018,0.338 -0.829,-0.248 0.163,-1.244 -0.167,-0.108 -0.505,-0.928 -0.351,-0.78 0.288,-0.983 1.469,0.347"
   id="41051"
   inkscape:label="Multnomah, OR"
   inkscape:connector-curvature="0" />
  <path
   style="fill:#72b3dc;stroke:#c2dffb;stroke-width:1"
   d="m 26.47,8.703 -0.288,0.983 0.351,0.78 0.505,0.928 0.167,0.108 -0.163,1.244 -1.501,1.122 -0.328,-0.193 -0.551,-0.794 -0.504,-0.59 -0.528,-0.536 -2.866,-0.857 -0.185,-0.049 0.059,-0.176 1.231,-2.168 0.806,-0.735 0.261,-0.874 2.853,0.843 0.681,0.964"
   id="41067"
   inkscape:label="Washington, OR"
   inkscape:connector-curvature="0" />
  <path
   style="fill:#72b3dc;stroke:#c2dffb;stroke-width:1"
   d="m 22.936,6.896 -0.261,0.874 -0.806,0.735 -1.231,2.168 -0.059,0.176 0.185,0.049 -0.419,1.492 -0.365,1.204 -2.803,-0.834 -0.523,1.721 0.531,0.163 -0.13,0.396 -2.439,-0.748 0.316,-0.568 0.036,-0.067 0.004,-0.009 0.257,-0.487 0.018,-0.036 0.073,-0.167 0.202,-0.501 1.974,-5.606 0.172,-0.582 0.036,-0.234 0,-0.086 -0.018,-0.676 2.136,0.645 -0.009,0.131 0.027,0.013 2.006,0.568 1.09,0.266"
   id="41057"
   inkscape:label="Tillamook, OR"
   inkscape:connector-curvature="0" />
  
  
  
  
  
  
  
  
  
  
  
  
  
  
  
  
  
  
  
  
  
  
  
  
  
  
  
  
  
  
  
  
  
  
  
  
  
  
  
  
  
  
  
  
  
  
  
  
  
  
  
  
  
  
  
  
  
  
  
  
  
  
  
  
  
  
  
  
  
  
  
  
  
  
  
  
  
  
  
  
  
  
  
  
  
  
  
  
  
  
  
  
  
  
  
  
  
  
  
  
  
  
  
  
  
  
  
  
  
  
  
  
  
  
  
  
  
  
  
  
  
  
  
  
  
  
  
  
  
  
  
  
  
  
  
  
  
  
  
  
  
  
  
  
  
  
  
  
  
  
  
  
  
  
  
  
  
  
  
  
  
  
  
  
  
  
  
  
  
  
  
  
  
  
  
  
  
  
  
  
  
  
  
  
  
  
  
  
  
  
  
  
  
  
  
  
  
  
  
  
  
  
  
  
  
  
  
  
  
  
  
  
  
  
  
  
  
  
  
  
  
  
  
  
  
  
  
  
  
  
  
  
  
  
  
  
  
  
  
  
  
  
  
  
  
  
  
  
  
  
  
  
  
  
  
  
  
  
  
  
  
  
  
  
  
  
  
  
  
  
  
  
  
  
  
  
  
  
  
  
  
  
  
  
  
  
  
  
  
  
  
  
  
  
  
  
  
  
  
  
  
  
  
  
  
  
  
  
  
  
  
  
  
  
  
  
  
  
  
  
  
  
  
  
  
  
  
  
  
  
  
  
  
  
  
  
  
  
  
  
  
  
  
  
  
  
  
  
  
  
  
  
  
  
  
  
  
  
  
  
  
  
  
  
  
  
  
  
  
  
  
  
  
  
  
  
  
  
  
  
  
  
  
  
  
  
  
  
  
  
  
  
  
  
  
  
  
  
  
  
  
  
  
  
  
  
  
  
  
  
  
  
  
  
  
  
  
  
  
  
  
  
  
  
  
  
  
  
  
  
  
  
  
  
  
  
  
  
  
  
  
  
  
  
  
  
  
  
  
  
  
  
  
  
  
  
  
  
  
  
  
  
  
  
  
  
  
  
  
  
  
  
  
  
  
  
  
  
  
  
  
  
  
  
  
  
  
  
  
  
  
  
  
  
  
  
  
  
  
  
  
  
  
  
  
  
  
  
  
  
  
  
  
  
  
  
  
  
  
  
  
  
  
  
  
  
  
  
  
  
  
  
  
  
  
  
  
  
  
  
  
  
  
  
  
  
  
  
  
  
  
  
  
  
  
  
  
  
  
  
  
  
  
  
  
  
  
  
  
  
  
  
  
  
  
  
  
  
  
  
  
  
  
  
  
  
  
  
  
  
  
  
  
  
  
  
  
  
  
  
  
  
  
  
  
  
  
  
  
  
  
  
  
  
  
  
  
  
  
  
  
  
  
  
  
  
  
  
  
  
  
  
  
  
  
  
  
  
  
  
  
  
  
  
  
  
  
  
  
  
  
  
  
  
  
  
  
  
  
  
  
  
  
  
  
  
  
  
  
  
  
  
  
  
  
  
  
  
  
  
  
  
  
  
  
  
  
  
  
  
  
  
  
  
  
  
  
  
  
  
  
  
  
  
  
  
  
  
  
  
  
  
  
  
  
  
  
  
  
  
  
  
  
  
  
  
  
  
  
  
  
  
  
  
  
  
  
  
  
  
  
  
  
  
  
  
  
  
  
  
  
  
  
  
  
  
  
  
  
  
  
  
  
  
  
  
  
  
  
  
  
  
  
  
  
  
  
  
  
  
  
  
  
  
  
  
  
  
  
  
  
  
  
  
  
  
  
  
  
  
  
  
  
  
  
  
  
  
  
  
  
  
  
  
  
  
  
  
  
  
  
  
  
  
  
  
  
  
  
  
  
  
  
  
  
  
  
  
  
  
  
  
  
  
  
  
  
  
  
  
  
  
  
  
  
  
  
  
  
  
  
  
  
  
  
  
  
  
  
  
  
  
  
  
  
  
  
  
  
  
  
  
  
  
  
  
  
  
  
  
  
  
  
  
  
  
  
  
  
  
  
  
</svg>