<?xml version="1.0" encoding="UTF-8" standalone="no"?>
<!--?xml version="1.0" encoding="UTF-8" standalone="no"?-->

<svg
   xmlns:dc="http://purl.org/dc/elements/1.1/"
   xmlns:cc="http://creativecommons.org/ns#"
   xmlns:rdf="http://www.w3.org/1999/02/22-rdf-syntax-ns#"
   xmlns:svg="http://www.w3.org/2000/svg"
   xmlns="http://www.w3.org/2000/svg"
   xmlns:sodipodi="http://sodipodi.sourceforge.net/DTD/sodipodi-0.dtd"
   xmlns:inkscape="http://www.inkscape.org/namespaces/inkscape"
   width="65.504089"
   height="42.72641"
   viewBox="0 0 60.549999 39.028932"
   preserveAspectRatio="xMinYMin meet"
   xml:space="preserve"
   id="svg2548"
   version="1.1"
   inkscape:version="0.48.2 r9819"
   sodipodi:docname="PA.svg"><metadata
   id="metadata2621"><rdf:RDF><cc:Work
       rdf:about=""><dc:format>image/svg+xml</dc:format><dc:type
         rdf:resource="http://purl.org/dc/dcmitype/StillImage" /></cc:Work></rdf:RDF></metadata><defs
   id="defs2619" /><sodipodi:namedview
   pagecolor="#ffffff"
   bordercolor="#666666"
   borderopacity="1"
   objecttolerance="10"
   gridtolerance="10"
   guidetolerance="10"
   inkscape:pageopacity="0"
   inkscape:pageshadow="2"
   inkscape:window-width="640"
   inkscape:window-height="480"
   id="namedview2617"
   showgrid="false"
   inkscape:zoom="0.56730769"
   inkscape:cx="-178.6179"
   inkscape:cy="-55.638891"
   inkscape:window-x="0"
   inkscape:window-y="0"
   inkscape:window-maximized="0"
   inkscape:current-layer="svg2548" />
  
  
  
  
  
  
  
  
  
  
  
  
  
  
  
  
  
  
  
  
  
  
  
  
  
  
  
  
  
  
  
  
  
  
  
  
  
  
  
  
  
  
  
  
  
  
  
  
  
  
  
  
  
  
  
  
  
  
  
  
  
  
  
  
  
  
  
  
  
  
  
  
  
  
  
  
  
  
  
  
  
  
  
  
  
  
  
  
  
  
  
  
  
  
  
  
  
  
  
  
  
  
  
  
  
  
  
  
  
  
  
  
  
  
  
  
  
  
  
  
  
  
  
  
  
  
  
  
  
  
  
  
  
  
  
  
  
  
  
  
  
  
  
  
  
  
  
  
  
  
  
  
  
  
  
  
  
  
  
  
  
  
  
  
  
  
  
  
  
  
  
  
  
  
  
  
  
  
  
  
  
  
  
  
  
  
  
  
  
  
  
  
  
  
  
  
  
  
  
  
  
  
  
  
  
  
  
  
  
  
  
  
  
  
  
  
  
  
  
  
  
  
  
  
  
  
  
  
  
  
  
  
  
  
  
  
  
  
  
  
  
  
  
  
  
  
  
  
  
  
  
  
  
  
  
  
  
  
  
  
  
  
  
  
  
  
  
  
  
  
  
  
  
  
  
  
  
  
  
  
  
  
  
  
  
  
  
  
  
  
  
  
  
  
  
  
  
  
  
  
  
  
  
  
  
  
  
  
  
  
  
  
  
  
  
  
  
  
  
  
  
  
  
  
  
  
  
  
  
  
  
  
  
  
  
  
  
  
  
  
  
  
  
  
  
  
  
  
  
  
  
  
  
  
  
  
  
  
  
  
  
  
  
  
  
  
  
  
  
  
  
  
  
  
  
  
  
  
  
  
  
  
  
  
  
  
  
  
  
  
  
  
  
  
  
  
  
  
  
  
  
  
  
  
  
  
  
  
  
  
  
  
  
  
  
  
  
  
  
  
  
  
  
  
  
  
  
  
  
  
  
  
  
  
  
  
  
  
  
  
  
  
  
  
  
  
  
  
  
  
  
  
  
  
  
  
  
  
  
  
  
  
  
  
  
  
  
  
  
  
  
  
  
  
  
  
  
  
  
  
  
  
  
  
  
  
  
  
  
  
  
  
  
  
  
  
  
  
  
  
  
  
  
  
  
  
  
  
  
  
  
  
  
  
  
  
  
  
  
  
  
  
  
  
  
  
  
  
  
  
  
  
  
  
  
  
  
  
  
  
  
  
  
  
  
  
  
  
  
  
  
  
  
  
  
  
  
  
  
  
  
  
  
  
  
  
  
  
  
  
  
  
  
  
  
  
  
  
  
  
  
  
  
  
  
  
  
  
  
  
  
  
  
  
  
  
  
  
  
  
  
  
  
  
  
  
  
  
  
  
  
  
  
  
  
  
  
  
  
  
  
  
  
  
  
  
  
  
  
  
  
  
  
  
  
  
  
  
  
  
  
  
  
  
  
  
  
  
  
  
  
  
  
  
  
  
  
  
  
  
  
  
  
  
  
  
  
  
  
  
  
  
  
  
  
  
  
  
  
  
  
  
  
  
  
  
  
  
  
  
  
  
  
  
  
  
  
  
  
  
  
  
  
  
  
  
  
  
  
  
  
  
  
  
  
  
  
  
  
  
  
  
  
  
  
  
  
  
  
  
  
  
  
  
  
  
  
  
  
  
  
  
  
  
  
  
  
  
  
  
  
  
  
  
  
  
  
  
  
  
  
  
  
  
  
  
  
  
  
  
  
  
  
  
  
  
  
  
  
  
  
  
  
  
  
  
  
  
  
  
  
  
  
  
  
  
  
  
  
  
  
  
  
  
  
  
  
  
  
  
  
  
  
  
  
  
  
  
  
  
  
  
  
  
  
  
  
  
  
  
  
  
  
  
  
  
  
  
  
  
  
  
  
  
  
  
  
  
  
  
  
  
  
  
  
  
  
  
  
  
  
  
  
  
  
  
  
  
  
  
  
  
  
  
  
  
  
  
  
  
  
  
  
  
  
  
  
  
  
  
  
  
  
  
  
  
  
  
  
  
  
  
  
  
  
  
  
  
  
  
  
  
  
  
  
  
  
  
  
  
  
  
  
  
  
  
  
  
  
  
  
  
  
  
  
  
  
  
  
  
  
  
  
  
  
  
  
  
  
  
  
  
  
  
  
  
  
  
  
  
  
  
  
  
  
  
  
  
  
  
  
  
  
  
  
  
  
  
  
  
  
  
  
  
  
  
  
  
  
  
  
  
  
  
  
  
  
  
  
  
  
  
  
  
  
  
  
  
  
  
  
  
  
  
  
  
  
  
  
  
  
  
  
  
  
  
  
  
  
  
  
  
  
  
  
  
  
  
  
  
  
  
  
  
  
  
  
  
  
  
  
  
  
  
  
  
  
  
  
  
  
  
  
  
  
  
  
  
  
  
  
  
  
  
  
  
  
  
  
  
  
  
  
  
  
  
  
  
  
  
  
  
  
  
  
  
  
  
  
  
  
  
  
  
  
  
  
  
  
  
  
  
  
  
  
  
  
  
  
  
  
  
  
  
  
  
  
  
  
  
  
  
  
  
  
  
  
  
  
  
  
  
  
  
  
  
  
  
  
  
  
  
  
  
  
  
  
  
  
  
  
  
  
  
  
  
  
  
  
  
  
  
  
  
  
  
  
  
  
  
  
  
  
  
  
  
  
  
  
  
  
  
  
  
  
  
  
  
  
  
  
  
  
  
  
  
  
  
  
  
  
  
  
  
  
  
  
  
  
  
  
  
  
  
  
  
  
  
  
  
  
  
  
  
  
  
  
  
  
  
  
  
  
  
  
  
  
  
  
  
  
  
  
  
  
  
  
  
  
  
  
  
  
  
  
  
  
  
  
  
  
  
  
  
  
  
  
  
  
  
  
  
  
  
  
  
  
  
  
  
  
  
  
  
  
  
  
  
  
  
  
  
  
  
  
  
  
  
  
  
  
  
  
  
  
  
  
  
  
  
  
  
  
  
  
  
  
  
  
  
  
  
  
  
  
  
  
  
  
  
  
  
  
  
  
  
  
  
  
  
  
  
  
  
  
  
  
  
  
  
  
  
  
  
  
  
  
  
  
  
  
  
  
  
  
  
  
  
  
  
  
  
  
  
  
  
  
  
  
  
  
  
  
  
  
  
  
  
  
  
  
  
  
  
  
  
  
  
  
  
  
  
  
  
  
  
  
  
  
  
  
  
  
  
  
  
  
  
  
  
  
  
  
  
  
  
  
  
  
  
  
  
  
  
  
  
  
  
  
  
  
  
  
  
  
  
  
  
  
  
  
  
  
  
  
  
  
  
  
  
  
  
  
  
  
  
  
  
  
  
  
  
  
  
  
  
  
  
  
  
  
  
  
  
  
  
  
  
  
  
  
  
  
  
  
  
  
  
  
  
  
  
  
  
  
  
  
  
  
  
  
  
  
  
  
  
  
  
  
  
  
  
  
  
  
  
  
  
  
  
  
  
  
  
  
  
  
  
  
  
  
  
  
  
  
  
  
  
  
  
  
  
  
  
  
  
  
  
  
  
  
  
  
  
  
  
  
  
  
  
  
  
  
  
  
  
  
  
  
  
  
  
  
  
  
  
  
  
  
  
  
  
  
  
  
  
  
  
  
  
  
  
  
  
  
  
  
  
  
  
  
  
  
  
  
  
  
  
  
  
  
  
  
  
  
  
  
  
  
  
  
  
  
  
  
  
  
  
  
  
  
  
  
  
  
  
  
  
  
  
  
  
  
  
  
  
  
  
  
  
  
  
  
  
  
  
  
  
  
  
  
  
  
  
  
  
  
  
  
  
  
  
  
  
  
  
  
  
  
  
  
  
  
  
  
  
  
  
  
  
  
  
  
  
  
  
  
  
  
  
  
  
  
  
  
  
  
  
  
  
  
  
  
  
  
  
  
  
  
  
  
  
  
  
  
  
  
  
  
  
  
  
  
  
  
  
  
  
  
  
  
  
  
  
  
  
  
  
  
  
  
  
  
  
  
  
  
  
  
  
  
  
  
  
  
  
  
  
  
  
  
  
  
  
  
  
  
  
  
  
  
  
  
  
  
  
  
  
  
  
  
  
  
  
  
  
  
  
  
  
  
  
  
  
  
  
  
  
  
  
  
  
  
  
  
  
  
  
  
  
  
  
  
  
  
  
  
  
  
  
  
  
  
  
  
  
  
  
  
  
  
  
  
  
  
  
  
  
  
  
  
  
  
  
  
  
  
  
  
  
  
  
  
  
  
  
  
  
  
  
  
  
  
  
  
  
  
  
  
  
  
  
  
  
  
  
  
  
  
  
  
  
  
  
  
  
  
  
  
  
  
  
  
  
  
  
  
  
  
  
  
  
  
  
  
  
  
  
  
  
  
  
  
  
  
  
  
  
  
  
  
  
  
  
  
  
  
  
  
  
  
  
  
  
  
  
  
  
  
  
  
  
  
  
  
  
  
  
  
  
  
  
  
  
  
  
  
  
  
  
  
  
  
  
  
  
  
  
  
  
  
  
  
  
  
  
  
  
  
  
  
  
  
  
  
  
  
  
  
  
  
  
  
  
  
  
  
  
  
  
  
  
  
  
  
  
  
  
  
  
  
  
  
  
  
  
  
  
  
  
  
  
  
  
  
  
  
  
  
  
  
  
  
  
  
  
  
  
  
  
  
  
  
  
  
  
  
  
  
  
  
  
  
  
  
  
  
  
  
  
  
  
  
  
  
  
  
  
  
  
  
  
  
  
  
  
  
  
  
  
  
  
  
  
  
  
  
  
  
  
  
  
  
  
  
  
  
  
  
  
  
  
  
  
  
  
  
  
  
  
  
  
  
  
  
  
  
  
  
  
  
  
  
  
  
  
  
  
  
  
  
  
  
  
  
  
  
  
  
  
  
  
  
  
  
  
  
  
  
  
  
  
  
  
  
  
  
  
  
  
  
  
  
  
  
  
  
  
  
  
  
  
  
  
  
  
  
  
  
  
  
  
  
  
  
  
  
  
  
  
  
  
  
  
  
  
  
  
  
  
  
  
  
  
  
  
  
  
  
  
  
  <path
   style="fill:#72b3dc;stroke:#c2dffb;stroke-width:1"
   d="m 57.936,24.419 -0.622,0.906 -0.734,1.365 -0.385,0.55 -0.941,-1.262 0.46,-0.622 -0.513,-0.396 0.554,-0.852 0.549,0.365 0.996,-1.095 0.636,1.041"
   id="42101"
   inkscape:label="Philadelphia, PA"
   inkscape:connector-curvature="0" />
  <path
   style="fill:#72b3dc;stroke:#c2dffb;stroke-width:1"
   d="m 54.336,17.996 1.383,0.564 0.73,1.469 0.937,0.568 0.064,0.036 2.6,1.997 -2.114,1.789 -0.636,-1.041 -5.268,-2.57 1.099,-1.815 1.1,-1.2 0.105,0.203"
   id="42017"
   inkscape:label="Bucks, PA"
   inkscape:connector-curvature="0" />
  <path
   style="fill:#72b3dc;stroke:#c2dffb;stroke-width:1"
   d="M 4.744,35.903 6.73,34.812 6.842,34.798 7.92,34.79 l 1.827,0.005 1.365,3.226 -4.908,0.82 -0.955,0.154 -0.505,-3.092"
   id="42059"
   inkscape:label="Greene, PA"
   inkscape:connector-curvature="0" />
  <path
   style="fill:#72b3dc;stroke:#c2dffb;stroke-width:1"
   d="m 10.598,32.756 1.281,-0.239 2.284,-0.566 0.235,-0.069 0.243,0.062 0.1,0.052 1.689,0.884 -0.248,0.666 -0.45,1.302 -0.077,0.631 0.338,1.51 0.208,0.14 -0.821,0.148 -2.791,0.492 -1.477,0.252 -1.365,-3.226 0.851,-2.039"
   id="42051"
   inkscape:label="Fayette, PA"
   inkscape:connector-curvature="0" />
  <path
   style="fill:#72b3dc;stroke:#c2dffb;stroke-width:1"
   d="m 5.18,29.048 2.02,1.573 2.266,0.942 1.042,0.278 0.09,0.915 L 9.747,34.795 7.92,34.79 6.842,34.798 6.73,34.812 4.744,35.903 4.331,33.375 3.833,30.305 3.662,29.3 5.18,29.048"
   id="42125"
   inkscape:label="Washington, PA"
   inkscape:connector-curvature="0" />
  <path
   style="fill:#72b3dc;stroke:#c2dffb;stroke-width:1"
   d="m 11.175,25.501 0.004,0.008 0.393,2.903 0.027,0.208 -0.009,0.066 -0.514,2.602 -0.09,0.229 -0.478,0.324 L 9.466,31.563 7.2,30.621 5.18,29.048 6.25,27.61 6.961,26.952 6.794,26.181 l 4.381,-0.68"
   id="42003"
   inkscape:label="Allegheny, PA"
   inkscape:connector-curvature="0" />
  <path
   style="fill:#72b3dc;stroke:#c2dffb;stroke-width:1"
   d="m 2.874,24.507 3.438,-0.62 0.482,2.294 0.167,0.771 L 6.25,27.61 5.18,29.048 3.662,29.3 3.32,27.231 2.874,24.507"
   id="42007"
   inkscape:label="Beaver, PA"
   inkscape:connector-curvature="0" />
  <path
   style="fill:#72b3dc;stroke:#c2dffb;stroke-width:1"
   d="m 6.438,21.039 -0.126,2.848 -3.438,0.62 -0.114,-0.62 -0.465,-2.889 2.48,-0.447 1.077,0.005 0.586,0.483"
   id="42073"
   inkscape:label="Lawrence, PA"
   inkscape:connector-curvature="0" />
  <path
   style="fill:#72b3dc;stroke:#c2dffb;stroke-width:1"
   d="m 10.085,19.083 1.09,6.418 -4.381,0.68 -0.482,-2.294 0.126,-2.848 0.703,-1.465 2.899,-0.514 0.045,0.023"
   id="42019"
   inkscape:label="Butler, PA"
   inkscape:connector-curvature="0" />
  <path
   style="fill:#72b3dc;stroke:#c2dffb;stroke-width:1"
   d="m 14.879,19.821 0.317,1.781 0.31,1.736 -1.144,2.424 -0.546,1.119 -2.637,-1.372 -0.004,-0.008 -1.09,-6.418 0.247,0.87 0.032,0.117 0.225,0.527 1.041,0.658 0.203,0.031 0.289,0.023 0.18,-0.054 0.694,-0.249 1.037,-0.418 0.846,-0.767"
   id="42005"
   inkscape:label="Armstrong, PA"
   inkscape:connector-curvature="0" />
  <path
   style="fill:#72b3dc;stroke:#c2dffb;stroke-width:1"
   d="m 11.627,15.972 0.733,-0.131 -0.108,-0.634 0.397,-0.073 1.442,-0.185 0.207,1.266 0.581,3.606 -0.846,0.767 -1.037,0.418 -0.694,0.249 -0.18,0.054 -0.289,-0.023 -0.203,-0.031 -1.041,-0.658 -0.225,-0.527 -0.032,-0.117 -0.247,-0.87 -0.045,-0.023 0.247,-1.104 0.161,-0.338 0.181,-0.271 0.438,-0.414 0.1,-0.017 0.567,-0.295 -0.107,-0.649"
   id="42031"
   inkscape:label="Clarion, PA"
   inkscape:connector-curvature="0" />
  <path
   style="fill:#72b3dc;stroke:#c2dffb;stroke-width:1"
   d="m 10.765,12.984 5.255,-0.928 0.284,1.74 -0.081,0.495 -0.825,0.127 -0.218,0.437 0.178,1.055 -1.06,0.305 -0.207,-1.266 -1.442,0.185 -0.397,0.073 0.108,0.634 -0.733,0.131 -0.127,-0.689 -0.46,-0.794 -0.275,-1.505"
   id="42053"
   inkscape:label="Forest, PA"
   inkscape:connector-curvature="0" />
  <path
   style="fill:#72b3dc;stroke:#c2dffb;stroke-width:1"
   d="m 10.765,12.984 0.275,1.505 0.46,0.794 0.127,0.689 0.107,0.649 -0.567,0.295 -0.1,0.017 -0.438,0.414 -0.181,0.271 -0.161,0.338 L 10.04,19.06 7.141,19.574 6.447,15.5 6.79,15.134 7.817,13.791 9.832,13.246 9.814,13.161 10.765,12.984"
   id="42121"
   inkscape:label="Venango, PA"
   inkscape:connector-curvature="0" />
  <path
   style="fill:#72b3dc;stroke:#c2dffb;stroke-width:1"
   d="M 1.526,16.338 6.447,15.5 7.141,19.574 6.438,21.039 5.852,20.556 4.775,20.551 2.295,20.998 2.278,20.894 1.526,16.338"
   id="42085"
   inkscape:label="Mercer, PA"
   inkscape:connector-curvature="0" />
  <path
   style="fill:#72b3dc;stroke:#c2dffb;stroke-width:1"
   d="M 9.318,10.267 9.814,13.161 9.832,13.246 7.817,13.791 6.79,15.134 6.447,15.5 1.526,16.338 1.502,16.198 0.768,11.718 6.51,10.74 8.652,10.355 9.318,10.267"
   id="42039"
   inkscape:label="Crawford, PA"
   inkscape:connector-curvature="0" />
  <path
   style="fill:#72b3dc;stroke:#c2dffb;stroke-width:1"
   d="M 9.007,8.355 9.318,10.267 8.652,10.355 6.51,10.74 0.768,11.718 0.5,10.082 2.157,9.037 4.342,7.225 6.073,5.809 6.983,5.142 7.038,5.484 7.286,6.914 7.583,8.603 8.863,8.382 9.007,8.355"
   id="42049"
   inkscape:label="Erie, PA"
   inkscape:connector-curvature="0" />
  <path
   style="fill:#72b3dc;stroke:#c2dffb;stroke-width:1"
   d="m 13.816,26.881 -0.067,0.169 0.135,0.42 0.024,0.023 0.643,0.257 2.37,0.144 1.763,-0.112 -0.522,1.558 -1.732,3.54 -1.689,-0.884 -0.1,-0.052 -0.243,-0.062 -0.235,0.069 -2.284,0.566 -1.281,0.239 -0.09,-0.915 0.478,-0.324 0.09,-0.229 0.514,-2.602 0.009,-0.066 -0.027,-0.208 -0.393,-2.903 2.637,1.372"
   id="42129"
   inkscape:label="Westmoreland, PA"
   inkscape:connector-curvature="0" />
  <path
   style="fill:#72b3dc;stroke:#c2dffb;stroke-width:1"
   d="m 15.196,21.602 3.925,-0.636 0.454,2.312 -0.891,4.504 -1.763,0.112 -2.37,-0.144 -0.643,-0.257 -0.024,-0.023 -0.135,-0.42 0.067,-0.169 0.546,-1.119 1.144,-2.424 -0.31,-1.736"
   id="42063"
   inkscape:label="Indiana, PA"
   inkscape:connector-curvature="0" />
  <path
   style="fill:#72b3dc;stroke:#c2dffb;stroke-width:1"
   d="m 14.298,16.215 1.06,-0.305 0.188,-0.199 1.051,-0.307 2.353,0.879 0.315,0.375 0.068,0.365 -0.537,0.085 -0.162,0.793 -0.005,0.028 0.011,0.373 0.481,2.664 -3.925,0.636 -0.317,-1.781 -0.581,-3.606"
   id="42065"
   inkscape:label="Jefferson, PA"
   inkscape:connector-curvature="0" />
  <path
   style="fill:#72b3dc;stroke:#c2dffb;stroke-width:1"
   d="m 14.163,7.441 1.339,-0.226 0.135,0.568 0.257,1.434 -0.026,0.134 -0.258,0.055 0.41,2.65 -5.255,0.928 L 9.814,13.161 9.318,10.267 9.007,8.355 14.163,7.441"
   id="42123"
   inkscape:label="Warren, PA"
   inkscape:connector-curvature="0" />
  <path
   style="fill:#72b3dc;stroke:#c2dffb;stroke-width:1"
   d="m 21.232,6.138 0.949,-0.188 0.951,4.862 -1.996,0.586 -0.672,-0.239 -1.28,0.262 -0.491,0.129 -1.465,0.299 -1.208,0.207 -0.41,-2.65 0.258,-0.055 0.026,-0.134 -0.257,-1.434 -0.135,-0.568 0.415,-0.072 2.604,-0.506 2.711,-0.499"
   id="42083"
   inkscape:label="McKean, PA"
   inkscape:connector-curvature="0" />
  <path
   style="fill:#72b3dc;stroke:#c2dffb;stroke-width:1"
   d="m 21.136,11.398 1.996,-0.586 2.37,1.442 -0.355,3.48 -1.396,0.085 -0.205,-1.193 -0.374,-1.002 -1.572,0.293 -0.464,-2.519"
   id="42023"
   inkscape:label="Cameron, PA"
   inkscape:connector-curvature="0" />
  <path
   style="fill:#72b3dc;stroke:#c2dffb;stroke-width:1"
   d="m 16.02,12.056 1.208,-0.207 1.465,-0.299 0.491,-0.129 1.28,-0.262 0.672,0.239 0.464,2.519 1.572,-0.293 0.374,1.002 0.205,1.193 -3.075,0.343 -0.847,0.172 -0.496,0.689 -0.068,-0.365 -0.315,-0.375 -2.353,-0.879 -1.051,0.307 -0.188,0.199 -0.178,-1.055 0.218,-0.437 0.825,-0.127 0.081,-0.495 -0.284,-1.74"
   id="42047"
   inkscape:label="Elk, PA"
   inkscape:connector-curvature="0" />
  <path
   style="fill:#72b3dc;stroke:#c2dffb;stroke-width:1"
   d="m 23.751,15.819 1.396,-0.085 0.677,0.707 0.094,1.527 0.013,0.308 -0.116,0.802 -0.051,0.058 -0.54,0.222 -0.46,0.405 -0.108,0.121 -1.086,2.257 0.013,0.042 0.168,0.207 0.138,0.086 -4.314,0.802 -0.454,-2.312 -0.481,-2.664 -0.011,-0.373 0.005,-0.028 0.162,-0.793 0.537,-0.085 0.496,-0.689 0.847,-0.172 3.075,-0.343"
   id="42033"
   inkscape:label="Clearfield, PA"
   inkscape:connector-curvature="0" />
  <path
   style="fill:#72b3dc;stroke:#c2dffb;stroke-width:1"
   d="m 23.751,22.39 2.342,-0.522 -0.716,0.676 -0.104,0.194 -0.036,0.149 0.523,1.423 0.532,0.347 0.28,0.429 0.009,0.089 -0.019,0.122 -0.117,0.478 -0.636,1.983 -0.066,0.352 -0.1,0.378 -1.56,-0.107 -1.833,-0.343 1.639,-5.562 -0.138,-0.086"
   id="42013"
   inkscape:label="Blair, PA"
   inkscape:connector-curvature="0" />
  <path
   style="fill:#72b3dc;stroke:#c2dffb;stroke-width:1"
   d="m 19.575,23.278 4.314,-0.802 -1.639,5.562 -0.167,1.14 -0.879,0.162 -1.263,0.19 -0.193,-0.274 -0.338,-0.141 -1.248,0.225 0.522,-1.558 0.891,-4.504"
   id="42021"
   inkscape:label="Cambria, PA"
   inkscape:connector-curvature="0" />
  <path
   style="fill:#72b3dc;stroke:#c2dffb;stroke-width:1"
   d="m 22.083,29.178 -0.375,2.362 0.406,3.178 -0.028,0.373 -0.229,1.005 -5.656,1.033 -0.208,-0.14 -0.338,-1.51 0.077,-0.631 0.45,-1.302 0.248,-0.666 1.732,-3.54 1.248,-0.225 0.338,0.141 0.193,0.274 1.263,-0.19 0.879,-0.162"
   id="42111"
   inkscape:label="Somerset, PA"
   inkscape:connector-curvature="0" />
  <path
   style="fill:#72b3dc;stroke:#c2dffb;stroke-width:1"
   d="m 22.25,28.038 1.833,0.343 1.56,0.107 0.1,-0.378 0.066,-0.352 1.501,1.47 -0.126,0.595 -0.31,1.889 -0.33,2.154 -0.27,0.861 -0.271,0.604 -4.146,0.765 0.229,-1.005 0.028,-0.373 -0.406,-3.178 0.375,-2.362 0.167,-1.14"
   id="42009"
   inkscape:label="Bedford, PA"
   inkscape:connector-curvature="0" />
  <path
   style="fill:#72b3dc;stroke:#c2dffb;stroke-width:1"
   d="m 27.31,29.228 0.631,0.307 1.533,0.116 0.69,0.401 -0.099,0.109 -0.055,0.094 -0.234,0.641 -0.041,0.73 -0.212,1.244 -0.121,0.455 -0.437,1.073 -0.235,0.419 -2.361,0.446 -0.366,0.068 0.271,-0.604 0.27,-0.861 0.33,-2.154 0.31,-1.889 0.126,-0.595"
   id="42057"
   inkscape:label="Fulton, PA"
   inkscape:connector-curvature="0" />
  <path
   style="fill:#72b3dc;stroke:#c2dffb;stroke-width:1"
   d="m 26.093,21.868 1.754,0.293 2.174,-0.721 0.241,-0.253 -0.067,0.298 -0.545,1.198 -0.284,0.542 -0.122,0.32 -0.068,0.234 -0.293,1.884 0.51,0.437 0.104,0.068 0.252,-0.037 0.639,-0.188 0.073,-0.15 0.752,1.379 -1.049,2.88 -0.69,-0.401 -1.533,-0.116 -0.631,-0.307 -1.501,-1.47 0.636,-1.983 0.117,-0.478 0.019,-0.122 -0.009,-0.089 -0.28,-0.429 -0.532,-0.347 -0.523,-1.423 0.036,-0.149 0.104,-0.194 0.716,-0.676"
   id="42061"
   inkscape:label="Huntingdon, PA"
   inkscape:connector-curvature="0" />
  <path
   style="fill:#72b3dc;stroke:#c2dffb;stroke-width:1"
   d="m 31.213,27.172 0.236,-0.391 0.783,1.046 -0.104,0.161 0.262,0.415 1.465,1.672 0.383,0.73 0.685,2.839 -0.094,0.019 -6.099,1.154 0.235,-0.419 0.437,-1.073 0.121,-0.455 0.212,-1.244 0.041,-0.73 0.234,-0.641 0.055,-0.094 0.099,-0.109 1.049,-2.88"
   id="42055"
   inkscape:label="Franklin, PA"
   inkscape:connector-curvature="0" />
  <path
   style="fill:#72b3dc;stroke:#c2dffb;stroke-width:1"
   d="m 32.994,19.095 0.167,0.496 0.941,1.321 -0.536,0.365 -0.306,0.23 -0.587,0.505 -0.319,0.312 -0.896,1.486 -0.997,1.983 -0.073,0.15 -0.639,0.188 -0.252,0.037 -0.104,-0.068 -0.51,-0.437 0.293,-1.884 0.068,-0.234 0.122,-0.32 0.284,-0.542 0.545,-1.198 0.067,-0.298 2.732,-2.092"
   id="42087"
   inkscape:label="Mifflin, PA"
   inkscape:connector-curvature="0" />
  <path
   style="fill:#72b3dc;stroke:#c2dffb;stroke-width:1"
   d="m 27.775,4.877 1.235,5.805 0.175,0.811 -3.683,0.761 -2.37,-1.442 -0.951,-4.862 4.282,-0.808 1.312,-0.265"
   id="42105"
   inkscape:label="Potter, PA"
   inkscape:connector-curvature="0" />
  <path
   style="fill:#72b3dc;stroke:#c2dffb;stroke-width:1"
   d="m 29.185,11.493 0.1,0.473 0.667,0.643 1.149,1.024 3.223,2.263 0.188,-0.041 0.069,0.32 -1.727,1.081 -1.532,0.64 -0.888,-0.941 -0.148,-0.292 -0.357,-0.19 -3.295,-0.934 -0.81,0.902 -0.677,-0.707 0.355,-3.48 3.683,-0.761"
   id="42035"
   inkscape:label="Clinton, PA"
   inkscape:connector-curvature="0" />
  <path
   style="fill:#72b3dc;stroke:#c2dffb;stroke-width:1"
   d="m 25.824,16.441 0.81,-0.902 3.295,0.934 0.357,0.19 0.148,0.292 0.888,0.941 1.532,-0.64 1.727,-1.081 -0.443,0.771 -0.486,1.163 -0.658,0.986 -2.732,2.092 -0.241,0.253 -2.174,0.721 -1.754,-0.293 -2.342,0.522 -0.168,-0.207 -0.013,-0.042 1.086,-2.257 0.108,-0.121 0.46,-0.405 0.54,-0.222 0.051,-0.058 0.116,-0.802 -0.013,-0.308 -0.094,-1.527"
   id="42027"
   inkscape:label="Centre, PA"
   inkscape:connector-curvature="0" />
  <path
   style="fill:#72b3dc;stroke:#c2dffb;stroke-width:1"
   d="m 34.512,15.855 1.525,-0.554 0.012,-0.815 0.627,0.003 0.239,0.554 0.35,1.412 -0.012,0.162 0.113,0.229 0.316,0.42 0.323,0.24 0.253,0.067 -0.32,-0.018 -1.036,0.211 -1.247,0.532 -2.108,1.06 -0.386,0.233 -0.167,-0.496 0.658,-0.986 0.486,-1.163 0.443,-0.771 -0.069,-0.32"
   id="42119"
   inkscape:label="Union, PA"
   inkscape:connector-curvature="0" />
  <path
   style="fill:#72b3dc;stroke:#c2dffb;stroke-width:1"
   d="m 38.141,13.751 0.915,0.032 0.442,0.959 0.496,0.194 0.748,1.091 0.081,0.166 0.018,0.838 -0.992,-0.707 -0.207,-0.117 -0.289,0 -0.656,0.316 -0.538,0.216 -0.022,-0.027 0.094,-1.343 -0.09,-1.618"
   id="42093"
   inkscape:label="Montour, PA"
   inkscape:connector-curvature="0" />
  <path
   style="fill:#72b3dc;stroke:#c2dffb;stroke-width:1"
   d="m 34.157,3.574 1.542,5.053 -0.044,0.107 -0.647,0.633 -2.167,0.512 -3.831,0.803 -1.235,-5.805 6.021,-1.223 0.361,-0.08"
   id="42117"
   inkscape:label="Tioga, PA"
   inkscape:connector-curvature="0" />
  <path
   style="fill:#72b3dc;stroke:#c2dffb;stroke-width:1"
   d="m 35.699,8.627 0.59,-0.038 1.068,2.213 1.763,0.993 0.446,0.058 0.995,0.023 -1.505,1.907 -0.915,-0.032 -1.465,0.738 -0.627,-0.003 -0.012,0.815 -1.525,0.554 -0.188,0.041 -3.223,-2.263 -1.149,-1.024 -0.667,-0.643 -0.1,-0.473 -0.175,-0.811 3.831,-0.803 2.167,-0.512 0.647,-0.633 0.044,-0.107"
   id="42081"
   inkscape:label="Lycoming, PA"
   inkscape:connector-curvature="0" />
  <path
   style="fill:#72b3dc;stroke:#c2dffb;stroke-width:1"
   d="m 42.68,6.437 0.031,0.107 2.308,-0.5 1.388,-0.275 -0.068,0.098 -0.253,0.871 -0.121,0.703 0.338,0.162 -0.374,1.121 -0.139,0.105 -1.389,0.793 -2.556,0.635 0.15,-2.216 0.685,-1.604"
   id="42131"
   inkscape:label="Wyoming, PA"
   inkscape:connector-curvature="0" />
  <path
   style="fill:#72b3dc;stroke:#c2dffb;stroke-width:1"
   d="m 36.289,8.589 5.706,-0.548 -0.15,2.216 -0.081,0.929 -1.203,0.69 -0.995,-0.023 -0.446,-0.058 -1.763,-0.993 -1.068,-2.213"
   id="42113"
   inkscape:label="Sullivan, PA"
   inkscape:connector-curvature="0" />
  <path
   style="fill:#72b3dc;stroke:#c2dffb;stroke-width:1"
   d="m 41.764,11.186 0.141,1.036 0.063,0.299 0.585,0.847 1.146,2.177 -0.302,0.511 -0.249,0.48 0.005,1.087 -0.622,0.477 -1.69,-1.069 -0.018,-0.838 -0.081,-0.166 -0.748,-1.091 -0.496,-0.194 -0.442,-0.959 1.505,-1.907 1.203,-0.69"
   id="42037"
   inkscape:label="Columbia, PA"
   inkscape:connector-curvature="0" />
  <path
   style="fill:#72b3dc;stroke:#c2dffb;stroke-width:1"
   d="m 36.676,14.489 1.465,-0.738 0.09,1.618 -0.094,1.343 0.022,0.027 0.538,-0.216 0.656,-0.316 0.289,0 0.207,0.117 0.992,0.707 1.69,1.069 -2.749,2.132 -0.405,0.126 -1.114,0.739 -0.447,0.176 -0.045,0.018 -0.112,-0.028 -0.157,-0.17 0.068,-0.154 0.076,-0.09 0.359,-0.64 0.073,-0.166 0.045,-0.172 0.018,-0.225 -0.081,-0.343 0.104,-1.135 0.094,-0.595 -0.253,-0.067 -0.323,-0.24 -0.316,-0.42 -0.113,-0.229 0.012,-0.162 -0.35,-1.412 -0.239,-0.554"
   id="42097"
   inkscape:label="Northumberland, PA"
   inkscape:connector-curvature="0" />
  <path
   style="fill:#72b3dc;stroke:#c2dffb;stroke-width:1"
   d="m 38.258,17.573 -0.094,0.595 -0.104,1.135 0.081,0.343 -0.018,0.225 -0.045,0.172 -0.073,0.166 -0.359,0.64 -0.076,0.09 -0.032,-0.095 -0.055,-0.045 -0.991,-0.175 -0.676,-0.027 -0.375,0.226 -1.339,0.089 -0.941,-1.321 0.386,-0.233 2.108,-1.06 1.247,-0.532 1.036,-0.211 0.32,0.018"
   id="42109"
   inkscape:label="Snyder, PA"
   inkscape:connector-curvature="0" />
  <path
   style="fill:#72b3dc;stroke:#c2dffb;stroke-width:1"
   d="m 37.57,20.939 -0.068,0.154 -1.939,1.257 -1.032,0.793 -1.37,1.262 -0.726,0.735 -0.825,1.321 -0.161,0.32 -0.236,0.391 -0.752,-1.379 0.997,-1.983 0.896,-1.486 0.319,-0.312 0.587,-0.505 0.306,-0.23 0.536,-0.365 1.339,-0.089 0.375,-0.226 0.676,0.027 0.991,0.175 0.055,0.045 0.032,0.095"
   id="42067"
   inkscape:label="Juniata, PA"
   inkscape:connector-curvature="0" />
  <path
   style="fill:#72b3dc;stroke:#c2dffb;stroke-width:1"
   d="m 38.618,24.834 -0.544,0.365 -0.428,0.162 -3.525,1.324 -1.776,1.303 -0.113,-0.161 -0.783,-1.046 0.161,-0.32 0.825,-1.321 0.726,-0.735 1.37,-1.262 1.032,-0.793 1.939,-1.257 -0.078,0.585 -0.072,2.601 0.009,0.045 0.13,0.244 0.145,0.076 0.982,0.19"
   id="42099"
   inkscape:label="Perry, PA"
   inkscape:connector-curvature="0" />
  <path
   style="fill:#72b3dc;stroke:#c2dffb;stroke-width:1"
   d="m 38.618,24.834 0.795,1.198 -0.429,0.599 -1.186,0.992 -0.658,0.947 -0.243,0.369 -0.348,0.317 -0.675,0.279 -1.104,0.509 -0.532,0.761 -0.383,-0.73 -1.465,-1.672 -0.262,-0.415 0.104,-0.161 0.113,0.161 1.776,-1.303 3.525,-1.324 0.428,-0.162 0.544,-0.365"
   id="42041"
   inkscape:label="Cumberland, PA"
   inkscape:connector-curvature="0" />
  <path
   style="fill:#72b3dc;stroke:#c2dffb;stroke-width:1"
   d="m 37.14,28.57 0.113,0.009 0.366,0.107 0.801,0.365 0.708,0.899 0.045,0.18 0.072,0.617 -0.158,0.581 0,0.053 0.275,1.375 -2.097,0.424 -2.342,0.464 -0.685,-2.839 0.532,-0.761 1.104,-0.509 0.675,-0.279 0.348,-0.317 0.243,-0.369"
   id="42001"
   inkscape:label="Adams, PA"
   inkscape:connector-curvature="0" />
  <path
   style="fill:#72b3dc;stroke:#c2dffb;stroke-width:1"
   d="m 39.413,26.032 1.586,1.082 0.91,0.618 0.632,0.026 0.265,-0.036 0.225,0.054 1.871,1.61 1.735,1.694 0.054,0.082 0,0.063 -3.178,0.666 -2.099,0.437 -2.052,0.428 -0.275,-1.375 0,-0.053 0.158,-0.581 -0.072,-0.617 -0.045,-0.18 -0.708,-0.899 -0.801,-0.365 -0.366,-0.107 -0.113,-0.009 0.658,-0.947 1.186,-0.992 0.429,-0.599"
   id="42133"
   inkscape:label="York, PA"
   inkscape:connector-curvature="0" />
  <path
   style="fill:#72b3dc;stroke:#c2dffb;stroke-width:1"
   d="m 39.782,20.232 1.856,0.979 -1.149,1.305 1.771,3.336 0.032,-0.022 -1.293,1.284 -1.586,-1.082 -0.795,-1.198 -0.982,-0.19 -0.145,-0.076 -0.13,-0.244 -0.009,-0.045 0.072,-2.601 0.078,-0.585 0.157,0.17 0.112,0.028 0.045,-0.018 0.447,-0.176 1.114,-0.739 0.405,-0.126"
   id="42043"
   inkscape:label="Dauphin, PA"
   inkscape:connector-curvature="0" />
  <path
   style="fill:#72b3dc;stroke:#c2dffb;stroke-width:1"
   d="m 41.638,21.211 1.064,0.567 3.24,1.708 -1.329,1.086 -1.19,0.478 -1.131,0.78 -0.032,0.022 -1.771,-3.336 1.149,-1.305"
   id="42075"
   inkscape:label="Lebanon, PA"
   inkscape:connector-curvature="0" />
  <path
   style="fill:#72b3dc;stroke:#c2dffb;stroke-width:1"
   d="m 45.942,23.486 3.143,1.704 -0.591,0.509 -0.063,2.073 0.036,0.329 0.049,0.226 0.126,0.346 -0.098,0.699 -0.154,0.568 -0.127,0.338 -0.567,0.73 -0.942,0.204 -0.063,0.013 0,-0.063 -0.054,-0.082 -1.735,-1.694 -1.871,-1.61 -0.225,-0.054 -0.265,0.036 -0.632,-0.026 -0.91,-0.618 1.293,-1.284 1.131,-0.78 1.19,-0.478 1.329,-1.086"
   id="42071"
   inkscape:label="Lancaster, PA"
   inkscape:connector-curvature="0" />
  <path
   style="fill:#72b3dc;stroke:#c2dffb;stroke-width:1"
   d="m 51.518,20.539 -1.027,2.955 -1.406,1.696 -3.143,-1.704 -3.24,-1.708 1.231,-0.519 0.459,-0.117 0.194,-0.099 1.547,-1.063 0.427,-0.527 0.014,-0.406 0.865,-0.681 4.079,2.173"
   id="42011"
   inkscape:label="Berks, PA"
   inkscape:connector-curvature="0" />
  <path
   style="fill:#72b3dc;stroke:#c2dffb;stroke-width:1"
   d="m 43.699,15.545 2.096,0.041 2.757,1.765 -1.113,1.015 -0.865,0.681 -0.014,0.406 -0.427,0.527 -1.547,1.063 -0.194,0.099 -0.459,0.117 -1.231,0.519 -1.064,-0.567 -1.856,-0.979 2.749,-2.132 0.622,-0.477 -0.005,-1.087 0.249,-0.48 0.302,-0.511"
   id="42107"
   inkscape:label="Schuylkill, PA"
   inkscape:connector-curvature="0" />
  <path
   style="fill:#72b3dc;stroke:#c2dffb;stroke-width:1"
   d="m 45.795,15.586 2.248,-1.749 -0.122,-0.253 -0.378,-0.307 -0.045,-0.271 0.004,-0.112 0.028,-0.058 0.519,-0.618 0.039,-0.031 0.23,-0.082 0.198,0.113 0.307,0.108 1.51,1.289 -0.569,0.695 1.259,1.451 -1.204,0.625 -1.267,0.965 -2.757,-1.765"
   id="42025"
   inkscape:label="Carbon, PA"
   inkscape:connector-curvature="0" />
  <path
   style="fill:#72b3dc;stroke:#c2dffb;stroke-width:1"
   d="m 41.845,10.257 2.556,-0.635 1.389,-0.793 0.139,-0.105 0.076,0.227 0.235,0.256 0.569,0.211 0.571,0.119 0.731,0.96 0.229,0.891 0.08,0.131 0.132,0.069 0.311,0.032 -0.347,0.598 -0.198,-0.113 -0.23,0.082 -0.039,0.031 -0.519,0.618 -0.028,0.058 -0.004,0.112 0.045,0.271 0.378,0.307 0.122,0.253 -2.248,1.749 -2.096,-0.041 -1.146,-2.177 -0.585,-0.847 -0.063,-0.299 -0.141,-1.036 0.081,-0.929"
   id="42079"
   inkscape:label="Luzerne, PA"
   inkscape:connector-curvature="0" />
  <path
   style="fill:#72b3dc;stroke:#c2dffb;stroke-width:1"
   d="m 46.407,5.769 2.425,-0.523 1.266,4.808 -0.157,0.189 -0.379,0.28 L 48.863,11.62 48.552,11.588 48.42,11.519 48.34,11.388 48.111,10.497 47.38,9.537 46.809,9.418 46.24,9.207 46.005,8.951 45.929,8.724 46.303,7.603 45.965,7.441 46.086,6.738 46.339,5.867 46.407,5.769"
   id="42069"
   inkscape:label="Lackawanna, PA"
   inkscape:connector-curvature="0" />
  <path
   style="fill:#72b3dc;stroke:#c2dffb;stroke-width:1"
   d="M 37.61,2.884 41.454,2.095 42.68,6.437 41.995,8.041 36.289,8.589 35.699,8.627 34.157,3.574 37.61,2.884"
   id="42015"
   inkscape:label="Bradford, PA"
   inkscape:connector-curvature="0" />
  <path
   style="fill:#72b3dc;stroke:#c2dffb;stroke-width:1"
   d="m 41.836,2.014 5.806,-1.258 1.19,4.49 -2.425,0.523 -1.388,0.275 -2.308,0.5 L 42.68,6.437 41.454,2.095 41.836,2.014"
   id="42115"
   inkscape:label="Susquehanna, PA"
   inkscape:connector-curvature="0" />
  <path
   style="fill:#72b3dc;stroke:#c2dffb;stroke-width:1"
   d="m 47.642,0.756 1.153,-0.256 0.181,0.041 0.568,0.4 0.171,0.162 0.302,0.645 1.181,0.194 1.532,2.749 -0.704,2.127 -0.891,2.102 -0.208,1.211 -1.365,0.392 0.379,-0.28 0.157,-0.189 -1.266,-4.808 -1.19,-4.49"
   id="42127"
   inkscape:label="Wayne, PA"
   inkscape:connector-curvature="0" />
  <path
   style="fill:#72b3dc;stroke:#c2dffb;stroke-width:1"
   d="m 52.73,4.691 0.258,0.591 0.414,0.405 0.293,0.279 1.027,0.533 0.167,0.077 0.758,-0.041 0.423,-0.047 0.767,0.75 -0.569,0.41 -0.27,0.293 -0.23,0.473 -0.049,0.144 -0.117,0.5 -0.018,0.176 0.04,0.041 0.018,0.212 -0.058,0.388 -0.266,0.627 -0.384,0.54 -0.131,0.184 -0.324,0.203 -1.402,-0.586 -0.009,-1.364 -2.141,0.652 0.208,-1.211 0.891,-2.102 0.704,-2.127"
   id="42103"
   inkscape:label="Pike, PA"
   inkscape:connector-curvature="0" />
  <path
   style="fill:#72b3dc;stroke:#c2dffb;stroke-width:1"
   d="m 50.927,10.131 2.141,-0.652 0.009,1.364 1.402,0.586 0.324,-0.203 0.131,-0.184 0.054,0.067 -1.05,1.961 -2.915,2.691 -1.259,-1.451 0.569,-0.695 -1.51,-1.289 -0.307,-0.108 0.347,-0.598 0.699,-1.097 1.365,-0.392"
   id="42089"
   inkscape:label="Monroe, PA"
   inkscape:connector-curvature="0" />
  <path
   style="fill:#72b3dc;stroke:#c2dffb;stroke-width:1"
   d="m 53.938,13.07 0.915,1.078 0.032,0.076 -0.005,0.076 -0.324,0.993 -0.197,0.273 -0.146,0.02 -0.144,-0.014 -0.076,0.021 -0.164,0.385 0.1,0.778 0.238,0.92 0.064,0.117 -1.1,1.2 -0.734,-0.587 -1,-0.613 -1.28,-0.792 -0.127,-0.16 -0.171,-0.455 1.204,-0.625 2.915,-2.691"
   id="42095"
   inkscape:label="Northampton, PA"
   inkscape:connector-curvature="0" />
  <path
   style="fill:#72b3dc;stroke:#c2dffb;stroke-width:1"
   d="m 49.819,16.386 0.171,0.455 0.127,0.16 1.28,0.792 1,0.613 0.734,0.587 -1.099,1.815 -0.514,-0.269 -4.079,-2.173 1.113,-1.015 1.267,-0.965"
   id="42077"
   inkscape:label="Lehigh, PA"
   inkscape:connector-curvature="0" />
  <path
   style="fill:#72b3dc;stroke:#c2dffb;stroke-width:1"
   d="m 54.204,25.018 1.05,0.96 0.941,1.262 -1.783,1.248 -1.835,-0.066 1.627,-3.404"
   id="42045"
   inkscape:label="Delaware, PA"
   inkscape:connector-curvature="0" />
  <path
   style="fill:#72b3dc;stroke:#c2dffb;stroke-width:1"
   d="m 52.032,20.808 5.268,2.57 -0.996,1.095 -0.549,-0.365 -0.554,0.852 0.513,0.396 -0.46,0.622 -1.05,-0.96 -1.077,-0.248 -0.952,-0.753 -0.102,-0.135 -0.032,-0.041 -1,-0.409 -0.55,0.062 1.027,-2.955 0.514,0.269"
   id="42091"
   inkscape:label="Montgomery, PA"
   inkscape:connector-curvature="0" />
  <path
   style="fill:#72b3dc;stroke:#c2dffb;stroke-width:1"
   d="m 50.491,23.494 0.55,-0.062 1,0.409 0.032,0.041 0.102,0.135 0.952,0.753 1.077,0.248 -1.627,3.404 -1.536,1.87 -3.345,0.716 0.567,-0.73 0.127,-0.338 0.154,-0.568 0.098,-0.699 -0.126,-0.346 -0.049,-0.226 -0.036,-0.329 0.063,-2.073 0.591,-0.509 1.406,-1.696"
   id="42029"
   inkscape:label="Chester, PA"
   inkscape:connector-curvature="0" />
  
  
  
  
  
  
  
  
  
  
  
  
  
  
  
  
  
  
  
  
  
  
  
  
  
  
  
  
  
  
  
  
  
  
  
  
  
  
  
  
  
  
  
  
  
  
  
  
  
  
  
  
  
  
  
  
  
  
  
  
  
  
  
  
  
  
  
  
  
  
  
  
  
  
  
  
  
  
  
  
  
  
  
  
  
  
  
  
  
  
  
  
  
  
  
  
  
  
  
  
  
  
  
  
  
  
  
  
  
  
  
  
  
  
  
  
  
  
  
  
  
  
  
  
  
  
  
  
  
  
  
  
  
  
  
  
  
  
  
  
  
  
  
  
  
  
  
  
  
  
  
  
  
  
  
  
  
  
  
  
  
  
  
  
  
  
  
  
  
  
  
  
  
  
  
  
  
  
  
  
  
  
  
  
  
  
  
  
  
  
  
  
  
  
  
  
  
  
  
  
  
  
  
  
  
  
  
  
  
  
  
  
  
  
  
  
  
  
  
  
  
  
  
  
  
  
  
  
  
  
  
  
  
  
  
  
  
  
  
  
  
  
  
  
  
  
  
  
  
  
  
  
  
  
  
  
  
  
  
  
  
  
  
  
  
  
  
  
  
  
  
  
  
  
  
  
  
  
  
  
  
  
  
  
  
  
  
  
  
  
  
  
  
  
  
  
  
  
  
  
  
  
  
  
  
  
  
  
  
  
  
  
  
  
  
  
  
  
  
  
  
  
  
  
  
  
  
  
  
  
  
  
  
  
  
  
  
  
  
  
  
  
  
  
  
  
  
  
  
  
  
  
  
  
  
  
  
  
  
  
  
  
  
  
  
  
  
  
  
  
  
  
  
  
  
  
  
  
  
  
  
  
  
  
  
  
  
  
  
  
  
  
  
  
  
  
  
  
  
  
  
  
  
  
  
  
  
  
  
  
  
  
  
  
  
  
  
  
  
  
  
  
  
  
  
  
  
  
  
  
  
  
  
  
  
  
  
  
  
  
  
  
  
  
  
  
  
  
  
  
  
  
  
  
  
  
  
  
  
  
  
  
  
  
  
  
  
  
  
  
  
  
  
  
  
  
  
  
  
  
  
  
  
  
  
  
  
  
  
  
  
  
  
  
  
  
  
  
  
  
  
  
  
  
  
  
  
  
  
  
  
  
  
  
  
  
  
  
  
  
  
  
  
  
  
  
  
  
  
  
  
  
  
  
  
  
  
  
  
  
  
  
  
  
  
  
  
  
  
  
  
  
  
  
  
  
  
  
  
  
  
  
  
  
  
  
  
  
  
  
  
  
  
  
  
  
  
  
  
  
  
  
  
  
  
  
  
  
  
  
  
  
  
  
  
  
  
  
  
  
  
  
  
  
  
  
  
  
  
  
  
  
  
  
  
  
  
  
  
  
  
  
  
  
  
  
  
  
  
  
  
  
  
  
  
  
  
  
  
  
  
  
  
  
  
  
  
  
  
  
  
  
  
  
  
  
  
  
  
  
  
  
  
  
  
  
  
  
  
  
  
  
  
  
  
  
  
  
  
  
  
  
  
  
  
  
  
  
  
  
  
  
  
  
  
  
  
  
  
  
  
  
  
  
  
  
  
  
  
  
  
  
  
  
  
  
  
  
  
  
  
  
  
  
  
  
  
  
  
  
  
  
  
  
  
  
  
  
  
  
  
  
  
  
  
  
  
  
  
  
  
  
  
  
  
  
  
  
  
  
  
  
  
  
  
  
  
  
  
  
  
  
  
  
  
  
  
  
  
  
  
  
  
  
  
  
  
  
  
  
  
  
  
  
  
  
  
  
  
  
  
  
  
  
  
  
  
  
  
  
  
  
  
  
  
  
  
  
  
  
  
  
  
  
  
  
  
  
  
  
  
  
  
  
  
</svg>