<?xml version="1.0" encoding="UTF-8" standalone="no"?>
<!--?xml version="1.0" encoding="UTF-8" standalone="no"?-->

<svg
   xmlns:dc="http://purl.org/dc/elements/1.1/"
   xmlns:cc="http://creativecommons.org/ns#"
   xmlns:rdf="http://www.w3.org/1999/02/22-rdf-syntax-ns#"
   xmlns:svg="http://www.w3.org/2000/svg"
   xmlns="http://www.w3.org/2000/svg"
   xmlns:sodipodi="http://sodipodi.sourceforge.net/DTD/sodipodi-0.dtd"
   xmlns:inkscape="http://www.inkscape.org/namespaces/inkscape"
   width="57.456444"
   height="43.887199"
   viewBox="0 0 53.110998 40.089269"
   preserveAspectRatio="xMinYMin meet"
   xml:space="preserve"
   id="svg2636"
   version="1.1"
   inkscape:version="0.48.2 r9819"
   sodipodi:docname="SC.svg"><metadata
   id="metadata2688"><rdf:RDF><cc:Work
       rdf:about=""><dc:format>image/svg+xml</dc:format><dc:type
         rdf:resource="http://purl.org/dc/dcmitype/StillImage" /></cc:Work></rdf:RDF></metadata><defs
   id="defs2686" /><sodipodi:namedview
   pagecolor="#ffffff"
   bordercolor="#666666"
   borderopacity="1"
   objecttolerance="10"
   gridtolerance="10"
   guidetolerance="10"
   inkscape:pageopacity="0"
   inkscape:pageshadow="2"
   inkscape:window-width="640"
   inkscape:window-height="480"
   id="namedview2684"
   showgrid="false"
   inkscape:zoom="0.56730769"
   inkscape:cx="-163.22146"
   inkscape:cy="51.556309"
   inkscape:window-x="0"
   inkscape:window-y="0"
   inkscape:window-maximized="0"
   inkscape:current-layer="svg2636" />
  
  
  
  
  
  
  
  
  
  
  
  
  
  
  
  
  
  
  
  
  
  
  
  
  
  
  
  
  
  
  
  
  
  
  
  
  
  
  
  
  
  
  
  
  
  
  
  
  
  
  
  
  
  
  
  
  
  
  
  
  
  
  
  
  
  
  
  
  
  
  
  
  
  
  
  
  
  
  
  
  
  
  
  
  
  
  
  
  
  
  
  
  
  
  
  
  
  
  
  
  
  
  
  
  
  
  
  
  
  
  
  
  
  
  
  
  
  
  
  
  
  
  
  
  
  
  
  
  
  
  
  
  
  
  
  
  
  
  
  
  
  
  
  
  
  
  
  
  
  
  
  
  
  
  
  
  
  
  
  
  
  
  
  
  
  
  
  
  
  
  
  
  
  
  
  
  
  
  
  
  
  
  
  
  
  
  
  
  
  
  
  
  
  
  
  
  
  
  
  
  
  
  
  
  
  
  
  
  
  
  
  
  
  
  
  
  
  
  
  
  
  
  
  
  
  
  
  
  
  
  
  
  
  
  
  
  
  
  
  
  
  
  
  
  
  
  
  
  
  
  
  
  
  
  
  
  
  
  
  
  
  
  
  
  
  
  
  
  
  
  
  
  
  
  
  
  
  
  
  
  
  
  
  
  
  
  
  
  
  
  
  
  
  
  
  
  
  
  
  
  
  
  
  
  
  
  
  
  
  
  
  
  
  
  
  
  
  
  
  
  
  
  
  
  
  
  
  
  
  
  
  
  
  
  
  
  
  
  
  
  
  
  
  
  
  
  
  
  
  
  
  
  
  
  
  
  
  
  
  
  
  
  
  
  
  
  
  
  
  
  
  
  
  
  
  
  
  
  
  
  
  
  
  
  
  
  
  
  
  
  
  
  
  
  
  
  
  
  
  
  
  
  
  
  
  
  
  
  
  
  
  
  
  
  
  
  
  
  
  
  
  
  
  
  
  
  
  
  
  
  
  
  
  
  
  
  
  
  
  
  
  
  
  
  
  
  
  
  
  
  
  
  
  
  
  
  
  
  
  
  
  
  
  
  
  
  
  
  
  
  
  
  
  
  
  
  
  
  
  
  
  
  
  
  
  
  
  
  
  
  
  
  
  
  
  
  
  
  
  
  
  
  
  
  
  
  
  
  
  
  
  
  
  
  
  
  
  
  
  
  
  
  
  
  
  
  
  
  
  
  
  
  
  
  
  
  
  
  
  
  
  
  
  
  
  
  
  
  
  
  
  
  
  
  
  
  
  
  
  
  
  
  
  
  
  
  
  
  
  
  
  
  
  
  
  
  
  
  
  
  
  
  
  
  
  
  
  
  
  
  
  
  
  
  
  
  
  
  
  
  
  
  
  
  
  
  
  
  
  
  
  
  
  
  
  
  
  
  
  
  
  
  
  
  
  
  
  
  
  
  
  
  
  
  
  
  
  
  
  
  
  
  
  
  
  
  
  
  
  
  
  
  
  
  
  
  
  
  
  
  
  
  
  
  
  
  
  
  
  
  
  
  
  
  
  
  
  
  
  
  
  
  
  
  
  
  
  
  
  
  
  
  
  
  
  
  
  
  
  
  
  
  
  
  
  
  
  
  
  
  
  
  
  
  
  
  
  
  
  
  
  
  
  
  
  
  
  
  
  
  
  
  
  
  
  
  
  
  
  
  
  
  
  
  
  
  
  
  
  
  
  
  
  
  
  
  
  
  
  
  
  
  
  
  
  
  
  
  
  
  
  
  
  
  
  
  
  
  
  
  
  
  
  
  
  
  
  
  
  
  
  
  
  
  
  
  
  
  
  
  
  
  
  
  
  
  
  
  
  
  
  
  
  
  
  
  
  
  
  
  
  
  
  
  
  
  
  
  
  
  
  
  
  
  
  
  
  
  
  
  
  
  
  
  
  
  
  
  
  
  
  
  
  
  
  
  
  
  
  
  
  
  
  
  
  
  
  
  
  
  
  
  
  
  
  
  
  
  
  
  
  
  
  
  
  
  
  
  
  
  
  
  
  
  
  
  
  
  
  
  
  
  
  
  
  
  
  
  
  
  
  
  
  
  
  
  
  
  
  
  
  
  
  
  
  
  
  
  
  
  
  
  
  
  
  
  
  
  
  
  
  
  
  
  
  
  
  
  
  
  
  
  
  
  
  
  
  
  
  
  
  
  
  
  
  
  
  
  
  
  
  
  
  
  
  
  
  
  
  
  
  
  
  
  
  
  
  
  
  
  
  
  
  
  
  
  
  
  
  
  
  
  
  
  
  
  
  
  
  
  
  
  
  
  
  
  
  
  
  
  
  
  
  
  
  
  
  
  
  
  
  
  
  
  
  
  
  
  
  
  
  
  
  
  
  
  
  
  
  
  
  
  
  
  
  
  
  
  
  
  
  
  
  
  
  
  
  
  
  
  
  
  
  
  
  
  
  
  
  
  
  
  
  
  
  
  
  
  
  
  
  
  
  
  
  
  
  
  
  
  
  
  
  
  
  
  
  
  
  
  
  
  
  
  
  
  
  
  
  
  
  
  
  
  
  
  
  
  
  
  
  
  
  
  
  
  
  
  
  
  
  
  
  
  
  
  
  
  
  
  
  
  
  
  
  
  
  
  
  
  
  
  
  
  
  
  
  
  
  
  
  
  
  
  
  
  
  
  
  
  
  
  
  
  
  
  
  
  
  
  
  
  
  
  
  
  
  
  
  
  
  
  
  
  
  
  
  
  
  
  
  
  
  
  
  
  
  
  
  
  
  
  
  
  
  
  
  
  
  
  
  
  
  
  
  
  
  
  
  
  
  
  
  
  
  
  
  
  
  
  
  
  
  
  
  
  
  
  
  
  
  
  
  
  
  
  
  
  
  
  
  
  
  
  
  
  
  
  
  
  
  
  
  
  
  
  
  
  
  
  
  
  
  
  
  
  
  
  
  
  
  
  
  
  
  
  
  
  
  
  
  
  
  
  
  
  
  
  
  
  
  
  
  
  
  
  
  
  
  
  
  
  
  
  
  
  
  
  
  
  
  
  
  
  
  
  
  
  
  
  
  
  
  
  
  
  
  
  
  
  
  
  
  
  
  
  
  
  
  
  
  
  
  
  
  
  
  
  
  
  
  
  
  
  
  
  
  
  
  
  
  
  
  
  
  
  
  
  
  
  
  
  
  
  
  
  
  
  
  
  
  
  
  
  
  
  
  
  
  
  
  
  
  
  
  
  
  
  
  
  
  
  
  
  
  
  
  
  
  
  
  
  
  
  
  
  
  
  
  
  
  
  
  
  
  
  
  
  
  
  
  
  
  
  
  
  
  
  
  
  
  
  
  
  
  
  
  
  
  
  
  
  
  
  
  
  
  
  
  
  
  
  
  
  
  
  
  
  
  
  
  
  
  
  
  
  
  
  
  
  
  
  
  
  
  
  
  
  
  
  
  
  
  
  
  
  
  
  
  
  
  
  
  
  
  
  
  
  
  
  
  
  
  
  
  
  
  
  
  
  
  
  
  
  
  
  
  
  
  
  
  
  
  
  
  
  
  
  
  
  
  
  
  
  
  
  
  
  
  
  
  
  
  
  
  
  
  
  
  
  
  
  
  
  
  
  
  
  
  
  
  
  
  
  
  
  
  
  
  
  
  
  
  
  
  
  
  
  
  
  
  
  
  
  
  
  
  
  
  
  
  
  
  
  
  
  
  
  
  
  
  
  
  
  
  
  
  
  
  
  
  
  
  
  
  
  
  
  
  
  
  
  
  
  
  
  
  
  
  
  
  
  
  
  
  
  
  
  
  
  
  
  
  
  
  
  
  
  
  
  
  
  
  
  
  
  
  
  
  
  
  
  
  
  
  
  
  
  
  
  
  
  
  
  
  
  
  
  
  
  
  
  
  
  
  
  
  
  
  
  
  
  
  
  
  
  
  
  
  
  
  
  
  
  
  
  
  
  
  
  
  
  
  
  
  
  
  
  
  
  
  
  
  
  
  
  
  
  
  
  
  
  
  
  
  
  
  
  
  
  
  
  
  
  
  
  
  
  
  
  
  
  
  
  
  
  
  
  
  
  
  
  
  
  
  
  
  
  
  
  
  
  
  
  
  
  
  
  
  
  
  
  
  
  
  
  
  
  
  
  
  
  
  
  
  
  
  
  
  
  
  
  
  
  
  
  
  
  
  
  
  
  
  
  
  
  
  
  
  
  
  
  
  
  
  
  
  
  
  
  
  
  
  
  
  
  
  
  
  
  
  
  
  
  
  
  
  
  
  
  
  
  
  
  
  
  
  
  
  
  
  
  
  
  
  
  
  
  
  
  
  
  
  
  
  
  
  
  
  
  
  
  
  
  
  
  
  
  
  
  
  
  
  
  
  
  
  
  
  
  
  
  
  
  
  
  
  
  
  
  
  
  
  
  
  
  
  
  
  
  
  
  
  
  
  
  
  
  
  
  
  
  
  
  
  
  
  
  
  
  
  
  
  
  
  
  
  
  
  
  
  
  
  
  
  
  
  
  
  
  
  
  
  
  
  
  
  
  
  
  
  
  
  
  
  
  
  
  
  
  
  
  
  
  
  
  
  
  
  
  
  
  
  
  
  
  
  
  
  
  
  
  
  
  
  
  
  
  
  
  
  
  
  
  
  
  
  
  
  
  
  
  
  
  
  
  
  
  
  
  
  
  
  
  
  
  
  
  
  
  
  
  
  
  
  
  
  
  
  
  
  
  
  
  
  
  
  
  
  
  
  
  
  
  
  
  
  
  
  
  
  
  
  
  
  
  
  
  
  
  
  
  
  
  
  
  
  
  
  
  
  
  
  
  
  
  
  
  
  
  
  
  
  
  
  
  
  
  
  
  
  
  
  
  
  
  
  
  
  
  
  
  
  
  
  
  
  
  
  
  
  
  
  
  
  
  
  
  
  
  
  
  
  
  
  
  
  
  
  
  
  
  
  
  
  
  
  
  
  
  
  
  
  
  
  
  
  
  
  
  
  
  
  
  
  
  
  
  
  
  
  
  
  
  
  
  
  
  
  
  
  
  
  
  
  
  
  
  
  
  
  
  
  
  
  
  
  
  
  
  
  
  
  
  
  
  
  
  
  
  
  
  
  
  
  
  
  
  
  
  
  
  
  
  
  
  
  
  
  
  
  
  
  
  
  
  
  
  
  
  
  
  
  
  
  
  
  
  
  
  
  
  
  
  
  
  
  
  
  
  
  
  
  <path
   style="fill:#72b3dc;stroke:#c2dffb;stroke-width:1"
   d="M 6.004,4.196 7.987,3.966 8.454,4.543 9.2,6.179 9.313,6.481 9.399,6.918 9.348,6.981 6.018,10.024 4.981,7.211 4.286,5.49 4.468,4.827 4.648,4.543 6.004,4.196"
   id="45077"
   inkscape:label="Pickens, SC"
   inkscape:connector-curvature="0" />
  <path
   style="fill:#72b3dc;stroke:#c2dffb;stroke-width:1"
   d="M 4.648,4.543 4.468,4.827 4.286,5.49 4.981,7.211 6.018,10.024 4.684,12.093 4.03,12.002 3.384,11.552 0.708,9.907 0.5,9.56 0.672,8.586 1.365,7.328 2.321,6.585 2.547,5.558 3.548,5.074 4.648,4.543"
   id="45073"
   inkscape:label="Oconee, SC"
   inkscape:connector-curvature="0" />
  <path
   style="fill:#72b3dc;stroke:#c2dffb;stroke-width:1"
   d="m 30.983,31.414 4.191,2.156 0.622,0.905 0.055,0.108 0.031,0.153 -0.023,0.194 -0.122,0.662 -0.103,0.113 -2.664,2.777 -0.617,0.5 -0.636,0.482 -0.27,-0.216 -1.294,-1.037 -0.17,-0.274 -0.091,-0.293 0.013,-0.069 0.135,-0.567 0.572,-0.497 0.564,-0.603 0.298,-0.392 0.076,-0.357 -0.004,-0.828 -0.406,-1.528 -0.054,-0.123 -0.189,-0.278 -0.288,-0.361 0.374,-0.627"
   id="45013"
   inkscape:label="Beaufort, SC"
   inkscape:connector-curvature="0" />
  <path
   style="fill:#72b3dc;stroke:#c2dffb;stroke-width:1"
   d="m 30.983,31.414 -0.374,0.627 -0.271,0.559 -0.194,-0.045 -0.321,-0.117 -0.089,-0.243 0.036,-0.185 -0.036,-0.186 -0.392,-0.365 -0.446,-0.289 -0.221,0.199 -2.366,2.835 -1.127,-0.451 -0.465,-1.884 0.204,-0.098 0.464,-0.312 0.45,-0.761 0.086,-0.614 0.031,-0.476 0.185,-0.515 0.144,-0.198 0.121,-0.113 1.191,-1.049 3.39,3.681"
   id="45049"
   inkscape:label="Hampton, SC"
   inkscape:connector-curvature="0" />
  <path
   style="fill:#72b3dc;stroke:#c2dffb;stroke-width:1"
   d="m 30.609,32.041 0.288,0.361 0.189,0.278 0.054,0.123 0.406,1.528 0.004,0.828 -0.076,0.357 -0.298,0.392 -0.564,0.603 -0.572,0.497 -0.135,0.567 -0.013,0.069 0.091,0.293 0.17,0.274 1.294,1.037 0.27,0.216 0.005,0.604 -2.005,-0.378 -0.609,-0.235 -0.05,-0.049 -0.14,-0.559 -0.102,-0.515 -0.056,-0.252 -0.14,-0.685 -1.144,-2.321 -0.96,-0.793 -0.207,-0.077 2.366,-2.835 0.221,-0.199 0.446,0.289 0.392,0.365 0.036,0.186 -0.036,0.185 0.089,0.243 0.321,0.117 0.194,0.045 0.271,-0.559"
   id="45053"
   inkscape:label="Jasper, SC"
   inkscape:connector-curvature="0" />
  <path
   style="fill:#72b3dc;stroke:#c2dffb;stroke-width:1"
   d="M 41.214,9.655 41.335,9.37 41.92,8.758 42.476,8.509 42.8,8.446 44.985,8.23 l 0.551,0.347 -0.766,2.448 -0.303,0.536 -0.446,0.626 -0.036,0.081 0.045,0.389 0.041,0.143 1.083,1.627 0.576,0.776 0.41,0.482 -1.501,-0.707 -0.127,-0.231 -1.986,-1.487 -0.109,-0.108 -0.172,-0.325 -1.139,-2.438 -0.045,-0.095 0,-0.049 0.153,-0.59"
   id="45067"
   inkscape:label="Marion, SC"
   inkscape:connector-curvature="0" />
  <path
   style="fill:#72b3dc;stroke:#c2dffb;stroke-width:1"
   d="M 41.353,4.485 46.027,7.891 45.536,8.577 44.985,8.23 42.8,8.446 42.476,8.509 41.92,8.758 41.335,9.37 41.214,9.655 40.163,8.943 41.353,4.485"
   id="45033"
   inkscape:label="Dillon, SC"
   inkscape:connector-curvature="0" />
  <path
   style="fill:#72b3dc;stroke:#c2dffb;stroke-width:1"
   d="m 45.536,8.577 0.491,-0.686 5.219,3.728 1.365,0.974 -0.441,0.171 -0.852,0.51 -0.401,0.301 -0.54,0.519 -0.051,0.054 -0.211,0.229 -0.099,0.114 -0.157,0.207 -0.217,0.284 -0.064,0.086 -0.639,0.982 -0.379,0.726 -0.135,0.26 -2.285,-1.351 -0.41,-0.482 -0.576,-0.776 -1.083,-1.627 -0.041,-0.143 -0.045,-0.389 0.036,-0.081 0.446,-0.626 0.303,-0.536 0.766,-2.448"
   id="45051"
   inkscape:label="Horry, SC"
   inkscape:connector-curvature="0" />
  <path
   style="fill:#72b3dc;stroke:#c2dffb;stroke-width:1"
   d="m 44.549,22.446 1.878,1.027 -0.495,1.447 -0.459,0.116 -0.838,0.181 -1.137,1.19 -0.774,1.127 -1.592,1.793 -1.829,2.011 -0.113,0.045 -0.09,0.05 -0.352,0.193 -0.82,0.595 -0.419,0.41 -0.005,-0.005 -0.085,-0.071 -0.663,0.288 -0.117,0.149 0.122,0.108 0.014,0.031 -0.014,0.095 -0.081,0.023 -0.202,-0.051 -0.457,-0.634 -0.635,-1.415 -0.397,-0.695 0.235,-1.131 -0.032,-0.617 1.266,-0.049 1.401,0.129 0.105,-0.012 0.41,-0.951 0.1,-0.573 -0.952,-1.078 1.281,0.637 1.095,0.454 0.36,0.978 0.157,0.072 0.105,-0.035 0.085,-0.078 1.136,-1.883 0.28,-0.924 0.622,-1.343 1.537,-1.41 0.369,-0.194"
   id="45019"
   inkscape:label="Charleston, SC"
   inkscape:connector-curvature="0" />
  <path
   style="fill:#72b3dc;stroke:#c2dffb;stroke-width:1"
   d="m 34.764,23.541 0.18,0.12 0.681,0.759 -0.108,0.275 -0.1,0.117 0.348,0.239 1.757,1.121 0.952,1.078 -0.1,0.573 -0.41,0.951 -0.105,0.012 -1.401,-0.129 -1.266,0.049 -0.23,-2.262 -0.05,-0.127 -0.125,-0.094 -0.027,0 -1.303,0.102 -0.722,0.164 -0.337,-0.051 -0.049,-0.027 -1.966,-1.149 2.726,-2.46 0.054,0.045 0.055,0.076 0.025,0.105 0.007,0.138 0.03,0.095 0.127,0.194 0.118,0.063 0.549,0.131 0.69,-0.108"
   id="45035"
   inkscape:label="Dorchester, SC"
   inkscape:connector-curvature="0" />
  <path
   style="fill:#72b3dc;stroke:#c2dffb;stroke-width:1"
   d="m 37.004,20.021 0.194,-0.158 0.08,-0.023 0.862,-0.112 0.302,0.027 0.78,0.455 0.36,0.275 0.157,0.229 0.078,0.064 1.117,0.604 0.973,0.319 2.642,0.745 -0.369,0.194 -1.537,1.41 -0.622,1.343 -0.28,0.924 -1.136,1.883 -0.085,0.078 -0.105,0.035 -0.157,-0.072 -0.36,-0.978 -1.095,-0.454 -1.281,-0.637 -1.757,-1.121 -0.348,-0.239 0.1,-0.117 0.108,-0.275 -0.681,-0.759 -0.18,-0.12 1.082,-2.629 1.158,-0.891"
   id="45015"
   inkscape:label="Berkeley, SC"
   inkscape:connector-curvature="0" />
  <path
   style="fill:#72b3dc;stroke:#c2dffb;stroke-width:1"
   d="m 44.639,14.978 1.501,0.707 2.285,1.351 -0.667,1.281 -0.031,0.081 -0.073,0.189 -0.021,0.055 -0.006,0.021 -0.005,0.01 -0.215,0.762 -0.028,0.126 -0.036,0.18 -0.009,0.041 -0.036,0.68 -0.01,0.357 -0.012,0.589 -0.005,0.019 0.005,0.004 0.027,0.162 0.004,0.041 0.158,0.384 -0.09,0.45 -0.063,0.112 -0.443,0.618 -0.442,0.275 -1.878,-1.027 -2.642,-0.745 -0.072,-0.18 0.005,-0.239 0.676,-1.505 1.218,-2.222 0.129,-1.225 0.14,-0.357 0.42,-0.883 0.062,-0.055 0.154,-0.057"
   id="45043"
   inkscape:label="Georgetown, SC"
   inkscape:connector-curvature="0" />
  <path
   style="fill:#72b3dc;stroke:#c2dffb;stroke-width:1"
   d="m 37.364,14.049 1.172,0.608 -1.532,5.364 -1.158,0.891 -1.046,0.343 -0.302,0.059 -0.139,-0.014 -0.331,-0.107 -0.431,-0.285 -0.338,-0.324 -0.551,-0.658 -0.581,-1.023 1.181,-1.826 1.974,-1.261 2.082,-1.767"
   id="45027"
   inkscape:label="Clarendon, SC"
   inkscape:connector-curvature="0" />
  <path
   style="fill:#72b3dc;stroke:#c2dffb;stroke-width:1"
   d="m 44.512,14.747 0.127,0.231 -0.154,0.057 -0.062,0.055 -0.42,0.883 -0.14,0.357 -0.129,1.225 -1.218,2.222 -0.676,1.505 -0.005,0.239 0.072,0.18 -0.973,-0.319 -1.117,-0.604 -0.078,-0.064 -0.157,-0.229 -0.36,-0.275 -0.78,-0.455 -0.302,-0.027 -0.862,0.112 -0.08,0.023 -0.194,0.158 1.532,-5.364 0.924,0.492 0.82,0.139 2.493,0.054 0.55,-0.193 0.085,-0.145 0.506,-0.388 0.076,-0.031 0.211,0.013 0.311,0.149"
   id="45089"
   inkscape:label="Williamsburg, SC"
   inkscape:connector-curvature="0" />
  <path
   style="fill:#72b3dc;stroke:#c2dffb;stroke-width:1"
   d="m 39.892,8.897 0.271,0.046 1.051,0.712 -0.153,0.59 0,0.049 0.045,0.095 1.139,2.438 0.172,0.325 0.109,0.108 1.986,1.487 -0.311,-0.149 -0.211,-0.013 -0.076,0.031 -0.506,0.388 -0.085,0.145 -0.55,0.193 -2.493,-0.054 -0.82,-0.139 -0.924,-0.492 -1.172,-0.608 -0.491,-1.249 -0.838,-0.36 2.141,-2.299 0.991,-0.987 0.725,-0.257"
   id="45041"
   inkscape:label="Florence, SC"
   inkscape:connector-curvature="0" />
  <path
   style="fill:#72b3dc;stroke:#c2dffb;stroke-width:1"
   d="m 35.981,2.971 2.493,-0.406 2.736,1.821 0.143,0.099 -1.19,4.458 -0.271,-0.046 0,-0.05 L 39.577,8.05 39.411,7.734 39.014,7.576 38.95,7.58 38.92,7.595 38.884,7.576 37.626,6.613 37.605,6.58 37.576,6.373 37.599,6.31 35.981,2.971"
   id="45069"
   inkscape:label="Marlboro, SC"
   inkscape:connector-curvature="0" />
  <path
   style="fill:#72b3dc;stroke:#c2dffb;stroke-width:1"
   d="m 37.599,6.31 -0.023,0.063 0.029,0.207 0.021,0.033 1.258,0.963 0.036,0.019 0.03,-0.015 0.064,-0.004 0.397,0.158 0.166,0.316 0.315,0.797 0,0.05 -0.725,0.257 -0.991,0.987 -2.141,2.299 -0.041,0.009 -0.865,-0.614 -0.158,-0.207 0.293,-0.387 0.054,-0.555 L 34.89,9.992 34.449,9.551 34.092,9.443 33.178,9.267 33.178,9.24 35.44,7.198 37.599,6.31"
   id="45031"
   inkscape:label="Darlington, SC"
   inkscape:connector-curvature="0" />
  <path
   style="fill:#72b3dc;stroke:#c2dffb;stroke-width:1"
   d="m 33.178,9.267 0.914,0.176 0.357,0.108 0.441,0.441 0.428,0.694 -0.054,0.555 -0.293,0.387 0.158,0.207 0.865,0.614 0.041,-0.009 0.838,0.36 -0.189,0.55 -1.333,0.901 -0.155,0.096 -3.42,-1.51 -0.18,-0.74 0.135,-0.153 0.253,-0.681 -0.045,-0.388 -0.041,-0.167 0.298,-0.409 0.982,-1.032"
   id="45061"
   inkscape:label="Lee, SC"
   inkscape:connector-curvature="0" />
  <path
   style="fill:#72b3dc;stroke:#c2dffb;stroke-width:1"
   d="m 31.397,6.265 1.781,2.975 0,0.027 -0.982,1.032 -0.298,0.409 0.041,0.167 0.045,0.388 -0.253,0.681 -0.135,0.153 -1.285,1.117 -1.019,0.569 -1.811,-1.199 0.284,-1.177 -0.947,-2.334 1.249,-1.28 0.058,-0.005 0.031,0.415 0.334,0.108 0.712,0.013 1.192,-0.437 -0.363,-0.681 1.366,-0.941"
   id="45055"
   inkscape:label="Kershaw, SC"
   inkscape:connector-curvature="0" />
  <path
   style="fill:#72b3dc;stroke:#c2dffb;stroke-width:1"
   d="m 31.596,12.097 0.18,0.74 3.42,1.51 0.155,-0.096 1.333,-0.901 0.189,-0.55 0.491,1.249 -2.082,1.767 -1.974,1.261 -1.181,1.826 -1.113,-1.122 -0.703,-4.567 1.285,-1.117"
   id="45085"
   inkscape:label="Sumter, SC"
   inkscape:connector-curvature="0" />
  <path
   style="fill:#72b3dc;stroke:#c2dffb;stroke-width:1"
   d="m 26.602,16.695 0.553,0.337 1.637,0.695 0.843,0.034 1.379,0.02 1.113,1.122 0.581,1.023 -0.117,0.284 -1.09,1.028 -0.33,0.089 -3.555,-1.451 -0.982,-0.92 0.855,-0.536 0.289,-0.293 -0.149,-0.099 -0.293,-0.126 -0.549,0.059 -0.163,0.252 -0.265,-0.107 -0.022,-1.092 0.017,-0.157 0.248,-0.162"
   id="45017"
   inkscape:label="Calhoun, SC"
   inkscape:connector-curvature="0" />
  <path
   style="fill:#72b3dc;stroke:#c2dffb;stroke-width:1"
   d="m 30.383,25.262 1.966,1.149 0.049,0.027 0.337,0.051 0.722,-0.164 1.303,-0.102 0.027,0 0.125,0.094 0.05,0.127 0.23,2.262 0.032,0.617 -0.235,1.131 0.397,0.695 0.635,1.415 0.457,0.634 0.202,0.051 0.081,-0.023 0.014,-0.095 -0.014,-0.031 -0.122,-0.108 0.117,-0.149 0.663,-0.288 0.085,0.071 0.005,0.005 -0.78,0.808 -0.063,0 -0.884,-0.009 -0.608,0.14 -4.191,-2.156 -3.39,-3.681 2.718,-2.408 0.072,-0.063"
   id="45029"
   inkscape:label="Colleton, SC"
   inkscape:connector-curvature="0" />
  <path
   style="fill:#72b3dc;stroke:#c2dffb;stroke-width:1"
   d="m 27.593,27.733 -1.191,1.049 -0.121,0.113 -0.144,0.198 -0.185,0.515 -0.031,0.476 -0.086,0.614 -0.45,0.761 -0.464,0.312 -0.204,0.098 -2.05,-3.619 -0.884,-0.486 0.663,-0.955 0.992,0.152 0.991,0.198 0.861,-0.139 0.943,-0.279 1.36,0.992"
   id="45005"
   inkscape:label="Allendale, SC"
   inkscape:connector-curvature="0" />
  <path
   style="fill:#72b3dc;stroke:#c2dffb;stroke-width:1"
   d="m 30.311,25.325 -2.718,2.408 -1.36,-0.992 -0.379,-0.428 -0.05,-0.186 -0.316,-2.636 -0.089,-0.456 -0.127,-0.356 1.266,0.56 1.163,0.396 0.338,0.117 1.082,0.564 1.19,1.009"
   id="45009"
   inkscape:label="Bamberg, SC"
   inkscape:connector-curvature="0" />
  <path
   style="fill:#72b3dc;stroke:#c2dffb;stroke-width:1"
   d="m 26.634,18.956 0.982,0.92 3.555,1.451 0.33,-0.089 1.09,-1.028 0.117,-0.284 0.551,0.658 0.338,0.324 0.431,0.285 0.331,0.107 0.139,0.014 0.302,-0.059 1.046,-0.343 -1.082,2.629 -0.69,0.108 -0.549,-0.131 -0.118,-0.063 -0.127,-0.194 -0.03,-0.095 -0.007,-0.138 -0.025,-0.105 -0.055,-0.076 -0.054,-0.045 -2.726,2.46 -0.072,0.063 -1.19,-1.009 -1.082,-0.564 -0.338,-0.117 -1.163,-0.396 -1.266,-0.56 -1.691,-0.4 1.642,-2.385 1.411,-0.938"
   id="45075"
   inkscape:label="Orangeburg, SC"
   inkscape:connector-curvature="0" />
  <path
   style="fill:#72b3dc;stroke:#c2dffb;stroke-width:1"
   d="m 25.272,22.679 0.127,0.356 0.089,0.456 0.316,2.636 0.05,0.186 0.379,0.428 -0.943,0.279 -0.861,0.139 -0.991,-0.198 -0.992,-0.152 -0.663,0.955 -1.799,-0.843 3.597,-4.642 1.691,0.4"
   id="45011"
   inkscape:label="Barnwell, SC"
   inkscape:connector-curvature="0" />
  <path
   style="fill:#72b3dc;stroke:#c2dffb;stroke-width:1"
   d="m 20.724,17.65 0.045,0.067 0.442,0.446 1.447,1.091 0.247,0.031 0.379,-0.008 0.24,0.032 0.662,0.183 1.037,0.402 -1.642,2.385 -3.597,4.642 -1.003,-0.758 -0.7,-0.991 -0.253,-0.977 -0.715,-0.834 -0.505,-0.478 -0.091,-0.086 3.282,-4.214 0.725,-0.933"
   id="45003"
   inkscape:label="Aiken, SC"
   inkscape:connector-curvature="0" />
  <path
   style="fill:#72b3dc;stroke:#c2dffb;stroke-width:1"
   d="m 22.536,13.169 1.249,1.055 0.311,0 0.391,0.041 0.393,0.229 0.964,0.695 0.176,0.185 0.397,0.608 0.036,0.072 0.149,0.641 -0.248,0.162 -0.017,0.157 0.022,1.092 0.265,0.107 0.163,-0.252 0.549,-0.059 0.293,0.126 0.149,0.099 -0.289,0.293 -0.855,0.536 -1.411,0.938 -1.037,-0.402 -0.662,-0.183 -0.24,-0.032 -0.379,0.008 -0.247,-0.031 -1.447,-1.091 -0.442,-0.446 -0.045,-0.067 0.655,-2.713 1.157,-1.768"
   id="45063"
   inkscape:label="Lexington, SC"
   inkscape:connector-curvature="0" />
  <path
   style="fill:#72b3dc;stroke:#c2dffb;stroke-width:1"
   d="m 27.765,11.407 -0.284,1.177 1.811,1.199 1.019,-0.569 0.703,4.567 -1.379,-0.02 -0.843,-0.034 -1.637,-0.695 -0.553,-0.337 -0.149,-0.641 -0.036,-0.072 -0.397,-0.608 -0.176,-0.185 -0.964,-0.695 -0.393,-0.229 -0.391,-0.041 -0.311,0 -1.249,-1.055 0.144,-0.571 0.356,0.026 1.704,-0.04 1.63,-0.735 1.395,-0.442"
   id="45079"
   inkscape:label="Richland, SC"
   inkscape:connector-curvature="0" />
  <path
   style="fill:#72b3dc;stroke:#c2dffb;stroke-width:1"
   d="m 26.66,7.978 0.158,1.095 0.947,2.334 -1.395,0.442 -1.63,0.735 -1.704,0.04 L 22.68,12.598 21.063,9.501 20.913,8.505 22.734,8.324 25.159,8.131 26.66,7.978"
   id="45039"
   inkscape:label="Fairfield, SC"
   inkscape:connector-curvature="0" />
  <path
   style="fill:#72b3dc;stroke:#c2dffb;stroke-width:1"
   d="m 21.063,9.501 1.617,3.097 -0.144,0.571 -1.157,1.768 -0.316,0.081 -0.464,-0.108 -0.307,-0.113 -0.69,-0.392 -0.807,-0.338 -0.274,-0.076 -1.186,0.301 -0.293,0.329 0.04,0.194 -0.914,-0.753 0.27,-0.631 0.842,-1.424 0.281,-0.279 0.648,-1.254 0.479,-1.122 1.373,0.793 0.37,-0.49 0.159,-0.078 0.311,-0.086 0.14,-0.003 0.022,0.013"
   id="45071"
   inkscape:label="Newberry, SC"
   inkscape:connector-curvature="0" />
  <path
   style="fill:#72b3dc;stroke:#c2dffb;stroke-width:1"
   d="m 17.082,14.815 -0.04,-0.194 0.293,-0.329 1.186,-0.301 0.274,0.076 0.807,0.338 0.69,0.392 0.307,0.113 0.464,0.108 0.316,-0.081 -0.655,2.713 -0.725,0.933 -2.047,-0.37 -0.265,-0.158 -0.139,-0.121 -0.416,-1.028 -0.397,0.041 -0.771,0.311 1.118,-2.443"
   id="45081"
   inkscape:label="Saluda, SC"
   inkscape:connector-curvature="0" />
  <path
   style="fill:#72b3dc;stroke:#c2dffb;stroke-width:1"
   d="m 15.964,17.258 0.771,-0.311 0.397,-0.041 0.416,1.028 0.139,0.121 0.265,0.158 2.047,0.37 -3.282,4.214 -0.175,-0.163 -1.042,-0.441 -0.929,-1.619 -0.098,-2.672 1.099,-0.473 0.392,-0.171"
   id="45037"
   inkscape:label="Edgefield, SC"
   inkscape:connector-curvature="0" />
  <path
   style="fill:#72b3dc;stroke:#c2dffb;stroke-width:1"
   d="m 15.572,17.429 -1.099,0.473 0.098,2.672 0.929,1.619 -1.234,-1.077 -0.428,-0.807 -0.663,-0.545 -0.279,-0.199 -0.92,-0.464 -0.049,-0.004 -0.15,0.058 -0.067,-0.018 -1.595,-0.95 -0.442,-0.672 0.591,-0.87 0.445,-0.14 0.393,0.171 0.117,-0.008 0.681,-0.068 0.518,-0.163 0.519,1.037 0.82,-0.207 0.657,-0.109 1.118,-0.122 0.04,0.393"
   id="45065"
   inkscape:label="McCormick, SC"
   inkscape:connector-curvature="0" />
  <path
   style="fill:#72b3dc;stroke:#c2dffb;stroke-width:1"
   d="m 12.62,11.881 0.19,0.198 0.907,0.662 1.55,0.807 0.901,0.514 0.914,0.753 -1.118,2.443 -0.392,0.171 -0.04,-0.393 -1.118,0.122 -0.657,0.109 -0.82,0.207 -0.519,-1.037 0.342,-0.383 0.202,-0.275 0.136,-0.365 0.045,-0.379 -0.049,-0.365 -0.136,-0.35 -0.225,-0.298 -0.154,-0.145 -0.206,-0.148 -0.149,-0.059 -0.402,-0.798 0.798,-0.991"
   id="45047"
   inkscape:label="Greenwood, SC"
   inkscape:connector-curvature="0" />
  <path
   style="fill:#72b3dc;stroke:#c2dffb;stroke-width:1"
   d="m 16.37,8.901 2.318,0.451 -0.479,1.122 -0.648,1.254 -0.281,0.279 -0.842,1.424 -0.27,0.631 -0.901,-0.514 -1.55,-0.807 -0.907,-0.662 -0.19,-0.198 -0.846,-0.852 0.716,-0.784 -0.117,-0.654 0.32,-1.496 0.261,-1.19 3.416,1.996"
   id="45059"
   inkscape:label="Laurens, SC"
   inkscape:connector-curvature="0" />
  <path
   style="fill:#72b3dc;stroke:#c2dffb;stroke-width:1"
   d="m 11.774,11.029 0.846,0.852 -0.798,0.991 0.402,0.798 0.149,0.059 0.206,0.148 0.154,0.145 0.225,0.298 0.136,0.35 0.049,0.365 -0.045,0.379 -0.136,0.365 -0.202,0.275 -0.342,0.383 -0.518,0.163 -0.681,0.068 -0.117,0.008 -0.393,-0.171 -0.445,0.14 -0.591,0.87 -1.875,-2.312 3.976,-4.174"
   id="45001"
   inkscape:label="Abbeville, SC"
   inkscape:connector-curvature="0" />
  <path
   style="fill:#72b3dc;stroke:#c2dffb;stroke-width:1"
   d="m 6.018,10.024 3.33,-3.043 0.487,1.92 0.036,0.113 0.181,0.415 0.464,0.77 1.258,0.83 L 7.798,15.203 7.401,14.17 6.284,12.598 5.933,12.056 5.937,12.021 5.829,11.939 5.608,11.876 5.23,11.926 4.81,12.03 4.801,12.034 4.684,12.093 6.018,10.024"
   id="45007"
   inkscape:label="Anderson, SC"
   inkscape:connector-curvature="0" />
  <path
   style="fill:#72b3dc;stroke:#c2dffb;stroke-width:1"
   d="m 17.235,4.597 0.721,0.095 1.411,0.063 0.203,0.059 0.126,0.068 0.33,0.251 -0.185,0.262 1.072,3.11 0.15,0.996 -0.022,-0.013 -0.14,0.003 -0.311,0.086 -0.159,0.078 -0.37,0.49 L 18.688,9.352 16.37,8.901 16.527,7.499 16.636,5.679 16.97,5.043 17.235,4.597"
   id="45087"
   inkscape:label="Union, SC"
   inkscape:connector-curvature="0" />
  <path
   style="fill:#72b3dc;stroke:#c2dffb;stroke-width:1"
   d="M 31.888,3.564 35.981,2.971 37.599,6.31 35.44,7.198 33.178,9.24 31.397,6.265 29.379,3.936 31.888,3.564"
   id="45025"
   inkscape:label="Chesterfield, SC"
   inkscape:connector-curvature="0" />
  <path
   style="fill:#72b3dc;stroke:#c2dffb;stroke-width:1"
   d="m 25.263,1.19 0.838,0.856 0.739,0.744 0.072,1.316 0.005,0.122 0.212,0.04 2.25,-0.332 2.018,2.329 -1.366,0.941 0.363,0.681 L 29.202,8.324 28.49,8.311 28.156,8.203 28.125,7.788 28.067,7.793 26.818,9.073 26.66,7.978 26.273,6.832 26.286,6.391 26.435,5.859 26.209,5.21 25.984,4.633 25.871,4.457 25.263,1.19"
   id="45057"
   inkscape:label="Lancaster, SC"
   inkscape:connector-curvature="0" />
  <path
   style="fill:#72b3dc;stroke:#c2dffb;stroke-width:1"
   d="m 25.871,4.457 0.113,0.176 0.225,0.577 0.226,0.649 -0.149,0.532 -0.013,0.441 0.387,1.146 -1.501,0.153 -2.425,0.193 -1.821,0.181 -1.072,-3.11 6.03,-0.938"
   id="45023"
   inkscape:label="Chester, SC"
   inkscape:connector-curvature="0" />
  <path
   style="fill:#72b3dc;stroke:#c2dffb;stroke-width:1"
   d="M 20.724,0.771 23.698,0.5 25.263,1.19 25.871,4.457 19.841,5.395 20.026,5.133 19.831,4.769 19.493,3.881 19.327,2.745 19.331,2.673 20.017,1.231 20.318,0.811 20.724,0.771"
   id="45091"
   inkscape:label="York, SC"
   inkscape:connector-curvature="0" />
  <path
   style="fill:#72b3dc;stroke:#c2dffb;stroke-width:1"
   d="m 16.132,1.253 4.186,-0.442 -0.301,0.42 -0.686,1.442 -0.004,0.072 0.166,1.136 0.338,0.888 0.195,0.364 L 19.696,4.882 19.57,4.814 19.367,4.755 17.956,4.692 17.235,4.597 16.704,4.313 16.141,3.147 15.023,1.366 16.132,1.253"
   id="45021"
   inkscape:label="Cherokee, SC"
   inkscape:connector-curvature="0" />
  <path
   style="fill:#72b3dc;stroke:#c2dffb;stroke-width:1"
   d="m 14.035,1.474 0.988,-0.108 1.118,1.781 0.563,1.166 0.531,0.284 L 16.97,5.043 16.636,5.679 16.527,7.499 16.37,8.901 12.954,6.905 12.03,6.17 11.99,6.067 11.755,4.048 11.457,1.74 14.035,1.474"
   id="45083"
   inkscape:label="Spartanburg, SC"
   inkscape:connector-curvature="0" />
  <path
   style="fill:#72b3dc;stroke:#c2dffb;stroke-width:1"
   d="m 9.999,1.807 1.458,-0.067 0.298,2.308 0.235,2.019 0.04,0.103 0.924,0.735 -0.261,1.19 -0.32,1.496 0.117,0.654 -0.716,0.784 -1.258,-0.83 L 10.052,9.429 9.871,9.014 9.835,8.901 9.348,6.981 9.399,6.918 9.313,6.481 9.2,6.179 8.454,4.543 7.987,3.966 6.004,4.196 7.852,2.934 9.999,1.807"
   id="45045"
   inkscape:label="Greenville, SC"
   inkscape:connector-curvature="0" />
  
  
  
  
  
  
  
  
  
  
  
  
  
  
  
  
  
  
  
  
  
  
  
  
  
  
  
  
  
  
  
  
  
  
  
  
  
  
  
  
  
  
  
  
  
  
  
  
  
  
  
  
  
  
  
  
  
  
  
  
  
  
  
  
  
  
  
  
  
  
  
  
  
  
  
  
  
  
  
  
  
  
  
  
  
  
  
  
  
  
  
  
  
  
  
  
  
  
  
  
  
  
  
  
  
  
  
  
  
  
  
  
  
  
  
  
  
  
  
  
  
  
  
  
  
  
  
  
  
  
  
  
  
  
  
  
  
  
  
  
  
  
  
  
  
  
  
  
  
  
  
  
  
  
  
  
  
  
  
  
  
  
  
  
  
  
  
  
  
  
  
  
  
  
  
  
  
  
  
  
  
  
  
  
  
  
  
  
  
  
  
  
  
  
  
  
  
  
  
  
  
  
  
  
  
  
  
  
  
  
  
  
  
  
  
  
  
  
  
  
  
  
  
  
  
  
  
  
  
  
  
  
  
  
  
  
  
  
  
  
  
  
  
  
  
  
  
  
  
  
  
  
  
  
  
  
  
  
  
  
  
  
  
  
  
  
  
  
  
  
  
  
  
  
  
  
  
  
  
  
  
  
  
  
  
  
  
  
  
  
  
  
  
  
  
  
  
  
  
  
  
  
  
  
  
  
  
  
  
  
  
  
  
  
  
  
  
  
  
  
  
  
  
  
  
  
  
  
  
  
  
  
  
  
  
  
  
  
  
  
  
  
  
  
  
  
  
  
  
  
  
  
  
  
  
  
  
  
  
  
  
  
  
  
  
  
  
  
  
  
  
  
  
  
  
  
  
  
  
  
  
  
  
  
  
  
  
  
  
  
  
  
  
  
  
  
  
  
  
  
  
  
  
  
  
  
  
  
  
  
  
  
  
  
  
  
  
  
  
  
  
  
  
  
  
  
  
  
  
  
  
  
  
  
  
  
  
  
  
  
  
  
  
  
  
  
  
  
  
  
  
  
  
  
  
  
  
  
  
  
  
  
  
  
  
  
  
  
  
  
  
  
  
  
  
  
  
  
  
  
  
  
  
  
  
  
  
  
  
  
  
  
  
  
  
  
  
  
  
  
  
  
  
  
  
  
  
  
  
  
  
  
  
  
  
  
  
  
  
  
  
  
  
  
  
  
  
  
  
  
  
  
  
  
  
  
  
  
  
  
  
  
  
  
  
  
  
  
  
  
  
  
  
  
  
  
  
  
  
  
  
  
  
  
  
  
  
  
  
  
  
  
  
  
  
  
  
  
  
  
  
  
  
  
  
  
  
  
  
  
  
  
  
  
  
  
  
  
  
  
  
  
  
  
  
  
  
  
  
  
  
  
  
  
  
  
  
  
  
  
  
  
  
  
  
  
  
  
  
  
  
  
  
  
  
  
  
  
  
  
  
  
  
  
  
  
  
  
  
  
  
  
  
  
  
  
  
  
  
  
  
  
  
  
  
  
  
  
  
  
  
  
  
  
  
  
  
  
  
  
  
  
  
  
  
  
  
  
  
  
  
  
  
  
  
  
  
  
  
  
  
  
  
  
  
  
  
  
  
  
  
  
  
  
  
  
  
  
  
  
  
  
  
  
  
  
  
  
  
  
  
  
  
  
  
  
  
  
  
  
  
  
  
  
  
  
  
  
  
  
  
  
  
  
  
  
  
  
  
  
  
  
  
  
  
  
  
  
  
  
  
  
  
  
  
  
  
  
  
  
  
  
  
  
</svg>