<?xml version="1.0" encoding="UTF-8" standalone="no"?>
<!--?xml version="1.0" encoding="UTF-8" standalone="no"?-->

<svg
   xmlns:dc="http://purl.org/dc/elements/1.1/"
   xmlns:cc="http://creativecommons.org/ns#"
   xmlns:rdf="http://www.w3.org/1999/02/22-rdf-syntax-ns#"
   xmlns:svg="http://www.w3.org/2000/svg"
   xmlns="http://www.w3.org/2000/svg"
   xmlns:sodipodi="http://sodipodi.sourceforge.net/DTD/sodipodi-0.dtd"
   xmlns:inkscape="http://www.inkscape.org/namespaces/inkscape"
   width="78.490234"
   height="52.716999"
   viewBox="0 0 72.553998 48.154951"
   preserveAspectRatio="xMinYMin meet"
   xml:space="preserve"
   id="svg2690"
   version="1.1"
   inkscape:version="0.48.2 r9819"
   sodipodi:docname="SD.svg"><metadata
   id="metadata2762"><rdf:RDF><cc:Work
       rdf:about=""><dc:format>image/svg+xml</dc:format><dc:type
         rdf:resource="http://purl.org/dc/dcmitype/StillImage" /></cc:Work></rdf:RDF></metadata><defs
   id="defs2760" /><sodipodi:namedview
   pagecolor="#ffffff"
   bordercolor="#666666"
   borderopacity="1"
   objecttolerance="10"
   gridtolerance="10"
   guidetolerance="10"
   inkscape:pageopacity="0"
   inkscape:pageshadow="2"
   inkscape:window-width="640"
   inkscape:window-height="480"
   id="namedview2758"
   showgrid="false"
   inkscape:zoom="0.56730769"
   inkscape:cx="62.377658"
   inkscape:cy="-81.120036"
   inkscape:window-x="0"
   inkscape:window-y="0"
   inkscape:window-maximized="0"
   inkscape:current-layer="svg2690" />
  
  
  
  
  
  
  
  
  
  
  
  
  
  
  
  
  
  
  
  
  
  
  
  
  
  
  
  
  
  
  
  
  
  
  
  
  
  
  
  
  
  
  
  
  
  
  
  
  
  
  
  
  
  
  
  
  
  
  
  
  
  
  
  
  
  
  
  
  
  
  
  
  
  
  
  
  
  
  
  
  
  
  
  
  
  
  
  
  
  
  
  
  
  
  
  
  
  
  
  
  
  
  
  
  
  
  
  
  
  
  
  
  
  
  
  
  
  
  
  
  
  
  
  
  
  
  
  
  
  
  
  
  
  
  
  
  
  
  
  
  
  
  
  
  
  
  
  
  
  
  
  
  
  
  
  
  
  
  
  
  
  
  
  
  
  
  
  
  
  
  
  
  
  
  
  
  
  
  
  
  
  
  
  
  
  
  
  
  
  
  
  
  
  
  
  
  
  
  
  
  
  
  
  
  
  
  
  
  
  
  
  
  
  
  
  
  
  
  
  
  
  
  
  
  
  
  
  
  
  
  
  
  
  
  
  
  
  
  
  
  
  
  
  
  
  
  
  
  
  
  
  
  
  
  
  
  
  
  
  
  
  
  
  
  
  
  
  
  
  
  
  
  
  
  
  
  
  
  
  
  
  
  
  
  
  
  
  
  
  
  
  
  
  
  
  
  
  
  
  
  
  
  
  
  
  
  
  
  
  
  
  
  
  
  
  
  
  
  
  
  
  
  
  
  
  
  
  
  
  
  
  
  
  
  
  
  
  
  
  
  
  
  
  
  
  
  
  
  
  
  
  
  
  
  
  
  
  
  
  
  
  
  
  
  
  
  
  
  
  
  
  
  
  
  
  
  
  
  
  
  
  
  
  
  
  
  
  
  
  
  
  
  
  
  
  
  
  
  
  
  
  
  
  
  
  
  
  
  
  
  
  
  
  
  
  
  
  
  
  
  
  
  
  
  
  
  
  
  
  
  
  
  
  
  
  
  
  
  
  
  
  
  
  
  
  
  
  
  
  
  
  
  
  
  
  
  
  
  
  
  
  
  
  
  
  
  
  
  
  
  
  
  
  
  
  
  
  
  
  
  
  
  
  
  
  
  
  
  
  
  
  
  
  
  
  
  
  
  
  
  
  
  
  
  
  
  
  
  
  
  
  
  
  
  
  
  
  
  
  
  
  
  
  
  
  
  
  
  
  
  
  
  
  
  
  
  
  
  
  
  
  
  
  
  
  
  
  
  
  
  
  
  
  
  
  
  
  
  
  
  
  
  
  
  
  
  
  
  
  
  
  
  
  
  
  
  
  
  
  
  
  
  
  
  
  
  
  
  
  
  
  
  
  
  
  
  
  
  
  
  
  
  
  
  
  
  
  
  
  
  
  
  
  
  
  
  
  
  
  
  
  
  
  
  
  
  
  
  
  
  
  
  
  
  
  
  
  
  
  
  
  
  
  
  
  
  
  
  
  
  
  
  
  
  
  
  
  
  
  
  
  
  
  
  
  
  
  
  
  
  
  
  
  
  
  
  
  
  
  
  
  
  
  
  
  
  
  
  
  
  
  
  
  
  
  
  
  
  
  
  
  
  
  
  
  
  
  
  
  
  
  
  
  
  
  
  
  
  
  
  
  
  
  
  
  
  
  
  
  
  
  
  
  
  
  
  
  
  
  
  
  
  
  
  
  
  
  
  
  
  
  
  
  
  
  
  
  
  
  
  
  
  
  
  
  
  
  
  
  
  
  
  
  
  
  
  
  
  
  
  
  
  
  
  
  
  
  
  
  
  
  
  
  
  
  
  
  
  
  
  
  
  
  
  
  
  
  
  
  
  
  
  
  
  
  
  
  
  
  
  
  
  
  
  
  
  
  
  
  
  
  
  
  
  
  
  
  
  
  
  
  
  
  
  
  
  
  
  
  
  
  
  
  
  
  
  
  
  
  
  
  
  
  
  
  
  
  
  
  
  
  
  
  
  
  
  
  
  
  
  
  
  
  
  
  
  
  
  
  
  
  
  
  
  
  
  
  
  
  
  
  
  
  
  
  
  
  
  
  
  
  
  
  
  
  
  
  
  
  
  
  
  
  
  
  
  
  
  
  
  
  
  
  
  
  
  
  
  
  
  
  
  
  
  
  
  
  
  
  
  
  
  
  
  
  
  
  
  
  
  
  
  
  
  
  
  
  
  
  
  
  
  
  
  
  
  
  
  
  
  
  
  
  
  
  
  
  
  
  
  
  
  
  
  
  
  
  
  
  
  
  
  
  
  
  
  
  
  
  
  
  
  
  
  
  
  
  
  
  
  
  
  
  
  
  
  
  
  
  
  
  
  
  
  
  
  
  
  
  
  
  
  
  
  
  
  
  
  
  
  
  
  
  
  
  
  
  
  
  
  
  
  
  
  
  
  
  
  
  
  
  
  
  
  
  
  
  
  
  
  
  
  
  
  
  
  
  
  
  
  
  
  
  
  
  
  
  
  
  
  
  
  
  
  
  
  
  
  
  
  
  
  
  
  
  
  
  
  
  
  
  
  
  
  
  
  
  
  
  
  
  
  
  
  
  
  
  
  
  
  
  
  
  
  
  
  
  
  
  
  
  
  
  
  
  
  
  
  
  
  
  
  
  
  
  
  
  
  
  
  
  
  
  
  
  
  
  
  
  
  
  
  
  
  
  
  
  
  
  
  
  
  
  
  
  
  
  
  
  
  
  
  
  
  
  
  
  
  
  
  
  
  
  
  
  
  
  
  
  
  
  
  
  
  
  
  
  
  
  
  
  
  
  
  
  
  
  
  
  
  
  
  
  
  
  
  
  
  
  
  
  
  
  
  
  
  
  
  
  
  
  
  
  
  
  
  
  
  
  
  
  
  
  
  
  
  
  
  
  
  
  
  
  
  
  
  
  
  
  
  
  
  
  
  
  
  
  
  
  
  
  
  
  
  
  
  
  
  
  
  
  
  
  
  
  
  
  
  
  
  
  
  
  
  
  
  
  
  
  
  
  
  
  
  
  
  
  
  
  
  
  
  
  
  
  
  
  
  
  
  
  
  
  
  
  
  
  
  
  
  
  
  
  
  
  
  
  
  
  
  
  
  
  
  
  
  
  
  
  
  
  
  
  
  
  
  
  
  
  
  
  
  
  
  
  
  
  
  
  
  
  
  
  
  
  
  
  
  
  
  
  
  
  
  
  
  
  
  
  
  
  
  
  
  
  
  
  
  
  
  
  
  
  
  
  
  
  
  
  
  
  
  
  
  
  
  
  
  
  
  
  
  
  
  
  
  
  
  
  
  
  
  
  
  
  
  
  
  
  
  
  
  
  
  
  
  
  
  
  
  
  
  
  
  
  
  
  
  
  
  
  
  
  
  
  
  
  
  
  
  
  
  
  
  
  
  
  
  
  
  
  
  
  
  
  
  
  
  
  
  
  
  
  
  
  
  
  
  
  
  
  
  
  
  
  
  
  
  
  
  
  
  
  
  
  
  
  
  
  
  
  
  
  
  
  
  
  
  
  
  
  
  
  
  
  
  
  
  
  
  
  
  
  
  
  
  
  
  
  
  
  
  
  
  
  
  
  
  
  
  
  
  
  
  
  
  
  
  
  
  
  
  
  
  
  
  
  
  
  
  
  
  
  
  
  
  
  
  
  
  
  
  
  
  
  
  
  
  
  
  
  
  
  
  
  
  
  
  
  
  
  
  
  
  
  
  
  
  
  
  
  
  
  
  
  
  
  
  
  
  
  
  
  
  
  
  
  
  
  
  
  
  
  
  
  
  
  
  
  
  
  
  
  
  
  
  
  
  
  
  
  
  
  
  
  
  
  
  
  
  
  
  
  
  
  
  
  
  
  
  
  
  
  
  
  
  
  
  
  
  
  
  
  
  
  
  
  
  
  
  
  
  
  
  
  
  
  
  
  
  
  
  
  
  
  
  
  
  
  
  
  
  
  
  
  
  
  
  
  
  
  
  
  
  
  
  
  
  
  
  
  
  
  
  
  
  
  
  
  
  
  
  
  
  
  
  
  
  
  
  
  
  
  
  
  
  
  
  
  
  
  
  
  
  
  
  
  
  
  
  
  
  
  
  
  
  
  
  
  
  
  
  
  
  
  
  
  
  
  
  
  
  
  
  
  
  
  
  
  
  
  
  
  
  
  
  
  
  
  
  
  
  
  
  
  
  
  
  
  
  
  
  
  
  
  
  
  
  
  
  
  
  
  
  
  
  
  
  
  
  
  
  
  
  
  
  
  
  
  
  
  
  
  
  
  
  
  
  
  
  
  
  
  
  
  
  
  
  
  
  
  
  
  
  
  
  
  
  
  
  
  
  
  
  
  
  
  
  
  
  
  
  
  
  
  
  
  
  
  
  
  
  
  
  
  
  
  
  
  
  
  
  
  
  
  
  
  
  
  
  
  
  
  
  
  
  
  
  
  
  
  
  
  
  
  
  
  
  
  
  
  
  
  
  
  
  
  
  
  
  
  
  
  
  
  
  
  
  
  
  
  
  
  
  
  
  
  
  
  
  
  
  
  
  
  
  
  
  
  
  
  
  
  
  
  
  
  
  
  
  
  
  
  
  
  
  
  
  
  
  
  
  
  
  
  
  
  
  
  
  
  
  
  
  
  
  
  
  
  
  
  
  
  
  
  
  
  
  
  
  
  
  
  
  
  
  
  
  
  
  
  
  
  
  
  
  
  
  
  
  
  
  
  
  
  
  
  
  
  
  
  
  
  
  
  
  
  
  
  
  
  
  
  
  
  
  
  
  
  
  
  
  
  
  
  
  
  
  
  
  
  
  
  
  
  
  
  
  
  
  
  
  
  
  
  
  
  
  
  
  
  
  
  
  
  
  
  
  
  
  
  
  
  
  
  
  
  
  
  
  
  
  
  
  
  
  
  
  
  
  
  
  
  
  
  
  
  
  
  
  
  
  
  
  
  
  
  
  
  
  
  
  
  
  
  
  
  
  
  
  
  
  
  
  
  
  
  
  
  
  
  
  
  
  
  
  
  
  
  
  
  
  
  
  
  
  
  
  
  
  
  
  
  
  
  
  
  
  
  
  
  
  
  
  
  
  
  
  
  
  
  
  
  
  
  
  
  
  
  
  
  
  
  
  
  
  
  
  
  
  
  
  
  
  
  
  
  
  
  
  
  
  
  
  
  
  
  
  
  
  
  
  
  
  
  
  
  
  
  
  
  
  
  
  
  
  
  
  
  
  
  
  
  
  
  
  
  
  
  
  
  
  
  
  
  
  
  
  
  
  
  
  
  
  
  
  
  
  
  
  
  
  
  
  
  
  
  
  
  <path
   style="fill:#72b3dc;stroke:#c2dffb;stroke-width:1"
   d="M 13.696,1.284 22.152,1.87 21.773,7.941 21.421,13.529 12.7,12.921 12.862,10.69 13.029,8.459 13.421,4.006 13.489,4.01 13.696,1.284"
   id="46105"
   inkscape:label="Perkins, SD"
   inkscape:connector-curvature="0" />
  <path
   style="fill:#72b3dc;stroke:#c2dffb;stroke-width:1"
   d="M 3.79,0.5 13.214,1.248 13.696,1.284 13.489,4.01 13.421,4.006 13.029,8.459 12.862,10.69 3.037,9.911 3.731,1.315 3.79,0.5"
   id="46063"
   inkscape:label="Harding, SD"
   inkscape:connector-curvature="0" />
  <path
   style="fill:#72b3dc;stroke:#c2dffb;stroke-width:1"
   d="m 1.415,27.398 6.296,0.473 6.377,0.487 -0.026,0.189 -0.136,0.487 -1.136,1.402 -0.942,0.112 -0.906,0.821 -0.122,1.668 -9.811,-0.793 0.027,-0.325 0.379,-4.521"
   id="46033"
   inkscape:label="Custer, SD"
   inkscape:connector-curvature="0" />
  <path
   style="fill:#72b3dc;stroke:#c2dffb;stroke-width:1"
   d="M 1.009,32.244 10.82,33.037 10.365,39.189 5.637,38.824 0.5,38.404 1.009,32.244"
   id="46047"
   inkscape:label="Fall River, SD"
   inkscape:connector-curvature="0" />
  <path
   style="fill:#72b3dc;stroke:#c2dffb;stroke-width:1"
   d="m 19.037,30.697 -0.184,2.898 0.261,0.014 -0.072,1.122 -0.198,3.371 0.256,0.019 -0.117,1.675 -6.662,-0.458 -1.956,-0.149 0.455,-6.152 0.122,-1.668 0.906,-0.821 0.942,-0.112 5.873,0.41 0.374,-0.149"
   id="46113"
   inkscape:label="Shannon, SD"
   inkscape:connector-curvature="0" />
  <path
   style="fill:#72b3dc;stroke:#c2dffb;stroke-width:1"
   d="m 27.281,35.232 -0.276,5.065 -3.736,-0.194 -2.344,-0.18 -1.942,-0.127 0.117,-1.675 -0.256,-0.019 0.198,-3.371 8.239,0.501"
   id="46007"
   inkscape:label="Bennett, SD"
   inkscape:connector-curvature="0" />
  <path
   style="fill:#72b3dc;stroke:#c2dffb;stroke-width:1"
   d="m 29.128,29.467 0.064,-0.068 0.211,-0.049 0.397,0.045 0.568,0.288 0.491,0.433 2.979,0.802 1.668,0.203 0.189,0.139 0.086,0.154 1.005,0.085 -0.032,4.192 -9.473,-0.459 0.275,-5.003 0.13,-0.293 0.077,-0.109 0.694,-0.392 0.464,-0.077 0.153,0.059 0.054,0.05"
   id="46095"
   inkscape:label="Mellette, SD"
   inkscape:connector-curvature="0" />
  <path
   style="fill:#72b3dc;stroke:#c2dffb;stroke-width:1"
   d="m 27.281,35.232 9.473,0.459 -0.076,5.076 -0.748,-0.037 -0.672,-0.031 -1.83,-0.086 -3.407,-0.158 -3.016,-0.158 0.276,-5.065"
   id="46121"
   inkscape:label="Todd, SD"
   inkscape:connector-curvature="0" />
  <path
   style="fill:#72b3dc;stroke:#c2dffb;stroke-width:1"
   d="m 36.786,31.499 0.266,0.257 1.438,0.068 1.767,-0.013 0.915,-0.478 0.942,-0.293 0.085,0.045 0.239,0.275 -0.113,3.142 0.839,0.035 -0.244,6.492 -6.242,-0.262 0.076,-5.076 0.032,-4.192"
   id="46123"
   inkscape:label="Tripp, SD"
   inkscape:connector-curvature="0" />
  <path
   style="fill:#72b3dc;stroke:#c2dffb;stroke-width:1"
   d="m 45.363,34.614 0.365,0.825 3.926,3.813 0.852,0.635 0.982,0.437 0.122,0.01 0.514,0.197 0.274,0.24 0.113,0.157 0.117,0.226 0.023,0.081 0.004,0.096 -7.107,-0.208 -2.628,-0.094 0.244,-6.492 2.199,0.077"
   id="46053"
   inkscape:label="Gregory, SD"
   inkscape:connector-curvature="0" />
  <path
   style="fill:#72b3dc;stroke:#c2dffb;stroke-width:1"
   d="m 48.996,29.092 1.109,0.036 -0.045,5.639 -4.692,-0.153 0.054,-0.064 0.076,-0.134 0.032,-0.118 -0.005,-0.062 -0.635,-1.488 -0.041,-0.068 0.577,-2.718 0.01,-0.063 -0.014,-0.04 -0.401,-0.875 3.975,0.108"
   id="46015"
   inkscape:label="Brule, SD"
   inkscape:connector-curvature="0" />
  <path
   style="fill:#72b3dc;stroke:#c2dffb;stroke-width:1"
   d="m 54.521,29.21 0.032,1.126 -0.068,4.557 -3.592,-0.098 -0.833,-0.028 0.045,-5.639 4.416,0.082"
   id="46003"
   inkscape:label="Aurora, SD"
   inkscape:connector-curvature="0" />
  <path
   style="fill:#72b3dc;stroke:#c2dffb;stroke-width:1"
   d="m 57.875,30.418 -0.063,4.543 -1.402,-0.018 -1.925,-0.05 0.068,-4.557 3.322,0.082"
   id="46035"
   inkscape:label="Davison, SD"
   inkscape:connector-curvature="0" />
  <path
   style="fill:#72b3dc;stroke:#c2dffb;stroke-width:1"
   d="m 50.893,34.795 3.592,0.098 1.925,0.05 -0.04,3.898 -5.139,-2.338 -0.153,-0.042 -0.244,0.005 0.014,-0.748 0.045,-0.923"
   id="46043"
   inkscape:label="Douglas, SD"
   inkscape:connector-curvature="0" />
  <path
   style="fill:#72b3dc;stroke:#c2dffb;stroke-width:1"
   d="m 45.368,34.614 4.692,0.153 0.833,0.028 -0.045,0.923 -0.014,0.748 0.244,-0.005 0.153,0.042 5.139,2.338 0.27,0.385 -0.099,0.215 -0.257,1.951 -0.117,1.185 -0.312,0.897 -0.135,0.019 -1.324,-0.6 -1.741,-1.562 -0.004,-0.096 -0.023,-0.081 -0.117,-0.226 -0.113,-0.157 -0.274,-0.24 -0.514,-0.197 -0.122,-0.01 -0.982,-0.437 -0.852,-0.635 -3.926,-3.813 -0.365,-0.825 0.005,0"
   id="46023"
   inkscape:label="Charles Mix, SD"
   inkscape:connector-curvature="0" />
  <path
   style="fill:#72b3dc;stroke:#c2dffb;stroke-width:1"
   d="m 56.64,39.226 4.146,0.076 -0.532,4.217 -0.824,-0.107 -1.087,0.401 -0.198,0.284 -0.266,0.242 -0.126,0.078 -0.478,0.072 -0.157,0.008 -0.167,-0.027 -0.203,-0.09 -1.028,-0.887 0.135,-0.019 0.312,-0.897 0.117,-1.185 0.257,-1.951 0.099,-0.215"
   id="46009"
   inkscape:label="Bon Homme, SD"
   inkscape:connector-curvature="0" />
  <path
   style="fill:#72b3dc;stroke:#c2dffb;stroke-width:1"
   d="m 60.786,39.302 2.24,0.026 2.227,1.15 0.144,3.885 -1.091,-0.929 -0.671,-0.081 -0.893,-0.036 -0.586,0.077 -1.902,0.125 0.532,-4.217"
   id="46135"
   inkscape:label="Yankton, SD"
   inkscape:connector-curvature="0" />
  <path
   style="fill:#72b3dc;stroke:#c2dffb;stroke-width:1"
   d="m 56.41,34.943 1.402,0.018 3.335,0.058 1.92,0.031 -0.041,4.278 -2.24,-0.026 -4.146,-0.076 -0.27,-0.385 0.04,-3.898"
   id="46067"
   inkscape:label="Hutchinson, SD"
   inkscape:connector-curvature="0" />
  <path
   style="fill:#72b3dc;stroke:#c2dffb;stroke-width:1"
   d="m 58.957,30.449 2.253,0.054 -0.063,4.516 -3.335,-0.058 0.063,-4.543 1.082,0.031"
   id="46061"
   inkscape:label="Hanson, SD"
   inkscape:connector-curvature="0" />
  <path
   style="fill:#72b3dc;stroke:#c2dffb;stroke-width:1"
   d="m 63.432,30.544 2.231,0.031 -0.058,4.512 -2.538,-0.037 -1.92,-0.031 0.063,-4.516 2.222,0.041"
   id="46087"
   inkscape:label="McCook, SD"
   inkscape:connector-curvature="0" />
  <path
   style="fill:#72b3dc;stroke:#c2dffb;stroke-width:1"
   d="m 65.605,35.087 1.915,0.009 -0.05,5.4 -2.217,-0.018 -2.227,-1.15 0.041,-4.278 2.538,0.037"
   id="46125"
   inkscape:label="Turner, SD"
   inkscape:connector-curvature="0" />
  <path
   style="fill:#72b3dc;stroke:#c2dffb;stroke-width:1"
   d="m 67.47,40.496 1.114,0.013 -0.045,4.926 -1.975,-0.738 -1.167,-0.334 -0.144,-3.885 2.217,0.018"
   id="46027"
   inkscape:label="Clay, SD"
   inkscape:connector-curvature="0" />
  <path
   style="fill:#72b3dc;stroke:#c2dffb;stroke-width:1"
   d="m 71.878,40.531 -0.653,2.254 -0.379,1.01 -0.378,1.73 0.247,0.189 0.311,0.289 0.244,0.392 0.342,0.901 0.339,0.934 -1.821,-0.465 -0.676,-1.005 -0.028,-0.117 0.005,-0.118 0.036,-0.152 -0.054,-0.216 -0.104,-0.235 -0.77,-0.487 0.045,-4.926 3.294,0.022"
   id="46127"
   inkscape:label="Union, SD"
   inkscape:connector-curvature="0" />
  <path
   style="fill:#72b3dc;stroke:#c2dffb;stroke-width:1"
   d="m 67.52,35.096 3.043,0.023 0.161,3.114 0.208,0.469 0.672,0.003 0.089,0.042 0.361,1.298 -0.027,0.089 -0.149,0.397 -3.294,-0.022 -1.114,-0.013 0.05,-5.4"
   id="46083"
   inkscape:label="Lincoln, SD"
   inkscape:connector-curvature="0" />
  <path
   style="fill:#72b3dc;stroke:#c2dffb;stroke-width:1"
   d="m 67.898,30.598 4.043,0.009 -0.018,4.521 -1.36,-0.009 -3.043,-0.023 -1.915,-0.009 0.058,-4.512 2.235,0.023"
   id="46099"
   inkscape:label="Minnehaha, SD"
   inkscape:connector-curvature="0" />
  <path
   style="fill:#72b3dc;stroke:#c2dffb;stroke-width:1"
   d="m 43.101,25.564 0.089,1.203 0.032,0.099 0.167,0.248 0.248,0.248 0.261,0.063 0.307,0.04 0.203,0.082 0.455,0.419 0.207,0.221 0.068,0.18 -0.005,0.154 -0.049,0.296 -0.063,0.167 0.401,0.875 0.014,0.04 -0.01,0.063 -0.577,2.718 0.041,0.068 0.635,1.488 0.005,0.062 -0.032,0.118 -0.076,0.134 -0.054,0.064 -0.005,0 -2.199,-0.077 -0.839,-0.035 0.113,-3.142 -0.239,-0.275 -0.085,-0.045 -0.942,0.293 -0.915,0.478 -1.767,0.013 -1.438,-0.068 -0.266,-0.257 -1.005,-0.085 0.059,-1.384 -0.235,-0.306 0.181,-4.156 0.018,-0.338 3.962,0.167 0.022,0.09 0.306,0.608 0.064,0.104 0.067,0.063 0.081,0.045 0.14,0.041 2.118,0.419 0.167,-0.067 0.067,-0.082 0.055,-0.103 0.009,-0.073 -0.009,-0.122 -0.019,-0.08 -0.067,-0.127 -0.455,-0.905 0.789,0.356"
   id="46085"
   inkscape:label="Lyman, SD"
   inkscape:connector-curvature="0" />
  <path
   style="fill:#72b3dc;stroke:#c2dffb;stroke-width:1"
   d="m 35.786,25.568 -0.181,4.156 0.235,0.306 -0.059,1.384 -0.086,-0.154 -0.189,-0.139 -1.668,-0.203 -2.979,-0.802 -0.491,-0.433 -0.568,-0.288 -0.397,-0.045 -0.211,0.049 -0.064,0.068 0.104,-1.979 0.275,-2.231 6.279,0.311"
   id="46075"
   inkscape:label="Jones, SD"
   inkscape:connector-curvature="0" />
  <path
   style="fill:#72b3dc;stroke:#c2dffb;stroke-width:1"
   d="m 20.502,26.983 8.73,0.505 -0.104,1.979 -0.054,-0.05 -0.153,-0.059 -0.464,0.077 -0.694,0.392 -0.077,0.109 -0.13,0.293 -0.275,5.003 -8.239,-0.501 0.072,-1.122 -0.261,-0.014 0.184,-2.898 0.392,0.194 0.375,0.005 0.026,0 0.33,-0.217 0.234,-3.7 0.108,0.004"
   id="46071"
   inkscape:label="Jackson, SD"
   inkscape:connector-curvature="0" />
  <path
   style="fill:#72b3dc;stroke:#c2dffb;stroke-width:1"
   d="m 32.937,17.636 0.752,0.446 0.028,0.027 0.131,0.396 0,0.176 -0.136,0.536 -0.099,0.258 -0.09,0.139 -0.036,0.289 0.041,0.184 0.063,0.108 0.103,0.122 0.118,0.082 0.13,0.058 0.604,0.149 -0.415,0.59 -0.067,0.095 -0.054,0.203 -0.014,0.144 0.009,0.05 0.086,0.117 1.848,1.402 0.036,0.031 0.198,0.09 0.856,0.248 0.33,0.05 0.378,0.008 0.14,0.041 0.59,0.199 1.474,0.608 0.081,0.041 0.126,0.112 0.068,0.176 -0.009,0.031 -0.441,0.555 -3.962,-0.167 -0.018,0.338 -6.279,-0.311 -1.104,-0.054 0.121,-2.263 0.356,-4.466 0.199,-0.73 1.032,0.356 0.306,-0.086 0.145,-0.243 0.568,-0.226 0.761,-0.121 1.046,0.212"
   id="46117"
   inkscape:label="Stanley, SD"
   inkscape:connector-curvature="0" />
  <path
   style="fill:#72b3dc;stroke:#c2dffb;stroke-width:1"
   d="m 20.989,20.317 0.045,-0.09 0.099,-0.077 2.537,-0.554 0.474,-0.04 0.252,0.013 0.059,0.099 1.514,-0.433 2.227,-0.829 0.644,-0.351 0.239,-0.311 -0.199,0.73 -0.356,4.466 -0.121,2.263 1.104,0.054 -0.275,2.231 -8.73,-0.505 0.284,-4.507 0.058,0.005 0.136,-2.159 0.009,-0.005"
   id="46055"
   inkscape:label="Haakon, SD"
   inkscape:connector-curvature="0" />
  <path
   style="fill:#72b3dc;stroke:#c2dffb;stroke-width:1"
   d="m 1.735,23.693 5.552,0.46 9.821,0.721 0.333,-1.212 0.154,-0.951 0.531,-1.407 0.073,-0.117 0.122,-0.131 0.121,-0.076 0.478,0.004 0.59,0.23 0.384,0.014 0.671,-0.793 0.077,-0.036 0.338,-0.077 -0.136,2.159 -0.058,-0.005 -0.284,4.507 -0.108,-0.004 -0.234,3.7 -0.33,0.217 -0.026,0 -0.375,-0.005 -0.392,-0.194 -0.374,0.149 -5.873,-0.41 1.136,-1.402 0.136,-0.487 0.026,-0.189 -6.377,-0.487 -6.296,-0.473 0.32,-3.705"
   id="46103"
   inkscape:label="Pennington, SD"
   inkscape:connector-curvature="0" />
  <path
   style="fill:#72b3dc;stroke:#c2dffb;stroke-width:1"
   d="m 2.194,18.159 1.42,-0.19 0.771,-0.068 2.316,0.194 -0.342,3.547 -0.077,0.933 1.118,0.081 -0.113,1.497 -5.552,-0.46 0.044,-0.504 0.415,-5.03"
   id="46081"
   inkscape:label="Lawrence, SD"
   inkscape:connector-curvature="0" />
  <path
   style="fill:#72b3dc;stroke:#c2dffb;stroke-width:1"
   d="m 12.862,10.69 -0.162,2.231 -0.013,0 -0.289,3.957 -0.167,1.641 -5.53,-0.424 -2.316,-0.194 -0.771,0.068 -1.42,0.19 0.451,-5.49 0.392,-2.758 9.825,0.779"
   id="46019"
   inkscape:label="Butte, SD"
   inkscape:connector-curvature="0" />
  <path
   style="fill:#72b3dc;stroke:#c2dffb;stroke-width:1"
   d="m 21.421,13.529 -0.432,6.788 -0.009,0.005 -0.338,0.077 -0.077,0.036 -0.671,0.793 -0.384,-0.014 -0.59,-0.23 -0.478,-0.004 -0.121,0.076 -0.122,0.131 -0.073,0.117 -0.531,1.407 -0.154,0.951 -0.333,1.212 -9.821,-0.721 0.113,-1.497 -1.118,-0.081 0.077,-0.933 0.342,-3.547 5.53,0.424 0.167,-1.641 0.289,-3.957 0.013,0 8.721,0.608"
   id="46093"
   inkscape:label="Meade, SD"
   inkscape:connector-curvature="0" />
  <path
   style="fill:#72b3dc;stroke:#c2dffb;stroke-width:1"
   d="m 21.773,7.941 4.795,0.288 -0.603,5.576 -0.032,0.576 3.322,0.181 -0.176,3.182 -0.239,0.311 -0.644,0.351 -2.227,0.829 -1.514,0.433 -0.059,-0.099 -0.252,-0.013 -0.474,0.04 -2.537,0.554 -0.099,0.077 -0.045,0.09 0.432,-6.788 0.352,-5.588"
   id="46137"
   inkscape:label="Ziebach, SD"
   inkscape:connector-curvature="0" />
  <path
   style="fill:#72b3dc;stroke:#c2dffb;stroke-width:1"
   d="m 36.791,8.752 0.563,1.208 -0.004,0.077 -0.091,0.257 -0.248,0.288 -0.045,0.067 -0.04,0.109 0.072,0.342 0.401,0.6 0.018,0.144 -0.239,0.978 -0.46,1.077 -0.383,0.563 -0.153,-0.018 -0.095,0.032 -0.193,0.212 -0.131,0.225 -0.013,0.244 0.04,0.644 0.023,0.14 0.158,0.496 -0.014,0.099 -0.086,0.131 -0.153,0.166 -1.069,0.951 -0.17,0.068 L 34.14,17.775 33.911,17.694 33.645,17.401 33.5,17.153 33.428,17.068 33.32,16.964 33.153,16.897 33.113,16.901 33,16.973 l -0.09,0.162 -0.036,0.099 -0.032,0.131 0.005,0.131 0.031,0.081 0.059,0.059 -1.046,-0.212 -0.761,0.121 -0.568,0.226 -0.145,0.243 -0.306,0.086 -1.032,-0.356 0.176,-3.182 -3.322,-0.181 0.032,-0.576 0.603,-5.576 10.223,0.523"
   id="46041"
   inkscape:label="Dewey, SD"
   inkscape:connector-curvature="0" />
  <path
   style="fill:#72b3dc;stroke:#c2dffb;stroke-width:1"
   d="m 36.06,7.143 6.45,0.297 0.086,0.005 -0.19,4.48 -5.007,-0.225 -0.401,-0.6 -0.072,-0.342 0.04,-0.109 0.045,-0.067 0.248,-0.288 L 37.35,10.037 37.354,9.96 36.791,8.752 36.06,7.143"
   id="46129"
   inkscape:label="Walworth, SD"
   inkscape:connector-curvature="0" />
  <path
   style="fill:#72b3dc;stroke:#c2dffb;stroke-width:1"
   d="m 37.399,11.7 5.007,0.225 1.231,0.05 -0.158,4.489 -0.928,-0.041 -6.675,-0.284 -0.063,-0.198 -0.023,-0.14 -0.04,-0.644 0.013,-0.244 0.131,-0.225 0.193,-0.212 0.095,-0.032 0.153,0.018 0.383,-0.563 0.46,-1.077 0.239,-0.978 -0.018,-0.144"
   id="46107"
   inkscape:label="Potter, SD"
   inkscape:connector-curvature="0" />
  <path
   style="fill:#72b3dc;stroke:#c2dffb;stroke-width:1"
   d="m 42.551,16.423 -0.194,4.512 -7.811,-0.329 -0.604,-0.149 -0.13,-0.058 -0.118,-0.082 -0.103,-0.122 -0.063,-0.108 -0.041,-0.184 0.036,-0.289 0.09,-0.139 0.099,-0.258 0.136,-0.536 0,-0.176 -0.131,-0.396 -0.028,-0.027 -0.752,-0.446 -0.059,-0.059 -0.031,-0.081 -0.005,-0.131 0.032,-0.131 0.036,-0.099 0.09,-0.162 0.113,-0.072 0.04,-0.004 0.167,0.067 0.108,0.104 0.072,0.085 0.145,0.248 0.266,0.293 0.229,0.081 0.339,0.077 0.17,-0.068 1.069,-0.951 0.153,-0.166 0.086,-0.131 0.014,-0.099 -0.095,-0.298 6.675,0.284"
   id="46119"
   inkscape:label="Sully, SD"
   inkscape:connector-curvature="0" />
  <path
   style="fill:#72b3dc;stroke:#c2dffb;stroke-width:1"
   d="m 42.357,20.935 -0.045,4.273 0.455,0.905 0.067,0.127 0.019,0.08 0.009,0.122 -0.009,0.073 -0.055,0.103 -0.067,0.082 -0.167,0.067 -2.118,-0.419 -0.14,-0.041 -0.081,-0.045 -0.067,-0.063 -0.064,-0.104 -0.306,-0.608 -0.022,-0.09 0.441,-0.555 0.009,-0.031 -0.068,-0.176 -0.126,-0.112 -0.081,-0.041 -1.474,-0.608 -0.59,-0.199 -0.14,-0.041 -0.378,-0.008 -0.33,-0.05 -0.856,-0.248 -0.198,-0.09 -0.036,-0.031 -1.848,-1.402 -0.086,-0.117 -0.009,-0.05 0.014,-0.144 0.054,-0.203 0.067,-0.095 0.415,-0.59 7.811,0.329"
   id="46065"
   inkscape:label="Hughes, SD"
   inkscape:connector-curvature="0" />
  <path
   style="fill:#72b3dc;stroke:#c2dffb;stroke-width:1"
   d="m 43.101,25.564 2.56,0.063 3.447,0.085 -0.112,3.38 -3.975,-0.108 0.063,-0.167 0.049,-0.296 0.005,-0.154 -0.068,-0.18 -0.207,-0.221 -0.455,-0.419 -0.203,-0.082 -0.307,-0.04 -0.261,-0.063 -0.248,-0.248 -0.167,-0.248 -0.032,-0.099 -0.089,-1.203"
   id="46017"
   inkscape:label="Buffalo, SD"
   inkscape:connector-curvature="0" />
  <path
   style="fill:#72b3dc;stroke:#c2dffb;stroke-width:1"
   d="m 49.108,25.712 2.087,0.063 3.408,0.09 -0.082,3.345 -4.416,-0.082 -1.109,-0.036 0.112,-3.38"
   id="46073"
   inkscape:label="Jerauld, SD"
   inkscape:connector-curvature="0" />
  <path
   style="fill:#72b3dc;stroke:#c2dffb;stroke-width:1"
   d="m 54.603,25.865 4.417,0.117 0.04,0 -0.103,4.467 -1.082,-0.031 -3.322,-0.082 -0.032,-1.126 0.082,-3.345"
   id="46111"
   inkscape:label="Sanborn, SD"
   inkscape:connector-curvature="0" />
  <path
   style="fill:#72b3dc;stroke:#c2dffb;stroke-width:1"
   d="m 63.491,26.06 -0.059,4.484 -2.222,-0.041 -2.253,-0.054 0.103,-4.467 4.431,0.078"
   id="46097"
   inkscape:label="Miner, SD"
   inkscape:connector-curvature="0" />
  <path
   style="fill:#72b3dc;stroke:#c2dffb;stroke-width:1"
   d="m 63.491,26.06 2.221,0.017 2.223,0.028 -0.037,4.493 -2.235,-0.023 -2.231,-0.031 0.059,-4.484"
   id="46079"
   inkscape:label="Lake, SD"
   inkscape:connector-curvature="0" />
  <path
   style="fill:#72b3dc;stroke:#c2dffb;stroke-width:1"
   d="m 71.968,26.118 -0.027,4.489 -4.043,-0.009 0.037,-4.493 4.033,0.013"
   id="46101"
   inkscape:label="Moody, SD"
   inkscape:connector-curvature="0" />
  <path
   style="fill:#72b3dc;stroke:#c2dffb;stroke-width:1"
   d="m 65.78,21.593 2.231,0.013 3.985,0.032 -0.028,4.48 -4.033,-0.013 -2.223,-0.028 0.068,-4.484"
   id="46011"
   inkscape:label="Brookings, SD"
   inkscape:connector-curvature="0" />
  <path
   style="fill:#72b3dc;stroke:#c2dffb;stroke-width:1"
   d="m 68.052,18.239 -0.041,3.367 -2.231,-0.013 -3.348,-0.059 0.063,-3.358 5.557,0.063"
   id="46057"
   inkscape:label="Hamlin, SD"
   inkscape:connector-curvature="0" />
  <path
   style="fill:#72b3dc;stroke:#c2dffb;stroke-width:1"
   d="m 62.432,21.534 3.348,0.059 -0.068,4.484 -2.221,-0.017 -4.431,-0.078 -0.04,0 0.094,-4.511 3.318,0.063"
   id="46077"
   inkscape:label="Kingsburg, SD"
   inkscape:connector-curvature="0" />
  <path
   style="fill:#72b3dc;stroke:#c2dffb;stroke-width:1"
   d="m 57.992,20.317 1.122,1.154 -0.094,4.511 -4.417,-0.117 -3.408,-0.09 0.113,-5.652 6.684,0.194"
   id="46005"
   inkscape:label="Beadle, SD"
   inkscape:connector-curvature="0" />
  <path
   style="fill:#72b3dc;stroke:#c2dffb;stroke-width:1"
   d="m 43.479,16.464 2.389,0.09 -0.167,4.511 0.113,0.005 -0.153,4.557 -2.56,-0.063 -0.789,-0.356 0.045,-4.273 0.194,-4.512 0.928,0.041"
   id="46069"
   inkscape:label="Hyde, SD"
   inkscape:connector-curvature="0" />
  <path
   style="fill:#72b3dc;stroke:#c2dffb;stroke-width:1"
   d="m 45.868,16.554 5.44,0.171 0,3.398 -0.113,5.652 -2.087,-0.063 -3.447,-0.085 0.153,-4.557 -0.113,-0.005 0.167,-4.511"
   id="46059"
   inkscape:label="Hand, SD"
   inkscape:connector-curvature="0" />
  <path
   style="fill:#72b3dc;stroke:#c2dffb;stroke-width:1"
   d="m 42.596,7.445 8.892,0.329 -0.108,4.476 -7.743,-0.275 -1.231,-0.05 0.19,-4.48"
   id="46045"
   inkscape:label="Edmunds, SD"
   inkscape:connector-curvature="0" />
  <path
   style="fill:#72b3dc;stroke:#c2dffb;stroke-width:1"
   d="m 51.38,12.25 0.045,0.004 -0.117,4.471 -5.44,-0.171 -2.389,-0.09 0.158,-4.489 7.743,0.275"
   id="46049"
   inkscape:label="Faulk, SD"
   inkscape:connector-curvature="0" />
  <path
   style="fill:#72b3dc;stroke:#c2dffb;stroke-width:1"
   d="m 58.123,12.461 -0.027,1.127 -0.082,3.178 0,0.184 0.05,0.005 -0.072,3.362 -6.684,-0.194 0,-3.398 0.117,-4.471 6.698,0.207"
   id="46115"
   inkscape:label="Spink, SD"
   inkscape:connector-curvature="0" />
  <path
   style="fill:#72b3dc;stroke:#c2dffb;stroke-width:1"
   d="m 62.535,13.692 -0.04,4.484 -0.063,3.358 -3.318,-0.063 -1.122,-1.154 0.072,-3.362 -0.05,-0.005 0,-0.184 0.082,-3.178 4.439,0.104"
   id="46025"
   inkscape:label="Clark, SD"
   inkscape:connector-curvature="0" />
  <path
   style="fill:#72b3dc;stroke:#c2dffb;stroke-width:1"
   d="m 62.535,13.692 2.443,0.032 3.124,0.054 -0.01,2.235 -0.04,2.226 -5.557,-0.063 0.04,-4.484"
   id="46029"
   inkscape:label="Codington, SD"
   inkscape:connector-curvature="0" />
  <path
   style="fill:#72b3dc;stroke:#c2dffb;stroke-width:1"
   d="m 72.022,16.031 -0.004,2.222 -0.014,2.254 -0.008,1.131 -3.985,-0.032 0.041,-3.367 0.04,-2.226 3.93,0.018"
   id="46039"
   inkscape:label="Deuel, SD"
   inkscape:connector-curvature="0" />
  <path
   style="fill:#72b3dc;stroke:#c2dffb;stroke-width:1"
   d="m 71.883,11.528 0.149,0.744 -0.01,3.759 -3.93,-0.018 0.01,-2.235 -3.124,-0.054 0.022,-1.885 1.993,0.032 0.671,-0.374 4.219,0.031"
   id="46051"
   inkscape:label="Grand, SD"
   inkscape:connector-curvature="0" />
  <path
   style="fill:#72b3dc;stroke:#c2dffb;stroke-width:1"
   d="m 58.231,7.972 5.489,0.113 0.072,0.37 1.249,0.027 -0.063,5.242 -2.443,-0.032 -4.439,-0.104 0.135,-5.616"
   id="46037"
   inkscape:label="Day, SD"
   inkscape:connector-curvature="0" />
  <path
   style="fill:#72b3dc;stroke:#c2dffb;stroke-width:1"
   d="m 71.081,3.682 -0.05,0.563 0,0.027 -0.005,0.014 -0.04,0.342 L 70.954,4.907 70.932,5.024 70.923,5.088 70.914,5.115 70.905,5.133 70.891,5.165 70.26,6.102 70.076,6.287 69.729,6.476 69.417,6.679 68.593,7.341 68.579,7.359 68.561,7.382 68.547,7.396 68.516,7.468 68.39,7.9 68.426,7.95 68.588,8.157 69.219,9 l 1.325,1.469 0.87,0.424 0.297,0.239 0.172,0.396 -4.219,-0.031 -0.671,0.374 L 65,11.839 65.041,8.482 65.09,3.623 71.081,3.682"
   id="46109"
   inkscape:label="Roberts, SD"
   inkscape:connector-curvature="0" />
  <path
   style="fill:#72b3dc;stroke:#c2dffb;stroke-width:1"
   d="M 65.09,3.623 65.041,8.482 63.792,8.455 63.72,8.085 58.231,7.972 58.334,3.501 65.09,3.623"
   id="46091"
   inkscape:label="Marshall, SD"
   inkscape:connector-curvature="0" />
  <path
   style="fill:#72b3dc;stroke:#c2dffb;stroke-width:1"
   d="m 51.619,3.299 6.449,0.193 0.266,0.009 -0.103,4.471 -0.108,4.489 -6.698,-0.207 -0.045,-0.004 0.108,-4.476 0.131,-4.475"
   id="46013"
   inkscape:label="Brown, SD"
   inkscape:connector-curvature="0" />
  <path
   style="fill:#72b3dc;stroke:#c2dffb;stroke-width:1"
   d="M 42.677,2.965 49.09,3.209 51.619,3.299 51.488,7.774 42.596,7.445 42.51,7.44 42.677,2.965"
   id="46089"
   inkscape:label="McPherson, SD"
   inkscape:connector-curvature="0" />
  <path
   style="fill:#72b3dc;stroke:#c2dffb;stroke-width:1"
   d="M 41.217,2.898 42.677,2.965 42.51,7.44 36.06,7.143 36.205,6.634 36.304,6.444 36.484,6.327 36.872,6.323 36.939,6.305 37.097,6.206 37.146,6.138 37.214,5.976 37.223,5.742 36.669,3.776 36.619,3.632 35.65,2.627 41.217,2.898"
   id="46021"
   inkscape:label="Campbell, SD"
   inkscape:connector-curvature="0" />
  <path
   style="fill:#72b3dc;stroke:#c2dffb;stroke-width:1"
   d="m 22.17,1.87 0.058,0.005 0.022,0.004 0.145,0.009 1.086,0.068 1.293,0.076 1.362,0.086 1.127,0.063 0.523,0.031 0.919,0.05 2.614,0.144 0.816,0.045 1.081,0.054 0.073,0.005 0.203,0.009 2.046,0.104 0.112,0.004 0.969,1.005 0.05,0.144 0.554,1.966 -0.009,0.234 -0.068,0.162 -0.049,0.068 -0.158,0.099 -0.067,0.018 -0.388,0.004 -0.18,0.117 -0.099,0.19 -0.145,0.509 0.731,1.609 -10.223,-0.523 -4.795,-0.288 0.379,-6.071 0.018,0"
   id="46031"
   inkscape:label="Corson, SD"
   inkscape:connector-curvature="0" />
  
  
  
  
  
  
  
  
  
  
  
  
  
  
  
  
  
  
  
  
  
  
  
  
  
  
  
  
  
  
  
  
  
  
  
  
  
  
  
  
  
  
  
  
  
  
  
  
  
  
  
  
  
  
  
  
  
  
  
  
  
  
  
  
  
  
  
  
  
  
  
  
  
  
  
  
  
  
  
  
  
  
  
  
  
  
  
  
  
  
  
  
  
  
  
  
  
  
  
  
  
  
  
  
  
  
  
  
  
  
  
  
  
  
  
  
  
  
  
  
  
  
  
  
  
  
  
  
  
  
  
  
  
  
  
  
  
  
  
  
  
  
  
  
  
  
  
  
  
  
  
  
  
  
  
  
  
  
  
  
  
  
  
  
  
  
  
  
  
  
  
  
  
  
  
  
  
  
  
  
  
  
  
  
  
  
  
  
  
  
  
  
  
  
  
  
  
  
  
  
  
  
  
  
  
  
  
  
  
  
  
  
  
  
  
  
  
  
  
  
  
  
  
  
  
  
  
  
  
  
  
  
  
  
  
  
  
  
  
  
  
  
  
  
  
  
  
  
  
  
  
  
  
  
  
  
  
  
  
  
  
  
  
  
  
  
  
  
  
  
  
  
  
  
  
  
  
  
  
  
  
  
  
  
  
  
  
  
  
  
  
  
  
  
  
  
  
  
  
  
  
  
  
  
  
  
  
  
  
  
  
  
  
  
  
  
  
  
  
  
  
  
  
  
  
  
  
  
  
  
  
  
  
  
  
  
  
  
  
  
  
  
  
  
  
  
  
  
  
  
  
  
  
  
  
  
  
  
  
  
  
  
  
  
  
  
  
  
  
  
  
  
  
  
  
  
  
  
  
  
  
  
  
  
  
  
  
  
  
  
  
  
  
  
  
  
  
  
  
  
  
  
  
  
  
  
  
  
  
  
  
  
  
  
  
  
  
  
  
  
  
  
  
  
  
  
  
  
  
  
  
  
  
  
  
  
  
  
  
  
  
  
  
  
  
  
  
  
  
  
  
  
  
  
  
  
  
  
  
  
  
  
  
  
  
  
  
  
  
  
  
  
  
  
  
  
  
  
  
  
  
  
  
  
  
  
  
  
  
  
  
  
  
  
  
  
  
  
  
  
  
  
  
  
  
  
  
  
  
  
  
  
  
  
  
  
  
  
  
  
  
  
  
  
  
  
  
  
  
  
  
  
  
  
  
  
  
  
  
  
  
  
  
  
  
  
  
  
  
  
  
  
  
  
  
  
  
  
  
  
  
  
  
  
  
  
  
  
  
  
  
  
  
  
  
  
  
  
  
  
  
  
  
  
  
  
  
  
  
  
  
  
  
  
  
  
  
  
  
  
  
  
  
  
  
  
  
  
  
  
  
  
  
  
  
  
  
  
  
  
  
  
  
  
  
  
  
  
  
  
  
  
  
  
  
  
  
  
  
  
  
  
  
  
  
  
  
  
  
  
  
  
  
  
  
  
  
  
  
  
  
  
  
  
  
  
  
  
  
  
  
  
  
  
  
  
  
  
  
  
  
  
  
  
  
  
  
  
  
  
  
  
  
  
  
  
  
  
  
  
  
  
  
  
  
  
  
  
  
  
  
  
  
  
  
  
  
  
</svg>