<?xml version="1.0" encoding="UTF-8" standalone="no"?>
<!--?xml version="1.0" encoding="UTF-8" standalone="no"?-->

<svg
   xmlns:dc="http://purl.org/dc/elements/1.1/"
   xmlns:cc="http://creativecommons.org/ns#"
   xmlns:rdf="http://www.w3.org/1999/02/22-rdf-syntax-ns#"
   xmlns:svg="http://www.w3.org/2000/svg"
   xmlns="http://www.w3.org/2000/svg"
   xmlns:sodipodi="http://sodipodi.sourceforge.net/DTD/sodipodi-0.dtd"
   xmlns:inkscape="http://www.inkscape.org/namespaces/inkscape"
   width="95.497498"
   height="33.882545"
   viewBox="0 0 88.274998 30.950402"
   preserveAspectRatio="xMinYMin meet"
   xml:space="preserve"
   id="svg2764"
   version="1.1"
   inkscape:version="0.48.2 r9819"
   sodipodi:docname="TN.svg"><metadata
   id="metadata2865"><rdf:RDF><cc:Work
       rdf:about=""><dc:format>image/svg+xml</dc:format><dc:type
         rdf:resource="http://purl.org/dc/dcmitype/StillImage" /></cc:Work></rdf:RDF></metadata><defs
   id="defs2863" /><sodipodi:namedview
   pagecolor="#ffffff"
   bordercolor="#666666"
   borderopacity="1"
   objecttolerance="10"
   gridtolerance="10"
   guidetolerance="10"
   inkscape:pageopacity="0"
   inkscape:pageshadow="2"
   inkscape:window-width="640"
   inkscape:window-height="480"
   id="namedview2861"
   showgrid="false"
   inkscape:zoom="0.56730769"
   inkscape:cx="-84.048597"
   inkscape:cy="22.272573"
   inkscape:window-x="0"
   inkscape:window-y="0"
   inkscape:window-maximized="0"
   inkscape:current-layer="svg2764" />
  
  
  
  
  
  
  
  
  
  
  
  
  
  
  
  
  
  
  
  
  
  
  
  
  
  
  
  
  
  
  
  
  
  
  
  
  
  
  
  
  
  
  
  
  
  
  
  
  
  
  
  
  
  
  
  
  
  
  
  
  
  
  
  
  
  
  
  
  
  
  
  
  
  
  
  
  
  
  
  
  
  
  
  
  
  
  
  
  
  
  
  
  
  
  
  
  
  
  
  
  
  
  
  
  
  
  
  
  
  
  
  
  
  
  
  
  
  
  
  
  
  
  
  
  
  
  
  
  
  
  
  
  
  
  
  
  
  
  
  
  
  
  
  
  
  
  
  
  
  
  
  
  
  
  
  
  
  
  
  
  
  
  
  
  
  
  
  
  
  
  
  
  
  
  
  
  
  
  
  
  
  
  
  
  
  
  
  
  
  
  
  
  
  
  
  
  
  
  
  
  
  
  
  
  
  
  
  
  
  
  
  
  
  
  
  
  
  
  
  
  
  
  
  
  
  
  
  
  
  
  
  
  
  
  
  
  
  
  
  
  
  
  
  
  
  
  
  
  
  
  
  
  
  
  
  
  
  
  
  
  
  
  
  
  
  
  
  
  
  
  
  
  
  
  
  
  
  
  
  
  
  
  
  
  
  
  
  
  
  
  
  
  
  
  
  
  
  
  
  
  
  
  
  
  
  
  
  
  
  
  
  
  
  
  
  
  
  
  
  
  
  
  
  
  
  
  
  
  
  
  
  
  
  
  
  
  
  
  
  
  
  
  
  
  
  
  
  
  
  
  
  
  
  
  
  
  
  
  
  
  
  
  
  
  
  
  
  
  
  
  
  
  
  
  
  
  
  
  
  
  
  
  
  
  
  
  
  
  
  
  
  
  
  
  
  
  
  
  
  
  
  
  
  
  
  
  
  
  
  
  
  
  
  
  
  
  
  
  
  
  
  
  
  
  
  
  
  
  
  
  
  
  
  
  
  
  
  
  
  
  
  
  
  
  
  
  
  
  
  
  
  
  
  
  
  
  
  
  
  
  
  
  
  
  
  
  
  
  
  
  
  
  
  
  
  
  
  
  
  
  
  
  
  
  
  
  
  
  
  
  
  
  
  
  
  
  
  
  
  
  
  
  
  
  
  
  
  
  
  
  
  
  
  
  
  
  
  
  
  
  
  
  
  
  
  
  
  
  
  
  
  
  
  
  
  
  
  
  
  
  
  
  
  
  
  
  
  
  
  
  
  
  
  
  
  
  
  
  
  
  
  
  
  
  
  
  
  
  
  
  
  
  
  
  
  
  
  
  
  
  
  
  
  
  
  
  
  
  
  
  
  
  
  
  
  
  
  
  
  
  
  
  
  
  
  
  
  
  
  
  
  
  
  
  
  
  
  
  
  
  
  
  
  
  
  
  
  
  
  
  
  
  
  
  
  
  
  
  
  
  
  
  
  
  
  
  
  
  
  
  
  
  
  
  
  
  
  
  
  
  
  
  
  
  
  
  
  
  
  
  
  
  
  
  
  
  
  
  
  
  
  
  
  
  
  
  
  
  
  
  
  
  
  
  
  
  
  
  
  
  
  
  
  
  
  
  
  
  
  
  
  
  
  
  
  
  
  
  
  
  
  
  
  
  
  
  
  
  
  
  
  
  
  
  
  
  
  
  
  
  
  
  
  
  
  
  
  
  
  
  
  
  
  
  
  
  
  
  
  
  
  
  
  
  
  
  
  
  
  
  
  
  
  
  
  
  
  
  
  
  
  
  
  
  
  
  
  
  
  
  
  
  
  
  
  
  
  
  
  
  
  
  
  
  
  
  
  
  
  
  
  
  
  
  
  
  
  
  
  
  
  
  
  
  
  
  
  
  
  
  
  
  
  
  
  
  
  
  
  
  
  
  
  
  
  
  
  
  
  
  
  
  
  
  
  
  
  
  
  
  
  
  
  
  
  
  
  
  
  
  
  
  
  
  
  
  
  
  
  
  
  
  
  
  
  
  
  
  
  
  
  
  
  
  
  
  
  
  
  
  
  
  
  
  
  
  
  
  
  
  
  
  
  
  
  
  
  
  
  
  
  
  
  
  
  
  
  
  
  
  
  
  
  
  
  
  
  
  
  
  
  
  
  
  
  
  
  
  
  
  
  
  
  
  
  
  
  
  
  
  
  
  
  
  
  
  
  
  
  
  
  
  
  
  
  
  
  
  
  
  
  
  
  
  
  
  
  
  
  
  
  
  
  
  
  
  
  
  
  
  
  
  
  
  
  
  
  
  
  
  
  
  
  
  
  
  
  
  
  
  
  
  
  
  
  
  
  
  
  
  
  
  
  
  
  
  
  
  
  
  
  
  
  
  
  
  
  
  
  
  
  
  
  
  
  
  
  
  
  
  
  
  
  
  
  
  
  
  
  
  
  
  
  
  
  
  
  
  
  
  
  
  
  
  
  
  
  
  
  
  
  
  
  
  
  
  
  
  
  
  
  
  
  
  
  
  
  
  
  
  
  
  
  
  
  
  
  
  
  
  
  
  
  
  
  
  
  
  
  
  
  
  
  
  
  
  
  
  
  
  
  
  
  
  
  
  
  
  
  
  
  
  
  
  
  
  
  
  
  
  
  
  
  
  
  
  
  
  
  
  
  
  
  
  
  
  
  
  
  
  
  
  
  
  
  
  
  
  
  
  
  
  
  
  
  
  
  
  
  
  
  
  
  
  
  
  
  
  
  
  
  
  
  
  
  
  
  
  
  
  
  
  
  
  
  
  
  
  
  
  
  
  
  
  
  
  
  
  
  
  
  
  
  
  
  
  
  
  
  
  
  
  
  
  
  
  
  
  
  
  
  
  
  
  
  
  
  
  
  
  
  
  
  
  
  
  
  
  
  
  
  
  
  
  
  
  
  
  
  
  
  
  
  
  
  
  
  
  
  
  
  
  
  
  
  
  
  
  
  
  
  
  
  
  
  
  
  
  
  
  
  
  
  
  
  
  
  
  
  
  
  
  
  
  
  
  
  
  
  
  
  
  
  
  
  
  
  
  
  
  
  
  
  
  
  
  
  
  
  
  
  
  
  
  
  
  
  
  
  
  
  
  
  
  
  
  
  
  
  
  
  
  
  
  
  
  
  
  
  
  
  
  
  
  
  
  
  
  
  
  
  
  
  
  
  
  
  
  
  
  
  
  
  
  
  
  
  
  
  
  
  
  
  
  
  
  
  
  
  
  
  
  
  
  
  
  
  
  
  
  
  
  
  
  
  
  
  
  
  
  
  
  
  
  
  
  
  
  
  
  
  
  
  
  
  
  
  
  
  
  
  
  
  
  
  
  
  
  
  
  
  
  
  
  
  
  
  
  
  
  
  
  
  
  
  
  
  
  
  
  
  
  
  
  
  
  
  
  
  
  
  
  
  
  
  
  
  
  
  
  
  
  
  
  
  
  
  
  
  
  
  
  
  
  
  
  
  
  
  
  
  
  
  
  
  
  
  
  
  
  
  
  
  
  
  
  
  
  
  
  
  
  
  
  
  
  
  
  
  
  
  
  
  
  
  
  
  
  
  
  
  
  
  
  
  
  
  
  
  
  
  
  
  
  
  
  
  
  
  
  
  
  
  
  
  
  
  
  
  
  
  
  
  
  
  
  
  
  
  
  
  
  
  
  
  
  
  
  
  
  
  
  
  
  
  
  
  
  
  
  
  
  
  
  
  
  
  
  
  
  
  
  
  
  
  
  
  
  
  
  
  
  
  
  
  
  
  
  
  
  
  
  
  
  
  
  
  
  
  
  
  
  
  
  
  
  
  
  
  
  
  
  
  
  
  
  
  
  
  
  
  
  
  
  
  
  
  
  
  
  
  
  
  
  
  
  
  
  
  
  
  
  
  
  
  
  
  
  
  
  
  
  
  
  
  
  
  
  
  
  
  
  
  
  
  
  
  
  
  
  
  
  
  
  
  
  
  
  
  
  
  
  
  
  
  
  
  
  
  
  
  
  
  
  
  
  
  
  
  
  
  
  
  
  
  
  
  
  
  
  
  
  
  
  
  
  
  
  
  
  
  
  
  
  
  
  
  
  
  
  
  
  
  
  
  
  
  
  
  
  
  
  
  
  
  
  
  
  
  
  
  
  
  
  
  
  
  
  
  
  
  
  
  
  
  
  
  
  
  
  
  
  
  
  
  
  
  
  
  
  
  
  
  
  
  
  
  
  
  
  
  
  
  
  
  
  
  
  
  
  
  
  
  
  
  
  
  
  
  
  
  
  
  
  
  
  
  
  
  
  
  
  
  
  
  
  
  
  
  
  
  
  
  
  
  
  
  
  
  
  
  
  
  
  
  
  
  
  
  
  
  
  
  
  
  
  
  
  
  
  
  
  
  
  
  
  
  
  
  
  
  
  
  
  
  
  
  
  
  
  
  
  
  
  
  
  
  
  
  
  
  
  
  
  
  
  
  
  
  
  
  
  
  
  
  
  
  
  
  
  
  
  
  
  
  
  
  
  
  
  
  
  
  
  
  
  
  
  
  
  
  
  
  
  
  
  
  
  
  
  
  
  
  
  
  
  
  
  
  
  
  
  
  
  
  
  
  
  
  
  
  
  
  
  
  
  
  
  
  
  
  
  
  
  
  
  
  
  
  
  
  
  
  
  
  
  
  
  
  
  
  
  
  
  
  
  
  
  
  
  
  
  
  
  
  
  
  
  
  
  
  
  
  
  
  
  
  
  
  
  
  
  
  
  
  
  
  
  
  
  
  
  
  
  
  
  
  
  
  
  
  
  
  
  
  
  
  
  
  
  
  
  
  
  
  
  
  
  
  
  
  
  
  
  
  
  
  
  
  
  
  
  
  
  
  
  
  
  
  
  
  
  
  
  
  
  
  
  
  
  
  
  
  
  
  
  
  
  
  
  
  
  
  
  
  
  
  
  
  
  
  
  
  
  
  
  
  
  
  
  
  
  
  
  
  
  
  
  
  
  
  
  
  
  
  
  
  
  
  
  
  
  
  
  
  
  
  
  
  
  
  
  
  
  
  
  
  
  
  
  
  
  
  
  
  
  
  
  
  
  
  
  
  
  
  
  
  
  
  
  
  
  
  
  
  
  
  
  
  
  
  
  
  
  
  
  
  
  
  
  
  
  
  
  
  
  
  
  
  
  
  
  
  
  
  
  
  
  
  
  
  
  
  
  
  
  
  
  
  
  
  
  
  
  
  
  
  
  
  
  
  
  
  
  
  
  
  
  
  
  
  
  
  
  
  
  
  
  
  
  
  
  
  
  
  
  
  
  
  
  
  
  
  
  
  
  
  
  
  
  
  
  
  
  
  
  
  
  
  
  
  
  
  
  
  
  
  
  
  
  
  
  
  
  
  
  
  
  
  
  
  
  
  
  
  
  
  
  
  
  
  
  
  
  
  
  
  
  
  
  
  
  
  
  
  
  
  
  
  
  
  
  
  
  
  <path
   style="fill:#72b3dc;stroke:#c2dffb;stroke-width:1"
   d="M 85.941,0.748 84.548,2.349 81.537,4.255 81.064,4.317 80.902,4.269 80.392,3.898 80.037,3.826 79.423,4.02 78.157,4.269 77.589,4.358 78.022,2.168 81.227,1.69 81.74,1.613 82.732,1.478 84.89,1.167 84.962,0.865 85.941,0.748"
   id="47163"
   inkscape:label="Sullivan, TN"
   inkscape:connector-curvature="0" />
  <path
   style="fill:#72b3dc;stroke:#c2dffb;stroke-width:1"
   d="M 85.941,0.748 87.775,0.5 87.509,0.853 87.46,3.497 l 0.039,0.614 -0.215,0.072 -0.019,0 L 87.104,4.191 86.834,4.105 86.77,3.957 86.716,3.988 86.703,3.998 86.189,4.35 85.715,4.881 85.639,5.088 85.531,5.399 85.35,5.468 85.007,5.175 84.304,4.443 l -0.157,-0.31 0.798,-1.348 0,-0.04 -0.397,-0.396 1.393,-1.601"
   id="47091"
   inkscape:label="Johnson, TN"
   inkscape:connector-curvature="0" />
  <path
   style="fill:#72b3dc;stroke:#c2dffb;stroke-width:1"
   d="m 20.502,24.401 0.216,5.003 -4.249,0.338 -0.199,-3.271 0.784,-0.388 0.117,-0.496 0.19,-0.343 0.266,-0.347 0.505,-0.252 0.193,-0.082 0.577,-0.09 1.6,-0.072"
   id="47109"
   inkscape:label="McNairy, TN"
   inkscape:connector-curvature="0" />
  <path
   style="fill:#72b3dc;stroke:#c2dffb;stroke-width:1"
   d="m 17.681,21.927 2.803,1.982 0.018,0.492 -1.6,0.072 -0.577,0.09 -0.193,0.082 -0.505,0.252 -0.266,0.347 -0.19,0.343 -0.117,0.496 -0.784,0.388 -0.217,-0.965 -0.546,-0.758 -0.039,-0.562 2.213,-2.259"
   id="47023"
   inkscape:label="Chester, TN"
   inkscape:connector-curvature="0" />
  <path
   style="fill:#72b3dc;stroke:#c2dffb;stroke-width:1"
   d="m 12.994,24.325 2.474,-0.139 0.039,0.562 0.546,0.758 0.217,0.965 0.199,3.271 -0.383,0.032 -2.034,0.158 -1.892,0.139 -0.225,-5.223 1.059,-0.523"
   id="47069"
   inkscape:label="Hardeman, TN"
   inkscape:connector-curvature="0" />
  <path
   style="fill:#72b3dc;stroke:#c2dffb;stroke-width:1"
   d="m 8.906,24.982 3.029,-0.134 0.225,5.223 -1.618,0.114 L 7.486,30.383 7.423,28.647 7.319,26.962 7.274,25.447 8.906,24.982"
   id="47047"
   inkscape:label="Fayette, TN"
   inkscape:connector-curvature="0" />
  <path
   style="fill:#72b3dc;stroke:#c2dffb;stroke-width:1"
   d="m 9.757,19.529 0.004,0.045 0.149,0.19 0.113,0.117 0.259,0.188 0.444,0.208 0.217,0.005 1.113,0.348 0.789,0.301 0.149,3.394 -1.059,0.523 -3.029,0.134 -0.455,-2.279 0.081,-0.037 0.243,-0.176 0.311,-1.906 -0.004,-0.095 -0.131,0 L 8.942,20.313 9,20.088 9.28,19.493 9.757,19.529"
   id="47075"
   inkscape:label="Haywood, TN"
   inkscape:connector-curvature="0" />
  <path
   style="fill:#72b3dc;stroke:#c2dffb;stroke-width:1"
   d="m 17.55,19.317 0.131,2.61 -2.213,2.259 -2.474,0.139 -0.149,-3.394 1.493,-1.469 2.17,-0.086 1.042,-0.059"
   id="47113"
   inkscape:label="Madison, TN"
   inkscape:connector-curvature="0" />
  <path
   style="fill:#72b3dc;stroke:#c2dffb;stroke-width:1"
   d="m 11.321,17.046 0.578,0.37 0.107,0.697 0.104,0.258 0.2,0.397 1.346,0.31 0.682,0.384 -1.493,1.469 L 12.056,20.63 10.943,20.282 10.726,20.277 10.282,20.069 10.023,19.881 9.91,19.764 9.761,19.574 9.757,19.529 9.838,18.695 11.321,17.046"
   id="47033"
   inkscape:label="Crockett, TN"
   inkscape:connector-curvature="0" />
  <path
   style="fill:#72b3dc;stroke:#c2dffb;stroke-width:1"
   d="m 11.484,14.364 1.992,-0.383 0.302,0.346 0.77,0.681 0.077,0.037 0.081,-0.019 0.924,0.271 0.757,0.55 0.121,3.529 -2.17,0.086 -0.682,-0.384 -1.346,-0.31 -0.2,-0.397 -0.104,-0.258 -0.107,-0.697 -0.578,-0.37 0.163,-2.682"
   id="47053"
   inkscape:label="Gibson, TN"
   inkscape:connector-curvature="0" />
  <path
   style="fill:#72b3dc;stroke:#c2dffb;stroke-width:1"
   d="m 17.973,14.58 3.31,0.127 0.647,3.523 0.019,0.379 -4.051,0.221 -0.154,0.145 -0.135,0.175 -0.059,0.167 -1.042,0.059 -0.121,-3.529 1.586,-1.267"
   id="47017"
   inkscape:label="Carroll, TN"
   inkscape:connector-curvature="0" />
  <path
   style="fill:#72b3dc;stroke:#c2dffb;stroke-width:1"
   d="m 14.679,10.245 3.079,-0.222 0.215,4.557 -1.586,1.267 -0.757,-0.55 -0.924,-0.271 -0.081,0.019 -0.077,-0.037 -0.77,-0.681 -0.302,-0.346 -0.082,-2.42 0.033,-0.041 0.193,0.009 0.148,0.036 0.145,0.14 0.157,0.018 0.699,-0.284 -0.036,-0.775 -0.166,-0.41 0.112,-0.009"
   id="47183"
   inkscape:label="Weakley, TN"
   inkscape:connector-curvature="0" />
  <path
   style="fill:#72b3dc;stroke:#c2dffb;stroke-width:1"
   d="m 14.49,10.258 0.077,-0.004 0.166,0.41 0.036,0.775 -0.699,0.284 -0.157,-0.018 -0.145,-0.14 -0.148,-0.036 -0.193,-0.009 -0.033,0.041 0.082,2.42 -1.992,0.383 -3.389,0.135 1.144,-3.862 5.251,-0.379"
   id="47131"
   inkscape:label="Obion, TN"
   inkscape:connector-curvature="0" />
  <path
   style="fill:#72b3dc;stroke:#c2dffb;stroke-width:1"
   d="M 9.239,10.637 8.095,14.499 6.606,14.954 7.342,12.935 7.26,10.839 7.815,10.809 8.513,10.74 9.239,10.637"
   id="47095"
   inkscape:label="Lake, TN"
   inkscape:connector-curvature="0" />
  <path
   style="fill:#72b3dc;stroke:#c2dffb;stroke-width:1"
   d="M 8.095,14.499 11.484,14.364 11.321,17.046 9.838,18.695 9.709,18.466 9.623,18.357 9.109,17.893 8.244,17.937 6.755,18.507 6.247,18.637 5.696,17.42 6.606,14.954 8.095,14.499"
   id="47045"
   inkscape:label="Dyer, TN"
   inkscape:connector-curvature="0" />
  <path
   style="fill:#72b3dc;stroke:#c2dffb;stroke-width:1"
   d="m 6.247,18.637 0.508,-0.13 1.489,-0.57 0.865,-0.044 0.514,0.464 0.086,0.109 0.129,0.229 L 9.757,19.529 9.28,19.493 9,20.088 l -0.058,0.225 0.009,0.176 0.131,0 0.004,0.095 -0.311,1.906 -0.243,0.176 -0.081,0.037 -0.456,-0.325 -0.834,-0.446 -1.432,0.144 -0.311,0.112 -0.244,0.181 -0.536,0.495 -0.199,0.239 -0.185,0.433 0.285,-2.731 0.91,-1.943 0.066,-0.058 0.034,-0.023 0.225,-0.117 0.188,-0.032 0.285,0.005"
   id="47097"
   inkscape:label="Lauderdale, TN"
   inkscape:connector-curvature="0" />
  <path
   style="fill:#72b3dc;stroke:#c2dffb;stroke-width:1"
   d="m 8.451,22.703 0.455,2.279 -1.632,0.465 -0.203,-0.144 -0.55,-0.23 -0.071,-0.01 -3.452,0.393 -0.492,0.238 -0.699,-0.688 2.447,-1.47 0.185,-0.433 0.199,-0.239 0.536,-0.495 0.244,-0.181 0.311,-0.112 1.432,-0.144 0.834,0.446 0.456,0.325"
   id="47167"
   inkscape:label="Tipton, TN"
   inkscape:connector-curvature="0" />
  <path
   style="fill:#72b3dc;stroke:#c2dffb;stroke-width:1"
   d="m 2.506,25.694 0.492,-0.238 3.452,-0.393 0.071,0.01 0.55,0.23 0.203,0.144 0.045,1.515 0.104,1.685 0.063,1.736 -0.838,0.062 -6.13,0.375 -0.018,-0.18 0.126,-0.402 1.05,-0.346 1.105,-0.849 0.157,-0.193 0.019,-0.029 0.004,-0.008 0,-0.012 0.004,-0.014 -0.419,-2.957 -0.04,-0.136"
   id="47157"
   inkscape:label="Shelby, TN"
   inkscape:connector-curvature="0" />
  <path
   style="fill:#72b3dc;stroke:#c2dffb;stroke-width:1"
   d="m 21.949,18.609 0.104,2.697 -0.461,1.085 0.06,1.366 0.067,-0.006 -1.235,0.158 -2.803,-1.982 -0.131,-2.61 0.059,-0.167 0.135,-0.175 0.154,-0.145 4.051,-0.221"
   id="47077"
   inkscape:label="Henderson, TN"
   inkscape:connector-curvature="0" />
  <path
   style="fill:#72b3dc;stroke:#c2dffb;stroke-width:1"
   d="m 18.037,10.005 4.475,-0.311 0.799,1.708 -1.064,0.095 -0.014,0.018 -0.041,0.428 0.023,0.203 0.226,0.726 -0.808,1.398 -0.35,0.437 -3.31,-0.127 -0.215,-4.557 0.279,-0.018"
   id="47079"
   inkscape:label="Henry, TN"
   inkscape:connector-curvature="0" />
  <path
   style="fill:#72b3dc;stroke:#c2dffb;stroke-width:1"
   d="m 23.311,11.402 0.099,0.086 0.446,1.402 0.432,1.005 0.158,3.024 0,0.248 -0.068,0.545 -0.048,0.145 -0.168,0.252 -0.055,0.334 -2.177,-0.213 -0.647,-3.523 0.35,-0.437 0.808,-1.398 -0.226,-0.726 -0.023,-0.203 0.041,-0.428 0.014,-0.018 1.064,-0.095"
   id="47005"
   inkscape:label="Benton, TN"
   inkscape:connector-curvature="0" />
  <path
   style="fill:#72b3dc;stroke:#c2dffb;stroke-width:1"
   d="m 21.93,18.23 2.177,0.213 -0.332,0.951 -0.168,0.585 0.145,3.282 0.099,0.176 0.077,0.089 0.072,0.036 0.153,-0.012 -0.145,0.419 -2.289,-0.218 -0.067,0.006 -0.06,-1.366 0.461,-1.085 -0.104,-2.697 -0.019,-0.379"
   id="47039"
   inkscape:label="Decatur, TN"
   inkscape:connector-curvature="0" />
  <path
   style="fill:#72b3dc;stroke:#c2dffb;stroke-width:1"
   d="m 20.484,23.909 1.235,-0.158 2.289,0.218 0.019,0.22 0.171,0.853 0.472,1.631 0.177,2.254 -2.241,0.324 -1.712,0.141 -0.176,0.012 -0.216,-5.003 -0.018,-0.492"
   id="47071"
   inkscape:label="Hardin, TN"
   inkscape:connector-curvature="0" />
  <path
   style="fill:#72b3dc;stroke:#c2dffb;stroke-width:1"
   d="m 31.544,22.621 0.929,0.064 -0.022,0.346 -0.005,0.333 0.315,3.457 0.06,1.489 -4.008,0.31 -0.135,-5.139 0.424,-0.04 0.87,-0.36 -0.042,-0.482 1.276,-0.1 0.338,0.122"
   id="47099"
   inkscape:label="Lawrence, TN"
   inkscape:connector-curvature="0" />
  <path
   style="fill:#72b3dc;stroke:#c2dffb;stroke-width:1"
   d="m 27.105,22.518 1.573,0.963 0.135,5.139 -3.966,0.307 -0.177,-2.254 -0.472,-1.631 -0.171,-0.853 -0.019,-0.22 0.145,-0.419 2.952,-1.032"
   id="47181"
   inkscape:label="Wayne, TN"
   inkscape:connector-curvature="0" />
  <path
   style="fill:#72b3dc;stroke:#c2dffb;stroke-width:1"
   d="m 30.829,19.891 -0.096,0.548 0.01,0.266 0.036,0.162 0.157,0.14 0.252,0.046 0.285,0.23 0.26,0.523 -0.035,0.468 -0.031,0.153 -0.123,0.194 -0.338,-0.122 -1.276,0.1 0.042,0.482 -0.87,0.36 -0.424,0.04 -1.573,-0.963 0.474,-1.686 0.401,-0.266 0.702,-0.104 0.946,0.113 0.078,-0.018 0.423,-0.22 0.7,-0.446"
   id="47101"
   inkscape:label="Lewis, TN"
   inkscape:connector-curvature="0" />
  <path
   style="fill:#72b3dc;stroke:#c2dffb;stroke-width:1"
   d="m 26.709,17.916 0.87,2.916 -0.474,1.686 -2.952,1.032 -0.153,0.012 -0.072,-0.036 -0.077,-0.089 -0.099,-0.176 -0.145,-3.282 0.168,-0.585 0.332,-0.951 0.055,-0.334 1.249,0.158 0.257,-0.216 0.184,-0.036 0.857,-0.099"
   id="47135"
   inkscape:label="Perry, TN"
   inkscape:connector-curvature="0" />
  <path
   style="fill:#72b3dc;stroke:#c2dffb;stroke-width:1"
   d="m 31.865,15.883 0.017,1.416 -1.053,2.592 -0.7,0.446 -0.423,0.22 -0.078,0.018 -0.946,-0.113 -0.702,0.104 -0.401,0.266 -0.87,-2.916 1.708,-2.164 3.448,0.131"
   id="47081"
   inkscape:label="Hickman, TN"
   inkscape:connector-curvature="0" />
  <path
   style="fill:#72b3dc;stroke:#c2dffb;stroke-width:1"
   d="m 27.872,13.391 0.545,2.361 -1.708,2.164 -0.857,0.099 -0.184,0.036 -0.257,0.216 -1.249,-0.158 0.168,-0.252 0.048,-0.145 0.068,-0.545 0,-0.248 -0.158,-3.024 -0.432,-1.005 1.189,0.041 0.366,-0.194 0.42,0.005 1.82,0.414 0.221,0.235"
   id="47085"
   inkscape:label="Humphreys, TN"
   inkscape:connector-curvature="0" />
  <path
   style="fill:#72b3dc;stroke:#c2dffb;stroke-width:1"
   d="m 27.389,10.961 0.848,0.351 -0.365,2.079 -0.221,-0.235 -1.82,-0.414 -0.42,-0.005 -0.366,0.194 -1.189,-0.041 -0.446,-1.402 1.117,0.19 0.203,0.013 0.303,-0.017 0.201,-0.036 0.222,-0.069 0.279,-0.139 0.184,-0.13 0.141,-0.127 1.329,-0.212"
   id="47083"
   inkscape:label="Houston, TN"
   inkscape:connector-curvature="0" />
  <path
   style="fill:#72b3dc;stroke:#c2dffb;stroke-width:1"
   d="m 26.042,7.567 0.541,-0.062 0.806,3.456 -1.329,0.212 -0.141,0.127 -0.184,0.13 -0.279,0.139 -0.222,0.069 -0.201,0.036 -0.303,0.017 -0.203,-0.013 -1.117,-0.19 -0.099,-0.086 -0.799,-1.708 -0.37,-2.33 0.601,-0.036 1.676,0.032 -0.004,0.397 1.627,-0.19"
   id="47161"
   inkscape:label="Stewart, TN"
   inkscape:connector-curvature="0" />
  <path
   style="fill:#72b3dc;stroke:#c2dffb;stroke-width:1"
   d="m 31.959,6.959 0.172,2.425 -1.546,1.884 -2.348,0.044 -0.848,-0.351 -0.806,-3.456 3.119,-0.325 2.257,-0.221"
   id="47125"
   inkscape:label="Montgomery, TN"
   inkscape:connector-curvature="0" />
  <path
   style="fill:#72b3dc;stroke:#c2dffb;stroke-width:1"
   d="m 35.546,6.531 2.056,0 -0.266,0.685 -0.568,1.703 -0.229,0.506 -0.595,0.248 -1.601,0.445 -2.212,-0.734 -0.172,-2.425 0.554,-0.064 3.033,-0.364"
   id="47147"
   inkscape:label="Robertson, TN"
   inkscape:connector-curvature="0" />
  <path
   style="fill:#72b3dc;stroke:#c2dffb;stroke-width:1"
   d="m 32.131,9.384 2.212,0.734 -1.032,4.503 -1.328,0.067 0.08,-1.843 -0.144,-0.483 -0.208,-0.152 0.28,-0.433 0.018,-0.347 -0.032,-0.073 -0.238,-0.089 -0.533,-0.068 -0.621,0.068 1.546,-1.884 z m -0.077,2.122 -0.05,0.063 0.13,-0.058 -0.03,-0.027 -0.018,0.036 -0.032,-0.014"
   id="47021"
   inkscape:label="Cheatham, TN"
   inkscape:connector-curvature="0" />
  <path
   style="fill:#72b3dc;stroke:#c2dffb;stroke-width:1"
   d="m 28.237,11.312 2.348,-0.044 0.621,-0.068 0.533,0.068 0.238,0.089 0.032,0.073 -0.018,0.347 -0.28,0.433 0.208,0.152 0.144,0.483 -0.08,1.843 -0.118,1.195 -3.448,-0.131 -0.545,-2.361 0.365,-2.079"
   id="47043"
   inkscape:label="Dickson, TN"
   inkscape:connector-curvature="0" />
  <path
   style="fill:#72b3dc;stroke:#c2dffb;stroke-width:1"
   d="m 31.983,14.688 1.328,-0.067 0.207,0.716 0.136,-0.018 0.937,-0.914 1.484,0.076 1.82,0.707 -0.365,3.404 -0.986,0.139 -4.662,-1.432 -0.017,-1.416 0.118,-1.195"
   id="47187"
   inkscape:label="Williamson, TN"
   inkscape:connector-curvature="0" />
  <path
   style="fill:#72b3dc;stroke:#c2dffb;stroke-width:1"
   d="m 31.882,17.299 4.662,1.432 -1.498,3.921 -2.573,0.033 -0.929,-0.064 0.123,-0.194 0.031,-0.153 0.035,-0.468 -0.26,-0.523 -0.285,-0.23 -0.252,-0.046 -0.157,-0.14 -0.036,-0.162 -0.01,-0.266 0.096,-0.548 1.053,-2.592"
   id="47119"
   inkscape:label="Maury, TN"
   inkscape:connector-curvature="0" />
  <path
   style="fill:#72b3dc;stroke:#c2dffb;stroke-width:1"
   d="m 36.544,18.731 0.986,-0.139 0.514,0.265 -0.009,2.534 0.032,0.46 0.103,0.261 0.506,0.847 0.156,0.019 0.036,-0.015 -2.253,1.543 -1.569,-1.854 1.498,-3.921"
   id="47117"
   inkscape:label="Marshall, TN"
   inkscape:connector-curvature="0" />
  <path
   style="fill:#72b3dc;stroke:#c2dffb;stroke-width:1"
   d="m 32.473,22.685 2.573,-0.033 1.569,1.854 0.258,3.519 -3.922,0.275 -0.13,0.01 -0.06,-1.489 -0.315,-3.457 0.005,-0.333 0.022,-0.346"
   id="47055"
   inkscape:label="Giles, TN"
   inkscape:connector-curvature="0" />
  <path
   style="fill:#72b3dc;stroke:#c2dffb;stroke-width:1"
   d="m 39.653,23.018 2.456,2.717 0.173,1.758 -4.861,0.479 -0.548,0.053 -0.258,-3.519 2.253,-1.543 0.785,0.055"
   id="47103"
   inkscape:label="Lincoln, TN"
   inkscape:connector-curvature="0" />
  <path
   style="fill:#72b3dc;stroke:#c2dffb;stroke-width:1"
   d="m 42.361,21.989 0.063,1.025 -0.315,2.721 -2.456,-2.717 2.708,-1.029"
   id="47127"
   inkscape:label="Moore, TN"
   inkscape:connector-curvature="0" />
  <path
   style="fill:#72b3dc;stroke:#c2dffb;stroke-width:1"
   d="m 42.199,19.142 0.162,2.847 -2.708,1.029 -0.785,-0.055 -0.036,0.015 -0.156,-0.019 -0.506,-0.847 -0.103,-0.261 -0.032,-0.46 0.009,-2.534 0.013,-0.211 0.15,-0.027 0.82,-0.015 2.569,0.29 0.603,0.248"
   id="47003"
   inkscape:label="Bedford, TN"
   inkscape:connector-curvature="0" />
  <path
   style="fill:#72b3dc;stroke:#c2dffb;stroke-width:1"
   d="m 38.793,13.368 0.45,0.302 1.65,0.996 0.171,0.067 0.685,0.167 0.968,-0.022 -0.219,3.295 -0.299,0.969 -0.603,-0.248 -2.569,-0.29 -0.82,0.015 -0.15,0.027 -0.013,0.211 -0.514,-0.265 0.365,-3.404 0.898,-1.82"
   id="47149"
   inkscape:label="Rutherford, TN"
   inkscape:connector-curvature="0" />
  <path
   style="fill:#72b3dc;stroke:#c2dffb;stroke-width:1"
   d="m 34.343,10.118 1.601,-0.445 1.851,1.909 0.998,1.786 -0.898,1.82 -1.82,-0.707 -1.484,-0.076 -0.937,0.914 -0.136,0.018 -0.207,-0.716 1.032,-4.503"
   id="47037"
   inkscape:label="Davidson, TN"
   inkscape:connector-curvature="0" />
  <path
   style="fill:#72b3dc;stroke:#c2dffb;stroke-width:1"
   d="m 39.144,6.152 2.127,-0.076 -0.04,1.991 -0.374,1.87 -0.127,0.47 -0.355,-0.045 -0.141,-0.133 -0.026,-0.197 -0.055,-0.085 -0.112,-0.063 -0.055,0.005 -0.842,0.378 -1.051,0.73 -0.298,0.585 -1.851,-1.909 0.595,-0.248 0.229,-0.506 0.568,-1.703 0.266,-0.685 1.542,-0.379"
   id="47165"
   inkscape:label="Sumner, TN"
   inkscape:connector-curvature="0" />
  <path
   style="fill:#72b3dc;stroke:#c2dffb;stroke-width:1"
   d="m 42.429,10.447 1.073,2.628 0.635,1.569 -1.42,0.234 -0.968,0.022 -0.685,-0.167 -0.171,-0.067 -1.65,-0.996 -0.45,-0.302 -0.998,-1.786 0.298,-0.585 1.051,-0.73 0.842,-0.378 0.055,-0.005 0.112,0.063 0.055,0.085 0.026,0.197 0.141,0.133 0.355,0.045 0.127,-0.47 1.572,0.51"
   id="47189"
   inkscape:label="Wilson, TN"
   inkscape:connector-curvature="0" />
  <path
   style="fill:#72b3dc;stroke:#c2dffb;stroke-width:1"
   d="m 44.137,14.644 1.501,1.424 -0.784,2.429 -2.356,-0.324 0.219,-3.295 1.42,-0.234"
   id="47015"
   inkscape:label="Cannon, TN"
   inkscape:connector-curvature="0" />
  <path
   style="fill:#72b3dc;stroke:#c2dffb;stroke-width:1"
   d="m 44.854,18.497 1.308,1.636 -0.033,0.023 -0.022,0.068 0.036,0.96 0.122,0.648 0.166,0.149 -0.072,0.418 -0.197,0.696 -0.059,0.117 -1.351,-0.572 -1.277,-0.118 -0.947,0.333 -0.099,0.104 -0.005,0.055 -0.063,-1.025 -0.162,-2.847 0.299,-0.969 2.356,0.324"
   id="47031"
   inkscape:label="Coffee, TN"
   inkscape:connector-curvature="0" />
  <path
   style="fill:#72b3dc;stroke:#c2dffb;stroke-width:1"
   d="m 42.424,23.014 0.005,-0.055 0.099,-0.104 0.947,-0.333 1.277,0.118 1.351,0.572 0.514,0.798 0.419,3.024 -4.675,0.455 -0.079,0.004 -0.173,-1.758 0.315,-2.721"
   id="47051"
   inkscape:label="Franklin, TN"
   inkscape:connector-curvature="0" />
  <path
   style="fill:#72b3dc;stroke:#c2dffb;stroke-width:1"
   d="m 46.617,24.01 3.136,-1.592 0.122,0.181 0.892,0.36 0.267,0.067 0.424,0.424 0.157,0.226 0.157,0.653 0.009,0.108 -0.649,2.209 -1.388,0.144 -2.708,0.244 -0.419,-3.024"
   id="47115"
   inkscape:label="Marion, TN"
   inkscape:connector-curvature="0" />
  <path
   style="fill:#72b3dc;stroke:#c2dffb;stroke-width:1"
   d="m 50.794,19.06 2.362,2.52 -1.375,2.857 -0.009,-0.108 -0.157,-0.653 -0.157,-0.226 -0.424,-0.424 -0.267,-0.067 -0.892,-0.36 -0.122,-0.181 -0.806,-2.687 0.513,-0.071 1.334,-0.6"
   id="47153"
   inkscape:label="Sequatchie, TN"
   inkscape:connector-curvature="0" />
  <path
   style="fill:#72b3dc;stroke:#c2dffb;stroke-width:1"
   d="m 48.947,19.731 0.806,2.687 -3.136,1.592 -0.514,-0.798 0.059,-0.117 0.197,-0.696 0.072,-0.418 -0.166,-0.149 -0.122,-0.648 -0.036,-0.96 0.022,-0.068 0.033,-0.023 0.468,0.068 0.163,0.004 0.644,-0.212 0.519,-0.112 0.991,-0.15"
   id="47061"
   inkscape:label="Grundy, TN"
   inkscape:connector-curvature="0" />
  <path
   style="fill:#72b3dc;stroke:#c2dffb;stroke-width:1"
   d="m 52.061,15.973 -0.022,0.068 0.225,0.248 0,0.018 -1.47,2.753 -1.334,0.6 -0.842,-3.331 3.443,-0.356"
   id="47175"
   inkscape:label="Van Buren, TN"
   inkscape:connector-curvature="0" />
  <path
   style="fill:#72b3dc;stroke:#c2dffb;stroke-width:1"
   d="m 47.748,15.951 0.87,0.378 0.842,3.331 -0.513,0.071 -0.991,0.15 -0.519,0.112 -0.644,0.212 -0.163,-0.004 -0.468,-0.068 -1.308,-1.636 0.784,-2.429 2.11,-0.117"
   id="47177"
   inkscape:label="Warren, TN"
   inkscape:connector-curvature="0" />
  <path
   style="fill:#72b3dc;stroke:#c2dffb;stroke-width:1"
   d="m 51.844,13.562 0.217,2.411 -3.443,0.356 -0.87,-0.378 0.126,-2.417 0.004,-0.076 0.045,-0.095 0.185,-0.193 0.551,-0.486 0.148,-0.073 0.383,-0.094 1.438,0.225 0.509,0.193 0.158,0.123 0.549,0.504"
   id="47185"
   inkscape:label="White, TN"
   inkscape:connector-curvature="0" />
  <path
   style="fill:#72b3dc;stroke:#c2dffb;stroke-width:1"
   d="m 46.035,12.21 1.839,1.324 -0.126,2.417 -2.11,0.117 -1.501,-1.424 -0.635,-1.569 2.533,-0.865"
   id="47041"
   inkscape:label="DeKalb, TN"
   inkscape:connector-curvature="0" />
  <path
   style="fill:#72b3dc;stroke:#c2dffb;stroke-width:1"
   d="m 46.17,10.809 1.501,0.107 0.65,-0.198 0.319,-0.154 0.068,-0.098 0.297,-0.51 0,-0.298 0.87,0.767 2.335,0.83 0.879,0 0.207,0.057 -0.482,0.564 -0.861,0.019 -0.103,0.076 -0.006,1.591 -0.549,-0.504 -0.158,-0.123 -0.509,-0.193 -1.438,-0.225 -0.383,0.094 -0.148,0.073 -0.551,0.486 -0.185,0.193 -0.045,0.095 -0.004,0.076 -1.839,-1.324 0.135,-1.401"
   id="47141"
   inkscape:label="Putnam, TN"
   inkscape:connector-curvature="0" />
  <path
   style="fill:#72b3dc;stroke:#c2dffb;stroke-width:1"
   d="m 43.872,8.595 -1.443,1.852 -1.572,-0.51 0.374,-1.87 2.641,0.528"
   id="47169"
   inkscape:label="Trousdale, TN"
   inkscape:connector-curvature="0" />
  <path
   style="fill:#72b3dc;stroke:#c2dffb;stroke-width:1"
   d="m 43.619,5.977 1.929,-0.118 -0.09,1.61 -0.021,1.143 -1.565,-0.017 -2.641,-0.528 0.04,-1.991 2.348,-0.099"
   id="47111"
   inkscape:label="Macon, TN"
   inkscape:connector-curvature="0" />
  <path
   style="fill:#72b3dc;stroke:#c2dffb;stroke-width:1"
   d="m 43.872,8.595 1.565,0.017 0.733,2.197 -0.135,1.401 -2.533,0.865 -1.073,-2.628 1.443,-1.852"
   id="47159"
   inkscape:label="Smith, TN"
   inkscape:connector-curvature="0" />
  <path
   style="fill:#72b3dc;stroke:#c2dffb;stroke-width:1"
   d="m 45.458,7.469 0.455,-0.285 1.321,0.208 0.694,0.17 0.523,0.384 0.406,0.406 0.148,1.306 0,0.298 -0.297,0.51 -0.068,0.098 -0.319,0.154 -0.65,0.198 -1.501,-0.107 -0.733,-2.197 0.021,-1.143"
   id="47087"
   inkscape:label="Jackson, TN"
   inkscape:connector-curvature="0" />
  <path
   style="fill:#72b3dc;stroke:#c2dffb;stroke-width:1"
   d="m 50.822,6.459 1.869,1.411 0.132,1.324 0.176,0.46 0.396,0.893 -0.306,0.708 -0.879,0 -2.335,-0.83 -0.87,-0.767 -0.148,-1.306 1.965,-1.893"
   id="47133"
   inkscape:label="Overton, TN"
   inkscape:connector-curvature="0" />
  <path
   style="fill:#72b3dc;stroke:#c2dffb;stroke-width:1"
   d="M 50.772,5.22 50.822,6.459 48.857,8.352 48.451,7.946 47.928,7.562 47.234,7.392 45.913,7.184 45.458,7.469 45.548,5.859 49.149,5.513 50.574,5.255 50.772,5.22"
   id="47027"
   inkscape:label="Clay, TN"
   inkscape:connector-curvature="0" />
  <path
   style="fill:#72b3dc;stroke:#c2dffb;stroke-width:1"
   d="M 53.936,5.021 55.82,4.935 56.487,5.887 55.086,5.463 54.643,5.395 54.243,5.413 53.611,5.611 53.224,5.994 52.99,6.378 52.881,6.63 52.691,7.87 50.822,6.459 50.772,5.22 53.936,5.021"
   id="47137"
   inkscape:label="Pickett, TN"
   inkscape:connector-curvature="0" />
  <path
   style="fill:#72b3dc;stroke:#c2dffb;stroke-width:1"
   d="m 52.264,16.307 1.243,-0.194 0.487,0.049 0.573,0.005 0.401,-0.022 0.789,-0.19 -1.095,1.911 -0.6,0.771 -0.279,1.077 0.153,0.424 -0.78,1.442 -2.362,-2.52 1.47,-2.753"
   id="47007"
   inkscape:label="Bledsoe, TN"
   inkscape:connector-curvature="0" />
  <path
   style="fill:#72b3dc;stroke:#c2dffb;stroke-width:1"
   d="m 56.487,5.887 0.555,1.947 -1.577,1.207 -0.083,0.107 -0.279,1.042 0.15,0.663 -1.957,0.459 -0.207,-0.057 0.306,-0.708 -0.396,-0.893 -0.176,-0.46 -0.132,-1.324 0.19,-1.24 0.109,-0.252 0.234,-0.384 0.387,-0.383 0.632,-0.198 0.4,-0.018 0.443,0.068 1.401,0.424"
   id="47049"
   inkscape:label="Fentress, TN"
   inkscape:connector-curvature="0" />
  <path
   style="fill:#72b3dc;stroke:#c2dffb;stroke-width:1"
   d="m 53.296,11.312 1.957,-0.459 2.708,2.92 -0.915,1.2 -1.289,0.982 -0.789,0.19 -0.401,0.022 -0.573,-0.005 -0.487,-0.049 -1.243,0.194 0,-0.018 -0.225,-0.248 0.022,-0.068 -0.217,-2.411 0.006,-1.591 0.103,-0.076 0.861,-0.019 0.482,-0.564"
   id="47035"
   inkscape:label="Cumberland, TN"
   inkscape:connector-curvature="0" />
  <path
   style="fill:#72b3dc;stroke:#c2dffb;stroke-width:1"
   d="m 57.758,15.834 0.13,0.202 0.032,0.077 -0.041,0.505 -0.558,1.906 -1.068,1.569 -0.069,0.045 -0.931,0.482 -1.317,-0.482 -0.153,-0.424 0.279,-1.077 0.6,-0.771 1.095,-1.911 1.289,-0.982 0.712,0.861"
   id="47143"
   inkscape:label="Rhea, TN"
   inkscape:connector-curvature="0" />
  <path
   style="fill:#72b3dc;stroke:#c2dffb;stroke-width:1"
   d="m 58.998,17.1 -2.038,4.093 -0.802,0.91 -0.905,-1.483 0.931,-0.482 0.069,-0.045 1.068,-1.569 0.558,-1.906 0.041,-0.505 -0.032,-0.077 -0.13,-0.202 1.24,1.266"
   id="47121"
   inkscape:label="Meigs, TN"
   inkscape:connector-curvature="0" />
  <path
   style="fill:#72b3dc;stroke:#c2dffb;stroke-width:1"
   d="m 55.253,20.62 0.905,1.483 -0.424,1.176 -0.063,0.235 -0.093,0.756 0.372,1.019 0.344,0.717 -0.032,0.005 -2.971,0.373 -1.027,0.14 -1.132,0.122 0.649,-2.209 1.375,-2.857 0.78,-1.442 1.317,0.482"
   id="47065"
   inkscape:label="Hamilton, TN"
   inkscape:connector-curvature="0" />
  <path
   style="fill:#72b3dc;stroke:#c2dffb;stroke-width:1"
   d="m 56.96,21.193 1.793,1.212 -0.365,3.353 -0.359,0.045 -1.735,0.203 -0.344,-0.717 -0.372,-1.019 0.093,-0.756 0.063,-0.235 0.424,-1.176 0.802,-0.91"
   id="47011"
   inkscape:label="Bradley, TN"
   inkscape:connector-curvature="0" />
  <path
   style="fill:#72b3dc;stroke:#c2dffb;stroke-width:1"
   d="m 60.845,21.57 2.237,0.758 0.039,2.849 -3.123,0.384 -1.61,0.197 0.365,-3.353 0.285,-0.248 0.492,-0.194 1.131,-0.117 0.184,-0.276"
   id="47139"
   inkscape:label="Polk, TN"
   inkscape:connector-curvature="0" />
  <path
   style="fill:#72b3dc;stroke:#c2dffb;stroke-width:1"
   d="m 63.513,16.99 0.086,0.142 1.086,0.617 0.51,-0.095 1.087,0.582 0.012,0.013 -0.012,0.05 -0.177,0.284 -0.423,2.312 -0.244,0.333 -0.395,0.325 -1.111,0.027 -0.85,0.748 -2.237,-0.758 0.811,-0.684 -0.094,-0.879 -1.067,-1.866 -0.434,-0.689 -0.014,-0.14 -0.044,-0.068 0.347,-0.451 0.298,-0.171 0.233,-0.107 0.072,-0.015 1.042,-0.031 1.461,0.428 0.057,0.093 z"
   id="47123"
   inkscape:label="Monroe, TN"
   inkscape:connector-curvature="0" />
  <path
   style="fill:#72b3dc;stroke:#c2dffb;stroke-width:1"
   d="m 59.363,17.06 0.64,0.184 0.044,0.068 0.014,0.14 0.434,0.689 1.067,1.866 0.094,0.879 -0.811,0.684 -0.184,0.276 -1.131,0.117 -0.492,0.194 -0.285,0.248 -1.793,-1.212 2.038,-4.093 0.365,-0.04"
   id="47107"
   inkscape:label="McMinn, TN"
   inkscape:connector-curvature="0" />
  <path
   style="fill:#72b3dc;stroke:#c2dffb;stroke-width:1"
   d="m 59.781,16.667 -0.418,0.393 -0.365,0.04 -1.24,-1.266 -0.712,-0.861 0.915,-1.2 1.497,-1.045 0.796,-0.249 0.343,-0.305 0.631,-0.636 0.942,1.7 0.109,0.161 -0.194,-0.058 -0.487,0.193 -1.64,2.57 -0.177,0.563 z m 0,0 0,0"
   id="47145"
   inkscape:label="Roane, TN"
   inkscape:connector-curvature="0" />
  <path
   style="fill:#72b3dc;stroke:#c2dffb;stroke-width:1"
   d="m 60.03,10.186 1.198,1.352 -0.631,0.636 -0.343,0.305 -0.796,0.249 -1.497,1.045 -2.708,-2.92 -0.15,-0.663 0.279,-1.042 0.083,-0.107 1.577,-1.207 1.077,1.185 0.482,0.361 1.054,0.395 0.375,0.411"
   id="47129"
   inkscape:label="Morgan, TN"
   inkscape:connector-curvature="0" />
  <path
   style="fill:#72b3dc;stroke:#c2dffb;stroke-width:1"
   d="M 55.896,4.931 61.188,4.435 61.125,5.566 60.691,8.667 60.648,9.416 60.03,10.186 59.655,9.775 58.601,9.38 58.119,9.019 57.042,7.834 56.487,5.887 55.82,4.935 55.896,4.931"
   id="47151"
   inkscape:label="Scott, TN"
   inkscape:connector-curvature="0" />
  <path
   style="fill:#72b3dc;stroke:#c2dffb;stroke-width:1"
   d="m 63.983,4.115 1.117,2.077 -0.248,0.37 -0.252,1.29 -0.113,0.22 -0.153,0.181 -3.686,1.163 0.043,-0.749 0.434,-3.101 0.063,-1.131 0.352,-0.04 2.443,-0.28"
   id="47013"
   inkscape:label="Campbell, TN"
   inkscape:connector-curvature="0" />
  <path
   style="fill:#72b3dc;stroke:#c2dffb;stroke-width:1"
   d="m 64.334,8.253 0.779,1 -0.027,0 -0.18,0.167 -1.095,1.452 0.014,0.166 0.229,0.401 -1.703,1.681 -0.181,0.118 -0.942,-1.7 -1.198,-1.352 0.618,-0.77 3.686,-1.163"
   id="47001"
   inkscape:label="Anderson, TN"
   inkscape:connector-curvature="0" />
  <path
   style="fill:#72b3dc;stroke:#c2dffb;stroke-width:1"
   d="m 62.279,13.399 1.149,1.055 0.085,2.536 -0.057,-0.093 -1.461,-0.428 -1.042,0.031 -0.072,0.015 -0.233,0.107 -0.298,0.171 -0.347,0.451 -0.64,-0.184 0.418,-0.393 0.177,-0.563 1.64,-2.57 0.487,-0.193 0.194,0.058"
   id="47105"
   inkscape:label="Loudon, TN"
   inkscape:connector-curvature="0" />
  <path
   style="fill:#72b3dc;stroke:#c2dffb;stroke-width:1"
   d="m 67.124,12.913 0.879,1.52 0.441,0.662 0.36,0.171 0.203,1.563 -2.816,1.784 -0.086,-0.03 0.177,-0.284 0.012,-0.05 -0.012,-0.013 -1.087,-0.582 -0.51,0.095 -1.086,-0.617 -0.086,-0.142 -0.085,-2.536 0.158,-0.51 1.451,-0.724 0.549,0.04 0.65,0.325 0.149,0 0.739,-0.672"
   id="47009"
   inkscape:label="Blount, TN"
   inkscape:connector-curvature="0" />
  <path
   style="fill:#72b3dc;stroke:#c2dffb;stroke-width:1"
   d="m 72.082,12.146 0.882,2.249 0.045,0.245 -0.374,0.548 -1.789,1.416 -0.127,0.082 -1.473,0.152 -0.189,-0.004 -0.05,-0.005 -0.203,-1.563 -0.36,-0.171 -0.441,-0.662 -0.879,-1.52 0.991,-2.109 0.713,0.202 2.104,0.839 1.15,0.301"
   id="47155"
   inkscape:label="Sevier, TN"
   inkscape:connector-curvature="0" />
  <path
   style="fill:#72b3dc;stroke:#c2dffb;stroke-width:1"
   d="m 67.296,9.257 0.806,0.992 0.013,0.555 -0.991,2.109 -0.739,0.672 -0.149,0 -0.65,-0.325 -0.549,-0.04 -1.451,0.724 -0.158,0.51 -1.149,-1.055 -0.109,-0.161 0.181,-0.118 1.703,-1.681 -0.229,-0.401 -0.014,-0.166 1.095,-1.452 0.18,-0.167 0.027,0 2.183,0.004"
   id="47093"
   inkscape:label="Knox, TN"
   inkscape:connector-curvature="0" />
  <path
   style="fill:#72b3dc;stroke:#c2dffb;stroke-width:1"
   d="m 65.1,6.192 0.288,-0.13 0.708,-0.203 0.059,0.032 0.689,0.744 0.816,0.215 -0.364,2.407 -2.183,-0.004 -0.779,-1 0.153,-0.181 0.113,-0.22 0.252,-1.29 0.248,-0.37"
   id="47173"
   inkscape:label="Union, TN"
   inkscape:connector-curvature="0" />
  <path
   style="fill:#72b3dc;stroke:#c2dffb;stroke-width:1"
   d="M 67.147,3.561 69.224,3.331 70.415,5.589 67.66,6.85 66.844,6.635 66.155,5.891 66.096,5.859 65.388,6.062 65.1,6.192 63.983,4.115 64.564,4.057 67.147,3.561"
   id="47025"
   inkscape:label="Claiborne, TN"
   inkscape:connector-curvature="0" />
  <path
   style="fill:#72b3dc;stroke:#c2dffb;stroke-width:1"
   d="M 75.768,2.488 74.637,3.312 74.371,3.281 74.029,3.123 73.984,3.132 73.61,3.397 73.114,3.8 72.645,4.358 71.527,5.679 70.415,5.589 69.224,3.331 74.195,2.704 75.768,2.488"
   id="47067"
   inkscape:label="Hancock, TN"
   inkscape:connector-curvature="0" />
  <path
   style="fill:#72b3dc;stroke:#c2dffb;stroke-width:1"
   d="m 70.415,5.589 1.112,0.09 0.442,1.325 -1.968,1.767 -1.899,1.478 L 67.296,9.257 67.66,6.85 70.415,5.589"
   id="47057"
   inkscape:label="Grainger, TN"
   inkscape:connector-curvature="0" />
  <path
   style="fill:#72b3dc;stroke:#c2dffb;stroke-width:1"
   d="m 73.822,7.369 -0.749,0.905 -0.536,1.33 -2.536,-0.833 1.968,-1.767 1.853,0.365"
   id="47063"
   inkscape:label="Hamblen, TN"
   inkscape:connector-curvature="0" />
  <path
   style="fill:#72b3dc;stroke:#c2dffb;stroke-width:1"
   d="m 72.537,9.604 -0.455,2.542 -1.15,-0.301 -2.104,-0.839 -0.713,-0.202 -0.013,-0.555 1.899,-1.478 2.536,0.833"
   id="47089"
   inkscape:label="Jefferson, TN"
   inkscape:connector-curvature="0" />
  <path
   style="fill:#72b3dc;stroke:#c2dffb;stroke-width:1"
   d="m 73.073,8.274 -0.027,0.307 0.073,0.082 0.404,0.298 0.897,0.481 1.145,0.893 0.666,0.6 -0.399,2.033 -2.868,1.427 -0.882,-2.249 0.455,-2.542 0.536,-1.33"
   id="47029"
   inkscape:label="Cocke, TN"
   inkscape:connector-curvature="0" />
  <path
   style="fill:#72b3dc;stroke:#c2dffb;stroke-width:1"
   d="M 81.393,6.166 82.782,7.221 80.943,8.591 80.209,9.934 79.099,9.289 79.077,8.55 79.667,7.774 80.068,7.63 80.307,7.603 80.753,7.315 81.077,6.833 81.393,6.166"
   id="47171"
   inkscape:label="Unicoi, TN"
   inkscape:connector-curvature="0" />
  <path
   style="fill:#72b3dc;stroke:#c2dffb;stroke-width:1"
   d="M 78.022,2.168 77.589,4.358 77.404,4.665 76.327,5.413 75.832,5.558 75.642,5.661 75.12,5.994 74.889,6.261 74.696,6.607 74.457,6.883 74.02,7.274 73.907,7.36 73.822,7.369 71.969,7.004 71.527,5.679 72.645,4.358 73.114,3.8 73.61,3.397 l 0.374,-0.265 0.045,-0.009 0.342,0.158 0.266,0.031 1.131,-0.824 2.254,-0.32"
   id="47073"
   inkscape:label="Hawkins, TN"
   inkscape:connector-curvature="0" />
  <path
   style="fill:#72b3dc;stroke:#c2dffb;stroke-width:1"
   d="m 77.404,4.665 0.709,-0.207 0.03,0.09 0.235,2.74 0.108,0.712 0.591,0.55 0.022,0.739 -0.197,-0.189 0,-0.005 -0.155,-0.098 -0.049,0.008 -0.262,0.189 -0.181,0.131 -0.648,0.64 -0.91,0.852 -0.466,0.118 -0.666,-0.6 L 74.42,9.442 73.523,8.961 73.119,8.663 73.046,8.581 73.073,8.274 73.822,7.369 73.907,7.36 74.02,7.274 74.457,6.883 74.696,6.607 74.889,6.261 75.12,5.994 75.642,5.661 75.832,5.558 76.327,5.413 77.404,4.665"
   id="47059"
   inkscape:label="Greene, TN"
   inkscape:connector-curvature="0" />
  <path
   style="fill:#72b3dc;stroke:#c2dffb;stroke-width:1"
   d="m 77.589,4.358 0.568,-0.089 1.266,-0.249 0.614,-0.194 0.355,0.072 0.51,0.371 0.162,0.048 L 81.537,4.255 81.393,6.166 81.077,6.833 80.753,7.315 80.307,7.603 80.068,7.63 79.667,7.774 79.077,8.55 78.486,8 78.378,7.288 78.143,4.548 78.113,4.458 77.404,4.665 77.589,4.358"
   id="47179"
   inkscape:label="Washington, TN"
   inkscape:connector-curvature="0" />
  <path
   style="fill:#72b3dc;stroke:#c2dffb;stroke-width:1"
   d="m 84.548,2.349 0.397,0.396 0,0.04 -0.798,1.348 0.157,0.31 0.703,0.732 0.343,0.293 0.181,-0.069 -1.212,2.267 -1.537,-0.445 -1.389,-1.055 0.144,-1.911 3.011,-1.906"
   id="47019"
   inkscape:label="Carter, TN"
   inkscape:connector-curvature="0" />
  
  
  
  
  
  
  
  
  
  
  
  
  
  
  
  
  
  
  
  
  
  
  
  
  
  
  
  
  
  
  
  
  
  
  
  
  
  
  
  
  
  
  
  
  
  
  
  
  
  
  
  
  
  
  
  
  
  
  
  
  
  
  
  
  
  
  
  
  
  
  
  
  
  
  
  
  
  
  
  
  
  
  
  
  
  
  
  
  
  
  
  
  
  
  
  
  
  
  
  
  
  
  
  
  
  
  
  
  
  
  
  
  
  
  
  
  
  
  
  
  
  
  
  
  
  
  
  
  
  
  
  
  
  
  
  
  
  
  
  
  
  
  
  
  
  
  
  
  
  
  
  
  
  
  
  
  
  
  
  
  
  
  
  
  
  
  
  
  
  
  
  
  
  
  
  
  
  
  
  
  
  
  
  
  
  
  
  
  
  
  
  
  
  
  
  
  
  
  
  
  
  
  
  
  
  
  
  
  
  
  
  
  
  
  
  
  
  
  
  
  
  
  
  
  
  
  
  
  
  
  
  
  
  
  
  
  
  
  
  
  
  
  
  
  
  
  
  
  
  
  
  
  
  
  
  
  
  
  
  
  
  
  
  
  
  
  
  
  
  
  
  
  
  
  
  
  
  
  
  
  
  
  
  
  
  
  
  
  
  
  
  
  
  
  
  
  
  
  
  
  
  
  
  
  
  
  
  
  
  
  
  
  
  
  
  
  
  
  
  
  
  
  
  
  
  
  
  
  
  
  
  
  
  
  
  
  
  
  
  
  
  
  
  
  
  
  
  
  
  
  
  
  
  
  
  
  
  
  
  
  
  
  
  
  
  
  
  
  
  
  
  
  
  
  
  
  
  
  
  
  
  
  
  
  
  
  
  
  
  
  
  
  
  
  
  
  
  
  
  
  
  
  
  
  
  
  
  
  
  
  
  
  
  
  
  
  
  
  
  
  
  
  
  
  
  
  
  
  
  
  
  
  
  
  
  
  
  
  
  
  
  
  
  
  
  
  
  
  
  
  
  
  
  
  
  
  
  
  
  
  
  
  
  
  
  
  
  
  
  
  
  
  
  
  
  
  
  
  
  
  
  
  
  
  
  
  
  
  
  
  
  
  
  
  
  
  
  
  
  
  
  
  
  
  
  
  
  
  
  
  
  
  
  
  
  
  
  
  
  
  
  
  
  
  
  
  
  
  
  
  
  
  
  
  
  
  
  
  
  
  
  
  
  
  
  
  
  
  
  
  
  
  
  
  
  
  
  
  
  
  
  
  
  
  
  
  
  
  
  
  
  
  
  
  
  
  
  
  
  
  
  
  
  
  
  
  
  
  
  
  
  
  
  
  
  
  
  
  
  
  
  
  
  
  
  
  
  
  
  
  
  
  
  
  
  
  
  
  
  
  
  
  
</svg>