<?xml version="1.0" encoding="UTF-8" standalone="no"?>
<!--?xml version="1.0" encoding="UTF-8" standalone="no"?-->

<svg
   xmlns:dc="http://purl.org/dc/elements/1.1/"
   xmlns:cc="http://creativecommons.org/ns#"
   xmlns:rdf="http://www.w3.org/1999/02/22-rdf-syntax-ns#"
   xmlns:svg="http://www.w3.org/2000/svg"
   xmlns="http://www.w3.org/2000/svg"
   xmlns:sodipodi="http://sodipodi.sourceforge.net/DTD/sodipodi-0.dtd"
   xmlns:inkscape="http://www.inkscape.org/namespaces/inkscape"
   width="155.66606"
   height="152.23886"
   viewBox="0 0 143.893 139.06434"
   preserveAspectRatio="xMinYMin meet"
   xml:space="preserve"
   id="svg2867"
   version="1.1"
   inkscape:version="0.48.2 r9819"
   sodipodi:docname="TX.svg"><metadata
   id="metadata3127"><rdf:RDF><cc:Work
       rdf:about=""><dc:format>image/svg+xml</dc:format><dc:type
         rdf:resource="http://purl.org/dc/dcmitype/StillImage" /></cc:Work></rdf:RDF></metadata><defs
   id="defs3125" /><sodipodi:namedview
   pagecolor="#ffffff"
   bordercolor="#666666"
   borderopacity="1"
   objecttolerance="10"
   gridtolerance="10"
   guidetolerance="10"
   inkscape:pageopacity="0"
   inkscape:pageshadow="2"
   inkscape:window-width="640"
   inkscape:window-height="480"
   id="namedview3123"
   showgrid="false"
   inkscape:zoom="0.56730769"
   inkscape:cx="105.90461"
   inkscape:cy="151.3562"
   inkscape:window-x="0"
   inkscape:window-y="0"
   inkscape:window-maximized="0"
   inkscape:current-layer="svg2867" />
  
  
  
  
  
  
  
  
  
  
  
  
  
  
  
  
  
  
  
  
  
  
  
  
  
  
  
  
  
  
  
  
  
  
  
  
  
  
  
  
  
  
  
  
  
  
  
  
  
  
  
  
  
  
  
  
  
  
  
  
  
  
  
  
  
  
  
  
  
  
  
  
  
  
  
  
  
  
  
  
  
  
  
  
  
  
  
  
  
  
  
  
  
  
  
  
  
  
  
  
  
  
  
  
  
  
  
  
  
  
  
  
  
  
  
  
  
  
  
  
  
  
  
  
  
  
  
  
  
  
  
  
  
  
  
  
  
  
  
  
  
  
  
  
  
  
  
  
  
  
  
  
  
  
  
  
  
  
  
  
  
  
  
  
  
  
  
  
  
  
  
  
  
  
  
  
  
  
  
  
  
  
  
  
  
  
  
  
  
  
  
  
  
  
  
  
  
  
  
  
  
  
  
  
  
  
  
  
  
  
  
  
  
  
  
  
  
  
  
  
  
  
  
  
  
  
  
  
  
  
  
  
  
  
  
  
  
  
  
  
  
  
  
  
  
  
  
  
  
  
  
  
  
  
  
  
  
  
  
  
  
  
  
  
  
  
  
  
  
  
  
  
  
  
  
  
  
  
  
  
  
  
  
  
  
  
  
  
  
  
  
  
  
  
  
  
  
  
  
  
  
  
  
  
  
  
  
  
  
  
  
  
  
  
  
  
  
  
  
  
  
  
  
  
  
  
  
  
  
  
  
  
  
  
  
  
  
  
  
  
  
  
  
  
  
  
  
  
  
  
  
  
  
  
  
  
  
  
  
  
  
  
  
  
  
  
  
  
  
  
  
  
  
  
  
  
  
  
  
  
  
  
  
  
  
  
  
  
  
  
  
  
  
  
  
  
  
  
  
  
  
  
  
  
  
  
  
  
  
  
  
  
  
  
  
  
  
  
  
  
  
  
  
  
  
  
  
  
  
  
  
  
  
  
  
  
  
  
  
  
  
  
  
  
  
  
  
  
  
  
  
  
  
  
  
  
  
  
  
  
  
  
  
  
  
  
  
  
  
  
  
  
  
  
  
  
  
  
  
  
  
  
  
  
  
  
  
  
  
  
  
  
  
  
  
  
  
  
  
  
  
  
  
  
  
  
  
  
  
  
  
  
  
  
  
  
  
  
  
  
  
  
  
  
  
  
  
  
  
  
  
  
  
  
  
  
  
  
  
  
  
  
  
  
  
  
  
  
  
  
  
  
  
  
  
  
  
  
  
  
  
  
  
  
  
  
  
  
  
  
  
  
  
  
  
  
  
  
  
  
  
  
  
  
  
  
  
  
  
  
  
  
  
  
  
  
  
  
  
  
  
  
  
  
  
  
  
  
  
  
  
  
  
  
  
  
  
  
  
  
  
  
  
  
  
  
  
  
  
  
  
  
  
  
  
  
  
  
  
  
  
  
  
  
  
  
  
  
  
  
  
  
  
  
  
  
  
  
  
  
  
  
  
  
  
  
  
  
  
  
  
  
  
  
  
  
  
  
  
  
  
  
  
  
  
  
  
  
  
  
  
  
  
  
  
  
  
  
  
  
  
  
  
  
  
  
  
  
  
  
  
  
  
  
  
  
  
  
  
  
  
  
  
  
  
  
  
  
  
  
  
  
  
  
  
  
  
  
  
  
  
  
  
  
  
  
  
  
  
  
  
  
  
  
  
  
  
  
  
  
  
  
  
  
  
  
  
  
  
  
  
  
  
  
  
  
  
  
  
  
  
  
  
  
  
  
  
  
  
  
  
  
  
  
  
  
  
  
  
  
  
  
  
  
  
  
  
  
  
  
  
  
  
  
  
  
  
  
  
  
  
  
  
  
  
  
  
  
  
  
  
  
  
  
  
  
  
  
  
  
  
  
  
  
  
  
  
  
  
  
  
  
  
  
  
  
  
  
  
  
  
  
  
  
  
  
  
  
  
  
  
  
  
  
  
  
  
  
  
  
  
  
  
  
  
  
  
  
  
  
  
  
  
  
  
  
  
  
  
  
  
  
  
  
  
  
  
  
  
  
  
  
  
  
  
  
  
  
  
  
  
  
  
  
  
  
  
  
  
  
  
  
  
  
  
  
  
  
  
  
  
  
  
  
  
  
  
  
  
  
  
  
  
  
  
  
  
  
  
  
  
  
  
  
  
  
  
  
  
  
  
  
  
  
  
  
  
  
  
  
  
  
  
  
  
  
  
  
  
  
  
  
  
  
  
  
  
  
  
  
  
  
  
  
  
  
  
  
  
  
  
  
  
  
  
  
  
  
  
  
  
  
  
  
  
  
  
  
  
  
  
  
  
  
  
  
  
  
  
  
  
  
  
  
  
  
  
  
  
  
  
  
  
  
  
  
  
  
  
  
  
  
  
  
  
  
  
  
  
  
  
  
  
  
  
  
  
  
  
  
  
  
  
  
  
  
  
  
  
  
  
  
  
  
  
  
  
  
  
  
  
  
  
  
  
  
  
  
  
  
  
  
  
  
  
  
  
  
  
  
  
  
  
  
  
  
  
  
  
  
  
  
  
  
  
  
  
  
  
  
  
  
  
  
  
  
  
  
  
  
  
  
  
  
  
  
  
  
  
  
  
  
  
  
  
  
  
  
  
  
  
  
  
  
  
  
  
  
  
  
  
  
  
  
  
  
  
  
  
  
  
  
  
  
  
  
  
  
  
  
  
  
  
  
  
  
  
  
  
  
  
  
  
  
  
  
  
  
  
  
  
  
  
  
  
  
  
  
  
  
  
  
  
  
  
  
  
  
  
  
  
  
  
  
  
  
  
  
  
  
  
  
  
  
  
  
  
  
  
  
  
  
  
  
  
  
  
  
  
  
  
  
  
  
  
  
  
  
  
  
  
  
  
  
  
  
  
  
  
  
  
  
  
  
  
  
  
  
  
  
  
  
  
  
  
  
  
  
  
  
  
  
  
  
  
  
  
  
  
  
  
  
  
  
  
  
  
  
  
  
  
  
  
  
  
  
  
  
  
  
  
  
  
  
  
  
  
  
  
  
  
  
  
  
  
  
  
  
  
  
  
  
  
  
  
  
  
  
  
  
  
  
  
  
  
  
  
  
  
  
  
  
  
  
  
  
  
  
  
  
  
  
  
  
  
  
  
  
  
  
  
  
  
  
  
  
  
  
  
  
  
  
  
  
  
  
  
  
  
  
  
  
  
  
  
  
  
  
  
  
  
  
  
  
  
  
  
  
  
  
  
  
  
  
  
  
  
  
  
  
  
  
  
  
  
  
  
  
  
  
  
  
  
  
  
  
  
  
  
  
  
  
  
  
  
  
  
  
  
  
  
  
  
  
  
  
  
  
  
  
  
  
  
  
  
  
  
  
  
  
  
  
  
  
  
  
  
  
  
  
  
  
  
  
  
  
  
  
  
  
  
  
  
  
  
  
  
  
  
  
  
  
  
  
  
  
  
  
  
  
  
  
  
  
  
  
  
  
  
  
  
  
  
  
  
  
  
  
  
  
  
  
  
  
  
  
  
  
  
  
  
  
  
  
  
  
  
  
  
  
  
  
  
  
  
  
  
  
  
  
  
  
  
  
  
  
  
  
  
  
  
  
  
  
  
  
  
  
  
  
  
  
  
  
  
  
  
  
  
  
  
  
  
  
  
  
  
  
  
  
  
  
  
  
  
  
  
  
  
  
  
  
  
  
  
  
  
  
  
  
  
  
  
  
  
  
  
  
  
  
  
  
  
  
  
  
  
  
  
  
  
  
  
  
  
  
  
  
  
  
  
  
  
  
  
  
  
  
  
  
  
  
  
  
  
  
  
  
  
  
  
  
  
  
  
  
  
  
  
  
  
  
  
  
  
  
  
  
  
  
  
  
  
  
  
  
  
  
  
  
  
  
  
  
  
  
  
  
  
  
  
  
  
  
  
  
  
  
  
  
  
  
  
  
  
  
  
  
  
  
  
  
  
  
  
  
  
  
  
  
  
  
  
  
  
  
  
  
  
  
  
  
  
  
  
  
  
  
  
  
  
  
  
  
  
  
  
  
  
  
  
  
  
  
  
  
  
  
  
  
  
  
  
  
  
  
  
  
  
  
  
  
  
  
  
  
  
  
  
  
  
  
  
  
  
  
  
  
  
  
  
  
  
  
  
  
  
  
  
  
  
  
  
  
  
  
  
  
  
  
  
  
  
  
  
  
  
  
  
  
  
  
  
  
  
  
  
  
  
  
  
  
  
  
  
  
  
  
  
  
  
  
  
  
  
  
  
  
  
  
  
  
  
  
  
  
  
  
  
  
  
  
  
  
  
  
  
  
  
  
  
  
  
  
  
  
  
  
  
  
  
  
  
  
  
  
  
  
  
  
  
  
  
  
  
  
  
  
  
  
  
  
  
  
  
  
  
  
  
  
  
  
  
  
  
  
  
  
  
  
  
  
  
  
  
  
  
  
  
  
  
  
  
  
  
  
  
  
  
  
  
  
  
  
  
  
  
  
  
  
  
  
  
  
  
  
  
  
  
  
  
  
  
  
  
  
  
  
  
  
  
  
  
  
  
  
  
  
  
  
  
  
  
  
  
  
  
  
  
  
  
  
  
  
  
  
  
  
  
  
  
  
  
  
  
  
  
  
  
  
  
  
  
  
  
  
  
  
  
  
  
  
  
  
  
  
  
  
  
  
  
  
  
  
  
  
  
  
  
  
  
  
  
  
  
  
  
  
  
  
  
  
  
  
  
  
  
  
  
  
  
  
  
  
  
  
  
  
  
  
  
  
  
  
  
  
  
  
  
  
  
  
  
  
  
  
  
  
  
  
  
  
  
  
  
  
  
  
  
  
  
  
  
  
  
  
  
  
  
  
  
  
  
  
  
  
  
  
  
  
  
  
  
  
  
  
  
  
  
  
  
  
  
  
  
  
  
  
  
  
  
  
  
  
  
  
  
  
  
  
  
  
  
  
  
  
  
  
  
  
  
  
  
  
  
  
  
  
  
  
  
  
  
  
  
  
  
  
  
  
  
  
  
  
  
  
  
  
  
  
  
  
  
  
  
  
  
  
  
  
  
  
  
  
  
  
  
  
  
  
  
  
  
  
  
  
  
  
  
  
  
  
  
  
  
  
  
  
  
  
  
  
  
  
  
  
  
  
  
  
  
  
  
  
  
  
  
  
  
  
  
  
  
  
  
  
  
  
  
  
  
  
  
  
  
  
  
  
  
  
  
  
  
  
  
  
  
  
  
  
  
  
  
  
  
  
  
  
  
  
  
  
  
  
  
  
  
  
  
  
  
  
  
  
  
  
  
  
  
  
  
  
  
  
  
  
  
  
  
  
  
  
  
  
  
  
  
  
  
  
  
  
  
  
  
  
  
  
  
  
  
  
  
  
  
  
  
  
  
  
  
  
  
  
  
  
  
  
  
  
  
  
  
  
  
  
  
  
  
  
  
  
  
  
  
  
  
  
  
  
  
  
  
  
  
  
  
  
  
  
  
  
  
  
  
  
  
  
  
  
  
  
  
  
  
  
  
  
  
  
  
  
  
  
  
  
  
  
  
  
  
  
  
  
  
  
  
  
  
  
  
  
  
  
  
  
  
  
  
  
  
  
  
  
  
  
  
  
  
  
  
  
  
  
  
  
  
  
  
  
  
  
  
  
  
  
  
  
  
  
  <path
   style="fill:#72b3dc;stroke:#c2dffb;stroke-width:1"
   d="m 132.567,40.172 0.085,0.221 0.082,0.188 0.071,0.095 0.438,0.28 0.157,0.103 0.577,0.315 1.037,-0.526 0.054,-0.049 0.157,-0.019 0.6,-0.087 1.037,0.208 0.198,0.081 0.257,0.212 0.077,3.642 -0.091,-0.203 -0.225,-0.116 -0.969,-0.155 -0.266,0.06 -0.337,0.117 -0.172,0.306 0.031,0.27 0.037,0.117 -0.023,0.037 -4.043,-0.023 -0.361,-0.071 -0.09,-0.072 -0.027,-0.124 -1.027,-0.765 -0.054,-4.845 2.79,0.803"
   id="48037"
   inkscape:label="Bowie, TX"
   inkscape:connector-curvature="0" />
  <path
   style="fill:#72b3dc;stroke:#c2dffb;stroke-width:1"
   d="m 125.373,36.295 1.249,1.068 1.83,1.465 1.325,0.541 0.054,4.845 -0.673,-0.442 -3.398,-0.296 -1.938,0.162 -0.022,-0.033 -0.067,-6.359 0.158,-0.018 0.084,-0.009 0.284,-0.185 0.06,-0.058 0.058,-0.131 0.018,-0.13 -0.018,-0.112 0,-0.019 -0.041,-0.086 -0.004,-0.009 0.004,-0.013 0,-0.023 0.005,-0.018 0.229,-0.347 0.006,0 0.009,-0.004 0.036,-0.018 0.076,0.003 0.676,0.226"
   id="48387"
   inkscape:label="Red River, TX"
   inkscape:connector-curvature="0" />
  <path
   style="fill:#72b3dc;stroke:#c2dffb;stroke-width:1"
   d="m 57.122,36.069 5.562,0.272 -0.275,5.646 -5.548,-0.279 0.261,-5.639"
   id="48107"
   inkscape:label="Crosby, TX"
   inkscape:connector-curvature="0" />
  <path
   style="fill:#72b3dc;stroke:#c2dffb;stroke-width:1"
   d="m 51.56,35.804 5.562,0.265 -0.261,5.639 -5.557,-0.271 0.256,-5.633"
   id="48303"
   inkscape:label="Lubbock, TX"
   inkscape:connector-curvature="0" />
  <path
   style="fill:#72b3dc;stroke:#c2dffb;stroke-width:1"
   d="m 45.926,35.421 5.634,0.383 -0.256,5.633 -5.548,-0.355 0.17,-5.661"
   id="48219"
   inkscape:label="Hockley, TX"
   inkscape:connector-curvature="0" />
  <path
   style="fill:#72b3dc;stroke:#c2dffb;stroke-width:1"
   d="m 41.334,35.097 4.592,0.324 -0.17,5.661 -4.94,-0.356 0.221,-2.353 0.297,-3.276"
   id="48079"
   inkscape:label="Cochran, TX"
   inkscape:connector-curvature="0" />
  <path
   style="fill:#72b3dc;stroke:#c2dffb;stroke-width:1"
   d="m 58.461,29.891 4.547,0.248 -0.324,6.202 -5.562,-0.272 0.352,-6.237 0.987,0.059"
   id="48153"
   inkscape:label="Floyd, TX"
   inkscape:connector-curvature="0" />
  <path
   style="fill:#72b3dc;stroke:#c2dffb;stroke-width:1"
   d="m 51.917,29.48 0.978,0.063 4.579,0.289 -0.352,6.237 -5.562,-0.265 0.357,-6.324"
   id="48189"
   inkscape:label="Hale, TX"
   inkscape:connector-curvature="0" />
  <path
   style="fill:#72b3dc;stroke:#c2dffb;stroke-width:1"
   d="m 46.373,29.11 0.946,0.069 4.598,0.301 -0.357,6.324 -5.634,-0.383 0.447,-6.311"
   id="48279"
   inkscape:label="Lamb, TX"
   inkscape:connector-curvature="0" />
  <path
   style="fill:#72b3dc;stroke:#c2dffb;stroke-width:1"
   d="m 46.373,29.11 -0.447,6.311 -4.592,-0.324 0.496,-6.175 0.009,-0.135 4.534,0.323"
   id="48017"
   inkscape:label="Bailey, TX"
   inkscape:connector-curvature="0" />
  <path
   style="fill:#72b3dc;stroke:#c2dffb;stroke-width:1"
   d="m 58.785,24.257 4.007,0.211 1.533,0.082 -0.307,5.638 -1.01,-0.049 -4.547,-0.248 0.324,-5.634"
   id="48045"
   inkscape:label="Briscoe, TX"
   inkscape:connector-curvature="0" />
  <path
   style="fill:#72b3dc;stroke:#c2dffb;stroke-width:1"
   d="m 53.246,23.909 3.881,0.248 1.658,0.1 -0.324,5.634 -0.987,-0.059 -4.579,-0.289 0.351,-5.634"
   id="48437"
   inkscape:label="Swisher, TX"
   inkscape:connector-curvature="0" />
  <path
   style="fill:#72b3dc;stroke:#c2dffb;stroke-width:1"
   d="m 51.453,23.806 1.793,0.103 -0.351,5.634 -0.978,-0.063 -4.598,-0.301 0.388,-5.617 3.746,0.244"
   id="48069"
   inkscape:label="Castro, TX"
   inkscape:connector-curvature="0" />
  <path
   style="fill:#72b3dc;stroke:#c2dffb;stroke-width:1"
   d="m 42.272,23.166 5.435,0.396 -0.388,5.617 -0.946,-0.069 -4.534,-0.323 0.433,-5.621"
   id="48369"
   inkscape:label="Parmer, TX"
   inkscape:connector-curvature="0" />
  <path
   style="fill:#72b3dc;stroke:#c2dffb;stroke-width:1"
   d="m 57.528,18.52 5.611,0.329 -0.347,5.619 -4.007,-0.211 -1.658,-0.1 0.401,-5.637"
   id="48011"
   inkscape:label="Armstrong, TX"
   inkscape:connector-curvature="0" />
  <path
   style="fill:#72b3dc;stroke:#c2dffb;stroke-width:1"
   d="m 51.836,18.163 5.692,0.357 -0.401,5.637 -3.881,-0.248 -1.793,-0.103 0.383,-5.643"
   id="48381"
   inkscape:label="Randall, TX"
   inkscape:connector-curvature="0" />
  <path
   style="fill:#72b3dc;stroke:#c2dffb;stroke-width:1"
   d="m 42.272,23.166 0.198,-2.673 0.225,-2.965 2.137,0.149 2.221,0.112 4.783,0.374 -0.383,5.643 -3.746,-0.244 -5.435,-0.396"
   id="48117"
   inkscape:label="Deaf Smith, TX"
   inkscape:connector-curvature="0" />
  <path
   style="fill:#72b3dc;stroke:#c2dffb;stroke-width:1"
   d="m 57.866,12.854 0,-0.049 5.584,0.297 -0.005,0.081 -0.306,5.666 -5.611,-0.329 0.338,-5.666"
   id="48065"
   inkscape:label="Carson, TX"
   inkscape:connector-curvature="0" />
  <path
   style="fill:#72b3dc;stroke:#c2dffb;stroke-width:1"
   d="m 52.25,12.507 5.616,0.347 -0.338,5.666 -5.692,-0.357 0.414,-5.656"
   id="48375"
   inkscape:label="Potter, TX"
   inkscape:connector-curvature="0" />
  <path
   style="fill:#72b3dc;stroke:#c2dffb;stroke-width:1"
   d="m 52.259,12.412 -0.009,0.095 -0.414,5.656 -4.783,-0.374 -2.221,-0.112 -2.137,-0.149 0.428,-5.687 9.136,0.571"
   id="48359"
   inkscape:label="Oldham, TX"
   inkscape:connector-curvature="0" />
  <path
   style="fill:#72b3dc;stroke:#c2dffb;stroke-width:1"
   d="M 58.19,7.211 63.752,7.526 63.45,13.102 57.866,12.805 58.19,7.211"
   id="48233"
   inkscape:label="Hutchinson, TX"
   inkscape:connector-curvature="0" />
  <path
   style="fill:#72b3dc;stroke:#c2dffb;stroke-width:1"
   d="m 52.615,6.868 5.575,0.343 -0.324,5.594 0,0.049 -5.616,-0.347 0.009,-0.095 0.356,-5.544"
   id="48341"
   inkscape:label="Moore, TX"
   inkscape:connector-curvature="0" />
  <path
   style="fill:#72b3dc;stroke:#c2dffb;stroke-width:1"
   d="m 43.547,6.237 9.068,0.631 -0.356,5.544 -9.136,-0.571 0.117,-1.511 0.307,-4.093"
   id="48205"
   inkscape:label="Hartley, TX"
   inkscape:connector-curvature="0" />
  <path
   style="fill:#72b3dc;stroke:#c2dffb;stroke-width:1"
   d="m 64.063,1.767 -0.311,5.728 0,0.031 -5.562,-0.315 0.338,-5.76 5.535,0.316"
   id="48195"
   inkscape:label="Hansford, TX"
   inkscape:connector-curvature="0" />
  <path
   style="fill:#72b3dc;stroke:#c2dffb;stroke-width:1"
   d="m 54.333,1.186 4.195,0.265 -0.338,5.76 -5.575,-0.343 0.379,-5.769 1.339,0.087"
   id="48421"
   inkscape:label="Sherman, TX"
   inkscape:connector-curvature="0" />
  <path
   style="fill:#72b3dc;stroke:#c2dffb;stroke-width:1"
   d="M 52.994,1.099 52.615,6.868 43.547,6.237 43.791,2.83 43.948,0.752 44.372,0.5 52.994,1.099"
   id="48111"
   inkscape:label="Dallam, TX"
   inkscape:connector-curvature="0" />
  <path
   style="fill:#72b3dc;stroke:#c2dffb;stroke-width:1"
   d="m 19.249,56.929 -0.166,1.816 -0.276,3.507 -0.734,8.509 -0.108,0.761 -0.104,0.375 -0.216,2.212 -0.735,0.38 -0.068,0.058 -0.576,-0.829 -0.857,-0.943 -0.838,-0.72 -0.428,-0.037 -0.167,-0.058 -1.352,-0.865 -1.614,-1.853 -1.897,-2.47 -1.461,-1.907 -0.95,-1.22 0.522,-0.423 0.023,-0.714 -0.32,-0.468 0.608,-6.306 11.714,1.195"
   id="48229"
   inkscape:label="Hudspeth, TX"
   inkscape:connector-curvature="0" />
  <path
   style="fill:#72b3dc;stroke:#c2dffb;stroke-width:1"
   d="M 7.535,55.734 6.927,62.04 7.247,62.508 7.224,63.222 6.702,63.645 5.629,63.167 5.277,62.99 4.709,62.526 4.565,62.409 4.561,62.399 4.52,62.354 4.506,62.337 4.417,62.193 4.123,61.278 3.217,59.168 3.002,58.759 2.627,58.455 1.469,57.916 0.622,57.01 0.518,56.87 0.5,56.811 0.752,55.698 0.779,55.604 1.014,55.05 l 0,-0.005 0.004,0 0.036,0.005 2.371,0.251 4.11,0.433"
   id="48141"
   inkscape:label="El Paso, TX"
   inkscape:connector-curvature="0" />
  <path
   style="fill:#72b3dc;stroke:#c2dffb;stroke-width:1"
   d="m 56.861,41.708 -0.334,5.607 -1.437,-0.094 -4.142,-0.231 0.356,-5.553 5.557,0.271"
   id="48305"
   inkscape:label="Lynn, TX"
   inkscape:connector-curvature="0" />
  <path
   style="fill:#72b3dc;stroke:#c2dffb;stroke-width:1"
   d="m 45.756,41.082 5.548,0.355 -0.356,5.553 -1.424,-0.081 -4.156,-0.279 0.388,-5.548"
   id="48445"
   inkscape:label="Terry, TX"
   inkscape:connector-curvature="0" />
  <path
   style="fill:#72b3dc;stroke:#c2dffb;stroke-width:1"
   d="m 45.756,41.082 -0.388,5.548 -5.048,-0.369 0.496,-5.535 4.94,0.356"
   id="48501"
   inkscape:label="Yoakum, TX"
   inkscape:connector-curvature="0" />
  <path
   style="fill:#72b3dc;stroke:#c2dffb;stroke-width:1"
   d="m 50.948,46.99 4.142,0.231 -0.311,5.638 -5.563,-0.32 0.308,-5.63 1.424,0.081"
   id="48115"
   inkscape:label="Dawson, TX"
   inkscape:connector-curvature="0" />
  <path
   style="fill:#72b3dc;stroke:#c2dffb;stroke-width:1"
   d="m 40.32,46.261 5.048,0.369 4.156,0.279 -0.308,5.63 -0.089,-0.005 -9.226,-0.636 0.419,-5.637"
   id="48165"
   inkscape:label="Gaines, TX"
   inkscape:connector-curvature="0" />
  <path
   style="fill:#72b3dc;stroke:#c2dffb;stroke-width:1"
   d="m 49.127,52.534 0.089,0.005 5.563,0.32 -0.406,5.648 -0.884,-0.045 -4.732,-0.299 0.37,-5.629"
   id="48317"
   inkscape:label="Martin, TX"
   inkscape:connector-curvature="0" />
  <path
   style="fill:#72b3dc;stroke:#c2dffb;stroke-width:1"
   d="m 39.901,51.898 9.226,0.636 -0.37,5.629 -0.82,-0.054 -5.571,-0.37 -2.88,-0.229 0.415,-5.612"
   id="48003"
   inkscape:label="Andrews, TX"
   inkscape:connector-curvature="0" />
  <path
   style="fill:#72b3dc;stroke:#c2dffb;stroke-width:1"
   d="m 47.937,58.109 0.82,0.054 4.732,0.299 -0.337,5.615 -5.594,-0.355 0.379,-5.613"
   id="48329"
   inkscape:label="Midland, TX"
   inkscape:connector-curvature="0" />
  <path
   style="fill:#72b3dc;stroke:#c2dffb;stroke-width:1"
   d="m 47.937,58.109 -0.379,5.613 -0.338,-0.019 -4.908,-0.348 -0.347,-0.021 0.401,-5.595 5.571,0.37"
   id="48135"
   inkscape:label="Ector, TX"
   inkscape:connector-curvature="0" />
  <path
   style="fill:#72b3dc;stroke:#c2dffb;stroke-width:1"
   d="m 42.312,63.355 4.908,0.348 -0.297,7.287 -0.965,-0.076 -0.347,-1.352 -0.099,-0.249 -0.031,-0.053 -0.141,-0.135 -0.531,-0.46 -0.144,-0.113 -1.352,-0.775 -0.14,0.005 -1.19,0.184 0.329,-4.611"
   id="48103"
   inkscape:label="Crane, TX"
   inkscape:connector-curvature="0" />
  <path
   style="fill:#72b3dc;stroke:#c2dffb;stroke-width:1"
   d="m 29.715,78.423 -0.09,1.401 -0.316,3.89 -0.473,6.455 -0.244,3.002 -1.879,-0.614 -0.613,-0.235 -0.068,-0.026 -0.045,-0.037 -0.401,-0.32 -0.807,-0.639 -3.876,-3.674 -0.216,-0.482 -1.248,-3.136 -0.046,-0.132 -0.036,-1.27 0.172,-0.933 0.085,-1.118 -0.171,-0.743 -2.015,-4.891 -0.586,-0.374 0.068,-0.058 11.692,3.843 1.113,0.091"
   id="48377"
   inkscape:label="Presidio, TX"
   inkscape:connector-curvature="0" />
  <path
   style="fill:#72b3dc;stroke:#c2dffb;stroke-width:1"
   d="m 20.016,57.001 8.946,0.802 -1.83,11.439 -9.487,4.867 0.216,-2.212 0.104,-0.375 0.108,-0.761 0.734,-8.509 0.276,-3.507 0.166,-1.816 0.767,0.072"
   id="48109"
   inkscape:label="Culberson, TX"
   inkscape:connector-curvature="0" />
  <path
   style="fill:#72b3dc;stroke:#c2dffb;stroke-width:1"
   d="m 41.965,63.334 0.347,0.021 -0.329,4.611 -0.784,0.051 -0.469,-0.469 -0.311,-0.276 -0.347,-0.208 -0.69,-0.288 -0.645,0.033 -0.405,-0.009 -0.261,-0.028 -0.559,-0.126 -3.02,-1 -0.139,-0.145 -0.127,-0.226 -0.108,-0.648 0.027,-0.772 0.063,-0.442 -0.067,-0.273 -0.181,-0.29 -0.861,-0.192 3.093,0.247 5.773,0.429"
   id="48475"
   inkscape:label="Ward, TX"
   inkscape:connector-curvature="0" />
  <path
   style="fill:#72b3dc;stroke:#c2dffb;stroke-width:1"
   d="m 39.486,57.51 2.88,0.229 -0.401,5.595 -5.773,-0.429 0.36,-4.494 0.64,0.051 0.563,0.039 0.767,0.059 0.612,0.049 0.267,0.019 0.085,-1.118"
   id="48495"
   inkscape:label="Winkler, TX"
   inkscape:connector-curvature="0" />
  <path
   style="fill:#72b3dc;stroke:#c2dffb;stroke-width:1"
   d="m 29.444,57.844 2.794,0.229 4.314,0.338 -0.36,4.494 -3.093,-0.247 -0.234,-0.514 -0.541,-0.785 -0.108,-0.022 -0.216,0.045 -0.009,0.026 -0.027,0.023 -0.1,0.005 -0.238,-0.054 -0.086,-0.113 -1.455,-2.092 -0.641,-1.333"
   id="48301"
   inkscape:label="Loving, TX"
   inkscape:connector-curvature="0" />
  <path
   style="fill:#72b3dc;stroke:#c2dffb;stroke-width:1"
   d="m 28.962,57.803 0.482,0.041 0.641,1.333 1.455,2.092 0.086,0.113 0.238,0.054 0.1,-0.005 0.027,-0.023 0.009,-0.026 0.216,-0.045 0.108,0.022 0.541,0.785 0.234,0.514 0.861,0.192 0.181,0.29 0.067,0.273 -0.063,0.442 -0.027,0.772 0.108,0.648 0.127,0.226 0.139,0.145 3.02,1 0.559,0.126 0.261,0.028 0.405,0.009 0.645,-0.033 -6.913,7.293 -5.337,-4.827 1.83,-11.439"
   id="48389"
   inkscape:label="Reeves, TX"
   inkscape:connector-curvature="0" />
  <path
   style="fill:#72b3dc;stroke:#c2dffb;stroke-width:1"
   d="m 32.469,74.069 1.5,1.42 -4.254,2.934 -1.113,-0.091 -11.692,-3.843 0.735,-0.38 9.487,-4.867 5.337,4.827"
   id="48243"
   inkscape:label="Jeff Davis, TX"
   inkscape:connector-curvature="0" />
  <path
   style="fill:#72b3dc;stroke:#c2dffb;stroke-width:1"
   d="m 33.969,75.489 9.109,8.595 2.651,2.465 -0.577,0.37 -1.416,0.641 -2.037,0.49 -0.261,0.158 -0.027,0.018 -1.515,2.47 -0.91,2.109 -3.047,4.52 -0.478,0.127 -0.081,0 -1.316,-0.329 -1.109,-0.527 -3.57,-2.344 -0.103,-0.108 -0.451,-0.464 -0.239,-0.509 0.244,-3.002 0.473,-6.455 0.316,-3.89 0.09,-1.401 4.254,-2.934"
   id="48043"
   inkscape:label="Brewster, TX"
   inkscape:connector-curvature="0" />
  <path
   style="fill:#72b3dc;stroke:#c2dffb;stroke-width:1"
   d="m 52.277,81.642 -0.428,6.566 -0.198,-0.059 -0.082,-0.026 -1.077,-0.248 -0.68,-0.108 -1.082,0.076 -0.108,0.058 -0.735,-0.143 -2.158,-1.209 -2.651,-2.465 0.208,-2.966 2.488,0.158 0.27,-4.044 1.528,-0.139 0.793,-0.446 4.083,0.288 0.162,-0.017 0.609,0.126 0.442,0.356 0.072,0.815 -0.018,0.113 -1.177,2.835 -0.261,0.479"
   id="48443"
   inkscape:label="Terrell, TX"
   inkscape:connector-curvature="0" />
  <path
   style="fill:#72b3dc;stroke:#c2dffb;stroke-width:1"
   d="m 41.983,67.966 1.19,-0.184 0.14,-0.005 1.352,0.775 0.144,0.113 0.531,0.46 0.141,0.135 0.031,0.053 0.099,0.249 0.347,1.352 1.501,0.681 2.172,0.676 0.704,0.22 1.118,0.934 0.937,3.178 0.058,0.332 -4.083,-0.288 -0.793,0.446 -1.528,0.139 -0.27,4.044 -2.488,-0.158 -0.208,2.966 -9.109,-8.595 -1.5,-1.42 6.913,-7.293 0.69,0.288 0.347,0.208 0.311,0.276 0.469,0.469 0.784,-0.051"
   id="48371"
   inkscape:label="Pecos, TX"
   inkscape:connector-curvature="0" />
  <path
   style="fill:#72b3dc;stroke:#c2dffb;stroke-width:1"
   d="m 47.22,63.703 0.338,0.019 5.594,0.355 -0.456,7.364 -5.773,-0.451 0.297,-7.287"
   id="48461"
   inkscape:label="Upton, TX"
   inkscape:connector-curvature="0" />
  <path
   style="fill:#72b3dc;stroke:#c2dffb;stroke-width:1"
   d="m 53.152,64.077 5.561,0.333 -0.072,1.217 -0.022,0.356 -0.397,5.788 -5.526,-0.33 0.456,-7.364"
   id="48383"
   inkscape:label="Reagan, TX"
   inkscape:connector-curvature="0" />
  <path
   style="fill:#72b3dc;stroke:#c2dffb;stroke-width:1"
   d="m 54.373,58.507 4.683,0.274 -0.343,5.629 -5.561,-0.333 0.337,-5.615 0.884,0.045"
   id="48173"
   inkscape:label="Glasscock, TX"
   inkscape:connector-curvature="0" />
  <path
   style="fill:#72b3dc;stroke:#c2dffb;stroke-width:1"
   d="m 60.34,53.193 -0.41,5.637 -0.874,-0.049 -4.683,-0.274 0.406,-5.648 5.561,0.334"
   id="48227"
   inkscape:label="Howard, TX"
   inkscape:connector-curvature="0" />
  <path
   style="fill:#72b3dc;stroke:#c2dffb;stroke-width:1"
   d="m 56.527,47.315 4.138,0.203 -0.32,5.629 -0.005,0.046 -5.561,-0.334 0.311,-5.638 1.437,0.094"
   id="48033"
   inkscape:label="Borden, TX"
   inkscape:connector-curvature="0" />
  <path
   style="fill:#72b3dc;stroke:#c2dffb;stroke-width:1"
   d="m 62.409,41.987 -0.293,5.522 -1.451,0.009 -4.138,-0.203 0.334,-5.607 5.548,0.279"
   id="48169"
   inkscape:label="Garza, TX"
   inkscape:connector-curvature="0" />
  <path
   style="fill:#72b3dc;stroke:#c2dffb;stroke-width:1"
   d="m 62.116,47.509 4.115,0.298 -0.329,5.661 -5.557,-0.321 0.32,-5.629 1.451,-0.009"
   id="48415"
   inkscape:label="Scurry, TX"
   inkscape:connector-curvature="0" />
  <path
   style="fill:#72b3dc;stroke:#c2dffb;stroke-width:1"
   d="m 60.345,53.147 5.557,0.321 -0.329,5.678 -1.699,-0.104 -3.944,-0.212 0.41,-5.637 0.005,-0.046"
   id="48335"
   inkscape:label="Mitchell, TX"
   inkscape:connector-curvature="0" />
  <path
   style="fill:#72b3dc;stroke:#c2dffb;stroke-width:1"
   d="m 59.056,58.781 0.874,0.049 3.944,0.212 -0.298,5.039 -0.382,-0.139 -0.141,1.843 -4.412,-0.158 0.072,-1.217 0.343,-5.629"
   id="48431"
   inkscape:label="Sterling, TX"
   inkscape:connector-curvature="0" />
  <path
   style="fill:#72b3dc;stroke:#c2dffb;stroke-width:1"
   d="m 58.619,65.983 3.033,0.176 3.263,0.217 -0.234,5.638 -3.016,-0.099 -3.443,-0.144 0.397,-5.788"
   id="48235"
   inkscape:label="Irion, TX"
   inkscape:connector-curvature="0" />
  <path
   style="fill:#72b3dc;stroke:#c2dffb;stroke-width:1"
   d="m 45.958,70.914 0.965,0.076 5.773,0.451 5.526,0.33 3.443,0.144 -0.234,4.85 -0.279,5.381 -8.875,-0.504 0.261,-0.479 1.177,-2.835 0.018,-0.113 -0.072,-0.815 -0.442,-0.356 -0.609,-0.126 -0.162,0.017 -0.058,-0.332 -0.937,-3.178 -1.118,-0.934 -0.704,-0.22 -2.172,-0.676 -1.501,-0.681"
   id="48105"
   inkscape:label="Crockett, TX"
   inkscape:connector-curvature="0" />
  <path
   style="fill:#72b3dc;stroke:#c2dffb;stroke-width:1"
   d="m 52.277,81.642 8.875,0.504 2.893,0.139 -0.419,8.542 -0.113,2.361 -0.126,0.965 -0.063,0.311 -0.45,1.063 -0.145,0.212 -0.045,0.009 -0.347,-0.063 -2.642,-2.367 -2.212,-2.744 -0.027,-0.073 -1.627,-1.812 -0.559,-0.193 -0.05,-0.005 -1.609,-0.103 -0.256,-0.013 -1.506,-0.167 0.428,-6.566"
   id="48465"
   inkscape:label="Val Verde, TX"
   inkscape:connector-curvature="0" />
  <path
   style="fill:#72b3dc;stroke:#c2dffb;stroke-width:1"
   d="m 76.507,121.659 0.987,-0.662 0.406,0.604 4.372,0.194 -0.185,6.174 -2.619,2.669 -0.171,-0.686 -0.207,-0.838 0,-0.013 -0.347,-1.276 -0.279,-0.708 -0.591,-0.834 -0.649,-0.378 -0.744,-1.159 -0.045,-0.509 0.014,-0.05 0.054,-0.044 0.203,-0.298 0.081,-1.045 -0.144,-0.947 -0.117,-0.186 -0.01,-0.003 -0.009,-0.005"
   id="48505"
   inkscape:label="Zapata, TX"
   inkscape:connector-curvature="0" />
  <path
   style="fill:#72b3dc;stroke:#c2dffb;stroke-width:1"
   d="m 84.111,120.767 2.835,0.013 0.342,0.211 -0.04,1.002 0.342,0.392 0.812,2.316 -0.145,3.472 -6.17,-0.204 0.185,-6.174 1.839,-1.028"
   id="48247"
   inkscape:label="Jim Hogg, TX"
   inkscape:connector-curvature="0" />
  <path
   style="fill:#72b3dc;stroke:#c2dffb;stroke-width:1"
   d="m 82.087,127.969 6.17,0.204 1.181,0.036 -0.932,1.987 -1.092,2.109 -1.243,2.524 -0.546,0.077 -0.838,-0.37 -3.939,-1.771 -0.663,-0.428 -0.676,-1.543 -0.023,-0.089 -0.018,-0.067 2.619,-2.669"
   id="48427"
   inkscape:label="Starr, TX"
   inkscape:connector-curvature="0" />
  <path
   style="fill:#72b3dc;stroke:#c2dffb;stroke-width:1"
   id="48489"
   d="m 101.044,130.76 0.356,0.009 0.716,2.415 -0.198,0 -0.874,-2.424 m -7.433,-0.271 5.999,0.243 0.654,2.428 -0.455,0.565 -1.258,0.838 -3.894,-0.69 0.018,-0.946 -0.536,-0.172 -1.113,-0.197 0.099,-0.55 0.153,-0.568 0.333,-0.951"
   inkscape:label="Willacy, TX"
   inkscape:connector-curvature="0" />
  <path
   style="fill:#72b3dc;stroke:#c2dffb;stroke-width:1"
   d="m 89.438,128.209 3.894,0.112 0.279,2.168 -0.333,0.951 -0.153,0.568 -0.099,0.55 1.113,0.197 0.536,0.172 -0.018,0.946 -0.072,3.656 -0.081,-0.018 -0.23,-0.035 -1.05,0.011 -0.351,0.006 -0.045,0.058 -0.384,0.153 -1.447,-0.279 -0.851,-0.167 -0.266,-0.144 -0.167,-0.112 -1.239,-0.844 -0.591,-0.706 -0.315,-0.15 -0.027,-0.009 -1.362,-0.464 -0.008,0 1.243,-2.524 1.092,-2.109 0.932,-1.987"
   id="48215"
   inkscape:label="Hidalgo, TX"
   inkscape:connector-curvature="0" />
  <path
   style="fill:#72b3dc;stroke:#c2dffb;stroke-width:1"
   d="m 87.248,121.993 3.362,0.117 2.01,0.064 0.82,0.68 -0.108,5.467 -3.894,-0.112 -1.181,-0.036 0.145,-3.472 -0.812,-2.316 -0.342,-0.392"
   id="48047"
   inkscape:label="Brooks, TX"
   inkscape:connector-curvature="0" />
  <path
   style="fill:#72b3dc;stroke:#c2dffb;stroke-width:1"
   id="48261"
   d="m 100.534,122.102 0.298,0.003 -0.036,0.123 -0.163,0.739 -0.094,0.627 -0.081,0.765 -0.036,0.676 0,0.708 0.072,1.064 0.054,0.437 0.009,0.045 0.14,0.812 0.203,0.919 0.356,1.297 0.018,0.05 0.018,0.049 0.108,0.353 -0.356,-0.009 -0.762,-2.823 0,-1.599 0.009,-1.358 0.005,-0.536 0.018,-0.797 0.049,-0.613 0.055,-0.311 0.116,-0.621 m -7.094,0.752 4.039,-0.812 -0.027,0.1 0.004,0.225 0.046,0.081 0.071,0.054 0.992,0.189 0.261,-0.022 0.122,-0.049 0.077,-0.055 0.036,-0.058 0.175,-0.081 0.401,-0.145 0.307,-0.012 0.019,0.081 -0.276,1.802 -0.491,1.474 -0.338,2.51 0.437,0.577 0.284,1.604 0.031,0.415 -5.999,-0.243 -0.279,-2.168 0.108,-5.467"
   inkscape:label="Kenedy, TX"
   inkscape:connector-curvature="0" />
  <path
   style="fill:#72b3dc;stroke:#c2dffb;stroke-width:1"
   id="48273"
   d="m 100.534,122.102 1.497,-3.864 0.298,0.073 -1.497,3.794 -0.298,-0.003 m -6.476,-4.693 0.757,0.491 0.401,0.519 0.099,0.004 5.823,0.068 -0.581,2.032 -0.347,0.834 -0.036,0.073 -0.095,0.108 -0.081,0.05 -1.027,0.526 -1.492,-0.072 -4.039,0.812 -0.82,-0.68 0.086,-4.792 1.352,0.027"
   inkscape:label="Kleberg, TX"
   inkscape:connector-curvature="0" />
  <path
   style="fill:#72b3dc;stroke:#c2dffb;stroke-width:1"
   d="m 90.813,111.933 4.029,0.099 0.956,0.802 -1.587,1.384 -0.018,1.388 -0.135,1.803 -1.352,-0.027 -0.086,4.792 -2.01,-0.064 0.203,-10.177"
   id="48249"
   inkscape:label="Jim Wells, TX"
   inkscape:connector-curvature="0" />
  <path
   style="fill:#72b3dc;stroke:#c2dffb;stroke-width:1"
   id="48355"
   d="m 104.393,114.998 -2.064,3.313 -0.298,-0.073 2.303,-3.403 0.059,0.163 m -10.335,2.411 0.135,-1.803 0.018,-1.388 1.587,-1.384 -0.126,0.303 0.116,0.468 1.515,0.79 0.297,0.139 0.591,0.13 0.82,0.068 0.099,-0.334 1.844,-0.04 0.793,0.04 -0.207,0.037 -0.753,0.342 -0.217,0.158 -0.152,0.306 -0.023,0.397 0.081,0.208 0.198,0.324 0.244,0.212 0.347,0.166 0.572,0.446 -0.361,0.821 -0.338,0.676 -5.823,-0.068 -0.099,-0.004 -0.401,-0.519 -0.757,-0.491"
   inkscape:label="Nueces, TX"
   inkscape:connector-curvature="0" />
  <path
   style="fill:#72b3dc;stroke:#c2dffb;stroke-width:1"
   d="m 95.617,110.512 3.16,0.209 3.19,1.189 1.412,2.241 -1.632,0.247 -0.793,-0.04 -1.844,0.04 -0.099,0.334 -0.82,-0.068 -0.591,-0.13 -0.297,-0.139 -1.515,-0.79 -0.116,-0.468 0.126,-0.303 -0.956,-0.802 0.775,-1.52"
   id="48409"
   inkscape:label="San Patricio, TX"
   inkscape:connector-curvature="0" />
  <path
   style="fill:#72b3dc;stroke:#c2dffb;stroke-width:1"
   id="48057"
   d="m 106.899,111.501 0.153,-0.591 2.573,-1.763 0.135,-0.062 0.596,-0.257 0.887,-0.185 0.136,0.235 -1.086,0.535 -0.159,0.072 -0.013,0.013 -0.829,0.511 -0.838,0.603 -0.731,0.573 -1.054,0.916 -0.023,0.022 -0.027,0.026 0.28,-0.648 m 2.907,-7.698 2.907,0.504 0.004,0.433 -0.703,0.329 -1.118,0.455 -0.91,-0.83 -0.104,-0.3 -0.076,-0.591 m -3.557,2.623 -0.166,-0.325 -0.275,-0.699 0.879,-0.613 1.713,-0.586 0.608,-0.338 -0.167,0.15 0.6,1.426 0.031,0.035 0.5,0.093 0.316,0.217 1.321,1.19 0.103,0.103 0.095,0.131 -0.018,0.086 -2.146,1.076 -0.099,0.041 -0.829,0.234 -0.289,-0.094 -0.081,-0.077 -0.73,-0.785 -1.366,-1.265"
   inkscape:label="Calhoun, TX"
   inkscape:connector-curvature="0" />
  <path
   style="fill:#72b3dc;stroke:#c2dffb;stroke-width:1"
   d="m 103.185,105.799 3.064,0.627 1.366,1.265 -0.252,1.16 -3.795,0.553 0.018,0.262 0.256,0.343 0.438,0.262 0.248,0.036 0.238,0.008 -0.071,0.194 -1.447,1.091 -1.023,0.496 -0.036,-0.005 -0.222,-0.181 -3.19,-1.189 1.933,-2.84 2.475,-2.082"
   id="48391"
   inkscape:label="Refugio, TX"
   inkscape:connector-curvature="0" />
  <path
   style="fill:#72b3dc;stroke:#c2dffb;stroke-width:1"
   d="m 96.185,104.222 0.902,1.636 1.627,0.992 1.996,1.031 -1.933,2.84 -3.16,-0.209 0.108,-0.084 -3.073,-6.211 0.964,-0.329 1.033,-0.356 0.148,0.09 0.09,0.157 0.401,0.222 0.357,0.148 0.54,0.073"
   id="48025"
   inkscape:label="Bee, TX"
   inkscape:connector-curvature="0" />
  <path
   style="fill:#72b3dc;stroke:#c2dffb;stroke-width:1"
   d="m 92.589,102.621 1.027,1.267 -0.964,0.329 3.073,6.211 -0.108,0.084 -0.775,1.52 -4.029,-0.099 -1.132,-0.028 0.167,-7.111 2.741,-2.173"
   id="48297"
   inkscape:label="Live Oak, TX"
   inkscape:connector-curvature="0" />
  <path
   style="fill:#72b3dc;stroke:#c2dffb;stroke-width:1"
   d="m 84.562,104.325 5.296,0.072 -0.177,7.508 -5.363,-0.138 0.244,-7.442"
   id="48311"
   inkscape:label="McMullen, TX"
   inkscape:connector-curvature="0" />
  <path
   style="fill:#72b3dc;stroke:#c2dffb;stroke-width:1"
   d="m 84.318,111.767 5.363,0.138 1.132,0.028 -0.203,10.177 -3.362,-0.117 0.04,-1.002 -0.342,-0.211 -2.835,-0.013 0.207,-9"
   id="48131"
   inkscape:label="Duval, TX"
   inkscape:connector-curvature="0" />
  <path
   style="fill:#72b3dc;stroke:#c2dffb;stroke-width:1"
   d="m 68.318,109.387 1.095,0.036 8.217,0.239 -0.023,2.231 6.711,-0.126 -0.207,9 -1.839,1.028 -4.372,-0.194 -0.406,-0.604 -0.987,0.662 -0.194,-0.017 -0.247,-0.155 -0.023,-0.008 -0.388,-0.378 -0.049,-0.054 -0.018,-0.023 -0.009,-0.009 -0.013,-0.049 0.053,-0.072 0.32,-0.429 0.181,-0.428 0.068,-0.248 0.121,-0.964 -0.41,-1.141 -0.239,-0.419 -0.154,-0.113 -0.509,-0.37 -0.261,-0.045 -0.031,0.018 -0.014,0.055 -0.446,-0.018 -1.97,-1.821 -0.356,-0.423 -1.222,-2.462 -0.968,-1.96 -0.055,-0.045 -1.356,-0.694"
   id="48479"
   inkscape:label="Webb, TX"
   inkscape:connector-curvature="0" />
  <path
   style="fill:#72b3dc;stroke:#c2dffb;stroke-width:1"
   d="m 84.57,104.208 -0.008,0.117 -0.244,7.442 -6.711,0.126 0.023,-2.231 0.18,-5.589 6.76,0.135"
   id="48283"
   inkscape:label="La Salle, TX"
   inkscape:connector-curvature="0" />
  <path
   style="fill:#72b3dc;stroke:#c2dffb;stroke-width:1"
   d="m 69.656,103.653 8.005,0.415 0.149,0.005 -0.18,5.589 -8.217,-0.239 0.243,-5.77"
   id="48127"
   inkscape:label="Dimmit, TX"
   inkscape:connector-curvature="0" />
  <path
   style="fill:#72b3dc;stroke:#c2dffb;stroke-width:1"
   d="m 69.932,98.038 -0.276,5.615 -0.243,5.77 -1.095,-0.036 -0.041,-0.045 -0.486,-0.536 -0.361,-0.464 -0.559,-1.718 -1.622,-4.358 -1.443,-3.196 -0.167,-1.299 6.293,0.267"
   id="48323"
   inkscape:label="Maverick, TX"
   inkscape:connector-curvature="0" />
  <path
   style="fill:#72b3dc;stroke:#c2dffb;stroke-width:1"
   d="m 63.626,90.827 6.594,0.316 -0.288,6.895 -6.293,-0.267 -1.302,-2.086 0.347,0.063 0.045,-0.009 0.145,-0.212 0.45,-1.063 0.063,-0.311 0.126,-0.965 0.113,-2.361"
   id="48271"
   inkscape:label="Kinney, TX"
   inkscape:connector-curvature="0" />
  <path
   style="fill:#72b3dc;stroke:#c2dffb;stroke-width:1"
   d="m 70.544,82.561 4.034,0.166 -0.149,2.782 -0.982,-0.036 -1.357,-0.162 -0.667,2.447 -0.122,1.86 0.018,1.569 -1.099,-0.044 -6.594,-0.316 0.419,-8.542 6.499,0.276"
   id="48137"
   inkscape:label="Edwards, TX"
   inkscape:connector-curvature="0" />
  <path
   style="fill:#72b3dc;stroke:#c2dffb;stroke-width:1"
   d="m 74.429,85.509 0.758,0.03 -0.081,1.686 0.225,0.455 0.744,0.042 -0.14,3.6 -4.616,-0.135 -0.018,-1.569 0.122,-1.86 0.667,-2.447 1.357,0.162 0.982,0.036"
   id="48385"
   inkscape:label="Real, TX"
   inkscape:connector-curvature="0" />
  <path
   style="fill:#72b3dc;stroke:#c2dffb;stroke-width:1"
   d="m 70.22,91.143 1.099,0.044 4.616,0.135 2.145,0.076 -0.27,6.888 -7.878,-0.248 0.288,-6.895"
   id="48463"
   inkscape:label="Uvalde, TX"
   inkscape:connector-curvature="0" />
  <path
   style="fill:#72b3dc;stroke:#c2dffb;stroke-width:1"
   d="m 77.81,98.286 -0.149,5.782 -8.005,-0.415 0.276,-5.615 7.878,0.248"
   id="48507"
   inkscape:label="Zavala, TX"
   inkscape:connector-curvature="0" />
  <path
   style="fill:#72b3dc;stroke:#c2dffb;stroke-width:1"
   d="m 84.693,98.52 -0.123,5.688 -6.76,-0.135 -0.149,-0.005 0.149,-5.782 6.883,0.234"
   id="48163"
   inkscape:label="Frio, TX"
   inkscape:connector-curvature="0" />
  <path
   style="fill:#72b3dc;stroke:#c2dffb;stroke-width:1"
   d="m 101.589,101.792 0.838,-0.004 0.329,0.152 0.163,0.33 0.216,0.559 0.05,2.97 -2.475,2.082 -1.996,-1.031 -1.627,-0.992 -0.902,-1.636 2.349,-1.823 1.803,-1.409 0.071,0 0.298,0.113 0.5,0.279 0.154,0.136 0.229,0.274"
   id="48175"
   inkscape:label="Goliad, TX"
   inkscape:connector-curvature="0" />
  <path
   style="fill:#72b3dc;stroke:#c2dffb;stroke-width:1"
   d="m 105.353,98.76 0.423,0.526 1.123,0.496 0.076,0.054 0.811,1.604 1.289,2.394 -0.067,0.031 -0.608,0.338 -1.713,0.586 -0.879,0.613 0.275,0.699 0.166,0.325 -3.064,-0.627 -0.05,-2.97 -0.216,-0.559 -0.163,-0.33 -0.329,-0.152 -0.838,0.004 3.764,-3.032"
   id="48469"
   inkscape:label="Victoria, TX"
   inkscape:connector-curvature="0" />
  <path
   style="fill:#72b3dc;stroke:#c2dffb;stroke-width:1"
   d="m 102.423,95.117 2.93,3.643 -3.764,3.032 -0.229,-0.274 -0.154,-0.136 -0.5,-0.279 -0.298,-0.113 -0.071,0 -1.803,1.409 -2.002,-2.522 1.627,-1.289 4.264,-3.471"
   id="48123"
   inkscape:label="DeWitt, TX"
   inkscape:connector-curvature="0" />
  <path
   style="fill:#72b3dc;stroke:#c2dffb;stroke-width:1"
   d="m 96.884,97.123 1.275,1.465 -1.627,1.289 2.002,2.522 -2.349,1.823 -0.54,-0.073 -0.357,-0.148 -0.401,-0.222 -0.09,-0.157 -0.148,-0.09 -1.033,0.356 -1.027,-1.267 -1.023,-1.248 5.318,-4.25"
   id="48255"
   inkscape:label="Karnes, TX"
   inkscape:connector-curvature="0" />
  <path
   style="fill:#72b3dc;stroke:#c2dffb;stroke-width:1"
   d="m 95.658,95.108 1.226,2.015 -5.318,4.25 -2.376,-3.038 3.191,-4.138 0.068,0.663 0.04,0.162 0.095,0.172 0.324,-0.18 2.75,0.094"
   id="48493"
   inkscape:label="Wilson, TX"
   inkscape:connector-curvature="0" />
  <path
   style="fill:#72b3dc;stroke:#c2dffb;stroke-width:1"
   d="m 84.756,96.465 4.434,1.87 2.376,3.038 1.023,1.248 -2.741,2.173 0.01,-0.397 -5.296,-0.072 0.008,-0.117 0.123,-5.688 0.063,-2.055"
   id="48013"
   inkscape:label="Atascosa, TX"
   inkscape:connector-curvature="0" />
  <path
   style="fill:#72b3dc;stroke:#c2dffb;stroke-width:1"
   d="m 84.9,90.809 -0.144,5.656 -0.063,2.055 -6.883,-0.234 0.27,-6.888 4.804,0.212 0.077,0.119 0.009,0.062 -0.036,0.14 -0.098,0.148 0.004,0.258 0.067,0.153 0.045,0.039 0.041,0.006 0.505,-0.118 1.402,-1.608"
   id="48325"
   inkscape:label="Medina, TX"
   inkscape:connector-curvature="0" />
  <path
   style="fill:#72b3dc;stroke:#c2dffb;stroke-width:1"
   d="m 76.075,87.722 3.457,0.162 1.298,0.166 0.59,0.306 2.272,1.244 1.528,0.838 -0.32,0.371 -1.402,1.608 -0.505,0.118 -0.041,-0.006 -0.045,-0.039 -0.067,-0.153 -0.004,-0.258 0.098,-0.148 0.036,-0.14 -0.009,-0.062 -0.077,-0.119 -4.804,-0.212 -2.145,-0.076 0.14,-3.6"
   id="48019"
   inkscape:label="Bandera, TX"
   inkscape:connector-curvature="0" />
  <path
   style="fill:#72b3dc;stroke:#c2dffb;stroke-width:1"
   d="m 79.608,82.962 -0.054,1.96 4.25,0.091 -0.112,4.587 -2.272,-1.244 -0.59,-0.306 -1.298,-0.166 -3.457,-0.162 -0.744,-0.042 -0.225,-0.455 0.081,-1.686 -0.758,-0.03 0.149,-2.782 5.03,0.235"
   id="48265"
   inkscape:label="Kerr, TX"
   inkscape:connector-curvature="0" />
  <path
   style="fill:#72b3dc;stroke:#c2dffb;stroke-width:1"
   d="m 79.685,80.217 3.772,0.143 4.138,0.104 -0.086,4.647 -3.705,-0.098 -4.25,-0.091 0.131,-4.705"
   id="48171"
   inkscape:label="Gillespie, TX"
   inkscape:connector-curvature="0" />
  <path
   style="fill:#72b3dc;stroke:#c2dffb;stroke-width:1"
   d="m 90.277,80.713 2.474,0.829 -0.55,0.888 -1.483,4.065 -1.334,1.257 -1.875,-2.641 0.086,-4.647 2.682,0.249"
   id="48031"
   inkscape:label="Blanco, TX"
   inkscape:connector-curvature="0" />
  <path
   style="fill:#72b3dc;stroke:#c2dffb;stroke-width:1"
   d="m 83.804,85.013 3.705,0.098 1.875,2.641 -2.664,2.407 -1.5,0.279 -1.528,-0.838 0.112,-4.587"
   id="48259"
   inkscape:label="Kendall, TX"
   inkscape:connector-curvature="0" />
  <path
   style="fill:#72b3dc;stroke:#c2dffb;stroke-width:1"
   d="m 86.72,90.159 1.023,-0.126 0.091,0.005 1.428,0.185 0.69,0.554 0.478,1.42 0.112,0.356 0.32,0.248 0.546,0.175 1.068,0.717 0.018,0.383 -0.113,0.121 -3.191,4.138 -4.434,-1.87 0.144,-5.656 0.32,-0.371 1.5,-0.279"
   id="48029"
   inkscape:label="Bexar, TX"
   inkscape:connector-curvature="0" />
  <path
   style="fill:#72b3dc;stroke:#c2dffb;stroke-width:1"
   d="m 95.392,88.911 2.664,2.727 -2.398,3.47 -2.75,-0.094 -0.324,0.18 -0.095,-0.172 -0.04,-0.162 -0.068,-0.663 0.113,-0.121 -0.018,-0.383 -1.068,-0.717 -0.546,-0.175 -0.32,-0.248 -0.112,-0.356 3.542,-1.952 1.42,-1.334"
   id="48187"
   inkscape:label="Guadalupe, TX"
   inkscape:connector-curvature="0" />
  <path
   style="fill:#72b3dc;stroke:#c2dffb;stroke-width:1"
   d="m 90.718,86.495 2.93,2.506 0.324,1.244 -3.542,1.952 -0.478,-1.42 -0.69,-0.554 -1.428,-0.185 -0.091,-0.005 -1.023,0.126 2.664,-2.407 1.334,-1.257"
   id="48091"
   inkscape:label="Comal, TX"
   inkscape:connector-curvature="0" />
  <path
   style="fill:#72b3dc;stroke:#c2dffb;stroke-width:1"
   d="m 92.201,82.43 5.075,4.376 -0.618,0.554 -1.469,1.213 -0.072,0.342 0.104,0.019 0.171,-0.023 -1.42,1.334 -0.324,-1.244 -2.93,-2.506 1.483,-4.065"
   id="48209"
   inkscape:label="Hays, TX"
   inkscape:connector-curvature="0" />
  <path
   style="fill:#72b3dc;stroke:#c2dffb;stroke-width:1"
   d="m 97.276,86.806 0.671,-0.568 3.692,3.7 -0.023,0.023 -3.56,1.677 -2.664,-2.727 -0.171,0.023 -0.104,-0.019 0.072,-0.342 1.469,-1.213 0.618,-0.554"
   id="48055"
   inkscape:label="Caldwell, TX"
   inkscape:connector-curvature="0" />
  <path
   style="fill:#72b3dc;stroke:#c2dffb;stroke-width:1"
   d="m 101.616,89.961 1.934,2.042 -0.69,0.6 0.009,0.941 -0.446,1.573 -4.264,3.471 -1.275,-1.465 -1.226,-2.015 2.398,-3.47 3.56,-1.677"
   id="48177"
   inkscape:label="Gonzales, TX"
   inkscape:connector-curvature="0" />
  <path
   style="fill:#72b3dc;stroke:#c2dffb;stroke-width:1"
   d="m 103.55,92.003 3.019,-0.027 0.095,0.027 0.208,0.126 0.608,0.568 2.591,3.123 -1.108,0.915 -3.187,2.551 -3.353,-4.169 0.446,-1.573 -0.009,-0.941 0.69,-0.6"
   id="48285"
   inkscape:label="Lavaca, TX"
   inkscape:connector-curvature="0" />
  <path
   style="fill:#72b3dc;stroke:#c2dffb;stroke-width:1"
   d="m 108.963,96.735 0.203,0.207 3.723,3.674 -0.176,3.691 -2.907,-0.504 -0.731,0.031 -1.289,-2.394 -0.811,-1.604 -0.076,-0.054 -1.123,-0.496 3.187,-2.551"
   id="48239"
   inkscape:label="Jackson, TX"
   inkscape:connector-curvature="0" />
  <path
   style="fill:#72b3dc;stroke:#c2dffb;stroke-width:1"
   d="m 112.889,100.616 3.893,-2.352 1.028,-1.065 0.266,0.253 0.068,0.068 0.464,1.544 0.288,1.119 0.095,0.32 0.027,0.041 2.231,1.758 0.041,0.022 0.685,0.063 -0.216,0.144 -0.474,0.302 -0.211,0.126 -2.556,1.488 -0.811,0.41 -1.325,0.577 -0.879,0.406 -1.623,0.829 -0.572,0.384 -0.041,0.026 -0.771,0.54 -0.338,0.253 -0.094,0.149 -0.027,-0.094 0.067,-0.109 1.834,-1.379 0.28,-2.366 -0.054,-0.058 -0.076,-0.028 -0.231,0.032 -0.517,0.122 -0.222,0.072 -0.185,0.147 -0.216,0.38 -0.004,-0.433 0.176,-3.691"
   id="48321"
   inkscape:label="Matagorda, TX"
   inkscape:connector-curvature="0" />
  <path
   style="fill:#72b3dc;stroke:#c2dffb;stroke-width:1"
   d="m 115.39,92.417 0.914,2.218 0.645,1.199 0.807,0.897 0.351,0.045 -0.297,0.423 -1.028,1.065 -3.893,2.352 -3.723,-3.674 0.405,-0.229 2.894,-1.817 0.185,-0.537 0.54,-1.094 1.226,-1.262 0.974,0.414"
   id="48481"
   inkscape:label="Wharton, TX"
   inkscape:connector-curvature="0" />
  <path
   style="fill:#72b3dc;stroke:#c2dffb;stroke-width:1"
   d="m 110.013,87.771 0.379,0.698 0.459,0.416 0.113,0.102 0.708,0.492 0.112,0.054 0.199,0.04 2.154,2.128 0.279,0.302 -1.226,1.262 -0.54,1.094 -0.185,0.537 -2.894,1.817 -0.405,0.229 -0.203,-0.207 1.108,-0.915 -2.591,-3.123 -0.608,-0.568 -0.208,-0.126 -0.095,-0.027 3.444,-4.205"
   id="48089"
   inkscape:label="Colorado, TX"
   inkscape:connector-curvature="0" />
  <path
   style="fill:#72b3dc;stroke:#c2dffb;stroke-width:1"
   d="m 101.544,82.001 1.487,0.856 1.303,1.029 0.609,2.685 -3.304,3.367 -3.692,-3.7 0.492,-0.451 1.307,-1.329 1.41,-2.679 0.388,0.222"
   id="48021"
   inkscape:label="Bastrop, TX"
   inkscape:connector-curvature="0" />
  <path
   style="fill:#72b3dc;stroke:#c2dffb;stroke-width:1"
   d="m 107.525,85.187 0.289,0.253 0.369,-0.076 0.374,-0.132 0.167,-0.085 0.428,0.284 0.163,0.473 0.103,0.506 0.023,0.287 0.572,1.074 -3.444,4.205 -3.019,0.027 -1.934,-2.042 0.023,-0.023 3.304,-3.367 2.582,-1.384"
   id="48149"
   inkscape:label="Fayette, TX"
   inkscape:connector-curvature="0" />
  <path
   style="fill:#72b3dc;stroke:#c2dffb;stroke-width:1"
   d="m 103.545,81.325 2.141,-1.262 1.285,1.632 1.018,1.177 1.262,0.576 -1.726,1.739 -2.582,1.384 -0.609,-2.685 -1.303,-1.029 -1.487,-0.856 2.001,-0.676"
   id="48287"
   inkscape:label="Lee, TX"
   inkscape:connector-curvature="0" />
  <path
   style="fill:#72b3dc;stroke:#c2dffb;stroke-width:1"
   d="m 109.441,86.697 0.401,-0.257 3.276,-0.391 0.203,0.041 0.514,0.224 0.55,0.195 0.261,0.018 0.118,-0.14 1.257,4.408 -0.631,1.622 -0.974,-0.414 -0.279,-0.302 -2.154,-2.128 -0.199,-0.04 -0.112,-0.054 -0.708,-0.492 -0.113,-0.102 -0.459,-0.416 -0.379,-0.698 -0.572,-1.074"
   id="48015"
   inkscape:label="Austin, TX"
   inkscape:connector-curvature="0" />
  <path
   style="fill:#72b3dc;stroke:#c2dffb;stroke-width:1"
   d="m 113.055,82.394 0.122,0.162 0.126,0.09 0.08,0.027 0.605,-0.207 0.19,-0.23 0.076,-0.058 0.149,0.018 0.311,0.328 -0.049,0.51 0.68,1.361 -0.581,1.992 -0.118,0.14 -0.261,-0.018 -0.55,-0.195 -0.514,-0.224 -0.203,-0.041 -3.276,0.391 -0.401,0.257 -0.023,-0.287 -0.103,-0.506 -0.163,-0.473 -0.428,-0.284 -0.167,0.085 -0.374,0.132 -0.369,0.076 -0.289,-0.253 1.726,-1.739 1.645,-0.405 0.325,-0.091 1.685,-0.613 0.099,0.015 0.05,0.04"
   id="48477"
   inkscape:label="Washington, TX"
   inkscape:connector-curvature="0" />
  <path
   style="fill:#72b3dc;stroke:#c2dffb;stroke-width:1"
   d="m 115.345,84.395 3.222,-0.266 0.018,2.001 -0.599,-0.148 -0.604,-0.338 -0.226,-0.213 -0.329,-0.244 0.154,0.497 1.357,4.332 -2.317,0.779 -1.257,-4.408 0.581,-1.992"
   id="48473"
   inkscape:label="Waller, TX"
   inkscape:connector-curvature="0" />
  <path
   style="fill:#72b3dc;stroke:#c2dffb;stroke-width:1"
   d="m 116.021,90.795 2.317,-0.779 4.52,2.659 -0.419,1.816 -1.456,1.456 -0.383,0.198 -0.991,-0.014 -0.433,-0.154 -0.509,0.217 -0.56,0.582 -0.351,-0.045 -0.807,-0.897 -0.645,-1.199 -0.914,-2.218 0.631,-1.622"
   id="48157"
   inkscape:label="Fort Bend, TX"
   inkscape:connector-curvature="0" />
  <path
   style="fill:#72b3dc;stroke:#c2dffb;stroke-width:1"
   d="m 122.858,92.675 2.335,0.297 -0.175,1.163 1.293,2.168 0.73,1.234 -0.816,1.47 0.122,0.095 -0.068,0.139 -2.83,2.475 -1.474,0.671 -0.685,-0.063 -0.041,-0.022 -2.231,-1.758 -0.027,-0.041 -0.095,-0.32 -0.288,-1.119 -0.464,-1.544 -0.068,-0.068 -0.266,-0.253 0.297,-0.423 0.56,-0.582 0.509,-0.217 0.433,0.154 0.991,0.014 0.383,-0.198 1.456,-1.456 0.419,-1.816"
   id="48039"
   inkscape:label="Brazoria, TX"
   inkscape:connector-curvature="0" />
  <path
   style="fill:#72b3dc;stroke:#c2dffb;stroke-width:1"
   id="48167"
   d="m 134.698,92.859 -0.334,0.154 -1,0.46 -0.077,0.036 -0.049,0.027 -0.901,0.419 -0.14,0.066 -0.405,0.217 -0.073,0.045 -0.23,0.145 -0.135,0.081 -0.04,0.031 -0.131,0.1 -0.095,0.067 -0.045,0.054 -0.032,0.027 -0.081,0.086 -0.027,0.04 -0.098,0.149 -0.046,0.068 -0.054,0.13 -0.023,0.051 -0.342,0.098 -0.194,0.01 -0.04,-0.036 -0.009,-0.151 0.18,-0.229 0.947,-1.014 0.098,-0.071 0.861,-0.41 0.577,-0.199 0.145,-0.018 0.107,-0.045 -0.058,-0.14 0,-0.185 1.744,-0.063 m -7.274,0.104 0.518,0.586 1.849,1.978 0.896,0.266 -0.613,0.537 -0.193,0.149 -1.069,0.734 -1.344,0.924 -0.081,0.053 -0.144,0.114 -0.405,0.31 -0.072,0.059 -0.041,0.032 -0.162,0.153 -0.121,0.113 -0.095,0.131 -0.122,-0.095 0.816,-1.47 -0.73,-1.234 -1.293,-2.168 0.175,-1.163 0.541,0.541 1.122,-0.578 0.568,0.028"
   inkscape:label="Galveston, TX"
   inkscape:connector-curvature="0" />
  <path
   style="fill:#72b3dc;stroke:#c2dffb;stroke-width:1"
   d="m 118.27,79.171 2.573,1.56 1.195,-0.005 0.726,-0.004 0.748,0.049 2.163,2.038 0.789,2.284 -1.123,1.064 -0.73,0.69 -0.329,0.037 -0.197,-0.042 -0.119,-0.257 -0.323,-0.302 -0.812,-0.436 -1.41,-0.748 -0.528,0.459 -0.789,0.374 -0.739,0.149 -0.244,0.022 -0.536,0.027 -0.018,-2.001 -0.297,-4.958"
   id="48339"
   inkscape:label="Montgomery, TX"
   inkscape:connector-curvature="0" />
  <path
   style="fill:#72b3dc;stroke:#c2dffb;stroke-width:1"
   d="m 118.585,86.13 0.536,-0.027 0.244,-0.022 0.739,-0.149 0.789,-0.374 0.528,-0.459 1.41,0.748 0.812,0.436 0.323,0.302 0.119,0.257 0.197,0.042 0.329,-0.037 0.73,-0.69 1.123,-1.064 1.339,3.629 0.572,2.68 -0.951,1.561 -0.568,-0.028 -1.122,0.578 -0.541,-0.541 -2.335,-0.297 -4.52,-2.659 -1.357,-4.332 -0.154,-0.497 0.329,0.244 0.226,0.213 0.604,0.338 0.599,0.148"
   id="48201"
   inkscape:label="Harris, TX"
   inkscape:connector-curvature="0" />
  <path
   style="fill:#72b3dc;stroke:#c2dffb;stroke-width:1"
   d="m 133.824,88.573 0.946,0.008 0.123,4.022 -0.01,0.17 -0.185,0.086 -1.744,0.063 -2.348,-0.374 0.284,-0.531 0.162,-0.893 0.004,-0.117 -0.036,-0.253 -0.333,-0.657 -0.122,-0.136 -0.063,-0.023 -0.573,0.262 -0.265,0.14 -1.289,1.062 -0.572,-2.68 6.021,-0.149"
   id="48071"
   inkscape:label="Chambers, TX"
   inkscape:connector-curvature="0" />
  <path
   style="fill:#72b3dc;stroke:#c2dffb;stroke-width:1"
   d="m 132.544,80.384 5.264,-0.081 -0.28,0.684 -0.098,0.298 -0.122,0.5 0.032,0.18 0.202,0.461 0.036,0.012 0.113,0.118 -0.203,1.257 -0.116,0.163 0.04,1.042 -0.072,-0.073 -0.826,-0.275 -0.156,0.022 -0.727,0.235 -0.027,0.036 -0.009,0.144 0.027,0.204 -0.031,0.081 -0.149,0.215 -0.081,0.045 -1.127,0.24 -0.176,-0.033 -0.311,-0.162 -1.69,0.036 -1.587,-4.844 2.074,-0.505"
   id="48199"
   inkscape:label="Hardin, TX"
   inkscape:connector-curvature="0" />
  <path
   style="fill:#72b3dc;stroke:#c2dffb;stroke-width:1"
   d="m 129.173,80.861 1.297,0.028 1.587,4.844 1.69,-0.036 0.077,2.876 -6.021,0.149 -1.339,-3.629 -0.789,-2.284 3.498,-1.948"
   id="48291"
   inkscape:label="Liberty, TX"
   inkscape:connector-curvature="0" />
  <path
   style="fill:#72b3dc;stroke:#c2dffb;stroke-width:1"
   d="m 133.747,85.697 0.311,0.162 0.176,0.033 1.127,-0.24 0.081,-0.045 0.149,-0.215 0.031,-0.081 -0.027,-0.204 0.009,-0.144 0.027,-0.036 0.727,-0.235 0.156,-0.022 0.826,0.275 0.072,0.073 0.027,0.157 0.234,0.811 0.031,0.035 1.552,1.01 0.932,0.24 0.144,0.063 0.172,0.265 0.041,0.104 0.022,0.127 -0.019,0.293 0.1,2.875 -1.041,0.167 -0.276,-0.005 -0.513,-0.005 -0.617,0.145 -0.848,0.338 -2.47,1.135 0.01,-0.17 -0.123,-4.022 -0.946,-0.008 -0.077,-2.876"
   id="48245"
   inkscape:label="Jefferson, TX"
   inkscape:connector-curvature="0" />
  <path
   style="fill:#72b3dc;stroke:#c2dffb;stroke-width:1"
   d="m 141.841,83.841 -0.008,2.491 -1.285,1.791 0.019,-0.293 -0.022,-0.127 -0.041,-0.104 -0.172,-0.265 -0.144,-0.063 -0.932,-0.24 -1.552,-1.01 -0.031,-0.035 -0.234,-0.811 -0.027,-0.157 -0.04,-1.042 2.406,-0.064 2.063,-0.071"
   id="48361"
   inkscape:label="Orange, TX"
   inkscape:connector-curvature="0" />
  <path
   style="fill:#72b3dc;stroke:#c2dffb;stroke-width:1"
   d="m 92.751,81.542 0.897,-2.533 1.032,-0.031 0.437,0.31 0.528,0.762 0.197,0.947 0.411,0.347 0.352,0.117 0.256,-0.009 0.753,-0.265 1.037,-0.5 0.225,0 0.707,0.224 1.573,0.868 -1.41,2.679 -1.307,1.329 -0.492,0.451 -0.671,0.568 -5.075,-4.376 0.55,-0.888"
   id="48453"
   inkscape:label="Travis, TX"
   inkscape:connector-curvature="0" />
  <path
   style="fill:#72b3dc;stroke:#c2dffb;stroke-width:1"
   d="m 67.989,42.258 -0.284,5.625 -1.474,-0.076 -4.115,-0.298 0.293,-5.522 5.58,0.271"
   id="48263"
   inkscape:label="Kent, TX"
   inkscape:connector-curvature="0" />
  <path
   style="fill:#72b3dc;stroke:#c2dffb;stroke-width:1"
   d="m 77.783,77.431 -0.104,2.718 2.006,0.068 -0.077,2.745 -5.03,-0.235 -4.034,-0.166 0.239,-5.405 7,0.275"
   id="48267"
   inkscape:label="Kimble, TX"
   inkscape:connector-curvature="0" />
  <path
   style="fill:#72b3dc;stroke:#c2dffb;stroke-width:1"
   d="m 70.783,77.156 -0.239,5.405 -6.499,-0.276 -2.893,-0.139 0.279,-5.381 9.352,0.391"
   id="48435"
   inkscape:label="Sutton, TX"
   inkscape:connector-curvature="0" />
  <path
   style="fill:#72b3dc;stroke:#c2dffb;stroke-width:1"
   d="m 64.681,72.014 6.323,0.275 -0.221,4.867 -9.352,-0.391 0.234,-4.85 3.016,0.099"
   id="48413"
   inkscape:label="Schleicher, TX"
   inkscape:connector-curvature="0" />
  <path
   style="fill:#72b3dc;stroke:#c2dffb;stroke-width:1"
   d="m 71.004,72.289 5.643,0.238 1.235,1.939 -0.099,2.965 -7,-0.275 0.221,-4.867"
   id="48327"
   inkscape:label="Menard, TX"
   inkscape:connector-curvature="0" />
  <path
   style="fill:#72b3dc;stroke:#c2dffb;stroke-width:1"
   d="m 77.882,74.466 4.336,0.148 1.401,0.298 -0.162,5.448 -3.772,-0.143 -2.006,-0.068 0.104,-2.718 0.099,-2.965"
   id="48319"
   inkscape:label="Mason, TX"
   inkscape:connector-curvature="0" />
  <path
   style="fill:#72b3dc;stroke:#c2dffb;stroke-width:1"
   d="m 83.619,74.912 5.734,0.162 0.734,1.155 0.049,3.366 0.141,1.118 -2.682,-0.249 -4.138,-0.104 0.162,-5.448"
   id="48299"
   inkscape:label="Llano, TX"
   inkscape:connector-curvature="0" />
  <path
   style="fill:#72b3dc;stroke:#c2dffb;stroke-width:1"
   d="m 95.288,73.745 0.884,1.676 -2.524,3.588 -0.897,2.533 -2.474,-0.829 -0.141,-1.118 -0.049,-3.366 -0.734,-1.155 0.103,-1.392 5.832,0.063"
   id="48053"
   inkscape:label="Burnet, TX"
   inkscape:connector-curvature="0" />
  <path
   style="fill:#72b3dc;stroke:#c2dffb;stroke-width:1"
   d="m 96.172,75.421 1.915,0.425 0.329,0.081 3.399,1.572 1.73,3.826 -2.001,0.676 -0.388,-0.222 -1.573,-0.868 -0.707,-0.224 -0.225,0 -1.037,0.5 -0.753,0.265 -0.256,0.009 -0.352,-0.117 -0.411,-0.347 -0.197,-0.947 -0.528,-0.762 -0.437,-0.31 -1.032,0.031 2.524,-3.588"
   id="48491"
   inkscape:label="Williamson, TX"
   inkscape:connector-curvature="0" />
  <path
   style="fill:#72b3dc;stroke:#c2dffb;stroke-width:1"
   d="m 109.504,77.859 0.594,0.455 -0.063,0.082 -0.315,0.594 0,0.036 1.028,0.245 0.946,0.441 1.195,1.704 0.166,0.978 -0.05,-0.04 -0.099,-0.015 -1.685,0.613 -0.325,0.091 -1.645,0.405 -1.262,-0.576 -1.018,-1.177 -1.285,-1.632 3.818,-2.204"
   id="48051"
   inkscape:label="Burleson, TX"
   inkscape:connector-curvature="0" />
  <path
   style="fill:#72b3dc;stroke:#c2dffb;stroke-width:1"
   d="m 123.827,76.191 1.416,0.443 0.761,0.793 2.813,2.696 0.356,0.738 -3.498,1.948 -2.163,-2.038 0.315,-4.58"
   id="48407"
   inkscape:label="San Jacinto, TX"
   inkscape:connector-curvature="0" />
  <path
   style="fill:#72b3dc;stroke:#c2dffb;stroke-width:1"
   d="m 122.629,73.642 1.198,2.549 -0.315,4.58 -0.748,-0.049 -0.726,0.004 -1.195,0.005 -2.573,-1.56 -0.365,-3.011 2.708,-0.865 2.016,-1.653"
   id="48471"
   inkscape:label="Walker, TX"
   inkscape:connector-curvature="0" />
  <path
   style="fill:#72b3dc;stroke:#c2dffb;stroke-width:1"
   d="m 114.525,76.687 3.38,-0.527 0.365,3.011 0.297,4.958 -3.222,0.266 -0.68,-1.361 0.779,-1.159 -0.396,-0.275 -0.082,-0.144 -0.126,-0.233 -0.518,-1.737 0.094,-1.334 0.109,-1.465"
   id="48185"
   inkscape:label="Grimes, TX"
   inkscape:connector-curvature="0" />
  <path
   style="fill:#72b3dc;stroke:#c2dffb;stroke-width:1"
   d="m 114.525,76.687 -0.109,1.465 -0.094,1.334 0.518,1.737 0.126,0.233 0.082,0.144 0.396,0.275 -0.779,1.159 0.049,-0.51 -0.311,-0.328 -0.149,-0.018 -0.076,0.058 -0.19,0.23 -0.605,0.207 -0.08,-0.027 -0.126,-0.09 -0.122,-0.162 -0.166,-0.978 -1.195,-1.704 -0.946,-0.441 -1.028,-0.245 0,-0.036 0.315,-0.594 0.063,-0.082 1.227,-0.621 0.302,-0.527 0.22,-0.51 0.248,-0.472 0.298,-0.465 0.139,-0.181 0.181,-0.157 0.329,-0.226 0.451,-0.298 0.234,-0.112 0.798,1.942"
   id="48041"
   inkscape:label="Brazos, TX"
   inkscape:connector-curvature="0" />
  <path
   style="fill:#72b3dc;stroke:#c2dffb;stroke-width:1"
   d="m 113.727,74.745 0.766,-0.266 0.996,-0.662 1.163,-0.595 2.335,-0.032 1.626,2.105 -2.708,0.865 -3.38,0.527 -0.798,-1.942"
   id="48313"
   inkscape:label="Madison, TX"
   inkscape:connector-curvature="0" />
  <path
   style="fill:#72b3dc;stroke:#c2dffb;stroke-width:1"
   d="m 119.243,67.899 0.113,0.189 0.203,0.455 0.491,1.405 -0.247,0.628 -0.046,-0.009 -0.094,0.054 -0.248,0.279 -0.554,1.752 0.013,0.168 0.113,0.37 -2.335,0.032 -1.163,0.595 -0.996,0.662 -0.766,0.266 -0.848,-4.953 0.911,-0.722 4.931,-2.644 0.522,1.473"
   id="48289"
   inkscape:label="Leon, TX"
   inkscape:connector-curvature="0" />
  <path
   style="fill:#72b3dc;stroke:#c2dffb;stroke-width:1"
   d="m 109.815,71.536 3.064,-1.744 0.848,4.953 -0.234,0.112 -0.451,0.298 -0.329,0.226 -0.181,0.157 -0.139,0.181 -0.298,0.465 -0.248,0.472 -0.22,0.51 -0.302,0.527 -1.227,0.621 -0.594,-0.455 -0.532,-1.338 -0.951,-1.217 -0.645,-1.884 -0.131,-0.419 2.57,-1.465"
   id="48395"
   inkscape:label="Robertson, TX"
   inkscape:connector-curvature="0" />
  <path
   style="fill:#72b3dc;stroke:#c2dffb;stroke-width:1"
   d="m 107.245,73.001 0.131,0.419 0.645,1.884 0.951,1.217 0.532,1.338 -3.818,2.204 -2.141,1.262 -1.73,-3.826 0.649,-1.759 2.105,-1.22 2.676,-1.519"
   id="48331"
   inkscape:label="Milam, TX"
   inkscape:connector-curvature="0" />
  <path
   style="fill:#72b3dc;stroke:#c2dffb;stroke-width:1"
   d="m 100.782,70.161 1.537,0.542 2.25,3.817 -2.105,1.22 -0.649,1.759 -3.399,-1.572 -0.329,-0.081 -1.915,-0.425 -0.884,-1.676 0.059,-0.442 5.435,-3.142"
   id="48027"
   inkscape:label="Bell, TX"
   inkscape:connector-curvature="0" />
  <path
   style="fill:#72b3dc;stroke:#c2dffb;stroke-width:1"
   d="m 98.79,66.673 1.992,3.488 -5.435,3.142 -2.894,-5.157 4.589,-2.6 1.748,1.127"
   id="48099"
   inkscape:label="Coryell, TX"
   inkscape:connector-curvature="0" />
  <path
   style="fill:#72b3dc;stroke:#c2dffb;stroke-width:1"
   d="m 91.439,68.737 1.014,-0.591 2.894,5.157 -0.059,0.442 -5.832,-0.063 -1.284,-2.628 3.267,-2.317"
   id="48281"
   inkscape:label="Lampasas, TX"
   inkscape:connector-curvature="0" />
  <path
   style="fill:#72b3dc;stroke:#c2dffb;stroke-width:1"
   d="m 89.411,65.23 2.028,3.507 -3.267,2.317 -0.028,-0.154 -0.419,-0.915 -1.447,-1.27 -0.351,0.333 -2.131,-0.802 -0.285,-0.374 0.041,-0.23 0.568,-0.357 1.803,-1.207 0.248,-0.987 1.004,-0.135 2.236,0.274"
   id="48333"
   inkscape:label="Mills, TX"
   inkscape:connector-curvature="0" />
  <path
   style="fill:#72b3dc;stroke:#c2dffb;stroke-width:1"
   d="m 83.552,67.642 -0.041,0.23 0.285,0.374 2.131,0.802 0.351,-0.333 1.447,1.27 0.419,0.915 0.028,0.154 1.284,2.628 -0.103,1.392 -5.734,-0.162 -1.401,-0.298 0.238,-6.706 1.096,-0.266"
   id="48411"
   inkscape:label="San Saba, TX"
   inkscape:connector-curvature="0" />
  <path
   style="fill:#72b3dc;stroke:#c2dffb;stroke-width:1"
   d="m 81.226,67.786 1.23,0.122 -0.238,6.706 -4.336,-0.148 -1.235,-1.939 0.212,-5.218 0.712,0.139 0.996,0.154 2.118,0.053 0.541,0.131"
   id="48307"
   inkscape:label="McCulloch, TX"
   inkscape:connector-curvature="0" />
  <path
   style="fill:#72b3dc;stroke:#c2dffb;stroke-width:1"
   d="m 75.588,66.163 1.271,1.146 -0.212,5.218 -5.643,-0.238 0.32,-6.346 4.264,0.22"
   id="48095"
   inkscape:label="Concho, TX"
   inkscape:connector-curvature="0" />
  <path
   style="fill:#72b3dc;stroke:#c2dffb;stroke-width:1"
   d="m 63.576,64.081 6.446,0.346 1.302,1.516 -0.32,6.346 -6.323,-0.275 0.234,-5.638 -3.263,-0.217 -3.033,-0.176 0.022,-0.356 4.412,0.158 0.141,-1.843 0.382,0.139"
   id="48451"
   inkscape:label="Tom Green, TX"
   inkscape:connector-curvature="0" />
  <path
   style="fill:#72b3dc;stroke:#c2dffb;stroke-width:1"
   d="m 63.874,59.042 1.699,0.104 4.683,0.256 -0.234,5.025 -6.446,-0.346 0.298,-5.039"
   id="48081"
   inkscape:label="Coke, TX"
   inkscape:connector-curvature="0" />
  <path
   style="fill:#72b3dc;stroke:#c2dffb;stroke-width:1"
   d="m 71.162,59.439 4.764,0.207 -0.338,6.517 -4.264,-0.22 -1.302,-1.516 0.234,-5.025 0.906,0.037"
   id="48399"
   inkscape:label="Runnels, TX"
   inkscape:connector-curvature="0" />
  <path
   style="fill:#72b3dc;stroke:#c2dffb;stroke-width:1"
   d="m 76.827,59.691 4.742,0.195 -0.343,7.9 -0.541,-0.131 -2.118,-0.053 -0.996,-0.154 -0.712,-0.139 -1.271,-1.146 0.338,-6.517 0.901,0.045"
   id="48083"
   inkscape:label="Coleman, TX"
   inkscape:connector-curvature="0" />
  <path
   style="fill:#72b3dc;stroke:#c2dffb;stroke-width:1"
   d="m 82.411,59.912 2.115,0.086 2.649,4.958 -1.004,0.135 -0.248,0.987 -1.803,1.207 -0.568,0.357 -1.096,0.266 -1.23,-0.122 0.343,-7.9 0.842,0.026"
   id="48049"
   inkscape:label="Brown, TX"
   inkscape:connector-curvature="0" />
  <path
   style="fill:#72b3dc;stroke:#c2dffb;stroke-width:1"
   d="m 88.653,57.745 2.331,4.199 0.843,-0.481 0.45,0.82 0.542,0.991 -3.408,1.956 -2.236,-0.274 -2.649,-4.958 4.127,-2.253"
   id="48093"
   inkscape:label="Comanche, TX"
   inkscape:connector-curvature="0" />
  <path
   style="fill:#72b3dc;stroke:#c2dffb;stroke-width:1"
   d="m 92.277,62.283 2.245,-1.249 2.52,4.512 -4.589,2.6 -1.014,0.591 -2.028,-3.507 3.408,-1.956 -0.542,-0.991"
   id="48193"
   inkscape:label="Hamilton, TX"
   inkscape:connector-curvature="0" />
  <path
   style="fill:#72b3dc;stroke:#c2dffb;stroke-width:1"
   d="m 98.818,58.714 1.505,0.414 -0.122,0.798 -0.077,0.671 0.059,0.546 1.731,3.119 0.131,0.202 0.364,0.226 -3.619,1.983 -1.748,-1.127 -2.52,-4.512 1.546,-0.865 2.75,-1.455"
   id="48035"
   inkscape:label="Bosque, TX"
   inkscape:connector-curvature="0" />
  <path
   style="fill:#72b3dc;stroke:#c2dffb;stroke-width:1"
   d="m 107.597,67.628 2.218,3.908 -2.57,1.465 -2.676,1.519 -2.25,-3.817 5.278,-3.075"
   id="48145"
   inkscape:label="Falls, TX"
   inkscape:connector-curvature="0" />
  <path
   style="fill:#72b3dc;stroke:#c2dffb;stroke-width:1"
   d="m 106.182,65.208 1.415,2.42 -5.278,3.075 -1.537,-0.542 -1.992,-3.488 3.619,-1.983 2.646,-1.487 1.127,2.005"
   id="48309"
   inkscape:label="McLennan, TX"
   inkscape:connector-curvature="0" />
  <path
   style="fill:#72b3dc;stroke:#c2dffb;stroke-width:1"
   d="m 100.323,59.128 4.254,-1.131 2.047,2.497 1.902,3.366 -2.344,1.348 -1.127,-2.005 -2.646,1.487 -0.364,-0.226 -0.131,-0.202 -1.731,-3.119 -0.059,-0.546 0.077,-0.671 0.122,-0.798"
   id="48217"
   inkscape:label="Hill, TX"
   inkscape:connector-curvature="0" />
  <path
   style="fill:#72b3dc;stroke:#c2dffb;stroke-width:1"
   d="m 108.526,63.86 2.429,0.257 2.835,4.953 -0.911,0.722 -3.064,1.744 -2.218,-3.908 -1.415,-2.42 2.344,-1.348"
   id="48293"
   inkscape:label="Limestone, TX"
   inkscape:connector-curvature="0" />
  <path
   style="fill:#72b3dc;stroke:#c2dffb;stroke-width:1"
   d="m 115.813,61.418 -0.098,0.603 0.968,1.798 0.699,0.704 0.37,0.136 0.874,1.031 0.095,0.736 -4.931,2.644 -2.835,-4.953 4.836,-2.785 0.022,0.086"
   id="48161"
   inkscape:label="Freestone, TX"
   inkscape:connector-curvature="0" />
  <path
   style="fill:#72b3dc;stroke:#c2dffb;stroke-width:1"
   d="m 106.624,60.494 5.597,-3.255 1.024,0.473 0.595,0.542 0.387,0.464 0.924,1.118 0.505,0.752 0.135,0.744 -4.836,2.785 -2.429,-0.257 -1.902,-3.366"
   id="48349"
   inkscape:label="Navarro, TX"
   inkscape:connector-curvature="0" />
  <path
   style="fill:#72b3dc;stroke:#c2dffb;stroke-width:1"
   d="m 95.23,58.264 3.61,-1.037 -0.022,1.487 -2.75,1.455 -0.838,-1.905"
   id="48425"
   inkscape:label="Somervell, TX"
   inkscape:connector-curvature="0" />
  <path
   style="fill:#72b3dc;stroke:#c2dffb;stroke-width:1"
   d="m 104.613,54.323 0.528,0.019 5.508,0.091 0.833,2.415 0.739,0.391 -5.597,3.255 -2.047,-2.497 0.036,-3.674"
   id="48139"
   inkscape:label="Ellis, TX"
   inkscape:connector-curvature="0" />
  <path
   style="fill:#72b3dc;stroke:#c2dffb;stroke-width:1"
   d="m 98.872,54.166 0.72,0.014 5.021,0.143 -0.036,3.674 -4.254,1.131 -1.505,-0.414 0.022,-1.487 0.032,-3.061"
   id="48251"
   inkscape:label="Johnson, TX"
   inkscape:connector-curvature="0" />
  <path
   style="fill:#72b3dc;stroke:#c2dffb;stroke-width:1"
   d="m 94.004,54.026 4.868,0.14 -0.032,3.061 -3.61,1.037 -1.258,-3.624 0.032,-0.614"
   id="48221"
   inkscape:label="Hood, TX"
   inkscape:connector-curvature="0" />
  <path
   style="fill:#72b3dc;stroke:#c2dffb;stroke-width:1"
   d="m 93.972,54.64 1.258,3.624 0.838,1.905 -1.546,0.865 -2.245,1.249 -0.45,-0.82 -0.843,0.481 -2.331,-4.199 0.911,-3.232 4.408,0.127"
   id="48143"
   inkscape:label="Erath, TX"
   inkscape:connector-curvature="0" />
  <path
   style="fill:#72b3dc;stroke:#c2dffb;stroke-width:1"
   d="m 82.84,54.292 5.629,0.167 1.095,0.054 -0.911,3.232 -4.127,2.253 -2.115,-0.086 0.23,-5.626 0.199,0.006"
   id="48133"
   inkscape:label="Eastland, TX"
   inkscape:connector-curvature="0" />
  <path
   style="fill:#72b3dc;stroke:#c2dffb;stroke-width:1"
   d="m 77.251,54.098 5.39,0.188 -0.23,5.626 -0.842,-0.026 -4.742,-0.195 0.235,-5.602 0.189,0.009"
   id="48059"
   inkscape:label="Callahan, TX"
   inkscape:connector-curvature="0" />
  <path
   style="fill:#72b3dc;stroke:#c2dffb;stroke-width:1"
   d="m 77.062,54.089 -0.235,5.602 -0.901,-0.045 -4.764,-0.207 0.306,-5.683 5.594,0.333"
   id="48441"
   inkscape:label="Taylor, TX"
   inkscape:connector-curvature="0" />
  <path
   style="fill:#72b3dc;stroke:#c2dffb;stroke-width:1"
   d="m 71.468,53.756 -0.306,5.683 -0.906,-0.037 -4.683,-0.256 0.329,-5.678 5.566,0.288"
   id="48353"
   inkscape:label="Nolan, TX"
   inkscape:connector-curvature="0" />
  <path
   style="fill:#72b3dc;stroke:#c2dffb;stroke-width:1"
   d="m 67.705,47.883 4.034,0.225 -0.271,5.648 -5.566,-0.288 0.329,-5.661 1.474,0.076"
   id="48151"
   inkscape:label="Fisher, TX"
   inkscape:connector-curvature="0" />
  <path
   style="fill:#72b3dc;stroke:#c2dffb;stroke-width:1"
   d="m 71.739,48.108 1.672,0.068 4.056,0.203 -0.216,5.719 -0.189,-0.009 -5.594,-0.333 0.271,-5.648"
   id="48253"
   inkscape:label="Jones, TX"
   inkscape:connector-curvature="0" />
  <path
   style="fill:#72b3dc;stroke:#c2dffb;stroke-width:1"
   d="m 77.467,48.379 1.519,0.055 4.039,0.139 -0.185,5.719 -0.199,-0.006 -5.39,-0.188 0.216,-5.719"
   id="48417"
   inkscape:label="Shackelford, TX"
   inkscape:connector-curvature="0" />
  <path
   style="fill:#72b3dc;stroke:#c2dffb;stroke-width:1"
   d="m 84.589,48.627 4.042,0.148 -0.162,5.684 -5.629,-0.167 0.185,-5.719 1.564,0.054"
   id="48429"
   inkscape:label="Stephens, TX"
   inkscape:connector-curvature="0" />
  <path
   style="fill:#72b3dc;stroke:#c2dffb;stroke-width:1"
   d="m 90.254,48.127 3.989,0.153 -0.239,5.746 -0.032,0.614 -4.408,-0.127 -1.095,-0.054 0.162,-5.684 1.623,-0.648"
   id="48363"
   inkscape:label="Palo Pinto, TX"
   inkscape:connector-curvature="0" />
  <path
   style="fill:#72b3dc;stroke:#c2dffb;stroke-width:1"
   d="m 94.243,48.28 1.447,0.058 4.065,0.162 -0.163,5.68 -0.72,-0.014 -4.868,-0.14 0.239,-5.746"
   id="48367"
   inkscape:label="Parker, TX"
   inkscape:connector-curvature="0" />
  <path
   style="fill:#72b3dc;stroke:#c2dffb;stroke-width:1"
   d="m 99.755,48.5 1.568,0.077 3.944,0.121 -0.126,5.644 -0.528,-0.019 -5.021,-0.143 0.163,-5.68"
   id="48439"
   inkscape:label="Tarrant, TX"
   inkscape:connector-curvature="0" />
  <path
   style="fill:#72b3dc;stroke:#c2dffb;stroke-width:1"
   d="m 105.267,48.698 2.019,-0.017 3.534,0.094 -0.036,2.182 -0.135,3.476 -5.508,-0.091 0.126,-5.644"
   id="48113"
   inkscape:label="Dallas, TX"
   inkscape:connector-curvature="0" />
  <path
   style="fill:#72b3dc;stroke:#c2dffb;stroke-width:1"
   d="m 113.187,48.793 -0.006,1.811 -2.397,0.353 0.036,-2.182 2.367,0.018"
   id="48397"
   inkscape:label="Rockwall, TX"
   inkscape:connector-curvature="0" />
  <path
   style="fill:#72b3dc;stroke:#c2dffb;stroke-width:1"
   d="m 113.181,50.604 2.381,0.046 0.004,6.224 -4.084,-0.026 -0.833,-2.415 0.135,-3.476 2.397,-0.353"
   id="48257"
   inkscape:label="Kaufman, TX"
   inkscape:connector-curvature="0" />
  <path
   style="fill:#72b3dc;stroke:#c2dffb;stroke-width:1"
   d="m 117.869,48.825 2.127,0.243 0.333,3.106 -3.231,-1.506 0.771,-1.843"
   id="48379"
   inkscape:label="Rains, TX"
   inkscape:connector-curvature="0" />
  <path
   style="fill:#72b3dc;stroke:#c2dffb;stroke-width:1"
   d="m 117.098,50.668 3.231,1.506 0.442,0.429 0.019,2.68 1.333,1.42 0.244,0.186 -6.801,-0.015 -0.004,-6.224 1.536,0.018"
   id="48467"
   inkscape:label="Van Zandt, TX"
   inkscape:connector-curvature="0" />
  <path
   style="fill:#72b3dc;stroke:#c2dffb;stroke-width:1"
   d="m 115.566,56.874 6.801,0.015 -0.099,2.84 0.346,0.657 -6.801,1.032 -0.022,-0.086 -0.135,-0.744 -0.505,-0.752 -0.924,-1.118 -0.387,-0.464 -0.595,-0.542 -1.024,-0.473 -0.739,-0.391 4.084,0.026"
   id="48213"
   inkscape:label="Henderson, TX"
   inkscape:connector-curvature="0" />
  <path
   style="fill:#72b3dc;stroke:#c2dffb;stroke-width:1"
   d="m 122.614,60.386 -0.193,1.754 0.176,0.931 0.406,1.461 0.765,0.698 0.149,0.032 0.249,0.302 0.153,0.32 0.157,0.5 0.032,0.127 -0.153,0.216 -2.408,0.375 -1.739,0.306 -0.965,0.491 -0.522,-1.473 -0.095,-0.736 -0.874,-1.031 -0.37,-0.136 -0.699,-0.704 -0.968,-1.798 0.098,-0.603 6.801,-1.032"
   id="48001"
   inkscape:label="Anderson, TX"
   inkscape:connector-curvature="0" />
  <path
   style="fill:#72b3dc;stroke:#c2dffb;stroke-width:1"
   d="m 119.243,67.899 0.965,-0.491 1.739,-0.306 2.408,-0.375 0.703,0.271 1.09,1.117 1.19,0.735 0.505,0.501 -5.214,4.291 -2.016,1.653 -1.626,-2.105 -0.113,-0.37 -0.013,-0.168 0.554,-1.752 0.248,-0.279 0.094,-0.054 0.046,0.009 0.247,-0.628 -0.491,-1.405 -0.203,-0.455 -0.113,-0.189"
   id="48225"
   inkscape:label="Houston, TX"
   inkscape:connector-curvature="0" />
  <path
   style="fill:#72b3dc;stroke:#c2dffb;stroke-width:1"
   d="m 129.146,72.437 -3.903,4.197 -1.416,-0.443 -1.198,-2.549 5.214,-4.291 1.303,3.086"
   id="48455"
   inkscape:label="Trinity, TX"
   inkscape:connector-curvature="0" />
  <path
   style="fill:#72b3dc;stroke:#c2dffb;stroke-width:1"
   d="m 132.26,73.524 -1.055,0.626 1.339,6.234 -2.074,0.505 -1.297,-0.028 -0.356,-0.738 -2.813,-2.696 -0.761,-0.793 3.903,-4.197 1.252,0.524 0.961,0.202 0.901,0.361"
   id="48373"
   inkscape:label="Polk, TX"
   inkscape:connector-curvature="0" />
  <path
   style="fill:#72b3dc;stroke:#c2dffb;stroke-width:1"
   d="m 142.839,71.802 0.513,-0.135 0.041,4.088 -0.199,0.865 -1.582,2.979 -0.126,0.451 0,0.005 0.032,0.034 0.311,0.375 0.157,0.804 -0.004,0.067 -0.045,0.112 -0.425,0.357 -0.012,0.012 0.341,2.025 -2.063,0.071 0.167,-5.475 0.027,-3.616 -0.56,-2.704 3.427,-0.315"
   id="48351"
   inkscape:label="Newton, TX"
   inkscape:connector-curvature="0" />
  <path
   style="fill:#72b3dc;stroke:#c2dffb;stroke-width:1"
   d="m 138.006,72.451 1.406,-0.334 0.56,2.704 -0.027,3.616 -0.167,5.475 -2.406,0.064 0.116,-0.163 0.203,-1.257 -0.113,-0.118 -0.036,-0.012 -0.202,-0.461 -0.032,-0.18 0.122,-0.5 0.098,-0.298 0.28,-0.684 -0.167,-0.271 -0.116,-0.379 0.03,-0.099 0.249,-0.479 -0.054,-0.517 -0.788,-1.564 -0.1,-0.085 -0.249,-0.036 -0.067,-0.014 -0.026,-0.031 -0.744,-2.169 0.076,-0.432 -0.04,-0.103 -0.131,-0.136 -0.514,-0.198 -0.654,0.018 -1.099,0.031 3.606,-0.915 0.986,-0.473"
   id="48241"
   inkscape:label="Jasper, TX"
   inkscape:connector-curvature="0" />
  <path
   style="fill:#72b3dc;stroke:#c2dffb;stroke-width:1"
   d="m 133.414,73.839 1.099,-0.031 0.654,-0.018 0.514,0.198 0.131,0.136 0.04,0.103 -0.076,0.432 0.744,2.169 0.026,0.031 0.067,0.014 0.249,0.036 0.1,0.085 0.788,1.564 0.054,0.517 -0.249,0.479 -0.03,0.099 0.116,0.379 0.167,0.271 -5.264,0.081 -1.339,-6.234 1.055,-0.626 1.154,0.315"
   id="48457"
   inkscape:label="Tyler, TX"
   inkscape:connector-curvature="0" />
  <path
   style="fill:#72b3dc;stroke:#c2dffb;stroke-width:1"
   d="m 128.835,67.534 0.468,0.518 2.037,0.523 0.492,-0.081 0.432,0.181 0.582,0.305 0.14,0.15 1.829,2.217 2.205,1.577 -3.606,0.915 -1.154,-0.315 -0.901,-0.361 -0.961,-0.202 -1.252,-0.524 -1.303,-3.086 -0.505,-0.501 1.497,-1.316"
   id="48005"
   inkscape:label="Angelina, TX"
   inkscape:connector-curvature="0" />
  <path
   style="fill:#72b3dc;stroke:#c2dffb;stroke-width:1"
   d="m 140.125,66.568 1.185,1.245 1.01,1.465 0.329,1.434 0.076,0.423 0.114,0.667 -3.427,0.315 -1.406,0.334 -0.094,-0.302 -0.04,-1.798 0.009,-1.456 0.468,-0.504 0.184,-0.235 -0.044,-1.329 1.636,-0.259"
   id="48403"
   inkscape:label="Sabine, TX"
   inkscape:connector-curvature="0" />
  <path
   style="fill:#72b3dc;stroke:#c2dffb;stroke-width:1"
   d="m 138.489,66.827 0.044,1.329 -0.184,0.235 -0.468,0.504 -0.009,1.456 0.04,1.798 0.094,0.302 -0.986,0.473 -2.205,-1.577 0.059,-1.541 0.081,-2.944 -0.766,-0.856 -0.261,-0.181 3.385,0.361 1.176,0.641"
   id="48405"
   inkscape:label="San Augustine, TX"
   inkscape:connector-curvature="0" />
  <path
   style="fill:#72b3dc;stroke:#c2dffb;stroke-width:1"
   d="m 132.63,61.706 5.408,-0.175 1.537,1.717 0.55,3.32 -1.636,0.259 -1.176,-0.641 -3.385,-0.361 -0.627,-2.456 -0.671,-1.663"
   id="48419"
   inkscape:label="Shelby, TX"
   inkscape:connector-curvature="0" />
  <path
   style="fill:#72b3dc;stroke:#c2dffb;stroke-width:1"
   d="m 128.006,63.428 5.295,-0.059 0.627,2.456 0.261,0.181 0.766,0.856 -0.081,2.944 -0.059,1.541 -1.829,-2.217 -0.14,-0.15 -0.582,-0.305 -0.432,-0.181 -0.492,0.081 -2.037,-0.523 -0.468,-0.518 -0.596,-0.587 -0.053,-0.085 -0.27,-0.734 -0.2,-0.744 -0.117,-1.155 0.407,-0.801"
   id="48347"
   inkscape:label="Nacogdoches, TX"
   inkscape:connector-curvature="0" />
  <path
   style="fill:#72b3dc;stroke:#c2dffb;stroke-width:1"
   d="m 122.268,59.729 5.17,-0.074 0.568,3.773 -0.407,0.801 0.117,1.155 0.2,0.744 0.27,0.734 0.053,0.085 0.596,0.587 -1.497,1.316 -1.19,-0.735 -1.09,-1.117 -0.703,-0.271 0.153,-0.216 -0.032,-0.127 -0.157,-0.5 -0.153,-0.32 -0.249,-0.302 -0.149,-0.032 -0.765,-0.698 -0.406,-1.461 -0.176,-0.931 0.193,-1.754 -0.346,-0.657"
   id="48073"
   inkscape:label="Cherokee, TX"
   inkscape:connector-curvature="0" />
  <path
   style="fill:#72b3dc;stroke:#c2dffb;stroke-width:1"
   d="m 137.632,56.208 0.055,2.537 0.351,2.786 -5.408,0.175 -0.964,0.023 -0.037,-1.379 0.211,-1.596 0.239,-0.596 0.347,-0.612 0.326,-0.789 0.008,-0.491 0.311,0.275 1.176,0.505 0.091,0.017 3.294,-0.855"
   id="48365"
   inkscape:label="Panola, TX"
   inkscape:connector-curvature="0" />
  <path
   style="fill:#72b3dc;stroke:#c2dffb;stroke-width:1"
   d="m 131.809,56.274 0.951,-0.008 -0.008,0.491 -0.326,0.789 -0.347,0.612 -0.239,0.596 -0.211,1.596 0.037,1.379 0.964,-0.023 0.671,1.663 -5.295,0.059 -0.568,-3.773 -0.041,-2.992 1.916,-0.041 1.798,-0.018 0.698,-0.33"
   id="48401"
   inkscape:label="Rusk, TX"
   inkscape:connector-curvature="0" />
  <path
   style="fill:#72b3dc;stroke:#c2dffb;stroke-width:1"
   d="m 127.356,54.49 0.176,-0.018 1.632,-0.699 0.644,-0.896 0.081,-0.036 0.509,0.058 0.032,0.063 0.04,2.579 0.014,0.387 0.645,0.311 0.572,0.075 0.108,-0.04 -0.698,0.33 -1.798,0.018 -1.916,0.041 -0.041,-2.173"
   id="48183"
   inkscape:label="Gregg, TX"
   inkscape:connector-curvature="0" />
  <path
   style="fill:#72b3dc;stroke:#c2dffb;stroke-width:1"
   d="m 120.771,52.603 0.979,0.877 0.31,0.136 3.114,0.78 0.078,-0.009 0.207,-0.101 0.099,-0.201 1.798,0.405 0.041,2.173 0.041,2.992 -5.17,0.074 0.099,-2.84 -0.244,-0.186 -1.333,-1.42 -0.019,-2.68"
   id="48423"
   inkscape:label="Smith, TX"
   inkscape:connector-curvature="0" />
  <path
   style="fill:#72b3dc;stroke:#c2dffb;stroke-width:1"
   d="m 125.518,48.348 0.013,1.437 0.027,4.3 -0.099,0.201 -0.207,0.101 -0.078,0.009 -3.114,-0.78 -0.31,-0.136 -0.979,-0.877 -0.442,-0.429 -0.333,-3.106 3.84,-0.049 1.682,-0.671"
   id="48499"
   inkscape:label="Wood, TX"
   inkscape:connector-curvature="0" />
  <path
   style="fill:#72b3dc;stroke:#c2dffb;stroke-width:1"
   d="m 130.403,51.146 2.127,1.252 1.326,-0.012 0.356,-0.181 1.285,-0.166 0.76,-0.063 0.551,0.067 0.739,0.275 0.085,3.89 -3.294,0.855 -0.091,-0.017 -1.176,-0.505 -0.311,-0.275 -0.951,0.008 -0.108,0.04 -0.572,-0.075 -0.645,-0.311 -0.014,-0.387 -0.04,-2.579 -0.027,-1.816"
   id="48203"
   inkscape:label="Harrison, TX"
   inkscape:connector-curvature="0" />
  <path
   style="fill:#72b3dc;stroke:#c2dffb;stroke-width:1"
   d="m 125.531,49.785 4.66,-0.082 0.158,0.329 0.054,1.114 0.027,1.816 -0.032,-0.063 -0.509,-0.058 -0.081,0.036 -0.644,0.896 -1.632,0.699 -0.176,0.018 -1.798,-0.405 -0.027,-4.3"
   id="48459"
   inkscape:label="Upshur, TX"
   inkscape:connector-curvature="0" />
  <path
   style="fill:#72b3dc;stroke:#c2dffb;stroke-width:1"
   d="m 125.518,48.348 0.279,-0.276 0.919,-0.501 0.239,-0.046 0.194,-0.003 0.635,0.01 0.145,0.049 0.572,0.708 0.604,0.414 1.086,1 -4.66,0.082 -0.013,-1.437"
   id="48063"
   inkscape:label="Camp, TX"
   inkscape:connector-curvature="0" />
  <path
   style="fill:#72b3dc;stroke:#c2dffb;stroke-width:1"
   d="m 130.908,50.02 6.594,-0.136 0.045,2.434 -0.739,-0.275 -0.551,-0.067 -0.76,0.063 -1.285,0.166 -0.356,0.181 -1.326,0.012 -2.127,-1.252 -0.054,-1.114 0.559,-0.012"
   id="48315"
   inkscape:label="Marion, TX"
   inkscape:connector-curvature="0" />
  <path
   style="fill:#72b3dc;stroke:#c2dffb;stroke-width:1"
   d="m 130.858,44.979 0.027,0.124 0.09,0.072 0.361,0.071 4.043,0.023 0.023,-0.037 -0.037,-0.117 -0.031,-0.27 0.172,-0.306 0.337,-0.117 0.266,-0.06 0.969,0.155 0.225,0.116 0.091,0.203 0.068,3.259 0.04,1.789 -6.594,0.136 -0.05,-5.041"
   id="48067"
   inkscape:label="Cass, TX"
   inkscape:connector-curvature="0" />
  <path
   style="fill:#72b3dc;stroke:#c2dffb;stroke-width:1"
   d="m 129.158,43.772 0.673,0.442 1.027,0.765 0.05,5.041 -0.559,0.012 -0.158,-0.329 -1.086,-1 0.053,-4.931"
   id="48343"
   inkscape:label="Morris, TX"
   inkscape:connector-curvature="0" />
  <path
   style="fill:#72b3dc;stroke:#c2dffb;stroke-width:1"
   d="m 129.158,43.772 -0.053,4.931 -0.604,-0.414 -0.572,-0.708 -0.145,-0.049 -0.635,-0.01 -0.194,0.003 -0.239,0.046 -0.919,0.501 -0.037,-4.596 3.398,0.296"
   id="48449"
   inkscape:label="Titus, TX"
   inkscape:connector-curvature="0" />
  <path
   style="fill:#72b3dc;stroke:#c2dffb;stroke-width:1"
   d="m 125.76,43.476 0.037,4.596 -0.279,0.276 -1.682,0.671 -0.036,-5.364 0.022,-0.017 1.938,-0.162"
   id="48159"
   inkscape:label="Franklin, TX"
   inkscape:connector-curvature="0" />
  <path
   style="fill:#72b3dc;stroke:#c2dffb;stroke-width:1"
   d="m 117.873,45.72 0.884,-0.524 0.482,-0.563 1.334,-0.609 0.257,-0.108 0.55,-0.018 2.42,-0.243 0.036,5.364 -3.84,0.049 -2.127,-0.243 0.004,-3.105"
   id="48223"
   inkscape:label="Hopkins, TX"
   inkscape:connector-curvature="0" />
  <path
   style="fill:#72b3dc;stroke:#c2dffb;stroke-width:1"
   d="m 117.914,42.583 0.834,-0.388 0.198,-0.054 1.487,0.108 0.208,0.032 1.176,0.369 0.208,0.09 1.086,0.739 0.689,0.126 0.022,0.033 -0.022,0.017 -2.42,0.243 -0.55,0.018 -0.257,0.108 -1.334,0.609 -0.482,0.563 -0.884,0.524 0.028,-2.465 0.013,-0.672"
   id="48119"
   inkscape:label="Delta, TX"
   inkscape:connector-curvature="0" />
  <path
   style="fill:#72b3dc;stroke:#c2dffb;stroke-width:1"
   d="m 117.901,43.255 -0.028,2.465 -0.004,3.105 -0.771,1.843 -1.536,-0.018 -2.381,-0.046 0.006,-1.811 0.035,-4.795 4.679,-0.743"
   id="48231"
   inkscape:label="Hunt, TX"
   inkscape:connector-curvature="0" />
  <path
   style="fill:#72b3dc;stroke:#c2dffb;stroke-width:1"
   d="m 107.448,43.272 4.819,0.13 0.955,0.596 -0.035,4.795 -2.367,-0.018 -3.534,-0.094 0.162,-5.409"
   id="48085"
   inkscape:label="Collin, TX"
   inkscape:connector-curvature="0" />
  <path
   style="fill:#72b3dc;stroke:#c2dffb;stroke-width:1"
   d="m 101.571,42.88 4.706,0.239 1.171,0.153 -0.162,5.409 -2.019,0.017 -3.944,-0.121 0.248,-5.697"
   id="48121"
   inkscape:label="Denton, TX"
   inkscape:connector-curvature="0" />
  <path
   style="fill:#72b3dc;stroke:#c2dffb;stroke-width:1"
   d="m 95.842,42.736 4.616,0.085 1.113,0.059 -0.248,5.697 -1.568,-0.077 -4.065,-0.162 0.152,-5.602"
   id="48497"
   inkscape:label="Wise, TX"
   inkscape:connector-curvature="0" />
  <path
   style="fill:#72b3dc;stroke:#c2dffb;stroke-width:1"
   d="m 90.462,42.186 4.736,0.108 0.644,0.442 -0.152,5.602 -1.447,-0.058 -3.989,-0.153 0.194,-5.025 0.014,-0.916"
   id="48237"
   inkscape:label="Jack, TX"
   inkscape:connector-curvature="0" />
  <path
   style="fill:#72b3dc;stroke:#c2dffb;stroke-width:1"
   d="m 84.733,42.921 5.715,0.181 -0.194,5.025 -1.623,0.648 -4.042,-0.148 0.144,-5.706"
   id="48503"
   inkscape:label="Young, TX"
   inkscape:connector-curvature="0" />
  <path
   style="fill:#72b3dc;stroke:#c2dffb;stroke-width:1"
   d="m 79.18,42.714 5.553,0.207 -0.144,5.706 -1.564,-0.054 -4.039,-0.139 0.194,-5.72"
   id="48447"
   inkscape:label="Throckmorton, TX"
   inkscape:connector-curvature="0" />
  <path
   style="fill:#72b3dc;stroke:#c2dffb;stroke-width:1"
   d="m 73.627,42.52 5.553,0.194 -0.194,5.72 -1.519,-0.055 -4.056,-0.203 0.216,-5.656"
   id="48207"
   inkscape:label="Haskell, TX"
   inkscape:connector-curvature="0" />
  <path
   style="fill:#72b3dc;stroke:#c2dffb;stroke-width:1"
   d="m 67.989,42.258 5.638,0.262 -0.216,5.656 -1.672,-0.068 -4.034,-0.225 0.284,-5.625"
   id="48433"
   inkscape:label="Stonewall, TX"
   inkscape:connector-curvature="0" />
  <path
   style="fill:#72b3dc;stroke:#c2dffb;stroke-width:1"
   d="m 62.684,36.341 5.562,0.252 -0.257,5.665 -5.58,-0.271 0.275,-5.646"
   id="48125"
   inkscape:label="Dickens, TX"
   inkscape:connector-curvature="0" />
  <path
   style="fill:#72b3dc;stroke:#c2dffb;stroke-width:1"
   d="m 63.008,30.139 1.01,0.049 4.539,0.21 -0.311,6.195 -5.562,-0.252 0.324,-6.202"
   id="48345"
   inkscape:label="Motley, TX"
   inkscape:connector-curvature="0" />
  <path
   style="fill:#72b3dc;stroke:#c2dffb;stroke-width:1"
   d="m 68.575,24.766 1.316,0.067 -0.284,5.621 -1.05,-0.056 -4.539,-0.21 0.307,-5.638 4.25,0.216"
   id="48191"
   inkscape:label="Hall, TX"
   inkscape:connector-curvature="0" />
  <path
   style="fill:#72b3dc;stroke:#c2dffb;stroke-width:1"
   d="m 68.863,19.123 -0.288,5.643 -4.25,-0.216 -1.533,-0.082 0.347,-5.619 5.724,0.274"
   id="48129"
   inkscape:label="Donley, TX"
   inkscape:connector-curvature="0" />
  <path
   style="fill:#72b3dc;stroke:#c2dffb;stroke-width:1"
   d="m 63.445,13.183 5.675,0.284 -0.257,5.656 -5.724,-0.274 0.306,-5.666"
   id="48179"
   inkscape:label="Gray, TX"
   inkscape:connector-curvature="0" />
  <path
   style="fill:#72b3dc;stroke:#c2dffb;stroke-width:1"
   d="m 63.752,7.526 0,-0.031 5.575,0.297 0.068,0.004 -0.275,5.671 -5.675,-0.284 0.005,-0.081 0.302,-5.576"
   id="48393"
   inkscape:label="Roberts, TX"
   inkscape:connector-curvature="0" />
  <path
   style="fill:#72b3dc;stroke:#c2dffb;stroke-width:1"
   d="m 65.411,1.834 4.196,0.211 -0.28,5.747 -5.575,-0.297 0.311,-5.728 1.348,0.067"
   id="48357"
   inkscape:label="Ochiltree, TX"
   inkscape:connector-curvature="0" />
  <path
   style="fill:#72b3dc;stroke:#c2dffb;stroke-width:1"
   d="m 69.607,2.045 5.58,0.249 -0.212,5.765 -5.58,-0.263 -0.068,-0.004 0.28,-5.747"
   id="48295"
   inkscape:label="Lipscomb, TX"
   inkscape:connector-curvature="0" />
  <path
   style="fill:#72b3dc;stroke:#c2dffb;stroke-width:1"
   d="m 74.975,8.059 -0.095,2.266 -0.139,3.399 -5.621,-0.257 0.275,-5.671 5.58,0.263"
   id="48211"
   inkscape:label="Hemphill, TX"
   inkscape:connector-curvature="0" />
  <path
   style="fill:#72b3dc;stroke:#c2dffb;stroke-width:1"
   d="m 69.12,13.467 5.621,0.257 -0.239,5.661 -5.639,-0.262 0.257,-5.656"
   id="48483"
   inkscape:label="Wheeler, TX"
   inkscape:connector-curvature="0" />
  <path
   style="fill:#72b3dc;stroke:#c2dffb;stroke-width:1"
   d="m 68.863,19.123 5.639,0.262 -0.086,1.974 -0.153,3.682 -4.372,-0.208 -1.316,-0.067 0.288,-5.643"
   id="48087"
   inkscape:label="Collingsworth, TX"
   inkscape:connector-curvature="0" />
  <path
   style="fill:#72b3dc;stroke:#c2dffb;stroke-width:1"
   d="m 69.891,24.833 4.372,0.208 -0.072,2.398 -0.14,3.236 -4.444,-0.221 0.284,-5.621"
   id="48075"
   inkscape:label="Childress, TX"
   inkscape:connector-curvature="0" />
  <path
   style="fill:#72b3dc;stroke:#c2dffb;stroke-width:1"
   d="m 68.557,30.398 1.05,0.056 4.444,0.221 -0.045,1.132 -0.118,-0.231 -0.297,0.028 -0.104,0.113 -0.234,5.096 -5.007,-0.22 0.311,-6.195"
   id="48101"
   inkscape:label="Cottle, TX"
   inkscape:connector-curvature="0" />
  <path
   style="fill:#72b3dc;stroke:#c2dffb;stroke-width:1"
   d="m 68.246,36.593 5.007,0.22 0.555,0.028 -0.181,5.679 -5.638,-0.262 0.257,-5.665"
   id="48269"
   inkscape:label="King, TX"
   inkscape:connector-curvature="0" />
  <path
   style="fill:#72b3dc;stroke:#c2dffb;stroke-width:1"
   d="m 79.315,38.382 -0.135,4.332 -5.553,-0.194 0.181,-5.679 1.712,0.072 1.438,0.279 1.636,0.361 0.541,0.383 0.153,0.279 0.027,0.167"
   id="48275"
   inkscape:label="Knox, TX"
   inkscape:connector-curvature="0" />
  <path
   style="fill:#72b3dc;stroke:#c2dffb;stroke-width:1"
   d="m 74.006,31.807 1.929,1.491 2.74,0.884 0.636,-0.105 0.121,-0.126 0.041,-0.126 -0.122,3.255 -0.036,1.302 -0.027,-0.167 -0.153,-0.279 -0.541,-0.383 -1.636,-0.361 -1.438,-0.279 -1.712,-0.072 -0.555,-0.028 0.234,-5.096 0.104,-0.113 0.297,-0.028 0.118,0.231"
   id="48155"
   inkscape:label="Foard, TX"
   inkscape:connector-curvature="0" />
  <path
   style="fill:#72b3dc;stroke:#c2dffb;stroke-width:1"
   d="m 75.736,28.209 0.55,0.713 0.266,0.315 0.739,0.703 0.325,0.077 0.09,0 0.41,-0.004 0.411,-0.519 0.058,-0.022 0.117,0.017 0.505,0.059 0.162,0.068 0.262,0.153 -0.158,4.056 -0.041,0.126 -0.121,0.126 -0.636,0.105 -2.74,-0.884 -1.929,-1.491 0.045,-1.132 0.14,-3.236 1.545,0.77"
   id="48197"
   inkscape:label="Hardeman, TX"
   inkscape:connector-curvature="0" />
  <path
   style="fill:#72b3dc;stroke:#c2dffb;stroke-width:1"
   d="m 84.918,37.269 5.642,0.135 -0.098,4.782 -0.014,0.916 -5.715,-0.181 0.185,-5.652"
   id="48009"
   inkscape:label="Archer, TX"
   inkscape:connector-curvature="0" />
  <path
   style="fill:#72b3dc;stroke:#c2dffb;stroke-width:1"
   d="m 84.918,37.269 -0.185,5.652 -5.553,-0.207 0.135,-4.332 0.036,-1.302 5.567,0.189"
   id="48023"
   inkscape:label="Baylor, TX"
   inkscape:connector-curvature="0" />
  <path
   style="fill:#72b3dc;stroke:#c2dffb;stroke-width:1"
   d="m 82.389,30.665 -0.013,0.298 -0.009,0.28 0.184,1 0,0.004 0.005,0.006 0.135,0.04 0.216,0.067 0.397,0.09 0.198,-0.009 0.428,-0.008 0.978,0.077 0.014,0 0.149,0.075 -0.153,4.684 -5.567,-0.189 0.122,-3.255 0.158,-4.056 0.347,0.329 0.356,0.031 0.081,-0.035 0.009,0 0.014,-0.023 0.004,-0.01 0.455,-0.815 0.464,0.252 0.528,0.284 0.5,0.87 0,0.013"
   id="48487"
   inkscape:label="Wilbarger, TX"
   inkscape:connector-curvature="0" />
  <path
   style="fill:#72b3dc;stroke:#c2dffb;stroke-width:1"
   d="m 88.69,33.14 0.108,0.008 0.235,0.155 0.243,0.207 0.504,0.811 0.303,0.109 0.004,0.004 0.009,-0.009 0.568,-0.51 -0.104,3.489 -5.642,-0.135 0.153,-4.684 0.982,0.587 0.978,0.239 0.694,0.026 0.965,-0.297"
   id="48485"
   inkscape:label="Wichita, TX"
   inkscape:connector-curvature="0" />
  <path
   style="fill:#72b3dc;stroke:#c2dffb;stroke-width:1"
   d="m 93.999,34.925 0.185,0.37 0.027,0.027 0.018,0.004 0.451,0.135 0.23,0 0.013,-0.004 0.37,-0.09 0.397,0.157 0.004,0.005 -0.095,0.689 -0.275,0.595 -0.126,5.481 -4.736,-0.108 0.098,-4.782 0.104,-3.489 0.428,-0.541 0.207,-0.117 0.406,0.091 1.65,0.518 0.644,1.059"
   id="48077"
   inkscape:label="Clay, TX"
   inkscape:connector-curvature="0" />
  <path
   style="fill:#72b3dc;stroke:#c2dffb;stroke-width:1"
   d="m 100.589,36.575 -0.131,6.246 -4.616,-0.085 -0.644,-0.442 0.126,-5.481 0.118,0.109 0.941,0.429 0.127,0.012 0.333,-0.099 0.532,-0.419 0.559,-0.581 0.365,-0.46 1.086,0.725 0.383,0.267 0.821,-0.221"
   id="48337"
   inkscape:label="Montague, TX"
   inkscape:connector-curvature="0" />
  <path
   style="fill:#72b3dc;stroke:#c2dffb;stroke-width:1"
   d="m 106.335,36.218 -0.058,6.901 -4.706,-0.239 -1.113,-0.059 0.131,-6.246 0.211,0.964 0.028,0.067 0.009,0.023 0,0.005 0.063,0.076 0.094,0.063 3.106,1.357 0.149,0.05 0.171,0.022 0.153,-0.049 0.108,-0.086 0.05,-0.067 1.604,-2.782"
   id="48097"
   inkscape:label="Cooke, TX"
   inkscape:connector-curvature="0" />
  <path
   style="fill:#72b3dc;stroke:#c2dffb;stroke-width:1"
   d="m 118.058,37.67 -0.144,4.913 -0.013,0.672 -4.679,0.743 -0.955,-0.596 0.072,-4.272 0.103,0.141 1.591,-0.393 0.221,-0.059 0.194,-0.083 0.013,-0.016 0.1,-0.104 0.013,-0.017 0.005,-0.009 0.027,-0.086 0.031,-0.099 0.009,-0.036 0.005,-0.032 0.067,-0.311 0.09,-0.316 0.541,-0.125 1.199,-0.1 0.23,-0.017 0.145,-0.015 0.617,0.122 0.518,0.095"
   id="48147"
   inkscape:label="Fannin, TX"
   inkscape:connector-curvature="0" />
  <path
   style="fill:#72b3dc;stroke:#c2dffb;stroke-width:1"
   d="m 106.439,36.16 0.541,1.112 0.175,0.196 0.108,0.075 1.006,0.308 0.518,-0.087 0.009,-0.004 1.068,-0.482 -0.036,0.207 0.009,0.159 0.009,0.062 0.009,0.031 1.095,0.735 0.099,0.068 0.014,0 0.546,-0.104 0.126,0.014 0.14,0.045 0,0.004 0.464,0.631 -0.072,4.272 -4.819,-0.13 -1.171,-0.153 0.058,-6.901 0.104,-0.058"
   id="48181"
   inkscape:label="Grayson, TX"
   inkscape:connector-curvature="0" />
  <path
   style="fill:#72b3dc;stroke:#c2dffb;stroke-width:1"
   d="m 123.733,37.246 0.067,6.359 -0.689,-0.126 -1.086,-0.739 -0.208,-0.09 -1.176,-0.369 -0.208,-0.032 -1.487,-0.108 -0.198,0.054 -0.834,0.388 0.144,-4.913 0.915,-0.343 0.004,-0.004 0.893,-0.465 0.78,-0.405 0.346,0.018 0.081,0.032 0.113,0.288 -0.003,0.086 -0.032,0.091 0.003,0.066 0,0.009 0.042,0.072 0.04,0.036 1.055,0.14 0.4,0.032 0.722,-0.036 0.005,0 0.311,-0.041"
   id="48277"
   inkscape:label="Lamar, TX"
   inkscape:connector-curvature="0" />
  <path
   style="fill:#72b3dc;stroke:#c2dffb;stroke-width:1"
   id="48007"
   d="m 101.967,111.91 0.222,0.181 0.036,0.005 1.023,-0.496 1.447,-1.091 0.071,-0.194 -0.238,-0.008 -0.248,-0.036 -0.438,-0.262 -0.256,-0.343 -0.018,-0.262 3.795,-0.553 -0.095,0.594 0.135,0.217 0,0.072 -0.153,0.333 -0.113,0.086 -1.437,1.181 -0.32,0.004 -0.997,1.29 -1.004,1.523 -1.412,-2.241 m 4.932,-0.409 -0.28,0.648 -2.226,2.849 -0.059,-0.163 2.565,-3.334"
   inkscape:label="Aransas, TX"
   inkscape:connector-curvature="0" />
  <path
   style="fill:#72b3dc;stroke:#c2dffb;stroke-width:1"
   id="48061"
   d="m 94.657,133.873 3.894,0.69 1.258,-0.838 0.455,-0.565 0.055,0.028 0.54,0.757 -0.031,1.082 0.405,2.01 0.865,1.439 0.028,0.031 -0.136,0.441 -2.131,1.277 -1.037,-0.317 -0.163,-0.099 -0.161,-0.125 -0.668,-0.528 -0.982,-1.095 -0.041,-0.145 -1.334,-0.233 -0.888,-0.154 0.072,-3.656 m 7.261,-0.689 0.198,0 0.32,1.343 0.1,0.505 0.135,0.951 0.203,1.605 -0.054,-0.01 -0.032,-0.004 -0.094,-0.131 -0.104,-0.869 0.013,-0.397 -0.054,-0.474 -0.113,-0.729 -0.225,-1.05 -0.135,-0.41 -0.158,-0.33"
   inkscape:label="Cameron, TX"
   inkscape:connector-curvature="0" />
  
  
  
  
  
  
  
  
  
  
  
  
  
  
  
  
  
  
  
  
  
  
  
  
  
  
  
  
  
  
  
  
  
  
  
  
  
  
  
  
  
  
  
  
  
  
  
  
  
  
  
  
  
  
  
  
  
  
  
  
  
  
  
  
  
  
  
  
  
  
  
  
  
  
  
  
  
  
  
  
  
  
  
  
  
  
  
  
  
  
  
  
  
  
  
  
  
  
  
  
  
  
  
  
  
  
  
  
  
  
  
  
  
  
  
  
  
  
  
  
  
  
  
  
  
  
  
  
  
  
  
  
  
  
  
  
  
  
  
  
  
  
  
  
  
  
  
  
  
  
  
  
  
  
  
  
  
  
  
  
  
  
  
  
  
  
  
  
  
  
  
  
  
  
  
  
  
  
  
  
  
  
  
  
  
  
  
  
  
  
  
  
  
  
  
  
  
  
  
  
  
  
  
  
  
  
  
  
  
  
  
  
  
  
  
  
  
  
  
  
  
  
  
  
  
  
  
  
  
  
  
  
  
  
  
  
  
  
  
  
  
  
  
  
  
  
  
  
  
  
  
  
  
  
  
  
  
  
  
  
  
  
  
  
  
  
  
  
  
  
  
  
  
  
  
  
  
  
  
  
  
  
  
  
  
  
  
  
  
  
  
  
  
  
  
  
  
  
  
  
  
  
  
  
  
  
  
  
  
  
  
  
  
  
  
  
  
  
  
  
  
  
  
  
  
  
  
  
  
  
  
  
  
  
  
  
  
  
  
  
  
  
  
  
  
  
  
  
  
  
  
  
  
  
  
  
  
  
  
  
  
  
  
  
  
  
  
  
  
</svg>