<?xml version="1.0" encoding="UTF-8" standalone="no"?>
<!--?xml version="1.0" encoding="UTF-8" standalone="no"?-->

<svg
   xmlns:dc="http://purl.org/dc/elements/1.1/"
   xmlns:cc="http://creativecommons.org/ns#"
   xmlns:rdf="http://www.w3.org/1999/02/22-rdf-syntax-ns#"
   xmlns:svg="http://www.w3.org/2000/svg"
   xmlns="http://www.w3.org/2000/svg"
   xmlns:sodipodi="http://sodipodi.sourceforge.net/DTD/sodipodi-0.dtd"
   xmlns:inkscape="http://www.inkscape.org/namespaces/inkscape"
   width="63.356682"
   height="79.036552"
   viewBox="0 0 58.565 72.196851"
   preserveAspectRatio="xMinYMin meet"
   xml:space="preserve"
   id="svg3129"
   version="1.1"
   inkscape:version="0.48.2 r9819"
   sodipodi:docname="UT.svg"><metadata
   id="metadata3164"><rdf:RDF><cc:Work
       rdf:about=""><dc:format>image/svg+xml</dc:format><dc:type
         rdf:resource="http://purl.org/dc/dcmitype/StillImage" /></cc:Work></rdf:RDF></metadata><defs
   id="defs3162" /><sodipodi:namedview
   pagecolor="#ffffff"
   bordercolor="#666666"
   borderopacity="1"
   objecttolerance="10"
   gridtolerance="10"
   guidetolerance="10"
   inkscape:pageopacity="0"
   inkscape:pageshadow="2"
   inkscape:window-width="640"
   inkscape:window-height="480"
   id="namedview3160"
   showgrid="false"
   inkscape:zoom="0.56730769"
   inkscape:cx="179.01821"
   inkscape:cy="-13.828782"
   inkscape:window-x="0"
   inkscape:window-y="0"
   inkscape:window-maximized="0"
   inkscape:current-layer="svg3129" />
  
  
  
  
  
  
  
  
  
  
  
  
  
  
  
  
  
  
  
  
  
  
  
  
  
  
  
  
  
  
  
  
  
  
  
  
  
  
  
  
  
  
  
  
  
  
  
  
  
  
  
  
  
  
  
  
  
  
  
  
  
  
  
  
  
  
  
  
  
  
  
  
  
  
  
  
  
  
  
  
  
  
  
  
  
  
  
  
  
  
  
  
  
  
  
  
  
  
  
  
  
  
  
  
  
  
  
  
  
  
  
  
  
  
  
  
  
  
  
  
  
  
  
  
  
  
  
  
  
  
  
  
  
  
  
  
  
  
  
  
  
  
  
  
  
  
  
  
  
  
  
  
  
  
  
  
  
  
  
  
  
  
  
  
  
  
  
  
  
  
  
  
  
  
  
  
  
  
  
  
  
  
  
  
  
  
  
  
  
  
  
  
  
  
  
  
  
  
  
  
  
  
  
  
  
  
  
  
  
  
  
  
  
  
  
  
  
  
  
  
  
  
  
  
  
  
  
  
  
  
  
  
  
  
  
  
  
  
  
  
  
  
  
  
  
  
  
  
  
  
  
  
  
  
  
  
  
  
  
  
  
  
  
  
  
  
  
  
  
  
  
  
  
  
  
  
  
  
  
  
  
  
  
  
  
  
  
  
  
  
  
  
  
  
  
  
  
  
  
  
  
  
  
  
  
  
  
  
  
  
  
  
  
  
  
  
  
  
  
  
  
  
  
  
  
  
  
  
  
  
  
  
  
  
  
  
  
  
  
  
  
  
  
  
  
  
  
  
  
  
  
  
  
  
  
  
  
  
  
  
  
  
  
  
  
  
  
  
  
  
  
  
  
  
  
  
  
  
  
  
  
  
  
  
  
  
  
  
  
  
  
  
  
  
  
  
  
  
  
  
  
  
  
  
  
  
  
  
  
  
  
  
  
  
  
  
  
  
  
  
  
  
  
  
  
  
  
  
  
  
  
  
  
  
  
  
  
  
  
  
  
  
  
  
  
  
  
  
  
  
  
  
  
  
  
  
  
  
  
  
  
  
  
  
  
  
  
  
  
  
  
  
  
  
  
  
  
  
  
  
  
  
  
  
  
  
  
  
  
  
  
  
  
  
  
  
  
  
  
  
  
  
  
  
  
  
  
  
  
  
  
  
  
  
  
  
  
  
  
  
  
  
  
  
  
  
  
  
  
  
  
  
  
  
  
  
  
  
  
  
  
  
  
  
  
  
  
  
  
  
  
  
  
  
  
  
  
  
  
  
  
  
  
  
  
  
  
  
  
  
  
  
  
  
  
  
  
  
  
  
  
  
  
  
  
  
  
  
  
  
  
  
  
  
  
  
  
  
  
  
  
  
  
  
  
  
  
  
  
  
  
  
  
  
  
  
  
  
  
  
  
  
  
  
  
  
  
  
  
  
  
  
  
  
  
  
  
  
  
  
  
  
  
  
  
  
  
  
  
  
  
  
  
  
  
  
  
  
  
  
  
  
  
  
  
  
  
  
  
  
  
  
  
  
  
  
  
  
  
  
  
  
  
  
  
  
  
  
  
  
  
  
  
  
  
  
  
  
  
  
  
  
  
  
  
  
  
  
  
  
  
  
  
  
  
  
  
  
  
  
  
  
  
  
  
  
  
  
  
  
  
  
  
  
  
  
  
  
  
  
  
  
  
  
  
  
  
  
  
  
  
  
  
  
  
  
  
  
  
  
  
  
  
  
  
  
  
  
  
  
  
  
  
  
  
  
  
  
  
  
  
  
  
  
  
  
  
  
  
  
  
  
  
  
  
  
  
  
  
  
  
  
  
  
  
  
  
  
  
  
  
  
  
  
  
  
  
  
  
  
  
  
  
  
  
  
  
  
  
  
  
  
  
  
  
  
  
  
  
  
  
  
  
  
  
  
  
  
  
  
  
  
  
  
  
  
  
  
  
  
  
  
  
  
  
  
  
  
  
  
  
  
  
  
  
  
  
  
  
  
  
  
  
  
  
  
  
  
  
  
  
  
  
  
  
  
  
  
  
  
  
  
  
  
  
  
  
  
  
  
  
  
  
  
  
  
  
  
  
  
  
  
  
  
  
  
  
  
  
  
  
  
  
  
  
  
  
  
  
  
  
  
  
  
  
  
  
  
  
  
  
  
  
  
  
  
  
  
  
  
  
  
  
  
  
  
  
  
  
  
  
  
  
  
  
  
  
  
  
  
  
  
  
  
  
  
  
  
  
  
  
  
  
  
  
  
  
  
  
  
  
  
  
  
  
  
  
  
  
  
  
  
  
  
  
  
  
  
  
  
  
  
  
  
  
  
  
  
  
  
  
  
  
  
  
  
  
  
  
  
  
  
  
  
  
  
  
  
  
  
  
  
  
  
  
  
  
  
  
  
  
  
  
  
  
  
  
  
  
  
  
  
  
  
  
  
  
  
  
  
  
  
  
  
  
  
  
  
  
  
  
  
  
  
  
  
  
  
  
  
  
  
  
  
  
  
  
  
  
  
  
  
  
  
  
  
  
  
  
  
  
  
  
  
  
  
  
  
  
  
  
  
  
  
  
  
  
  
  
  
  
  
  
  
  
  
  
  
  
  
  
  
  
  
  
  
  
  
  
  
  
  
  
  
  
  
  
  
  
  
  
  
  
  
  
  
  
  
  
  
  
  
  
  
  
  
  
  
  
  
  
  
  
  
  
  
  
  
  
  
  
  
  
  
  
  
  
  
  
  
  
  
  
  
  
  
  
  
  
  
  
  
  
  
  
  
  
  
  
  
  
  
  
  
  
  
  
  
  
  
  
  
  
  
  
  
  
  
  
  
  
  
  
  
  
  
  
  
  
  
  
  
  
  
  
  
  
  
  
  
  
  
  
  
  
  
  
  
  
  
  
  
  
  
  
  
  
  
  
  
  
  
  
  
  
  
  
  
  
  
  
  
  
  
  
  
  
  
  
  
  
  
  
  
  
  
  
  
  
  
  
  
  
  
  
  
  
  
  
  
  
  
  
  
  
  
  
  
  
  
  
  
  
  
  
  
  
  
  
  
  
  
  
  
  
  
  
  
  
  
  
  
  
  
  
  
  
  
  
  
  
  
  
  
  
  
  
  
  
  
  
  
  
  
  
  
  
  
  
  
  
  
  
  
  
  
  
  
  
  
  
  
  
  
  
  
  
  
  
  
  
  
  
  
  
  
  
  
  
  
  
  
  
  
  
  
  
  
  
  
  
  
  
  
  
  
  
  
  
  
  
  
  
  
  
  
  
  
  
  
  
  
  
  
  
  
  
  
  
  
  
  
  
  
  
  
  
  
  
  
  
  
  
  
  
  
  
  
  
  
  
  
  
  
  
  
  
  
  
  
  
  
  
  
  
  
  
  
  
  
  
  
  
  
  
  
  
  
  
  
  
  
  
  
  
  
  
  
  
  
  
  
  
  
  
  
  
  
  
  
  
  
  
  
  
  
  
  
  
  
  
  
  
  
  
  
  
  
  
  
  
  
  
  
  
  
  
  
  
  
  
  
  
  
  
  
  
  
  
  
  
  
  
  
  
  
  
  
  
  
  
  
  
  
  
  
  
  
  
  
  
  
  
  
  
  
  
  
  
  
  
  
  
  
  
  
  
  
  
  
  
  
  
  
  
  
  
  
  
  
  
  
  
  
  
  
  
  
  
  
  
  
  
  
  
  
  
  
  
  
  
  
  
  
  
  
  
  
  
  
  
  
  
  
  
  
  
  
  
  
  
  
  
  
  
  
  
  
  
  
  
  
  
  
  
  
  
  
  
  
  
  
  
  
  
  
  
  
  
  
  
  
  
  
  
  
  
  
  
  
  
  
  
  
  
  
  
  
  
  
  
  
  
  
  
  
  
  
  
  
  
  
  
  
  
  
  
  
  
  
  
  
  
  
  
  
  
  
  
  
  
  
  
  
  
  
  
  
  
  
  
  
  
  
  
  
  
  
  
  
  
  
  
  
  
  
  
  
  
  
  
  
  
  
  
  
  
  
  
  
  
  
  
  
  
  
  
  
  
  
  
  
  
  
  
  
  
  
  
  
  
  
  
  
  
  
  
  
  
  
  
  
  
  
  
  
  
  
  
  
  
  
  
  
  
  
  
  
  
  
  
  
  
  
  
  
  
  
  
  
  
  
  
  
  
  
  
  
  
  
  
  
  
  
  
  
  
  
  
  
  
  
  
  
  
  
  
  
  
  
  
  
  
  
  
  
  
  
  
  
  
  
  
  
  
  
  
  
  
  
  
  
  
  
  
  
  
  
  
  
  
  
  
  
  
  
  
  
  
  
  
  
  
  
  
  
  
  
  
  
  
  
  
  
  
  
  
  
  
  
  
  
  
  
  
  
  
  
  
  
  
  
  
  
  
  
  
  
  
  
  
  
  
  
  
  
  
  
  
  
  
  
  
  
  
  
  
  
  
  
  
  
  
  
  
  
  
  
  
  
  
  
  
  
  
  
  
  
  
  
  
  
  
  
  
  
  
  
  
  
  
  
  
  
  
  
  
  
  
  
  
  
  
  
  
  
  
  
  
  
  
  
  
  
  
  
  
  
  
  
  
  
  
  
  
  
  
  
  
  
  
  
  
  
  
  
  
  
  
  
  
  
  
  
  
  
  
  
  
  
  
  
  
  
  
  
  
  
  
  
  
  
  
  
  
  
  
  
  
  
  
  
  
  
  
  
  
  
  
  
  
  
  
  
  
  
  
  
  
  
  
  
  
  
  
  
  
  
  
  
  
  
  
  
  
  
  
  
  
  
  
  
  
  
  
  
  
  
  
  
  
  
  
  
  
  
  
  
  
  
  
  
  
  
  
  
  
  
  
  
  
  
  
  
  
  
  
  
  
  
  
  
  
  
  
  
  
  
  
  
  
  
  
  
  
  
  
  
  
  
  
  
  
  
  
  
  
  
  
  
  
  
  
  
  
  
  
  
  
  
  
  
  
  
  
  
  
  
  
  
  
  
  
  
  
  
  
  
  
  
  
  
  
  
  
  
  
  
  
  
  
  
  
  
  
  
  
  
  
  
  
  
  
  
  
  
  
  
  
  
  
  
  
  
  
  
  
  
  
  
  
  
  
  
  
  
  
  
  
  
  
  
  
  
  
  
  
  
  
  
  
  
  
  
  
  
  
  
  
  
  
  
  
  
  
  
  
  
  
  
  
  
  
  
  
  
  
  
  
  
  
  
  
  
  
  
  
  
  
  
  
  
  
  
  
  
  
  
  
  
  
  
  
  
  
  
  
  
  
  
  
  
  
  
  
  
  
  
  
  
  
  
  
  
  
  
  
  
  
  
  
  
  
  
  
  
  
  
  
  
  
  
  
  
  
  
  
  
  
  
  
  
  
  
  
  
  
  
  
  
  
  
  
  
  
  
  
  
  
  
  
  
  
  
  
  
  
  
  
  
  
  
  
  
  
  
  
  
  
  
  
  
  
  
  
  
  
  
  
  
  
  
  
  
  
  
  
  
  
  
  
  
  
  
  
  
  
  
  
  
  
  
  
  
  
  
  
  
  
  
  
  
  
  
  
  
  
  
  
  
  
  
  
  
  
  
  
  
  
  
  
  
  
  
  
  
  
  
  
  
  
  
  
  
  
  
  
  
  
  
  
  
  
  
  
  
  
  
  
  
  
  
  
  
  
  
  
  
  
  
  
  
  
  
  
  
  
  
  
  
  
  
  
  
  
  
  
  
  
  
  
  
  
  
  
  
  
  
  
  
  
  
  
  
  
  
  
  
  
  
  
  
  
  
  
  
  
  
  
  
  
  
  
  
  
  
  
  
  
  
  
  
  
  
  
  
  
  
  
  
  
  
  
  
  
  
  
  
  
  
  
  
  
  
  
  
  
  
  
  
  
  
  
  
  
  
  
  
  
  
  
  
  
  
  
  
  
  
  
  
  
  
  
  
  
  
  
  
  
  
  
  
  
  
  
  
  
  
  
  
  
  
  
  
  
  
  
  
  
  
  
  
  
  
  
  
  
  
  
  
  
  
  
  
  
  
  
  
  
  
  
  
  
  
  
  
  
  
  
  
  
  
  
  
  
  
  
  
  
  
  
  
  
  
  
  
  
  
  
  
  
  
  
  
  
  
  
  
  
  
  
  
  
  
  
  
  
  
  
  
  
  
  
  
  
  
  
  
  
  
  
  
  
  
  
  
  
  
  
  
  
  
  
  
  
  
  
  
  
  
  
  
  
  
  
  
  
  
  
  
  
  
  
  
  <path
   style="fill:#72b3dc;stroke:#c2dffb;stroke-width:1"
   d="m 53.517,53.211 -0.442,4.493 -0.483,3.498 -0.716,5.101 -0.883,6.256 -9.677,-1.375 -3.34,-0.505 -1.649,-0.325 -2.583,-0.391 -6.693,-1.05 0.311,0.027 0.744,0.018 3.448,-0.766 0.342,-0.117 0.717,-0.622 1.978,-1.871 0.172,-0.271 1.109,-2.091 2.294,-2.686 2.055,-1.122 1.776,-1.398 1.275,-1.098 0.059,-0.037 0.915,-0.424 0.293,-0.307 0.103,-0.648 -0.013,-0.545 -0.496,-2.831 -0.009,-0.045 -0.184,-0.243 9.577,1.375"
   id="49037"
   inkscape:label="San Juan, UT"
   inkscape:connector-curvature="0" />
  <path
   style="fill:#72b3dc;stroke:#c2dffb;stroke-width:1"
   d="m 18.88,52.422 0.352,0.027 3.799,0.666 0.239,0.072 0.487,0.1 0.355,0.053 1.087,0.119 4.254,0.72 2.84,0.434 11.953,1.842 -0.915,0.424 -0.059,0.037 -1.275,1.098 -1.776,1.398 -2.055,1.122 -2.294,2.686 -11.971,-1.924 -0.05,0.032 -0.086,0.004 -5.079,-0.883 -1.366,-0.32 -1.838,-0.33 0.365,-2.383 0.171,-0.989 1.276,-0.783 0.793,0.031 0.324,0.054 0.207,-1.112 0.262,-2.195"
   id="49017"
   inkscape:label="Garfield, UT"
   inkscape:connector-curvature="0" />
  <path
   style="fill:#72b3dc;stroke:#c2dffb;stroke-width:1"
   d="m 36.133,12.98 0.856,0.292 0.695,1.948 -0.059,0.235 -0.095,0.18 -0.117,0.149 -0.252,0.22 -1.055,0.175 -1.6,0.55 -0.185,0.112 -0.167,0.155 -0.441,0.436 -0.019,0.082 0.01,0.271 0.031,0.067 0.054,0.045 0.41,0.523 0.285,0.721 0.031,0.194 -0.527,0.793 -0.14,0.063 -0.162,0.031 -0.086,-0.013 -0.757,-0.369 -0.802,-0.952 -0.528,-3.75 -0.112,-0.447 0.063,-0.201 0.211,-0.094 0.546,-0.159 0.23,0.027 0.257,0.081 0.067,0.185 0.167,0.225 0.288,0.127 0.28,-0.023 1.582,-0.297 0.333,-0.258 0.302,-0.31 0.095,-0.19 0.311,-0.824"
   id="49029"
   inkscape:label="Morgan, UT"
   inkscape:connector-curvature="0" />
  <path
   style="fill:#72b3dc;stroke:#c2dffb;stroke-width:1"
   d="m 31.513,15.138 0.528,3.75 -0.158,0.073 -0.266,0.076 -0.915,0.144 -0.442,-0.076 -0.238,-0.045 0.008,-1.077 0.041,-0.226 -0.46,-0.077 -1.464,0.7 -1.316,0.779 -1.519,-4.263 2.447,-0.392 0.613,-0.078 1.501,0.261 1.64,0.451"
   id="49011"
   inkscape:label="Davis, UT"
   inkscape:connector-curvature="0" />
  <path
   style="fill:#72b3dc;stroke:#c2dffb;stroke-width:1"
   d="m 35.407,12.051 0.726,0.929 -0.311,0.824 -0.095,0.19 -0.302,0.31 -0.333,0.258 -1.582,0.297 -0.28,0.023 -0.288,-0.127 -0.167,-0.225 -0.067,-0.185 -0.257,-0.081 -0.23,-0.027 -0.546,0.159 -0.211,0.094 -0.063,0.201 0.112,0.447 -1.64,-0.451 -1.501,-0.261 -0.613,0.078 -2.447,0.392 3.006,-2.902 1.987,0.341 0.69,-0.256 0.861,-0.663 0.054,0.293 0.05,0.089 0.928,0.541 0.158,0.02 2.361,-0.308"
   id="49057"
   inkscape:label="Weber, UT"
   inkscape:connector-curvature="0" />
  <path
   style="fill:#72b3dc;stroke:#c2dffb;stroke-width:1"
   d="m 40.996,5.348 -1.532,9.615 -2.303,1.041 0.252,-0.22 0.117,-0.149 0.095,-0.18 0.059,-0.235 -0.695,-1.948 -0.856,-0.292 -0.726,-0.929 1.01,-1.549 0.509,-1.241 0.004,-0.062 -0.085,-3.557 -0.189,-0.97 4.34,0.676"
   id="49033"
   inkscape:label="Rich, UT"
   inkscape:connector-curvature="0" />
  <path
   style="fill:#72b3dc;stroke:#c2dffb;stroke-width:1"
   d="m 30.467,3.672 0.515,0.082 5.674,0.918 0.189,0.97 0.085,3.557 -0.004,0.062 -0.509,1.241 -1.01,1.549 -2.361,0.308 -0.158,-0.02 L 31.96,11.798 31.91,11.709 31.856,11.416 31.824,10.482 31.811,10.047 31.639,9.74 31.599,9.704 31.121,9.613 31.036,7.91 31.211,6.805 31.324,6.292 31.229,5.547 31.004,4.994 30.715,4.615 30.467,3.672"
   id="49005"
   inkscape:label="Cache, UT"
   inkscape:connector-curvature="0" />
  <path
   style="fill:#72b3dc;stroke:#c2dffb;stroke-width:1"
   d="m 12.831,0.5 0.627,0.158 0.753,0.18 0.112,0.022 0.802,0.14 0.298,0.049 3.132,0.533 0.275,0.045 3.777,0.639 2.745,0.464 2.429,0.42 1.992,0.344 0.005,0 0.689,0.178 0.248,0.943 0.289,0.379 0.225,0.553 0.095,0.745 -0.113,0.513 -0.175,1.105 0.085,1.703 0.478,0.091 0.04,0.036 0.172,0.307 0.013,0.435 0.032,0.934 -0.861,0.663 -0.69,0.256 -1.987,-0.341 -3.006,2.902 -3.088,0.463 L 10.393,13.17 12.831,0.5"
   id="49003"
   inkscape:label="Box Elder, UT"
   inkscape:connector-curvature="0" />
  <path
   style="fill:#72b3dc;stroke:#c2dffb;stroke-width:1"
   d="m 58.065,21.029 -0.604,4.467 -0.722,-0.104 -0.311,-0.437 0.118,-0.842 0.044,-0.475 -0.251,-0.986 -1.84,-0.253 -1.307,0.244 -3.082,0.302 -0.33,0.009 -0.969,-0.743 -0.211,-0.086 0.346,-2.357 0.01,0 1.383,0.198 1.343,0.189 0.375,0.054 4.497,0.6 1.511,0.22"
   id="49009"
   inkscape:label="Daggett, UT"
   inkscape:connector-curvature="0" />
  <path
   style="fill:#72b3dc;stroke:#c2dffb;stroke-width:1"
   d="m 26.831,19.159 1.316,-0.779 1.464,-0.7 0.46,0.077 -0.041,0.226 -0.008,1.077 0.238,0.045 0.442,0.076 0.915,-0.144 0.266,-0.076 0.158,-0.073 0.802,0.952 0.441,2.573 -0.459,0.348 -0.974,0.441 -2.736,0.942 -0.374,0.081 -1.176,-0.553 -0.545,-0.438 -0.189,-4.075"
   id="49035"
   inkscape:label="Salt Lake, UT"
   inkscape:connector-curvature="0" />
  <path
   style="fill:#72b3dc;stroke:#c2dffb;stroke-width:1"
   d="m 39.464,14.963 -0.523,3.254 5.214,0.861 4.336,0.622 0.455,0.068 -0.346,2.357 -1.605,-0.226 -1.821,-0.117 -4.895,0.234 -0.599,0.523 -0.735,0.843 -0.148,0.126 -0.437,0.077 -1.465,0.108 -0.74,-0.419 -0.996,-0.825 -1.875,-0.036 -0.441,-2.573 0.757,0.369 0.086,0.013 0.162,-0.031 0.14,-0.063 0.527,-0.793 -0.031,-0.194 -0.285,-0.721 -0.41,-0.523 -0.054,-0.045 -0.031,-0.067 -0.01,-0.271 0.019,-0.082 0.441,-0.436 0.167,-0.155 0.185,-0.112 1.6,-0.55 1.055,-0.175 2.303,-1.041"
   id="49043"
   inkscape:label="Summit, UT"
   inkscape:connector-curvature="0" />
  <path
   style="fill:#72b3dc;stroke:#c2dffb;stroke-width:1"
   d="m 33.284,22.413 1.875,0.036 0.996,0.825 0.74,0.419 1.465,-0.108 0.437,-0.077 0.148,-0.126 0.735,-0.843 -0.514,3.169 -0.599,4.49 -0.37,2.351 -1.857,-0.301 -1.212,-2.011 -0.063,-0.135 -0.014,-0.108 0.41,-0.879 -0.175,-1.55 -0.109,-0.234 -0.234,-0.383 -0.04,-0.032 -1.118,-0.622 -1.069,-0.636 -0.193,-0.978 0.063,-0.524 0.239,-1.395 0.459,-0.348"
   id="49051"
   inkscape:label="Wasatch, UT"
   inkscape:connector-curvature="0" />
  <path
   style="fill:#72b3dc;stroke:#c2dffb;stroke-width:1"
   d="m 32.825,22.761 -0.239,1.395 -0.063,0.524 0.193,0.978 1.069,0.636 1.118,0.622 0.04,0.032 0.234,0.383 0.109,0.234 0.175,1.55 -0.41,0.879 0.014,0.108 0.063,0.135 1.212,2.011 1.857,0.301 0.153,1.16 -3.786,-0.606 -3.831,-0.626 -1.059,-0.162 0.153,-0.491 0.01,-0.232 -0.284,-0.8 -0.05,-0.073 -0.221,-0.198 -0.969,0.479 -0.658,0.765 -0.027,0.154 -0.085,0.103 -0.596,0.217 -0.261,0.045 -0.262,-0.082 -0.107,-0.058 0.279,-0.892 0.086,-0.207 0.162,-0.19 0.072,-0.081 -0.429,-1.127 -0.355,-0.5 -0.181,-0.095 0.375,-0.951 0.32,-1.266 -0.172,-0.825 -0.036,-0.761 0.153,-1.899 0.032,-0.086 0.235,-0.08 0.162,0.05 0.545,0.438 1.176,0.553 0.374,-0.081 2.736,-0.942 0.974,-0.441"
   id="49049"
   inkscape:label="Utah, UT"
   inkscape:connector-curvature="0" />
  <path
   style="fill:#72b3dc;stroke:#c2dffb;stroke-width:1"
   d="m 10.393,13.17 11.831,2.189 3.088,-0.463 1.519,4.263 0.189,4.075 -0.162,-0.05 -0.235,0.08 -0.032,0.086 -0.153,1.899 0.036,0.761 0.172,0.825 -0.32,1.266 -0.375,0.951 -0.667,0.564 -0.266,0.183 -0.874,0.357 -3.687,-0.64 L 7.666,27.119 8.189,24.427 10.393,13.17"
   id="49045"
   inkscape:label="Tooele, UT"
   inkscape:connector-curvature="0" />
  <path
   style="fill:#72b3dc;stroke:#c2dffb;stroke-width:1"
   d="m 25.951,29.052 0.181,0.095 0.355,0.5 0.429,1.127 -0.072,0.081 -0.162,0.19 -0.086,0.207 -0.279,0.892 0.107,0.058 0.262,0.082 0.261,-0.045 0.596,-0.217 0.085,-0.103 0.027,-0.154 0.658,-0.765 0.969,-0.479 0.221,0.198 0.05,0.073 0.284,0.8 -0.01,0.232 -0.153,0.491 1.059,0.162 -0.162,0.943 -0.834,0.455 -0.261,1.883 -0.19,1.131 -0.495,0.935 -1.713,-0.272 -1.009,0.42 -0.05,0.283 -0.55,-0.099 -1.171,-0.392 0.153,-0.627 0.265,-1.379 0.059,-0.603 -0.022,-0.126 -0.163,-0.177 -2.104,-0.359 -0.667,-0.1 -12.773,-2.335 -2.277,-0.306 0.897,-4.633 12.791,2.397 3.687,0.64 0.874,-0.357 0.266,-0.183 0.667,-0.564"
   id="49023"
   inkscape:label="Juab, UT"
   inkscape:connector-curvature="0" />
  <path
   style="fill:#72b3dc;stroke:#c2dffb;stroke-width:1"
   d="m 6.769,31.752 2.277,0.306 12.773,2.335 0.667,0.1 2.104,0.359 0.163,0.177 0.022,0.126 -0.059,0.603 -0.265,1.379 -0.153,0.627 1.171,0.392 0.55,0.099 -0.572,3.454 -2.632,3.258 -1.529,0.797 -0.166,-0.031 -0.735,-0.095 -0.202,0.063 -0.239,0.343 -0.469,0.874 L 16.64,46.414 16.644,46.387 15.499,46.156 4.362,44.133 4.624,42.798 6.769,31.752"
   id="49027"
   inkscape:label="Millard, UT"
   inkscape:connector-curvature="0" />
  <path
   style="fill:#72b3dc;stroke:#c2dffb;stroke-width:1"
   d="m 32.433,43.043 -0.154,1.049 -0.595,3.571 -0.076,-0.015 -0.325,2.082 -4.574,-0.644 -2.921,-0.496 0.018,-0.108 -0.622,-0.126 -3.881,-0.644 0.172,-0.794 0.469,-0.874 0.239,-0.343 0.202,-0.063 0.735,0.095 0.166,0.031 1.529,-0.797 2.632,-3.258 1.609,0.269 0.131,0.186 5.246,0.879"
   id="49041"
   inkscape:label="Sevier, UT"
   inkscape:connector-curvature="0" />
  <path
   style="fill:#72b3dc;stroke:#c2dffb;stroke-width:1"
   d="m 34.564,33.103 -0.716,4.441 -0.528,-0.085 -0.887,5.584 -5.246,-0.879 -0.131,-0.186 -1.609,-0.269 0.572,-3.454 0.05,-0.283 1.009,-0.42 1.713,0.272 0.495,-0.935 0.19,-1.131 0.261,-1.883 0.834,-0.455 0.162,-0.943 3.831,0.626"
   id="49039"
   inkscape:label="Sanpete, UT"
   inkscape:connector-curvature="0" />
  <path
   style="fill:#72b3dc;stroke:#c2dffb;stroke-width:1"
   d="m 34.564,33.103 3.786,0.606 3.111,0.504 0.126,0.041 0.053,0.052 5.36,0.822 0.806,0.122 0.063,0.174 0.005,0.091 -0.045,0.036 -0.041,-0.008 -0.617,0.355 -0.442,0.384 -0.721,1.395 -0.144,0.408 -0.063,0.581 0.004,0.712 -10.294,-1.596 -0.144,-0.914 -0.825,-2.191 -0.103,-0.13 -0.1,-0.05 0.225,-1.394"
   id="49007"
   inkscape:label="Carbon, UT"
   inkscape:connector-curvature="0" />
  <path
   style="fill:#72b3dc;stroke:#c2dffb;stroke-width:1"
   d="m 48.6,22.125 0.211,0.086 -1.144,7.837 -0.303,2.217 -0.364,2.863 -5.36,-0.822 -0.053,-0.052 -0.126,-0.041 -3.111,-0.504 -0.153,-1.16 0.37,-2.351 0.599,-4.49 0.514,-3.169 0.599,-0.523 4.895,-0.234 1.821,0.117 1.605,0.226"
   id="49013"
   inkscape:label="Duchesne, UT"
   inkscape:connector-curvature="0" />
  <path
   style="fill:#72b3dc;stroke:#c2dffb;stroke-width:1"
   d="m 48.811,22.211 0.969,0.743 0.33,-0.009 3.082,-0.302 1.307,-0.244 1.84,0.253 0.251,0.986 -0.044,0.475 -0.118,0.842 0.311,0.437 0.722,0.104 -0.789,5.543 -1.005,7.239 -0.288,2.096 -0.609,0.382 -8.978,-1.284 0.013,-0.094 -0.004,-0.712 0.063,-0.581 0.144,-0.408 0.721,-1.395 0.442,-0.384 0.617,-0.355 0.041,0.008 0.045,-0.036 L 47.869,35.424 47.806,35.25 47,35.128 l 0.364,-2.863 0.303,-2.217 1.144,-7.837"
   id="49047"
   inkscape:label="Uintah, UT"
   inkscape:connector-curvature="0" />
  <path
   style="fill:#72b3dc;stroke:#c2dffb;stroke-width:1"
   d="m 55.379,40.374 -0.668,4.799 -0.342,2.34 -0.072,0.496 -0.388,2.371 -0.392,2.831 -9.577,-1.375 0.356,-0.28 0.135,-0.473 0,-0.609 -0.023,-0.117 -0.266,0.076 -0.266,0.01 -0.081,-0.023 -0.04,-0.036 -0.028,-0.067 -0.22,-1.546 0.022,-2.573 0.262,-1.547 0.513,-1.383 0.158,-0.311 0.045,-0.063 0.545,-0.947 0.591,-1.193 0.144,-0.561 0.005,-0.721 8.978,1.284 0.609,-0.382"
   id="49019"
   inkscape:label="Grand, UT"
   inkscape:connector-curvature="0" />
  <path
   style="fill:#72b3dc;stroke:#c2dffb;stroke-width:1"
   d="m 34.339,34.497 0.1,0.05 0.103,0.13 0.825,2.191 0.144,0.914 10.294,1.596 -0.013,0.094 -0.005,0.721 -0.144,0.561 -0.591,1.193 -0.545,0.947 -0.045,0.063 -0.158,0.311 -0.513,1.383 -0.262,1.547 -0.022,2.573 0.22,1.546 0.028,0.067 0.04,0.036 0.081,0.023 0.266,-0.01 0.266,-0.076 0.023,0.117 0,0.609 -0.135,0.473 -0.356,0.28 -12.679,-1.974 0.022,-0.132 0.325,-2.082 0.076,0.015 0.595,-3.571 0.154,-1.049 0.887,-5.584 0.528,0.085 0.491,-3.047"
   id="49015"
   inkscape:label="Emery, UT"
   inkscape:connector-curvature="0" />
  <path
   style="fill:#72b3dc;stroke:#c2dffb;stroke-width:1"
   d="m 26.709,49.086 4.574,0.644 -0.022,0.132 12.679,1.974 0.184,0.243 0.009,0.045 0.496,2.831 0.013,0.545 -0.103,0.648 -0.293,0.307 -11.953,-1.842 -2.84,-0.434 -4.254,-0.72 0.18,-1.061 0.352,-2.46 0.319,-0.374 0.659,-0.478"
   id="49055"
   inkscape:label="Wayne, UT"
   inkscape:connector-curvature="0" />
  <path
   style="fill:#72b3dc;stroke:#c2dffb;stroke-width:1"
   d="m 19.303,47.712 3.881,0.644 0.622,0.126 -0.018,0.108 2.921,0.496 -0.659,0.478 -0.319,0.374 -0.352,2.46 -0.18,1.061 -1.087,-0.119 -0.355,-0.053 -0.487,-0.1 -0.239,-0.072 -3.799,-0.666 0.879,-1.204 0.355,-0.342 0.248,-0.609 -0.013,-0.11 -0.456,-0.954 -0.473,-0.364 -0.504,-0.618 -0.01,-0.113 0.045,-0.423"
   id="49031"
   inkscape:label="Piute, UT"
   inkscape:connector-curvature="0" />
  <path
   style="fill:#72b3dc;stroke:#c2dffb;stroke-width:1"
   d="m 4.362,44.133 11.137,2.023 1.145,0.231 -0.004,0.027 2.835,0.504 -0.172,0.794 -0.045,0.423 0.01,0.113 0.504,0.618 0.473,0.364 0.456,0.954 0.013,0.11 -0.248,0.609 -0.355,0.342 -0.879,1.204 L 18.88,52.422 3.326,49.55 4.362,44.133"
   id="49001"
   inkscape:label="Beaver, UT"
   inkscape:connector-curvature="0" />
  <path
   style="fill:#72b3dc;stroke:#c2dffb;stroke-width:1"
   d="m 3.326,49.55 15.554,2.872 -0.262,2.195 -0.207,1.112 -0.324,-0.054 -0.793,-0.031 -1.276,0.783 -0.171,0.989 -0.365,2.383 -2.277,0.167 -1.361,-0.229 -0.401,0.139 L 10.695,59.849 9.64,59.551 7.599,58.263 6.593,57.366 1.965,56.487 3.326,49.55"
   id="49021"
   inkscape:label="Iron, UT"
   inkscape:connector-curvature="0" />
  <path
   style="fill:#72b3dc;stroke:#c2dffb;stroke-width:1"
   d="m 1.965,56.487 4.628,0.879 1.006,0.897 2.041,1.288 1.055,0.298 0.748,0.027 0.401,-0.139 1.361,0.229 -1.131,6.391 L 0.5,64.203 1.965,56.487"
   id="49053"
   inkscape:label="Washington, UT"
   inkscape:connector-curvature="0" />
  <path
   style="fill:#72b3dc;stroke:#c2dffb;stroke-width:1"
   d="m 13.205,59.966 2.277,-0.167 1.838,0.33 1.366,0.32 5.079,0.883 0.086,-0.004 0.05,-0.032 11.971,1.924 -1.109,2.091 -0.172,0.271 -1.978,1.871 -0.717,0.622 -0.342,0.117 -3.448,0.766 -0.744,-0.018 -0.311,-0.027 -11.362,-1.915 -3.615,-0.641 1.131,-6.391"
   id="49025"
   inkscape:label="Kane, UT"
   inkscape:connector-curvature="0" />
  
  
  
  
  
  
  
  
  
  
  
  
  
  
  
  
  
  
  
  
  
  
  
  
  
  
  
  
  
  
  
  
  
  
  
  
  
  
  
  
  
  
  
  
  
  
  
  
  
  
  
  
  
  
  
  
  
  
  
  
  
  
  
  
  
  
  
  
  
  
  
  
  
  
  
  
  
  
  
  
  
  
  
  
  
  
  
  
  
  
  
  
  
  
  
  
  
  
  
  
  
  
  
  
  
  
  
  
  
  
  
  
  
  
  
  
  
  
  
  
  
  
  
  
  
  
  
  
  
  
  
  
  
  
  
  
  
  
  
  
  
  
  
  
  
  
  
  
  
  
  
  
  
  
  
  
  
  
  
  
  
  
  
  
  
  
  
  
  
  
  
  
  
  
  
  
  
  
  
  
  
  
  
  
  
  
  
  
  
  
  
  
  
  
  
  
  
  
  
  
  
  
  
  
  
  
  
  
  
  
  
  
  
  
  
  
  
  
  
  
  
  
  
  
  
  
  
  
  
  
  
  
  
  
  
  
  
  
  
  
  
  
  
  
  
  
  
  
  
  
  
  
  
  
  
  
  
  
  
  
  
  
  
  
  
  
  
  
  
  
  
  
  
  
  
  
  
  
  
  
  
  
  
  
  
  
  
  
  
  
  
  
  
  
  
  
  
  
  
  
  
  
  
  
  
  
  
  
  
  
  
  
  
  
  
  
  
  
  
  
  
  
  
  
  
  
  
  
  
  
  
  
  
  
  
  
  
  
  
  
</svg>