<?xml version="1.0" encoding="UTF-8" standalone="no"?>
<!--?xml version="1.0" encoding="UTF-8" standalone="no"?-->

<svg
   xmlns:dc="http://purl.org/dc/elements/1.1/"
   xmlns:cc="http://creativecommons.org/ns#"
   xmlns:rdf="http://www.w3.org/1999/02/22-rdf-syntax-ns#"
   xmlns:svg="http://www.w3.org/2000/svg"
   xmlns="http://www.w3.org/2000/svg"
   xmlns:sodipodi="http://sodipodi.sourceforge.net/DTD/sodipodi-0.dtd"
   xmlns:inkscape="http://www.inkscape.org/namespaces/inkscape"
   width="89.080154"
   height="49.986492"
   viewBox="0 0 82.343 45.660738"
   preserveAspectRatio="xMinYMin meet"
   xml:space="preserve"
   id="svg3166"
   version="1.1"
   inkscape:version="0.48.2 r9819"
   sodipodi:docname="VA.svg"><metadata
   id="metadata3306"><rdf:RDF><cc:Work
       rdf:about=""><dc:format>image/svg+xml</dc:format><dc:type
         rdf:resource="http://purl.org/dc/dcmitype/StillImage" /></cc:Work></rdf:RDF></metadata><defs
   id="defs3304" /><sodipodi:namedview
   pagecolor="#ffffff"
   bordercolor="#666666"
   borderopacity="1"
   objecttolerance="10"
   gridtolerance="10"
   guidetolerance="10"
   inkscape:pageopacity="0"
   inkscape:pageshadow="2"
   inkscape:window-width="640"
   inkscape:window-height="480"
   id="namedview3302"
   showgrid="false"
   inkscape:zoom="0.56730769"
   inkscape:cx="-156.14853"
   inkscape:cy="-7.2167091"
   inkscape:window-x="0"
   inkscape:window-y="0"
   inkscape:window-maximized="0"
   inkscape:current-layer="svg3166" />
  
  
  
  
  
  
  
  
  
  
  
  
  
  
  
  
  
  
  
  
  
  
  
  
  
  
  
  
  
  
  
  
  
  
  
  
  
  
  
  
  
  
  
  
  
  
  
  
  
  
  
  
  
  
  
  
  
  
  
  
  
  
  
  
  
  
  
  
  
  
  
  
  
  
  
  
  
  
  
  
  
  
  
  
  
  
  
  
  
  
  
  
  
  
  
  
  
  
  
  
  
  
  
  
  
  
  
  
  
  
  
  
  
  
  
  
  
  
  
  
  
  
  
  
  
  
  
  
  
  
  
  
  
  
  
  
  
  
  
  
  
  
  
  
  
  
  
  
  
  
  
  
  
  
  
  
  
  
  
  
  
  
  
  
  
  
  
  
  
  
  
  
  
  
  
  
  
  
  
  
  
  
  
  
  
  
  
  
  
  
  
  
  
  
  
  
  
  
  
  
  
  
  
  
  
  
  
  
  
  
  
  
  
  
  
  
  
  
  
  
  
  
  
  
  
  
  
  
  
  
  
  
  
  
  
  
  
  
  
  
  
  
  
  
  
  
  
  
  
  
  
  
  
  
  
  
  
  
  
  
  
  
  
  
  
  
  
  
  
  
  
  
  
  
  
  
  
  
  
  
  
  
  
  
  
  
  
  
  
  
  
  
  
  
  
  
  
  
  
  
  
  
  
  
  
  
  
  
  
  
  
  
  
  
  
  
  
  
  
  
  
  
  
  
  
  
  
  
  
  
  
  
  
  
  
  
  
  
  
  
  
  
  
  
  
  
  
  
  
  
  
  
  
  
  
  
  
  
  
  
  
  
  
  
  
  
  
  
  
  
  
  
  
  
  
  
  
  
  
  
  
  
  
  
  
  
  
  
  
  
  
  
  
  
  
  
  
  
  
  
  
  
  
  
  
  
  
  
  
  
  
  
  
  
  
  
  
  
  
  
  
  
  
  
  
  
  
  
  
  
  
  
  
  
  
  
  
  
  
  
  
  
  
  
  
  
  
  
  
  
  
  
  
  
  
  
  
  
  
  
  
  
  
  
  
  
  
  
  
  
  
  
  
  
  
  
  
  
  
  
  
  
  
  
  
  
  
  
  
  
  
  
  
  
  
  
  
  
  
  
  
  
  
  
  
  
  
  
  
  
  
  
  
  
  
  
  
  
  
  
  
  
  
  
  
  
  
  
  
  
  
  
  
  
  
  
  
  
  
  
  
  
  
  
  
  
  
  
  
  
  
  
  
  
  
  
  
  
  
  
  
  
  
  
  
  
  
  
  
  
  
  
  
  
  
  
  
  
  
  
  
  
  
  
  
  
  
  
  
  
  
  
  
  
  
  
  
  
  
  
  
  
  
  
  
  
  
  
  
  
  
  
  
  
  
  
  
  
  
  
  
  
  
  
  
  
  
  
  
  
  
  
  
  
  
  
  
  
  
  
  
  
  
  
  
  
  
  
  
  
  
  
  
  
  
  
  
  
  
  
  
  
  
  
  
  
  
  
  
  
  
  
  
  
  
  
  
  
  
  
  
  
  
  
  
  
  
  
  
  
  
  
  
  
  
  
  
  
  
  
  
  
  
  
  
  
  
  
  
  
  
  
  
  
  
  
  
  
  
  
  
  
  
  
  
  
  
  
  
  
  
  
  
  
  
  
  
  
  
  
  
  
  
  
  
  
  
  
  
  
  
  
  
  
  
  
  
  
  
  
  
  
  
  
  
  
  
  
  
  
  
  
  
  
  
  
  
  
  
  
  
  
  
  
  
  
  
  
  
  
  
  
  
  
  
  
  
  
  
  
  
  
  
  
  
  
  
  
  
  
  
  
  
  
  
  
  
  
  
  
  
  
  
  
  
  
  
  
  
  
  
  
  
  
  
  
  
  
  
  
  
  
  
  
  
  
  
  
  
  
  
  
  
  
  
  
  
  
  
  
  
  
  
  
  
  
  
  
  
  
  
  
  
  
  
  
  
  
  
  
  
  
  
  
  
  
  
  
  
  
  
  
  
  
  
  
  
  
  
  
  
  
  
  
  
  
  
  
  
  
  
  
  
  
  
  
  
  
  
  
  
  
  
  
  
  
  
  
  
  
  
  
  
  
  
  
  
  
  
  
  
  
  
  
  
  
  
  
  
  
  
  
  
  
  
  
  
  
  
  
  
  
  
  
  
  
  
  
  
  
  
  
  
  
  
  
  
  
  
  
  
  
  
  
  
  
  
  
  
  
  
  
  
  
  
  
  
  
  
  
  
  
  
  
  
  
  
  
  
  
  
  
  
  
  
  
  
  
  
  
  
  
  
  
  
  
  
  
  
  
  
  
  
  
  
  
  
  
  
  
  
  
  
  
  
  
  
  
  
  
  
  
  
  
  
  
  
  
  
  
  
  
  
  
  
  
  
  
  
  
  
  
  
  
  
  
  
  
  
  
  
  
  
  
  
  
  
  
  
  
  
  
  
  
  
  
  
  
  
  
  
  
  
  
  
  
  
  
  
  
  
  
  
  
  
  
  
  
  
  
  
  
  
  
  
  
  
  
  
  
  
  
  
  
  
  
  
  
  
  
  
  
  
  
  
  
  
  
  
  
  
  
  
  
  
  
  
  
  
  
  
  
  
  
  
  
  
  
  
  
  
  
  
  
  
  
  
  
  
  
  
  
  
  
  
  
  
  
  
  
  
  
  
  
  
  
  
  
  
  
  
  
  
  
  
  
  
  
  
  
  
  
  
  
  
  
  
  
  
  
  
  
  
  
  
  
  
  
  
  
  
  
  
  
  
  
  
  
  
  
  
  
  
  
  
  
  
  
  
  
  
  
  
  
  
  
  
  
  
  
  
  
  
  
  
  
  
  
  
  
  
  
  
  
  
  
  
  
  
  
  
  
  
  
  
  
  
  
  
  
  
  
  
  
  
  
  
  
  
  
  
  
  
  
  
  
  
  
  
  
  
  
  
  
  
  
  
  
  
  
  
  
  
  
  
  
  
  
  
  
  
  
  
  
  
  
  
  
  
  
  
  
  
  
  
  
  
  
  
  
  
  
  
  
  
  
  
  
  
  
  
  
  
  
  
  
  
  
  
  
  
  
  
  
  
  
  
  
  
  
  
  
  
  
  
  
  
  
  
  
  
  
  
  
  
  
  
  
  
  
  
  
  
  
  
  
  
  
  
  
  
  
  
  
  
  
  
  
  
  
  
  
  
  
  
  
  
  
  
  
  
  
  
  
  
  
  
  
  
  
  
  
  
  
  
  
  
  
  
  
  
  
  
  
  
  
  
  
  
  
  
  
  
  
  
  
  
  
  
  
  
  
  
  
  
  
  
  
  
  
  
  
  
  
  
  
  
  
  
  
  
  
  
  
  
  
  
  
  
  
  
  
  
  
  
  
  
  
  
  
  
  
  
  
  
  
  
  
  
  
  
  
  
  
  
  
  
  
  
  
  
  
  
  
  
  
  
  
  
  
  
  
  
  
  
  
  
  
  
  
  
  
  
  
  
  
  
  
  
  
  
  
  
  
  
  
  
  
  
  
  
  
  
  
  
  
  
  
  
  
  
  
  
  
  
  
  
  
  
  
  
  
  
  
  
  
  
  
  
  
  
  
  
  
  
  
  
  
  
  
  
  
  
  
  
  
  
  
  
  
  
  
  
  
  
  
  
  
  
  
  
  
  
  
  
  
  
  
  
  
  
  
  
  
  
  
  
  
  
  
  
  
  
  
  
  
  
  
  
  
  
  
  
  
  
  
  
  
  
  
  
  
  
  
  
  
  
  
  
  
  
  
  
  
  
  
  
  
  
  
  
  
  
  
  
  
  
  
  
  
  
  
  
  
  
  
  
  
  
  
  
  
  
  
  
  
  
  
  
  
  
  
  
  
  
  
  
  
  
  
  
  
  
  
  
  
  
  
  
  
  
  
  
  
  
  
  
  
  
  
  
  
  
  
  
  
  
  
  
  
  
  
  
  
  
  
  
  
  
  
  
  
  
  
  
  
  
  
  
  
  
  
  
  
  
  
  
  
  
  
  
  
  
  
  
  
  
  
  
  
  
  
  
  
  
  
  
  
  
  
  
  
  
  
  
  
  
  
  
  
  
  
  
  
  
  
  
  
  
  
  
  
  
  
  
  
  
  
  
  
  
  
  
  
  
  
  
  
  
  
  
  
  
  
  
  
  
  
  
  
  
  
  
  
  
  
  
  
  
  
  
  
  
  
  
  
  
  
  
  
  
  
  
  
  
  
  
  
  
  
  
  
  
  
  
  
  
  
  
  
  
  
  
  
  
  
  
  
  
  
  
  
  
  
  
  
  
  
  
  
  
  
  
  
  
  
  
  
  
  
  
  
  
  
  
  
  
  
  
  
  
  
  
  
  
  
  
  
  
  
  
  
  
  
  
  
  
  
  
  
  
  
  
  
  
  
  
  
  
  
  
  
  
  
  
  
  
  
  
  
  
  
  
  
  
  
  
  
  
  
  
  
  
  
  
  
  
  
  
  
  
  
  
  
  
  
  
  
  
  
  
  
  
  
  
  
  
  
  
  
  
  
  
  
  
  
  
  
  
  
  
  
  
  
  
  
  
  
  
  
  
  
  
  
  
  
  
  
  
  
  
  
  
  
  
  
  
  
  
  
  
  
  
  
  
  
  
  
  
  
  
  
  
  
  
  
  
  
  
  
  
  
  
  
  
  
  
  
  
  
  
  
  
  
  
  
  
  
  
  
  
  
  
  
  
  
  
  
  
  
  
  
  
  
  
  
  
  
  
  
  
  
  
  
  
  
  
  
  
  
  
  
  
  
  
  
  
  
  
  
  
  
  
  
  
  
  
  
  
  
  
  
  
  
  
  
  
  
  
  
  
  
  
  
  
  
  
  
  
  
  
  
  
  
  
  
  
  
  
  
  
  
  
  
  
  
  
  
  
  
  
  
  
  
  
  
  
  
  
  
  
  
  
  
  
  
  
  
  
  
  
  
  
  
  
  
  
  
  
  
  
  
  
  
  
  
  
  
  
  
  
  
  
  
  
  
  
  
  
  
  
  
  
  
  
  
  
  
  
  
  
  
  
  
  
  
  
  
  
  
  
  
  
  
  
  
  
  
  
  
  
  
  
  
  
  
  
  
  
  
  
  
  
  
  
  
  
  
  
  
  
  
  
  
  
  
  
  
  
  
  
  
  
  
  
  
  
  
  
  
  
  
  
  
  
  
  
  
  
  
  
  
  
  
  
  
  
  
  
  
  
  
  
  
  
  
  
  
  
  
  
  
  
  
  
  
  
  
  
  
  
  
  
  
  
  
  
  
  
  
  
  
  
  
  
  
  
  
  
  
  
  
  
  
  
  
  
  
  
  
  
  
  
  
  
  
  
  
  
  
  
  
  
  
  
  
  
  
  
  
  
  
  
  
  
  
  
  
  
  
  
  
  
  
  
  
  
  
  
  
  
  
  
  
  
  
  
  
  
  
  
  
  
  
  
  
  
  
  
  
  
  
  
  
  
  
  
  
  
  
  
  
  
  
  
  
  
  
  
  
  
  
  
  
  
  
  
  
  
  
  
  
  
  
  
  
  
  
  
  
  
  
  
  
  
  
  
  
  
  
  
  
  
  
  
  
  
  
  
  
  
  
  
  
  
  
  
  
  
  
  
  
  
  
  
  
  
  
  
  
  
  
  
  
  
  
  
  
  
  
  
  
  
  
  
  
  
  
  
  
  
  
  
  
  
  
  
  
  
  
  
  
  
  
  
  
  
  
  
  
  
  
  
  
  
  
  
  
  
  
  
  
  
  
  
  
  
  
  
  
  
  
  
  
  
  
  
  
  
  
  
  
  
  
  
  
  
  
  
  
  
  
  
  
  
  
  
  
  
  
  
  
  
  
  
  
  
  
  
  
  
  
  
  
  
  
  
  
  
  
  
  
  
  
  
  
  
  
  
  
  
  
  
  
  
  
  
  
  
  
  
  
  
  
  
  
  
  
  
  
  
  
  
  
  
  
  
  
  
  
  
  
  
  
  
  
  
  
  
  
  
  
  
  
  
  
  
  
  
  
  
  
  
  
  
  
  
  
  
  
  
  
  
  
  
  
  
  
  
  
  
  
  
  
  
  
  
  
  
  
  
  
  
  
  
  
  
  
  
  
  
  
  
  
  
  
  
  
  
  
  
  
  
  
  
  
  
  
  
  
  
  
  
  
  
  
  
  
  
  
  
  
  
  
  
  
  
  
  
  
  
  
  
  
  
  
  
  
  
  
  
  
  
  
  
  
  
  
  
  
  
  
  
  
  
  
  
  
  
  
  
  
  
  <path
   style="fill:#72b3dc;stroke:#c2dffb;stroke-width:1"
   d="m 78.171,13.845 3.672,-1.249 -0.347,0.984 -0.789,1.297 -0.279,0.055 -0.082,0.058 -0.026,0.032 -0.032,0.035 -0.063,0.077 -0.04,0.064 -0.041,0.063 -0.037,0.058 -0.139,0.289 -0.18,0.476 -0.298,1.362 -0.035,0.248 -0.258,2.872 0.041,0.112 -0.514,0.23 -0.883,0.068 -0.068,-0.046 -0.041,-0.095 0.014,-0.031 0.059,-0.041 0.081,-0.135 -0.053,-0.523 -0.569,-0.23 -0.975,0.29 -0.058,-0.109 -0.012,-0.068 0.062,-0.495 0.091,-0.321 0.672,-2.001 0.468,-0.689 0.162,-0.217 0.047,-0.094 0.17,-0.506 0.008,-0.157 -0.058,-1.018 0.33,-0.645"
   id="51001"
   inkscape:label="Accomack, VA"
   inkscape:connector-curvature="0" />
  <path
   style="fill:#72b3dc;stroke:#c2dffb;stroke-width:1"
   d="m 76.289,20.165 0.975,-0.29 0.569,0.23 0.053,0.523 -0.081,0.135 -0.059,0.041 -0.014,0.031 0.041,0.095 0.068,0.046 0.883,-0.068 0.514,-0.23 0.049,0.094 0.005,0.212 -0.677,3.362 -0.102,0.19 -0.113,0.199 -0.003,0.013 -0.443,0.685 -0.015,0.027 -0.073,0.098 -0.08,0.072 -0.057,0 -0.614,-0.053 -0.64,-0.879 -0.266,-0.635 -0.062,-0.406 -0.032,-0.378 0.004,-0.185 0.049,-1.371 0.045,-0.888 0.032,-0.293 0.044,-0.377"
   id="51131"
   inkscape:label="Northampton, VA"
   inkscape:connector-curvature="0" />
  <path
   style="fill:#72b3dc;stroke:#c2dffb;stroke-width:1"
   d="m 16.09,31.233 0.455,0.271 -0.141,0.063 -0.455,0.41 -0.027,0.086 0.072,0.193 0.87,1.235 0.848,0.739 0.004,0 0.117,0.06 1.146,0.414 -0.2,0.554 -1,0.645 -0.257,0.31 -0.91,0.398 -0.112,0.085 -0.068,0.212 -0.018,0.176 0.004,0.292 -0.09,0.154 -0.383,0.275 -0.654,0.09 -0.076,-0.014 -2.087,-3.088 2.962,-3.56"
   id="51027"
   inkscape:label="Buchanan, VA"
   inkscape:connector-curvature="0" />
  <path
   style="fill:#72b3dc;stroke:#c2dffb;stroke-width:1"
   d="m 22.574,32.878 1.582,1.105 -0.265,0.855 -1.131,1.695 -0.293,0.672 -0.767,0.225 -0.603,0.257 -1.2,0.532 -0.797,0.176 -1.578,-2.182 0.257,-0.31 1,-0.645 0.2,-0.554 0.675,0.401 1.181,-0.234 0.032,-0.018 0.442,-0.406 0.008,-0.009 0.883,-0.808 0.374,-0.752"
   id="51185"
   inkscape:label="Tazewell, VA"
   inkscape:connector-curvature="0" />
  <path
   style="fill:#72b3dc;stroke:#c2dffb;stroke-width:1"
   d="m 23.165,37.855 1.573,2.244 -3.244,2.136 -0.127,0.082 -1.118,-1.875 -1.663,-1.582 0.514,-0.465 0.797,-0.176 1.2,-0.532 0.603,-0.257 0.767,-0.225 0.698,0.65"
   id="51173"
   inkscape:label="Smyth, VA"
   inkscape:connector-curvature="0" />
  <path
   style="fill:#72b3dc;stroke:#c2dffb;stroke-width:1"
   d="m 16.085,43.623 -0.992,0.135 0.509,-1.022 0.337,-0.203 0.263,-0.018 0.171,0.081 0.081,0.252 -0.022,0.279 -0.347,0.496"
   id="51520"
   inkscape:label="Bristol, VA"
   inkscape:connector-curvature="0" />
  <path
   style="fill:#72b3dc;stroke:#c2dffb;stroke-width:1"
   d="m 18.586,38.86 1.663,1.582 1.118,1.875 0.127,-0.082 -0.366,0.41 -1.834,0.248 -0.979,0.117 -0.072,0.302 -2.158,0.311 0.347,-0.496 0.022,-0.279 -0.081,-0.252 -0.171,-0.081 -0.263,0.018 -0.337,0.203 -0.509,1.022 -0.513,0.077 -0.601,-1.41 1.988,-1.826 1.497,-0.735 1.122,-1.004"
   id="51191"
   inkscape:label="Washington, VA"
   inkscape:connector-curvature="0" />
  <path
   style="fill:#72b3dc;stroke:#c2dffb;stroke-width:1"
   d="m 17.522,36.213 1.578,2.182 -0.514,0.465 -1.122,1.004 -1.497,0.735 -1.988,1.826 -1.067,-2.038 0.622,-1.329 1.681,-1.177 0.076,0.014 0.654,-0.09 0.383,-0.275 0.09,-0.154 -0.004,-0.292 0.018,-0.176 0.068,-0.212 0.112,-0.085 0.91,-0.398"
   id="51167"
   inkscape:label="Russell, VA"
   inkscape:connector-curvature="0" />
  <path
   style="fill:#72b3dc;stroke:#c2dffb;stroke-width:1"
   d="m 10.644,39.315 0.014,-0.09 0.199,0.099 0.094,0.093 0.019,0.271 -0.231,0.497 -0.356,0.104 -0.306,-0.267 0.037,-0.226 0.174,-0.319 0.231,-0.145 0.125,-0.017"
   id="51720"
   inkscape:label="Norton, VA"
   inkscape:connector-curvature="0" />
  <path
   style="fill:#72b3dc;stroke:#c2dffb;stroke-width:1"
   d="m 10.83,36.425 0.211,0.964 0.784,1.001 0.203,0.213 1.186,0.698 0.153,-0.072 0.167,-0.171 -0.622,1.329 -1.433,0.127 -0.712,0.121 -0.168,0.055 -1.077,0.766 -0.171,0.301 0,0.14 -1.343,-1.128 0.041,-0.977 2.668,-3.29 0.113,-0.077 z m -0.186,2.89 -0.125,0.017 -0.231,0.145 -0.174,0.319 -0.037,0.226 0.306,0.267 0.356,-0.104 0.231,-0.497 -0.019,-0.271 -0.094,-0.093 -0.199,-0.099 -0.014,0.09"
   id="51195"
   inkscape:label="Wise, VA"
   inkscape:connector-curvature="0" />
  <path
   style="fill:#72b3dc;stroke:#c2dffb;stroke-width:1"
   d="m 13.128,34.793 2.087,3.088 -1.681,1.177 -0.167,0.171 -0.153,0.072 -1.186,-0.698 -0.203,-0.213 -0.784,-1.001 -0.211,-0.964 0.396,-0.284 1.523,-0.859 0.379,-0.489"
   id="51051"
   inkscape:label="Dickenson, VA"
   inkscape:connector-curvature="0" />
  <path
   style="fill:#72b3dc;stroke:#c2dffb;stroke-width:1"
   d="m 9.351,41.897 0,-0.14 0.171,-0.301 1.077,-0.766 0.168,-0.055 0.712,-0.121 1.433,-0.127 1.067,2.038 0.601,1.41 -3.205,0.478 -2.254,0.32 -1.573,0.216 0.234,-1.104 0.402,-0.365 1.167,-1.483"
   id="51169"
   inkscape:label="Scott, VA"
   inkscape:connector-curvature="0" />
  <path
   style="fill:#72b3dc;stroke:#c2dffb;stroke-width:1"
   d="M 9.351,41.897 8.184,43.38 7.782,43.745 7.548,44.849 2.577,45.476 0.5,45.706 2.577,44.592 3.613,44.038 5.754,42.826 7.796,41.14 8.008,40.769 9.351,41.897"
   id="51105"
   inkscape:label="Lee, VA"
   inkscape:connector-curvature="0" />
  <path
   style="fill:#72b3dc;stroke:#c2dffb;stroke-width:1"
   d="m 24.156,33.983 2.354,-1.136 1.559,1.668 -0.432,1.045 -1.181,0.56 -0.852,0.324 -1.064,-0.059 -0.566,0.469 -0.809,1.001 -0.698,-0.65 0.293,-0.672 1.131,-1.695 0.265,-0.855"
   id="51021"
   inkscape:label="Bland, VA"
   inkscape:connector-curvature="0" />
  <path
   style="fill:#72b3dc;stroke:#c2dffb;stroke-width:1"
   d="m 26.87,39.193 1.222,1.375 -0.069,0.09 -0.036,0.22 0.015,0.14 0.062,0.117 0.271,0.329 0.203,-0.049 0.095,-0.113 -0.014,-0.167 0.834,0.902 -0.654,0.068 -4.615,0.559 -3.322,0.334 0.266,-0.353 0.366,-0.41 3.244,-2.136 2.132,-0.906"
   id="51077"
   inkscape:label="Grayson, VA"
   inkscape:connector-curvature="0" />
  <path
   style="fill:#72b3dc;stroke:#c2dffb;stroke-width:1"
   d="m 28.092,40.568 0.004,-0.005 0.091,-0.081 0.108,-0.149 0.328,-0.085 0.312,0.053 -0.131,0.375 -0.195,0.342 0.01,0.117 0.014,0.167 -0.095,0.113 -0.203,0.049 -0.271,-0.329 -0.062,-0.117 -0.015,-0.14 0.036,-0.22 0.069,-0.09"
   id="51640"
   inkscape:label="Galax, VA"
   inkscape:connector-curvature="0" />
  <path
   style="fill:#72b3dc;stroke:#c2dffb;stroke-width:1"
   d="m 29.777,37.773 -2.907,1.42 -2.132,0.906 -1.573,-2.244 0.809,-1.001 0.566,-0.469 1.064,0.059 0.852,-0.324 1.181,-0.56 2.14,2.213"
   id="51197"
   inkscape:label="Wythe, VA"
   inkscape:connector-curvature="0" />
  <path
   style="fill:#72b3dc;stroke:#c2dffb;stroke-width:1"
   d="m 27.451,30.917 1.001,0.573 1.253,-0.941 0.104,-0.082 1.014,-0.802 0.483,0.694 0.653,1.316 -1.6,1.186 -2.29,1.654 -1.559,-1.668 0.929,-1.948 0.012,0.018"
   id="51071"
   inkscape:label="Giles, VA"
   inkscape:connector-curvature="0" />
  <path
   style="fill:#72b3dc;stroke:#c2dffb;stroke-width:1"
   d="m 31.003,34.916 -0.059,0.049 -0.21,-0.229 -0.087,-0.163 -0.041,-0.148 0.037,-0.145 0.204,-0.216 0.215,-0.145 0.099,-0.017 0.09,-0.014 0.08,-0.026 0.087,-0.069 0.211,0.054 0.091,0.244 -0.081,0.154 -0.384,0.476 -0.252,0.195"
   id="51750"
   inkscape:label="Radford, VA"
   inkscape:connector-curvature="0" />
  <path
   style="fill:#72b3dc;stroke:#c2dffb;stroke-width:1"
   d="m 30.359,32.861 0.802,1.041 -0.099,0.017 -0.215,0.145 -0.204,0.216 -0.037,0.145 0.041,0.148 0.087,0.163 0.21,0.229 0.059,-0.049 0.536,1.18 -0.797,0.825 -0.965,0.852 -2.14,-2.213 0.432,-1.045 2.29,-1.654"
   id="51155"
   inkscape:label="Pulaski, VA"
   inkscape:connector-curvature="0" />
  <path
   style="fill:#72b3dc;stroke:#c2dffb;stroke-width:1"
   d="m 60.723,5.944 -0.604,0.293 -0.343,-0.447 0.343,-0.279 0.072,0.05 0.532,0.383"
   id="51610"
   inkscape:label="Falls Church, VA"
   inkscape:connector-curvature="0" />
  <path
   style="fill:#72b3dc;stroke:#c2dffb;stroke-width:1"
   d="m 60.988,4.957 0.375,0.306 0.451,0.198 0.265,0.515 L 61.314,6.092 61.21,6.296 60.723,5.944 60.191,5.561 60.119,5.511 60.096,5.494 60.988,4.957"
   id="51013"
   inkscape:label="Arlington, VA"
   inkscape:connector-curvature="0" />
  <path
   style="fill:#72b3dc;stroke:#c2dffb;stroke-width:1"
   d="m 30.742,36.921 2.186,2.578 -0.321,0.798 -0.162,0.13 -0.144,0.069 -0.081,-0.014 -0.347,-0.193 -0.117,0.008 -0.055,0.028 -0.138,0.517 -0.046,0.236 0.231,0.598 -2.295,0.361 -0.834,-0.902 -0.01,-0.117 0.195,-0.342 0.131,-0.375 -0.312,-0.053 -0.328,0.085 -0.108,0.149 -0.091,0.081 -0.004,0.005 -1.222,-1.375 2.907,-1.42 0.965,-0.852"
   id="51035"
   inkscape:label="Carroll, VA"
   inkscape:connector-curvature="0" />
  <path
   style="fill:#72b3dc;stroke:#c2dffb;stroke-width:1"
   d="m 40.883,40.355 -3.169,0.533 -0.266,0.045 -0.113,-0.861 -0.185,-0.568 -0.076,-0.135 -0.153,-0.166 -0.266,-0.492 -0.134,-0.699 0,-0.045 0.112,-0.131 0.391,-0.149 0.667,-0.513 1.759,0.126 0.527,-0.185 0.96,-0.914 -0.054,4.154 z m -2.11,-1.996 -0.045,0.044 -0.211,0.487 0.193,0.186 0.641,0.329 0.22,-0.122 0.049,-0.23 -0.247,-0.663 -0.526,-0.103 -0.074,0.072"
   id="51089"
   inkscape:label="Henry, VA"
   inkscape:connector-curvature="0" />
  <path
   style="fill:#72b3dc;stroke:#c2dffb;stroke-width:1"
   d="m 34.897,37.021 2.127,0.666 -0.391,0.149 -0.112,0.131 0,0.045 0.134,0.699 0.266,0.492 0.153,0.166 0.076,0.135 0.185,0.568 0.113,0.861 -3.938,0.554 -1.762,0.189 -0.231,-0.598 0.046,-0.236 0.138,-0.517 0.055,-0.028 0.117,-0.008 0.347,0.193 0.081,0.014 0.144,-0.069 0.162,-0.13 0.321,-0.798 1.969,-2.478"
   id="51141"
   inkscape:label="Patrick, VA"
   inkscape:connector-curvature="0" />
  <path
   style="fill:#72b3dc;stroke:#c2dffb;stroke-width:1"
   d="m 35.439,33.622 -0.542,3.399 -1.969,2.478 -2.186,-2.578 0.797,-0.825 0.708,-0.224 0.757,-0.348 0.455,-0.27 0.027,-0.078 0.479,-0.724 0.991,-0.623 0.483,-0.207"
   id="51063"
   inkscape:label="Floyd, VA"
   inkscape:connector-curvature="0" />
  <path
   style="fill:#72b3dc;stroke:#c2dffb;stroke-width:1"
   d="m 33.621,31.058 0.353,0.657 0.594,0.61 0.361,1.288 0.027,0.216 -0.991,0.623 -0.479,0.724 -0.027,0.078 -0.455,0.27 -0.757,0.348 -0.708,0.224 -0.536,-1.18 0.252,-0.195 0.384,-0.476 0.081,-0.154 -0.091,-0.244 -0.211,-0.054 -0.087,0.069 -0.08,0.026 -0.09,0.014 -0.802,-1.041 1.6,-1.186 1.662,-0.617"
   id="51121"
   inkscape:label="Montgomery, VA"
   inkscape:connector-curvature="0" />
  <path
   style="fill:#72b3dc;stroke:#c2dffb;stroke-width:1"
   d="m 36.128,31.017 -0.027,0.059 -0.009,0.594 0.085,0.149 -0.666,-0.019 -0.06,-0.657 0.677,-0.126"
   id="51775"
   inkscape:label="Salem, VA"
   inkscape:connector-curvature="0" />
  <path
   style="fill:#72b3dc;stroke:#c2dffb;stroke-width:1"
   d="m 38.039,31.828 2.952,1.907 -0.054,2.466 -0.96,0.914 -0.527,0.185 -1.759,-0.126 -0.667,0.513 -2.127,-0.666 0.542,-3.399 0.784,-0.725 0.621,0.229 0.225,0.037 0.081,-0.045 0.353,-0.402 0.536,-0.888"
   id="51067"
   inkscape:label="Franklin Co., VA"
   inkscape:connector-curvature="0" />
  <path
   style="fill:#72b3dc;stroke:#c2dffb;stroke-width:1"
   d="m 35.334,29.693 2.516,1.067 0.189,1.068 -0.536,0.888 -0.353,0.402 -0.081,0.045 -0.225,-0.037 -0.621,-0.229 -0.784,0.725 -0.483,0.207 -0.027,-0.216 -0.361,-1.288 -0.594,-0.61 -0.353,-0.657 0.096,-0.163 0.446,-0.428 0.631,-0.265 0.54,-0.509 z m 0.794,1.324 -0.677,0.126 0.06,0.657 0.666,0.019 0.032,0.059 0.743,0.306 0.092,0.005 0.179,-0.172 0.192,-0.329 0.178,-0.648 -0.05,-0.153 -0.045,-0.042 -0.248,-0.135 -0.663,-0.103 -0.437,0.365 -0.022,0.045"
   id="51161"
   inkscape:label="Roanoke Co., VA"
   inkscape:connector-curvature="0" />
  <path
   style="fill:#72b3dc;stroke:#c2dffb;stroke-width:1"
   d="m 41.274,26.1 2.858,1.486 -0.766,0.232 0.302,1.311 -1.186,4.163 -1.491,0.443 -2.952,-1.907 -0.189,-1.068 0.504,-0.639 -0.149,-0.741 0.857,-1.036 0.103,-0.103 0.177,-0.055 0.076,0.023 0.145,0.109 0.185,0.188 0.342,0.023 0.049,-0.018 0.05,-0.041 0.513,-0.839 0.15,-0.346 0.422,-1.185 z m -0.527,3.569 -0.153,0 -0.013,0.244 0.226,0.244 0.152,0.062 0.424,-0.058 0.136,-0.55 -0.281,-0.181 -0.464,0.095 -0.027,0.144"
   id="51019"
   inkscape:label="Bedford Co., VA"
   inkscape:connector-curvature="0" />
  <path
   style="fill:#72b3dc;stroke:#c2dffb;stroke-width:1"
   d="m 34.379,22.873 0.509,-0.194 0.672,-0.036 0.023,0.009 0.509,0.639 0.081,0.054 2.046,0.289 0.356,-0.419 0.009,1.429 -1.507,-0.238 -0.242,0.288 0.027,0.058 -0.049,0.185 -0.122,0.226 -0.347,0.531 -0.78,0.852 -0.185,0.172 -0.206,-0.054 -0.92,0.918 -0.653,-0.153 -0.181,-0.121 -0.889,-0.695 1.849,-3.74 z m 0.767,1.712 -0.017,0.69 0.138,0.131 0.18,0.117 0.333,-0.267 -0.076,-0.621 -0.049,-0.108 -0.361,-0.076 -0.148,0.134"
   id="51005"
   inkscape:label="Alleghany, VA"
   inkscape:connector-curvature="0" />
  <path
   style="fill:#72b3dc;stroke:#c2dffb;stroke-width:1"
   d="m 35.379,26.718 -0.094,0.135 0.076,0.176 0.758,0.923 -0.568,1.433 -0.217,0.308 -0.54,0.509 -0.631,0.265 -0.446,0.428 -0.096,0.163 -1.662,0.617 -0.653,-1.316 0.293,-0.248 1.153,-1.019 -0.23,-0.427 0.316,-0.654 0.581,-0.703 0.181,0.121 0.653,0.153 0.92,-0.918 0.206,0.054"
   id="51045"
   inkscape:label="Craig, VA"
   inkscape:connector-curvature="0" />
  <path
   style="fill:#72b3dc;stroke:#c2dffb;stroke-width:1"
   d="m 38.584,24.644 2.268,2.641 -0.15,0.346 -0.513,0.839 -0.05,0.041 -0.049,0.018 -0.342,-0.023 -0.185,-0.188 -0.145,-0.109 -0.076,-0.023 -0.177,0.055 -0.103,0.103 -0.857,1.036 0.149,0.741 -0.504,0.639 -2.516,-1.067 0.217,-0.308 0.568,-1.433 -0.758,-0.923 -0.076,-0.176 0.094,-0.135 0.185,-0.172 0.78,-0.852 0.347,-0.531 0.122,-0.226 0.049,-0.185 -0.027,-0.058 0.242,-0.288 1.507,0.238"
   id="51023"
   inkscape:label="Botetourt, VA"
   inkscape:connector-curvature="0" />
  <path
   style="fill:#72b3dc;stroke:#c2dffb;stroke-width:1"
   d="m 43.496,23.251 0.33,-0.193 0.688,0.292 0.043,0.037 1.036,0.938 0.265,0.292 0.942,1.432 0.321,-0.008 -1.235,1.708 -0.587,0.569 -1.167,-0.732 -2.858,-1.486 0.118,0 0.22,-0.181 0.317,-0.316 0.166,-0.225 0.213,-1 0.133,-0.446 0.096,-0.212 0.221,-0.365 0.098,-0.108 0.64,0.004"
   id="51009"
   inkscape:label="Amherst, VA"
   inkscape:connector-curvature="0" />
  <path
   style="fill:#72b3dc;stroke:#c2dffb;stroke-width:1"
   d="m 39.77,20.173 1.631,0.848 1.721,0.829 0.32,0.248 0.054,1.153 -0.64,-0.004 -0.098,0.108 -0.221,0.365 -0.096,0.212 -0.133,0.446 -0.213,1 -0.166,0.225 -0.317,0.316 -0.22,0.181 -0.118,0 -0.422,1.185 -2.268,-2.641 -0.009,-1.429 1.195,-3.042 z m 1.199,3.633 0.035,-0.262 -0.378,-0.086 -0.266,0.078 -0.153,0.219 0.108,0.353 0.18,0.153 0.162,-0.108 0.312,-0.347 z m 0.333,0.306 -0.162,0.081 -0.023,0.113 0.09,0.514 0.158,0.193 0.154,0.023 0.157,-0.171 0.05,-0.095 0.163,-0.55 -0.028,-0.383 -0.33,0.023 -0.229,0.234 0,0.018"
   id="51163"
   inkscape:label="Rockbridge, VA"
   inkscape:connector-curvature="0" />
  <path
   style="fill:#72b3dc;stroke:#c2dffb;stroke-width:1"
   d="m 36.276,18.424 0.496,0.231 0.469,0.176 1.487,0.04 0.533,0.148 0.509,1.154 -1.195,3.042 -0.356,0.419 -2.046,-0.289 -0.081,-0.054 -0.509,-0.639 -0.023,-0.009 -0.672,0.036 -0.509,0.194 0.698,-1.591 1.199,-2.858"
   id="51017"
   inkscape:label="Bath, VA"
   inkscape:connector-curvature="0" />
  <path
   style="fill:#72b3dc;stroke:#c2dffb;stroke-width:1"
   d="m 40.716,15.707 -0.086,0.126 -0.519,1.545 -0.045,0.186 0.037,0.135 -0.176,0.554 -0.666,0.766 -0.533,-0.148 -1.487,-0.04 -0.469,-0.176 -0.496,-0.231 -0.243,-0.491 0,-0.014 0.005,-0.045 0.617,-0.959 0.266,-0.947 0.05,-0.911 0.017,-1.068 0.997,0.239 0.203,0.09 0.189,0.189 0.612,0.907 1.727,0.293"
   id="51091"
   inkscape:label="Highland, VA"
   inkscape:connector-curvature="0" />
  <path
   style="fill:#72b3dc;stroke:#c2dffb;stroke-width:1"
   d="m 48.852,14.098 0.198,-0.749 2.127,2.299 -0.612,1.262 -3.125,-0.649 1.412,-2.163"
   id="51079"
   inkscape:label="Greene, VA"
   inkscape:connector-curvature="0" />
  <path
   style="fill:#72b3dc;stroke:#c2dffb;stroke-width:1"
   d="m 42.429,10.785 1.843,-0.356 2.608,1.613 -0.265,1.285 0.795,0.409 0.752,0.304 0.157,0.048 0.533,0.01 -1.412,2.163 -0.685,1.068 -1.731,-0.992 -1.532,-0.644 -2.077,-0.995 1.014,-3.913 z m 2.474,3.168 -0.05,0.045 -0.239,0.469 -0.045,0.216 0.086,0.564 0.04,0.036 0.248,-0.073 0.541,-0.477 -0.004,-0.198 -0.149,-0.236 -0.428,-0.346"
   id="51165"
   inkscape:label="Rockingham, VA"
   inkscape:connector-curvature="0" />
  <path
   style="fill:#72b3dc;stroke:#c2dffb;stroke-width:1"
   d="m 40.716,15.707 0.699,-1.009 2.077,0.995 1.532,0.644 1.731,0.992 -0.063,0.361 -0.058,0.653 0.117,0.495 0,0.118 -0.136,0.239 -0.379,0.329 -0.769,1.578 -0.338,0.55 -0.776,-0.038 -0.17,0.042 -0.132,0.072 -0.609,0.37 -0.32,-0.248 -1.721,-0.829 -1.631,-0.848 -0.509,-1.154 0.666,-0.766 0.176,-0.554 -0.037,-0.135 0.045,-0.186 0.519,-1.545 0.086,-0.126 z m 3.218,2.285 -0.564,0.229 -0.067,0.212 -0.028,0.226 0.1,0.175 0.238,0.117 0.366,0.009 0.189,-0.197 0.068,-0.177 0.013,-0.265 -0.094,-0.199 -0.091,-0.13 -0.113,-0.033 -0.017,0.033 z m 1.442,0.932 -0.099,-0.014 -0.229,0.226 -0.159,0.243 0,0.06 0.063,0.153 0.343,0.148 0.437,-0.12 0.054,-0.136 0.04,-0.284 -0.004,-0.073 -0.143,-0.243 -0.264,0.013 -0.039,0.027"
   id="51015"
   inkscape:label="Augusta, VA"
   inkscape:connector-curvature="0" />
  <path
   style="fill:#72b3dc;stroke:#c2dffb;stroke-width:1"
   d="m 46.236,19.524 2.683,3.664 -1.384,2.641 -0.414,0.212 -0.321,0.008 -0.942,-1.432 -0.265,-0.292 -1.036,-0.938 -0.043,-0.037 -0.688,-0.292 -0.33,0.193 -0.054,-1.153 0.609,-0.37 0.132,-0.072 0.17,-0.042 0.776,0.038 0.338,-0.55 0.769,-1.578"
   id="51125"
   inkscape:label="Nelson, VA"
   inkscape:connector-curvature="0" />
  <path
   style="fill:#72b3dc;stroke:#c2dffb;stroke-width:1"
   d="m 53.044,22.981 0.04,0.721 -0.668,1.907 -0.779,2.275 -1.434,-0.504 -2.668,-1.551 1.384,-2.641 0.032,-0.085 0.23,-0.267 0.467,-0.135 0.537,-0.073 0.063,-0.04 0.05,-0.045 0.014,-0.048 -0.028,-0.402 2.76,0.888"
   id="51029"
   inkscape:label="Buckingham, VA"
   inkscape:connector-curvature="0" />
  <path
   style="fill:#72b3dc;stroke:#c2dffb;stroke-width:1"
   d="m 50.203,27.38 -0.518,2.069 -1.329,0.82 -2.47,-2.52 1.235,-1.708 0.414,-0.212 2.668,1.551"
   id="51011"
   inkscape:label="Appomattox, VA"
   inkscape:connector-curvature="0" />
  <path
   style="fill:#72b3dc;stroke:#c2dffb;stroke-width:1"
   d="m 45.299,28.318 0.587,-0.569 2.47,2.52 -0.378,2.487 -1.98,-0.161 -0.284,-0.231 -1.505,-0.392 -0.87,0.19 -0.243,0.302 -0.614,0.828 1.186,-4.163 0.622,0.36 1.009,-1.171"
   id="51031"
   inkscape:label="Campbell, VA"
   inkscape:connector-curvature="0" />
  <path
   style="fill:#72b3dc;stroke:#c2dffb;stroke-width:1"
   d="m 45.998,32.595 1.98,0.161 1.865,0.582 0.896,1.38 0.041,1.239 0.011,0.027 0.327,0.365 0.199,0.081 -0.501,2.15 -0.626,0.122 -3.462,0.626 -0.815,0.144 0.085,-6.877"
   id="51083"
   inkscape:label="Halifax, VA"
   inkscape:connector-curvature="0" />
  <path
   style="fill:#72b3dc;stroke:#c2dffb;stroke-width:1"
   d="m 42.482,33.292 0.614,-0.828 0.243,-0.302 0.87,-0.19 1.505,0.392 0.284,0.231 -0.085,6.877 -1.258,0.231 0.302,-0.42 0.031,-0.068 -0.036,-0.108 -0.567,-0.595 -1.299,0.203 -0.266,0.334 -0.085,0.139 -0.004,0.041 0.355,0.216 0.28,0.487 -0.41,0.076 -2.073,0.347 0.054,-4.154 0.054,-2.466 1.491,-0.443"
   id="51143"
   inkscape:label="Pittsylvania, VA"
   inkscape:connector-curvature="0" />
  <path
   style="fill:#72b3dc;stroke:#c2dffb;stroke-width:1"
   d="m 38.773,38.359 0.074,-0.072 0.526,0.103 0.247,0.663 -0.049,0.23 -0.22,0.122 -0.641,-0.329 -0.193,-0.186 0.211,-0.487 0.045,-0.044"
   id="51690"
   inkscape:label="Martinsville, VA"
   inkscape:connector-curvature="0" />
  <path
   style="fill:#72b3dc;stroke:#c2dffb;stroke-width:1"
   d="m 44.655,39.703 -1.289,0.229 -0.28,-0.487 -0.355,-0.216 0.004,-0.041 0.085,-0.139 0.266,-0.334 1.299,-0.203 0.567,0.595 0.036,0.108 -0.031,0.068 -0.302,0.42"
   id="51590"
   inkscape:label="Danville, VA"
   inkscape:connector-curvature="0" />
  <path
   style="fill:#72b3dc;stroke:#c2dffb;stroke-width:1"
   d="m 45.299,28.318 -1.009,1.171 -0.622,-0.36 -0.302,-1.311 0.766,-0.232 1.167,0.732"
   id="51680"
   inkscape:label="Lynchburg, VA"
   inkscape:connector-curvature="0" />
  <path
   style="fill:#72b3dc;stroke:#c2dffb;stroke-width:1"
   d="m 40.747,29.669 0.027,-0.144 0.464,-0.095 0.281,0.181 -0.136,0.55 -0.424,0.058 -0.152,-0.062 -0.226,-0.244 0.013,-0.244 0.153,0"
   id="51515"
   inkscape:label="Bedford, VA"
   inkscape:connector-curvature="0" />
  <path
   style="fill:#72b3dc;stroke:#c2dffb;stroke-width:1"
   d="m 36.128,31.017 0.022,-0.045 0.437,-0.365 0.663,0.103 0.248,0.135 0.045,0.042 0.05,0.153 -0.178,0.648 -0.192,0.329 -0.179,0.172 -0.092,-0.005 -0.743,-0.306 -0.032,-0.059 -0.085,-0.149 0.009,-0.594 0.027,-0.059"
   id="51770"
   inkscape:label="Roanoke, VA"
   inkscape:connector-curvature="0" />
  <path
   style="fill:#72b3dc;stroke:#c2dffb;stroke-width:1"
   d="m 41.302,24.112 0,-0.018 0.229,-0.234 0.33,-0.023 0.028,0.383 -0.163,0.55 -0.05,0.095 -0.157,0.171 -0.154,-0.023 -0.158,-0.193 -0.09,-0.514 0.023,-0.113 0.162,-0.081"
   id="51530"
   inkscape:label="Buena Vista, VA"
   inkscape:connector-curvature="0" />
  <path
   style="fill:#72b3dc;stroke:#c2dffb;stroke-width:1"
   d="m 35.146,24.585 0.148,-0.134 0.361,0.076 0.049,0.108 0.076,0.621 -0.333,0.267 -0.18,-0.117 -0.138,-0.131 0.017,-0.69"
   id="51580"
   inkscape:label="Covington, VA"
   inkscape:connector-curvature="0" />
  <path
   style="fill:#72b3dc;stroke:#c2dffb;stroke-width:1"
   d="m 40.969,23.806 -0.312,0.347 -0.162,0.108 -0.18,-0.153 -0.108,-0.353 0.153,-0.219 0.266,-0.078 0.378,0.086 -0.035,0.262"
   id="51678"
   inkscape:label="Lexington, VA"
   inkscape:connector-curvature="0" />
  <path
   style="fill:#72b3dc;stroke:#c2dffb;stroke-width:1"
   d="m 45.376,18.924 0.039,-0.027 0.264,-0.013 0.143,0.243 0.004,0.073 -0.04,0.284 -0.054,0.136 -0.437,0.12 -0.343,-0.148 -0.063,-0.153 0,-0.06 0.159,-0.243 0.229,-0.226 0.099,0.014"
   id="51820"
   inkscape:label="Waynesboro, VA"
   inkscape:connector-curvature="0" />
  <path
   style="fill:#72b3dc;stroke:#c2dffb;stroke-width:1"
   d="m 43.934,17.992 0.017,-0.033 0.113,0.033 0.091,0.13 0.094,0.199 -0.013,0.265 -0.068,0.177 -0.189,0.197 -0.366,-0.009 -0.238,-0.117 -0.1,-0.175 0.028,-0.226 0.067,-0.212 0.564,-0.229"
   id="51790"
   inkscape:label="Staunton, VA"
   inkscape:connector-curvature="0" />
  <path
   style="fill:#72b3dc;stroke:#c2dffb;stroke-width:1"
   d="m 49.672,18.546 0.221,-0.023 0.234,0.1 0.063,0.158 -0.068,0.391 -0.126,0.181 -0.405,0.116 -0.122,-0.004 -0.086,-0.139 -0.018,-0.108 0.032,-0.249 0.058,-0.188 0.217,-0.235"
   id="51540"
   inkscape:label="Charlottesville, VA"
   inkscape:connector-curvature="0" />
  <path
   style="fill:#72b3dc;stroke:#c2dffb;stroke-width:1"
   d="m 44.903,13.953 0.428,0.346 0.149,0.236 0.004,0.198 -0.541,0.477 -0.248,0.073 -0.04,-0.036 -0.086,-0.564 0.045,-0.216 0.239,-0.469 0.05,-0.045"
   id="51660"
   inkscape:label="Harrisonburg, VA"
   inkscape:connector-curvature="0" />
  <path
   style="fill:#72b3dc;stroke:#c2dffb;stroke-width:1"
   d="m 47.44,16.261 3.125,0.649 1.724,0.355 -0.67,1.809 -1.335,3.019 0.028,0.402 -0.014,0.048 -0.05,0.045 -0.063,0.04 -0.537,0.073 -0.467,0.135 -0.23,0.267 -0.032,0.085 -2.683,-3.664 0.379,-0.329 0.136,-0.239 0,-0.118 -0.117,-0.495 0.058,-0.653 0.063,-0.361 0.685,-1.068 z m 2.232,2.285 -0.217,0.235 -0.058,0.188 -0.032,0.249 0.018,0.108 0.086,0.139 0.122,0.004 0.405,-0.116 0.126,-0.181 0.068,-0.391 -0.063,-0.158 -0.234,-0.1 -0.221,0.023"
   id="51003"
   inkscape:label="Albermarle, VA"
   inkscape:connector-curvature="0" />
  <path
   style="fill:#72b3dc;stroke:#c2dffb;stroke-width:1"
   d="m 51.619,19.074 2.658,0.833 -0.572,2.186 -0.661,0.888 -2.76,-0.888 1.335,-3.019"
   id="51065"
   inkscape:label="Fluvanna, VA"
   inkscape:connector-curvature="0" />
  <path
   style="fill:#72b3dc;stroke:#c2dffb;stroke-width:1"
   d="m 53.044,22.981 0.661,-0.888 1.086,0.996 -0.103,2.701 -0.822,1.301 -2.229,0.793 0.779,-2.275 0.668,-1.907 -0.04,-0.721"
   id="51049"
   inkscape:label="Cumberland, VA"
   inkscape:connector-curvature="0" />
  <path
   style="fill:#72b3dc;stroke:#c2dffb;stroke-width:1"
   d="m 53.866,27.091 0.213,0.911 0.347,2.262 -1.951,0.906 -2.79,-1.721 0.518,-2.069 1.434,0.504 2.229,-0.793"
   id="51147"
   inkscape:label="Prince Edward, VA"
   inkscape:connector-curvature="0" />
  <path
   style="fill:#72b3dc;stroke:#c2dffb;stroke-width:1"
   d="m 48.356,30.269 1.329,-0.82 2.79,1.721 -0.05,2.496 -1.108,2.764 -0.199,-0.081 -0.327,-0.365 -0.011,-0.027 -0.041,-1.239 -0.896,-1.38 -1.865,-0.582 0.378,-2.487"
   id="51037"
   inkscape:label="Charlotte, VA"
   inkscape:connector-curvature="0" />
  <path
   style="fill:#72b3dc;stroke:#c2dffb;stroke-width:1"
   d="m 57.388,34.23 0.378,3.02 -2.803,0.537 -1.343,0.27 -2.804,0.523 0.501,-2.15 1.108,-2.764 4.963,0.564"
   id="51117"
   inkscape:label="Mecklenburg, VA"
   inkscape:connector-curvature="0" />
  <path
   style="fill:#72b3dc;stroke:#c2dffb;stroke-width:1"
   d="m 62.314,27.276 -0.18,-0.333 -0.046,-0.207 0.072,-0.123 0.172,-0.202 0.221,-0.031 0.126,0.103 0.018,0.135 -0.022,0.073 0.059,0.347 -0.01,0.022 -0.077,0.054 -0.041,-0.009 -0.097,0.045 -0.123,0.077 -0.072,0.049"
   id="51570"
   inkscape:label="Colonial Heights, VA"
   inkscape:connector-curvature="0" />
  <path
   style="fill:#72b3dc;stroke:#c2dffb;stroke-width:1"
   d="m 54.426,30.264 2.601,0.794 0.361,3.172 -4.963,-0.564 0.05,-2.496 1.951,-0.906"
   id="51111"
   inkscape:label="Lunenburg, VA"
   inkscape:connector-curvature="0" />
  <path
   style="fill:#72b3dc;stroke:#c2dffb;stroke-width:1"
   d="m 63.008,26.054 0.5,-0.107 0.05,-0.005 0.297,0.158 0.104,0.112 -0.068,0.253 -0.405,0.328 -0.256,-0.188 -0.222,-0.551"
   id="51670"
   inkscape:label="Hopewell, VA"
   inkscape:connector-curvature="0" />
  <path
   style="fill:#72b3dc;stroke:#c2dffb;stroke-width:1"
   d="m 62.079,5.976 0.072,0.64 0.005,0.057 -0.617,0.281 -0.563,-0.113 0.234,-0.545 0.104,-0.204 0.765,-0.116"
   id="51510"
   inkscape:label="Alexandria, VA"
   inkscape:connector-curvature="0" />
  <path
   style="fill:#72b3dc;stroke:#c2dffb;stroke-width:1"
   d="m 48.852,8.693 1.167,0.722 -0.209,1.785 -0.76,2.149 -0.198,0.749 -0.533,-0.01 -0.157,-0.048 -0.752,-0.304 -0.795,-0.409 0.265,-1.285 0.317,-1.14 0.28,-0.738 0.418,0.089 0.297,-0.387 0.66,-1.173"
   id="51139"
   inkscape:label="Page, VA"
   inkscape:connector-curvature="0" />
  <path
   style="fill:#72b3dc;stroke:#c2dffb;stroke-width:1"
   d="m 49.134,6.29 -0.282,2.403 -0.66,1.173 -0.297,0.387 -0.418,-0.089 -0.28,0.738 -0.317,1.14 -2.608,-1.613 0.383,-1.303 0.131,-0.406 0.023,-0.036 0.044,-0.071 0.514,-0.487 0.04,0.067 0.041,0.063 0.032,0.005 0.946,-0.892 0.316,-0.699 0.018,-0.09 0.008,-0.492 2.366,0.202"
   id="51171"
   inkscape:label="Shenandoah, VA"
   inkscape:connector-curvature="0" />
  <path
   style="fill:#72b3dc;stroke:#c2dffb;stroke-width:1"
   d="M 51.258,2.493 53.579,3.794 52.561,5.561 52.236,6.08 50.649,5.628 51.258,2.493"
   id="51043"
   inkscape:label="Clarke, VA"
   inkscape:connector-curvature="0" />
  <path
   style="fill:#72b3dc;stroke:#c2dffb;stroke-width:1"
   d="M 49.96,3.433 50.172,3.448 50.591,3.655 50.172,4.669 49.843,4.412 49.708,3.889 49.726,3.681 49.81,3.415 49.96,3.433"
   id="51840"
   inkscape:label="Winchester, VA"
   inkscape:connector-curvature="0" />
  <path
   style="fill:#72b3dc;stroke:#c2dffb;stroke-width:1"
   d="m 47.711,0.5 1.33,0.735 2.217,1.258 L 50.649,5.628 49.134,6.29 46.768,6.088 47.044,5.615 47.156,5.507 47.459,5.208 47.611,4.93 47.761,4.579 47.797,4.371 47.824,1.911 47.711,0.5 z M 49.96,3.433 49.81,3.415 49.726,3.681 49.708,3.889 49.843,4.412 50.172,4.669 50.591,3.655 50.172,3.448 49.96,3.433"
   id="51069"
   inkscape:label="Frederick, VA"
   inkscape:connector-curvature="0" />
  <path
   style="fill:#72b3dc;stroke:#c2dffb;stroke-width:1"
   d="M 50.649,5.628 52.236,6.08 51.285,7.815 50.019,9.415 48.852,8.693 49.134,6.29 50.649,5.628"
   id="51187"
   inkscape:label="Warren, VA"
   inkscape:connector-curvature="0" />
  <path
   style="fill:#72b3dc;stroke:#c2dffb;stroke-width:1"
   d="m 50.019,9.415 1.266,-1.6 0.479,0.356 0.819,0.815 0.203,0.361 0.059,0.058 0.135,0.095 0.427,0.122 0.195,-0.049 -0.911,1.108 -1.032,1.568 L 51.092,12.213 49.81,11.2 50.019,9.415"
   id="51157"
   inkscape:label="Rappahannock, VA"
   inkscape:connector-curvature="0" />
  <path
   style="fill:#72b3dc;stroke:#c2dffb;stroke-width:1"
   d="m 49.81,11.2 1.282,1.013 1.892,2.565 -1.807,0.87 -2.127,-2.299 0.76,-2.149"
   id="51113"
   inkscape:label="Madison, VA"
   inkscape:connector-curvature="0" />
  <path
   style="fill:#72b3dc;stroke:#c2dffb;stroke-width:1"
   d="m 51.177,15.648 1.807,-0.87 0.897,-0.676 0.758,-0.5 0.536,-0.186 0.92,-0.238 0.472,0.144 0.159,0.082 -1.894,3.587 -2.543,0.274 -1.724,-0.355 0.612,-1.262"
   id="51137"
   inkscape:label="Orange, VA"
   inkscape:connector-curvature="0" />
  <path
   style="fill:#72b3dc;stroke:#c2dffb;stroke-width:1"
   d="m 52.289,17.265 2.543,-0.274 2.916,0.883 -0.396,3.768 -1.528,-0.924 -0.261,-0.275 -0.794,-0.459 -0.492,-0.077 -2.658,-0.833 0.67,-1.809"
   id="51109"
   inkscape:label="Louisa, VA"
   inkscape:connector-curvature="0" />
  <path
   style="fill:#72b3dc;stroke:#c2dffb;stroke-width:1"
   d="m 59.068,21.624 0.122,1.872 -0.613,-0.236 -1.212,-0.202 -1.244,0.036 -0.009,0.063 -0.032,0.068 -0.076,0.063 -0.167,0.044 -0.081,0.005 -0.857,-0.154 -0.108,-0.094 -1.086,-0.996 0.572,-2.186 0.492,0.077 0.794,0.459 0.261,0.275 1.528,0.924 1.716,-0.018"
   id="51075"
   inkscape:label="Goochland, VA"
   inkscape:connector-curvature="0" />
  <path
   style="fill:#72b3dc;stroke:#c2dffb;stroke-width:1"
   d="m 59.19,23.496 -1.645,2.23 -0.207,-0.343 -0.329,-0.27 -0.045,-0.031 -0.271,-0.037 -0.643,0.058 -0.414,0.28 -0.363,0.325 -0.26,0.163 -0.222,0.021 -0.103,-0.102 0.103,-2.701 0.108,0.094 0.857,0.154 0.081,-0.005 0.167,-0.044 0.076,-0.063 0.032,-0.068 0.009,-0.063 1.244,-0.036 1.212,0.202 0.613,0.236"
   id="51145"
   inkscape:label="Powhatan, VA"
   inkscape:connector-curvature="0" />
  <path
   style="fill:#72b3dc;stroke:#c2dffb;stroke-width:1"
   d="m 54.688,25.79 0.103,0.102 0.222,-0.021 0.26,-0.163 0.363,-0.325 0.414,-0.28 0.643,-0.058 0.271,0.037 0.045,0.031 0.329,0.27 0.207,0.343 -0.18,0.031 -0.018,0.023 0.05,0.437 0.054,0.221 1.369,0.987 0.069,0.023 0.121,-0.005 0.054,-0.031 0.013,-0.028 -0.009,-0.176 0.181,-0.234 0.05,-0.022 0.432,0.013 0.235,0.317 -1.276,1.206 -4.611,-0.486 -0.213,-0.911 0.822,-1.301"
   id="51007"
   inkscape:label="Amelia, VA"
   inkscape:connector-curvature="0" />
  <path
   style="fill:#72b3dc;stroke:#c2dffb;stroke-width:1"
   d="m 54.426,30.264 -0.347,-2.262 4.611,0.486 -0.437,2.786 -1.226,-0.216 -2.601,-0.794"
   id="51135"
   inkscape:label="Nottoway, VA"
   inkscape:connector-curvature="0" />
  <path
   style="fill:#72b3dc;stroke:#c2dffb;stroke-width:1"
   d="m 57.027,31.058 1.226,0.216 2.565,0.748 0.473,2.304 -0.708,2.375 -1.338,0.256 -1.479,0.293 -0.378,-3.02 -0.361,-3.172"
   id="51025"
   inkscape:label="Brunswick, VA"
   inkscape:connector-curvature="0" />
  <path
   style="fill:#72b3dc;stroke:#c2dffb;stroke-width:1"
   d="m 59.966,27.282 2.14,0.143 -0.058,0.378 0.329,0.208 0.343,-0.023 0.455,2.267 -1.925,1.903 -0.432,-0.136 -2.565,-0.748 0.437,-2.786 1.276,-1.206"
   id="51053"
   inkscape:label="Dinwiddie, VA"
   inkscape:connector-curvature="0" />
  <path
   style="fill:#72b3dc;stroke:#c2dffb;stroke-width:1"
   d="m 62.747,34.113 0.108,0.38 -0.014,0.174 -0.411,0.267 -0.242,-0.032 -0.163,-0.423 -0.013,-0.087 0.067,-0.171 0.464,-0.202 0.118,0.009 0.086,0.085"
   id="51595"
   inkscape:label="Emporia, VA"
   inkscape:connector-curvature="0" />
  <path
   style="fill:#72b3dc;stroke:#c2dffb;stroke-width:1"
   d="m 63.576,33.956 1.762,1.807 -4.755,0.938 0.708,-2.375 -0.473,-2.304 0.432,0.136 0.708,0.293 0.982,1.451 0.636,0.054 z m -0.829,0.157 -0.086,-0.085 -0.118,-0.009 -0.464,0.202 -0.067,0.171 0.013,0.087 0.163,0.423 0.242,0.032 0.411,-0.267 0.014,-0.174 -0.108,-0.38"
   id="51081"
   inkscape:label="Greensville, VA"
   inkscape:connector-curvature="0" />
  <path
   style="fill:#72b3dc;stroke:#c2dffb;stroke-width:1"
   d="m 72.933,26.763 -0.19,-0.731 0.028,-0.212 -0.019,-0.175 -0.009,-0.051 0.595,-0.066 0.505,0.48 0.127,0.38 -1.037,0.375"
   id="51735"
   inkscape:label="Poquoson, VA"
   inkscape:connector-curvature="0" />
  <path
   style="fill:#72b3dc;stroke:#c2dffb;stroke-width:1"
   d="m 68.665,32.933 0.306,0.725 -0.005,0.023 -0.565,0.153 -0.251,-0.31 -0.086,-0.321 0.01,-0.189 0.135,-0.072 0.217,0.009 0.239,-0.018"
   id="51620"
   inkscape:label="Franklin, VA"
   inkscape:connector-curvature="0" />
  <path
   style="fill:#72b3dc;stroke:#c2dffb;stroke-width:1"
   d="m 68.665,32.933 -0.239,0.018 -0.217,-0.009 -0.135,0.072 -0.01,0.189 0.086,0.321 0.251,0.31 0.565,-0.153 0.005,-0.023 0.131,0.032 0.058,1.315 -2.497,0.469 -1.325,0.289 -1.762,-1.807 4.187,-3.98 0.906,-0.87 -0.004,3.827"
   id="51175"
   inkscape:label="Southampton, VA"
   inkscape:connector-curvature="0" />
  <path
   style="fill:#72b3dc;stroke:#c2dffb;stroke-width:1"
   d="m 72.933,26.763 1.037,-0.375 0.648,1.032 -0.405,0.695 -0.991,0.279 -0.668,-1.401 0.379,-0.23"
   id="51650"
   inkscape:label="Hampton, VA"
   inkscape:connector-curvature="0" />
  <path
   style="fill:#72b3dc;stroke:#c2dffb;stroke-width:1"
   d="m 69.971,25.469 0.014,0.059 -0.108,0.085 -0.185,0.063 -0.342,0.04 -0.217,-0.012 -0.112,-0.095 -0.077,-0.104 -0.108,-0.613 0.212,-0.198 0.085,0.112 0.054,0.064 0.302,0.018 0.118,-0.032 0.27,0.229 0.094,0.384"
   id="51830"
   inkscape:label="Williamsburg, VA"
   inkscape:connector-curvature="0" />
  <path
   style="fill:#72b3dc;stroke:#c2dffb;stroke-width:1"
   d="m 70.679,25.798 1.875,1.195 0.668,1.401 -0.077,0.229 -0.077,0 -0.117,-0.053 -2.29,-1.51 -0.086,-0.082 -0.072,-0.73 0.176,-0.45"
   id="51700"
   inkscape:label="Newport News, VA"
   inkscape:connector-curvature="0" />
  <path
   style="fill:#72b3dc;stroke:#c2dffb;stroke-width:1"
   d="m 73.329,29.444 0.605,-0.405 0.806,1.122 -0.982,0.379 -0.447,-0.672 0.018,-0.424"
   id="51740"
   inkscape:label="Portsmouth, VA"
   inkscape:connector-curvature="0" />
  <path
   style="fill:#72b3dc;stroke:#c2dffb;stroke-width:1"
   d="m 69.133,24.806 0.442,-0.982 1.96,1.441 -0.031,0.101 0.121,0.09 0.244,0.072 0.753,-0.28 0.049,0.023 0.072,0.323 0.009,0.051 0.019,0.175 -0.028,0.212 0.19,0.731 -0.379,0.23 -1.875,-1.195 -0.708,-0.329 -0.094,-0.384 -0.27,-0.229 -0.118,0.032 -0.302,-0.018 -0.054,-0.064"
   id="51199"
   inkscape:label="York, VA"
   inkscape:connector-curvature="0" />
  <path
   style="fill:#72b3dc;stroke:#c2dffb;stroke-width:1"
   d="m 68.515,22.89 0.388,0.393 0.672,0.541 -0.442,0.982 -0.085,-0.112 -0.212,0.198 0.108,0.613 0.077,0.104 0.112,0.095 0.217,0.012 0.342,-0.04 0.185,-0.063 0.108,-0.085 -0.014,-0.059 0.708,0.329 -0.176,0.45 -1.153,-0.184 -1.605,0.221 -0.613,-1.925 1.383,-1.47"
   id="51095"
   inkscape:label="James City, VA"
   inkscape:connector-curvature="0" />
  <path
   style="fill:#72b3dc;stroke:#c2dffb;stroke-width:1"
   d="m 67.745,26.285 1.605,-0.221 0.789,0.874 -1.47,2.168 -0.906,0.87 -0.271,-0.686 -0.964,-0.67 -0.036,0.048 -0.271,0 -0.824,-0.301 -0.05,-0.032 -0.036,-0.049 -0.004,-0.037 1.477,-2.109 0.961,0.145"
   id="51181"
   inkscape:label="Surry, VA"
   inkscape:connector-curvature="0" />
  <path
   style="fill:#72b3dc;stroke:#c2dffb;stroke-width:1"
   d="m 65.307,28.249 0.004,0.037 0.036,0.049 0.05,0.032 0.824,0.301 0.271,0 0.036,-0.048 0.964,0.67 0.271,0.686 -4.187,3.98 -0.636,-0.054 -0.982,-1.451 -0.708,-0.293 1.925,-1.903 2.132,-2.006"
   id="51183"
   inkscape:label="Sussex, VA"
   inkscape:connector-curvature="0" />
  <path
   style="fill:#72b3dc;stroke:#c2dffb;stroke-width:1"
   d="m 63.508,25.947 0.113,-0.127 3.163,0.32 -1.477,2.109 -2.132,2.006 -0.455,-2.267 0.419,0.108 0.179,-0.531 -0.062,-0.317 -0.505,-0.247 0.257,-0.947 0.222,0.551 0.256,0.188 0.405,-0.328 0.068,-0.253 -0.104,-0.112 -0.297,-0.158 -0.05,0.005"
   id="51149"
   inkscape:label="Prince George, VA"
   inkscape:connector-curvature="0" />
  <path
   style="fill:#72b3dc;stroke:#c2dffb;stroke-width:1"
   d="m 62.734,27.038 0.017,-0.037 0.505,0.247 0.062,0.317 -0.179,0.531 -0.419,-0.108 -0.343,0.023 -0.329,-0.208 0.058,-0.378 0.208,-0.149 0.072,-0.049 0.123,-0.077 0.097,-0.045 0.041,0.009 0.077,-0.054 0.01,-0.022"
   id="51730"
   inkscape:label="Petersburg, VA"
   inkscape:connector-curvature="0" />
  <path
   style="fill:#72b3dc;stroke:#c2dffb;stroke-width:1"
   d="m 59.068,21.624 1.001,0.005 1.51,0.833 0.527,0.19 1.172,0.325 0.212,0.018 0.626,0.477 -0.447,1.541 -1.864,-0.504 0.126,-0.794 -0.05,-0.415 -0.333,-0.5 -0.293,-0.188 -0.108,-0.032 -0.221,0.103 -0.581,0.283 -0.56,0.502 -0.595,0.028 -0.122,-1.872"
   id="51087"
   inkscape:label="Henrico, VA"
   inkscape:connector-curvature="0" />
  <path
   style="fill:#72b3dc;stroke:#c2dffb;stroke-width:1"
   d="m 59.19,23.496 0.595,-0.028 0.352,0.576 0.622,0.736 1.046,-0.271 1.864,0.504 -0.048,0.807 -0.113,0.127 -0.5,0.107 -0.257,0.947 -0.017,0.037 -0.059,-0.347 0.022,-0.073 -0.018,-0.135 -0.126,-0.103 -0.221,0.031 -0.172,0.202 -0.072,0.123 0.046,0.207 0.18,0.333 -0.208,0.149 -2.14,-0.143 -0.235,-0.317 -0.432,-0.013 -0.05,0.022 -0.181,0.234 0.009,0.176 -0.013,0.028 -0.054,0.031 -0.121,0.005 -0.069,-0.023 -1.369,-0.987 -0.054,-0.221 -0.05,-0.437 0.018,-0.023 0.18,-0.031 1.645,-2.23"
   id="51041"
   inkscape:label="Chesterfield, VA"
   inkscape:connector-curvature="0" />
  <path
   style="fill:#72b3dc;stroke:#c2dffb;stroke-width:1"
   d="m 64.116,23.472 3.016,0.888 0.613,1.925 -0.961,-0.145 -3.163,-0.32 0.048,-0.807 0.447,-1.541"
   id="51036"
   inkscape:label="Charles City, VA"
   inkscape:connector-curvature="0" />
  <path
   style="fill:#72b3dc;stroke:#c2dffb;stroke-width:1"
   d="m 64.306,21.624 0.762,0.221 2.064,0.005 0.753,0.5 0.63,0.54 -1.383,1.47 -3.016,-0.888 -0.626,-0.477 0.816,-1.371"
   id="51127"
   inkscape:label="New Kent, VA"
   inkscape:connector-curvature="0" />
  <path
   style="fill:#72b3dc;stroke:#c2dffb;stroke-width:1"
   d="m 61.805,24.509 -1.046,0.271 -0.622,-0.736 -0.352,-0.576 0.56,-0.502 0.581,-0.283 0.221,-0.103 0.108,0.032 0.293,0.188 0.333,0.5 0.05,0.415 -0.126,0.794"
   id="51760"
   inkscape:label="Richmond, VA"
   inkscape:connector-curvature="0" />
  <path
   style="fill:#72b3dc;stroke:#c2dffb;stroke-width:1"
   d="m 59.43,13.881 -0.374,0.135 -0.51,-0.289 -0.064,-0.283 0.172,-0.127 0.126,-0.084 0.253,0.044 0.189,0.04 0.172,0.172 0.036,0.392"
   id="51630"
   inkscape:label="Fredericksburg, VA"
   inkscape:connector-curvature="0" />
  <path
   style="fill:#72b3dc;stroke:#c2dffb;stroke-width:1"
   d="m 58.875,6.287 0.338,-0.153 0.315,0.049 0.068,0.099 0.053,0.383 -0.238,0.149 -0.347,0.059 -0.31,-0.217 0,-0.158 0.121,-0.211"
   id="51600"
   inkscape:label="Fairfax, VA"
   inkscape:connector-curvature="0" />
  <path
   style="fill:#72b3dc;stroke:#c2dffb;stroke-width:1"
   d="m 57.685,7.707 0.221,0.093 0.09,0.077 0.081,0.069 0.009,0.391 L 57.595,8.833 57.329,8.716 57.253,8.5 57.274,8.361 57.473,7.914 57.676,7.702 57.685,7.707"
   id="51683"
   inkscape:label="Manassas, VA"
   inkscape:connector-curvature="0" />
  <path
   style="fill:#72b3dc;stroke:#c2dffb;stroke-width:1"
   d="m 54.175,1.18 0.387,-0.045 2.393,0.839 -0.396,0.626 -0.041,0.108 -0.004,0.059 -0.024,0.162 -0.012,0.117 0.003,0.01 0.069,0.22 0.057,0.076 0.006,0 0.063,0.045 0.639,0.429 0.019,0.008 0.355,0.023 L 58.172,3.834 58.641,3.781 57.145,6.877 55.738,5.885 52.561,5.561 53.579,3.794 54.175,1.18"
   id="51107"
   inkscape:label="Loudoun, VA"
   inkscape:connector-curvature="0" />
  <path
   style="fill:#72b3dc;stroke:#c2dffb;stroke-width:1"
   d="m 52.561,5.561 3.177,0.324 -0.347,1.385 0.032,0.139 2.113,2.7 0.383,0.469 -0.657,2.068 -0.917,0.067 -0.134,-0.017 -0.157,-0.055 -0.091,-0.09 L 55.112,11.448 54.498,10.483 53.602,9.573 53.407,9.622 52.98,9.5 52.845,9.405 52.786,9.347 52.583,8.986 51.764,8.171 51.285,7.815 52.236,6.08 52.561,5.561"
   id="51061"
   inkscape:label="Fauquier, VA"
   inkscape:connector-curvature="0" />
  <path
   style="fill:#72b3dc;stroke:#c2dffb;stroke-width:1"
   d="m 53.602,9.573 0.896,0.91 0.614,0.965 0.851,1.103 0.091,0.09 0.157,0.055 0.134,0.017 0.917,-0.067 0.27,0.505 -0.806,0.253 -0.159,-0.082 -0.472,-0.144 -0.92,0.238 -0.536,0.186 -0.758,0.5 -0.897,0.676 -1.892,-2.565 0.567,0.036 1.032,-1.568 0.911,-1.108"
   id="51047"
   inkscape:label="Culpeper, VA"
   inkscape:connector-curvature="0" />
  <path
   style="fill:#72b3dc;stroke:#c2dffb;stroke-width:1"
   d="m 57.532,13.151 1.014,0.576 0.51,0.289 0.374,-0.135 0.855,0.333 -2.046,3.786 -0.491,-0.126 -2.916,-0.883 1.894,-3.587 0.806,-0.253"
   id="51177"
   inkscape:label="Spotsylvania, VA"
   inkscape:connector-curvature="0" />
  <path
   style="fill:#72b3dc;stroke:#c2dffb;stroke-width:1"
   d="m 57.748,17.874 0.491,0.126 3.453,1.997 0.367,0.663 0.381,0.166 1.285,0.488 0.581,0.31 -0.816,1.371 -0.212,-0.018 -1.172,-0.325 -0.527,-0.19 -1.51,-0.833 -1.001,-0.005 -1.716,0.018 0.396,-3.768"
   id="51085"
   inkscape:label="Hanover, VA"
   inkscape:connector-curvature="0" />
  <path
   style="fill:#72b3dc;stroke:#c2dffb;stroke-width:1"
   d="m 63.053,18.366 0.108,-0.095 0.238,0.158 0.974,1.379 1.835,0.626 1.456,1.01 0.266,0.406 0.017,0.045 -0.017,0.383 -0.045,0.072 -0.753,-0.5 -2.064,-0.005 -0.762,-0.221 -0.581,-0.31 -1.285,-0.488 -0.381,-0.166 -0.367,-0.663 1.361,-1.631"
   id="51101"
   inkscape:label="King William, VA"
   inkscape:connector-curvature="0" />
  <path
   style="fill:#72b3dc;stroke:#c2dffb;stroke-width:1"
   d="m 63.053,18.366 0.915,-1.155 0.685,0.993 0.415,0.514 0.716,0.428 0.424,-0.082 0.47,-0.189 0.383,-0.037 0.133,0.082 0.461,0.464 0.085,0.194 1.293,1.398 0.041,0.973 0.04,0.108 0.262,0.275 0.051,0.122 0,0.062 -0.024,0.108 -0.081,0.176 -0.419,0.483 -0.388,-0.393 -0.63,-0.54 0.045,-0.072 0.017,-0.383 -0.017,-0.045 -0.266,-0.406 -1.456,-1.01 -1.835,-0.626 -0.974,-1.379 -0.238,-0.158 -0.108,0.095"
   id="51097"
   inkscape:label="King and Queen, VA"
   inkscape:connector-curvature="0" />
  <path
   style="fill:#72b3dc;stroke:#c2dffb;stroke-width:1"
   d="m 68.309,18.92 1.405,1.338 0.389,0.317 0.098,0.036 1.168,-0.06 1.289,0.221 0.031,0.045 -0.027,0.096 -0.237,0.243 -0.186,0.049 -0.821,0.455 -2.385,-0.684 -1.293,-1.398 0.569,-0.658"
   id="51119"
   inkscape:label="Middlesex, VA"
   inkscape:connector-curvature="0" />
  <path
   style="fill:#72b3dc;stroke:#c2dffb;stroke-width:1"
   d="m 71.418,21.66 0.596,1.384 -0.073,0 -0.163,0.329 -0.045,0.185 0.136,0.13 0.595,0.501 0.428,0.298 0.045,0.049 -0.117,0.072 -0.621,0.356 -0.664,0.301 -1.96,-1.441 -0.672,-0.541 0.419,-0.483 0.081,-0.176 0.024,-0.108 0,-0.062 -0.051,-0.122 -0.262,-0.275 -0.04,-0.108 -0.041,-0.973 2.385,0.684"
   id="51073"
   inkscape:label="Gloucester, VA"
   inkscape:connector-curvature="0" />
  <path
   style="fill:#72b3dc;stroke:#c2dffb;stroke-width:1"
   d="m 68.655,18.546 1.203,-0.87 2.258,1.658 0.474,0.523 0.122,0.154 0.004,0.059 -0.807,0.211 -1.411,-0.447 -0.559,-0.315 -1.284,-0.973"
   id="51103"
   inkscape:label="Lancaster, VA"
   inkscape:connector-curvature="0" />
  <path
   style="fill:#72b3dc;stroke:#c2dffb;stroke-width:1"
   d="m 64.996,15.517 -0.018,-0.1 0.486,-0.626 0.045,0.023 0.807,0.676 0.573,0.603 0.217,0.036 1.166,0.181 1.586,1.366 -1.203,0.87 -1.506,-0.806 -2.153,-2.223"
   id="51159"
   inkscape:label="Richmond Co., VA"
   inkscape:connector-curvature="0" />
  <path
   style="fill:#72b3dc;stroke:#c2dffb;stroke-width:1"
   d="m 63.544,14.688 1.452,0.829 2.153,2.223 1.16,1.18 -0.569,0.658 -0.085,-0.194 -0.461,-0.464 -0.133,-0.082 -0.383,0.037 -0.47,0.189 -0.424,0.082 -0.716,-0.428 -0.415,-0.514 -0.685,-0.993 -0.928,-2.266 0.504,-0.257"
   id="51057"
   inkscape:label="Essex, VA"
   inkscape:connector-curvature="0" />
  <path
   style="fill:#72b3dc;stroke:#c2dffb;stroke-width:1"
   d="m 60.719,14.147 2.321,0.798 0.928,2.266 -0.915,1.155 -1.361,1.631 -3.453,-1.997 2.046,-3.786 0.434,-0.067"
   id="51033"
   inkscape:label="Caroline, VA"
   inkscape:connector-curvature="0" />
  <path
   style="fill:#72b3dc;stroke:#c2dffb;stroke-width:1"
   d="m 58.641,3.781 2.347,1.176 -0.892,0.537 0.023,0.017 -0.343,0.279 0.343,0.447 0.604,-0.293 0.487,0.352 -0.234,0.545 0.563,0.113 0.617,-0.281 -0.243,1.124 -0.257,0.995 -0.884,0.135 -3.627,-2.05 1.496,-3.096 z m 0.234,2.506 -0.121,0.211 0,0.158 0.31,0.217 L 59.411,6.814 59.649,6.665 59.596,6.282 59.528,6.183 59.213,6.134 58.875,6.287"
   id="51059"
   inkscape:label="Fairfax Co., VA"
   inkscape:connector-curvature="0" />
  <path
   style="fill:#72b3dc;stroke:#c2dffb;stroke-width:1"
   d="m 55.738,5.885 1.407,0.992 3.627,2.05 -0.483,1.885 -2.37,-0.234 -0.383,-0.469 -2.113,-2.7 L 55.391,7.27 55.738,5.885 z M 57.685,7.707 57.676,7.702 57.473,7.914 57.274,8.361 57.253,8.5 57.329,8.716 57.595,8.833 58.086,8.337 58.077,7.946 57.996,7.877 58.131,7.81 l 0.181,-0.162 0,-0.085 -0.073,-0.046 -0.26,-0.086 -0.145,0.014 -0.058,0.099 -0.091,0.163 z m 0.618,0.26 0.189,0.073 0.085,-0.198 -0.054,-0.131 -0.13,-0.041 -0.181,0.194 0.019,0.091 0.072,0.012"
   id="51153"
   inkscape:label="Prince William, VA"
   inkscape:connector-curvature="0" />
  <path
   style="fill:#72b3dc;stroke:#c2dffb;stroke-width:1"
   d="m 57.532,13.151 -0.27,-0.505 0.657,-2.068 2.37,0.234 0.569,1.956 -0.139,1.379 -0.434,0.067 -0.855,-0.333 -0.036,-0.392 -0.172,-0.172 -0.189,-0.04 -0.253,-0.044 -0.126,0.084 -0.172,0.127 0.064,0.283 -1.014,-0.576"
   id="51179"
   inkscape:label="Stafford, VA"
   inkscape:connector-curvature="0" />
  <path
   style="fill:#72b3dc;stroke:#c2dffb;stroke-width:1"
   d="m 60.858,12.768 3.02,0.307 -0.334,1.613 -0.504,0.257 -2.321,-0.798 0.139,-1.379"
   id="51099"
   inkscape:label="King George, VA"
   inkscape:connector-curvature="0" />
  <path
   style="fill:#72b3dc;stroke:#c2dffb;stroke-width:1"
   d="m 63.878,13.075 0.514,0.748 0.964,0.354 0.383,0.042 0.96,-0.112 1.131,-0.181 0.132,0.018 0.036,0.009 0.883,0.766 0.095,0.077 0.202,0.316 0.05,0.095 -0.956,1.103 -1.166,-0.181 -0.217,-0.036 -0.573,-0.603 -0.807,-0.676 -0.045,-0.023 -0.486,0.626 0.018,0.1 -1.452,-0.829 0.334,-1.613"
   id="51193"
   inkscape:label="Westmoreland, VA"
   inkscape:connector-curvature="0" />
  <path
   style="fill:#72b3dc;stroke:#c2dffb;stroke-width:1"
   d="m 69.228,15.207 0.171,0.13 1.028,0.523 0.266,0.05 0.329,0.017 0.081,0.014 0.09,0.018 0.022,0.004 0.848,0.288 0.346,0.222 0.005,0.743 -0.121,1.943 -0.177,0.175 -2.258,-1.658 -1.586,-1.366 0.956,-1.103"
   id="51133"
   inkscape:label="Northumberland, VA"
   inkscape:connector-curvature="0" />
  <path
   style="fill:#72b3dc;stroke:#c2dffb;stroke-width:1"
   d="m 71.418,21.66 0.821,-0.455 0.604,0.127 0.062,0.022 0.086,0.062 0.231,0.302 0.217,0.411 0.174,0.536 0.059,0.216 0,0.154 -0.19,0.784 -0.341,-0.177 -1.127,-0.598 -0.596,-1.384"
   id="51115"
   inkscape:label="Mathews, VA"
   inkscape:connector-curvature="0" />
  <path
   style="fill:#72b3dc;stroke:#c2dffb;stroke-width:1"
   d="m 75.507,28.556 0.238,0.942 -0.415,0.297 -0.59,0.366 -0.806,-1.122 1.573,-0.483"
   id="51710"
   inkscape:label="Norfolk, VA"
   inkscape:connector-curvature="0" />
  <path
   style="fill:#72b3dc;stroke:#c2dffb;stroke-width:1"
   d="m 68.665,32.933 0.004,-3.827 1.47,-2.168 2.392,2.345 -0.441,0.174 -0.04,0.023 -2.948,4.21 -0.131,-0.032 -0.306,-0.725"
   id="51093"
   inkscape:label="Isle of Wight, VA"
   inkscape:connector-curvature="0" />
  <path
   style="fill:#72b3dc;stroke:#c2dffb;stroke-width:1"
   d="m 73.329,29.444 -0.018,0.424 0.128,4.169 -0.506,0.108 -3.755,0.856 -0.018,0.004 -0.058,-1.315 2.948,-4.21 0.04,-0.023 0.441,-0.174 0.798,0.161"
   id="51800"
   inkscape:label="Suffolk, VA"
   inkscape:connector-curvature="0" />
  <path
   style="fill:#72b3dc;stroke:#c2dffb;stroke-width:1"
   d="m 74.74,30.161 0.59,-0.366 1.82,3.458 -1.919,0.405 -1.792,0.379 -0.128,-4.169 0.447,0.672 0.982,-0.379"
   id="51550"
   inkscape:label="Chesapeake, VA"
   inkscape:connector-curvature="0" />
  <path
   style="fill:#72b3dc;stroke:#c2dffb;stroke-width:1"
   d="m 75.507,28.556 1.505,-0.338 0.202,-0.027 0.068,0.01 0.13,0.061 0.077,0.132 2.068,3.903 0.164,0.406 -2.571,0.55 -1.82,-3.458 0.415,-0.297 -0.238,-0.942"
   id="51810"
   inkscape:label="Virginia Beach, VA"
   inkscape:connector-curvature="0" />
  <path
   style="fill:#72b3dc;stroke:#c2dffb;stroke-width:1"
   d="m 57.97352,7.4205 -0.14453,0.0234 -0.0703,0.13671 -0.0742,0.12891 0.22265,0.0898 0.0977,0.0898 0.0586,-0.043 0.0625,-0.0352 0.0352,-0.0156 0.0586,0.0859 0.004,0.0703 0.11719,0.0274 0.16406,0.0664 0.0703,-0.19922 -0.0586,-0.14062 -0.13281,-0.0352 -0.0664,-0.0312 0,-0.0742 -0.0742,-0.043 -0.26953,-0.10156 z"
   id="51685"
   inkscape:label="Manassas Park, VA"
   inkscape:connector-curvature="0" />
  
  
  
  
  
  
  
  
  
  
  
  
  
  
  
  
  
  
  
  
  
  
  
  
  
  
  
  
  
  
  
  
  
  
  
  
  
  
  
  
  
  
  
  
  
  
  
  
  
  
  
  
  
  
  
  
  
  
  
  
  
  
  
  
  
  
  
  
  
  
  
  
  
  
  
  
  
  
  
  
  
  
  
  
  
  
  
  
  
  
  
  
  
  
  
  
  
  
  
  
  
  
  
  
  
  
  
  
  
  
  
  
  
  
  
  
  
  
  
  
  
  
  
  
  
  
  
  
  
  
  
  
  
  
  
  
  
  
  
  
  
  
  
  
  
  
  
  
  
  
  
  
  
  
  
  
  
  
  
  
  
  
  
  
  
  
  
  
  
  
  
  
  
  
  
  
  
  
  
  
  
  
  
  
  
  
  
  
  
  
  
  
  
  
  
  
  
  
  
  
  
  
  
  
  
  
</svg>