<?xml version="1.0" encoding="UTF-8" standalone="no"?>
<!--?xml version="1.0" encoding="UTF-8" standalone="no"?-->

<svg
   xmlns:dc="http://purl.org/dc/elements/1.1/"
   xmlns:cc="http://creativecommons.org/ns#"
   xmlns:rdf="http://www.w3.org/1999/02/22-rdf-syntax-ns#"
   xmlns:svg="http://www.w3.org/2000/svg"
   xmlns="http://www.w3.org/2000/svg"
   xmlns:sodipodi="http://sodipodi.sourceforge.net/DTD/sodipodi-0.dtd"
   xmlns:inkscape="http://www.inkscape.org/namespaces/inkscape"
   width="75.04789"
   height="56.086864"
   viewBox="0 0 69.371999 51.233194"
   preserveAspectRatio="xMinYMin meet"
   xml:space="preserve"
   id="svg3330"
   version="1.1"
   inkscape:version="0.48.2 r9819"
   sodipodi:docname="WA.svg"><metadata
   id="metadata3375"><rdf:RDF><cc:Work
       rdf:about=""><dc:format>image/svg+xml</dc:format><dc:type
         rdf:resource="http://purl.org/dc/dcmitype/StillImage" /></cc:Work></rdf:RDF></metadata><defs
   id="defs3373" /><sodipodi:namedview
   pagecolor="#ffffff"
   bordercolor="#666666"
   borderopacity="1"
   objecttolerance="10"
   gridtolerance="10"
   guidetolerance="10"
   inkscape:pageopacity="0"
   inkscape:pageshadow="2"
   inkscape:window-width="640"
   inkscape:window-height="480"
   id="namedview3371"
   showgrid="false"
   inkscape:zoom="0.56730769"
   inkscape:cx="248.43524"
   inkscape:cy="-152.45405"
   inkscape:window-x="0"
   inkscape:window-y="0"
   inkscape:window-maximized="0"
   inkscape:current-layer="svg3330" />
  
  
  
  
  
  
  
  
  
  
  
  
  
  
  
  
  
  
  
  
  
  
  
  
  
  
  
  
  
  
  
  
  
  
  
  
  
  
  
  
  
  
  
  
  
  
  
  
  
  
  
  
  
  
  
  
  
  
  
  
  
  
  
  
  
  
  
  
  
  
  
  
  
  
  
  
  
  
  
  
  
  
  
  
  
  
  
  
  
  
  
  
  
  
  
  
  
  
  
  
  
  
  
  
  
  
  
  
  
  
  
  
  
  
  
  
  
  
  
  
  
  
  
  
  
  
  
  
  
  
  
  
  
  
  
  
  
  
  
  
  
  
  
  
  
  
  
  
  
  
  
  
  
  
  
  
  
  
  
  
  
  
  
  
  
  
  
  
  
  
  
  
  
  
  
  
  
  
  
  
  
  
  
  
  
  
  
  
  
  
  
  
  
  
  
  
  
  
  
  
  
  
  
  
  
  
  
  
  
  
  
  
  
  
  
  
  
  
  
  
  
  
  
  
  
  
  
  
  
  
  
  
  
  
  
  
  
  
  
  
  
  
  
  
  
  
  
  
  
  
  
  
  
  
  
  
  
  
  
  
  
  
  
  
  
  
  
  
  
  
  
  
  
  
  
  
  
  
  
  
  
  
  
  
  
  
  
  
  
  
  
  
  
  
  
  
  
  
  
  
  
  
  
  
  
  
  
  
  
  
  
  
  
  
  
  
  
  
  
  
  
  
  
  
  
  
  
  
  
  
  
  
  
  
  
  
  
  
  
  
  
  
  
  
  
  
  
  
  
  
  
  
  
  
  
  
  
  
  
  
  
  
  
  
  
  
  
  
  
  
  
  
  
  
  
  
  
  
  
  
  
  
  
  
  
  
  
  
  
  
  
  
  
  
  
  
  
  
  
  
  
  
  
  
  
  
  
  
  
  
  
  
  
  
  
  
  
  
  
  
  
  
  
  
  
  
  
  
  
  
  
  
  
  
  
  
  
  
  
  
  
  
  
  
  
  
  
  
  
  
  
  
  
  
  
  
  
  
  
  
  
  
  
  
  
  
  
  
  
  
  
  
  
  
  
  
  
  
  
  
  
  
  
  
  
  
  
  
  
  
  
  
  
  
  
  
  
  
  
  
  
  
  
  
  
  
  
  
  
  
  
  
  
  
  
  
  
  
  
  
  
  
  
  
  
  
  
  
  
  
  
  
  
  
  
  
  
  
  
  
  
  
  
  
  
  
  
  
  
  
  
  
  
  
  
  
  
  
  
  
  
  
  
  
  
  
  
  
  
  
  
  
  
  
  
  
  
  
  
  
  
  
  
  
  
  
  
  
  
  
  
  
  
  
  
  
  
  
  
  
  
  
  
  
  
  
  
  
  
  
  
  
  
  
  
  
  
  
  
  
  
  
  
  
  
  
  
  
  
  
  
  
  
  
  
  
  
  
  
  
  
  
  
  
  
  
  
  
  
  
  
  
  
  
  
  
  
  
  
  
  
  
  
  
  
  
  
  
  
  
  
  
  
  
  
  
  
  
  
  
  
  
  
  
  
  
  
  
  
  
  
  
  
  
  
  
  
  
  
  
  
  
  
  
  
  
  
  
  
  
  
  
  
  
  
  
  
  
  
  
  
  
  
  
  
  
  
  
  
  
  
  
  
  
  
  
  
  
  
  
  
  
  
  
  
  
  
  
  
  
  
  
  
  
  
  
  
  
  
  
  
  
  
  
  
  
  
  
  
  
  
  
  
  
  
  
  
  
  
  
  
  
  
  
  
  
  
  
  
  
  
  
  
  
  
  
  
  
  
  
  
  
  
  
  
  
  
  
  
  
  
  
  
  
  
  
  
  
  
  
  
  
  
  
  
  
  
  
  
  
  
  
  
  
  
  
  
  
  
  
  
  
  
  
  
  
  
  
  
  
  
  
  
  
  
  
  
  
  
  
  
  
  
  
  
  
  
  
  
  
  
  
  
  
  
  
  
  
  
  
  
  
  
  
  
  
  
  
  
  
  
  
  
  
  
  
  
  
  
  
  
  
  
  
  
  
  
  
  
  
  
  
  
  
  
  
  
  
  
  
  
  
  
  
  
  
  
  
  
  
  
  
  
  
  
  
  
  
  
  
  
  
  
  
  
  
  
  
  
  
  
  
  
  
  
  
  
  
  
  
  
  
  
  
  
  
  
  
  
  
  
  
  
  
  
  
  
  
  
  
  
  
  
  
  
  
  
  
  
  
  
  
  
  
  
  
  
  
  
  
  
  
  
  
  
  
  
  
  
  
  
  
  
  
  
  
  
  
  
  
  
  
  
  
  
  
  
  
  
  
  
  
  
  
  
  
  
  
  
  
  
  
  
  
  
  
  
  
  
  
  
  
  
  
  
  
  
  
  
  
  
  
  
  
  
  
  
  
  
  
  
  
  
  
  
  
  
  
  
  
  
  
  
  
  
  
  
  
  
  
  
  
  
  
  
  
  
  
  
  
  
  
  
  
  
  
  
  
  
  
  
  
  
  
  
  
  
  
  
  
  
  
  
  
  
  
  
  
  
  
  
  
  
  
  
  
  
  
  
  
  
  
  
  
  
  
  
  
  
  
  
  
  
  
  
  
  
  
  
  
  
  
  
  
  
  
  
  
  
  
  
  
  
  
  
  
  
  
  
  
  
  
  
  
  
  
  
  
  
  
  
  
  
  
  
  
  
  
  
  
  
  
  
  
  
  
  
  
  
  
  
  
  
  
  
  
  
  
  
  
  
  
  
  
  
  
  
  
  
  
  
  
  
  
  
  
  
  
  
  
  
  
  
  
  
  
  
  
  
  
  
  
  
  
  
  
  
  
  
  
  
  
  
  
  
  
  
  
  
  
  
  
  
  
  
  
  
  
  
  
  
  
  
  
  
  
  
  
  
  
  
  
  
  
  
  
  
  
  
  
  
  
  
  
  
  
  
  
  
  
  
  
  
  
  
  
  
  
  
  
  
  
  
  
  
  
  
  
  
  
  
  
  
  
  
  
  
  
  
  
  
  
  
  
  
  
  
  
  
  
  
  
  
  
  
  
  
  
  
  
  
  
  
  
  
  
  
  
  
  
  
  
  
  
  
  
  
  
  
  
  
  
  
  
  
  
  
  
  
  
  
  
  
  
  
  
  
  
  
  
  
  
  
  
  
  
  
  
  
  
  
  
  
  
  
  
  
  
  
  
  
  
  
  
  
  
  
  
  
  
  
  
  
  
  
  
  
  
  
  
  
  
  
  
  
  
  
  
  
  
  
  
  
  
  
  
  
  
  
  
  
  
  
  
  
  
  
  
  
  
  
  
  
  
  
  
  
  
  
  
  
  
  
  
  
  
  
  
  
  
  
  
  
  
  
  
  
  
  
  
  
  
  
  
  
  
  
  
  
  
  
  
  
  
  
  
  
  
  
  
  
  
  
  
  
  
  
  
  
  
  
  
  
  
  
  
  
  
  
  
  
  
  
  
  
  
  
  
  
  
  
  
  
  
  
  
  
  
  
  
  
  
  
  
  
  
  
  
  
  
  
  
  
  
  
  
  
  
  
  
  
  
  
  
  
  
  
  
  
  
  
  
  
  
  
  
  
  
  
  
  
  
  
  
  
  
  
  
  
  
  
  
  
  
  
  
  
  
  
  
  
  
  
  
  
  
  
  
  
  
  
  
  
  
  
  
  
  
  
  
  
  
  
  
  
  
  
  
  
  
  
  
  
  
  
  
  
  
  
  
  
  
  
  
  
  
  
  
  
  
  
  
  
  
  
  
  
  
  
  
  
  
  
  
  
  
  
  
  
  
  
  
  
  
  
  
  
  
  
  
  
  
  
  
  
  
  
  
  
  
  
  
  
  
  
  
  
  
  
  
  
  
  
  
  
  
  
  
  
  
  
  
  
  
  
  
  
  
  
  
  
  
  
  
  
  
  
  
  
  
  
  
  
  
  
  
  
  
  
  
  
  
  
  
  
  
  
  
  
  
  
  
  
  
  
  
  
  
  
  
  
  
  
  
  
  
  
  
  
  
  
  
  
  
  
  
  
  
  
  
  
  
  
  
  
  
  
  
  
  
  
  
  
  
  
  
  
  
  
  
  
  
  
  
  
  
  
  
  
  
  
  
  
  
  
  
  
  
  
  
  
  
  
  
  
  
  
  
  
  
  
  
  
  
  
  
  
  
  
  
  
  
  
  
  
  
  
  
  
  
  
  
  
  
  
  
  
  
  
  
  
  
  
  
  
  
  
  
  
  
  
  
  
  
  
  
  
  
  
  
  
  
  
  
  
  
  
  
  
  
  
  
  
  
  
  
  
  
  
  
  
  
  
  
  
  
  
  
  
  
  
  
  
  
  
  
  
  
  
  
  
  
  
  
  
  
  
  
  
  
  
  
  
  
  
  
  
  
  
  
  
  
  
  
  
  
  
  
  
  
  
  
  
  
  
  
  
  
  
  
  
  
  
  
  
  
  
  
  
  
  
  
  
  
  
  
  
  
  
  
  
  
  
  
  
  
  
  
  
  
  
  
  
  
  
  
  
  
  
  
  
  
  
  
  
  
  
  
  
  
  
  
  
  
  
  
  
  
  
  
  
  
  
  
  
  
  
  
  
  
  
  
  
  
  
  
  
  
  
  
  
  
  
  
  
  
  
  
  
  
  
  
  
  
  
  
  
  
  
  
  
  
  
  
  
  
  
  
  
  
  
  
  
  
  
  
  
  
  
  
  
  
  
  
  
  
  
  
  
  
  
  
  
  
  
  
  
  
  
  
  
  
  
  
  
  
  
  
  
  
  
  
  
  
  
  
  
  
  
  
  
  
  
  
  
  
  
  
  
  
  
  
  
  
  
  
  
  
  
  
  
  
  
  
  
  
  
  
  
  
  
  
  
  
  
  
  
  
  
  
  
  
  
  
  
  
  
  
  
  
  
  
  
  
  
  
  
  
  
  
  
  
  
  
  
  
  
  
  
  
  
  
  
  
  
  
  
  
  
  
  
  
  
  
  
  
  
  
  
  
  
  
  
  
  
  
  
  
  
  
  
  
  
  
  
  
  
  
  
  
  
  
  
  
  
  
  
  
  
  
  
  
  
  
  
  
  
  
  
  
  
  
  
  
  
  
  
  
  
  
  
  
  
  
  
  
  
  
  
  
  
  
  
  
  
  
  
  
  
  
  
  
  
  
  
  
  
  
  
  
  
  
  
  
  
  
  
  
  
  
  
  
  
  
  
  
  
  
  
  
  
  
  
  
  
  
  
  
  
  
  
  
  
  
  
  
  
  
  
  
  
  
  
  
  
  
  
  
  
  
  
  
  
  
  
  
  
  
  
  
  
  
  
  
  
  
  
  
  
  
  
  
  
  
  
  
  
  
  
  
  
  
  
  
  
  
  
  
  
  
  
  
  
  
  
  
  
  
  
  
  
  
  
  
  
  
  
  
  
  
  
  
  
  
  
  
  
  
  
  
  
  
  
  
  
  
  
  
  
  
  
  
  
  
  
  
  
  
  
  
  
  
  
  
  
  
  
  
  
  
  
  
  
  
  
  
  
  
  
  
  
  
  
  
  
  
  
  
  
  
  
  
  
  
  
  
  
  
  
  
  
  
  
  
  
  
  
  
  
  
  
  
  
  
  
  
  
  
  
  
  
  
  
  
  
  
  
  
  
  
  
  
  
  
  
  
  
  
  
  
  
  
  
  
  
  
  
  
  
  
  
  
  
  
  
  
  
  
  
  
  
  
  
  
  
  
  
  
  
  
  
  
  
  
  
  
  
  
  
  
  
  
  
  
  
  
  
  
  
  
  
  
  
  
  
  
  
  
  
  
  
  
  
  
  
  
  
  
  
  
  
  
  
  
  
  
  
  
  
  
  
  
  
  
  
  
  
  
  
  
  
  
  
  
  
  
  
  
  
  
  
  
  
  
  
  
  
  
  
  
  
  
  
  
  
  
  
  
  
  
  
  
  
  
  
  
  
  
  
  
  
  
  
  
  
  
  
  
  
  
  
  
  
  
  
  
  
  
  
  
  
  
  
  
  
  
  
  
  
  
  
  
  
  
  
  
  
  
  
  
  
  
  
  
  
  
  
  
  
  
  
  
  
  
  
  
  
  
  
  
  
  
  
  
  
  
  
  
  
  
  
  
  
  
  
  
  
  
  
  
  
  
  
  
  
  
  
  
  
  
  
  
  
  
  
  
  
  
  
  
  
  
  
  
  
  
  
  
  
  
  
  
  
  
  
  
  
  
  
  
  
  
  
  
  
  
  
  
  
  
  
  
  
  
  
  
  
  
  
  
  
  
  
  
  
  
  
  
  
  
  
  
  
  
  
  
  
  
  
  
  
  
  
  
  
  
  
  
  
  
  
  
  
  
  
  
  
  
  
  
  
  
  
  
  
  
  
  
  
  
  
  
  
  
  
  
  
  
  
  
  
  
  
  
  
  
  
  
  
  
  
  
  
  
  
  
  
  
  
  
  
  
  
  
  
  
  
  
  
  
  
  
  
  
  
  
  
  
  
  
  
  
  
  
  
  
  
  
  
  
  
  
  
  
  
  
  
  
  
  
  
  
  
  
  
  
  
  
  
  
  
  
  
  
  
  
  
  
  
  
  
  
  
  
  
  
  
  
  
  
  
  <path
   style="fill:#72b3dc;stroke:#c2dffb;stroke-width:1"
   d="m 37.02,5.702 9.551,2.51 4.741,1.19 2.466,0.609 -0.262,1.113 -0.613,2.096 -0.45,1.018 -0.523,2.128 -0.027,1.023 -1.352,5.458 -0.068,0.063 -1.077,-0.082 -0.018,-0.247 0.23,-0.257 0.158,-0.23 0.053,-0.149 -0.378,-1.37 -0.063,-0.14 -0.135,-0.211 -0.537,-0.298 -0.189,0.018 -0.978,0.324 -0.928,0.474 -2.362,-0.103 -0.591,-0.537 0.176,-0.636 -0.739,-0.302 -0.649,0.167 -0.437,0.144 -0.045,0.027 -0.018,0.036 -0.167,0.983 0.005,0.045 0.071,0.144 L 40.978,20.48 40.212,20.134 38.557,16.762 37.322,14.031 37.07,12.039 37.038,11.881 36.718,11.822 36.71,10.155 36.854,10.114 37.62,9.556 37.642,9.407 37.394,6.936 37.269,6.4 37.02,5.702"
   id="53047"
   inkscape:label="Okanogan, WA"
   inkscape:connector-curvature="0" />
  <path
   style="fill:#72b3dc;stroke:#c2dffb;stroke-width:1"
   id="53073"
   d="M 37.02,5.702 37.269,6.4 37.394,6.936 37.642,9.407 37.62,9.556 36.854,10.114 36.71,10.155 35.808,9.988 35.33,10.006 32.487,9.235 25.289,7.176 22.404,6.369 22.214,6.351 22.188,5.405 21.385,4.219 20.637,2.552 20.493,1.889 l 0.005,-0.045 0.081,-0.127 0.234,-0.184 0.243,-0.14 0.176,-0.099 2.907,0.834 2.542,0.725 2.858,0.861 5.192,1.37 2.289,0.618 M 18.487,0.5 18.541,0.514 18.943,0.631 18.969,0.969 18.902,0.992 18.451,0.829 18.487,0.5"
   inkscape:label="Whatcom, WA"
   inkscape:connector-curvature="0" />
  <path
   style="fill:#72b3dc;stroke:#c2dffb;stroke-width:1"
   d="m 3.249,32.203 0.369,-1.176 1.916,0.604 1.23,0.356 1.208,0.342 -0.73,2.637 L 5.85,34.908 5.782,34.885 5.404,34.295 5.601,33.718 5.507,33.416 5.376,33.182 5.34,33.123 5.313,33.109 5.263,33.078 4.682,33.046 3.249,32.203"
   id="53069"
   inkscape:label="Wahkiakum, WA"
   inkscape:connector-curvature="0" />
  <path
   style="fill:#72b3dc;stroke:#c2dffb;stroke-width:1"
   d="m 60.029,44.869 1.542,0.833 -0.189,0.563 0.283,1.141 0.013,0.045 0.086,0.712 0.055,1.108 -0.429,1.182 0.055,0.892 -4.945,-1.154 0.361,-1.554 0.527,0.121 0.572,-2.551 0.181,-0.726 0.225,-0.144 0.41,-0.094 1.109,0.265 0.144,-0.639"
   id="53003"
   inkscape:label="Asotin, WA"
   inkscape:connector-curvature="0" />
  <path
   style="fill:#72b3dc;stroke:#c2dffb;stroke-width:1"
   d="m 55.08,41.583 1.064,-0.609 0.117,-0.041 0.532,0.01 0.225,0.086 1.298,0.531 0.42,0.257 0.441,0.356 0.871,1.609 0.071,0.55 -0.09,0.537 -0.144,0.639 -1.109,-0.265 -0.41,0.094 -0.225,0.144 -0.181,0.726 -0.572,2.551 -0.527,-0.121 -0.361,1.554 -1.077,-0.261 0.352,-1.533 0.559,-2.74 -0.708,-1.92 -1.096,-0.252 0.271,-1.109 0.279,-0.793"
   id="53023"
   inkscape:label="Garfield, WA"
   inkscape:connector-curvature="0" />
  <path
   style="fill:#72b3dc;stroke:#c2dffb;stroke-width:1"
   d="m 51.718,41.2 0.099,0.089 0.279,0.487 0.086,0.05 0.383,0.063 0.077,-0.004 2.15,-0.136 0.288,-0.166 -0.279,0.793 -0.271,1.109 1.096,0.252 0.708,1.92 -0.559,2.74 -0.352,1.533 -3.277,-0.789 -0.166,-0.041 0.139,-0.423 0.523,-2.159 -1.095,-0.257 -0.83,-1.352 0.785,-3.322 0.216,-0.387"
   id="53013"
   inkscape:label="Columbia, WA"
   inkscape:connector-curvature="0" />
  <path
   style="fill:#72b3dc;stroke:#c2dffb;stroke-width:1"
   d="m 51.718,41.2 -0.216,0.387 -0.785,3.322 0.83,1.352 1.095,0.257 -0.523,2.159 -0.139,0.423 -8.663,-2.077 0.122,-2.529 0.126,-0.162 0.103,-0.095 0.397,-0.117 0.221,-0.027 0.883,0.054 0.663,-0.361 1.14,-0.721 0.451,-0.396 0.261,-0.32 0.343,-0.73 0.067,-0.113 0.266,-0.217 0.473,-0.278 0.789,-0.362 0.041,-0.004 1.352,0.217 0.59,0.22 0.113,0.118"
   id="53071"
   inkscape:label="Walla Walla, WA"
   inkscape:connector-curvature="0" />
  <path
   style="fill:#72b3dc;stroke:#c2dffb;stroke-width:1"
   d="m 42.285,36.994 1.555,0.379 3.596,0.924 4.629,1.072 -0.248,1.92 -0.099,-0.089 -0.113,-0.118 -0.59,-0.22 -1.352,-0.217 -0.041,0.004 -0.789,0.362 -0.473,0.278 -0.266,0.217 -0.067,0.113 -0.343,0.73 -0.261,0.32 -0.451,0.396 -1.14,0.721 -0.663,0.361 -0.883,-0.054 -0.221,0.027 -0.397,0.117 -0.103,0.095 -0.126,0.162 -0.568,-0.531 -0.203,-0.109 -0.252,-0.081 -0.267,-0.167 -0.414,-0.594 -0.014,-0.073 0.05,-0.108 0.703,-2.506 0,-0.41 -0.289,-0.469 -0.387,-0.545 -0.203,-0.46 -0.225,-0.748 0.013,-0.157 0.902,-0.542"
   id="53021"
   inkscape:label="Franklin, WA"
   inkscape:connector-curvature="0" />
  <path
   style="fill:#72b3dc;stroke:#c2dffb;stroke-width:1"
   d="m 57.181,33.695 6.743,1.564 -0.375,1.65 -1.649,7.337 -0.329,1.456 -1.542,-0.833 0.09,-0.537 -0.071,-0.55 -0.871,-1.609 -0.441,-0.356 -0.42,-0.257 -1.298,-0.531 -0.225,-0.086 -0.532,-0.01 -0.117,0.041 -1.064,0.609 -0.288,0.166 -2.15,0.136 -0.077,0.004 -0.383,-0.063 -0.086,-0.05 -0.279,-0.487 0.248,-1.92 1.762,0.023 0.325,-0.297 0.248,-0.28 0.36,-0.505 0.244,-0.572 1.004,-4.318 1.173,0.275"
   id="53075"
   inkscape:label="Whitman, WA"
   inkscape:connector-curvature="0" />
  <path
   style="fill:#72b3dc;stroke:#c2dffb;stroke-width:1"
   d="m 62.76,24.645 3.358,0.785 -0.194,0.851 -1.699,7.64 -0.301,1.338 -6.743,-1.564 1.672,-7.04 0.121,0.185 0.082,0.05 1.78,0.64 0.36,0.067 0.735,-3.15 0.829,0.198"
   id="53063"
   inkscape:label="Spokane, WA"
   inkscape:connector-curvature="0" />
  <path
   style="fill:#72b3dc;stroke:#c2dffb;stroke-width:1"
   d="m 68.872,13.571 -0.437,1.898 -2.317,9.961 -3.358,-0.785 0.248,-1.091 -0.207,-1.532 1.172,-5.08 -1.091,-0.247 0.248,-1.082 0.888,-1.023 0.626,-0.528 0.676,-0.301 0.226,-0.956 3.326,0.766"
   id="53051"
   inkscape:label="Pend Oreille, WA"
   inkscape:connector-curvature="0" />
  <path
   style="fill:#72b3dc;stroke:#c2dffb;stroke-width:1"
   d="m 65.546,12.805 -0.226,0.956 -0.676,0.301 -0.626,0.528 -0.888,1.023 -0.248,1.082 1.091,0.247 -1.172,5.08 0.207,1.532 -0.248,1.091 -0.829,-0.198 -0.735,3.15 -0.36,-0.067 -1.78,-0.64 -0.082,-0.05 -0.121,-0.185 -1.654,-0.207 -0.636,-0.126 -0.054,-0.257 -0.207,-0.672 -0.393,-0.987 -0.027,-0.031 -0.428,0.004 -0.563,0.225 -0.261,0.14 -0.131,-1.726 0.013,-0.054 0.055,-0.041 0.374,-0.144 0.166,0.036 1.032,-0.257 1.168,-1.789 0.135,-0.261 1.411,-4.629 0.153,-1.294 -0.022,-0.365 -0.194,-0.87 -0.117,-0.104 -0.045,-0.477 0.108,-0.721 0.099,-0.433 0.126,-0.162 0.162,-0.149 6.423,1.501"
   id="53065"
   inkscape:label="Stevens, WA"
   inkscape:connector-curvature="0" />
  <path
   style="fill:#72b3dc;stroke:#c2dffb;stroke-width:1"
   d="m 49.406,22.828 1.077,0.082 0.131,0.405 0.067,0.113 0.613,0.433 0.213,0.013 0.036,-0.076 1.464,0.468 0.198,0.411 0.465,0.549 0.329,0.207 0.081,0.023 0.126,0 0.131,-0.085 0.293,-0.627 0.261,-0.14 0.563,-0.225 0.428,-0.004 0.027,0.031 0.393,0.987 0.207,0.672 0.054,0.257 0.636,0.126 1.654,0.207 -1.672,7.04 -1.173,-0.275 -8.743,-2.118 2.141,-8.474"
   id="53043"
   inkscape:label="Lincoln, WA"
   inkscape:connector-curvature="0" />
  <path
   style="fill:#72b3dc;stroke:#c2dffb;stroke-width:1"
   d="m 56.008,33.42 -1.004,4.318 -0.244,0.572 -0.36,0.505 -0.248,0.28 -0.325,0.297 -1.762,-0.023 -4.629,-1.072 -3.596,-0.924 -1.555,-0.379 0.554,-2.181 1.185,0.297 2.137,0.546 1.104,-4.354 8.743,2.118"
   id="53001"
   inkscape:label="Adams, WA"
   inkscape:connector-curvature="0" />
  <path
   style="fill:#72b3dc;stroke:#c2dffb;stroke-width:1"
   d="m 49.388,22.581 0.018,0.247 -2.141,8.474 -1.104,4.354 -2.137,-0.546 -1.185,-0.297 -0.554,2.181 -0.902,0.542 0.045,-0.046 -0.008,-0.085 -0.213,-0.42 -0.098,-0.121 -0.113,-0.063 -0.072,0.027 -0.361,0.279 -0.27,0.234 -0.28,0.158 -0.235,0.086 -0.215,0.004 -1.6,-0.207 -0.303,-0.099 -0.071,-0.04 -0.505,-1.569 0.396,-0.424 0.185,-0.23 0.063,-0.166 0.077,-1.722 -0.208,-1.506 0.248,-0.68 0.298,-0.487 0.202,-0.73 0.005,-0.076 -0.014,-0.059 0.528,-1.195 1.289,-1.212 2.929,0.694 2.398,-1.848 1.569,-2.366 0.162,-0.645 1.145,-0.694 1.032,0.253"
   id="53025"
   inkscape:label="Grant, WA"
   inkscape:connector-curvature="0" />
  <path
   style="fill:#72b3dc;stroke:#c2dffb;stroke-width:1"
   d="m 37.589,37.243 0.071,0.04 0.303,0.099 1.6,0.207 0.215,-0.004 0.235,-0.086 0.28,-0.158 0.27,-0.234 0.361,-0.279 0.072,-0.027 0.113,0.063 0.098,0.121 0.213,0.42 0.008,0.085 -0.045,0.046 -0.013,0.157 0.225,0.748 0.203,0.46 0.387,0.545 0.289,0.469 0,0.41 -0.703,2.506 -0.05,0.108 0.014,0.073 0.414,0.594 0.267,0.167 0.252,0.081 0.203,0.109 0.568,0.531 -0.122,2.529 -0.253,0.212 -0.193,0.085 -0.658,0.19 -0.32,0.049 -0.392,-0.027 -0.23,-0.058 -0.248,-0.127 -1.352,-0.185 -0.51,-0.031 -0.509,-0.032 -1.749,0.216 -0.937,-0.089 -0.861,-0.09 0.933,-3.543 0.203,-0.834 0.022,-0.356 1.326,-5.16"
   id="53005"
   inkscape:label="Benton, WA"
   inkscape:connector-curvature="0" />
  <path
   style="fill:#72b3dc;stroke:#c2dffb;stroke-width:1"
   d="m 35.777,44.584 -0.672,2.552 -1.24,0 -1.352,0.166 -0.288,0.072 L 31.756,47.73 29.98,47.622 29.277,47.5 29.093,47.379 28.984,47.221 28.75,46.78 l -0.252,-0.177 -0.384,-0.094 -0.189,0.063 -0.388,0.185 -0.964,0.135 -0.793,0.122 -0.469,0.144 -0.194,-0.257 -3.272,-1.532 -0.311,-0.063 -0.617,-0.091 -0.614,-0.532 0.235,-0.667 -0.789,-0.261 0.28,-1.154 0.586,-2.095 0.766,0.207 0.856,0.23 2.353,0.635 0.721,0.226 4.142,1.131 6.324,1.649"
   id="53039"
   inkscape:label="Klickitat, WA"
   inkscape:connector-curvature="0" />
  <path
   style="fill:#72b3dc;stroke:#c2dffb;stroke-width:1"
   d="m 9.771,40.023 1.375,-0.703 1.374,-0.293 0.41,0.063 0.203,0.099 0.158,0.162 0.266,0.127 0.802,-0.311 0.807,-0.325 -0.51,1.817 -0.59,1.942 -0.708,2.506 -0.149,0.005 -0.018,0 L 12.943,45.049 12.935,45.044 12.641,44.9 10.14,43.359 9.901,43.178 9.442,42.696 9.266,42.471 9.257,42.155 9.343,41.921 9.536,41.596 9.771,40.023"
   id="53011"
   inkscape:label="Clark, WA"
   inkscape:connector-curvature="0" />
  <path
   style="fill:#72b3dc;stroke:#c2dffb;stroke-width:1"
   d="m 22.557,36.444 -1.176,4.269 -0.766,-0.207 -0.586,2.095 -0.28,1.154 0.789,0.261 -0.235,0.667 -0.968,-0.018 -0.744,-0.058 -0.244,-0.059 -0.621,-0.342 -0.532,0.031 -0.383,0.198 -0.253,0.226 -3.2,0.446 0.708,-2.506 0.59,-1.942 0.51,-1.817 1.198,-4.092 6.193,1.694"
   id="53059"
   inkscape:label="Skamania, WA"
   inkscape:connector-curvature="0" />
  <path
   style="fill:#72b3dc;stroke:#c2dffb;stroke-width:1"
   d="m 16.364,34.75 -1.198,4.092 -0.807,0.325 -0.802,0.311 L 13.291,39.351 13.133,39.189 12.93,39.09 12.52,39.027 11.146,39.32 9.771,40.023 9.838,39.811 9.919,38.585 9.667,37.18 9.581,36.841 8.126,35.057 7.702,34.881 l -0.46,0.085 0.73,-2.637 1.091,0.284 0.69,0.199 5.061,1.474 1.55,0.464"
   id="53015"
   inkscape:label="Cowlitz, WA"
   inkscape:connector-curvature="0" />
  <path
   style="fill:#72b3dc;stroke:#c2dffb;stroke-width:1"
   d="M 1.96,25.041 4.006,25.7 6.138,26.304 8.148,26.926 7.58,29.003 7.368,29.914 7.12,30.82 6.764,31.987 5.534,31.631 3.618,31.027 3.249,32.203 1.793,32.438 1.527,32.28 0.5,30.874 1.185,28.846 1.338,29.301 1.536,29.4 1.64,29.391 2.095,29.341 2.663,28.9 2.739,28.733 3.271,26.921 3.312,26.16 2.577,26.393 2.424,26.416 2.289,26.286 1.883,25.812 1.838,25.736 1.816,25.704 1.793,25.637 1.96,25.041"
   id="53049"
   inkscape:label="Pacific, WA"
   inkscape:connector-curvature="0" />
  <path
   style="fill:#72b3dc;stroke:#c2dffb;stroke-width:1"
   d="m 8.148,26.926 1.794,0.513 -0.108,0.361 1.969,0.581 6.216,1.799 1.352,0.653 1.722,0.622 0.139,-0.135 0.365,-0.23 0.117,-0.058 0.176,-0.045 2.605,0.716 0.316,0.843 0.04,0.383 -1.032,3.561 -0.135,0.243 -0.036,0.009 L 23.585,36.729 22.557,36.444 16.364,34.75 14.814,34.286 9.753,32.812 9.063,32.613 7.972,32.329 6.764,31.987 7.12,30.82 7.368,29.914 7.58,29.003 8.148,26.926"
   id="53041"
   inkscape:label="Lewis, WA"
   inkscape:connector-curvature="0" />
  <path
   style="fill:#72b3dc;stroke:#c2dffb;stroke-width:1"
   d="m 10.645,23.748 1.077,0.32 1.915,-0.406 0.262,-0.104 0.37,-0.215 0.559,1.762 0.067,0.793 0.212,0.487 0.87,1.686 0.243,0.36 0.302,0.252 0.253,0.117 1.244,1.38 -6.216,-1.799 -1.969,-0.581 0.108,-0.361 0.703,-3.691"
   id="53067"
   inkscape:label="Thurston, WA"
   inkscape:connector-curvature="0" />
  <path
   style="fill:#72b3dc;stroke:#c2dffb;stroke-width:1"
   d="m 15.188,20.809 2.393,0.704 -0.261,0.514 0.82,0.743 0.505,0.897 2.123,1.839 0.735,0.414 1.018,0.375 0.028,-0.041 0.297,-0.144 0.067,-0.027 0.05,0.009 0.108,0.031 1.186,0.591 0.586,0.568 1.018,0.739 0.306,0.108 -0.103,0.406 -1.38,1.496 -0.085,1.537 -0.018,0.045 -0.086,0.09 -2.605,-0.716 -0.176,0.045 -0.117,0.058 -0.365,0.23 -0.139,0.135 -1.722,-0.622 -1.352,-0.653 -1.244,-1.38 -0.253,-0.117 -0.302,-0.252 -0.243,-0.36 -0.87,-1.686 -0.212,-0.487 -0.067,-0.793 -0.559,-1.762 -0.05,-0.803 0.014,-0.067 0.076,-0.167 0.081,-0.09 0.185,-0.113 0.171,-0.144 0.145,-0.212 0.13,-0.383 0.167,-0.555"
   id="53053"
   inkscape:label="Pierce, WA"
   inkscape:connector-curvature="0" />
  <path
   style="fill:#72b3dc;stroke:#c2dffb;stroke-width:1"
   d="m 26.167,28.129 0.848,0.202 0.184,0.141 0.74,0.96 0.284,0.491 0.009,0.04 0.018,0.293 0.248,0.695 0.103,0.171 3.358,0.893 -0.032,1.13 0.537,1.312 3.101,0.848 1.519,0.369 0.505,1.569 -1.326,5.16 -0.022,0.356 -0.203,0.834 -0.261,0.991 -6.324,-1.649 -4.142,-1.131 -0.721,-0.226 -2.353,-0.635 -0.856,-0.23 1.176,-4.269 1.028,0.285 0.063,0.013 0.036,-0.009 0.135,-0.243 1.032,-3.561 -0.04,-0.383 -0.316,-0.843 0.086,-0.09 0.018,-0.045 0.085,-1.537 1.38,-1.496 0.103,-0.406"
   id="53077"
   inkscape:label="Yakima, WA"
   inkscape:connector-curvature="0" />
  <path
   style="fill:#72b3dc;stroke:#c2dffb;stroke-width:1"
   d="m 26.167,28.129 0.028,-0.581 0.171,-2.957 0.027,-0.153 1.117,-0.902 1.668,-1 0.974,-0.104 0.446,0.965 0.681,1.311 0.703,0.523 0.725,0.591 1.6,1.297 0.492,0.578 0.171,0.292 0.234,0.248 2.52,0.64 0.612,0.717 0.014,0.059 -0.005,0.076 -0.202,0.73 -0.298,0.487 -0.248,0.68 0.208,1.506 -0.077,1.722 -0.063,0.166 -0.185,0.23 -0.396,0.424 -1.519,-0.369 -3.101,-0.848 -0.537,-1.312 0.032,-1.13 -3.358,-0.893 -0.103,-0.171 -0.248,-0.695 -0.018,-0.293 -0.009,-0.04 -0.284,-0.491 -0.74,-0.96 -0.184,-0.141 -0.848,-0.202"
   id="53037"
   inkscape:label="Kittitas, WA"
   inkscape:connector-curvature="0" />
  <path
   style="fill:#72b3dc;stroke:#c2dffb;stroke-width:1"
   d="m 49.388,22.581 -1.032,-0.253 -1.145,0.694 -0.162,0.645 -1.569,2.366 -2.398,1.848 -2.929,-0.694 -1.289,1.212 -0.528,1.195 -0.612,-0.717 0.09,-0.175 0.112,-0.307 0.126,-0.379 -0.008,-0.072 -0.284,-0.437 -0.871,-0.392 -0.13,-0.072 -0.248,-0.216 -0.036,-0.108 -0.027,-0.442 0,-0.312 0.063,-0.184 0.271,-0.563 1.406,-2.484 0.126,-0.14 0.081,-0.054 0.126,-0.049 0.55,-0.072 0.108,0.049 0.113,0.117 0.045,0.072 0.059,0.023 0.842,-0.023 1.037,-1.014 0.622,-0.68 0,-0.099 -0.032,-0.154 -0.071,-0.144 -0.005,-0.045 0.167,-0.983 0.018,-0.036 0.045,-0.027 0.437,-0.144 0.649,-0.167 0.739,0.302 -0.176,0.636 0.591,0.537 2.362,0.103 0.928,-0.474 0.978,-0.324 0.189,-0.018 0.537,0.298 0.135,0.211 0.063,0.14 0.378,1.37 -0.053,0.149 -0.158,0.23 -0.23,0.257"
   id="53017"
   inkscape:label="Douglas, WA"
   inkscape:connector-curvature="0" />
  <path
   style="fill:#72b3dc;stroke:#c2dffb;stroke-width:1"
   d="m 53.778,10.011 5.345,1.293 -0.162,0.149 -0.126,0.162 -0.099,0.433 -0.108,0.721 0.045,0.477 0.117,0.104 0.194,0.87 0.022,0.365 -0.153,1.294 -1.411,4.629 -0.135,0.261 -1.168,1.789 -1.032,0.257 -0.166,-0.036 -0.374,0.144 -0.055,0.041 -0.013,0.054 0.131,1.726 -0.293,0.627 -0.131,0.085 -0.126,0 -0.081,-0.023 -0.329,-0.207 -0.465,-0.549 -0.198,-0.411 -1.464,-0.468 -0.036,0.076 -0.213,-0.013 -0.613,-0.433 -0.067,-0.113 -0.131,-0.405 0.068,-0.063 1.352,-5.458 0.027,-1.023 0.523,-2.128 0.45,-1.018 0.613,-2.096 0.262,-1.113"
   id="53019"
   inkscape:label="Ferry, WA"
   inkscape:connector-curvature="0" />
  <path
   style="fill:#72b3dc;stroke:#c2dffb;stroke-width:1"
   id="53055"
   d="M 17.987,8.041 18.041,7.59 18.217,7.153 18.42,6.887 18.825,6.9 19.479,6.883 19.353,7.18 19.307,7.288 18.821,8.212 18.726,8.271 18.195,8.172 18.118,8.14 17.987,8.041 M 17.063,5.125 17.045,5.792 17.293,6.495 17.482,7.198 17.217,7.446 16.973,7.257 16.419,6.662 16.283,6.454 16.234,6.324 16.189,6.103 16.08,5.265 l 0.018,-0.077 0.1,-0.113 0.198,-0.144 0.23,0.049 0.437,0.145 m 2.655,0.599 -0.077,0.005 -0.194,0.135 -0.009,0.045 -0.036,0.248 -0.004,0.14 0.036,0.058 -1.632,0.131 -0.108,-0.442 -0.126,-0.649 0,-0.207 0.342,-0.248 0.749,-0.468 0.22,-0.028 0.203,0.041 0.145,0.076 0.306,0.275 0.618,0.663 0.004,0.018 -0.149,0.103 -0.288,0.104"
   inkscape:label="San Juan, WA"
   inkscape:connector-curvature="0" />
  <path
   style="fill:#72b3dc;stroke:#c2dffb;stroke-width:1"
   d="m 20.25,8.96 0.045,-0.036 0.081,-0.036 0.058,0.041 0.028,0.063 0.058,0.158 0.316,1.081 0.04,0.149 -0.018,0.126 -0.018,0.028 -0.185,0.112 -0.081,0.018 -0.176,-0.041 -0.054,-0.022 -0.09,-0.198 -0.067,-0.059 -0.127,-0.041 -0.176,0.005 -0.085,0.045 -0.302,0.23 -0.225,0.261 -0.05,0.208 0.554,1.546 0.19,0.36 0.108,0.018 0.171,0.095 0.559,0.924 0.162,0.581 -0.085,0.374 -0.145,0.28 -0.315,0.23 -0.302,-0.036 -0.816,-1.628 -0.193,-0.775 -0.177,-0.622 -0.531,-1.342 0.243,-0.654 1.235,-1.524 0.18,0 0.19,0.081"
   id="53029"
   inkscape:label="Island, WA"
   inkscape:connector-curvature="0" />
  <path
   style="fill:#72b3dc;stroke:#c2dffb;stroke-width:1"
   d="m 21.904,10.84 4.534,1.275 2.168,0.609 0.631,0.189 4.187,1.149 0.095,1.159 -0.149,0.703 -0.153,0.527 -0.717,0.234 -0.05,-0.008 -0.649,0.054 -0.365,0.126 -0.667,1.307 -0.121,1.108 0.067,0.889 -2.542,-0.699 -0.307,-0.059 -1.09,-0.279 -4.138,-1.141 -2.709,-0.793 0.005,-0.027 0.099,-0.284 1.248,-1.582 0.271,-0.022 0.252,0.032 0.204,-0.095 0.049,-0.059 0.148,-0.491 -0.008,-0.181 -0.343,-0.36 -0.356,-0.739 -0.081,-0.374 -0.005,-0.023 0.095,-0.316 0.09,-0.279 -0.076,-0.739 0,-0.32 0.383,-0.491"
   id="53061"
   inkscape:label="Snohomish, WA"
   inkscape:connector-curvature="0" />
  <path
   style="fill:#72b3dc;stroke:#c2dffb;stroke-width:1"
   d="m 30.715,20.161 0.203,0.581 -0.095,0.198 -0.523,0.473 -0.027,0.055 -0.032,0.197 -0.089,0.767 -0.974,0.104 -1.668,1 -1.117,0.902 -0.027,0.153 -0.171,2.957 -0.028,0.581 -0.306,-0.108 -1.018,-0.739 -0.586,-0.568 -1.186,-0.591 -0.108,-0.031 -0.05,-0.009 -0.067,0.027 -0.297,0.144 -0.028,0.041 -1.018,-0.375 -0.735,-0.414 -2.123,-1.839 -0.505,-0.897 0.762,-0.059 0.126,-0.058 0.145,-0.532 0.008,-0.122 0.005,-1.072 0.369,-2.664 0.374,-1.073 2.709,0.793 4.138,1.141 1.09,0.279 0.307,0.059 2.542,0.699"
   id="53033"
   inkscape:label="King, WA"
   inkscape:connector-curvature="0" />
  <path
   style="fill:#72b3dc;stroke:#c2dffb;stroke-width:1"
   d="m 16.815,16.771 1.613,-1.064 0.366,-0.77 0.352,0.148 0.13,0.212 0.027,0.343 -0.175,1.204 -0.686,2.438 -0.207,0.96 -0.654,1.271 -2.393,-0.704 0.428,-1.424 -1.262,-0.401 -0.374,-0.076 -0.374,-0.109 0.126,-0.139 0.681,-0.623 0.054,-0.036 0.185,-0.045 2.163,-1.185"
   id="53035"
   inkscape:label="Kitsap, WA"
   inkscape:connector-curvature="0" />
  <path
   style="fill:#72b3dc;stroke:#c2dffb;stroke-width:1"
   d="m 9.663,17.668 0.328,-1.095 4.661,1.383 -0.185,0.045 -0.054,0.036 -0.681,0.623 -0.126,0.139 0.374,0.109 0.374,0.076 1.262,0.401 -0.595,1.979 -0.13,0.383 -0.145,0.212 -0.171,0.144 -0.185,0.113 -0.081,0.09 -0.076,0.167 -0.014,0.067 0.05,0.803 -0.37,0.215 -0.262,0.104 -1.915,0.406 -1.077,-0.32 -2.398,-0.676 -0.045,-0.018 0.5,-2.2 0.961,-3.186"
   id="53045"
   inkscape:label="Mason, WA"
   inkscape:connector-curvature="0" />
  <path
   style="fill:#72b3dc;stroke:#c2dffb;stroke-width:1"
   d="m 2.577,15.311 1.911,0.581 0.608,0.397 4.567,1.379 -0.961,3.186 -0.5,2.2 0.045,0.018 2.398,0.676 L 9.942,27.439 8.148,26.926 6.138,26.304 4.006,25.7 1.96,25.041 2.072,23.924 2.402,23.739 2.776,23.951 4.335,23.807 4.547,23.762 4.56,23.757 4.47,23.563 3.452,22.328 3.158,22.094 2.821,21.968 2.194,17.578 2.198,17.42 2.275,16.794 2.577,15.311"
   id="53027"
   inkscape:label="Grays Harbor, WA"
   inkscape:connector-curvature="0" />
  <path
   style="fill:#72b3dc;stroke:#c2dffb;stroke-width:1"
   d="m 1.734,10.398 1.447,0.415 0.514,0.18 2.091,0.649 3.141,0.942 1.326,0.465 0.64,0.324 4.71,1.379 0.802,-2.844 1.122,-0.158 0.442,0.014 0.198,0.054 0.465,0.69 -0.379,2.361 -1.203,1.19 -0.235,0.505 -0.045,0.139 0.045,0.068 -2.163,1.185 L 9.991,16.573 9.663,17.668 5.096,16.289 4.488,15.892 2.577,15.311 2.605,15.158 2.658,14.635 2.708,14.026 2.748,12.62 2.735,12.508 2.505,11.489 2.456,11.399 2.086,10.7 2.077,10.691 2.064,10.673 1.915,10.493 1.734,10.398"
   id="53031"
   inkscape:label="Jefferson, WA"
   inkscape:connector-curvature="0" />
  <path
   style="fill:#72b3dc;stroke:#c2dffb;stroke-width:1"
   d="M 1.734,10.398 1.64,10.15 1.622,9.001 1.847,6.784 2.632,3.975 2.699,3.931 2.784,3.908 3.317,4.061 3.614,4.323 3.889,4.566 4.218,4.9 l 0.104,0.108 0.64,0.766 2.56,2.429 0.531,0.333 0.915,0.411 3.557,1.555 1.766,0.401 1.235,0.45 0.879,0.555 -0.802,2.844 -4.71,-1.379 -0.64,-0.324 L 8.927,12.584 5.786,11.642 3.695,10.993 3.181,10.813 1.734,10.398"
   id="53009"
   inkscape:label="Clallam, WA"
   inkscape:connector-curvature="0" />
  <path
   style="fill:#72b3dc;stroke:#c2dffb;stroke-width:1"
   d="m 36.71,10.155 0.008,1.667 -1.289,-0.523 -0.793,-0.013 -0.969,0.316 -0.086,0.076 -0.117,0.226 -0.486,1.645 0.446,0.513 -4.187,-1.149 -0.631,-0.189 -2.168,-0.609 -4.534,-1.275 -0.154,-0.424 -0.292,-1.87 0.274,-0.054 0.023,-0.014 0.816,-1.456 -0.113,-0.338 -0.244,-0.333 0.19,0.018 2.885,0.807 7.198,2.059 2.843,0.771 0.478,-0.018 0.902,0.167"
   id="53057"
   inkscape:label="Skagit, WA"
   inkscape:connector-curvature="0" />
  <path
   style="fill:#72b3dc;stroke:#c2dffb;stroke-width:1"
   d="m 36.718,11.822 0.32,0.059 0.032,0.158 0.252,1.992 1.235,2.731 1.655,3.372 0.766,0.346 0.887,0.23 0.032,0.154 0,0.099 -0.622,0.68 -1.037,1.014 -0.842,0.023 -0.059,-0.023 -0.045,-0.072 -0.113,-0.117 -0.108,-0.049 -0.55,0.072 -0.126,0.049 -0.081,0.054 -0.126,0.14 -1.406,2.484 -0.271,0.563 -0.063,0.184 0,0.312 0.027,0.442 0.036,0.108 0.248,0.216 0.13,0.072 0.871,0.392 0.284,0.437 0.008,0.072 -0.126,0.379 -0.112,0.307 -0.09,0.175 -2.52,-0.64 -0.234,-0.248 -0.171,-0.292 -0.492,-0.578 -1.6,-1.297 -0.725,-0.591 -0.703,-0.523 -0.681,-1.311 -0.446,-0.965 0.089,-0.767 0.032,-0.197 0.027,-0.055 0.523,-0.473 0.095,-0.198 -0.203,-0.581 -0.067,-0.889 0.121,-1.108 0.667,-1.307 0.365,-0.126 0.649,-0.054 0.05,0.008 0.717,-0.234 0.153,-0.527 0.149,-0.703 -0.095,-1.159 -0.446,-0.513 0.486,-1.645 0.117,-0.226 0.086,-0.076 0.969,-0.316 0.793,0.013 1.289,0.523"
   id="53007"
   inkscape:label="Chelan, WA"
   inkscape:connector-curvature="0" />
  
  
  
  
  
  
  
  
  
  
  
  
  
  
  
  
  
  
  
  
  
  
  
  
  
  
  
  
  
  
  
  
  
  
  
  
  
  
  
  
  
  
  
  
  
  
  
  
  
  
  
  
  
  
  
  
  
  
  
  
  
  
  
  
  
  
  
  
  
  
  
  
  
  
  
  
  
  
  
  
  
  
  
  
  
  
  
  
  
  
  
  
  
  
  
  
  
  
  
  
  
  
  
  
  
  
  
  
  
  
  
  
  
  
  
  
  
  
  
  
  
  
  
  
  
  
  
  
  
  
  
  
  
  
  
  
  
  
  
  
  
  
  
  
  
  
  
  
  
  
  
  
  
</svg>