<?xml version="1.0" encoding="UTF-8" standalone="no"?>
<!--?xml version="1.0" encoding="UTF-8" standalone="no"?-->

<svg
   xmlns:dc="http://purl.org/dc/elements/1.1/"
   xmlns:cc="http://creativecommons.org/ns#"
   xmlns:rdf="http://www.w3.org/1999/02/22-rdf-syntax-ns#"
   xmlns:svg="http://www.w3.org/2000/svg"
   xmlns="http://www.w3.org/2000/svg"
   xmlns:sodipodi="http://sodipodi.sourceforge.net/DTD/sodipodi-0.dtd"
   xmlns:inkscape="http://www.inkscape.org/namespaces/inkscape"
   width="59.357201"
   height="63.078655"
   viewBox="0 0 54.868001 57.619925"
   preserveAspectRatio="xMinYMin meet"
   xml:space="preserve"
   id="svg3377"
   version="1.1"
   inkscape:version="0.48.2 r9819"
   sodipodi:docname="WI.svg"><metadata
   id="metadata3455"><rdf:RDF><cc:Work
       rdf:about=""><dc:format>image/svg+xml</dc:format><dc:type
         rdf:resource="http://purl.org/dc/dcmitype/StillImage" /></cc:Work></rdf:RDF></metadata><defs
   id="defs3453" /><sodipodi:namedview
   pagecolor="#ffffff"
   bordercolor="#666666"
   borderopacity="1"
   objecttolerance="10"
   gridtolerance="10"
   guidetolerance="10"
   inkscape:pageopacity="0"
   inkscape:pageshadow="2"
   inkscape:window-width="640"
   inkscape:window-height="480"
   id="namedview3451"
   showgrid="false"
   inkscape:zoom="0.56730769"
   inkscape:cx="-49.922642"
   inkscape:cy="-82.924509"
   inkscape:window-x="0"
   inkscape:window-y="0"
   inkscape:window-maximized="0"
   inkscape:current-layer="svg3377" />
  
  
  
  
  
  
  
  
  
  
  
  
  
  
  
  
  
  
  
  
  
  
  
  
  
  
  
  
  
  
  
  
  
  
  
  
  
  
  
  
  
  
  
  
  
  
  
  
  
  
  
  
  
  
  
  
  
  
  
  
  
  
  
  
  
  
  
  
  
  
  
  
  
  
  
  
  
  
  
  
  
  
  
  
  
  
  
  
  
  
  
  
  
  
  
  
  
  
  
  
  
  
  
  
  
  
  
  
  
  
  
  
  
  
  
  
  
  
  
  
  
  
  
  
  
  
  
  
  
  
  
  
  
  
  
  
  
  
  
  
  
  
  
  
  
  
  
  
  
  
  
  
  
  
  
  
  
  
  
  
  
  
  
  
  
  
  
  
  
  
  
  
  
  
  
  
  
  
  
  
  
  
  
  
  
  
  
  
  
  
  
  
  
  
  
  
  
  
  
  
  
  
  
  
  
  
  
  
  
  
  
  
  
  
  
  
  
  
  
  
  
  
  
  
  
  
  
  
  
  
  
  
  
  
  
  
  
  
  
  
  
  
  
  
  
  
  
  
  
  
  
  
  
  
  
  
  
  
  
  
  
  
  
  
  
  
  
  
  
  
  
  
  
  
  
  
  
  
  
  
  
  
  
  
  
  
  
  
  
  
  
  
  
  
  
  
  
  
  
  
  
  
  
  
  
  
  
  
  
  
  
  
  
  
  
  
  
  
  
  
  
  
  
  
  
  
  
  
  
  
  
  
  
  
  
  
  
  
  
  
  
  
  
  
  
  
  
  
  
  
  
  
  
  
  
  
  
  
  
  
  
  
  
  
  
  
  
  
  
  
  
  
  
  
  
  
  
  
  
  
  
  
  
  
  
  
  
  
  
  
  
  
  
  
  
  
  
  
  
  
  
  
  
  
  
  
  
  
  
  
  
  
  
  
  
  
  
  
  
  
  
  
  
  
  
  
  
  
  
  
  
  
  
  
  
  
  
  
  
  
  
  
  
  
  
  
  
  
  
  
  
  
  
  
  
  
  
  
  
  
  
  
  
  
  
  
  
  
  
  
  
  
  
  
  
  
  
  
  
  
  
  
  
  
  
  
  
  
  
  
  
  
  
  
  
  
  
  
  
  
  
  
  
  
  
  
  
  
  
  
  
  
  
  
  
  
  
  
  
  
  
  
  
  
  
  
  
  
  
  
  
  
  
  
  
  
  
  
  
  
  
  
  
  
  
  
  
  
  
  
  
  
  
  
  
  
  
  
  
  
  
  
  
  
  
  
  
  
  
  
  
  
  
  
  
  
  
  
  
  
  
  
  
  
  
  
  
  
  
  
  
  
  
  
  
  
  
  
  
  
  
  
  
  
  
  
  
  
  
  
  
  
  
  
  
  
  
  
  
  
  
  
  
  
  
  
  
  
  
  
  
  
  
  
  
  
  
  
  
  
  
  
  
  
  
  
  
  
  
  
  
  
  
  
  
  
  
  
  
  
  
  
  
  
  
  
  
  
  
  
  
  
  
  
  
  
  
  
  
  
  
  
  
  
  
  
  
  
  
  
  
  
  
  
  
  
  
  
  
  
  
  
  
  
  
  
  
  
  
  
  
  
  
  
  
  
  
  
  
  
  
  
  
  
  
  
  
  
  
  
  
  
  
  
  
  
  
  
  
  
  
  
  
  
  
  
  
  
  
  
  
  
  
  
  
  
  
  
  
  
  
  
  
  
  
  
  
  
  
  
  
  
  
  
  
  
  
  
  
  
  
  
  
  
  
  
  
  
  
  
  
  
  
  
  
  
  
  
  
  
  
  
  
  
  
  
  
  
  
  
  
  
  
  
  
  
  
  
  
  
  
  
  
  
  
  
  
  
  
  
  
  
  
  
  
  
  
  
  
  
  
  
  
  
  
  
  
  
  
  
  
  
  
  
  
  
  
  
  
  
  
  
  
  
  
  
  
  
  
  
  
  
  
  
  
  
  
  
  
  
  
  
  
  
  
  
  
  
  
  
  
  
  
  
  
  
  
  
  
  
  
  
  
  
  
  
  
  
  
  
  
  
  
  
  
  
  
  
  
  
  
  
  
  
  
  
  
  
  
  
  
  
  
  
  
  
  
  
  
  
  
  
  
  
  
  
  
  
  
  
  
  
  
  
  
  
  
  
  
  
  
  
  
  
  
  
  
  
  
  
  
  
  
  
  
  
  
  
  
  
  
  
  
  
  
  
  
  
  
  
  
  
  
  
  
  
  
  
  
  
  
  
  
  
  
  
  
  
  
  
  
  
  
  
  
  
  
  
  
  
  
  
  
  
  
  
  
  
  
  
  
  
  
  
  
  
  
  
  
  
  
  
  
  
  
  
  
  
  
  
  
  
  
  
  
  
  
  
  
  
  
  
  
  
  
  
  
  
  
  
  
  
  
  
  
  
  
  
  
  
  
  
  
  
  
  
  
  
  
  
  
  
  
  
  
  
  
  
  
  
  
  
  
  
  
  
  
  
  
  
  
  
  
  
  
  
  
  
  
  
  
  
  
  
  
  
  
  
  
  
  
  
  
  
  
  
  
  
  
  
  
  
  
  
  
  
  
  
  
  
  
  
  
  
  
  
  
  
  
  
  
  
  
  
  
  
  
  
  
  
  
  
  
  
  
  
  
  
  
  
  
  
  
  
  
  
  
  
  
  
  
  
  
  
  
  
  
  
  
  
  
  
  
  
  
  
  
  
  
  
  
  
  
  
  
  
  
  
  
  
  
  
  
  
  
  
  
  
  
  
  
  
  
  
  
  
  
  
  
  
  
  
  
  
  
  
  
  
  
  
  
  
  
  
  
  
  
  
  
  
  
  
  
  
  
  
  
  
  
  
  
  
  
  
  
  
  
  
  
  
  
  
  
  
  
  
  
  
  
  
  
  
  
  
  
  
  
  
  
  
  
  
  
  
  
  
  
  
  
  
  
  
  
  
  
  
  
  
  
  
  
  
  
  
  
  
  
  
  
  
  
  
  
  
  
  
  
  
  
  
  
  
  
  
  
  
  
  
  
  
  
  
  
  
  
  
  
  
  
  
  
  
  
  
  
  
  
  
  
  
  
  
  
  
  
  
  
  
  
  
  
  
  
  
  
  
  
  
  
  
  
  
  
  
  
  
  
  
  
  
  
  
  
  
  
  
  
  
  
  
  
  
  
  
  
  
  
  
  
  
  
  
  
  
  
  
  
  
  
  
  
  
  
  
  
  
  
  
  
  
  
  
  
  
  
  
  
  
  
  
  
  
  
  
  
  
  
  
  
  
  
  
  
  
  
  
  
  
  
  
  
  
  
  
  
  
  
  
  
  
  
  
  
  
  
  
  
  
  
  
  
  
  
  
  
  
  
  
  
  
  
  
  
  
  
  
  
  
  
  
  
  
  
  
  
  
  
  
  
  
  
  
  
  
  
  
  
  
  
  
  
  
  
  
  
  
  
  
  
  
  
  
  
  
  
  
  
  
  
  
  
  
  
  
  
  
  
  
  
  
  
  
  
  
  
  
  
  
  
  
  
  
  
  
  
  
  
  
  
  
  
  
  
  
  
  
  
  
  
  
  
  
  
  
  
  
  
  
  
  
  
  
  
  
  
  
  
  
  
  
  
  
  
  
  
  
  
  
  
  
  
  
  
  
  
  
  
  
  
  
  
  
  
  
  
  
  
  
  
  
  
  
  
  
  
  
  
  
  
  
  
  
  
  
  
  
  
  
  
  
  
  
  
  
  
  
  
  
  
  
  
  
  
  
  
  
  
  
  
  
  
  
  
  
  
  
  
  
  
  
  
  
  
  
  
  
  
  
  
  
  
  
  
  
  
  
  
  
  
  
  
  
  
  
  
  
  
  
  
  
  
  
  
  
  
  
  
  
  
  
  
  
  
  
  
  
  
  
  
  
  
  
  
  
  
  
  
  
  
  
  
  
  
  
  
  
  
  
  
  
  
  
  
  
  
  
  
  
  
  
  
  
  
  
  
  
  
  
  
  
  
  
  
  
  
  
  
  
  
  
  
  
  
  
  
  
  
  
  
  
  
  
  
  
  
  
  
  
  
  
  
  
  
  
  
  
  
  
  
  
  
  
  
  
  
  
  
  
  
  
  
  
  
  
  
  
  
  
  
  
  
  
  
  
  
  
  
  
  
  
  
  
  
  
  
  
  
  
  
  
  
  
  
  
  
  
  
  
  
  
  
  
  
  
  
  
  
  
  
  
  
  
  
  
  
  
  
  
  
  
  
  
  
  
  
  
  
  
  
  
  
  
  
  
  
  
  
  
  
  
  
  
  
  
  
  
  
  
  
  
  
  
  
  
  
  
  
  
  
  
  
  
  
  
  
  
  
  
  
  
  
  
  
  
  
  
  
  
  
  
  
  
  
  
  
  
  
  
  
  
  
  
  
  
  
  
  
  
  
  
  
  
  
  
  
  
  
  
  
  
  
  
  
  
  
  
  
  
  
  
  
  
  
  
  
  
  
  
  
  
  
  
  
  
  
  
  
  
  
  
  
  
  
  
  
  
  
  
  
  
  
  
  
  
  
  
  
  
  
  
  
  
  
  
  
  
  
  
  
  
  
  
  
  
  
  
  
  
  
  
  
  
  
  
  
  
  
  
  
  
  
  
  
  
  
  
  
  
  
  
  
  
  
  
  
  
  
  
  
  
  
  
  
  
  
  
  
  
  
  
  
  
  
  
  
  
  
  
  
  
  
  
  
  
  
  
  
  
  
  
  
  
  
  
  
  
  
  
  
  
  
  
  
  
  
  
  
  
  
  
  
  
  
  
  
  
  
  
  
  
  
  
  
  
  
  
  
  
  
  
  
  
  
  
  
  
  
  
  
  
  
  
  
  
  
  
  
  
  
  
  
  
  
  
  
  
  
  
  
  
  
  
  
  
  
  
  
  
  
  
  
  
  
  
  
  
  
  
  
  
  
  
  
  
  
  
  
  
  
  
  
  
  
  
  
  
  
  
  
  
  
  
  
  
  
  
  
  
  
  
  
  
  
  
  
  
  
  
  
  
  
  
  
  
  
  
  
  
  
  
  
  
  
  
  
  
  
  
  
  
  
  
  
  
  
  
  
  
  
  
  
  
  
  
  
  
  
  
  
  
  
  
  
  
  
  
  
  
  
  
  
  
  
  
  
  
  
  
  
  
  
  
  
  
  
  
  
  
  
  
  
  
  
  
  
  
  
  
  
  
  
  
  
  
  
  
  
  
  
  
  
  
  
  
  
  
  
  
  
  
  
  
  
  
  
  
  
  
  
  
  
  
  
  
  
  
  
  
  
  
  
  
  
  
  
  
  
  
  
  
  
  
  
  
  
  
  
  
  
  
  
  
  
  
  
  
  
  
  
  
  
  
  
  
  
  
  
  
  
  
  
  
  
  
  
  
  
  
  
  
  
  
  
  
  
  
  
  
  
  
  
  
  
  
  
  
  
  
  
  
  
  
  
  
  
  
  
  
  
  
  
  
  
  
  
  
  
  
  
  
  
  
  
  
  
  
  
  
  
  
  
  
  
  
  
  
  
  
  
  
  
  
  
  
  
  
  
  
  
  
  
  
  
  
  
  
  
  
  
  
  
  
  
  
  
  
  
  
  
  
  
  
  
  
  
  
  
  
  
  
  
  
  
  
  
  
  
  
  
  
  
  
  
  
  
  
  
  
  
  
  
  
  
  
  
  
  
  
  
  
  
  
  
  
  
  
  
  
  
  
  
  
  
  
  
  
  
  
  
  
  
  
  
  
  
  
  
  
  
  
  
  
  
  
  
  
  
  
  
  
  
  
  
  
  
  
  
  
  
  
  
  
  
  
  
  
  
  
  
  
  
  
  
  
  
  
  
  
  
  
  
  
  
  
  
  
  
  
  
  
  
  
  
  
  
  
  
  
  
  
  
  
  
  
  
  
  
  
  
  
  
  
  
  
  
  
  
  
  
  
  
  
  
  
  
  
  
  
  
  
  
  
  
  
  
  
  
  
  
  
  
  
  
  
  
  
  
  
  
  
  
  
  
  
  
  
  
  
  
  
  
  
  
  
  
  
  
  
  
  
  
  
  
  
  
  
  
  
  
  
  
  
  
  
  
  
  
  
  
  
  
  
  
  
  
  
  
  
  
  
  
  
  
  
  
  
  
  
  
  
  
  
  
  
  
  
  
  
  
  
  
  
  
  
  
  
  
  
  
  
  
  
  
  
  
  
  
  
  
  
  
  
  
  
  
  
  
  
  
  
  
  
  
  
  
  
  
  
  
  
  
  
  
  
  
  
  
  
  
  
  
  
  
  
  
  
  
  
  
  
  
  
  
  
  
  
  
  
  
  
  
  
  
  
  
  
  
  
  
  
  
  
  
  
  
  
  
  
  
  
  
  
  
  
  
  
  
  
  
  
  
  
  
  
  
  
  
  
  
  
  
  
  
  
  
  
  
  
  
  
  
  
  
  
  
  
  
  
  
  
  
  
  
  
  
  
  
  
  
  
  
  
  
  
  
  
  
  
  
  
  
  
  
  
  
  
  
  
  
  
  
  
  
  
  
  
  
  
  
  
  
  
  
  
  
  
  
  
  
  
  
  
  
  
  
  
  
  
  
  
  
  
  
  
  
  
  
  
  
  
  
  
  
  
  
  
  
  
  
  
  
  
  
  
  
  
  
  
  
  
  
  
  
  
  
  
  
  
  
  
  
  
  
  
  
  
  
  
  
  
  <path
   style="fill:#72b3dc;stroke:#c2dffb;stroke-width:1"
   d="m 48.09,27.876 0.086,-0.626 0.666,-1.212 0.217,-0.343 2.398,-2.754 1.668,-3.042 0.482,-0.42 0.297,-0.197 0.212,-0.005 0.098,0.023 0.055,0.054 0.086,0.153 0.013,0.414 -0.027,0.248 -0.464,1.835 -0.27,0.414 -0.794,1.808 -1.18,2.785 -0.225,0.591 -3.318,0.274"
   id="55029"
   inkscape:label="Door, WI"
   inkscape:connector-curvature="0" />
  <path
   style="fill:#72b3dc;stroke:#c2dffb;stroke-width:1"
   d="m 48.09,27.876 3.318,-0.274 -0.506,0.955 -0.216,0.708 -0.095,0.536 -0.333,2.416 -2.051,0.184 -0.32,-4.087 0.203,-0.438"
   id="55061"
   inkscape:label="Kewaunee, WI"
   inkscape:connector-curvature="0" />
  <path
   style="fill:#72b3dc;stroke:#c2dffb;stroke-width:1"
   d="M 1.977,28.273 7.698,28.115 7.801,30.351 6.21,32.271 6.178,32.222 6.089,32.145 5.985,32.095 5.827,32.059 4.588,32.01 4.196,31.964 4.051,31.897 3.384,31.234 3.361,31.108 3.262,30.982 2.312,30.175 1.658,29.797 1.977,28.273"
   id="55093"
   inkscape:label="Pierce, WI"
   inkscape:connector-curvature="0" />
  <path
   style="fill:#72b3dc;stroke:#c2dffb;stroke-width:1"
   d="m 7.801,30.351 4.444,-0.18 0.054,1.122 -3.241,0.14 -0.176,0.09 L 8.825,31.577 8.77,31.815 8.45,33.564 8.419,33.925 6.941,33.362 6.21,32.271 7.801,30.351"
   id="55091"
   inkscape:label="Pepin, WI"
   inkscape:connector-curvature="0" />
  <path
   style="fill:#72b3dc;stroke:#c2dffb;stroke-width:1"
   d="m 13.413,31.248 0.208,4.511 -0.087,1.812 -0.054,1.077 -2.907,-2.055 -2.154,-2.668 0.031,-0.361 0.32,-1.749 0.055,-0.238 0.057,-0.054 0.176,-0.09 3.241,-0.14 1.114,-0.045"
   id="55011"
   inkscape:label="Buffalo, WI"
   inkscape:connector-curvature="0" />
  <path
   style="fill:#72b3dc;stroke:#c2dffb;stroke-width:1"
   d="m 16.748,31.072 0.225,4.511 0.113,-0.004 0.126,2.164 -0.33,-0.055 -1.099,0.32 -0.266,0.379 -0.012,0.045 -0.019,0.248 0.059,0.099 0.085,0.068 0.068,0.144 0,0.063 -0.906,0.045 -1.312,-0.451 0.054,-1.077 0.087,-1.812 -0.208,-4.511 3.335,-0.176"
   id="55121"
   inkscape:label="Trempealeau, WI"
   inkscape:connector-curvature="0" />
  <path
   style="fill:#72b3dc;stroke:#c2dffb;stroke-width:1"
   d="m 16.748,31.072 2.23,-0.108 0.054,1.118 1.173,1.063 3.362,-0.189 1.108,-0.095 0.171,2.272 0.07,1.203 -1.223,0 -3.214,0.207 -0.977,0.063 -0.446,0.167 -0.249,0.239 0.064,0.762 -1.659,-0.031 -0.126,-2.164 -0.113,0.004 -0.225,-4.511"
   id="55053"
   inkscape:label="Jackson, WI"
   inkscape:connector-curvature="0" />
  <path
   style="fill:#72b3dc;stroke:#c2dffb;stroke-width:1"
   d="m 18.798,27.597 0.18,3.367 -2.23,0.108 -3.335,0.176 -1.114,0.045 -0.054,-1.122 -0.104,-2.227 6.657,-0.347"
   id="55035"
   inkscape:label="Eau Claire, WI"
   inkscape:connector-curvature="0" />
  <path
   style="fill:#72b3dc;stroke:#c2dffb;stroke-width:1"
   d="m 18.668,25.357 5.547,-0.347 0.258,4.493 0.202,3.358 -1.108,0.095 -3.362,0.189 -1.173,-1.063 -0.054,-1.118 -0.18,-3.367 -0.13,-2.24"
   id="55019"
   inkscape:label="Clark, WI"
   inkscape:connector-curvature="0" />
  <path
   style="fill:#72b3dc;stroke:#c2dffb;stroke-width:1"
   d="m 12.877,22.279 5.597,-0.28 0.324,5.598 -6.657,0.347 -0.342,-4.529 1.078,-1.136"
   id="55017"
   inkscape:label="Chippewa, WI"
   inkscape:connector-curvature="0" />
  <path
   style="fill:#72b3dc;stroke:#c2dffb;stroke-width:1"
   d="m 11.799,23.415 0.342,4.529 0.104,2.227 -4.444,0.18 -0.103,-2.236 -0.365,-4.529 4.466,-0.171"
   id="55033"
   inkscape:label="Dunn, WI"
   inkscape:connector-curvature="0" />
  <path
   style="fill:#72b3dc;stroke:#c2dffb;stroke-width:1"
   d="M 7.333,23.586 7.698,28.115 1.977,28.273 2.047,27.3 1.851,26.394 1.627,25.916 1.599,25.492 1.789,23.793 7.333,23.586"
   id="55109"
   inkscape:label="St. Croix, WI"
   inkscape:connector-curvature="0" />
  <path
   style="fill:#72b3dc;stroke:#c2dffb;stroke-width:1"
   d="m 7.12,18.042 0.213,5.544 -5.544,0.207 0.139,-1.122 0.109,-0.099 0.012,-0.01 0.24,-0.297 L 2.631,21.391 2.451,20.48 2.006,19.638 1.293,19.254 1.113,19.282 0.68,19.209 0.558,19.115 0.527,18.862 0.504,18.52 0.5,18.435 0.512,18.231 3.736,18.141 3.705,17.028 7.08,16.938 7.12,18.042"
   id="55095"
   inkscape:label="Polk, WI"
   inkscape:connector-curvature="0" />
  <path
   style="fill:#72b3dc;stroke:#c2dffb;stroke-width:1"
   d="m 8.238,17.997 4.44,-0.167 0.199,4.449 -1.078,1.136 -4.466,0.171 -0.213,-5.544 1.118,-0.045"
   id="55005"
   inkscape:label="Barron, WI"
   inkscape:connector-curvature="0" />
  <path
   style="fill:#72b3dc;stroke:#c2dffb;stroke-width:1"
   d="m 20.461,17.42 0.19,3.353 -2.177,1.226 -5.597,0.28 -0.199,-4.449 7.783,-0.41"
   id="55107"
   inkscape:label="Rusk, WI"
   inkscape:connector-curvature="0" />
  <path
   style="fill:#72b3dc;stroke:#c2dffb;stroke-width:1"
   d="m 26.416,20.376 0.199,3.367 -0.88,0.054 -0.496,0.406 0.045,0.744 -1.069,0.063 -5.547,0.347 -0.194,-3.358 2.177,-1.226 2.001,-0.103 1.213,-0.118 1.798,-0.139 0.753,-0.037"
   id="55119"
   inkscape:label="Taylor, WI"
   inkscape:connector-curvature="0" />
  <path
   style="fill:#72b3dc;stroke:#c2dffb;stroke-width:1"
   d="m 23.598,12.809 2.318,-0.148 0.081,1.09 0.27,4.399 0.149,2.226 -0.753,0.037 -1.798,0.139 -1.213,0.118 -2.001,0.103 -0.19,-3.353 -0.229,-4.417 3.366,-0.194"
   id="55099"
   inkscape:label="Price, WI"
   inkscape:connector-curvature="0" />
  <path
   style="fill:#72b3dc;stroke:#c2dffb;stroke-width:1"
   d="m 12.268,11.151 5.62,-0.253 0.09,2.051 0.023,0.185 2.231,-0.131 0.229,4.417 -7.783,0.41 -0.41,-6.679"
   id="55113"
   inkscape:label="Sawyer, WI"
   inkscape:connector-curvature="0" />
  <path
   style="fill:#72b3dc;stroke:#c2dffb;stroke-width:1"
   d="m 7.797,11.34 4.471,-0.189 0.41,6.679 -4.44,0.167 L 8.036,13.571 7.882,13.576 7.797,11.34"
   id="55129"
   inkscape:label="Washburn, WI"
   inkscape:connector-curvature="0" />
  <path
   style="fill:#72b3dc;stroke:#c2dffb;stroke-width:1"
   d="M 5.606,11.435 7.797,11.34 7.882,13.576 8.036,13.571 8.238,17.997 7.12,18.042 7.08,16.938 3.705,17.028 3.736,18.141 0.512,18.231 0.879,17.109 1.784,15.297 1.896,15.095 2.009,14.946 2.457,14.554 2.46,14.549 4.335,13.318 5.647,12.499 5.629,11.994 5.606,11.435"
   id="55013"
   inkscape:label="Burnett, WI"
   inkscape:connector-curvature="0" />
  <path
   style="fill:#72b3dc;stroke:#c2dffb;stroke-width:1"
   d="M 5.368,4.931 5.57,5.071 5.818,5.093 6.085,5.075 6.129,5.048 6.17,5.008 6.291,4.692 6.282,4.548 6.273,4.539 6.228,4.489 6.228,4.48 6.197,4.399 6.206,4.304 6.256,4.201 6.886,3.772 7.126,3.754 7.639,4.255 7.764,4.309 7.81,4.277 8.058,4.444 8.193,4.521 8.298,4.566 8.468,4.593 9.555,4.413 9.816,4.34 l 2.091,-0.879 0.122,3.061 0.067,1.1 0.172,3.529 L 7.797,11.34 5.606,11.435 5.485,8.09 5.368,4.931"
   id="55031"
   inkscape:label="Douglas, WI"
   inkscape:connector-curvature="0" />
  <path
   style="fill:#72b3dc;stroke:#c2dffb;stroke-width:1"
   d="m 17.564,5.373 0.324,5.525 -5.62,0.253 -0.172,-3.529 -0.067,-1.1 -0.122,-3.061 0.127,0.01 0.229,-0.05 3.534,-1.461 0.077,-0.053 0.373,-0.275 0.113,-0.109 0.288,-0.36 0.262,-0.338 0.045,-0.036 0.852,-0.266 0.135,-0.023 0.162,0.055 0.483,0.373 0.296,0.343 0.037,0.068 0,0.063 -0.378,0.856 -0.56,0.784 -0.643,2.146 0.003,0.045 0.091,0.103 0.131,0.037"
   id="55007"
   inkscape:label="Bayfield, WI"
   inkscape:connector-curvature="0" />
  <path
   style="fill:#72b3dc;stroke:#c2dffb;stroke-width:1"
   d="m 17.564,5.373 0.085,0.022 0.077,0 0.036,-0.013 0.956,-0.582 0.211,-0.157 0.127,-0.136 1.149,0.221 0.725,0.473 0.073,1.077 0.103,1.839 0.055,1.492 1.131,-0.063 1.162,1.037 0.095,1.113 0.049,1.113 -3.366,0.194 -2.231,0.131 -0.023,-0.185 -0.09,-2.051 -0.324,-5.525"
   id="55003"
   inkscape:label="Ashland, WI"
   inkscape:connector-curvature="0" />
  <path
   style="fill:#72b3dc;stroke:#c2dffb;stroke-width:1"
   d="m 22.116,5.364 1.018,0.554 1.812,2.227 0.829,0.175 0.91,0.189 0.268,4.084 -1.037,0.068 -2.318,0.148 L 23.549,11.696 23.454,10.583 22.292,9.546 21.161,9.609 21.106,8.117 21.003,6.278 20.93,5.201 22.116,5.364"
   id="55051"
   inkscape:label="Iron, WI"
   inkscape:connector-curvature="0" />
  <path
   style="fill:#72b3dc;stroke:#c2dffb;stroke-width:1"
   d="m 26.685,8.509 6.464,1.326 0.486,0.099 0.38,0.081 0.613,0.207 0.635,0.311 0.546,0.266 0.08,1.177 -1.027,0.072 0.085,1.118 -1.117,0.536 -1.717,-0.379 -6.116,0.428 -0.081,-1.09 1.037,-0.068 -0.268,-4.084"
   id="55125"
   inkscape:label="Vilas, WI"
   inkscape:connector-curvature="0" />
  <path
   style="fill:#72b3dc;stroke:#c2dffb;stroke-width:1"
   d="m 34.947,13.166 0.415,5.53 -3.426,0.212 -0.108,-1.132 -2.213,0.149 -3.348,0.225 -0.27,-4.399 6.116,-0.428 1.717,0.379 1.117,-0.536"
   id="55085"
   inkscape:label="Oneida, WI"
   inkscape:connector-curvature="0" />
  <path
   style="fill:#72b3dc;stroke:#c2dffb;stroke-width:1"
   d="m 31.936,18.908 0.298,4.479 -5.619,0.356 -0.199,-3.367 -0.149,-2.226 3.348,-0.225 2.213,-0.149 0.108,1.132"
   id="55069"
   inkscape:label="Lincoln, WI"
   inkscape:connector-curvature="0" />
  <path
   style="fill:#72b3dc;stroke:#c2dffb;stroke-width:1"
   d="m 31.936,18.908 3.426,-0.212 1.113,-0.086 0.059,1.113 2.25,-0.171 0.147,2.236 0.383,-0.027 0.06,1.126 -3.102,0.226 0.091,1.149 -2.204,0.153 -1.925,-1.028 -0.298,-4.479"
   id="55067"
   inkscape:label="Langlade, WI"
   inkscape:connector-curvature="0" />
  <path
   style="fill:#72b3dc;stroke:#c2dffb;stroke-width:1"
   d="m 26.615,23.743 5.619,-0.356 1.925,1.028 0.32,4.48 -5.693,0.343 -4.313,0.265 -0.258,-4.493 1.069,-0.063 -0.045,-0.744 0.496,-0.406 0.88,-0.054"
   id="55073"
   inkscape:label="Marathon, WI"
   inkscape:connector-curvature="0" />
  <path
   style="fill:#72b3dc;stroke:#c2dffb;stroke-width:1"
   d="m 24.473,29.503 4.313,-0.265 0.153,2.235 1.082,-0.068 0.13,1.759 0.109,1.64 -1.64,0.086 -3.774,0.243 -0.171,-2.272 -0.202,-3.358"
   id="55141"
   inkscape:label="Wood, WI"
   inkscape:connector-curvature="0" />
  <path
   style="fill:#72b3dc;stroke:#c2dffb;stroke-width:1"
   d="m 31.432,34.749 0.23,3.404 0.274,4.385 -1.724,0.135 -0.98,-1.879 -0.848,-0.902 -0.215,-0.59 -0.582,-2.285 0.135,-0.401 0.898,-1.726 1.64,-0.086 1.172,-0.055"
   id="55001"
   inkscape:label="Adams, WI"
   inkscape:connector-curvature="0" />
  <path
   style="fill:#72b3dc;stroke:#c2dffb;stroke-width:1"
   d="m 24.846,35.133 3.774,-0.243 -0.898,1.726 -0.135,0.401 0.582,2.285 0.215,0.59 0.848,0.902 0.98,1.879 -4.901,0.307 -0.067,-1.168 -0.328,-5.476 -0.07,-1.203"
   id="55057"
   inkscape:label="Juneau, WI"
   inkscape:connector-curvature="0" />
  <path
   style="fill:#72b3dc;stroke:#c2dffb;stroke-width:1"
   d="m 18.871,37.774 -0.064,-0.762 0.249,-0.239 0.446,-0.167 0.977,-0.063 3.214,-0.207 1.223,0 0.328,5.476 -5.553,0.393 -0.141,-2.623 -0.126,-1.844 -0.553,0.036"
   id="55081"
   inkscape:label="Monroe, WI"
   inkscape:connector-curvature="0" />
  <path
   style="fill:#72b3dc;stroke:#c2dffb;stroke-width:1"
   d="m 17.212,37.743 1.659,0.031 0.553,-0.036 0.126,1.844 0.141,2.623 -3.326,0.166 -0.226,-1.559 -1.347,-1.713 0.906,-0.045 0,-0.063 -0.068,-0.144 -0.085,-0.068 -0.059,-0.099 0.019,-0.248 0.012,-0.045 0.266,-0.379 1.099,-0.32 0.33,0.055"
   id="55063"
   inkscape:label="La Crosse, WI"
   inkscape:connector-curvature="0" />
  <path
   style="fill:#72b3dc;stroke:#c2dffb;stroke-width:1"
   d="m 25.244,41.812 0.067,1.168 0.081,1.122 -3.357,0.207 0.122,1.682 -5.013,0.265 -0.162,-0.996 -0.617,-2.889 3.326,-0.166 5.553,-0.393"
   id="55123"
   inkscape:label="Vernon, WI"
   inkscape:connector-curvature="0" />
  <path
   style="fill:#72b3dc;stroke:#c2dffb;stroke-width:1"
   d="m 25.311,42.98 4.901,-0.307 0.476,0.528 1.266,0.374 0.063,0.053 0.141,2.299 -0.171,0.154 -0.226,0.112 -0.099,0.031 -0.135,-0.017 -0.086,0.027 -0.374,0.617 -0.023,0.176 0.072,0.103 -1.027,1.196 -3.294,0.748 0.008,-0.033 -0.301,-5.02 -1.11,0.081 -0.081,-1.122"
   id="55111"
   inkscape:label="Sauk, WI"
   inkscape:connector-curvature="0" />
  <path
   style="fill:#72b3dc;stroke:#c2dffb;stroke-width:1"
   d="m 25.392,44.102 1.11,-0.081 0.301,5.02 -0.008,0.033 -2.242,-0.343 -2.194,0.505 -0.202,-3.245 -0.122,-1.682 3.357,-0.207"
   id="55103"
   inkscape:label="Richland, WI"
   inkscape:connector-curvature="0" />
  <path
   style="fill:#72b3dc;stroke:#c2dffb;stroke-width:1"
   d="m 17.144,46.256 5.013,-0.265 0.202,3.245 -0.676,0.662 -2.862,1.835 -0.076,0.03 -0.91,0.141 -0.2,-1.226 0.245,-0.951 0.72,-1.213 0.036,-0.161 -0.283,-0.455 -0.217,-0.275 -1.001,-0.704 0.009,-0.663"
   id="55023"
   inkscape:label="Crawford, WI"
   inkscape:connector-curvature="0" />
  <path
   style="fill:#72b3dc;stroke:#c2dffb;stroke-width:1"
   d="m 30.089,48.326 0.292,4.506 0.037,0.564 -5.544,0.355 -0.321,-5.02 2.242,0.343 3.294,-0.748"
   id="55049"
   inkscape:label="Iowa, WI"
   inkscape:connector-curvature="0" />
  <path
   style="fill:#72b3dc;stroke:#c2dffb;stroke-width:1"
   d="m 22.359,49.236 2.194,-0.505 0.321,5.02 0.239,3.957 -2.027,0.1 0.036,-0.062 -0.006,-0.073 -0.103,-0.325 -0.6,-1.091 -0.068,-0.068 -0.108,-0.053 -0.473,-0.113 -1.221,-0.234 -0.496,-0.118 -0.262,-0.121 -0.761,-0.505 -0.117,-0.243 -0.861,-1.912 -0.211,-0.986 0.91,-0.141 0.076,-0.03 2.862,-1.835 0.676,-0.662"
   id="55043"
   inkscape:label="Grant, WI"
   inkscape:connector-curvature="0" />
  <path
   style="fill:#72b3dc;stroke:#c2dffb;stroke-width:1"
   d="m 24.874,53.751 5.544,-0.355 0.266,3.988 -0.843,0.049 -4.728,0.275 -0.239,-3.957"
   id="55065"
   inkscape:label="Lafayette, WI"
   inkscape:connector-curvature="0" />
  <path
   style="fill:#72b3dc;stroke:#c2dffb;stroke-width:1"
   d="m 30.381,52.832 4.422,-0.139 0.342,4.457 -0.338,0.021 -4.123,0.213 -0.266,-3.988 -0.037,-0.564"
   id="55045"
   inkscape:label="Green, WI"
   inkscape:connector-curvature="0" />
  <path
   style="fill:#72b3dc;stroke:#c2dffb;stroke-width:1"
   d="m 35.632,37.864 0.104,1.375 -0.22,0.843 -0.397,0.631 0.112,1.591 -3.295,0.234 -0.274,-4.385 3.97,-0.289"
   id="55077"
   inkscape:label="Marquette, WI"
   inkscape:connector-curvature="0" />
  <path
   style="fill:#72b3dc;stroke:#c2dffb;stroke-width:1"
   d="m 28.786,29.238 5.693,-0.343 0.392,5.647 -3.439,0.207 -1.172,0.055 -0.109,-1.64 -0.13,-1.759 -1.082,0.068 -0.153,-2.235"
   id="55097"
   inkscape:label="Portage, WI"
   inkscape:connector-curvature="0" />
  <path
   style="fill:#72b3dc;stroke:#c2dffb;stroke-width:1"
   d="m 34.479,28.895 5.661,-0.383 0.081,1.132 -1.195,0.094 0.117,1.577 0.195,2.898 -1.352,0.113 -3.115,0.216 -0.392,-5.647"
   id="55135"
   inkscape:label="Waupaca, WI"
   inkscape:connector-curvature="0" />
  <path
   style="fill:#72b3dc;stroke:#c2dffb;stroke-width:1"
   d="m 37.986,34.326 0.256,3.344 -2.61,0.194 -3.97,0.289 -0.23,-3.404 3.439,-0.207 3.115,-0.216"
   id="55137"
   inkscape:label="Waushara, WI"
   inkscape:connector-curvature="0" />
  <path
   style="fill:#72b3dc;stroke:#c2dffb;stroke-width:1"
   d="m 38.242,37.67 0.086,1.132 0.252,3.38 -1.122,0.09 -1.119,0.099 -0.008,-0.153 -1.1,0.086 -0.112,-1.591 0.397,-0.631 0.22,-0.843 -0.104,-1.375 2.61,-0.194"
   id="55047"
   inkscape:label="Green Lake, WI"
   inkscape:connector-curvature="0" />
  <path
   style="fill:#72b3dc;stroke:#c2dffb;stroke-width:1"
   d="m 35.231,42.304 1.1,-0.086 0.008,0.153 1.119,-0.099 0.312,4.499 -0.897,0.094 -2.408,0.189 -0.013,-0.166 -3.336,0.242 -0.072,-0.103 0.023,-0.176 0.374,-0.617 0.086,-0.027 0.135,0.017 0.099,-0.031 0.226,-0.112 0.171,-0.154 -0.141,-2.299 -0.063,-0.053 -1.266,-0.374 -0.476,-0.528 1.724,-0.135 3.295,-0.234"
   id="55021"
   inkscape:label="Columbia, WI"
   inkscape:connector-curvature="0" />
  <path
   style="fill:#72b3dc;stroke:#c2dffb;stroke-width:1"
   d="m 37.77,46.771 0.085,1.121 0.287,4.535 -3.339,0.266 -4.422,0.139 -0.292,-4.506 1.027,-1.196 3.336,-0.242 0.013,0.166 2.408,-0.189 0.897,-0.094"
   id="55025"
   inkscape:label="Dane, WI"
   inkscape:connector-curvature="0" />
  <path
   style="fill:#72b3dc;stroke:#c2dffb;stroke-width:1"
   d="m 40.37,52.314 0.351,4.512 -1.55,0.103 -4.026,0.221 -0.342,-4.457 3.339,-0.266 2.228,-0.113"
   id="55105"
   inkscape:label="Rock, WI"
   inkscape:connector-curvature="0" />
  <path
   style="fill:#72b3dc;stroke:#c2dffb;stroke-width:1"
   d="m 45.044,54.964 1.113,-0.094 -0.064,-0.757 1.748,-0.149 1.854,-0.144 0.244,2.285 -3.778,0.261 -0.983,0.099 -0.134,-1.501"
   id="55059"
   inkscape:label="Kenosha, WI"
   inkscape:connector-curvature="0" />
  <path
   style="fill:#72b3dc;stroke:#c2dffb;stroke-width:1"
   d="m 47.017,51.777 2.277,-0.189 0.401,2.232 -1.854,0.144 -1.748,0.149 0.064,0.757 -1.113,0.094 -0.248,-2.988 2.221,-0.199"
   id="55101"
   inkscape:label="Racine, WI"
   inkscape:connector-curvature="0" />
  <path
   style="fill:#72b3dc;stroke:#c2dffb;stroke-width:1"
   d="m 42.588,52.143 2.208,-0.167 0.248,2.988 0.134,1.501 -3.803,0.316 -0.654,0.045 -0.351,-4.512 2.218,-0.171"
   id="55127"
   inkscape:label="Walworth, WI"
   inkscape:connector-curvature="0" />
  <path
   style="fill:#72b3dc;stroke:#c2dffb;stroke-width:1"
   d="m 38.58,42.182 1.123,-0.081 3.388,-0.235 0.073,0.848 0.022,0.279 0.167,2.241 -0.158,0.013 0.186,2.262 -1.1,0.068 -4.426,0.315 -0.085,-1.121 -0.312,-4.499 1.122,-0.09"
   id="55027"
   inkscape:label="Dodge, WI"
   inkscape:connector-curvature="0" />
  <path
   style="fill:#72b3dc;stroke:#c2dffb;stroke-width:1"
   d="m 37.855,47.892 4.426,-0.315 0.307,4.566 -2.218,0.171 -2.228,0.113 -0.287,-4.535"
   id="55055"
   inkscape:label="Jefferson, WI"
   inkscape:connector-curvature="0" />
  <path
   style="fill:#72b3dc;stroke:#c2dffb;stroke-width:1"
   d="m 46.697,47.271 0.32,4.506 -2.221,0.199 -2.208,0.167 -0.307,-4.566 1.1,-0.068 3.316,-0.238"
   id="55133"
   inkscape:label="Waukesha, WI"
   inkscape:connector-curvature="0" />
  <path
   style="fill:#72b3dc;stroke:#c2dffb;stroke-width:1"
   d="m 48.302,47.14 0.992,4.448 -2.277,0.189 -0.32,-4.506 1.605,-0.131"
   id="55079"
   inkscape:label="Milwaukee, WI"
   inkscape:connector-curvature="0" />
  <path
   style="fill:#72b3dc;stroke:#c2dffb;stroke-width:1"
   d="m 46.535,42.732 2.29,-0.203 0.063,0.649 -0.099,0.419 -0.154,0.357 -0.23,0.401 -0.071,0.157 -0.059,0.181 -0.032,0.144 -0.19,1.564 0.033,0.184 0.171,0.487 0.045,0.068 -1.605,0.131 -0.175,-2.258 0.121,-0.956 -0.108,-1.325"
   id="55089"
   inkscape:label="Ozaukee, WI"
   inkscape:connector-curvature="0" />
  <path
   style="fill:#72b3dc;stroke:#c2dffb;stroke-width:1"
   d="m 45.413,42.817 1.122,-0.085 0.108,1.325 -0.121,0.956 0.175,2.258 -3.316,0.238 -0.186,-2.262 0.158,-0.013 -0.167,-2.241 2.227,-0.176"
   id="55131"
   inkscape:label="Washington, WI"
   inkscape:connector-curvature="0" />
  <path
   style="fill:#72b3dc;stroke:#c2dffb;stroke-width:1"
   d="m 42.429,33.957 0.374,4.534 -4.475,0.311 -0.086,-1.132 -0.256,-3.344 1.352,-0.113 3.091,-0.256"
   id="55139"
   inkscape:label="Winnebago, WI"
   inkscape:connector-curvature="0" />
  <path
   style="fill:#72b3dc;stroke:#c2dffb;stroke-width:1"
   d="m 45.035,38.324 0.378,4.493 -2.227,0.176 -0.022,-0.279 -0.073,-0.848 -3.388,0.235 -1.123,0.081 -0.252,-3.38 4.475,-0.311 -0.049,-0.591 2.281,0.424"
   id="55039"
   inkscape:label="Fond du Lac, WI"
   inkscape:connector-curvature="0" />
  <path
   style="fill:#72b3dc;stroke:#c2dffb;stroke-width:1"
   d="m 49.018,37.963 0.429,1.596 0.067,1.032 -0.026,0.108 -0.663,1.83 -2.29,0.203 -1.122,0.085 -0.378,-4.493 1.113,-0.095 2.87,-0.266"
   id="55117"
   inkscape:label="Sheboygan, WI"
   inkscape:connector-curvature="0" />
  <path
   style="fill:#72b3dc;stroke:#c2dffb;stroke-width:1"
   d="m 44.377,33.83 1.379,-0.103 0.392,4.502 -1.113,0.095 -2.281,-0.424 -0.325,-3.943 1.948,-0.127"
   id="55015"
   inkscape:label="Calumet, WI"
   inkscape:connector-curvature="0" />
  <path
   style="fill:#72b3dc;stroke:#c2dffb;stroke-width:1"
   d="m 48.207,32.401 2.051,-0.184 0.433,1.23 0.027,0.244 -0.027,0.234 -0.05,0.172 -0.162,0.279 -0.198,0.216 -0.329,0.194 -0.176,0.14 -0.217,0.243 -0.243,1.122 -0.076,0.401 -0.222,1.271 -2.87,0.266 -0.392,-4.502 1.428,-0.113 -0.095,-1.122 0.56,-0.045 0.558,-0.046"
   id="55071"
   inkscape:label="Manitowoc, WI"
   inkscape:connector-curvature="0" />
  <path
   style="fill:#72b3dc;stroke:#c2dffb;stroke-width:1"
   d="m 43.457,28.232 2.312,-0.171 -0.095,0.189 -0.261,1.204 -0.004,0.081 0.369,0.325 0.329,0.085 0.248,-0.013 0.126,-0.09 0.099,-0.167 0.122,-0.28 0.012,-0.067 -0.048,-0.09 0.018,-0.045 0.288,-0.334 0.5,-0.405 0.415,-0.14 0.32,4.087 -0.558,0.046 -0.56,0.045 0.095,1.122 -1.428,0.113 -1.379,0.103 -0.046,-0.743 -0.302,-3.701 -0.495,0.068 -0.077,-1.222"
   id="55009"
   inkscape:label="Brown, WI"
   inkscape:connector-curvature="0" />
  <path
   style="fill:#72b3dc;stroke:#c2dffb;stroke-width:1"
   d="m 40.221,29.644 3.313,-0.19 0.495,-0.068 0.302,3.701 0.046,0.743 -1.948,0.127 -3.091,0.256 -0.195,-2.898 -0.117,-1.577 1.195,-0.094"
   id="55087"
   inkscape:label="Outagamie, WI"
   inkscape:connector-curvature="0" />
  <path
   style="fill:#72b3dc;stroke:#c2dffb;stroke-width:1"
   d="m 36.363,24.262 0.085,1.104 2.24,-0.171 0.077,1.117 2.258,-0.162 2.198,-0.139 0.236,2.221 0.077,1.222 -3.313,0.19 -0.081,-1.132 -5.661,0.383 -0.32,-4.48 2.204,-0.153"
   id="55115"
   inkscape:label="Shawano, WI"
   inkscape:connector-curvature="0" />
  <path
   style="fill:#72b3dc;stroke:#c2dffb;stroke-width:1"
   d="m 36.363,24.262 -0.091,-1.149 3.102,-0.226 1.432,-0.108 0.118,1.996 0.099,1.375 -2.258,0.162 -0.077,-1.117 -2.24,0.171 -0.085,-1.104"
   id="55078"
   inkscape:label="Menominee, WI"
   inkscape:connector-curvature="0" />
  <path
   style="fill:#72b3dc;stroke:#c2dffb;stroke-width:1"
   d="m 41.046,19.395 1.109,-0.055 1.974,3.259 0.072,1.113 1.639,0.262 1.705,0.202 -0.059,0.014 -0.405,0.18 -0.055,0.045 -0.157,0.261 -1.086,2.835 -0.023,0.438 0.009,0.112 -2.312,0.171 -0.236,-2.221 -2.198,0.139 -0.099,-1.375 -0.118,-1.996 -1.432,0.108 -0.06,-1.126 -0.383,0.027 -0.147,-2.236 2.262,-0.157"
   id="55083"
   inkscape:label="Oconto, WI"
   inkscape:connector-curvature="0" />
  <path
   style="fill:#72b3dc;stroke:#c2dffb;stroke-width:1"
   d="m 35.809,10.799 2.289,0.586 0.116,0.428 0.24,3.313 2.259,-0.171 0.333,4.44 -2.262,0.157 -2.25,0.171 -0.059,-1.113 -1.113,0.086 -0.415,-5.53 -0.085,-1.118 1.027,-0.072 -0.08,-1.177"
   id="55041"
   inkscape:label="Forest, WI"
   inkscape:connector-curvature="0" />
  <path
   style="fill:#72b3dc;stroke:#c2dffb;stroke-width:1"
   d="m 38.098,11.385 0.185,0.329 1.577,-0.167 2.623,0.329 0.02,0.005 0.224,0.036 0.343,0.166 0.212,0.141 0.139,0.089 0.265,0.379 0.028,0.041 0.013,0.045 -0.126,0.216 -0.144,0.203 -0.063,0.05 -0.158,0.202 -0.005,0.009 -0.013,0.045 0.058,0.113 0.009,0.005 0.344,0.279 0.076,0.018 0.122,0.032 0.009,0.004 0.122,-0.018 0.062,0.87 -1.073,0.023 -2.234,0.126 -2.259,0.171 -0.24,-3.313 -0.116,-0.428"
   id="55037"
   inkscape:label="Florence, WI"
   inkscape:connector-curvature="0" />
  <path
   style="fill:#72b3dc;stroke:#c2dffb;stroke-width:1"
   d="m 43.958,13.936 2.131,0.573 0.171,0.139 0.014,0.01 0.023,0.022 0.27,0.333 0.09,2.326 0.798,3.836 0.005,0.009 0.08,0.265 0.041,0.068 0.712,0.753 0.009,0.004 0.234,0.04 0.41,0.064 -1.401,1.798 -1.705,-0.202 -1.639,-0.262 -0.072,-1.113 -1.974,-3.259 -1.109,0.055 -0.333,-4.44 2.234,-0.126 1.073,-0.023 -0.062,-0.87"
   id="55075"
   inkscape:label="Marinette, WI"
   inkscape:connector-curvature="0" />
  
  
  
  
  
  
  
  
  
  
  
  
  
  
  
  
  
  
  
  
  
  
  
  
  
  
  
  
  
  
  
  
  
  
  
  
  
  
  
  
  
  
  
  
  
  
  
  
  
  
  
  
  
  
  
  
  
  
  
  
  
  
  
  
  
  
  
  
  
  
  
  
  
  
  
  
  
  
  
  
  
</svg>