<?xml version="1.0" encoding="UTF-8" standalone="no"?>
<!--?xml version="1.0" encoding="UTF-8" standalone="no"?-->

<svg
   xmlns:dc="http://purl.org/dc/elements/1.1/"
   xmlns:cc="http://creativecommons.org/ns#"
   xmlns:rdf="http://www.w3.org/1999/02/22-rdf-syntax-ns#"
   xmlns:svg="http://www.w3.org/2000/svg"
   xmlns="http://www.w3.org/2000/svg"
   xmlns:sodipodi="http://sodipodi.sourceforge.net/DTD/sodipodi-0.dtd"
   xmlns:inkscape="http://www.inkscape.org/namespaces/inkscape"
   width="50.870335"
   height="50.762154"
   viewBox="0 0 47.022998 46.369275"
   preserveAspectRatio="xMinYMin meet"
   xml:space="preserve"
   id="svg3457"
   version="1.1"
   inkscape:version="0.48.2 r9819"
   sodipodi:docname="WV.svg"><metadata
   id="metadata3518"><rdf:RDF><cc:Work
       rdf:about=""><dc:format>image/svg+xml</dc:format><dc:type
         rdf:resource="http://purl.org/dc/dcmitype/StillImage" /></cc:Work></rdf:RDF></metadata><defs
   id="defs3516" /><sodipodi:namedview
   pagecolor="#ffffff"
   bordercolor="#666666"
   borderopacity="1"
   objecttolerance="10"
   gridtolerance="10"
   guidetolerance="10"
   inkscape:pageopacity="0"
   inkscape:pageshadow="2"
   inkscape:window-width="640"
   inkscape:window-height="480"
   id="namedview3514"
   showgrid="false"
   inkscape:zoom="0.56730769"
   inkscape:cx="-164.42661"
   inkscape:cy="-18.685064"
   inkscape:window-x="0"
   inkscape:window-y="0"
   inkscape:window-maximized="0"
   inkscape:current-layer="svg3457" />
  
  
  
  
  
  
  
  
  
  
  
  
  
  
  
  
  
  
  
  
  
  
  
  
  
  
  
  
  
  
  
  
  
  
  
  
  
  
  
  
  
  
  
  
  
  
  
  
  
  
  
  
  
  
  
  
  
  
  
  
  
  
  
  
  
  
  
  
  
  
  
  
  
  
  
  
  
  
  
  
  
  
  
  
  
  
  
  
  
  
  
  
  
  
  
  
  
  
  
  
  
  
  
  
  
  
  
  
  
  
  
  
  
  
  
  
  
  
  
  
  
  
  
  
  
  
  
  
  
  
  
  
  
  
  
  
  
  
  
  
  
  
  
  
  
  
  
  
  
  
  
  
  
  
  
  
  
  
  
  
  
  
  
  
  
  
  
  
  
  
  
  
  
  
  
  
  
  
  
  
  
  
  
  
  
  
  
  
  
  
  
  
  
  
  
  
  
  
  
  
  
  
  
  
  
  
  
  
  
  
  
  
  
  
  
  
  
  
  
  
  
  
  
  
  
  
  
  
  
  
  
  
  
  
  
  
  
  
  
  
  
  
  
  
  
  
  
  
  
  
  
  
  
  
  
  
  
  
  
  
  
  
  
  
  
  
  
  
  
  
  
  
  
  
  
  
  
  
  
  
  
  
  
  
  
  
  
  
  
  
  
  
  
  
  
  
  
  
  
  
  
  
  
  
  
  
  
  
  
  
  
  
  
  
  
  
  
  
  
  
  
  
  
  
  
  
  
  
  
  
  
  
  
  
  
  
  
  
  
  
  
  
  
  
  
  
  
  
  
  
  
  
  
  
  
  
  
  
  
  
  
  
  
  
  
  
  
  
  
  
  
  
  
  
  
  
  
  
  
  
  
  
  
  
  
  
  
  
  
  
  
  
  
  
  
  
  
  
  
  
  
  
  
  
  
  
  
  
  
  
  
  
  
  
  
  
  
  
  
  
  
  
  
  
  
  
  
  
  
  
  
  
  
  
  
  
  
  
  
  
  
  
  
  
  
  
  
  
  
  
  
  
  
  
  
  
  
  
  
  
  
  
  
  
  
  
  
  
  
  
  
  
  
  
  
  
  
  
  
  
  
  
  
  
  
  
  
  
  
  
  
  
  
  
  
  
  
  
  
  
  
  
  
  
  
  
  
  
  
  
  
  
  
  
  
  
  
  
  
  
  
  
  
  
  
  
  
  
  
  
  
  
  
  
  
  
  
  
  
  
  
  
  
  
  
  
  
  
  
  
  
  
  
  
  
  
  
  
  
  
  
  
  
  
  
  
  
  
  
  
  
  
  
  
  
  
  
  
  
  
  
  
  
  
  
  
  
  
  
  
  
  
  
  
  
  
  
  
  
  
  
  
  
  
  
  
  
  
  
  
  
  
  
  
  
  
  
  
  
  
  
  
  
  
  
  
  
  
  
  
  
  
  
  
  
  
  
  
  
  
  
  
  
  
  
  
  
  
  
  
  
  
  
  
  
  
  
  
  
  
  
  
  
  
  
  
  
  
  
  
  
  
  
  
  
  
  
  
  
  
  
  
  
  
  
  
  
  
  
  
  
  
  
  
  
  
  
  
  
  
  
  
  
  
  
  
  
  
  
  
  
  
  
  
  
  
  
  
  
  
  
  
  
  
  
  
  
  
  
  
  
  
  
  
  
  
  
  
  
  
  
  
  
  
  
  
  
  
  
  
  
  
  
  
  
  
  
  
  
  
  
  
  
  
  
  
  
  
  
  
  
  
  
  
  
  
  
  
  
  
  
  
  
  
  
  
  
  
  
  
  
  
  
  
  
  
  
  
  
  
  
  
  
  
  
  
  
  
  
  
  
  
  
  
  
  
  
  
  
  
  
  
  
  
  
  
  
  
  
  
  
  
  
  
  
  
  
  
  
  
  
  
  
  
  
  
  
  
  
  
  
  
  
  
  
  
  
  
  
  
  
  
  
  
  
  
  
  
  
  
  
  
  
  
  
  
  
  
  
  
  
  
  
  
  
  
  
  
  
  
  
  
  
  
  
  
  
  
  
  
  
  
  
  
  
  
  
  
  
  
  
  
  
  
  
  
  
  
  
  
  
  
  
  
  
  
  
  
  
  
  
  
  
  
  
  
  
  
  
  
  
  
  
  
  
  
  
  
  
  
  
  
  
  
  
  
  
  
  
  
  
  
  
  
  
  
  
  
  
  
  
  
  
  
  
  
  
  
  
  
  
  
  
  
  
  
  
  
  
  
  
  
  
  
  
  
  
  
  
  
  
  
  
  
  
  
  
  
  
  
  
  
  
  
  
  
  
  
  
  
  
  
  
  
  
  
  
  
  
  
  
  
  
  
  
  
  
  
  
  
  
  
  
  
  
  
  
  
  
  
  
  
  
  
  
  
  
  
  
  
  
  
  
  
  
  
  
  
  
  
  
  
  
  
  
  
  
  
  
  
  
  
  
  
  
  
  
  
  
  
  
  
  
  
  
  
  
  
  
  
  
  
  
  
  
  
  
  
  
  
  
  
  
  
  
  
  
  
  
  
  
  
  
  
  
  
  
  
  
  
  
  
  
  
  
  
  
  
  
  
  
  
  
  
  
  
  
  
  
  
  
  
  
  
  
  
  
  
  
  
  
  
  
  
  
  
  
  
  
  
  
  
  
  
  
  
  
  
  
  
  
  
  
  
  
  
  
  
  
  
  
  
  
  
  
  
  
  
  
  
  
  
  
  
  
  
  
  
  
  
  
  
  
  
  
  
  
  
  
  
  
  
  
  
  
  
  
  
  
  
  
  
  
  
  
  
  
  
  
  
  
  
  
  
  
  
  
  
  
  
  
  
  
  
  
  
  
  
  
  
  
  
  
  
  
  
  
  
  
  
  
  
  
  
  
  
  
  
  
  
  
  
  
  
  
  
  
  
  
  
  
  
  
  
  
  
  
  
  
  
  
  
  
  
  
  
  
  
  
  
  
  
  
  
  
  
  
  
  
  
  
  
  
  
  
  
  
  
  
  
  
  
  
  
  
  
  
  
  
  
  
  
  
  
  
  
  
  
  
  
  
  
  
  
  
  
  
  
  
  
  
  
  
  
  
  
  
  
  
  
  
  
  
  
  
  
  
  
  
  
  
  
  
  
  
  
  
  
  
  
  
  
  
  
  
  
  
  
  
  
  
  
  
  
  
  
  
  
  
  
  
  
  
  
  
  
  
  
  
  
  
  
  
  
  
  
  
  
  
  
  
  
  
  
  
  
  
  
  
  
  
  
  
  
  
  
  
  
  
  
  
  
  
  
  
  
  
  
  
  
  
  
  
  
  
  
  
  
  
  
  
  
  
  
  
  
  
  
  
  
  
  
  
  
  
  
  
  
  
  
  
  
  
  
  
  
  
  
  
  
  
  
  
  
  
  
  
  
  
  
  
  
  
  
  
  
  
  
  
  
  
  
  
  
  
  
  
  
  
  
  
  
  
  
  
  
  
  
  
  
  
  
  
  
  
  
  
  
  
  
  
  
  
  
  
  
  
  
  
  
  
  
  
  
  
  
  
  
  
  
  
  
  
  
  
  
  
  
  
  
  
  
  
  
  
  
  
  
  
  
  
  
  
  
  
  
  
  
  
  
  
  
  
  
  
  
  
  
  
  
  
  
  
  
  
  
  
  
  
  
  
  
  
  
  
  
  
  
  
  
  
  
  
  
  
  
  
  
  
  
  
  
  
  
  
  
  
  
  
  
  
  
  
  
  
  
  
  
  
  
  
  
  
  
  
  
  
  
  
  
  
  
  
  
  
  
  
  
  
  
  
  
  
  
  
  
  
  
  
  
  
  
  
  
  
  
  
  
  
  
  
  
  
  
  
  
  
  
  
  
  
  
  
  
  
  
  
  
  
  
  
  
  
  
  
  
  
  
  
  
  
  
  
  
  
  
  
  
  
  
  
  
  
  
  
  
  
  
  
  
  
  
  
  
  
  
  
  
  
  
  
  
  
  
  
  
  
  
  
  
  
  
  
  
  
  
  
  
  
  
  
  
  
  
  
  
  
  
  
  
  
  
  
  
  
  
  
  
  
  
  
  
  
  
  
  
  
  
  
  
  
  
  
  
  
  
  
  
  
  
  
  
  
  
  
  
  
  
  
  
  
  
  
  
  
  
  
  
  
  
  
  
  
  
  
  
  
  
  
  
  
  
  
  
  
  
  
  
  
  
  
  
  
  
  
  
  
  
  
  
  
  
  
  
  
  
  
  
  
  
  
  
  
  
  
  
  
  
  
  
  
  
  
  
  
  
  
  
  
  
  
  
  
  
  
  
  
  
  
  
  
  
  
  
  
  
  
  
  
  
  
  
  
  
  
  
  
  
  
  
  
  
  
  
  
  
  
  
  
  
  
  
  
  
  
  
  
  
  
  
  
  
  
  
  
  
  
  
  
  
  
  
  
  
  
  
  
  
  
  
  
  
  
  
  
  
  
  
  
  
  
  
  
  
  
  
  
  
  
  
  
  
  
  
  
  
  
  
  
  
  
  
  
  
  
  
  
  
  
  
  
  
  
  
  
  
  
  
  
  
  
  
  
  
  
  
  
  
  
  
  
  
  
  
  
  
  
  
  
  
  
  
  
  
  
  
  
  
  
  
  
  
  
  
  
  
  
  
  
  
  
  
  
  
  
  
  
  
  
  
  
  
  
  
  
  
  
  
  
  
  
  
  
  
  
  
  
  
  
  
  
  
  
  
  
  
  
  
  
  
  
  
  
  
  
  
  
  
  
  
  
  
  
  
  
  
  
  
  
  
  
  
  
  
  
  
  
  
  
  
  
  
  
  
  
  
  
  
  
  
  
  
  
  
  
  
  
  
  
  
  
  
  
  
  
  
  
  
  
  
  
  
  
  
  
  
  
  
  
  
  
  
  
  
  
  
  
  
  
  
  
  
  
  
  
  
  
  
  
  
  
  
  
  
  
  
  
  
  
  
  
  
  
  
  
  
  
  
  
  
  
  
  
  
  
  
  
  
  
  
  
  
  
  
  
  
  
  
  
  
  
  
  
  
  
  
  
  
  
  
  
  
  
  
  
  
  
  
  
  
  
  
  
  
  
  
  
  
  
  
  
  
  
  
  
  
  
  
  
  
  
  
  
  
  
  
  
  
  
  
  
  
  
  
  
  
  
  
  
  
  
  
  
  
  
  
  
  
  
  
  
  
  
  
  
  
  
  
  
  
  
  
  
  
  
  
  
  
  
  
  
  
  
  
  
  
  
  
  
  
  
  
  
  
  
  
  
  
  
  
  
  
  
  
  
  
  
  
  
  
  
  
  
  
  
  
  
  
  
  
  
  
  
  
  
  
  
  
  
  
  
  
  
  
  
  
  
  
  
  
  
  
  
  
  
  
  
  
  
  
  
  
  
  
  
  
  
  
  
  
  
  
  
  
  
  
  
  
  
  
  
  
  
  
  
  
  
  
  
  
  
  
  
  
  
  
  
  
  
  
  
  
  
  
  
  
  
  
  
  
  
  
  
  
  
  
  
  
  
  
  
  
  
  
  
  
  
  
  
  
  
  
  
  
  
  
  
  
  
  
  
  
  
  
  
  
  
  
  
  
  
  
  
  
  
  
  
  
  
  
  
  
  
  
  
  
  
  
  
  
  
  
  
  
  
  
  
  
  
  
  
  
  
  
  
  
  
  
  
  
  
  
  
  
  
  
  
  
  
  
  
  
  
  
  
  
  
  
  
  
  
  
  
  
  
  
  
  
  
  
  
  
  
  
  
  
  
  
  
  
  
  
  
  
  
  
  
  
  
  
  
  
  
  
  
  
  
  
  
  
  
  
  
  
  
  
  
  
  
  
  
  
  
  
  
  
  
  
  
  
  
  
  
  
  
  
  
  
  
  
  
  
  
  
  
  
  
  
  
  
  
  
  
  
  
  
  
  
  
  
  
  
  
  
  
  
  
  
  
  
  
  
  
  
  
  
  
  
  
  
  
  
  
  
  
  
  
  
  
  
  
  
  
  
  
  
  
  
  
  
  
  
  
  
  
  
  
  
  
  
  
  
  
  
  
  
  
  
  
  
  
  
  
  
  
  
  
  
  
  
  
  
  
  
  
  
  
  
  
  
  
  
  
  
  
  
  
  
  
  
  
  
  
  
  
  
  
  
  
  
  
  
  
  
  
  
  
  
  
  
  
  
  
  
  
  
  
  
  
  
  
  
  
  
  
  
  
  
  
  
  
  
  
  
  
  
  
  
  
  
  
  
  
  
  
  
  
  
  
  
  
  
  
  
  
  
  
  
  
  
  
  
  
  
  
  
  
  
  
  
  
  
  
  
  
  
  
  
  
  
  
  
  
  
  
  
  
  
  
  
  
  
  
  
  
  
  
  
  
  
  
  
  
  
  
  
  
  
  
  
  
  
  
  
  
  
  
  
  
  
  
  
  
  
  
  
  
  
  
  
  
  
  
  
  
  
  
  
  
  
  
  
  
  
  
  
  
  
  
  
  
  
  
  
  
  
  
  
  
  
  
  
  
  
  
  
  
  
  
  
  
  
  
  
  
  
  
  
  
  
  
  
  
  
  
  
  
  
  
  
  
  
  
  
  
  
  
  
  
  
  
  
  
  
  
  
  
  
  
  
  
  
  
  
  
  
  
  
  
  
  
  
  
  
  
  
  
  
  
  
  
  
  
  
  
  
  
  
  
  
  
  
  
  
  
  
  
  
  
  
  
  
  
  
  
  
  
  
  
  
  
  
  
  
  
  
  
  
  
  
  
  
  
  
  
  
  
  
  
  
  
  
  
  
  
  
  
  
  
  
  
  
  
  
  
  
  
  
  
  
  
  
  
  
  
  
  
  
  
  
  
  
  
  
  
  
  
  
  
  
  
  
  
  
  
  
  
  
  
  
  
  
  <path
   style="fill:#72b3dc;stroke:#c2dffb;stroke-width:1"
   d="m 42.834,9.262 2.228,1.23 -0.108,0.609 -0.085,0.18 -0.528,0.802 -0.188,0.126 -0.06,0.137 -0.46,1.188 -0.018,0.077 -0.009,0.2 -2.217,-1.258 0.36,-2.692 0.023,-0.058 1.062,-0.541"
   id="54003"
   inkscape:label="Berkeley, WV"
   inkscape:connector-curvature="0" />
  <path
   style="fill:#72b3dc;stroke:#c2dffb;stroke-width:1"
   d="m 45.062,10.492 1.461,2.006 -0.596,2.614 -2.321,-1.301 0.009,-0.2 0.018,-0.077 0.46,-1.188 0.06,-0.137 0.188,-0.126 0.528,-0.802 0.085,-0.18 0.108,-0.609"
   id="54037"
   inkscape:label="Jefferson, WV"
   inkscape:connector-curvature="0" />
  <path
   style="fill:#72b3dc;stroke:#c2dffb;stroke-width:1"
   d="m 3.939,29.363 1.848,1.272 0.271,1.275 -1.894,2.186 -2.74,-1.983 1.592,-0.63 0.099,-0.064 0.053,-0.068 0.028,-0.076 0.018,-0.086 0.018,-0.094 0.045,-0.924 0.004,-0.027 0.004,-0.564 0.654,-0.217"
   id="54011"
   inkscape:label="Cabell, WV"
   inkscape:connector-curvature="0" />
  <path
   style="fill:#72b3dc;stroke:#c2dffb;stroke-width:1"
   d="m 1.424,32.113 2.74,1.983 -0.082,0.37 0.272,1.108 0.045,0.062 0.346,0.366 0.285,0.717 -0.743,1.109 -0.867,1.217 -1.045,-0.964 0.261,-0.451 0,-0.072 L 2.632,37.548 2.618,37.53 1.032,36.016 1.005,36.008 0.812,35.966 0.631,35.805 l 0,-0.01 L 0.54,35.569 0.5,35.456 0.5,35.452 0.752,34.349 0.54,32.086 1.424,32.113"
   id="54099"
   inkscape:label="Wayne, WV"
   inkscape:connector-curvature="0" />
  <path
   style="fill:#72b3dc;stroke:#c2dffb;stroke-width:1"
   d="m 4.287,37.828 1.095,-0.568 -0.042,0.167 0.744,1.511 0.573,1.081 1.217,0.977 0.247,-0.112 0.343,-0.15 0.658,-0.053 0.74,0.045 -0.316,1.514 -0.653,0.582 -0.455,-0.271 -0.393,0.117 -0.4,0.091 -0.732,-0.266 -0.003,0 L 4.858,41.113 4.481,40.532 4.462,40.469 4.466,40.46 3.42,39.045 4.287,37.828"
   id="54059"
   inkscape:label="Mingo, WV"
   inkscape:connector-curvature="0" />
  <path
   style="fill:#72b3dc;stroke:#c2dffb;stroke-width:1"
   d="m 7.865,36.228 -0.257,0.28 -0.149,0.225 0,0.067 0.036,0.05 1.226,0.261 0.419,-0.045 0.406,0.14 1.429,1.081 0.469,0.366 0.126,0.13 -1.22,0.528 -0.109,0.31 0.553,0.425 -0.427,0.342 -0.505,0.338 -0.74,-0.045 -0.658,0.053 -0.343,0.15 L 7.874,40.996 6.657,40.019 6.084,38.938 5.34,37.427 5.382,37.26 7.865,36.228"
   id="54045"
   inkscape:label="Logan, WV"
   inkscape:connector-curvature="0" />
  <path
   style="fill:#72b3dc;stroke:#c2dffb;stroke-width:1"
   d="m 11.57,38.783 0.928,-0.175 0.589,0.027 0.358,0.378 1.122,1.461 1.417,1.285 -0.723,1.243 -1.546,-0.356 -1.51,-0.073 -1.275,0.159 -0.875,-0.027 -0.509,-0.465 0.316,-1.514 0.505,-0.338 0.427,-0.342 -0.553,-0.425 0.109,-0.31 1.22,-0.528"
   id="54109"
   inkscape:label="Wyoming, WV"
   inkscape:connector-curvature="0" />
  <path
   style="fill:#72b3dc;stroke:#c2dffb;stroke-width:1"
   d="m 9.546,42.24 0.509,0.465 0.875,0.027 1.275,-0.159 1.51,0.073 1.546,0.356 -0.339,1.194 -0.374,0.752 -0.883,0.808 -0.008,0.009 -0.442,0.406 -0.032,0.018 -1.181,0.234 -0.675,-0.401 -1.146,-0.414 -0.117,-0.06 -0.004,0 L 9.212,44.809 8.342,43.574 8.27,43.381 8.297,43.295 8.752,42.885 8.893,42.822 9.546,42.24"
   id="54047"
   inkscape:label="McDowell, WV"
   inkscape:connector-curvature="0" />
  <path
   style="fill:#72b3dc;stroke:#c2dffb;stroke-width:1"
   d="m 17.104,40.555 2.683,1.662 -0.929,1.948 -2.354,1.136 -1.582,-1.105 0.339,-1.194 0.723,-1.243 1.12,-1.204"
   id="54055"
   inkscape:label="Mercer, WV"
   inkscape:connector-curvature="0" />
  <path
   style="fill:#72b3dc;stroke:#c2dffb;stroke-width:1"
   d="m 21.125,38.026 3.753,-0.095 0.889,0.695 -0.581,0.703 -0.316,0.654 0.23,0.427 -1.153,1.019 -0.293,0.248 -0.483,-0.694 -1.014,0.802 -0.104,0.082 -1.253,0.941 -1.001,-0.573 0.609,-1.811 0.712,-1.956 0.068,-0.23 -0.063,-0.212"
   id="54063"
   inkscape:label="Monroe, WV"
   inkscape:connector-curvature="0" />
  <path
   style="fill:#72b3dc;stroke:#c2dffb;stroke-width:1"
   d="m 19.412,36.493 1.713,1.533 0.063,0.212 -0.068,0.23 -0.712,1.956 -0.609,1.811 -0.012,-0.018 -2.683,-1.662 0.112,-0.591 0.04,-0.117 0.768,-1.1 0.306,-0.058 0.104,0.018 0.334,0.135 0.102,0.103 0,0.145 0.064,0.014 0.131,-0.1 0.009,-0.04 -0.014,-0.086 -0.338,-1.032 -0.388,-0.397 -0.126,-0.077 -0.081,-0.017 1.285,-0.862"
   id="54089"
   inkscape:label="Summers, WV"
   inkscape:connector-curvature="0" />
  <path
   style="fill:#72b3dc;stroke:#c2dffb;stroke-width:1"
   d="m 12.683,35.998 0.793,0.117 0.951,0.852 0.064,0.041 2.257,0.031 1.379,0.316 0.081,0.017 0.126,0.077 0.388,0.397 0.338,1.032 0.014,0.086 -0.009,0.04 -0.131,0.1 -0.064,-0.014 0,-0.145 -0.102,-0.103 -0.334,-0.135 -0.104,-0.018 -0.306,0.058 -0.768,1.1 -0.04,0.117 -0.112,0.591 -1.12,1.204 -1.417,-1.285 -1.122,-1.461 -0.358,-0.378 -0.589,-0.027 0.185,-2.61"
   id="54081"
   inkscape:label="Raleigh, WV"
   inkscape:connector-curvature="0" />
  <path
   style="fill:#72b3dc;stroke:#c2dffb;stroke-width:1"
   d="m 12.683,35.998 -0.185,2.61 -0.928,0.175 -0.126,-0.13 L 10.975,38.287 9.546,37.206 9.14,37.066 8.721,37.111 7.495,36.85 7.459,36.8 l 0,-0.067 0.149,-0.225 0.257,-0.28 0.63,-2.515 1.078,-0.334 0.261,-0.071 0.207,0.013 1.722,1.126 0.739,1.1 0.181,0.451"
   id="54005"
   inkscape:label="Boone, WV"
   inkscape:connector-curvature="0" />
  <path
   style="fill:#72b3dc;stroke:#c2dffb;stroke-width:1"
   d="m 6.058,31.91 1.401,0.433 1.036,1.37 -0.63,2.515 L 5.382,37.26 4.287,37.828 5.03,36.719 4.745,36.002 4.399,35.636 4.354,35.574 4.082,34.466 4.164,34.096 6.058,31.91"
   id="54043"
   inkscape:label="Lincoln, WV"
   inkscape:connector-curvature="0" />
  <path
   style="fill:#72b3dc;stroke:#c2dffb;stroke-width:1"
   d="M 9.046,28.147 8.559,28.832 7.468,31.383 7.459,32.343 6.058,31.91 5.787,30.635 5.44,28.931 6.422,28.138 8.185,27.566 9.046,28.147"
   id="54079"
   inkscape:label="Putnam, WV"
   inkscape:connector-curvature="0" />
  <path
   style="fill:#72b3dc;stroke:#c2dffb;stroke-width:1"
   d="m 6.463,25.227 -0.014,0.031 0.099,0.153 1.353,1.509 0.284,0.646 -1.763,0.572 -0.982,0.793 0.347,1.704 -1.848,-1.272 0.189,-0.041 0.059,-0.012 0.022,-0.024 0.056,-0.045 0.025,-0.027 0.041,-0.067 0.013,-0.063 0.005,-0.076 0.005,-0.045 0,-0.018 L 4.34,28.855 4.082,27.804 4.079,27.8 l 0.13,-2.083 0.226,-1.235 0.031,-0.18 0.46,-0.779 0.171,-0.09 0.153,0.008 0.005,0 0.73,0.398 0.195,0.242 0.247,0.37 0.036,0.1 0,0.676"
   id="54053"
   inkscape:label="Mason, WV"
   inkscape:connector-curvature="0" />
  <path
   style="fill:#72b3dc;stroke:#c2dffb;stroke-width:1"
   d="m 9.397,22.837 0.986,1.276 0.411,3.949 L 9.046,28.147 8.185,27.566 7.901,26.92 6.548,25.411 6.449,25.258 6.463,25.227 6.792,25.141 7.837,24.397 7.861,24.289 7.621,23.251 7.513,23.125 7.287,22.974 7.175,22.892 7.067,22.751 7.018,22.575 l 0,-0.112 0.612,-0.266 1.767,0.64"
   id="54035"
   inkscape:label="Jackson, WV"
   inkscape:connector-curvature="0" />
  <path
   style="fill:#72b3dc;stroke:#c2dffb;stroke-width:1"
   d="m 9.046,28.147 1.748,-0.085 0.686,0.743 2.46,-0.167 0.27,0.013 -0.774,0.852 0.486,1.199 0.451,1.397 -0.004,0.005 -0.893,4.011 -0.793,-0.117 -0.181,-0.451 -0.739,-1.1 -1.722,-1.126 -0.207,-0.013 -0.261,0.071 -1.078,0.334 -1.036,-1.37 0.009,-0.96 1.091,-2.551 0.487,-0.685"
   id="54039"
   inkscape:label="Kanawha, WV"
   inkscape:connector-curvature="0" />
  <path
   style="fill:#72b3dc;stroke:#c2dffb;stroke-width:1"
   d="m 18.177,33.605 1.235,2.888 -1.285,0.862 -1.379,-0.316 -2.257,-0.031 -0.064,-0.041 -0.951,-0.852 0.893,-4.011 0.847,0.356 0.812,0.257 0.072,0 0.04,-0.036 -0.011,-0.176 0.209,-0.23 0.576,-0.036 0.16,0.063 0.296,0.244 0.807,1.059"
   id="54019"
   inkscape:label="Fayette, WV"
   inkscape:connector-curvature="0" />
  <path
   style="fill:#72b3dc;stroke:#c2dffb;stroke-width:1"
   d="m 15.13,27.394 0.403,-0.797 1.815,1.829 0.581,0.072 0.108,0.19 -0.797,0.968 -2.867,2.443 -0.451,-1.397 -0.486,-1.199 0.774,-0.852 0.92,-1.257"
   id="54015"
   inkscape:label="Clay, WV"
   inkscape:connector-curvature="0" />
  <path
   style="fill:#72b3dc;stroke:#c2dffb;stroke-width:1"
   d="m 10.383,24.113 0.858,-0.172 0.752,0.211 0.61,-0.347 0.706,0.826 0.122,0.577 0.897,1.893 0.802,0.293 -0.92,1.257 -0.27,-0.013 -2.46,0.167 -0.686,-0.743 -0.411,-3.949"
   id="54087"
   inkscape:label="Roane, WV"
   inkscape:connector-curvature="0" />
  <path
   style="fill:#72b3dc;stroke:#c2dffb;stroke-width:1"
   d="m 14.815,22.211 0.343,0.491 0.053,0.085 0.243,1.47 0.438,1.622 -0.359,0.718 -0.403,0.797 -0.802,-0.293 -0.897,-1.893 -0.122,-0.577 -0.706,-0.826 0.905,-1.662 1.307,0.068"
   id="54013"
   inkscape:label="Calhoun, WV"
   inkscape:connector-curvature="0" />
  <path
   style="fill:#72b3dc;stroke:#c2dffb;stroke-width:1"
   d="m 11.868,20.363 1.64,1.78 -0.905,1.662 -0.61,0.347 -0.752,-0.211 -0.858,0.172 -0.986,-1.276 2.471,-2.474"
   id="54105"
   inkscape:label="Wirt, WV"
   inkscape:connector-curvature="0" />
  <path
   style="fill:#72b3dc;stroke:#c2dffb;stroke-width:1"
   d="m 10.833,18.461 1.44,0.748 -0.405,1.154 -2.471,2.474 -1.767,-0.64 -0.184,-1.081 0.405,-0.893 1.289,-1.641 0.627,-0.766 0.103,-0.089 0.09,-0.028 0.113,0.009 0.253,0.14 0.072,0.077 0.435,0.536"
   id="54107"
   inkscape:label="Wood, WV"
   inkscape:connector-curvature="0" />
  <path
   style="fill:#72b3dc;stroke:#c2dffb;stroke-width:1"
   d="m 14.373,17.79 -0.694,0.391 -1.275,0.487 -0.059,0.091 -0.04,0.171 -0.032,0.279 -1.44,-0.748 1.981,-1.699 1.559,1.028"
   id="54073"
   inkscape:label="Pleasants, WV"
   inkscape:connector-curvature="0" />
  <path
   style="fill:#72b3dc;stroke:#c2dffb;stroke-width:1"
   d="m 14.373,17.79 1.281,0.54 1.126,2.253 -1.965,1.628 -1.307,-0.068 -1.64,-1.78 0.405,-1.154 0.032,-0.279 0.04,-0.171 0.059,-0.091 1.275,-0.487 0.694,-0.391"
   id="54085"
   inkscape:label="Ritchie, WV"
   inkscape:connector-curvature="0" />
  <path
   style="fill:#72b3dc;stroke:#c2dffb;stroke-width:1"
   d="m 16.78,20.583 0.856,0.042 1.605,2.262 -0.033,-0.004 -0.102,0.049 -0.487,0.253 -0.269,0.179 -1.498,1.556 -0.96,0.959 -0.438,-1.622 -0.243,-1.47 -0.053,-0.085 -0.343,-0.491 1.965,-1.628"
   id="54021"
   inkscape:label="Gilmer, WV"
   inkscape:connector-curvature="0" />
  <path
   style="fill:#72b3dc;stroke:#c2dffb;stroke-width:1"
   d="m 19.241,22.887 0.194,0.419 0.117,0.127 0.54,-0.113 0.596,0.266 0.374,0.783 0.026,0.244 -0.041,0.149 -1.458,3.042 -2.241,0.622 -1.815,-1.829 0.359,-0.718 0.96,-0.959 1.498,-1.556 0.269,-0.179 0.487,-0.253 0.102,-0.049 0.033,0.004"
   id="54007"
   inkscape:label="Braxton, WV"
   inkscape:connector-curvature="0" />
  <path
   style="fill:#72b3dc;stroke:#c2dffb;stroke-width:1"
   d="m 19.589,27.804 -0.195,0.379 0.441,0.987 0.515,0.726 1.906,0.887 -0.811,1.037 -1.344,1.631 -0.189,0.195 -1.735,-0.041 -0.807,-1.059 -0.296,-0.244 -0.16,-0.063 -0.576,0.036 -0.209,0.23 0.011,0.176 -0.04,0.036 -0.072,0 -0.812,-0.257 -0.847,-0.356 0.004,-0.005 2.867,-2.443 0.797,-0.968 -0.108,-0.19 -0.581,-0.072 2.241,-0.622"
   id="54067"
   inkscape:label="Nicholas, WV"
   inkscape:connector-curvature="0" />
  <path
   style="fill:#72b3dc;stroke:#c2dffb;stroke-width:1"
   d="m 23.103,31.189 0.204,1.438 1.127,0.703 0.553,0.031 0.419,-0.057 0.573,-0.357 1.446,-0.347 -0.698,1.591 -1.849,3.74 -3.753,0.095 -1.713,-1.533 -1.235,-2.888 1.735,0.041 0.189,-0.195 1.344,-1.631 0.811,-1.037 0.847,0.406"
   id="54025"
   inkscape:label="Greenbrier, WV"
   inkscape:connector-curvature="0" />
  <path
   style="fill:#72b3dc;stroke:#c2dffb;stroke-width:1"
   d="m 21.047,24.762 0.663,0.05 1.18,0.229 1.313,2.015 -0.316,1.856 -0.725,0.817 -0.24,-0.085 0.181,1.545 -0.847,-0.406 -1.906,-0.887 -0.515,-0.726 -0.441,-0.987 0.195,-0.379 1.458,-3.042"
   id="54101"
   inkscape:label="Webster, WV"
   inkscape:connector-curvature="0" />
  <path
   style="fill:#72b3dc;stroke:#c2dffb;stroke-width:1"
   d="m 21.819,19.831 0.693,-0.234 1.754,1.887 0.1,1.39 -0.069,1.261 -1.086,0.208 -0.321,0.698 -1.18,-0.229 -0.253,-0.496 -0.003,-1.406 0.009,-0.135 0.035,-0.042 0.068,-0.012 0.185,-0.398 0.162,-0.547 -0.053,-1.394 -0.041,-0.551"
   id="54097"
   inkscape:label="Upshur, WV"
   inkscape:connector-curvature="0" />
  <path
   style="fill:#72b3dc;stroke:#c2dffb;stroke-width:1"
   d="m 18.786,19.498 3.033,0.333 0.041,0.551 0.053,1.394 -0.162,0.547 -0.185,0.398 -0.068,0.012 -0.035,0.042 -0.009,0.135 0.003,1.406 0.253,0.496 -0.663,-0.05 0.041,-0.149 -0.026,-0.244 -0.374,-0.783 -0.596,-0.266 -0.54,0.113 -0.117,-0.127 -0.194,-0.419 -1.605,-2.262 1.15,-1.127"
   id="54041"
   inkscape:label="Lewis, WV"
   inkscape:connector-curvature="0" />
  <path
   style="fill:#72b3dc;stroke:#c2dffb;stroke-width:1"
   d="m 17.969,15.901 0.767,0.153 0.05,3.444 -1.15,1.127 -0.856,-0.042 -1.126,-2.253 2.315,-2.429"
   id="54017"
   inkscape:label="Doddridge, WV"
   inkscape:connector-curvature="0" />
  <path
   style="fill:#72b3dc;stroke:#c2dffb;stroke-width:1"
   d="m 14.472,14.404 3.497,1.497 -2.315,2.429 -1.281,-0.54 -1.559,-1.028 0.869,-1.357 0.789,-1.001"
   id="54095"
   inkscape:label="Tyler, WV"
   inkscape:connector-curvature="0" />
  <path
   style="fill:#72b3dc;stroke:#c2dffb;stroke-width:1"
   d="m 19.146,15.454 3.06,0.5 0.627,1.885 -0.321,1.758 -0.693,0.234 -3.033,-0.333 -0.05,-3.444 0.41,-0.6"
   id="54033"
   inkscape:label="Harrison, WV"
   inkscape:connector-curvature="0" />
  <path
   style="fill:#72b3dc;stroke:#c2dffb;stroke-width:1"
   d="M 16.438,0.5 16.78,2.569 16.951,3.574 16.004,3.791 15.126,1.455 16.438,0.5"
   id="54029"
   inkscape:label="Hancock, WV"
   inkscape:connector-curvature="0" />
  <path
   style="fill:#72b3dc;stroke:#c2dffb;stroke-width:1"
   d="m 16.951,3.574 0.498,3.07 -1.67,-0.086 0.225,-2.767 0.947,-0.217"
   id="54009"
   inkscape:label="Brooke, WV"
   inkscape:connector-curvature="0" />
  <path
   style="fill:#72b3dc;stroke:#c2dffb;stroke-width:1"
   d="m 15.779,6.558 1.67,0.086 0.3,1.838 -2.1,0.122 0.026,-1.641 0.104,-0.405"
   id="54069"
   inkscape:label="Ohio, WV"
   inkscape:connector-curvature="0" />
  <path
   style="fill:#72b3dc;stroke:#c2dffb;stroke-width:1"
   d="m 17.749,8.482 0.618,3.782 -3.007,0.5 -0.108,-1.735 0.397,-2.425 2.1,-0.122"
   id="54051"
   inkscape:label="Marshall, WV"
   inkscape:connector-curvature="0" />
  <path
   style="fill:#72b3dc;stroke:#c2dffb;stroke-width:1"
   d="m 19.322,12.11 0.423,1.037 -0.599,2.307 -0.41,0.6 -0.767,-0.153 -3.497,-1.497 0.888,-1.64 3.007,-0.5 0.955,-0.154"
   id="54103"
   inkscape:label="Wetzel, WV"
   inkscape:connector-curvature="0" />
  <path
   style="fill:#72b3dc;stroke:#c2dffb;stroke-width:1"
   d="m 19.745,13.147 0.528,0.249 1.889,-0.299 0.77,0.591 0.491,0.433 1.172,0.645 -2.389,1.188 -3.06,-0.5 0.599,-2.307"
   id="54049"
   inkscape:label="Marion, WV"
   inkscape:connector-curvature="0" />
  <path
   style="fill:#72b3dc;stroke:#c2dffb;stroke-width:1"
   d="m 26.343,17.392 0.105,1.497 -0.195,0.311 -0.036,0.09 -0.121,1.068 -0.009,0.375 -0.027,0.103 -1.794,0.648 -1.754,-1.887 0.321,-1.758 2.524,-1.186 0.986,0.739"
   id="54001"
   inkscape:label="Barbour, WV"
   inkscape:connector-curvature="0" />
  <path
   style="fill:#72b3dc;stroke:#c2dffb;stroke-width:1"
   d="m 24.595,14.766 0.469,0.143 0.293,1.744 -2.524,1.186 -0.627,-1.885 2.389,-1.188"
   id="54091"
   inkscape:label="Taylor, WV"
   inkscape:connector-curvature="0" />
  <path
   style="fill:#72b3dc;stroke:#c2dffb;stroke-width:1"
   d="m 25.707,11.038 0.055,0.306 -0.085,0.977 -0.763,2.002 0.15,0.586 -0.469,-0.143 -1.172,-0.645 -0.491,-0.433 -0.77,-0.591 -1.889,0.299 -0.528,-0.249 -0.423,-1.037 4.908,-0.82 1.477,-0.252"
   id="54061"
   inkscape:label="Monongalia, WV"
   inkscape:connector-curvature="0" />
  <path
   style="fill:#72b3dc;stroke:#c2dffb;stroke-width:1"
   d="m 29.396,24.339 -0.06,0.968 -0.017,1.068 -0.05,0.911 -0.266,0.947 -0.617,0.959 -0.005,0.045 0,0.014 0.243,0.491 -1.199,2.858 -1.446,0.347 -0.573,0.357 -0.419,0.057 -0.553,-0.031 -1.127,-0.703 -0.204,-1.438 -0.181,-1.545 0.24,0.085 0.725,-0.817 0.906,-1.081 1.091,-0.185 1.429,-1.451 0.067,-1.038 0.032,-0.224 0.297,-1.271 0.054,-0.041 0.217,0.041 1.38,0.488 0.036,0.189"
   id="54075"
   inkscape:label="Pocahontas, WV"
   inkscape:connector-curvature="0" />
  <path
   style="fill:#72b3dc;stroke:#c2dffb;stroke-width:1"
   d="m 28.498,10.546 1.059,6.612 0.019,0.145 -0.248,-0.239 -1.875,-0.401 -1.11,0.729 -0.986,-0.739 -0.293,-1.744 -0.15,-0.586 0.763,-2.002 0.085,-0.977 -0.055,-0.306 2.791,-0.492"
   id="54077"
   inkscape:label="Preston, WV"
   inkscape:connector-curvature="0" />
  <path
   style="fill:#72b3dc;stroke:#c2dffb;stroke-width:1"
   d="m 31.365,20.029 0.094,0.078 -0.892,0.734 -0.495,0.613 -0.208,0.446 0,0.018 0.175,0.329 0.081,0.036 0.15,0.117 0.027,0.073 -0.018,0.176 -0.159,0.459 -0.509,0.982 -0.215,0.249 -0.036,-0.189 -1.38,-0.488 -0.217,-0.041 -0.054,0.041 -0.297,1.271 -0.032,0.224 -0.067,1.038 -1.429,1.451 -1.091,0.185 -0.906,1.081 0.316,-1.856 -1.313,-2.015 0.321,-0.698 1.086,-0.208 0.069,-1.261 -0.1,-1.39 1.794,-0.648 0.027,-0.103 0.009,-0.375 0.121,-1.068 0.036,-0.09 0.195,-0.311 0.586,0.902 2.955,0.311 1.376,-0.073"
   id="54083"
   inkscape:label="Randolph, WV"
   inkscape:connector-curvature="0" />
  <path
   style="fill:#72b3dc;stroke:#c2dffb;stroke-width:1"
   d="m 31.459,20.107 2.444,1.464 0.874,0.532 -1.014,3.913 -0.699,1.009 -1.727,-0.293 -0.612,-0.907 -0.189,-0.189 -0.203,-0.09 -0.997,-0.239 0.06,-0.968 0.215,-0.249 0.509,-0.982 0.159,-0.459 0.018,-0.176 -0.027,-0.073 -0.15,-0.117 -0.081,-0.036 -0.175,-0.329 0,-0.018 0.208,-0.446 0.495,-0.613 0.892,-0.734"
   id="54071"
   inkscape:label="Pendleton, WV"
   inkscape:connector-curvature="0" />
  <path
   style="fill:#72b3dc;stroke:#c2dffb;stroke-width:1"
   d="m 26.343,17.392 1.11,-0.729 1.875,0.401 0.248,0.239 0.923,-0.171 0.708,0.473 0.496,0.928 0.004,0.348 -0.022,0.368 -0.1,0.438 -0.22,0.342 -1.376,0.073 -2.955,-0.311 -0.586,-0.902 -0.105,-1.497"
   id="54093"
   inkscape:label="Tucker, WV"
   inkscape:connector-curvature="0" />
  <path
   style="fill:#72b3dc;stroke:#c2dffb;stroke-width:1"
   d="m 31.171,15.221 3.263,0.653 -0.055,0.135 -0.265,1.051 -0.294,1.558 0.155,0.447 0.283,1.326 -0.355,1.18 -2.444,-1.464 -0.094,-0.078 0.22,-0.342 0.1,-0.438 0.022,-0.368 -0.004,-0.348 -0.496,-0.928 -0.708,-0.473 -0.923,0.171 -0.019,-0.145 1.614,-1.937"
   id="54023"
   inkscape:label="Grant, WV"
   inkscape:connector-curvature="0" />
  <path
   style="fill:#72b3dc;stroke:#c2dffb;stroke-width:1"
   d="m 34.434,15.874 0.883,0.352 1.492,0.283 0.893,0.099 0.622,-0.099 0.083,-0.063 0.363,0.036 0.266,0.163 0.356,0.288 -0.276,0.473 -0.008,0.492 -0.018,0.09 -0.316,0.699 -0.946,0.892 -0.032,-0.005 -0.041,-0.063 -0.04,-0.067 -0.514,0.487 -0.044,0.071 -0.023,0.036 -0.131,0.406 -0.383,1.303 -1.843,0.356 -0.874,-0.532 0.355,-1.18 -0.283,-1.326 -0.155,-0.447 0.294,-1.558 0.265,-1.051 0.055,-0.135"
   id="54031"
   inkscape:label="Hardy, WV"
   inkscape:connector-curvature="0" />
  <path
   style="fill:#72b3dc;stroke:#c2dffb;stroke-width:1"
   d="m 36.877,11.493 -2.443,4.381 -3.263,-0.653 1.834,-2.213 1.064,0.239 1.618,-2.227 1.19,0.473"
   id="54057"
   inkscape:label="Mineral, WV"
   inkscape:connector-curvature="0" />
  <path
   style="fill:#72b3dc;stroke:#c2dffb;stroke-width:1"
   d="m 36.877,11.493 1.879,-0.103 1.303,0.428 0.113,1.411 -0.027,2.46 -0.036,0.208 -0.15,0.351 -0.152,0.278 -0.303,0.299 -0.112,0.108 -0.356,-0.288 -0.266,-0.163 -0.363,-0.036 -0.083,0.063 -0.622,0.099 -0.893,-0.099 -1.492,-0.283 -0.883,-0.352 2.443,-4.381"
   id="54027"
   inkscape:label="Hampshire, WV"
   inkscape:connector-curvature="0" />
  <path
   style="fill:#72b3dc;stroke:#c2dffb;stroke-width:1"
   d="m 39.788,9.623 0.523,0.104 0.117,-0.014 0.348,-0.641 0.256,-0.405 0.068,-0.077 0.059,-0.022 0.334,0.009 0.364,0.04 0.361,0.135 0.45,0.326 0.166,0.184 -1.062,0.541 -0.023,0.058 -0.36,2.692 -1.33,-0.735 -1.303,-0.428 1.032,-1.767"
   id="54065"
   inkscape:label="Morgan, WV"
   inkscape:connector-curvature="0" />
  
  
  
  
  
  
  
  
  
  
  
  
  
  
  
  
  
  
  
  
  
  
  
  
  
  
</svg>