<?xml version="1.0" encoding="UTF-8" standalone="no"?>
<!--?xml version="1.0" encoding="UTF-8" standalone="no"?-->

<svg
   xmlns:dc="http://purl.org/dc/elements/1.1/"
   xmlns:cc="http://creativecommons.org/ns#"
   xmlns:rdf="http://www.w3.org/1999/02/22-rdf-syntax-ns#"
   xmlns:svg="http://www.w3.org/2000/svg"
   xmlns="http://www.w3.org/2000/svg"
   xmlns:sodipodi="http://sodipodi.sourceforge.net/DTD/sodipodi-0.dtd"
   xmlns:inkscape="http://www.inkscape.org/namespaces/inkscape"
   width="78.456703"
   height="65.308281"
   viewBox="0 0 72.523003 59.656603"
   preserveAspectRatio="xMinYMin meet"
   xml:space="preserve"
   id="svg3520"
   version="1.1"
   inkscape:version="0.48.2 r9819"
   sodipodi:docname="WY.svg"><metadata
   id="metadata3549"><rdf:RDF><cc:Work
       rdf:about=""><dc:format>image/svg+xml</dc:format><dc:type
         rdf:resource="http://purl.org/dc/dcmitype/StillImage" /></cc:Work></rdf:RDF></metadata><defs
   id="defs3547" /><sodipodi:namedview
   pagecolor="#ffffff"
   bordercolor="#666666"
   borderopacity="1"
   objecttolerance="10"
   gridtolerance="10"
   guidetolerance="10"
   inkscape:pageopacity="0"
   inkscape:pageshadow="2"
   inkscape:window-width="640"
   inkscape:window-height="480"
   id="namedview3545"
   showgrid="false"
   inkscape:zoom="0.56730769"
   inkscape:cx="137.43204"
   inkscape:cy="-63.790391"
   inkscape:window-x="151"
   inkscape:window-y="55"
   inkscape:window-maximized="0"
   inkscape:current-layer="svg3520" />
  
  
  
  
  
  
  
  
  
  
  
  
  
  
  
  
  
  
  
  
  
  
  
  
  
  
  
  
  
  
  
  
  
  
  
  
  
  
  
  
  
  
  
  
  
  
  
  
  
  
  
  
  
  
  
  
  
  
  
  
  
  
  
  
  
  
  
  
  
  
  
  
  
  
  
  
  
  
  
  
  
  
  
  
  
  
  
  
  
  
  
  
  
  
  
  
  
  
  
  
  
  
  
  
  
  
  
  
  
  
  
  
  
  
  
  
  
  
  
  
  
  
  
  
  
  
  
  
  
  
  
  
  
  
  
  
  
  
  
  
  
  
  
  
  
  
  
  
  
  
  
  
  
  
  
  
  
  
  
  
  
  
  
  
  
  
  
  
  
  
  
  
  
  
  
  
  
  
  
  
  
  
  
  
  
  
  
  
  
  
  
  
  
  
  
  
  
  
  
  
  
  
  
  
  
  
  
  
  
  
  
  
  
  
  
  
  
  
  
  
  
  
  
  
  
  
  
  
  
  
  
  
  
  
  
  
  
  
  
  
  
  
  
  
  
  
  
  
  
  
  
  
  
  
  
  
  
  
  
  
  
  
  
  
  
  
  
  
  
  
  
  
  
  
  
  
  
  
  
  
  
  
  
  
  
  
  
  
  
  
  
  
  
  
  
  
  
  
  
  
  
  
  
  
  
  
  
  
  
  
  
  
  
  
  
  
  
  
  
  
  
  
  
  
  
  
  
  
  
  
  
  
  
  
  
  
  
  
  
  
  
  
  
  
  
  
  
  
  
  
  
  
  
  
  
  
  
  
  
  
  
  
  
  
  
  
  
  
  
  
  
  
  
  
  
  
  
  
  
  
  
  
  
  
  
  
  
  
  
  
  
  
  
  
  
  
  
  
  
  
  
  
  
  
  
  
  
  
  
  
  
  
  
  
  
  
  
  
  
  
  
  
  
  
  
  
  
  
  
  
  
  
  
  
  
  
  
  
  
  
  
  
  
  
  
  
  
  
  
  
  
  
  
  
  
  
  
  
  
  
  
  
  
  
  
  
  
  
  
  
  
  
  
  
  
  
  
  
  
  
  
  
  
  
  
  
  
  
  
  
  
  
  
  
  
  
  
  
  
  
  
  
  
  
  
  
  
  
  
  
  
  
  
  
  
  
  
  
  
  
  
  
  
  
  
  
  
  
  
  
  
  
  
  
  
  
  
  
  
  
  
  
  
  
  
  
  
  
  
  
  
  
  
  
  
  
  
  
  
  
  
  
  
  
  
  
  
  
  
  
  
  
  
  
  
  
  
  
  
  
  
  
  
  
  
  
  
  
  
  
  
  
  
  
  
  
  
  
  
  
  
  
  
  
  
  
  
  
  
  
  
  
  
  
  
  
  
  
  
  
  
  
  
  
  
  
  
  
  
  
  
  
  
  
  
  
  
  
  
  
  
  
  
  
  
  
  
  
  
  
  
  
  
  
  
  
  
  
  
  
  
  
  
  
  
  
  
  
  
  
  
  
  
  
  
  
  
  
  
  
  
  
  
  
  
  
  
  
  
  
  
  
  
  
  
  
  
  
  
  
  
  
  
  
  
  
  
  
  
  
  
  
  
  
  
  
  
  
  
  
  
  
  
  
  
  
  
  
  
  
  
  
  
  
  
  
  
  
  
  
  
  
  
  
  
  
  
  
  
  
  
  
  
  
  
  
  
  
  
  
  
  
  
  
  
  
  
  
  
  
  
  
  
  
  
  
  
  
  
  
  
  
  
  
  
  
  
  
  
  
  
  
  
  
  
  
  
  
  
  
  
  
  
  
  
  
  
  
  
  
  
  
  
  
  
  
  
  
  
  
  
  
  
  
  
  
  
  
  
  
  
  
  
  
  
  
  
  
  
  
  
  
  
  
  
  
  
  
  
  
  
  
  
  
  
  
  
  
  
  
  
  
  
  
  
  
  
  
  
  
  
  
  
  
  
  
  
  
  
  
  
  
  
  
  
  
  
  
  
  
  
  
  
  
  
  
  
  
  
  
  
  
  
  
  
  
  
  
  
  
  
  
  
  
  
  
  
  
  
  
  
  
  
  
  
  
  
  
  
  
  
  
  
  
  
  
  
  
  
  
  
  
  
  
  
  
  
  
  
  
  
  
  
  
  
  
  
  
  
  
  
  
  
  
  
  
  
  
  
  
  
  
  
  
  
  
  
  
  
  
  
  
  
  
  
  
  
  
  
  
  
  
  
  
  
  
  
  
  
  
  
  
  
  
  
  
  
  
  
  
  
  
  
  
  
  
  
  
  
  
  
  
  
  
  
  
  
  
  
  
  
  
  
  
  
  
  
  
  
  
  
  
  
  
  
  
  
  
  
  
  
  
  
  
  
  
  
  
  
  
  
  
  
  
  
  
  
  
  
  
  
  
  
  
  
  
  
  
  
  
  
  
  
  
  
  
  
  
  
  
  
  
  
  
  
  
  
  
  
  
  
  
  
  
  
  
  
  
  
  
  
  
  
  
  
  
  
  
  
  
  
  
  
  
  
  
  
  
  
  
  
  
  
  
  
  
  
  
  
  
  
  
  
  
  
  
  
  
  
  
  
  
  
  
  
  
  
  
  
  
  
  
  
  
  
  
  
  
  
  
  
  
  
  
  
  
  
  
  
  
  
  
  
  
  
  
  
  
  
  
  
  
  
  
  
  
  
  
  
  
  
  
  
  
  
  
  
  
  
  
  
  
  
  
  
  
  
  
  
  
  
  
  
  
  
  
  
  
  
  
  
  
  
  
  
  
  
  
  
  
  
  
  
  
  
  
  
  
  
  
  
  
  
  
  
  
  
  
  
  
  
  
  
  
  
  
  
  
  
  
  
  
  
  
  
  
  
  
  
  
  
  
  
  
  
  
  
  
  
  
  
  
  
  
  
  
  
  
  
  
  
  
  
  
  
  
  
  
  
  
  
  
  
  
  
  
  
  
  
  
  
  
  
  
  
  
  
  
  
  
  
  
  
  
  
  
  
  
  
  
  
  
  
  
  
  
  
  
  
  
  
  
  
  
  
  
  
  
  
  
  
  
  
  
  
  
  
  
  
  
  
  
  
  
  
  
  
  
  
  
  
  
  
  
  
  
  
  
  
  
  
  
  
  
  
  
  
  
  
  
  
  
  
  
  
  
  
  
  
  
  
  
  
  
  
  
  
  
  
  
  
  
  
  
  
  
  
  
  
  
  
  
  
  
  
  
  
  
  
  
  
  
  
  
  
  
  
  
  
  
  
  
  
  
  
  
  
  
  
  
  
  
  
  
  
  
  
  
  
  
  
  
  
  
  
  
  
  
  
  
  
  
  
  
  
  
  
  
  
  
  
  
  
  
  
  
  
  
  
  
  
  
  
  
  
  
  
  
  
  
  
  
  
  
  
  
  
  
  
  
  
  
  
  
  
  
  
  
  
  
  
  
  
  
  
  
  
  
  
  
  
  
  
  
  
  
  
  
  
  
  
  
  
  
  
  
  
  
  
  
  
  
  
  
  
  
  
  
  
  
  
  
  
  
  
  
  
  
  
  
  
  
  
  
  
  
  
  
  
  
  
  
  
  
  
  
  
  
  
  
  
  
  
  
  
  
  
  
  
  
  
  
  
  
  
  
  
  
  
  
  
  
  
  
  
  
  
  
  
  
  
  
  
  
  
  
  
  
  
  
  
  
  
  
  
  
  
  
  
  
  
  
  
  
  
  
  
  
  
  
  
  
  
  
  
  
  
  
  
  
  
  
  
  
  
  
  
  
  
  
  
  
  
  
  
  
  
  
  
  
  
  
  
  
  
  
  
  
  
  
  
  
  
  
  
  
  
  
  
  
  
  
  
  
  
  
  
  
  
  
  
  
  
  
  
  
  
  
  
  
  
  
  
  
  
  
  
  
  
  
  
  
  
  
  
  
  
  
  
  
  
  
  
  
  
  
  
  
  
  
  
  
  
  
  
  
  
  
  
  
  
  
  
  
  
  
  
  
  
  
  
  
  
  
  
  
  
  
  
  
  
  
  
  
  
  
  
  
  
  
  
  
  
  
  
  
  
  
  
  
  
  
  
  
  
  
  
  
  
  
  
  
  
  
  
  
  
  
  
  
  
  
  
  
  
  
  
  
  
  
  
  
  
  
  
  
  
  
  
  
  
  
  
  
  
  
  
  
  
  
  
  
  
  
  
  
  
  
  
  
  
  
  
  
  
  
  
  
  
  
  
  
  
  
  
  
  
  
  
  
  
  
  
  
  
  
  
  
  
  
  
  
  
  
  
  
  
  
  
  
  
  
  
  
  
  
  
  
  
  
  
  
  
  
  
  
  
  
  
  
  
  
  
  
  
  
  
  
  
  
  
  
  
  
  
  
  
  
  
  
  
  
  
  
  
  
  
  
  
  
  
  
  
  
  
  
  
  
  
  
  
  
  
  
  
  
  
  
  
  
  
  
  
  
  
  
  
  
  
  
  
  
  
  
  
  
  
  
  
  
  
  
  
  
  
  
  
  
  
  
  
  
  
  
  
  
  
  
  
  
  
  
  
  
  
  
  
  
  
  
  
  
  
  
  
  
  
  
  
  
  
  
  
  
  
  
  
  
  
  
  
  
  
  
  
  
  
  
  
  
  
  
  
  
  
  
  
  
  
  
  
  
  
  
  
  
  
  
  
  
  
  
  
  
  
  
  
  
  
  
  
  
  
  
  
  
  
  
  
  
  
  
  
  
  
  
  
  
  
  
  
  
  
  
  
  
  
  
  
  
  
  
  
  
  
  
  
  
  
  
  
  
  
  
  
  
  
  
  
  
  
  
  
  
  
  
  
  
  
  
  
  
  
  
  
  
  
  
  
  
  
  
  
  
  
  
  
  
  
  
  
  
  
  
  
  
  
  
  
  
  
  
  
  
  
  
  
  
  
  
  
  
  
  
  
  
  
  
  
  
  
  
  
  
  
  
  
  
  
  
  
  
  
  
  
  
  
  
  
  
  
  
  
  
  
  
  
  
  
  
  
  
  
  
  
  
  
  
  
  
  
  
  
  
  
  
  
  
  
  
  
  
  
  
  
  
  
  
  
  
  
  
  
  
  
  
  
  
  
  
  
  
  
  
  
  
  
  
  
  
  
  
  
  
  
  
  
  
  
  
  
  
  
  
  
  
  
  
  
  
  
  
  
  
  
  
  
  
  
  
  
  
  
  
  
  
  
  
  
  
  
  
  
  
  
  
  
  
  
  
  
  
  
  
  
  
  
  
  
  
  
  
  
  
  
  
  
  
  
  
  
  
  
  
  
  
  
  
  
  
  
  
  
  
  
  
  
  
  
  
  
  
  
  
  
  
  
  
  
  
  
  
  
  
  
  
  
  
  
  
  
  
  
  
  
  
  
  
  
  
  
  
  
  
  
  
  
  
  
  
  
  
  
  
  
  
  
  
  
  
  
  
  
  
  
  
  
  
  
  
  
  
  
  
  
  
  
  
  
  
  
  
  
  
  
  
  
  
  
  
  
  
  
  
  
  
  
  
  
  
  
  
  
  
  
  
  
  
  
  
  
  
  
  
  
  
  
  
  
  
  
  
  
  
  
  
  
  
  
  
  
  
  
  
  
  
  
  
  
  
  
  
  
  
  
  
  
  
  
  
  
  
  
  
  
  
  
  
  
  
  
  
  
  
  
  
  
  
  
  
  
  
  
  
  
  
  
  
  
  
  
  
  
  
  
  
  
  
  
  
  
  
  
  
  
  
  
  
  
  
  
  
  
  
  
  
  
  
  
  
  
  
  
  
  
  
  
  
  
  
  
  
  
  
  
  
  
  
  
  
  
  
  
  
  
  
  
  
  
  
  
  
  
  
  
  
  
  
  
  
  
  
  
  
  
  
  
  
  
  
  
  
  
  
  
  
  
  
  
  
  
  
  
  
  
  
  
  
  
  
  
  
  
  
  
  
  
  
  
  
  
  
  
  
  
  
  
  
  
  
  
  
  
  
  
  
  
  
  
  
  
  
  
  
  
  
  
  
  
  
  
  
  
  
  
  
  
  
  
  
  
  
  
  
  
  
  
  
  
  
  
  
  
  
  
  
  
  
  
  
  
  
  
  
  
  
  
  
  
  
  
  
  
  
  
  
  
  
  
  
  
  
  
  
  
  
  
  
  
  
  
  
  
  
  
  
  
  
  
  
  
  
  
  
  
  
  
  
  
  
  
  
  
  
  
  
  
  
  
  
  
  
  
  
  
  
  
  
  
  
  
  
  
  
  
  
  
  
  
  
  
  
  
  
  
  
  
  
  
  
  
  
  
  
  
  
  
  
  
  
  
  
  
  
  
  
  
  
  
  
  
  
  
  
  
  
  
  
  
  
  
  
  
  
  
  
  
  
  
  
  
  
  
  
  
  
  
  
  
  
  
  
  
  
  
  
  
  
  
  
  
  
  
  
  
  
  
  
  
  
  
  
  
  
  
  
  
  
  
  
  
  
  
  
  
  
  
  
  
  
  
  
  
  
  
  
  
  
  
  
  
  
  
  
  
  
  
  
  
  
  
  
  
  
  
  
  
  
  
  
  
  
  
  
  
  
  
  
  
  
  
  
  
  
  
  
  
  
  
  
  
  
  
  
  
  
  
  
  
  
  
  
  
  
  
  
  
  
  
  
  
  
  
  
  
  
  
  
  
  
  
  
  
  
  
  
  
  
  
  
  
  
  
  
  
  
  
  
  
  
  
  
  
  
  
  
  
  
  
  
  
  
  
  
  
  
  
  
  
  
  
  
  
  
  
  
  
  
  
  
  
  
  
  
  
  
  
  
  
  
  
  
  
  
  
  
  
  
  
  
  
  
  
  
  
  
  
  
  
  
  
  
  
  
  
  
  
  
  
  
  
  
  
  
  
  
  
  
  
  
  
  
  
  
  
  
  
  
  
  
  
  
  
  
  
  
  
  
  
  
  
  
  
  
  
  
  
  
  
  
  
  
  
  
  
  
  
  
  
  
  
  
  
  
  
  
  
  <path
   style="fill:#72b3dc;stroke:#c2dffb;stroke-width:1"
   d="m 56.703,50.322 5.963,0.612 -0.103,1.137 5.741,0.517 -0.184,2.214 -0.437,5.067 -8.586,-0.727 -3.214,-0.311 0.82,-8.509"
   id="56021"
   inkscape:label="Laramie, WY"
   inkscape:connector-curvature="0" />
  <path
   style="fill:#72b3dc;stroke:#c2dffb;stroke-width:1"
   d="m 69.454,39.049 -0.667,7.883 -0.338,3.927 -0.145,1.729 -5.741,-0.517 0.103,-1.137 1.105,-12.357 1.618,0.142 2.284,0.173 1.781,0.157"
   id="56015"
   inkscape:label="Goshen, WY"
   inkscape:connector-curvature="0" />
  <path
   style="fill:#72b3dc;stroke:#c2dffb;stroke-width:1"
   d="m 7.919,4.76 3.51,0.55 -0.162,1.068 2.655,0.405 0.591,0.505 0.098,0.135 0.077,0.347 -0.04,0.181 -0.01,1.221 0.344,1.177 0.567,1.681 0.442,0.95 -1.258,8.551 -0.216,1.109 -2.655,-0.402 -0.166,1.109 L 9.527,23.009 9.41,23.73 7.233,23.392 7.36,22.567 6.341,22.193 5.264,22.022 6.593,13.485 7.585,7.221 7.919,4.76"
   id="56039"
   inkscape:label="Teton, WY"
   inkscape:connector-curvature="0" />
  <path
   style="fill:#72b3dc;stroke:#c2dffb;stroke-width:1"
   d="m 5.264,22.022 1.077,0.171 1.019,0.374 -0.127,0.825 2.177,0.338 -0.211,1.397 -0.776,4.43 -0.157,0.884 -0.519,3.354 0.118,2.258 2.145,0.356 2.425,0.429 -0.28,1.869 -0.212,1.903 -0.779,5.133 -9.47,-1.493 0.861,-5.409 1.051,-6.551 1.058,-6.482 0.6,-3.786"
   id="56023"
   inkscape:label="Lincoln, WY"
   inkscape:connector-curvature="0" />
  <path
   style="fill:#72b3dc;stroke:#c2dffb;stroke-width:1"
   d="m 1.694,44.25 9.47,1.493 -1.114,7.45 L 5.714,52.571 0.5,51.71 1.023,48.456 1.694,44.25"
   id="56041"
   inkscape:label="Uinta, WY"
   inkscape:connector-curvature="0" />
  <path
   style="fill:#72b3dc;stroke:#c2dffb;stroke-width:1"
   d="m 14.733,21.531 2.74,0.427 0.379,1.334 0.099,0.754 -0.013,0.103 -0.117,0.307 -0.059,0.27 -0.018,0.514 0.122,0.505 0.649,2.262 1.893,2.277 1.528,1.806 0.477,0.641 -0.189,3.376 -0.302,2.181 -4.3,-0.6 -2.348,-0.369 -2.839,-0.481 -2.425,-0.429 -2.145,-0.356 -0.118,-2.258 0.519,-3.354 0.157,-0.884 0.776,-4.43 0.211,-1.397 0.117,-0.721 2.169,0.338 0.166,-1.109 2.655,0.402 0.216,-1.109"
   id="56035"
   inkscape:label="Sublette, WY"
   inkscape:connector-curvature="0" />
  <path
   style="fill:#72b3dc;stroke:#c2dffb;stroke-width:1"
   d="m 19.948,2.209 4.791,0.649 1.677,0.307 0.184,0.026 1.195,0.162 2.799,0.37 -0.212,1.65 0.207,0.396 -0.311,2.759 -0.067,1.392 -0.604,4.516 0.211,0.027 -0.152,1.141 -2.214,-0.298 -1.293,0.983 -0.122,1.104 -1.654,-0.221 -0.153,1.132 -1.659,-0.23 -0.379,-0.018 -0.053,-0.212 -0.695,-1.15 -0.473,-0.45 -0.167,-0.126 -0.45,-0.257 -0.095,-0.005 -0.888,0.365 -0.144,0.185 -0.239,0.473 -1.699,0.163 -0.888,-1.686 -0.645,-0.78 L 15.991,12.98 15.549,12.03 14.982,10.349 14.638,9.172 14.648,7.951 14.688,7.77 14.611,7.423 14.513,7.288 13.922,6.783 11.267,6.378 11.429,5.31 7.919,4.76 8.703,0.5 l 1.519,0.235 1.122,0.229 0.396,0.136 1.357,0.212 0.023,0.004 2.997,0.406 1.018,0.049 0.758,0.118 2.055,0.32"
   id="56029"
   inkscape:label="Park, WY"
   inkscape:connector-curvature="0" />
  <path
   style="fill:#72b3dc;stroke:#c2dffb;stroke-width:1"
   d="m 12.435,36.838 2.839,0.481 2.348,0.369 4.3,0.6 14.337,1.888 -0.122,1.501 0.028,0.761 -0.559,4.473 -0.171,1.068 -3.994,-0.523 -0.243,2.244 -0.059,1.131 -0.658,5.107 -3.191,-0.384 -7.666,-1.032 -1.511,-0.22 -4.497,-0.6 -0.375,-0.054 -1.343,-0.189 -1.383,-0.198 -0.01,0 -0.455,-0.068 1.114,-7.45 0.779,-5.133 0.212,-1.903 0.28,-1.869"
   id="56037"
   inkscape:label="Sweetwater, WY"
   inkscape:connector-curvature="0" />
  <path
   style="fill:#72b3dc;stroke:#c2dffb;stroke-width:1"
   d="m 37.535,24.149 0.554,0.068 0.122,0.392 -0.257,2.218 -0.28,2.213 0.109,0.234 -0.509,4.241 -0.438,1.456 -0.487,2.961 0.18,0.023 -0.27,2.221 -14.337,-1.888 0.302,-2.181 0.189,-3.376 -0.477,-0.641 -1.528,-1.806 -1.893,-2.277 -0.649,-2.262 -0.122,-0.505 0.018,-0.514 0.059,-0.27 0.117,-0.307 0.013,-0.103 -0.099,-0.754 -0.379,-1.334 -2.74,-0.427 1.023,-6.955 0.645,0.78 0.888,1.686 1.699,-0.163 0.239,-0.473 0.144,-0.185 0.888,-0.365 0.095,0.005 0.45,0.257 0.167,0.126 0.473,0.45 0.695,1.15 0.053,0.212 0.627,0.734 0.473,0.911 -0.131,0.928 1.132,0.253 1.045,0.148 1.087,0.329 0.676,0.536 0.298,0.55 1.049,0.519 2.132,0.847 0.811,0.108 0.587,0.027 0.306,-0.054 5.201,0.631 0.05,-0.374"
   id="56013"
   inkscape:label="Fremont, WY"
   inkscape:connector-curvature="0" />
  <path
   style="fill:#72b3dc;stroke:#c2dffb;stroke-width:1"
   d="m 29.666,15.604 0.558,0.067 0.428,1.204 -0.171,1.136 1.01,0.869 1.194,0.519 1.456,0.189 0.473,0.757 0.171,0.438 1.997,0.247 0.978,1.258 -0.225,1.861 -0.05,0.374 -5.201,-0.631 -0.306,0.054 -0.587,-0.027 -0.811,-0.108 -2.132,-0.847 -1.049,-0.519 -0.298,-0.55 -0.676,-0.536 -1.087,-0.329 -1.045,-0.148 -1.132,-0.253 0.131,-0.928 -0.473,-0.911 -0.627,-0.734 0.379,0.018 1.659,0.23 0.153,-1.132 1.654,0.221 0.122,-1.104 1.293,-0.983 2.214,0.298"
   id="56017"
   inkscape:label="Hot Springs, WY"
   inkscape:connector-curvature="0" />
  <path
   style="fill:#72b3dc;stroke:#c2dffb;stroke-width:1"
   d="m 29.666,15.604 0.152,-1.141 10.777,1.37 2.1,0.28 0.167,0.018 -0.518,4.493 -0.325,4.08 -3.93,-0.487 -0.554,-0.068 0.225,-1.861 -0.978,-1.258 -1.997,-0.247 -0.171,-0.438 -0.473,-0.757 -1.456,-0.189 -1.194,-0.519 -1.01,-0.869 0.171,-1.136 -0.428,-1.204 -0.558,-0.067"
   id="56043"
   inkscape:label="Washakie, WY"
   inkscape:connector-curvature="0" />
  <path
   style="fill:#72b3dc;stroke:#c2dffb;stroke-width:1"
   d="m 30.594,3.723 3.367,0.456 3.069,0.374 0.18,0.153 0.059,0.076 0.148,1.095 0.163,1.497 0.59,1.041 0.428,0.356 0.243,0.122 0.163,-0.068 0.257,-0.054 0.5,0.311 1.388,1.253 0.081,0.198 0.027,0.28 1.335,1.644 0.225,0.754 0.135,0.87 -0.257,2.032 -2.1,-0.28 -10.777,-1.37 -0.211,-0.027 0.604,-4.516 0.067,-1.392 0.311,-2.759 -0.207,-0.396 0.212,-1.65"
   id="56003"
   inkscape:label="Big Horn, WY"
   inkscape:connector-curvature="0" />
  <path
   style="fill:#72b3dc;stroke:#c2dffb;stroke-width:1"
   d="m 51.962,6.396 2.167,0.234 -0.152,1.605 -0.086,1.532 -0.117,1.501 -0.091,0.893 -1.55,-0.163 -2.285,-0.211 -0.005,0.054 L 41.257,10.813 41.23,10.533 41.149,10.335 39.761,9.082 39.261,8.771 39.004,8.825 38.841,8.893 38.598,8.771 38.17,8.415 37.58,7.374 37.417,5.877 37.269,4.782 37.21,4.706 37.03,4.553 l 2.744,0.342 4.296,0.527 0.482,0.099 1.74,0.212 5.67,0.663"
   id="56033"
   inkscape:label="Sheridan, WY"
   inkscape:connector-curvature="0" />
  <path
   style="fill:#72b3dc;stroke:#c2dffb;stroke-width:1"
   d="m 42.695,16.113 0.257,-2.032 -0.135,-0.87 -0.225,-0.754 -1.335,-1.644 8.586,1.028 0.005,-0.054 2.285,0.211 1.55,0.163 -0.161,1.081 -0.159,1.343 -0.256,2.443 0.004,0.131 0.022,0.067 -0.094,1.055 -0.284,2.713 -0.153,0.708 -0.28,2.528 -0.162,1.672 -0.563,-0.053 -4.733,-0.478 -4.858,-0.568 0.013,-0.099 0.325,-4.08 0.518,-4.493 -0.167,-0.018"
   id="56019"
   inkscape:label="Johnson, WY"
   inkscape:connector-curvature="0" />
  <path
   style="fill:#72b3dc;stroke:#c2dffb;stroke-width:1"
   d="m 38.089,24.217 3.93,0.487 -0.013,0.099 4.858,0.568 4.733,0.478 -0.018,0.531 -0.271,2.623 -0.36,3.3 -0.428,3.844 -0.356,3.381 -5.463,-0.574 -2.835,-0.35 -5.337,-0.649 -0.18,-0.023 0.487,-2.961 0.438,-1.456 0.509,-4.241 -0.109,-0.234 0.28,-2.213 0.257,-2.218 -0.122,-0.392"
   id="56025"
   inkscape:label="Natrona, WY"
   inkscape:connector-curvature="0" />
  <path
   style="fill:#72b3dc;stroke:#c2dffb;stroke-width:1"
   d="m 36.529,37.955 5.337,0.649 2.835,0.35 5.463,0.574 0.022,0 -0.848,8 -0.437,4.281 -0.094,1.123 -1.339,-0.127 -1.095,-0.14 -0.388,3.511 -0.153,1.605 -5.151,-0.625 -4.427,-0.521 -5.773,-0.697 0.658,-5.107 0.059,-1.131 0.243,-2.244 3.994,0.523 0.171,-1.068 0.559,-4.473 -0.028,-0.761 0.122,-1.501 0.27,-2.221"
   id="56007"
   inkscape:label="Carbon, WY"
   inkscape:connector-curvature="0" />
  <path
   style="fill:#72b3dc;stroke:#c2dffb;stroke-width:1"
   d="m 50.186,39.528 4.877,0.541 -0.037,0.315 -0.22,0.356 -0.369,-0.04 -0.086,0.941 0.126,0.104 0.928,0.193 1.181,0.113 0.194,-0.545 0.045,-0.554 0.131,-0.36 0.212,-0.32 0.464,0.04 -0.338,4.435 -0.131,1.518 -0.288,2.961 -0.172,1.096 -0.82,8.509 -8.798,-0.901 -1.253,-0.149 0.153,-1.605 0.388,-3.511 1.095,0.14 1.339,0.127 0.094,-1.123 0.437,-4.281 0.848,-8"
   id="56001"
   inkscape:label="Albany, WY"
   inkscape:connector-curvature="0" />
  <path
   style="fill:#72b3dc;stroke:#c2dffb;stroke-width:1"
   d="m 61.715,18.011 6.256,0.509 3.186,0.289 -0.044,0.504 -0.32,3.705 -0.379,4.521 -7.865,-0.659 -1.672,-0.144 0.838,-8.725"
   id="56045"
   inkscape:label="Weston, WY"
   inkscape:connector-curvature="0" />
  <path
   style="fill:#72b3dc;stroke:#c2dffb;stroke-width:1"
   d="m 62.639,7.401 0.464,0.045 8.92,0.843 -0.866,10.52 -3.186,-0.289 -6.256,-0.509 -0.027,-0.005 0.031,-0.523 0.654,-6.95 0.117,-1.595 0.149,-1.537"
   id="56011"
   inkscape:label="Crook, WY"
   inkscape:connector-curvature="0" />
  <path
   style="fill:#72b3dc;stroke:#c2dffb;stroke-width:1"
   d="m 54.129,6.63 0.97,0.045 0.649,0.036 6.891,0.69 -0.149,1.537 -0.117,1.595 -0.654,6.95 -0.031,0.523 0.027,0.005 -0.838,8.725 -8.717,-0.834 0.162,-1.672 0.28,-2.528 0.153,-0.708 0.284,-2.713 0.094,-1.055 -0.022,-0.067 -0.004,-0.131 0.256,-2.443 0.159,-1.343 0.161,-1.081 0.091,-0.893 0.117,-1.501 0.086,-1.532 0.152,-1.605"
   id="56005"
   inkscape:label="Campbell, WY"
   inkscape:connector-curvature="0" />
  <path
   style="fill:#72b3dc;stroke:#c2dffb;stroke-width:1"
   d="m 52.16,25.902 8.717,0.834 1.672,0.144 -0.158,1.87 -0.559,5.932 -0.09,1.447 -0.202,2.249 -1.907,-0.176 -1.807,-0.139 -0.194,2.249 -0.464,-0.04 -0.212,0.32 -0.131,0.36 -0.045,0.554 -0.194,0.545 -1.181,-0.113 -0.928,-0.193 -0.126,-0.104 0.086,-0.941 0.369,0.04 0.22,-0.356 0.037,-0.315 -4.877,-0.541 -0.022,0 0.356,-3.381 0.428,-3.844 0.36,-3.3 0.271,-2.623 0.018,-0.531 0.563,0.053"
   id="56009"
   inkscape:label="Converse, WY"
   inkscape:connector-curvature="0" />
  <path
   style="fill:#72b3dc;stroke:#c2dffb;stroke-width:1"
   d="m 70.414,27.539 -0.536,6.485 -0.424,5.025 -1.781,-0.157 -2.284,-0.173 -1.618,-0.142 -2.231,-0.199 0.202,-2.249 0.09,-1.447 0.559,-5.932 0.158,-1.87 7.865,0.659"
   id="56027"
   inkscape:label="Niobrara, WY"
   inkscape:connector-curvature="0" />
  <path
   style="fill:#72b3dc;stroke:#c2dffb;stroke-width:1"
   d="m 61.54,38.378 2.231,0.199 -1.105,12.357 -5.963,-0.612 0.172,-1.096 0.288,-2.961 0.131,-1.518 0.338,-4.435 0.194,-2.249 1.807,0.139 1.907,0.176"
   id="56031"
   inkscape:label="Platte, WY"
   inkscape:connector-curvature="0" />
  
  
  
</svg>